**ABCDEFGHIJKLMNOPQRSTUVWXYZabcdefghijklmnopqrstuvwxyz**************************
**PARASOLID !"#$%&'()*+,-./:;<=>?@[\]^_`{|}~0123456789**************************
**PART1;
MC=AMD64;
MC_MODEL=Intel64 Family 6 Model 142 Stepping 12, GenuineIntel;
MC_ID=unknown;
OS=Windows_NT;
OS_RELEASE=unknown;
FRU=Parasolid Version 33.1, build 247,  8- 6-2021;
APPL=SOLIDWORKS 2022-2022009;
SITE=;
USER=unknown;
FORMAT=text;
GUISE=transmit;
KEY=FILEConnecting Rod.x_t;
DATE=Thu Jun 15 06:10:17 2023;
**PART2;
SCH=SCH_3301247_33103;
USFLD_SIZE=0;
**PART3;
**END_OF_HEADER*****************************************************************
T51 : TRANSMIT FILE created by modeller version 330124723 SCH_3301247_33103_1300
6230 0 12 35 CCCI7 lattice222 0 CCCI4 mesh1006 0 I8 polyline1008 0 CCCCCCCDI5 ow
ner1040 0 CCCCCCI13 boundary_mesh1006 0 I17 boundary_polyline1008 0 CCCA16 index
_map_offset0 0 1 dA9 index_map82 0 A17 node_id_index_map82 0 A20 schema_embeddin
g_map82 0 A5 child12 0 A14 lowest_node_id0 0 1 dA16 mesh_offset_data206 0 Z1 187
2 2 3 0 0 0 0 0 0 0 1e3 1e-8 0 4 0 1 0 1 1 5 6 7 8 0 0 9 10 11 0 0 0 0 0 0 0 81
 255 2 2 1764 12 1 13 0 0 0 0 14 70 11 CI9 list_type0 0 1 uI10 notransmit0 0 1 l
CCCDCCDI12 finger_index0 0 1 dI12 finger_block1012 0 CZ3 0 4 T1 0 0 10 20 1 15 1
5 13 255 5 31 0 1 0 16 0 0 17 0 51 255 6 1125 0 18 19 0 0 +.01438749456993816 .0
14 .033 0 -1 0 .024 0 0 -1 31 255 7 1034 0 10 20 0 0 -.01438749456993816 .009 .0
33 0 1 0 0 0 1 .024 29 255 8 616 0 11 21 0 .1528355409356765 .009 .009 19 8 CCCC
CCCA5 owner12 0 Z9 9 0 1 17 0 22 V0 16 255 10 655 23 ?24 0 25 7 0 0 1 18 255 11
 614 0 26 0 27 8 ?1 17 255 26 0 28 29 30 11 31 32 0 33 +18 27 611 0 24 11 34 21
 ?1 17 24 0 35 33 36 27 37 10 0 29 +18 34 608 0 38 27 39 40 ?1 29 21 613 0 27 40
 8 .01438749456993816 .009 .009 29 40 610 0 34 41 21 .1528355409356765 -.009 .00
9 29 41 607 0 39 42 40 .01438749456993816 -.009 .009 18 39 605 0 43 34 44 41 ?1
 29 42 598 0 44 45 41 .167388481117454 -.009 -.01391566265060242 18 44 596 0 46
 39 47 42 ?1 29 45 594 0 47 48 42 .167388481117454 .009 -.01391566265060242 18 4
7 592 0 49 44 50 45 ?1 29 48 585 0 50 51 45 .167388481117454 -.009 .013915662650
60242 18 50 583 0 52 47 53 48 ?1 29 51 581 0 53 54 48 .167388481117454 .009 .013
91566265060242 18 53 579 0 55 50 56 51 ?1 29 54 568 0 56 57 51 .0143874945699381
6 .009 -.009 18 56 566 0 58 53 59 54 ?1 29 57 565 0 59 60 54 .1528355409356765 .
009 -.009 18 59 563 0 61 56 62 57 ?1 29 60 562 0 62 63 57 .01438749456993816 -.0
09 -.009 18 62 560 0 64 59 65 60 ?1 29 63 559 0 65 66 60 .1528355409356765 -.009
 -.009 18 65 557 0 67 62 68 63 ?1 29 66 550 0 68 69 63 .00479583152331272 -.009
 -.011 18 68 548 0 70 65 71 66 ?1 29 69 546 0 71 72 66 .00479583152331272 .009 -
.011 18 71 544 0 73 68 74 69 ?1 29 72 537 0 74 75 69 .00479583152331272 -.009 .0
11 18 74 535 0 76 71 77 72 ?1 29 75 533 0 77 78 72 .00479583152331272 .009 .011
 18 77 531 0 36 74 79 75 ?1 29 78 408 0 79 80 75 .021 -.009 -.005 18 79 406 0 81
 77 82 78 ?1 29 80 281 0 82 83 78 .021 .009 .005 18 82 279 0 84 79 85 80 ?1 29 8
3 378 0 86 87 80 .021 .009 -.005 18 86 331 0 88 89 90 83 ?1 29 87 379 0 90 91 83
 .151 .009 -.005 18 90 333 0 92 86 93 87 ?1 29 91 380 0 93 94 87 .151 .009 .005
 18 93 335 0 95 90 96 91 ?1 29 94 382 0 85 97 91 .021 .0025 -.005 18 85 328 0 98
 82 99 94 ?1 29 97 383 0 99 100 94 .151 .0025 -.005 18 99 330 0 101 85 102 97 ?1
 29 100 384 0 102 103 97 .151 .0025 .005 18 102 332 0 104 99 89 100 ?1 29 103 38
5 0 89 105 100 .021 .0025 .005 18 89 334 0 106 102 86 103 ?1 29 105 505 0 107 10
8 103 .021 -.009 .005 18 107 462 0 109 110 111 105 ?1 29 108 506 0 111 112 105 .
151 -.009 .005 18 111 455 0 113 107 114 108 ?1 29 112 507 0 114 115 108 .151 -.0
09 -.005 18 114 457 0 116 111 0 112 ?1 29 115 509 0 96 117 112 .021 -.0025 .005
 18 96 456 0 118 93 119 115 ?1 29 117 510 0 119 120 115 .151 -.0025 .005 18 119
 459 0 121 96 122 117 ?1 29 120 511 0 122 123 117 .151 -.0025 -.005 18 122 460 0
 124 119 110 120 ?1 29 123 512 0 110 0 120 .021 -.0025 -.005 18 110 461 0 125 12
2 107 123 ?1 17 125 0 126 127 128 110 129 130 0 131 +15 255 126 478 0 132 133 0
 17 127 0 126 132 125 79 131 134 0 135 +17 128 0 126 125 132 122 116 136 0 129 -
17 129 0 137 138 139 122 125 130 0 0 -16 130 452 140 ?125 141 142 143 0 0 1 17 1
31 0 144 145 81 110 127 134 0 139 -15 144 466 0 81 146 0 17 145 0 144 147 131 96
 139 142 0 148 +17 81 0 144 131 147 79 149 150 0 127 -16 134 430 151 ?127 136 15
2 153 0 0 1 17 139 0 137 129 118 110 145 142 0 0 -15 137 481 0 139 154 0 17 118
 0 137 139 138 96 121 152 0 145 -16 142 443 155 ?145 130 156 157 0 0 1 81 3 155
 1768 158 142 0 0 151 159 160 0 0 16 156 431 159 ?161 142 162 163 0 0 1 31 157 5
04 0 142 0 143 0 +.021 -.0025 0 0 1 0 0 0 1 .005 30 255 143 503 0 130 157 164 0
 +.021 -.0025 -.005 -1 0 0 31 164 502 0 141 143 165 0 +.151 -.0025 -433680868994
202e-33 0 1 0 0 0 -1 .005 16 141 449 166 ?124 152 130 164 0 0 1 30 165 501 0 152
 164 167 0 +.021 -.0025 .005 1 0 -667201336914157e-32 16 152 446 168 ?121 134 14
1 165 0 0 1 31 167 500 0 150 165 169 0 +.021 -.009 0 0 1 0 0 0 1 .005 16 150 427
 170 ?149 171 0 167 0 0 1 30 169 499 0 171 167 172 0 +.021 -.009 -.005 -1 0 0 16
 171 439 173 ?135 162 150 169 0 0 1 31 172 498 0 162 169 163 0 +.151 -.009 -4336
80868994202e-33 0 1 0 0 0 -1 .005 16 162 435 174 ?175 156 171 172 0 0 1 30 163 4
97 0 156 172 176 0 +.021 -.009 .005 1 0 -667201336914157e-32 30 176 496 0 177 16
3 178 0 +.021 -.0025 .005 0 -1 0 16 177 434 179 ?147 180 181 176 0 0 1 30 178 49
5 0 181 176 182 0 +.151 -.0025 .005 0 -1 0 16 181 438 183 ?113 177 136 178 0 0 1
 30 182 494 0 136 178 153 0 +.151 -.0025 -.005 0 -1 0 16 136 442 184 ?116 181 13
4 182 0 0 1 30 153 493 0 134 182 185 0 +.021 -.0025 -.005 0 -1 0 31 185 377 0 18
6 153 187 0 +.021 .0025 0 0 1 0 0 0 1 .005 16 186 300 188 ?189 190 191 185 0 0 1
 30 187 376 0 190 185 192 0 +.021 .0025 .005 1 0 -667201336914157e-32 16 190 312
 193 ?194 195 186 187 0 0 1 31 192 375 0 195 187 196 0 +.151 .0025 -433680868994
202e-33 0 1 0 0 0 -1 .005 16 195 308 197 ?198 199 190 192 0 0 1 30 196 374 0 199
 192 200 0 +.021 .0025 -.005 -1 0 0 16 199 304 201 ?202 203 195 196 0 0 1 31 200
 373 0 180 196 204 0 +.021 .009 0 0 1 0 0 0 1 .005 16 180 316 205 ?84 206 177 20
0 0 0 1 30 204 372 0 206 200 207 0 +.021 .009 .005 1 0 -667201336914157e-32 16 2
06 319 208 ?209 210 180 204 0 0 1 31 207 371 0 210 204 211 0 +.151 .009 -4336808
68994202e-33 0 1 0 0 0 -1 .005 16 210 322 212 ?213 191 206 207 0 0 1 30 211 370
 0 191 207 214 0 +.021 .009 -.005 -1 0 0 16 191 325 215 ?216 186 210 211 0 0 1 3
0 214 369 0 217 211 218 0 +.021 .0025 -.005 0 1 0 16 217 307 219 ?88 220 221 214
 0 0 1 30 218 368 0 221 214 222 0 +.151 .0025 -.005 0 1 0 16 221 311 223 ?92 217
 224 218 0 0 1 30 222 367 0 224 218 225 0 +.151 .0025 .005 0 1 0 16 224 315 226
 ?95 221 203 222 0 0 1 30 225 366 0 203 222 227 0 +.021 .0025 .005 0 1 0 16 203
 303 228 ?229 224 199 225 0 0 1 31 227 251 0 230 225 231 0 +.178 .021 0 0 1 0 0
 0 1 .012 16 230 213 232 ?233 234 220 227 0 0 1 31 231 250 0 220 227 235 0 +.178
 -.021 0 0 1 0 0 0 1 .012 16 220 208 236 ?237 230 217 231 0 0 1 31 235 249 0 238
 231 239 0 +.178 .021 0 0 1 0 0 0 1 .0175 16 238 207 240 ?241 242 234 235 0 0 1
 31 239 248 0 234 235 243 0 +.178 -.021 0 0 1 0 0 0 1 .0175 16 234 212 244 ?245
 238 230 239 0 0 1 31 243 194 0 246 239 247 0 +0 .009 0 0 -1 0 0 0 1 .012 16 246
 133 248 ?36 249 250 243 0 0 1 30 247 193 0 249 243 251 0 +.00793725393319378 .0
09 .009 1 0 111878367052686e-31 16 249 612 252 ?33 253 246 247 0 0 1 31 251 192
 0 253 247 254 0 +.178 .009 0 0 -1 0 0 0 1 .0175 16 253 139 255 ?49 256 249 251
 0 0 1 30 254 191 0 256 251 257 0 +.00793725393319378 .009 -.009 -1 0 0 16 256 5
64 258 ?259 260 253 254 0 0 1 31 257 190 0 242 254 261 0 +0 -.009 0 0 -1 0 0 0 1
 .012 16 242 117 262 ?76 263 238 257 0 0 1 30 261 189 0 263 257 264 0 +.00793725
393319378 -.009 .009 1 0 111878367052686e-31 16 263 606 265 ?30 266 242 261 0 0
 1 31 264 188 0 266 261 267 0 +.178 -.009 0 0 -1 0 0 0 1 .0175 16 266 125 268 ?4
6 250 263 264 0 0 1 30 267 187 0 250 264 269 0 +.00793725393319378 -.009 -.009 -
1 0 0 16 250 558 270 ?271 246 266 267 0 0 1 31 269 74 0 272 267 273 0 +0 .014 0
 0 1 0 0 0 1 .0075 16 272 54 274 ?275 276 260 269 0 0 1 31 273 73 0 260 269 277
 0 +0 -.014 0 0 1 0 0 0 1 .0075 16 260 51 278 ?279 272 256 273 0 0 1 31 277 7 0
 280 273 281 0 +0 .014 0 0 1 0 0 0 1 .012 16 280 5 282 ?283 284 276 277 0 0 1 31
 281 25 0 276 277 285 0 +0 -.014 0 0 1 0 0 0 1 .012 16 276 20 286 ?287 280 272 2
81 0 0 1 30 285 538 0 284 281 288 0 -.00479583152331272 .014 .011 0 -1 0 16 284
 536 289 ?290 291 280 285 0 0 1 30 288 551 0 291 285 292 0 +.00479583152331272 .
014 -.011 0 -1 0 16 291 549 293 ?294 295 284 288 0 0 1 30 292 571 0 295 288 296
 0 -.1528355409356765 -.009 -.009 0 1 0 16 295 569 297 ?298 299 291 292 0 0 1 30
 296 576 0 299 292 300 0 +.01438749456993816 .009 -.009 0 1 0 16 299 574 301 ?58
 302 295 296 0 0 1 30 300 586 0 302 296 303 0 +.167388481117454 .021 .0139156626
5060242 0 -1 0 16 302 584 304 ?305 306 299 300 0 0 1 30 303 599 0 306 300 307 0
 -.167388481117454 .021 -.01391566265060242 0 -1 0 16 306 597 308 ?309 310 302 3
03 0 0 1 30 307 619 0 310 303 311 0 -.01438749456993816 -.009 .009 0 1 0 16 310
 617 312 ?313 32 306 307 0 0 1 30 311 624 0 32 307 314 0 +.1528355409356765 .009
 .009 0 1 0 16 32 622 315 ?26 316 310 311 0 0 1 31 314 1027 0 316 311 317 0 +.01
438749456993816 -.009 -.033 0 1 0 0 0 1 .024 16 316 627 318 ?64 319 32 314 0 0 1
 31 317 1028 0 319 314 320 0 -.01438749456993816 .009 -.033 0 1 0 0 0 1 .024 16
 319 631 321 ?322 323 316 317 0 0 1 31 320 1029 0 323 317 324 0 +.15283554093567
65 -.009 -.033 0 1 0 0 0 1 .024 16 323 635 325 ?326 327 319 320 0 0 1 31 324 103
0 0 327 320 328 0 -.1528355409356765 .009 -.033 0 1 0 0 0 1 .024 16 327 639 329
 ?61 330 323 324 0 0 1 31 328 1031 0 330 324 331 0 +.1528355409356765 -.009 .033
 0 1 0 0 0 1 .024 16 330 643 332 ?38 333 327 328 0 0 1 31 331 1032 0 333 328 20
 0 -.1528355409356765 .009 .033 0 1 0 0 0 1 .024 16 333 647 334 ?335 25 330 331
 0 0 1 31 20 1033 0 25 331 7 0 +.01438749456993816 -.009 .033 0 1 0 0 0 1 .024 1
6 25 651 336 ?337 10 333 20 0 0 1 81 3 336 1820 158 25 0 0 334 0 338 0 0 17 337
 0 339 70 340 74 43 25 0 341 +15 339 174 0 70 16 342 17 70 0 339 64 337 68 76 24
2 0 343 -17 340 0 339 337 38 39 30 263 0 0 -17 43 0 344 345 341 39 337 25 0 313
 -17 341 0 344 43 37 74 290 284 0 0 -15 344 1114 0 37 18 0 17 37 0 344 341 345 7
7 24 10 0 0 -17 290 0 346 73 76 77 341 284 0 37 +15 346 97 0 294 347 348 17 73 0
 346 294 290 71 36 246 0 322 -17 76 0 346 290 294 74 70 242 0 337 +17 294 0 346
 76 73 68 349 291 0 0 +17 349 0 350 351 343 71 294 291 0 0 -15 350 1051 0 351 35
2 0 17 351 0 350 353 349 56 322 319 0 0 -17 343 0 350 349 353 68 64 316 0 294 -1
7 353 0 350 343 351 62 58 299 0 0 -17 64 0 339 354 70 62 343 316 0 271 +17 354 0
 339 326 64 65 271 250 0 0 -17 271 0 355 58 298 62 354 250 0 353 +15 355 168 0 2
71 356 0 17 58 0 355 357 271 56 353 299 0 259 +17 298 0 355 271 357 65 358 295 0
 354 +17 357 0 355 298 58 59 259 256 0 358 -17 358 0 359 360 67 59 298 295 0 0 -
15 359 1072 0 360 361 0 17 360 0 359 362 358 47 61 327 0 0 -17 67 0 359 358 362
 65 326 323 0 298 -17 362 0 359 67 360 44 309 306 0 0 -17 326 0 339 52 354 44 67
 323 0 362 +17 52 0 339 38 326 50 46 266 0 363 -17 38 0 339 340 52 34 363 330 0
 30 +17 46 0 364 309 305 44 52 266 0 326 +17 363 0 365 366 31 50 38 330 0 305 -1
5 365 1093 0 367 368 0 17 366 0 365 367 363 53 305 302 0 0 -17 31 0 365 363 367
 34 26 32 0 0 -17 305 0 364 46 55 50 366 302 0 0 +15 364 231 0 46 369 370 17 55
 0 364 305 309 53 49 253 0 335 -17 309 0 364 55 46 47 362 306 0 360 +17 49 0 35
 61 335 47 55 253 0 309 +17 335 0 35 49 33 53 367 333 0 366 +15 35 171 0 36 371
 0 17 33 0 35 335 24 11 29 249 0 367 +17 367 0 365 31 366 11 335 333 0 0 -17 29
 0 28 313 26 27 33 249 0 345 -15 28 160 0 30 372 0 17 313 0 28 30 29 39 345 310
 0 340 +17 345 0 344 37 43 27 313 310 0 0 -17 30 0 28 26 313 34 340 263 0 31 +14
 255 372 157 373 ?356 374 28 5 375 -0 0 356 374 22 81 3 373 1822 376 372 377 0 0
 378 379 0 0 14 356 165 378 ?371 372 355 5 380 -0 0 371 372 22 14 374 57 381 ?37
2 347 382 5 383 +0 0 372 347 22 50 255 375 178 0 372 380 383 0 +.007937253933193
78 .009 .009 111878367052686e-31 0 -1 -1 0 -111878367052686e-31 13 22 10 0 0 0 0
 0 0 9 16 14 16 424 384 ?385 0 339 5 386 -0 0 385 0 22 81 3 384 1828 376 16 387
 0 381 388 389 0 0 14 385 48 388 ?390 16 391 5 392 +0 0 390 16 22 50 386 181 0 1
6 393 380 0 +0 -.009 0 0 1 0 0 0 1 50 393 182 0 371 394 386 0 +0 .009 0 0 1 0 0
 0 1 50 380 180 0 356 386 375 0 +.00793725393319378 .009 -.009 0 0 1 1 0 0 14 37
1 169 395 ?396 356 397 5 393 +0 0 396 356 22 51 394 240 0 369 398 393 0 -.178 .0
21 0 0 -1 0 .0175 0 0 -1 14 369 229 399 ?400 401 364 5 394 -0 0 400 401 22 50 39
8 241 0 401 402 394 0 +.178 -.021 0 0 1 0 0 0 1 14 401 225 403 ?369 396 404 5 39
8 -0 0 369 396 22 50 402 242 0 396 405 398 0 +.178 .021 0 0 1 0 0 0 1 14 396 221
 406 ?401 371 407 5 402 +0 0 401 371 22 51 405 243 0 400 408 402 0 -.178 .021 0
 0 -1 0 .012 0 0 -1 14 400 234 409 ?410 369 411 5 405 +0 0 410 369 22 51 408 360
 0 410 412 405 0 +.021 .0025 0 0 1 0 .005 0 0 1 14 410 336 413 ?414 400 415 5 40
8 -0 0 414 400 22 50 412 361 0 416 417 408 0 +.021 .0025 .005 667201336914157e-3
2 0 1 1 0 -667201336914157e-32 14 416 348 418 ?419 420 421 5 412 -0 0 419 420 22
 51 417 362 0 420 422 412 0 +.151 .0025 -433680868994202e-33 0 1 0 .005 0 0 1 14
 420 344 423 ?416 414 424 5 417 -0 0 416 414 22 50 422 363 0 414 425 417 0 +.021
 .0025 -.005 0 0 -1 -1 0 0 14 414 340 426 ?420 410 427 5 422 -0 0 420 410 22 50
 425 365 0 419 428 422 0 +.021 .0025 0 0 1 0 0 0 1 14 419 352 429 ?146 416 430 5
 425 +0 0 146 416 22 51 428 487 0 146 431 425 0 -.021 -.0025 0 0 -1 0 .005 0 0 -
1 14 146 463 432 ?433 419 144 5 428 +0 0 433 419 22 50 431 488 0 133 434 428 0 +
.021 -.0025 -.005 0 0 1 1 0 0 14 133 475 435 ?154 436 126 5 431 +0 0 154 436 22
 51 434 489 0 436 437 431 0 -.151 -.0025 -433680868994202e-33 0 -1 0 .005 0 0 -1
 14 436 471 438 ?133 433 439 5 434 +0 0 133 433 22 50 437 490 0 433 440 434 0 +.
021 -.0025 .005 -667201336914157e-32 0 -1 -1 0 667201336914157e-32 14 433 467 44
1 ?436 146 442 5 437 +0 0 436 146 22 50 440 492 0 154 0 437 0 +.021 -.0025 0 0 -
1 0 0 0 1 14 154 479 443 ?352 133 137 5 440 +0 0 352 133 22 81 3 443 1860 376 15
4 444 0 441 445 446 0 0 14 352 1050 445 ?361 154 350 5 447 -0 0 361 154 22 81 3
 445 1862 376 352 448 0 443 449 450 0 0 14 361 1071 449 ?368 352 359 5 451 -0 0
 368 352 22 51 447 1062 0 352 452 451 0 +.01438749456993816 .014 -.033 0 -1 0 .0
24 0 0 -1 51 452 30 0 347 453 447 0 -0 .014 0 0 -1 0 .012 0 0 -1 51 451 1083 0 3
61 447 19 0 +.1528355409356765 .021 -.033 0 -1 0 .024 0 0 -1 51 19 1104 0 368 45
1 6 0 +.1528355409356765 .021 .033 0 -1 0 .024 0 0 -1 14 368 1092 454 ?18 361 36
5 5 19 -0 0 18 361 22 81 3 454 1866 376 368 455 0 449 456 457 0 0 14 18 1113 456
 ?0 368 344 5 6 -0 0 0 368 22 81 3 456 1868 376 18 458 0 454 459 460 0 0 80 255
 3 376 461 462 9000 0 0 0 0 3 5 0 0 0 FFFFTFFFFFFFFF1 1 1 81 1 458 1867 463 18 4
64 456 455 465 466 81 3 459 1870 376 347 465 0 456 467 468 0 0 82 255 6 460 26 1
604248176 31031875 0 817020667 957237587 14 347 27 459 ?374 390 346 5 452 -0 0 3
74 390 22 81 1 465 1869 463 347 469 459 458 470 471 81 3 467 1872 376 390 470 0
 459 0 472 0 0 82 6 468 4 1604248176 31031875 0 817020667 957237587 14 390 42 46
7 ?347 385 473 5 453 -0 0 347 385 22 81 1 470 1871 463 390 474 467 465 0 475 82
 6 472 3 1604248176 31031875 0 817020667 957237587 80 1 463 476 477 9000 1 1 1 1
 1 1 1 1 0 FFFFTFTFFFFFFF1 81 1 474 1605 478 390 0 470 479 469 480 82 1 475 4228
38375 80 1 478 0 481 8001 0 0 0 0 3 5 0 0 0 FFFFTFTFFFFFFF2 81 1 479 1604 478 38
5 0 482 483 474 484 81 1 469 1606 478 347 0 465 474 485 486 83 255 3 480 .776470
588235294 .756862745098039 .737254901960784 81 1 485 1607 478 374 0 487 469 488
 489 83 3 486 .776470588235294 .756862745098039 .737254901960784 81 1 487 1825 4
63 374 485 381 490 387 491 81 1 488 1608 478 372 0 377 485 492 493 83 3 489 .776
470588235294 .756862745098039 .737254901960784 81 1 377 1821 463 372 488 373 0 4
90 494 81 1 492 1609 478 356 0 490 488 495 496 83 3 493 .776470588235294 .756862
745098039 .737254901960784 81 1 490 1823 463 356 492 378 377 487 497 81 1 495 16
10 478 371 0 498 492 499 500 83 3 496 .776470588235294 .756862745098039 .7372549
01960784 81 1 498 1831 463 371 495 395 482 501 502 81 1 499 1611 478 396 0 503 4
95 504 505 83 3 500 .776470588235294 .756862745098039 .737254901960784 81 1 503
 1837 463 396 499 406 506 507 508 81 1 504 1612 478 401 0 506 499 509 510 83 3 5
05 .776470588235294 .756862745098039 .737254901960784 81 1 506 1835 463 401 504
 403 501 503 511 81 1 509 1613 478 369 0 501 504 512 513 83 3 510 .7764705882352
94 .756862745098039 .737254901960784 81 1 501 1833 463 369 509 399 498 506 514 8
1 1 512 1614 478 400 0 507 509 515 516 83 3 513 .776470588235294 .75686274509803
9 .737254901960784 81 1 507 1839 463 400 512 409 503 517 518 81 1 515 1615 478 4
10 0 517 512 519 520 83 3 516 .776470588235294 .756862745098039 .737254901960784
 81 1 517 1841 463 410 515 413 507 521 522 81 1 519 1616 478 414 0 523 515 524 5
25 83 3 520 .776470588235294 .756862745098039 .737254901960784 81 1 523 1847 463
 414 519 426 526 527 528 81 1 524 1617 478 420 0 526 519 529 530 83 3 525 .77647
0588235294 .756862745098039 .737254901960784 81 1 526 1845 463 420 524 423 521 5
23 531 81 1 529 1618 478 416 0 521 524 532 533 83 3 530 .776470588235294 .756862
745098039 .737254901960784 81 1 521 1843 463 416 529 418 517 526 534 81 1 532 16
19 478 419 0 527 529 535 536 83 3 533 .776470588235294 .756862745098039 .7372549
01960784 81 1 527 1849 463 419 532 429 523 537 538 81 1 535 1620 478 146 0 537 5
32 539 540 83 3 536 .776470588235294 .756862745098039 .737254901960784 81 1 537
 1851 463 146 535 432 527 541 542 81 1 539 1621 478 433 0 543 535 544 545 83 3 5
40 .776470588235294 .756862745098039 .737254901960784 81 1 543 1857 463 433 539
 441 546 444 547 81 1 544 1622 478 436 0 546 539 548 549 83 3 545 .7764705882352
94 .756862745098039 .737254901960784 81 1 546 1855 463 436 544 438 541 543 550 8
1 1 548 1623 478 133 0 541 544 551 552 83 3 549 .776470588235294 .75686274509803
9 .737254901960784 81 1 541 1853 463 133 548 435 537 546 553 81 1 551 1624 478 1
54 0 444 548 554 555 83 3 552 .776470588235294 .756862745098039 .737254901960784
 81 1 444 1859 463 154 551 443 543 448 556 81 1 554 1625 478 352 0 448 551 557 5
58 83 3 555 .776470588235294 .756862745098039 .737254901960784 81 1 448 1861 463
 352 554 445 444 559 560 81 1 557 1626 478 361 0 559 554 561 562 83 3 558 .77647
0588235294 .756862745098039 .737254901960784 81 1 559 1863 463 361 557 449 448 4
55 563 81 1 561 1627 478 368 0 455 557 464 564 83 3 562 .776470588235294 .756862
745098039 .737254901960784 81 1 455 1865 463 368 561 454 559 458 565 81 1 464 16
28 478 18 0 458 561 0 566 83 3 564 .776470588235294 .756862745098039 .7372549019
60784 83 3 566 .776470588235294 .756862745098039 .737254901960784 82 1 565 -6684
67074 81 3 449 1864 376 361 559 0 445 454 567 0 0 82 1 563 -670433154 82 6 567 2
4 1604248176 31031875 0 817020667 957237587 82 1 560 -672399234 82 1 556 -170740
9284 81 3 435 1854 376 133 541 0 432 438 568 0 0 82 1 553 -1700331396 81 3 432 1
852 376 146 537 0 429 435 569 0 0 81 3 438 1856 376 436 546 0 435 441 570 0 0 82
 6 568 21 1604248176 31031875 0 817020667 957237587 81 3 441 1858 376 433 543 0
 438 443 571 0 0 82 6 570 20 1604248176 31031875 0 817020667 957237587 82 6 571
 19 1604248176 31031875 0 817020667 957237587 81 3 429 1850 376 419 527 0 426 43
2 572 0 0 82 6 569 18 1604248176 31031875 0 817020667 957237587 81 3 426 1848 37
6 414 523 0 423 429 573 0 0 82 6 572 17 1604248176 31031875 0 817020667 95723758
7 81 3 423 1846 376 420 526 0 418 426 574 0 0 82 6 573 14 1604248176 31031875 0
 817020667 957237587 81 3 418 1844 376 416 521 0 413 423 575 0 0 82 6 574 15 160
4248176 31031875 0 817020667 957237587 81 3 413 1842 376 410 517 0 409 418 576 0
 0 82 6 575 16 1604248176 31031875 0 817020667 957237587 81 3 409 1840 376 400 5
07 0 406 413 577 0 0 82 6 576 13 1604248176 31031875 0 817020667 957237587 81 3
 406 1838 376 396 503 0 403 409 578 0 0 82 6 577 12 1604248176 31031875 0 817020
667 957237587 81 3 403 1836 376 401 506 0 399 406 579 0 0 82 6 578 9 1604248176
 31031875 0 817020667 957237587 81 3 399 1834 376 369 501 0 395 403 580 0 0 82 6
 579 10 1604248176 31031875 0 817020667 957237587 81 3 395 1832 376 371 498 0 38
8 399 581 0 0 82 6 580 11 1604248176 31031875 0 817020667 957237587 81 3 388 183
0 376 385 482 0 384 395 582 0 0 82 6 581 8 1604248176 31031875 0 817020667 95723
7587 81 1 482 1829 463 385 479 388 387 498 583 82 6 582 2 1604248176 31031875 0
 817020667 957237587 81 1 387 1827 463 16 483 384 487 482 584 82 1 583 423362663
 81 1 483 1603 478 16 0 387 0 479 585 82 1 584 -1695154050 83 3 585 .77647058823
5294 .756862745098039 .737254901960784 82 1 550 -1700593540 82 1 547 -1700855684
 82 1 542 -1700069252 82 1 538 -1982594950 82 1 534 -1975779206 82 1 531 -197591
0278 82 1 528 -1976041350 82 1 522 -1975648134 82 1 518 1947664503 82 1 514 1947
795582 82 1 511 1947271287 82 1 508 1947140215 82 1 502 1942421630 81 3 378 1824
 376 356 490 0 373 381 586 0 0 82 1 497 1942159486 81 3 381 1826 376 374 487 0 3
78 384 587 0 0 82 6 586 7 1604248176 31031875 0 817020667 957237587 82 6 587 5 1
604248176 31031875 0 817020667 957237587 82 1 494 1941700734 82 1 491 417005671
 83 3 484 .776470588235294 .756862745098039 .737254901960784 79 255 15 481 SDL/T
YSA_COLOUR79 14 477 SWEntUnchanged15 473 19 0 588 390 589 50 453 24 0 390 392 45
2 0 +0 -.014 0 0 1 0 0 0 1 50 392 3 0 385 383 453 0 +0 .014 0 0 1 0 0 0 1 51 383
 70 0 374 375 392 0 -0 .014 0 0 -1 0 .0075 0 0 -1 17 588 0 473 588 588 0 287 276
 0 0 -15 589 40 0 279 390 0 17 279 0 589 279 279 0 590 260 0 0 +17 590 0 591 590
 590 0 279 260 0 0 -15 591 61 0 590 374 0 17 287 0 592 287 287 0 588 276 0 0 +15
 592 28 0 287 347 0 82 1 471 421134462 82 1 466 -666500994 79 18 462 DOWNSTREAM_
FACE_ID82 6 457 25 1604248176 31031875 0 817020667 957237587 82 6 450 23 1604248
176 31031875 0 817020667 957237587 82 6 446 22 1604248176 31031875 0 817020667 9
57237587 15 442 470 0 109 433 0 17 109 0 442 148 113 107 161 156 0 147 -17 148 0
 442 121 109 96 147 177 0 0 -17 113 0 442 109 121 111 593 181 0 594 +17 161 0 34
2 175 149 111 109 156 0 0 +17 147 0 144 81 145 107 148 177 0 149 +17 149 0 342 1
61 135 107 81 150 0 0 +15 342 422 0 149 16 0 17 135 0 342 149 175 79 132 171 0 0
 +17 175 0 342 135 161 114 594 162 0 0 +17 132 0 126 128 127 114 135 171 0 175 -
17 594 0 439 593 116 111 175 162 0 161 -15 439 474 0 594 436 0 17 593 0 439 124
 594 119 113 181 0 138 -17 116 0 439 594 124 114 128 136 0 132 +17 124 0 439 116
 593 122 138 141 0 128 +17 138 0 137 118 129 119 124 141 0 0 -17 121 0 442 113 1
48 119 118 152 0 593 +15 430 354 0 189 419 0 17 189 0 430 194 202 89 595 186 0 0
 +17 194 0 430 198 189 102 596 190 0 0 +17 202 0 430 189 198 85 597 199 0 0 +17
 595 0 415 88 106 85 189 186 0 202 -15 415 339 0 84 410 0 17 88 0 415 84 595 86
 98 217 0 216 +17 106 0 415 595 84 89 229 203 0 596 -17 84 0 415 106 88 82 598 1
80 0 229 +17 229 0 421 209 596 82 106 203 0 599 +17 596 0 421 229 104 89 194 190
 0 189 -15 421 351 0 209 416 0 17 104 0 421 596 209 102 95 224 0 600 -17 209 0 4
21 104 229 93 599 206 0 601 +17 95 0 424 213 600 93 104 224 0 209 +17 600 0 424
 95 101 102 198 195 0 194 -15 424 347 0 213 420 0 17 101 0 424 600 213 99 92 221
 0 198 -17 198 0 430 202 194 99 600 195 0 597 +17 597 0 427 92 98 99 202 199 0 0
 -15 427 343 0 216 414 0 17 92 0 427 216 597 90 101 221 0 213 +17 98 0 427 597 2
16 85 88 217 0 595 -17 216 0 427 98 92 86 602 191 0 598 +17 602 0 397 601 598 90
 216 191 0 0 -17 598 0 397 602 599 86 84 180 0 0 -15 397 295 0 598 371 35 17 599
 0 397 598 601 82 209 206 0 0 -17 601 0 397 599 602 93 213 210 0 0 -17 213 0 424
 101 95 90 601 210 0 602 +15 411 236 0 233 400 603 17 233 0 411 233 233 0 604 23
0 0 0 +15 603 237 0 605 400 0 17 605 0 603 605 605 0 237 220 0 0 -17 237 0 606 2
37 237 0 605 220 0 0 +15 606 228 0 237 401 0 17 604 0 607 604 604 0 233 230 0 0
 -15 607 224 0 604 396 0 15 407 223 0 241 396 607 17 241 0 407 241 241 0 608 238
 0 0 +17 608 0 370 608 608 0 241 238 0 0 -15 370 232 0 608 369 609 15 609 233 0
 245 369 0 17 245 0 609 245 245 0 610 234 0 0 +17 610 0 404 610 610 0 245 234 0
 0 -15 404 227 0 610 401 606 15 391 4 0 283 385 611 17 283 0 391 283 283 0 612 2
80 0 0 +15 611 45 0 613 385 0 17 613 0 611 613 613 0 275 272 0 0 -17 275 0 382 2
75 275 0 613 272 0 0 +15 382 60 0 275 374 591 17 612 0 348 612 612 0 283 280 0 0
 -15 348 26 0 612 347 592 82 6 389 1 1604248176 31031875 0 817020667 957237587 8
2 6 379 6 1604248176 31031875 0 817020667 957237587 17 36 0 35 24 322 77 73 246
 0 290 +17 322 0 35 36 259 71 351 319 0 349 +17 259 0 35 322 61 56 357 256 0 351
 +17 61 0 35 259 49 59 360 327 0 357 +80 3 158 376 614 9000 0 0 0 0 3 5 0 0 0 FF
FFFFTFFFFFFF1 1 1 81 3 334 1819 158 333 0 0 332 336 615 0 0 82 6 338 28 16042481
76 31031875 0 817020667 957237587 81 3 332 1818 158 330 0 0 329 334 616 0 0 82 6
 615 29 1604248176 31031875 0 817020667 957237587 81 3 329 1817 158 327 0 0 325
 332 617 0 0 82 6 616 30 1604248176 31031875 0 817020667 957237587 81 3 325 1816
 158 323 0 0 321 329 618 0 0 82 6 617 31 1604248176 31031875 0 817020667 9572375
87 81 3 321 1815 158 319 0 0 318 325 619 0 0 82 6 618 32 1604248176 31031875 0 8
17020667 957237587 81 3 318 1814 158 316 0 0 315 321 620 0 0 82 6 619 33 1604248
176 31031875 0 817020667 957237587 81 3 315 1813 158 32 0 0 312 318 621 0 0 82 6
 620 34 1604248176 31031875 0 817020667 957237587 81 3 312 1812 158 310 0 0 308
 315 622 0 0 82 6 621 35 1604248176 31031875 0 817020667 957237587 81 3 308 1811
 158 306 0 0 304 312 623 0 0 82 6 622 36 1604248176 31031875 0 817020667 9572375
87 81 3 304 1810 158 302 0 0 301 308 624 0 0 82 6 623 37 1604248176 31031875 0 8
17020667 957237587 81 3 301 1809 158 299 0 0 297 304 625 0 0 82 6 624 38 1604248
176 31031875 0 817020667 957237587 81 3 297 1808 158 295 0 0 293 301 626 0 0 82
 6 625 39 1604248176 31031875 0 817020667 957237587 81 3 293 1807 158 291 0 0 28
9 297 627 0 0 82 6 626 40 1604248176 31031875 0 817020667 957237587 81 3 289 180
6 158 284 0 0 286 293 628 0 0 82 6 627 41 1604248176 31031875 0 817020667 957237
587 81 3 286 1805 158 276 0 0 282 289 629 0 0 82 6 628 42 1604248176 31031875 0
 817020667 957237587 81 3 282 1804 158 280 0 0 278 286 630 0 0 82 6 629 44 16042
48176 31031875 0 817020667 957237587 81 3 278 1803 158 260 0 0 274 282 631 0 0 8
2 6 630 43 1604248176 31031875 0 817020667 957237587 81 3 274 1802 158 272 0 0 2
70 278 632 0 0 82 6 631 46 1604248176 31031875 0 817020667 957237587 81 3 270 18
01 158 250 0 0 268 274 633 0 0 82 6 632 45 1604248176 31031875 0 817020667 95723
7587 81 3 268 1800 158 266 0 0 265 270 634 0 0 82 6 633 51 1604248176 31031875 0
 817020667 957237587 81 3 265 1799 158 263 0 0 262 268 635 0 0 82 6 634 52 16042
48176 31031875 0 817020667 957237587 81 3 262 1798 158 242 0 0 258 265 636 0 0 8
2 6 635 53 1604248176 31031875 0 817020667 957237587 81 3 258 1797 158 256 0 0 2
55 262 637 0 0 82 6 636 54 1604248176 31031875 0 817020667 957237587 81 3 255 17
96 158 253 0 0 252 258 638 0 0 82 6 637 47 1604248176 31031875 0 817020667 95723
7587 81 3 252 1795 158 249 0 0 248 255 639 0 0 82 6 638 48 1604248176 31031875 0
 817020667 957237587 81 3 248 1794 158 246 0 0 244 252 640 0 0 82 6 639 49 16042
48176 31031875 0 817020667 957237587 81 3 244 1793 158 234 0 0 240 248 641 0 0 8
2 6 640 50 1604248176 31031875 0 817020667 957237587 81 3 240 1792 158 238 0 0 2
36 244 642 0 0 82 6 641 56 1604248176 31031875 0 817020667 957237587 81 3 236 17
91 158 220 0 0 232 240 643 0 0 82 6 642 55 1604248176 31031875 0 817020667 95723
7587 81 3 232 1790 158 230 0 0 228 236 644 0 0 82 6 643 58 1604248176 31031875 0
 817020667 957237587 81 3 228 1789 158 203 0 0 226 232 645 0 0 82 6 644 57 16042
48176 31031875 0 817020667 957237587 81 3 226 1788 158 224 0 0 223 228 646 0 0 8
2 6 645 62 1604248176 31031875 0 817020667 957237587 81 3 223 1787 158 221 0 0 2
19 226 647 0 0 82 6 646 61 1604248176 31031875 0 817020667 957237587 81 3 219 17
86 158 217 0 0 215 223 648 0 0 82 6 647 60 1604248176 31031875 0 817020667 95723
7587 81 3 215 1785 158 191 0 0 212 219 649 0 0 82 6 648 59 1604248176 31031875 0
 817020667 957237587 81 3 212 1784 158 210 0 0 208 215 650 0 0 82 6 649 67 16042
48176 31031875 0 817020667 957237587 81 3 208 1783 158 206 0 0 205 212 651 0 0 8
2 6 650 68 1604248176 31031875 0 817020667 957237587 81 3 205 1782 158 180 0 0 2
01 208 652 0 0 82 6 651 69 1604248176 31031875 0 817020667 957237587 81 3 201 17
81 158 199 0 0 197 205 653 0 0 82 6 652 70 1604248176 31031875 0 817020667 95723
7587 81 3 197 1780 158 195 0 0 193 201 654 0 0 82 6 653 63 1604248176 31031875 0
 817020667 957237587 81 3 193 1779 158 190 0 0 188 197 655 0 0 82 6 654 64 16042
48176 31031875 0 817020667 957237587 81 3 188 1778 158 186 0 0 184 193 656 0 0 8
2 6 655 65 1604248176 31031875 0 817020667 957237587 81 3 184 1777 158 136 0 0 1
83 188 657 0 0 82 6 656 66 1604248176 31031875 0 817020667 957237587 81 3 183 17
76 158 181 0 0 179 184 658 0 0 82 6 657 73 1604248176 31031875 0 817020667 95723
7587 81 3 179 1775 158 177 0 0 174 183 659 0 0 82 6 658 72 1604248176 31031875 0
 817020667 957237587 81 3 174 1774 158 162 0 0 173 179 660 0 0 82 6 659 71 16042
48176 31031875 0 817020667 957237587 81 3 173 1773 158 171 0 0 170 174 661 0 0 8
2 6 660 80 1604248176 31031875 0 817020667 957237587 81 3 170 1772 158 150 0 0 1
68 173 662 0 0 82 6 661 81 1604248176 31031875 0 817020667 957237587 81 3 168 17
71 158 152 0 0 166 170 663 0 0 82 6 662 82 1604248176 31031875 0 817020667 95723
7587 81 3 166 1770 158 141 0 0 159 168 664 0 0 82 6 663 75 1604248176 31031875 0
 817020667 957237587 81 3 159 1769 158 156 0 0 155 166 665 0 0 82 6 664 76 16042
48176 31031875 0 817020667 957237587 82 6 665 79 1604248176 31031875 0 817020667
 957237587 79 18 614 DOWNSTREAM_EDGE_ID81 3 151 1767 158 134 0 0 140 155 666 0 0
 82 6 160 78 1604248176 31031875 0 817020667 957237587 81 3 140 1766 158 130 0 0
 23 151 667 0 0 82 6 666 74 1604248176 31031875 0 817020667 957237587 81 3 23 17
65 158 10 0 0 0 140 668 0 0 82 6 667 77 1604248176 31031875 0 817020667 95723758
7 82 6 668 27 1604248176 31031875 0 817020667 957237587 19 17 32 0 1 0 9 5 S0 74
 4 CI16 index_map_offset0 0 1 dCCZ20 15 10 0 0 470 669 670 671 672 467 336 13 46
4 2 0 0 0 0 0 0 0 0 0 0 81 2 669 257 673 1 0 670 0 0 0 674 81 2 670 263 675 1 66
9 671 0 0 0 676 81 2 671 1177 677 1 670 672 0 0 678 0 81 2 672 1286 679 1 671 13
 0 0 0 680 81 2 13 1600 681 1 672 2 0 0 0 0 80 2 681 682 683 9000 0 0 0 0 3 5 0
 0 0 FFTFFFFFFFFFFF9 1 79 16 683 BODY_RECIPE_200180 2 679 684 685 9000 0 0 0 0 3
 5 0 0 0 FFTFFFFFFFFFFF9 1 82 1 680 1 79 24 685 BODY_IN_LIGHTWEIGHT_PERM80 2 677
 686 687 8004 0 0 0 0 3 5 0 0 0 FFTFFFFFFFFFFF2 3 83 1 678 1 79 16 687 SDL/TYSA_
DENSITY80 2 675 688 689 9000 0 0 0 0 3 5 0 0 0 FFTFFFFFFFFFFF9 1 82 1 676 90 79
 30 689 LAST_BODY_MODIFYING_FEATURE_ID80 2 673 690 691 9000 0 0 0 0 3 5 0 0 0 FF
TFFFFFFFFFFF9 1 82 1 674 121 79 19 691 ENT_TIME_STAMP_200180 2 12 692 693 9000 0
 0 0 0 3 5 0 0 0 FFTFFFFFFFFFFF9 1 82 1 14 105 79 12 693 ATOM_ID_20011 0 
