**ABCDEFGHIJKLMNOPQRSTUVWXYZabcdefghijklmnopqrstuvwxyz**************************
**PARASOLID !"#$%&'()*+,-./:;<=>?@[\]^_`{|}~0123456789**************************
**PART1;
MC=AMD64;
MC_MODEL=Intel64 Family 6 Model 142 Stepping 12, GenuineIntel;
MC_ID=unknown;
OS=Windows_NT;
OS_RELEASE=unknown;
FRU=Parasolid Version 33.1, build 247,  8- 6-2021;
APPL=SOLIDWORKS 2022-2022009;
SITE=;
USER=unknown;
FORMAT=text;
GUISE=transmit;
KEY=FILECrank.x_t;
DATE=Thu Jun 15 06:10:23 2023;
**PART2;
SCH=SCH_3301247_33103;
USFLD_SIZE=0;
**PART3;
**END_OF_HEADER*****************************************************************
T51 : TRANSMIT FILE created by modeller version 330124723 SCH_3301247_33103_1300
6230 0 12 35 CCCI7 lattice222 0 CCCI4 mesh1006 0 I8 polyline1008 0 CCCCCCCDI5 ow
ner1040 0 CCCCCCI13 boundary_mesh1006 0 I17 boundary_polyline1008 0 CCCA16 index
_map_offset0 0 1 dA9 index_map82 0 A17 node_id_index_map82 0 A20 schema_embeddin
g_map82 0 A5 child12 0 A14 lowest_node_id0 0 1 dA16 mesh_offset_data206 0 Z1 114
8 2 3 0 0 0 0 0 0 0 1e3 1e-8 0 4 0 1 0 1 1 5 6 7 8 0 0 9 10 11 0 0 0 0 0 0 0 81
 255 2 2 1127 12 1 13 0 0 0 0 14 70 11 CI9 list_type0 0 1 uI10 notransmit0 0 1 l
CCCDCCDI12 finger_index0 0 1 dI12 finger_block1012 0 CZ3 0 4 T1 0 0 9 20 1 15 15
 13 255 5 31 0 1 0 16 0 0 17 0 51 255 6 30 0 16 18 0 0 -0 .035 0 0 -1 0 .026 0 0
 -1 31 255 7 321 0 10 19 0 0 +.08 -.05 0 0 -1 0 0 0 -1 .026 29 255 8 139 0 20 21
 0 -1387370151332582e-32 -.035 .04 19 8 CCCCCCCA5 owner12 0 Z9 9 0 1 17 0 22 V0
 16 255 10 318 0 ?23 0 24 7 0 0 1 18 255 11 90 0 25 0 26 27 ?1 17 255 25 0 28 29
 30 11 31 32 0 33 +18 26 89 0 30 11 34 35 ?1 29 27 144 0 11 35 36 .08 -.05 .04 2
9 35 145 0 26 37 27 .08 -.05 -.04 29 36 142 0 38 27 21 0 -.035 -.04 18 38 92 0 3
9 40 41 36 ?1 29 21 141 0 40 36 8 .08 -.035 -.04 18 40 85 0 42 20 38 21 ?1 17 42
 0 43 44 44 40 45 46 0 47 -18 20 88 0 48 34 40 8 ?1 17 48 0 49 50 51 20 52 53 0
 54 +18 34 86 0 55 26 20 37 ?1 17 55 0 56 57 57 34 58 59 0 60 -29 37 146 0 34 61
 35 0 -.05 -.04 29 61 248 0 62 63 37 0 .035 -.04 18 62 195 0 64 65 66 61 ?1 29 6
3 250 0 66 67 61 .08 .035 .04 18 66 199 0 68 62 69 63 ?1 29 67 251 0 69 70 63 -1
387370151332582e-32 .035 .04 18 69 197 0 71 66 72 67 ?1 29 70 253 0 41 73 67 .08
 .05 -.04 18 41 198 0 74 38 75 70 ?1 29 73 254 0 75 76 70 .08 .05 .04 18 75 196
 0 77 41 65 73 ?1 29 76 255 0 65 78 73 -1387370151332582e-32 .05 .04 18 65 194 0
 79 75 62 76 ?1 29 78 822 0 80 81 76 -1387370151332582e-32 .05 -.04 18 80 693 0
 82 83 0 78 ?1 29 81 828 0 83 84 78 .08 .035 -.04 18 83 616 0 85 86 80 81 ?1 29
 84 836 0 86 87 81 .08 -.035 .04 18 86 543 0 45 72 83 84 ?1 29 87 842 0 72 0 84
 -1387370151332582e-32 -.05 .04 18 72 468 0 58 69 86 87 ?1 17 58 0 88 54 89 72 5
5 59 0 57 +15 255 88 99 0 58 90 0 17 54 0 88 91 58 20 50 92 0 93 +17 89 0 88 58
 91 34 94 95 0 0 -16 59 441 0 ?58 96 46 97 0 0 1 17 57 0 56 55 55 72 60 98 0 29
 +15 56 485 0 55 99 0 17 60 0 28 30 29 34 57 98 0 100 -16 98 438 0 ?57 101 102 1
03 0 0 1 17 29 0 28 60 25 72 104 105 0 50 +15 28 411 0 60 106 107 17 104 0 49 51
 50 11 29 105 0 0 -16 105 82 0 ?29 92 32 108 0 0 1 17 50 0 49 104 48 72 54 92 0
 0 -15 49 111 0 48 109 0 16 92 60 0 ?54 110 105 111 0 0 1 16 110 72 0 ?51 112 92
 113 0 0 1 30 255 111 130 0 92 114 113 0 +-1387370151332582e-32 -.05 .04 0 1 0 3
0 114 131 0 53 115 111 0 +-1387370151332582e-32 -.035 .04 -1 0 0 30 113 129 0 11
0 111 116 0 +.08 -.05 .04 0 1 0 30 116 128 0 112 113 117 0 +.08 -.05 -.04 0 1 0
 16 112 68 0 ?118 95 110 116 0 0 1 30 117 127 0 95 116 119 0 +0 -.05 -.04 0 1 0
 16 95 64 0 ?94 120 112 117 0 0 1 31 119 7 0 24 117 19 0 +0 .035 0 0 1 0 0 0 1 .
026 16 24 5 0 ?121 10 120 119 0 0 1 31 19 25 0 120 119 7 0 +0 -.035 0 0 1 0 0 0
 1 .026 16 120 56 0 ?122 24 95 19 0 0 1 17 122 0 123 122 122 0 124 120 0 0 +15 1
23 28 0 122 16 0 17 124 0 125 124 124 0 122 120 0 0 -15 125 117 0 124 126 127 14
 255 126 115 128 ?129 106 125 5 130 -0 0 129 106 22 15 127 118 0 52 126 0 17 52
 0 127 47 93 86 48 53 0 0 -17 47 0 127 39 52 40 44 102 0 131 -17 93 0 127 52 39
 20 91 132 0 0 -16 53 69 0 ?48 133 134 114 0 0 1 16 133 76 0 ?30 32 53 135 0 0 1
 16 134 61 0 ?131 53 132 115 0 0 1 17 131 0 136 137 94 40 39 134 0 118 +16 132 5
7 0 ?91 134 138 139 0 0 1 30 115 133 0 134 139 114 0 +0 -.035 -.04 1 0 0 31 139
 134 0 132 108 115 0 +0 -.035 0 0 -1 0 0 0 -1 .04 30 108 135 0 105 140 139 0 +-1
387370151332582e-32 -.05 .04 -1 0 0 31 140 136 0 32 135 108 0 +.08 -.05 0 0 -1 0
 0 0 1 .04 16 32 79 0 ?25 105 133 140 0 0 1 30 135 137 0 133 141 140 0 +0 -.05 -
.04 1 0 0 30 141 236 0 138 142 135 0 +-1387370151332582e-32 .05 .04 0 -1 0 16 13
8 172 0 ?71 132 143 141 0 0 1 30 142 237 0 143 144 141 0 +.08 .05 .04 0 -1 0 16
 143 176 0 ?145 138 146 142 0 0 1 30 144 238 0 146 147 142 0 +.08 .05 -.04 0 -1
 0 16 146 180 0 ?148 143 149 144 0 0 1 30 147 239 0 149 150 144 0 +0 .05 -.04 0
 -1 0 16 149 168 0 ?64 146 151 147 0 0 1 30 150 240 0 152 153 147 0 +0 .035 -.04
 1 0 0 16 152 185 0 ?154 155 156 150 0 0 1 30 153 242 0 156 157 150 0 +-13873701
51332582e-32 .035 .04 -1 0 0 16 156 191 0 ?158 152 159 153 0 0 1 31 157 243 0 15
9 160 153 0 +0 .035 0 0 -1 0 0 0 -1 .04 16 159 182 0 ?161 156 162 157 0 0 1 30 1
60 244 0 151 163 157 0 +0 .05 -.04 1 0 0 16 151 177 0 ?164 149 165 160 0 0 1 31
 163 245 0 165 166 160 0 +.08 .05 0 0 -1 0 0 0 1 .04 16 165 173 0 ?167 151 155 1
63 0 0 1 30 166 246 0 155 168 163 0 +-1387370151332582e-32 .05 .04 -1 0 0 16 155
 169 0 ?169 165 152 166 0 0 1 31 168 306 0 170 171 166 0 +.08 .05 0 0 1 0 0 0 1
 .026 16 170 284 0 ?172 162 96 168 0 0 1 31 171 307 0 162 173 168 0 +.08 .13 0 0
 1 0 0 0 1 .026 16 162 287 0 ?174 159 170 171 0 0 1 31 173 348 0 96 97 171 0 +.0
8 -.13 0 0 1 0 0 0 1 .026 16 96 325 0 ?175 170 59 173 0 0 1 32 255 97 767 0 59 1
76 173 0 +0 -.05 0 .099503719020999 .995037190209989 0 -.995037190209989 .099503
719020999 0 .04019950248448355 .04 32 176 769 0 46 177 97 0 +.08 -.035 0 -.09950
37190209986 -.995037190209989 0 -.995037190209989 .0995037190209987 0 .040199502
48448355 .04 16 46 516 0 ?45 59 178 176 0 0 1 32 177 774 0 178 179 176 0 -0 .05
 0 .099503719020999 -.995037190209989 0 -.995037190209989 -.099503719020999 0 .0
4019950248448355 .04 16 178 675 0 ?79 46 101 177 0 0 1 32 179 776 0 101 180 177
 0 -.08 .035 0 -.0995037190209986 .995037190209989 0 -.995037190209989 -.0995037
190209987 0 .04019950248448355 .04 16 101 600 0 ?68 178 98 179 0 0 1 30 180 778
 0 181 182 179 0 +-1387370151332582e-32 .05 -.04 0 0 1 16 181 681 0 ?183 184 0 1
80 0 0 1 30 182 787 0 184 185 180 0 +.08 .035 -.04 0 0 1 16 184 606 0 ?186 102 1
81 182 0 0 1 30 185 797 0 102 103 182 0 +.08 -.035 -.04 0 0 1 16 102 513 0 ?44 9
8 184 185 0 0 1 30 103 806 0 98 0 185 0 +-1387370151332582e-32 -.05 -.04 0 0 1 1
7 44 0 43 42 42 86 47 102 0 51 +15 43 560 0 44 187 0 17 51 0 49 48 104 86 33 110
 0 52 +17 33 0 188 31 45 11 51 110 0 104 -15 188 107 0 118 189 0 17 31 0 188 118
 33 26 25 32 0 0 -17 45 0 188 33 118 86 42 46 0 44 +17 118 0 188 45 31 40 137 11
2 0 0 +17 137 0 136 100 131 26 118 112 0 31 -15 136 103 0 131 190 0 17 100 0 136
 94 137 34 30 133 0 89 -17 94 0 136 131 100 38 89 95 0 91 +17 30 0 28 25 60 26 1
00 133 0 137 +17 91 0 88 89 54 38 93 132 0 0 +14 190 100 191 ?189 90 136 5 192 -
0 0 189 90 22 81 1 191 1129 193 190 194 0 128 195 196 14 189 104 195 ?109 190 18
8 5 197 -0 0 109 190 22 14 90 96 198 ?190 16 88 5 18 -0 0 190 16 22 50 255 192 1
22 0 190 197 18 0 +0 -.05 -.04 0 0 1 1 0 0 13 22 10 0 0 0 0 0 0 9 16 14 16 27 19
9 ?90 0 200 5 6 -0 0 90 0 22 81 1 199 1132 193 16 201 0 198 202 203 15 200 26 0
 204 16 123 17 204 0 200 204 204 0 121 24 0 0 -17 121 0 205 121 121 0 204 24 0 0
 +15 205 226 0 121 206 207 14 206 224 202 ?208 209 205 5 210 -0 0 208 209 22 15
 207 227 0 154 206 0 17 154 0 207 186 161 83 211 152 0 0 +17 186 0 207 158 154 6
6 85 184 0 145 +17 161 0 207 154 158 62 212 159 0 211 +17 211 0 213 214 148 62 1
54 152 0 0 -15 213 220 0 211 215 0 17 214 0 213 164 211 80 64 149 0 216 -17 148
 0 213 211 164 83 74 146 0 154 +17 164 0 213 148 214 41 216 151 0 0 +17 74 0 217
 167 218 41 148 146 0 219 -15 217 381 0 218 220 0 17 167 0 217 145 74 75 219 165
 0 0 +17 218 0 217 74 145 83 68 101 0 148 -17 219 0 221 216 222 41 167 165 0 164
 -15 221 373 0 183 209 223 17 216 0 221 183 219 80 164 151 0 0 -17 222 0 221 219
 183 75 169 155 0 167 -17 183 0 221 222 216 65 224 181 0 225 +17 169 0 226 71 77
 65 222 155 0 0 +15 226 212 0 227 228 0 17 71 0 226 227 169 69 225 138 0 212 +17
 77 0 226 169 227 75 145 143 0 222 -17 227 0 226 77 71 66 158 156 0 0 -17 145 0
 217 218 167 66 77 143 0 227 +17 158 0 207 161 186 69 227 156 0 0 +17 225 0 229
 82 212 65 71 138 0 169 -17 212 0 229 225 64 69 161 159 0 158 -15 229 392 0 82 1
29 0 17 64 0 229 212 82 62 214 149 0 161 +17 82 0 229 64 225 80 79 178 0 224 -17
 79 0 230 224 224 65 82 178 0 183 +17 224 0 230 79 79 80 183 181 0 214 -15 230 7
30 0 79 231 0 14 231 727 232 ?187 233 230 5 234 -0 0 187 233 22 81 1 232 1134 19
3 231 235 0 202 236 237 14 187 557 236 ?99 231 43 5 238 -0 0 99 231 22 14 233 65
2 239 ?231 240 241 5 242 -0 0 231 240 22 50 234 746 0 231 242 243 0 +-.04 .046 -
.04 .099503719020999 -.995037190209989 0 .995037190209989 .099503719020999 0 50
 242 751 0 233 238 234 0 +.12 .039 -.04 -.0995037190209986 .995037190209989 0 -.
995037190209989 -.0995037190209987 0 50 243 346 0 240 234 244 0 +.08 -.13 0 0 -1
 0 0 0 1 14 240 336 245 ?233 246 247 5 243 +0 0 233 246 22 51 244 344 0 246 243
 248 0 +.08 -.13 0 0 1 0 .026 0 0 1 14 246 331 249 ?240 250 251 5 244 +0 0 240 2
50 22 50 248 305 0 250 244 252 0 +.08 .13 0 0 1 0 0 0 1 14 250 295 253 ?246 208
 254 5 248 +0 0 246 208 22 51 252 303 0 208 248 255 0 -.08 .13 0 0 -1 0 .026 0 0
 -1 14 208 290 256 ?250 206 257 5 252 -0 0 250 206 22 50 255 235 0 209 252 210 0
 +0 .05 0 0 1 0 0 0 -1 14 209 221 258 ?206 215 221 5 255 +0 0 206 215 22 50 210
 234 0 206 255 259 0 +0 .035 0 0 1 0 0 0 -1 50 259 233 0 215 210 260 0 +0 .05 -.
04 0 0 -1 -1 0 0 14 215 217 261 ?209 220 213 5 259 +0 0 209 220 22 51 260 232 0
 220 259 262 0 +.08 .05 0 0 -1 0 .04 0 0 -1 14 220 213 263 ?215 228 217 5 260 +0
 0 215 228 22 50 262 231 0 228 260 264 0 +-1387370151332582e-32 .05 .04 0 0 1 1
 0 0 14 228 209 265 ?220 129 226 5 262 +0 0 220 129 22 51 264 230 0 129 262 266
 0 +0 .05 0 0 -1 0 .04 0 0 -1 14 129 205 267 ?228 126 229 5 264 +0 0 228 126 22
 50 266 126 0 106 264 130 0 +0 -.05 0 0 -1 0 0 0 -1 14 106 112 268 ?126 109 28 5
 266 +0 0 126 109 22 50 130 125 0 126 266 269 0 +0 -.035 0 0 -1 0 0 0 -1 50 269
 124 0 109 130 197 0 +-1387370151332582e-32 -.05 .04 0 0 -1 -1 0 0 14 109 108 27
0 ?106 189 49 5 269 -0 0 106 189 22 51 197 123 0 189 269 192 0 -.08 -.05 0 0 1 0
 .04 0 0 1 81 1 270 1147 193 109 271 0 268 272 273 80 255 1 193 274 275 9000 1 1
 1 1 1 1 1 1 0 FFFFTFTFFFFFFF1 81 1 271 1067 276 109 0 270 277 278 279 81 1 268
 1146 193 106 278 0 267 270 280 81 1 272 1148 193 99 281 0 270 0 282 82 255 1 27
3 1256587386 14 99 482 272 ?0 187 56 5 283 -0 0 0 187 22 81 1 281 1083 276 99 0
 272 284 0 285 82 1 282 -1280966534 80 1 276 0 286 8001 0 0 0 0 3 5 0 0 0 FFFFTF
TFFFFFFF2 81 1 284 1082 276 187 0 236 235 281 287 83 255 3 285 1 .78039215686274
5 .658823529411765 81 1 236 1135 193 187 284 0 232 239 288 81 1 235 1081 276 231
 0 232 289 284 290 83 3 287 1 .780392156862745 .658823529411765 81 1 289 1080 27
6 233 0 239 291 235 292 83 3 290 1 .780392156862745 .658823529411765 81 1 239 11
36 193 233 289 0 236 245 293 81 1 291 1079 276 240 0 245 294 289 295 83 3 292 1
 .780392156862745 .658823529411765 81 1 245 1137 193 240 291 0 239 249 296 81 1
 294 1078 276 246 0 249 297 291 298 83 3 295 1 .780392156862745 .658823529411765
 81 1 249 1138 193 246 294 0 245 253 299 81 1 297 1077 276 250 0 253 300 294 301
 83 3 298 1 .780392156862745 .658823529411765 81 1 253 1139 193 250 297 0 249 25
6 302 81 1 300 1076 276 208 0 256 303 297 304 83 3 301 1 .780392156862745 .65882
3529411765 81 1 256 1140 193 208 300 0 253 258 305 81 1 303 1075 276 206 0 202 3
06 300 307 83 3 304 1 .780392156862745 .658823529411765 81 1 202 1133 193 206 30
3 0 199 232 308 81 1 306 1074 276 209 0 258 309 303 310 83 3 307 1 .780392156862
745 .658823529411765 81 1 258 1141 193 209 306 0 256 261 311 81 1 309 1073 276 2
15 0 261 312 306 313 83 3 310 1 .780392156862745 .658823529411765 81 1 261 1142
 193 215 309 0 258 263 314 81 1 312 1072 276 220 0 263 315 309 316 83 3 313 1 .7
80392156862745 .658823529411765 81 1 263 1143 193 220 312 0 261 265 317 81 1 315
 1071 276 228 0 265 318 312 319 83 3 316 1 .780392156862745 .658823529411765 81
 1 265 1144 193 228 315 0 263 267 320 81 1 318 1070 276 129 0 267 321 315 322 83
 3 319 1 .780392156862745 .658823529411765 81 1 267 1145 193 129 318 0 265 268 3
23 81 1 321 1069 276 126 0 128 278 318 324 83 3 322 1 .780392156862745 .65882352
9411765 81 1 128 1128 193 126 321 0 0 191 325 81 1 278 1068 276 106 0 268 271 32
1 326 83 3 324 1 .780392156862745 .658823529411765 83 3 326 1 .780392156862745 .
658823529411765 82 1 325 1255669882 82 1 323 1670316154 82 1 320 1670185082 82 1
 317 1670054010 82 1 314 1669922938 82 1 311 1663369338 82 1 308 1669005434 82 1
 305 -1055195022 82 1 302 -1057161102 82 1 299 -946667404 82 1 296 -948633484 82
 1 293 -1372454790 82 1 288 -1283915654 79 255 15 286 SDL/TYSA_COLOUR50 283 760
 0 99 0 238 0 +-.04 -.046 -.04 .099503719020999 .995037190209989 0 -.99503719020
9989 .099503719020999 0 50 238 755 0 187 283 242 0 +.12 -.039 -.04 -.09950371902
09986 -.995037190209989 0 .995037190209989 -.0995037190209987 0 82 1 280 1250033
786 81 1 277 1066 276 189 0 195 194 271 327 83 3 279 1 .780392156862745 .6588235
29411765 81 1 195 1130 193 189 277 0 191 198 328 81 1 194 1065 276 190 0 191 329
 277 330 83 3 327 1 .780392156862745 .658823529411765 81 1 329 1064 276 90 0 198
 201 194 331 83 3 330 1 .780392156862745 .658823529411765 81 1 198 1131 193 90 3
29 0 195 199 332 81 1 201 1063 276 16 0 199 0 329 333 83 3 331 1 .78039215686274
5 .658823529411765 83 3 333 1 .780392156862745 .658823529411765 82 1 332 1257373
818 82 1 328 1256849530 79 14 275 SWEntUnchanged15 257 293 0 334 208 335 17 334
 0 257 334 334 0 174 162 0 0 -15 335 294 0 172 208 0 17 172 0 335 172 172 0 336
 170 0 0 +17 336 0 223 336 336 0 172 170 0 0 -15 223 278 0 336 209 0 17 174 0 25
4 174 174 0 334 162 0 0 +15 254 297 0 174 250 0 15 251 334 0 175 246 337 17 175
 0 251 175 175 0 338 96 0 0 +15 337 335 0 23 246 0 17 23 0 337 23 23 0 339 10 0
 0 +17 339 0 107 339 339 0 23 10 0 0 -15 107 320 0 339 106 0 17 338 0 247 338 33
8 0 175 96 0 0 -15 247 338 0 338 240 0 15 241 655 0 68 233 0 17 68 0 241 85 85 6
6 218 101 0 186 +17 85 0 241 68 68 83 186 184 0 218 -82 1 237 -1363541894 82 1 2
03 -1794572182 51 18 121 0 90 192 6 0 -0 -.05 0 0 1 0 .04 0 0 1 82 1 196 1257111
674 17 39 0 127 93 47 38 131 134 0 94 -19 17 32 0 1 0 9 5 S0 74 4 CI16 index_map
_offset0 0 1 dCCZ20 15 9 0 0 272 340 341 342 343 344 13 281 2 0 0 0 0 0 0 0 0 0
 0 0 81 2 340 351 345 1 0 341 0 0 0 346 81 2 341 353 347 1 340 342 0 0 0 348 81
 1 342 957 349 1 341 343 0 0 350 81 2 343 980 351 1 342 344 0 0 352 0 81 2 344 1
057 353 1 343 13 0 0 0 354 81 2 13 1060 355 1 344 2 0 0 0 0 80 2 355 356 357 900
0 0 0 0 0 3 5 0 0 0 FFTFFFFFFFFFFF9 1 79 16 357 BODY_RECIPE_200180 2 353 358 359
 9000 0 0 0 0 3 5 0 0 0 FFTFFFFFFFFFFF9 1 82 1 354 1 79 24 359 BODY_IN_LIGHTWEIG
HT_PERM80 2 351 360 361 8004 0 0 0 0 3 5 0 0 0 FFTFFFFFFFFFFF2 3 83 1 352 1 79 1
6 361 SDL/TYSA_DENSITY80 1 349 362 363 9000 1 1 1 1 1 1 1 1 0 FFTFFFFFFFFFFF1 82
 1 350 431337 79 10 363 BODY_MATCH80 2 347 364 365 9000 0 0 0 0 3 5 0 0 0 FFTFFF
FFFFFFFF9 1 82 1 348 76 79 30 365 LAST_BODY_MODIFYING_FEATURE_ID80 2 345 366 367
 9000 0 0 0 0 3 5 0 0 0 FFTFFFFFFFFFFF9 1 82 1 346 116 79 19 367 ENT_TIME_STAMP_
200180 2 12 368 369 9000 0 0 0 0 3 5 0 0 0 FFTFFFFFFFFFFF9 1 82 1 14 106 79 12 3
69 ATOM_ID_20011 0 
