**ABCDEFGHIJKLMNOPQRSTUVWXYZabcdefghijklmnopqrstuvwxyz**************************
**PARASOLID !"#$%&'()*+,-./:;<=>?@[\]^_`{|}~0123456789**************************
**PART1;
MC=AMD64;
MC_MODEL=Intel64 Family 6 Model 142 Stepping 12, GenuineIntel;
MC_ID=unknown;
OS=Windows_NT;
OS_RELEASE=unknown;
FRU=Parasolid Version 33.1, build 247,  8- 6-2021;
APPL=SOLIDWORKS 2022-2022009;
SITE=;
USER=unknown;
FORMAT=text;
GUISE=transmit;
KEY=FILELink Arm.x_t;
DATE=Thu Jun 15 06:10:29 2023;
**PART2;
SCH=SCH_3301247_33103;
USFLD_SIZE=0;
**PART3;
**END_OF_HEADER*****************************************************************
T51 : TRANSMIT FILE created by modeller version 330124723 SCH_3301247_33103_1300
6230 0 12 35 CCCI7 lattice222 0 CCCI4 mesh1006 0 I8 polyline1008 0 CCCCCCCDI5 ow
ner1040 0 CCCCCCI13 boundary_mesh1006 0 I17 boundary_polyline1008 0 CCCA16 index
_map_offset0 0 1 dA9 index_map82 0 A17 node_id_index_map82 0 A20 schema_embeddin
g_map82 0 A5 child12 0 A14 lowest_node_id0 0 1 dA16 mesh_offset_data206 0 Z1 144
 2 3 0 0 0 0 0 0 0 1e3 1e-8 0 4 0 1 0 1 1 5 6 7 0 0 0 8 9 0 0 0 0 0 0 0 0 81 255
 2 2 139 10 1 11 0 0 0 0 12 70 11 CI9 list_type0 0 1 uI10 notransmit0 0 1 lCCCDC
CDI12 finger_index0 0 1 dI12 finger_block1012 0 CZ3 0 4 T1 0 0 9 20 1 13 13 13 2
55 5 31 0 1 0 14 0 0 15 0 51 255 6 30 0 14 16 0 0 -0 .007 0 0 -1 0 .0075 0 0 -1
 31 255 7 25 0 17 18 0 0 +0 0 0 0 1 0 0 0 1 .0075 19 8 CCCCCCCA5 owner12 0 Z8 9
 0 1 15 0 19 V0 16 255 9 55 0 ?20 0 21 22 0 0 1 17 255 20 0 23 20 20 0 24 9 0 0
 +16 21 5 0 ?25 9 17 18 0 0 1 31 22 83 0 9 26 18 0 +0 0 0 0 -1 0 0 0 -1 .005 31
 26 84 0 27 0 22 0 +0 -.043 0 0 -1 0 0 0 -1 .005 31 18 7 0 21 22 7 0 +0 .007 0 0
 1 0 0 0 1 .0075 16 27 64 0 ?28 17 0 26 0 0 1 17 28 0 29 28 28 0 30 27 0 0 +16 1
7 20 0 ?31 21 27 7 0 0 1 17 31 0 32 31 31 0 33 17 0 0 +15 255 32 28 0 31 14 0 17
 33 0 34 33 33 0 31 17 0 0 -15 34 19 0 33 35 0 14 255 35 18 36 ?37 38 39 5 16 -0
 0 37 38 19 81 1 36 140 40 35 41 0 0 42 43 14 37 67 42 ?44 35 45 5 46 -0 0 44 35
 19 14 38 1 47 ?35 14 48 5 49 +0 0 35 14 19 15 39 57 0 24 35 34 50 255 16 24 0 3
5 49 6 0 +0 0 0 0 1 0 0 0 1 13 19 10 0 0 0 0 0 0 8 14 14 14 27 50 ?38 0 51 5 6 -
0 0 38 0 19 81 1 50 143 40 14 52 0 47 53 54 15 51 26 0 55 14 32 17 55 0 51 55 55
 0 25 21 0 0 -17 25 0 48 25 25 0 55 21 0 0 +15 48 4 0 25 38 0 80 255 1 40 56 57
 9000 1 1 1 1 1 1 1 1 0 FFFFTFTFFFFFFF1 81 1 52 123 58 14 0 50 0 59 60 81 1 47 1
42 40 38 59 0 42 50 61 81 1 53 144 40 44 62 0 50 0 63 82 255 1 54 -38272918 14 4
4 72 53 ?0 37 29 5 64 +0 0 0 37 19 81 1 62 127 58 44 0 53 65 0 66 82 1 63 191987
7231 80 1 58 0 67 8001 0 0 0 0 3 5 0 0 0 FFFFTFTFFFFFFF2 81 1 65 126 58 37 0 42
 41 62 68 83 255 3 66 .909803921568627 .52156862745098 0 81 1 42 141 40 37 65 0
 36 47 69 81 1 41 125 58 35 0 36 59 65 70 83 3 68 .909803921568627 .521568627450
98 0 81 1 59 124 58 38 0 47 52 41 71 83 3 70 .909803921568627 .52156862745098 0
 83 3 71 .909803921568627 .52156862745098 0 82 1 69 1921843311 79 255 15 67 SDL/
TYSA_COLOUR15 29 74 0 28 44 0 50 64 82 0 44 0 46 0 +0 -.043 0 0 -1 0 0 0 -1 51 4
6 80 0 37 64 49 0 -0 -.043 0 0 1 0 .005 0 0 1 50 49 3 0 38 46 16 0 +0 .007 0 0 1
 0 0 0 1 82 1 61 -40238998 83 3 60 .909803921568627 .52156862745098 0 79 14 57 S
WEntUnchanged17 24 0 39 24 24 0 20 9 0 0 -15 45 70 0 30 37 23 17 30 0 45 30 30 0
 28 27 0 0 -15 23 71 0 20 37 0 82 1 43 -38535057 19 15 32 0 1 0 8 5 S0 74 4 CI16
 index_map_offset0 0 1 dCCZ20 13 9 0 0 53 72 73 74 75 76 11 62 2 0 0 0 0 0 0 0 0
 0 0 0 81 2 72 87 77 1 0 73 0 0 0 78 81 2 73 91 79 1 72 74 0 0 0 80 81 1 74 95 8
1 1 73 75 0 0 82 81 2 75 102 83 1 74 76 0 0 84 0 81 2 76 117 85 1 75 11 0 0 0 86
 81 2 11 120 87 1 76 2 0 0 0 0 80 2 87 88 89 9000 0 0 0 0 3 5 0 0 0 FFTFFFFFFFFF
FF9 1 79 16 89 BODY_RECIPE_200180 2 85 90 91 9000 0 0 0 0 3 5 0 0 0 FFTFFFFFFFFF
FF9 1 82 1 86 1 79 24 91 BODY_IN_LIGHTWEIGHT_PERM80 2 83 92 93 8004 0 0 0 0 3 5
 0 0 0 FFTFFFFFFFFFFF2 3 83 1 84 1 79 16 93 SDL/TYSA_DENSITY80 1 81 94 95 9000 1
 1 1 1 1 1 1 1 0 FFTFFFFFFFFFFF1 82 1 82 392600 79 10 95 BODY_MATCH80 2 79 96 97
 9000 0 0 0 0 3 5 0 0 0 FFTFFFFFFFFFFF9 1 82 1 80 52 79 30 97 LAST_BODY_MODIFYIN
G_FEATURE_ID80 2 77 98 99 9000 0 0 0 0 3 5 0 0 0 FFTFFFFFFFFFFF9 1 82 1 78 108 7
9 19 99 ENT_TIME_STAMP_200180 2 10 100 101 9000 0 0 0 0 3 5 0 0 0 FFTFFFFFFFFFFF
9 1 82 1 12 102 79 12 101 ATOM_ID_20011 0 
