**ABCDEFGHIJKLMNOPQRSTUVWXYZabcdefghijklmnopqrstuvwxyz**************************
**PARASOLID !"#$%&'()*+,-./:;<=>?@[\]^_`{|}~0123456789**************************
**PART1;
MC=AMD64;
MC_MODEL=Intel64 Family 6 Model 142 Stepping 12, GenuineIntel;
MC_ID=unknown;
OS=Windows_NT;
OS_RELEASE=unknown;
FRU=Parasolid Version 33.1, build 247,  8- 6-2021;
APPL=SOLIDWORKS 2022-2022009;
SITE=;
USER=unknown;
FORMAT=text;
GUISE=transmit;
KEY=FILELower Bush.x_t;
DATE=Thu Jun 15 06:10:34 2023;
**PART2;
SCH=SCH_3301247_33103;
USFLD_SIZE=0;
**PART3;
**END_OF_HEADER*****************************************************************
T51 : TRANSMIT FILE created by modeller version 330124723 SCH_3301247_33103_1300
6230 0 12 35 CCCI7 lattice222 0 CCCI4 mesh1006 0 I8 polyline1008 0 CCCCCCCDI5 ow
ner1040 0 CCCCCCI13 boundary_mesh1006 0 I17 boundary_polyline1008 0 CCCA16 index
_map_offset0 0 1 dA9 index_map82 0 A17 node_id_index_map82 0 A20 schema_embeddin
g_map82 0 A5 child12 0 A14 lowest_node_id0 0 1 dA16 mesh_offset_data206 0 Z1 137
 2 3 0 0 0 0 0 0 0 1e3 1e-8 0 4 0 1 0 1 1 5 6 7 0 0 0 8 9 0 0 0 0 0 0 0 0 81 255
 2 2 133 10 1 11 0 0 0 0 12 70 11 CI9 list_type0 0 1 uI10 notransmit0 0 1 lCCCDC
CDI12 finger_index0 0 1 dI12 finger_block1012 0 CZ3 0 4 T1 0 0 9 20 1 13 13 13 2
55 5 31 0 1 0 14 0 0 15 0 51 255 6 30 0 16 17 0 0 -0 .012 0 0 -1 0 .0075 0 0 -1
 31 255 7 25 0 18 19 0 0 +0 -.012 0 0 1 0 0 0 1 .0075 19 8 CCCCCCCA5 owner12 0 Z
8 9 0 1 15 0 20 V0 16 255 9 5 0 ?21 0 18 19 0 0 1 17 255 21 0 22 21 21 0 23 9 0
 0 +16 18 20 0 ?24 9 25 7 0 0 1 31 19 7 0 9 26 7 0 +0 .012 0 0 1 0 0 0 1 .0075 3
1 26 73 0 27 28 19 0 +0 -.012 0 0 1 0 0 0 1 .006 16 27 51 0 ?29 25 0 26 0 0 1 31
 28 74 0 25 0 26 0 +0 .012 0 0 1 0 0 0 1 .006 16 25 54 0 ?30 18 27 28 0 0 1 17 3
0 0 31 30 30 0 32 25 0 0 +15 255 31 60 0 30 33 34 17 32 0 35 32 32 0 30 25 0 0 -
15 35 45 0 32 14 0 14 255 14 48 36 ?37 0 22 5 38 +0 0 37 0 20 81 1 36 134 39 14
 40 0 0 41 42 14 37 42 41 ?16 14 43 5 17 -0 0 16 14 20 15 22 4 0 21 14 35 50 255
 38 3 0 14 44 17 0 +0 .012 0 0 1 0 0 0 1 13 20 10 0 0 0 0 0 0 8 14 51 44 70 0 33
 0 38 0 -0 .012 0 0 -1 0 .006 0 0 -1 50 17 24 0 37 38 6 0 +0 -.012 0 0 1 0 0 0 1
 14 33 57 45 ?0 16 31 5 44 +0 0 0 16 20 81 1 45 136 39 33 46 0 41 47 48 14 16 27
 47 ?33 37 49 5 6 -0 0 33 37 20 81 1 47 137 39 16 50 0 45 0 51 15 49 26 0 23 16
 52 17 23 0 49 23 23 0 21 9 0 0 -15 52 28 0 24 16 0 17 24 0 52 24 24 0 53 18 0 0
 +17 53 0 43 53 53 0 24 18 0 0 -15 43 19 0 53 37 54 15 54 40 0 29 37 0 17 29 0 5
4 29 29 0 55 27 0 0 +17 55 0 34 55 55 0 29 27 0 0 -15 34 61 0 55 33 0 80 255 1 3
9 56 57 9000 1 1 1 1 1 1 1 1 0 FFFFTFTFFFFFFF1 81 1 50 122 58 16 0 47 59 46 60 8
2 255 1 51 -99286937 80 1 58 0 61 8001 0 0 0 0 3 5 0 0 0 FFFFTFTFFFFFFF2 81 1 59
 121 58 37 0 41 40 50 62 81 1 46 123 58 33 0 45 50 0 63 83 255 3 60 .07843137254
90196 .219607843137255 .690196078431373 83 3 63 .0784313725490196 .2196078431372
55 .690196078431373 81 1 41 135 39 37 59 0 36 45 64 81 1 40 120 58 14 0 36 0 59
 65 83 3 62 .0784313725490196 .219607843137255 .690196078431373 83 3 65 .0784313
725490196 .219607843137255 .690196078431373 82 1 64 -97583001 79 255 15 61 SDL/T
YSA_COLOUR79 14 57 SWEntUnchanged82 1 48 -103415705 82 1 42 -97058713 19 15 32 0
 1 0 8 5 S0 74 4 CI16 index_map_offset0 0 1 dCCZ20 13 9 0 0 66 67 47 68 69 70 11
 46 2 0 0 0 0 0 0 0 0 0 0 0 81 2 66 37 71 1 0 67 0 0 0 72 81 2 67 88 73 1 66 68
 0 0 0 74 81 1 68 93 75 1 67 69 0 0 76 81 2 69 100 77 1 68 70 0 0 78 0 81 2 70 1
14 79 1 69 11 0 0 0 80 81 2 11 117 81 1 70 2 0 0 0 0 80 2 81 82 83 9000 0 0 0 0
 3 5 0 0 0 FFTFFFFFFFFFFF9 1 79 16 83 BODY_RECIPE_200180 2 79 84 85 9000 0 0 0 0
 3 5 0 0 0 FFTFFFFFFFFFFF9 1 82 1 80 1 79 24 85 BODY_IN_LIGHTWEIGHT_PERM80 2 77
 86 87 8004 0 0 0 0 3 5 0 0 0 FFTFFFFFFFFFFF2 3 83 1 78 1 79 16 87 SDL/TYSA_DENS
ITY80 1 75 88 89 9000 1 1 1 1 1 1 1 1 0 FFTFFFFFFFFFFF1 82 1 76 3668469 79 10 89
 BODY_MATCH80 2 73 90 91 9000 0 0 0 0 3 5 0 0 0 FFTFFFFFFFFFFF9 1 82 1 74 36 79
 30 91 LAST_BODY_MODIFYING_FEATURE_ID80 2 71 92 93 9000 0 0 0 0 3 5 0 0 0 FFTFFF
FFFFFFFF9 1 82 1 72 103 79 19 93 ENT_TIME_STAMP_200180 2 10 94 95 9000 0 0 0 0 3
 5 0 0 0 FFTFFFFFFFFFFF9 1 82 1 12 101 79 12 95 ATOM_ID_20011 0 
