**ABCDEFGHIJKLMNOPQRSTUVWXYZabcdefghijklmnopqrstuvwxyz**************************
**PARASOLID !"#$%&'()*+,-./:;<=>?@[\]^_`{|}~0123456789**************************
**PART1;
MC=AMD64;
MC_MODEL=Intel64 Family 6 Model 142 Stepping 12, GenuineIntel;
MC_ID=unknown;
OS=Windows_NT;
OS_RELEASE=unknown;
FRU=Parasolid Version 33.1, build 247,  8- 6-2021;
APPL=SOLIDWORKS 2022-2022009;
SITE=;
USER=unknown;
FORMAT=text;
GUISE=transmit;
KEY=FILEPiston pin plug.x_t;
DATE=Thu Jun 15 06:10:46 2023;
**PART2;
SCH=SCH_3301247_33103;
USFLD_SIZE=0;
**PART3;
**END_OF_HEADER*****************************************************************
T51 : TRANSMIT FILE created by modeller version 330124723 SCH_3301247_33103_1300
6230 0 12 35 CCCI7 lattice222 0 CCCI4 mesh1006 0 I8 polyline1008 0 CCCCCCCDI5 ow
ner1040 0 CCCCCCI13 boundary_mesh1006 0 I17 boundary_polyline1008 0 CCCA16 index
_map_offset0 0 1 dA9 index_map82 0 A17 node_id_index_map82 0 A20 schema_embeddin
g_map82 0 A5 child12 0 A14 lowest_node_id0 0 1 dA16 mesh_offset_data206 0 Z1 186
 2 3 0 0 0 0 0 0 0 1e3 1e-8 0 4 0 1 0 1 1 5 6 7 0 0 0 8 9 0 0 0 0 0 0 0 0 81 255
 2 2 180 10 1 11 0 0 0 0 12 70 11 CI9 list_type0 0 1 uI10 notransmit0 0 1 lCCCDC
CDI12 finger_index0 0 1 dI12 finger_block1012 0 CZ3 0 4 T1 0 0 9 20 1 13 13 13 2
55 5 31 0 1 0 14 0 0 15 0 54 255 6 123 0 16 17 0 0 +0 .001 0 0 1 0 .009 .002 0 0
 1 31 255 7 107 0 9 18 0 0 -0 .001 0 0 1 0 0 0 1 .011 19 8 CCCCCCCA5 owner12 0 Z
8 9 0 1 15 0 19 V0 16 255 9 104 0 ?20 0 21 7 0 0 1 17 255 20 0 22 20 20 0 23 9 0
 0 +16 21 98 0 ?24 9 25 18 0 0 1 17 24 0 26 24 24 0 27 21 0 0 +16 25 55 0 ?28 21
 29 30 0 0 1 31 18 101 0 21 31 7 0 +0 .003 0 0 1 0 0 0 1 .009 31 31 25 0 29 30 1
8 0 +0 0 0 0 1 0 0 0 1 .011 16 29 20 0 ?32 25 33 31 0 0 1 31 30 83 0 25 34 31 0
 +0 0 0 0 -1 0 0 0 -1 .0055 31 34 84 0 33 0 30 0 +0 -.012 0 0 -1 0 0 0 -1 .0055
 16 33 64 0 ?35 29 0 34 0 0 1 17 35 0 36 35 35 0 37 33 0 0 +15 255 36 74 0 35 38
 0 17 37 0 39 37 37 0 35 33 0 0 -15 39 70 0 37 40 41 14 255 40 67 42 ?38 43 39 5
 44 -0 0 38 43 19 15 41 71 0 28 40 0 17 28 0 41 28 28 0 45 25 0 0 +17 45 0 46 45
 45 0 28 25 0 0 -15 46 57 0 45 43 47 14 43 18 48 ?40 49 46 5 50 -0 0 40 49 19 15
 47 19 0 51 43 0 17 51 0 47 51 51 0 32 29 0 0 -17 32 0 52 32 32 0 51 29 0 0 +15
 52 28 0 32 14 0 14 14 27 53 ?49 0 22 5 17 -0 0 49 0 19 81 1 53 183 54 14 55 0 4
8 56 57 14 49 1 56 ?43 14 26 5 58 +0 0 43 14 19 15 22 105 0 20 14 52 51 255 17 3
0 0 14 50 6 0 -0 .003 0 0 -1 0 .011 0 0 -1 13 19 10 0 0 0 0 0 0 8 14 50 255 50 2
4 0 43 58 17 0 +0 0 0 0 1 0 0 0 1 50 58 3 0 49 44 50 0 +0 .003 0 0 1 0 0 0 1 51
 44 80 0 40 59 58 0 -0 -.012 0 0 1 0 .0055 0 0 1 50 59 82 0 38 0 44 0 +0 -.012 0
 0 -1 0 0 0 -1 14 38 72 60 ?16 40 36 5 59 +0 0 16 40 19 81 1 60 185 54 38 61 0 5
6 62 63 14 16 116 62 ?0 38 64 5 6 +0 0 0 38 19 81 1 62 186 54 16 65 0 60 0 66 15
 64 117 0 23 16 67 17 23 0 64 23 23 0 20 9 0 0 -15 67 118 0 27 16 0 17 27 0 67 2
7 27 0 24 21 0 0 -80 255 1 54 68 69 9000 1 1 1 1 1 1 1 1 0 FFFFTFTFFFFFFF1 81 1
 65 166 70 16 0 62 61 0 71 82 255 1 66 2067202158 80 1 70 0 72 8001 0 0 0 0 3 5
 0 0 0 FFFFTFTFFFFFFF2 81 1 61 165 70 38 0 60 73 65 74 83 255 3 71 .909803921568
627 .52156862745098 0 81 1 73 164 70 40 0 42 75 61 76 83 3 74 .909803921568627 .
52156862745098 0 81 1 42 181 54 40 73 0 0 48 77 81 1 75 163 70 43 0 48 78 73 79
 83 3 76 .909803921568627 .52156862745098 0 81 1 48 182 54 43 75 0 42 53 80 81 1
 78 162 70 49 0 56 55 75 81 83 3 79 .909803921568627 .52156862745098 0 81 1 56 1
84 54 49 78 0 53 60 82 81 1 55 161 70 14 0 53 0 78 83 83 3 81 .909803921568627 .
52156862745098 0 83 3 83 .909803921568627 .52156862745098 0 82 1 82 397541486 82
 1 80 399245420 82 1 77 1726939244 79 255 15 72 SDL/TYSA_COLOUR79 14 69 SWEntUnc
hanged82 1 63 1724973164 15 26 99 0 24 49 0 82 1 57 399507566 19 15 32 0 1 0 8 5
 S0 74 4 CI16 index_map_offset0 0 1 dCCZ20 13 9 0 0 62 84 85 86 87 88 11 65 2 0
 0 0 0 0 0 0 0 0 0 0 81 2 84 87 89 1 0 85 0 0 0 90 81 2 85 91 91 1 84 86 0 0 0 9
2 81 1 86 129 93 1 85 87 0 0 94 81 2 87 137 95 1 86 88 0 0 96 0 81 2 88 155 97 1
 87 11 0 0 0 98 81 2 11 158 99 1 88 2 0 0 0 0 80 2 99 100 101 9000 0 0 0 0 3 5 0
 0 0 FFTFFFFFFFFFFF9 1 79 16 101 BODY_RECIPE_200180 2 97 102 103 9000 0 0 0 0 3
 5 0 0 0 FFTFFFFFFFFFFF9 1 82 1 98 1 79 24 103 BODY_IN_LIGHTWEIGHT_PERM80 2 95 1
04 105 8004 0 0 0 0 3 5 0 0 0 FFTFFFFFFFFFFF2 3 83 1 96 1 79 16 105 SDL/TYSA_DEN
SITY80 1 93 106 107 9000 1 1 1 1 1 1 1 1 0 FFTFFFFFFFFFFF1 82 1 94 923568 79 10
 107 BODY_MATCH80 2 91 108 109 9000 0 0 0 0 3 5 0 0 0 FFTFFFFFFFFFFF9 1 82 1 92
 46 79 30 109 LAST_BODY_MODIFYING_FEATURE_ID80 2 89 110 111 9000 0 0 0 0 3 5 0 0
 0 FFTFFFFFFFFFFF9 1 82 1 90 108 79 19 111 ENT_TIME_STAMP_200180 2 10 112 113 90
00 0 0 0 0 3 5 0 0 0 FFTFFFFFFFFFFF9 1 82 1 12 102 79 12 113 ATOM_ID_20011 0 
