**ABCDEFGHIJKLMNOPQRSTUVWXYZabcdefghijklmnopqrstuvwxyz**************************
**PARASOLID !"#$%&'()*+,-./:;<=>?@[\]^_`{|}~0123456789**************************
**PART1;
MC=AMD64;
MC_MODEL=Intel64 Family 6 Model 142 Stepping 12, GenuineIntel;
MC_ID=unknown;
OS=Windows_NT;
OS_RELEASE=unknown;
FRU=Parasolid Version 33.1, build 247,  8- 6-2021;
APPL=SOLIDWORKS 2022-2022009;
SITE=;
USER=unknown;
FORMAT=text;
GUISE=transmit;
KEY=FILEPiston ring.x_t;
DATE=Thu Jun 15 06:10:57 2023;
**PART2;
SCH=SCH_3301247_33103;
USFLD_SIZE=0;
**PART3;
**END_OF_HEADER*****************************************************************
T51 : TRANSMIT FILE created by modeller version 330124723 SCH_3301247_33103_1300
6230 0 12 35 CCCI7 lattice222 0 CCCI4 mesh1006 0 I8 polyline1008 0 CCCCCCCDI5 ow
ner1040 0 CCCCCCI13 boundary_mesh1006 0 I17 boundary_polyline1008 0 CCCA16 index
_map_offset0 0 1 dA9 index_map82 0 A17 node_id_index_map82 0 A20 schema_embeddin
g_map82 0 A5 child12 0 A14 lowest_node_id0 0 1 dA16 mesh_offset_data206 0 Z1 377
 2 3 0 0 0 0 0 0 0 1e3 1e-8 0 4 0 1 0 1 1 5 6 7 8 0 0 9 10 11 0 0 0 0 0 0 0 81 2
55 2 2 371 12 1 13 0 0 0 0 14 70 11 CI9 list_type0 0 1 uI10 notransmit0 0 1 lCCC
DCCDI12 finger_index0 0 1 dI12 finger_block1012 0 CZ3 0 4 T1 0 0 9 20 1 15 15 13
 255 5 31 0 1 0 16 0 0 17 0 51 255 6 30 0 18 19 0 0 -0 .001 0 0 -1 0 .047 0 0 -1
 32 255 7 109 0 10 20 0 0 +0 .000707106781187341 0 -.707106781186544 .7071067811
86552 0 -.707106781186552 -.707106781186544 0 .0608111831820428 .043 29 255 8 10
1 0 11 21 0 -.0002928932188142555 -.001 -.0429990024717129 19 8 CCCCCCCA5 owner1
2 0 Z9 9 0 1 17 0 22 V0 16 255 10 107 0 ?23 0 24 7 0 0 1 18 255 11 100 0 25 0 26
 8 ?1 17 255 25 0 27 28 29 11 30 31 0 32 -18 26 97 0 33 11 34 21 ?1 17 33 0 35 2
3 36 26 37 38 0 39 +18 34 201 0 36 26 40 41 ?1 29 21 99 0 26 41 8 .0002928932188
126625 .001 -.0429990024717129 29 41 272 0 34 42 21 .0002928932188126625 .001 -.
0469990873694625 29 42 273 0 40 43 41 -.00170710678118736 -.001 -.04696898749640
69 18 40 196 0 44 34 45 42 ?1 29 43 274 0 45 46 42 -.00170710678118736 -.001 -.0
429661004332209 18 45 197 0 23 40 47 43 ?1 29 46 277 0 47 48 43 .001707106781185
765 .001 -.0469689874964069 18 47 198 0 49 45 50 46 ?1 29 48 278 0 50 51 46 -.00
0292893218814257 -.001 -.0469990873694625 18 50 207 0 29 47 52 48 ?1 29 51 279 0
 52 0 48 .001707106781185765 .001 -.04296610043322095 18 52 199 0 28 50 0 51 ?1
 17 28 0 27 53 25 52 32 24 0 54 +15 255 27 223 0 25 55 0 17 53 0 27 29 28 47 54
 56 0 57 +17 32 0 58 59 60 11 28 24 0 61 -16 24 105 0 ?28 10 62 20 0 0 1 17 54 0
 63 64 57 52 53 56 0 60 -15 63 146 0 37 16 0 17 64 0 63 37 54 26 60 65 0 0 -17 5
7 0 63 54 37 47 66 62 0 0 +16 56 174 0 ?53 67 31 68 0 0 1 17 60 0 58 32 39 52 64
 65 0 0 +15 58 108 0 39 69 0 17 39 0 58 60 59 26 23 10 0 64 -16 65 98 0 ?60 70 7
1 72 0 0 1 16 70 120 0 ?73 62 65 74 0 0 1 16 71 103 0 ?61 65 75 76 0 0 1 31 255
 72 74 0 65 77 76 0 +0 .001 0 0 1 0 0 0 1 .043 32 77 254 0 75 78 72 0 +0 .000707
106781187341 0 -.707106781186544 .707106781186552 0 -.707106781186552 -.70710678
1186544 0 .0664680374315351 .047 31 76 73 0 71 72 79 0 +0 -.001 0 0 1 0 0 0 1 .0
43 31 79 7 0 62 76 74 0 +0 .001 0 0 1 0 0 0 1 .047 16 62 115 0 ?57 24 70 79 0 0
 1 31 74 25 0 70 79 20 0 +0 -.001 0 0 1 0 0 0 1 .047 32 20 106 0 24 74 7 0 +0 -.
000707106781185748 0 .707106781186544 -.707106781186552 0 -.707106781186552 -.70
7106781186544 0 .0608111831820428 .043 16 75 150 0 ?44 71 38 77 0 0 1 30 255 78
 255 0 38 80 77 0 +.0002928932188126625 .001 0 0 0 1 16 38 160 0 ?33 75 81 78 0
 0 1 30 80 256 0 81 82 78 0 +-.00170710678118736 -.001 0 0 0 1 16 81 152 0 ?83 3
8 67 80 0 0 1 32 82 257 0 67 68 80 0 +0 -.000707106781185748 0 .707106781186544
 -.707106781186552 0 -.707106781186552 -.707106781186544 0 .0664680374315351 .04
7 16 67 154 0 ?49 81 56 82 0 0 1 30 68 258 0 56 84 82 0 +.001707106781185765 .00
1 0 0 0 -1 30 84 259 0 31 0 68 0 +-.000292893218814257 -.001 0 0 0 -1 16 31 153
 0 ?30 56 0 84 0 0 1 17 30 0 85 86 61 50 25 31 0 73 +15 85 40 0 86 87 0 17 86 0
 85 83 30 40 73 70 0 0 -17 61 0 85 30 83 11 59 71 0 0 +17 73 0 88 49 44 50 86 70
 0 0 +15 88 123 0 66 18 0 17 49 0 88 66 73 47 29 67 0 53 +17 44 0 88 73 66 40 36
 75 0 89 +17 66 0 88 44 49 34 57 62 0 0 -17 36 0 35 33 89 34 44 75 0 37 -17 89 0
 35 36 23 40 83 81 0 86 -15 35 219 0 33 90 0 17 23 0 35 89 33 45 39 10 0 83 +17
 83 0 85 61 86 45 89 81 0 59 +17 59 0 58 39 32 45 61 71 0 0 -14 255 90 216 91 ?0
 55 35 5 92 -0 0 0 55 22 81 1 91 372 93 90 94 0 0 95 96 14 55 220 95 ?90 69 27 5
 97 -0 0 90 69 22 50 255 92 251 0 90 0 97 0 +-.00742462120245919 -.0067175144212
7177 -.047 -.707106781186544 .707106781186552 0 -.707106781186552 -.707106781186
544 0 13 22 10 0 0 0 0 0 0 9 16 14 16 48 98 ?87 0 63 5 99 +0 0 87 0 22 81 1 98 3
74 93 16 100 0 95 101 102 14 87 42 101 ?18 16 85 5 19 -0 0 18 16 22 50 99 3 0 16
 103 19 0 +0 .001 0 0 1 0 0 0 1 51 103 70 0 69 97 99 0 -0 .001 0 0 -1 0 .043 0 0
 -1 50 19 24 0 87 99 6 0 +0 -.001 0 0 1 0 0 0 1 14 69 57 104 ?55 18 58 5 103 +0
 0 55 18 22 50 97 249 0 55 92 103 0 +-.00671751442127264 -.00742462120245832 -.0
47 .707106781186544 -.707106781186552 0 .707106781186552 .707106781186544 0 81 1
 104 376 93 69 105 0 101 106 107 14 18 27 106 ?69 87 88 5 6 -0 0 69 87 22 81 1 1
06 377 93 18 108 0 104 0 109 80 255 1 93 110 111 9000 1 1 1 1 1 1 1 1 0 FFFFTFTF
FFFFFF1 81 1 108 354 112 18 0 106 113 105 114 82 255 1 109 -1471545238 80 1 112
 0 115 8001 0 0 0 0 3 5 0 0 0 FFFFTFTFFFFFFF2 81 1 113 353 112 87 0 101 100 108
 116 81 1 105 355 112 69 0 104 108 117 118 83 255 3 114 1 0 0 81 1 117 356 112 5
5 0 95 105 94 119 83 3 118 1 0 0 81 1 95 373 93 55 117 0 91 98 120 81 1 94 357 1
12 90 0 91 117 0 121 83 3 119 1 0 0 83 3 121 1 0 0 82 1 120 1539899498 81 1 101
 375 93 87 113 0 98 104 122 81 1 100 352 112 16 0 98 0 113 123 83 3 116 1 0 0 83
 3 123 1 0 0 82 1 122 -1469841302 79 255 15 115 SDL/TYSA_COLOUR79 14 111 SWEntUn
changed82 1 107 -1475674006 82 1 102 -1469317014 82 1 96 1542389866 17 37 0 63 5
7 64 34 33 38 0 66 -17 29 0 27 25 53 50 49 67 0 30 -19 17 32 0 1 0 9 5 S0 74 4 C
I16 index_map_offset0 0 1 dCCZ20 15 9 0 0 124 125 106 126 127 128 13 94 2 0 0 0
 0 0 0 0 0 0 0 0 81 2 124 37 129 1 0 125 0 0 0 130 81 2 125 88 131 1 124 126 0 0
 0 132 81 1 126 313 133 1 125 127 0 0 134 81 2 127 321 135 1 126 128 0 0 136 0 8
1 2 128 346 137 1 127 13 0 0 0 138 81 2 13 349 139 1 128 2 0 0 0 0 80 2 139 140
 141 9000 0 0 0 0 3 5 0 0 0 FFTFFFFFFFFFFF9 1 79 16 141 BODY_RECIPE_200180 2 137
 142 143 9000 0 0 0 0 3 5 0 0 0 FFTFFFFFFFFFFF9 1 82 1 138 1 79 24 143 BODY_IN_L
IGHTWEIGHT_PERM80 2 135 144 145 8004 0 0 0 0 3 5 0 0 0 FFTFFFFFFFFFFF2 3 83 1 13
6 1 79 16 145 SDL/TYSA_DENSITY80 1 133 146 147 9000 1 1 1 1 1 1 1 1 0 FFTFFFFFFF
FFFF1 82 1 134 960554 79 10 147 BODY_MATCH80 2 131 148 149 9000 0 0 0 0 3 5 0 0
 0 FFTFFFFFFFFFFF9 1 82 1 132 51 79 30 149 LAST_BODY_MODIFYING_FEATURE_ID80 2 12
9 150 151 9000 0 0 0 0 3 5 0 0 0 FFTFFFFFFFFFFF9 1 82 1 130 105 79 19 151 ENT_TI
ME_STAMP_200180 2 12 152 153 9000 0 0 0 0 3 5 0 0 0 FFTFFFFFFFFFFF9 1 82 1 14 10
2 79 12 153 ATOM_ID_20011 0 
