**ABCDEFGHIJKLMNOPQRSTUVWXYZabcdefghijklmnopqrstuvwxyz**************************
**PARASOLID !"#$%&'()*+,-./:;<=>?@[\]^_`{|}~0123456789**************************
**PART1;
MC=AMD64;
MC_MODEL=Intel64 Family 6 Model 142 Stepping 12, GenuineIntel;
MC_ID=unknown;
OS=Windows_NT;
OS_RELEASE=unknown;
FRU=Parasolid Version 33.1, build 247,  8- 6-2021;
APPL=SOLIDWORKS 2022-2022009;
SITE=;
USER=unknown;
FORMAT=text;
GUISE=transmit;
KEY=FILEPiston.x_t;
DATE=Thu Jun 15 06:11:03 2023;
**PART2;
SCH=SCH_3301247_33103;
USFLD_SIZE=0;
**PART3;
**END_OF_HEADER*****************************************************************
T51 : TRANSMIT FILE created by modeller version 330124723 SCH_3301247_33103_1300
6230 0 12 35 CCCI7 lattice222 0 CCCI4 mesh1006 0 I8 polyline1008 0 CCCCCCCDI5 ow
ner1040 0 CCCCCCI13 boundary_mesh1006 0 I17 boundary_polyline1008 0 CCCA16 index
_map_offset0 0 1 dA9 index_map82 0 A17 node_id_index_map82 0 A20 schema_embeddin
g_map82 0 A5 child12 0 A14 lowest_node_id0 0 1 dA16 mesh_offset_data206 0 Z1 156
7 2 3 0 0 0 0 0 0 0 1e3 1e-8 0 4 0 1 0 1 1 5 6 7 8 0 0 9 10 11 0 0 0 0 0 0 0 81
 255 2 2 1530 12 1 13 0 0 0 0 14 70 11 CI9 list_type0 0 1 uI10 notransmit0 0 1 l
CCCDCCDI12 finger_index0 0 1 dI12 finger_block1012 0 CZ3 0 4 T1 0 0 9 20 1 15 15
 13 255 5 188 0 1 0 16 0 0 17 0 54 255 6 349 0 18 19 0 0 +0 -.18899999999075 0 0
 1 0 -186989131736523e-20 .189 0 0 1 31 255 7 1006 0 10 20 0 0 -0 -.02981 0 0 -1
 0 0 0 -1 .0465 29 255 8 996 0 11 21 0 -.01886796226411325 -.05781 .0425 19 8 CC
CCCCCA5 owner12 0 Z9 192 0 1 17 0 22 V0 16 255 10 1004 0 ?23 0 24 7 0 0 1 18 255
 11 994 0 25 0 26 8 ?1 17 255 25 0 27 28 28 11 29 30 0 31 -18 26 798 0 32 11 33
 21 ?1 17 32 0 34 35 35 26 36 37 0 38 -18 33 184 0 39 26 40 41 ?1 29 21 800 0 26
 41 8 -.01886796226411325 -.02981 -.0425 29 41 186 0 33 42 21 0 0 0 29 42 931 0
 40 43 41 .01886796226411325 -.02981 -.0425 18 40 857 0 35 33 44 42 ?1 29 43 933
 0 44 45 42 .01886796226411325 -.05781 -.0425 18 44 864 0 46 40 47 43 ?1 29 45 9
34 0 47 48 43 -.01886796226411325 -.05781 -.0425 18 47 854 0 49 44 50 45 ?1 29 4
8 1124 0 50 51 45 .01886796226411325 -.05781 .0425 18 50 1050 0 28 47 52 48 ?1 2
9 51 1126 0 52 53 48 .01886796226411325 -.02981 .0425 18 52 1054 0 54 50 55 51 ?
1 29 53 1127 0 55 0 51 -.01886796226411325 -.02981 .0425 18 55 1047 0 56 52 0 53
 ?1 17 56 0 57 58 58 55 23 10 0 59 -15 255 57 1087 0 58 60 0 17 58 0 57 56 56 52
 59 61 0 23 +17 23 0 62 63 64 52 56 10 0 0 +17 59 0 65 31 54 55 58 61 0 64 -15 6
5 1078 0 59 66 67 17 31 0 65 29 59 11 64 68 0 69 -17 54 0 65 59 29 52 63 70 0 58
 -16 61 1024 0 ?58 71 30 72 0 0 1 17 64 0 62 23 69 55 31 68 0 0 +15 62 992 0 64
 16 0 17 69 0 62 64 63 11 28 24 0 0 +16 68 1026 0 ?64 70 71 73 0 0 1 16 70 1025
 0 ?63 37 68 74 0 0 1 16 71 1032 0 ?75 68 61 76 0 0 1 30 255 73 1111 0 68 77 74
 0 +-.01886796226411325 .0755975594187193 .0425 0 1 0 30 77 1113 0 30 72 73 0 +-
.0465 -.05781 .0425 1 0 0 30 74 1110 0 70 73 78 0 -.01886796226411325 .075597559
4187193 .0425 0 1 0 30 78 921 0 79 74 80 0 +-.0465 -.05781 -.0425 1 0 0 16 79 83
5 0 ?81 82 37 78 0 0 1 30 80 920 0 37 78 83 0 +-.0465 -.02981 -.0425 1 0 0 16 37
 841 0 ?36 79 70 80 0 0 1 30 83 918 0 84 80 85 0 +-.01886796226411325 .075597559
4187193 -.0425 0 1 0 16 84 831 0 ?38 86 82 83 0 0 1 30 85 917 0 86 83 87 0 -.018
86796226411325 .0755975594187193 -.0425 0 1 0 16 86 828 0 ?46 88 84 85 0 0 1 31
 87 764 0 89 85 90 0 +0 -.04381 .025 0 0 1 1 0 0 .011 16 89 704 0 ?91 92 88 87 0
 0 1 31 90 637 0 92 87 93 0 +0 -.04381 -.025 0 0 1 1 0 0 .0195 16 92 614 0 ?94 9
5 89 90 0 0 1 31 93 591 0 96 90 97 0 +0 -.04381 .025 0 0 1 1 0 0 .0195 16 96 568
 0 ?98 99 95 93 0 0 1 38 12 CCCCCCCCCCCA17 intersection_data204 0 Z97 590 0 95 9
3 100 0 +101 102 103 104 104 105 16 95 567 0 ?106 96 92 97 0 0 1 31 100 350 0 99
 97 107 0 +0 -.00881 0 0 1 0 0 0 1 .037 51 255 101 587 0 108 102 109 110 -0 -.04
381 .046502 0 0 -1 .0195 -1 0 0 51 102 588 0 1 111 101 112 -0 .0755975594187193
 0 0 1 0 .037 0 0 1 40 255 21 103 0 1 21 .00137623874052609 .3868127689571085 ??
-.0195 -.04381 .03144439536706025 -.0185781946899915 -.03788541714035735 .031997
66682214145 -.0159904124781056 -.03264950230589855 .03336625104473145 -.01158984
953613418 -.02812799159132445 .0351379479726658 -.0054074906384244 -.02507476461
32921 .03660271909292195 .001035566085000706 -.0243375167766513 .036985505307939
15 .0067575095185691 -.02551830611708015 .0363776863627478 .01184064689708252 -.
028316482611795 .03505423057290815 .0161716871679571 -.032913829381763 .03327877
00214676 .0189515491208469 -.039217747184646 .031777960694798 .0194115024035266
 -.0456656870527869 .0314991043434235 .01808553848958865 -.0511013165849254 .032
27868178134925 .01518851871023195 -.056039427598581 .0337388336992987 .010316529
46207658 -.0603574837923506 .03553265005397295 .003919365096854905 -.06291205688
49942 .0367918275876254 -.002390013367071385 -.0631629800316442 .036922727907147
1 -.00795200839147207 -.0616149308491204 .03613537826759195 -.0128979038454785 -
.0584351179958587 .03467915910734845 -.0169735488213962 -.053409408336334 .03287
70229857826 -.01925622552237265 -.0468837239029432 .0315942681293858 -.0195 -.04
381 .03144439536706025 41 3 CI8 term_use0 0 1 cCZ1 104 H?-.0195 -.04381 .0314443
9536706025 204 2 17 INTERSECTION_DATA17 Intersection data7 uv_type0 0 1 u6 value
s0 1 1 fT84 105 4 0 .01505760463293975 5.7280867904863 -.1194075594187192 .30870
4635796586 .01450433317785856 5.7571444981564 -.1134829765590766 .60934835025377
2 .01313574895526854 5.83628392364153 -.1082470617246178 .934337605253845 .01136
40520273342 5.96458335549784 -.1037255510100436 1.289806062049596 .0098992809070
7808 6.1365115737786 -.1006723240320112 1.623927273546685 .00951649469206085 .02
79919279277027 -.0999350761953706 1.9246752248013 .0101243136372522 .18366626353
92465 -.1011158655357994 2.223344076152735 .01144776942709184 .3257479414171655
 -.1039140420305142 2.548681111111155 .0132232299785324 .452341377101107 -.10851
13888004822 2.903859499183175 .01472403930520202 .537749048685904 -.114815306603
3652 3.236900315333715 .0150028956565765 .552286549180619 -.1212632464715062 3.5
24817860876995 .01422331821865076 .510711794102694 -.1266988760036446 3.81948160
876173 .0127631663007013 .423002878543013 -.1316369870173002 4.15490501822654 .0
1096934994602704 .2825704945376125 -.13595504321107 4.51001739459058 .0097101724
1237459 .106127896293706 -.1385096163037134 4.83526272554156 .00957927209285291
 6.2185453462602 -.1387605394503634 5.13242714683558 .01036662173240804 6.066576
26700052 -.1372124902678396 5.43511407979321 .01182284089265154 5.92711685633713
 -.134032677414578 5.76848115810055 .0136249770142174 5.80660350147134 -.1290069
677550532 6.12489829354731 .0149077318706142 5.7358208777581 -.1224812833216624
 0 .01505760463293975 5.7280867904863 -.1194075594187192 50 255 111 589 0 113 11
4 102 0 +0 -.04381 .025 0 0 1 1 0 0 141 255 112 97 112 112 102 14 255 113 575 11
5 ?108 116 117 5 111 -0 0 108 116 22 51 114 633 0 118 119 111 120 +0 -.04381 -.0
46502 0 0 1 .0195 1 0 0 14 118 621 121 ?122 108 123 5 114 +0 0 124 122 22 50 119
 634 0 122 125 114 0 +0 -.04381 -.025 0 0 -1 1 0 0 141 120 126 120 120 114 38 12
6 609 0 127 128 129 0 +130 114 131 132 132 133 16 127 606 0 ?134 135 136 126 0 0
 1 31 128 373 0 136 137 126 0 +0 -.00581 0 0 1 0 0 0 1 .0465 31 129 651 0 88 126
 138 0 +0 -.04381 -.025 0 0 -1 -1 0 0 .011 51 130 326 0 139 109 140 141 -0 .0755
975594187193 0 0 1 0 .037 0 0 1 40 21 131 0 1 21 .00137623874052609 .38681276895
71085 ??.0195 -.04381 -.03144439536706025 .0185781946899915 -.03788541714035735
 -.03199766682214145 .0159904124781056 -.03264950230589855 -.03336625104473145 .
01158984953613418 -.02812799159132445 -.0351379479726658 .0054074906384244 -.025
0747646132921 -.03660271909292195 -.001035566085000706 -.0243375167766513 -.0369
8550530793915 -.0067575095185691 -.02551830611708015 -.0363776863627478 -.011840
64689708252 -.028316482611795 -.03505423057290815 -.0161716871679571 -.032913829
381763 -.0332787700214676 -.0189515491208469 -.039217747184646 -.031777960694798
 -.0194115024035266 -.0456656870527869 -.0314991043434235 -.01808553848958865 -.
0511013165849254 -.03227868178134925 -.01518851871023195 -.056039427598581 -.033
7388336992987 -.01031652946207658 -.0603574837923506 -.03553265005397295 -.00391
9365096854905 -.0629120568849942 -.0367918275876254 .002390013367071385 -.063162
9800316442 -.0369227279071471 .00795200839147207 -.0616149308491204 -.0361353782
6759195 .0128979038454785 -.0584351179958587 -.03467915910734845 .01697354882139
62 -.053409408336334 -.0328770229857826 .01925622552237265 -.0468837239029432 -.
0315942681293858 .0195 -.04381 -.03144439536706025 41 1 132 H?.0195 -.04381 -.03
144439536706025 204 84 133 4 2.58649413689651 -.1194075594187192 0 .015057604632
93975 2.6155518445666 -.1134829765590766 .308704635796586 .01450433317785856 2.6
94691270051735 -.1082470617246178 .609348350253772 .01313574895526854 2.82299070
1908045 -.1037255510100436 .934337605253845 .0113640520273342 2.994918920188805
 -.1006723240320112 1.289806062049596 .00989928090707808 3.169584581517495 -.099
9350761953706 1.623927273546685 .00951649469206085 3.32525891712904 -.1011158655
357994 1.9246752248013 .0101243136372522 3.46734059500696 -.1039140420305142 2.2
23344076152735 .01144776942709184 3.5939340306909 -.1085113888004822 2.548681111
111155 .0132232299785324 3.679341702275695 -.1148153066033652 2.903859499183175
 .01472403930520202 3.69387920277041 -.1212632464715062 3.236900315333715 .01500
28956565765 3.652304447692485 -.1266988760036446 3.524817860876995 .014223318218
65076 3.564595532132805 -.1316369870173002 3.81948160876173 .0127631663007013 3.
424163148127405 -.13595504321107 4.15490501822654 .01096934994602704 3.247720549
8835 -.1385096163037134 4.51001739459058 .00971017241237459 3.076952692670405 -.
1387605394503634 4.83526272554156 .00957927209285291 2.924983613410725 -.1372124
902678396 5.13242714683558 .01036662173240804 2.785524202747335 -.13403267741457
8 5.43511407979321 .01182284089265154 2.665010847881545 -.1290069677550532 5.768
48115810055 .0136249770142174 2.594228224168305 -.1224812833216624 6.12489829354
731 .0149077318706142 2.58649413689651 -.1194075594187192 0 .01505760463293975 1
4 139 564 142 ?18 143 144 5 130 +0 0 18 143 22 50 109 325 0 116 101 130 0 +-.037
 -.00881 0 0 -1 0 0 0 -1 50 140 327 0 145 130 146 0 +-.0465 -.07081 0 0 -1 0 0 0
 -1 141 141 126 141 141 130 14 145 214 147 ?116 148 149 5 140 +0 0 116 148 22 51
 146 328 0 148 140 150 0 +0 .0755975594187193 0 0 1 0 .0465 0 0 1 14 148 219 151
 ?145 152 153 5 146 +0 0 145 152 22 50 150 329 0 152 146 154 0 +-.0425 -.06581 0
 0 1 0 0 0 1 14 152 224 155 ?148 156 157 5 150 +0 0 148 156 22 51 154 330 0 156
 150 158 0 +0 .0755975594187193 0 0 1 0 .0425 0 0 1 14 156 229 159 ?152 160 161
 5 154 +0 0 152 160 22 50 158 331 0 160 154 162 0 +-.0465 -.06381 0 0 -1 0 0 0 -
1 14 160 234 163 ?156 164 165 5 158 +0 0 156 164 22 51 162 332 0 16 158 166 0 +0
 .0755975594187193 0 0 1 0 .0465 0 0 1 14 16 1007 167 ?143 0 168 5 162 +0 0 143
 0 22 50 166 333 0 164 162 169 0 +-.0425 -.02581 0 0 1 0 0 0 1 14 164 244 170 ?1
60 171 172 5 166 +0 0 160 171 22 51 169 334 0 171 166 173 0 +0 .0755975594187193
 0 0 1 0 .0425 0 0 1 14 171 249 174 ?164 175 176 5 169 +0 0 164 175 22 50 173 33
5 0 175 169 177 0 +-.0465 -.02281 0 0 -1 0 0 0 -1 14 175 254 178 ?171 179 180 5
 173 +0 0 171 179 22 51 177 336 0 179 173 181 0 +0 .0755975594187193 0 0 1 0 .04
65 0 0 1 14 179 259 182 ?175 183 184 5 177 +0 0 175 183 22 50 181 337 0 183 177
 185 0 +-.0425 -.02081 0 0 1 0 0 0 1 14 183 264 186 ?179 187 188 5 181 +0 0 179
 187 22 51 185 338 0 187 181 189 0 +0 .0755975594187193 0 0 1 0 .0425 0 0 1 14 1
87 269 190 ?183 191 192 5 185 +0 0 183 191 22 50 189 339 0 191 185 193 0 +-.0465
 -.01781 0 0 -1 0 0 0 -1 14 191 274 194 ?187 195 196 5 189 +0 0 187 195 22 51 19
3 340 0 195 189 197 0 +0 .0755975594187193 0 0 1 0 .0465 0 0 1 14 195 279 198 ?1
91 199 200 5 193 +0 0 191 199 22 50 197 341 0 199 193 201 0 +-.0425 -.01581 0 0
 1 0 0 0 1 14 199 284 202 ?195 203 204 5 197 +0 0 195 203 22 51 201 342 0 203 19
7 205 0 +0 .0755975594187193 0 0 1 0 .0425 0 0 1 14 203 289 206 ?199 207 208 5 2
01 +0 0 199 207 22 50 205 343 0 207 201 209 0 +-.0465 -.01281 0 0 -1 0 0 0 -1 14
 207 294 210 ?203 211 212 5 205 +0 0 203 211 22 51 209 344 0 211 205 213 0 +0 .0
755975594187193 0 0 1 0 .0465 0 0 1 14 211 299 214 ?207 215 216 5 209 +0 0 207 2
15 22 50 213 345 0 215 209 217 0 +-.0425 -.01081 0 0 1 0 0 0 1 14 215 304 218 ?2
11 219 220 5 213 +0 0 211 219 22 51 217 346 0 219 213 221 0 +0 .0755975594187193
 0 0 1 0 .0425 0 0 1 14 219 309 222 ?215 223 224 5 217 +0 0 215 223 22 50 221 34
7 0 223 217 19 0 +-.0465 -.00781 0 0 -1 0 0 0 -1 14 223 314 225 ?219 226 227 5 2
21 +0 0 219 226 22 51 19 348 0 226 221 6 0 +0 .0755975594187193 0 0 1 0 .0465 0
 0 1 14 226 319 228 ?223 18 229 5 19 +0 0 223 18 22 81 1 228 1555 230 226 231 0
 225 232 233 14 18 322 232 ?226 139 234 5 6 +0 0 226 139 22 15 229 497 0 235 226
 236 13 22 191 0 0 0 0 0 0 9 16 17 235 0 229 235 235 0 237 238 0 0 +15 236 318 0
 239 226 0 17 239 0 236 239 239 0 240 136 0 0 -17 240 0 234 240 240 0 239 136 0
 0 +16 136 316 0 ?240 127 238 128 0 0 1 16 238 311 0 ?235 136 241 137 0 0 1 16 2
41 306 0 ?242 238 243 244 0 0 1 31 137 372 0 238 244 128 0 +0 -.00781 0 0 1 0 0
 0 1 .0465 31 244 371 0 241 245 137 0 +0 -.00781 0 0 1 0 0 0 1 .0425 31 245 370
 0 243 246 244 0 +0 -.01081 0 0 1 0 0 0 1 .0425 16 243 301 0 ?247 241 248 245 0
 0 1 31 246 369 0 248 249 245 0 +0 -.01081 0 0 1 0 0 0 1 .0465 16 248 296 0 ?250
 243 251 246 0 0 1 31 249 368 0 251 252 246 0 +0 -.01281 0 0 1 0 0 0 1 .0465 16
 251 291 0 ?253 248 254 249 0 0 1 31 252 367 0 254 255 249 0 +0 -.01281 0 0 1 0
 0 0 1 .0425 16 254 286 0 ?256 251 257 252 0 0 1 31 255 366 0 257 258 252 0 +0 -
.01581 0 0 1 0 0 0 1 .0425 16 257 281 0 ?259 254 260 255 0 0 1 31 258 365 0 260
 261 255 0 +0 -.01581 0 0 1 0 0 0 1 .0465 16 260 276 0 ?262 257 263 258 0 0 1 31
 261 364 0 263 264 258 0 +0 -.01781 0 0 1 0 0 0 1 .0465 16 263 271 0 ?265 260 26
6 261 0 0 1 31 264 363 0 266 267 261 0 +0 -.01781 0 0 1 0 0 0 1 .0425 16 266 266
 0 ?268 263 269 264 0 0 1 31 267 362 0 269 270 264 0 +0 -.02081 0 0 1 0 0 0 1 .0
425 16 269 261 0 ?271 266 272 267 0 0 1 31 270 361 0 272 273 267 0 +0 -.02081 0
 0 1 0 0 0 1 .0465 16 272 256 0 ?274 269 275 270 0 0 1 31 273 360 0 275 276 270
 0 +0 -.02281 0 0 1 0 0 0 1 .0465 16 275 251 0 ?277 272 278 273 0 0 1 31 276 359
 0 278 279 273 0 +0 -.02281 0 0 1 0 0 0 1 .0425 16 278 246 0 ?280 275 281 276 0
 0 1 31 279 358 0 281 282 276 0 +0 -.02581 0 0 1 0 0 0 1 .0425 16 281 241 0 ?283
 278 284 279 0 0 1 31 282 357 0 284 285 279 0 +0 -.02581 0 0 1 0 0 0 1 .0465 16
 284 236 0 ?286 281 287 282 0 0 1 31 285 356 0 287 288 282 0 +0 -.06381 0 0 1 0
 0 0 1 .0465 16 287 231 0 ?289 284 290 285 0 0 1 31 288 355 0 290 291 285 0 +0 -
.06381 0 0 1 0 0 0 1 .0425 16 290 226 0 ?292 287 293 288 0 0 1 31 291 354 0 293
 294 288 0 +0 -.06581 0 0 1 0 0 0 1 .0425 16 293 221 0 ?295 290 296 291 0 0 1 31
 294 353 0 296 297 291 0 +0 -.06581 0 0 1 0 0 0 1 .0465 16 296 216 0 ?298 293 29
9 294 0 0 1 31 297 352 0 299 107 294 0 +0 -.07081 0 0 1 0 0 0 1 .0465 16 299 211
 0 ?300 296 301 297 0 0 1 31 107 351 0 301 100 297 0 +0 -.07081 0 0 1 0 0 0 1 .0
37 16 301 206 0 ?302 299 99 107 0 0 1 17 302 0 149 302 302 0 303 301 0 0 +16 99
 201 0 ?304 301 96 100 0 0 1 17 304 0 305 304 304 0 306 99 0 0 +15 305 475 0 304
 139 307 17 306 0 308 306 306 0 304 99 0 0 -15 308 203 0 306 116 0 14 116 204 30
9 ?113 145 308 5 109 +0 0 113 145 22 81 1 309 1557 230 116 310 0 232 311 312 80
 255 1 230 313 314 9000 1 1 1 1 1 1 1 1 0 FFFFTFTFFFFFFF1 81 1 310 1443 315 116
 0 309 316 317 318 81 1 232 1556 230 18 319 0 228 309 320 81 1 311 1558 230 108
 321 0 309 322 323 82 255 1 312 529399913 14 108 580 311 ?118 113 324 5 101 -0 0
 122 113 22 81 1 321 1445 315 108 0 311 317 325 326 81 1 322 1559 230 122 327 0
 311 328 329 82 1 323 -891158417 14 122 626 322 ?124 118 330 5 119 -0 0 118 108
 22 81 1 327 1447 315 122 0 322 325 331 332 81 1 328 1560 230 124 331 0 322 333
 334 82 1 329 -539099019 14 124 741 328 ?335 122 336 5 125 -143 143 335 118 22 8
1 1 331 1448 315 124 0 328 327 337 338 81 1 333 1561 230 335 337 0 328 339 340 8
2 1 334 -1741881224 14 335 882 333 ?341 124 342 5 343 -0 0 341 124 22 81 1 337 1
449 315 335 0 333 331 344 345 81 1 339 1562 230 341 344 0 333 346 347 82 1 340 -
938737544 14 341 891 339 ?348 335 349 5 350 -0 0 348 335 22 81 1 344 1450 315 34
1 0 339 337 351 352 81 1 346 1563 230 348 351 0 339 353 354 82 1 347 -963772296
 14 348 899 346 ?66 341 34 5 355 -0 0 66 341 22 81 1 351 1451 315 348 0 346 344
 356 357 81 1 353 1564 230 66 356 0 346 358 359 82 1 354 -963510152 14 66 1075 3
53 ?60 348 65 5 360 +0 0 60 348 22 81 1 356 1452 315 66 0 353 351 361 362 81 1 3
58 1565 230 60 361 0 353 363 364 82 1 359 -687603590 14 60 1084 358 ?365 66 57 5
 366 +0 0 365 66 22 81 1 361 1453 315 60 0 358 356 367 368 81 1 363 1566 230 365
 367 0 358 369 370 82 1 364 -713162630 14 365 1092 363 ?0 60 27 5 371 +0 0 0 60
 22 81 1 367 1454 315 365 0 363 361 0 372 81 1 369 1567 230 143 373 0 363 0 374
 82 1 370 -712638342 14 143 989 369 ?139 16 375 5 125 -124 124 139 16 22 81 1 37
3 1419 315 143 0 369 376 377 378 82 1 374 -689373062 80 1 315 0 379 8001 0 0 0 0
 3 5 0 0 0 FFFFTFTFFFFFFF2 81 1 376 1418 315 16 0 167 0 373 380 81 1 377 1420 31
5 139 0 142 373 319 381 83 255 3 378 1 .870588235294118 .529411764705882 81 1 14
2 1533 230 139 377 0 121 147 382 81 1 319 1421 315 18 0 232 377 231 383 83 3 381
 1 .870588235294118 .529411764705882 81 1 231 1422 315 226 0 228 319 384 385 83
 3 383 1 .870588235294118 .529411764705882 81 1 384 1423 315 223 0 225 231 386 3
87 83 3 385 1 .870588235294118 .529411764705882 81 1 225 1554 230 223 384 0 222
 228 388 81 1 386 1424 315 219 0 222 384 389 390 83 3 387 1 .870588235294118 .52
9411764705882 81 1 222 1553 230 219 386 0 218 225 391 81 1 389 1425 315 215 0 21
8 386 392 393 83 3 390 1 .870588235294118 .529411764705882 81 1 218 1552 230 215
 389 0 214 222 394 81 1 392 1426 315 211 0 214 389 395 396 83 3 393 1 .870588235
294118 .529411764705882 81 1 214 1551 230 211 392 0 210 218 397 81 1 395 1427 31
5 207 0 210 392 398 399 83 3 396 1 .870588235294118 .529411764705882 81 1 210 15
50 230 207 395 0 206 214 400 81 1 398 1428 315 203 0 206 395 401 402 83 3 399 1
 .870588235294118 .529411764705882 81 1 206 1549 230 203 398 0 202 210 403 81 1
 401 1429 315 199 0 202 398 404 405 83 3 402 1 .870588235294118 .529411764705882
 81 1 202 1548 230 199 401 0 198 206 406 81 1 404 1430 315 195 0 198 401 407 408
 83 3 405 1 .870588235294118 .529411764705882 81 1 198 1547 230 195 404 0 194 20
2 409 81 1 407 1431 315 191 0 194 404 410 411 83 3 408 1 .870588235294118 .52941
1764705882 81 1 194 1546 230 191 407 0 190 198 412 81 1 410 1432 315 187 0 190 4
07 413 414 83 3 411 1 .870588235294118 .529411764705882 81 1 190 1545 230 187 41
0 0 186 194 415 81 1 413 1433 315 183 0 186 410 416 417 83 3 414 1 .870588235294
118 .529411764705882 81 1 186 1544 230 183 413 0 182 190 418 81 1 416 1434 315 1
79 0 182 413 419 420 83 3 417 1 .870588235294118 .529411764705882 81 1 182 1543
 230 179 416 0 178 186 421 81 1 419 1435 315 175 0 178 416 422 423 83 3 420 1 .8
70588235294118 .529411764705882 81 1 178 1542 230 175 419 0 174 182 424 81 1 422
 1436 315 171 0 174 419 425 426 83 3 423 1 .870588235294118 .529411764705882 81
 1 174 1541 230 171 422 0 170 178 427 81 1 425 1437 315 164 0 170 422 428 429 83
 3 426 1 .870588235294118 .529411764705882 81 1 170 1540 230 164 425 0 167 174 4
30 81 1 428 1438 315 160 0 163 425 431 432 83 3 429 1 .870588235294118 .52941176
4705882 81 1 163 1538 230 160 428 0 159 167 433 81 1 431 1439 315 156 0 159 428
 434 435 83 3 432 1 .870588235294118 .529411764705882 81 1 159 1537 230 156 431
 0 155 163 436 81 1 434 1440 315 152 0 155 431 437 438 83 3 435 1 .8705882352941
18 .529411764705882 81 1 155 1536 230 152 434 0 151 159 439 81 1 437 1441 315 14
8 0 151 434 316 440 83 3 438 1 .870588235294118 .529411764705882 81 1 151 1535 2
30 148 437 0 147 155 441 81 1 316 1442 315 145 0 147 437 310 442 83 3 440 1 .870
588235294118 .529411764705882 81 1 147 1534 230 145 316 0 142 151 443 83 3 442 1
 .870588235294118 .529411764705882 82 1 443 530579561 82 1 441 531169385 82 1 43
9 531759209 82 1 436 532349033 81 1 167 1539 230 16 376 0 163 170 444 82 1 433 5
32938857 82 1 444 -684785542 82 1 430 534118505 82 1 427 534708329 82 1 424 5352
98153 82 1 421 535887977 82 1 418 536477801 82 1 415 537067625 82 1 412 53765744
9 82 1 409 538247273 82 1 406 538837097 82 1 403 539426921 82 1 400 540016745 82
 1 397 540606569 82 1 394 541196393 82 1 391 541786217 82 1 388 542376041 81 1 1
21 1532 230 118 325 0 115 142 445 82 1 382 -871038863 81 1 325 1446 315 118 0 12
1 321 327 446 81 1 115 1531 230 113 317 0 0 121 447 82 1 445 -530644879 81 1 317
 1444 315 113 0 115 310 321 448 82 1 447 -891551627 83 3 448 1 .870588235294118
 .529411764705882 83 3 446 1 .870588235294118 .529411764705882 83 3 380 1 .87058
8235294118 .529411764705882 79 255 15 379 SDL/TYSA_COLOUR15 375 740 0 449 143 45
0 51 125 759 0 143 355 119 0 +0 -.04381 -.0465 0 0 1 .011 1 0 0 50 355 912 0 348
 343 125 0 +-.0465 -.02981 -.0425 0 1 0 0 0 1 50 343 913 0 335 350 355 0 +-.0465
 -.02981 -.0425 0 0 1 1 0 0 50 350 914 0 341 371 343 0 +-.0465 -.05781 -.0425 0
 -1 0 0 0 -1 50 371 1105 0 365 360 350 0 +-.0465 -.05781 .0425 0 1 0 0 0 1 50 36
0 1106 0 66 366 371 0 +-.0465 -.02981 .0425 0 0 1 1 0 0 50 366 1107 0 60 0 360 0
 +-.0465 -.02981 .0425 0 -1 0 0 0 -1 17 449 0 375 449 449 0 91 89 0 0 -15 450 98
7 0 451 143 0 17 451 0 450 451 451 0 75 71 0 0 -17 75 0 67 75 75 0 451 71 0 0 +1
5 67 1079 0 75 66 0 17 91 0 117 91 91 0 449 89 0 0 +15 117 655 0 91 113 452 15 4
52 579 0 453 113 0 17 453 0 452 453 453 0 98 96 0 0 -17 98 0 454 98 98 0 453 96
 0 0 +15 454 584 0 98 108 0 83 3 372 1 .870588235294118 .529411764705882 15 27 1
095 0 25 365 0 83 3 368 1 .870588235294118 .529411764705882 83 3 362 1 .87058823
5294118 .529411764705882 83 3 357 1 .870588235294118 .529411764705882 15 34 902
 0 35 348 0 17 35 0 34 32 32 40 455 135 0 36 +17 455 0 456 457 458 26 35 135 0 0
 -16 135 802 0 ?35 459 127 460 0 0 1 17 36 0 342 46 38 40 32 37 0 458 +15 342 88
5 0 46 335 461 17 46 0 342 462 36 44 458 86 0 81 +17 38 0 342 36 462 26 457 84 0
 455 +17 458 0 456 455 463 40 46 86 0 0 -15 456 812 0 463 16 62 17 463 0 456 458
 457 44 49 459 0 0 -17 457 0 456 463 455 47 38 84 0 0 -17 49 0 349 81 81 47 463
 459 0 462 +16 459 811 0 ?49 24 135 464 0 0 1 16 24 995 0 ?69 10 459 20 0 0 1 31
 464 813 0 459 460 76 0 -0 -.05781 0 0 -1 0 0 0 -1 .0465 31 460 804 0 135 138 46
4 0 -0 -.02981 0 0 1 0 0 0 1 .0465 31 76 988 0 71 464 20 0 -0 -.04381 .0425 0 0
 1 1 0 0 .011 31 20 997 0 24 76 7 0 -0 -.05781 0 0 1 0 0 0 1 .0465 31 138 795 0
 82 129 460 0 -0 -.04381 -.0425 0 0 1 1 0 0 .011 16 82 836 0 ?465 84 79 138 0 0
 1 17 465 0 336 465 465 0 466 82 0 0 +15 336 793 0 465 124 467 17 466 0 461 466
 466 0 465 82 0 0 -15 461 886 0 466 335 0 15 467 745 0 468 124 0 17 468 0 467 46
8 468 0 469 88 0 0 -17 469 0 330 469 469 0 468 88 0 0 +16 88 705 0 ?469 89 86 12
9 0 0 1 15 330 649 0 469 122 470 15 470 630 0 94 122 0 17 94 0 470 94 94 0 471 9
2 0 0 +17 471 0 472 471 471 0 94 92 0 0 -15 472 625 0 471 118 0 15 349 894 0 49
 341 0 17 81 0 349 49 49 44 462 79 0 463 +17 462 0 342 38 46 47 81 79 0 457 -83
 3 352 1 .870588235294118 .529411764705882 83 3 345 1 .870588235294118 .52941176
4705882 83 3 338 1 .870588235294118 .529411764705882 83 3 332 1 .870588235294118
 .529411764705882 83 3 326 1 .870588235294118 .529411764705882 15 324 583 0 106
 108 454 17 106 0 324 106 106 0 473 95 0 0 +17 473 0 307 473 473 0 106 95 0 0 -1
5 307 561 0 473 139 0 82 1 320 543293545 83 3 318 1 .870588235294118 .5294117647
05882 79 14 314 SWEntUnchanged15 149 476 0 302 145 474 17 303 0 475 303 303 0 30
2 301 0 0 -15 475 208 0 303 139 305 15 474 213 0 476 145 0 17 476 0 474 476 476
 0 300 299 0 0 -17 300 0 153 300 300 0 476 299 0 0 +15 153 477 0 300 148 477 15
 477 218 0 478 148 0 17 478 0 477 478 478 0 298 296 0 0 -17 298 0 157 298 298 0
 478 296 0 0 +15 157 478 0 298 152 479 15 479 223 0 480 152 0 17 480 0 479 480 4
80 0 295 293 0 0 -17 295 0 161 295 295 0 480 293 0 0 +15 161 479 0 295 156 481 1
5 481 228 0 482 156 0 17 482 0 481 482 482 0 292 290 0 0 -17 292 0 165 292 292 0
 482 290 0 0 +15 165 480 0 292 160 483 15 483 233 0 484 160 0 17 484 0 483 484 4
84 0 289 287 0 0 -17 289 0 485 289 289 0 484 287 0 0 +15 485 481 0 289 16 456 17
 286 0 172 286 286 0 486 284 0 0 +15 172 482 0 286 164 487 17 486 0 168 486 486
 0 286 284 0 0 -15 168 238 0 486 16 485 15 487 243 0 488 164 0 17 488 0 487 488
 488 0 283 281 0 0 -17 283 0 176 283 283 0 488 281 0 0 +15 176 483 0 283 171 489
 15 489 248 0 490 171 0 17 490 0 489 490 490 0 280 278 0 0 -17 280 0 180 280 280
 0 490 278 0 0 +15 180 484 0 280 175 491 15 491 253 0 492 175 0 17 492 0 491 492
 492 0 277 275 0 0 -17 277 0 184 277 277 0 492 275 0 0 +15 184 485 0 277 179 493
 15 493 258 0 494 179 0 17 494 0 493 494 494 0 274 272 0 0 -17 274 0 188 274 274
 0 494 272 0 0 +15 188 486 0 274 183 495 15 495 263 0 496 183 0 17 496 0 495 496
 496 0 271 269 0 0 -17 271 0 192 271 271 0 496 269 0 0 +15 192 487 0 271 187 497
 15 497 268 0 498 187 0 17 498 0 497 498 498 0 268 266 0 0 -17 268 0 196 268 268
 0 498 266 0 0 +15 196 488 0 268 191 499 15 499 273 0 500 191 0 17 500 0 499 500
 500 0 265 263 0 0 -17 265 0 200 265 265 0 500 263 0 0 +15 200 489 0 265 195 501
 15 501 278 0 502 195 0 17 502 0 501 502 502 0 262 260 0 0 -17 262 0 204 262 262
 0 502 260 0 0 +15 204 490 0 262 199 503 15 503 283 0 504 199 0 17 504 0 503 504
 504 0 259 257 0 0 -17 259 0 208 259 259 0 504 257 0 0 +15 208 491 0 259 203 505
 15 505 288 0 506 203 0 17 506 0 505 506 506 0 256 254 0 0 -17 256 0 212 256 256
 0 506 254 0 0 +15 212 492 0 256 207 507 15 507 293 0 508 207 0 17 508 0 507 508
 508 0 253 251 0 0 -17 253 0 216 253 253 0 508 251 0 0 +15 216 493 0 253 211 509
 15 509 298 0 510 211 0 17 510 0 509 510 510 0 250 248 0 0 -17 250 0 220 250 250
 0 510 248 0 0 +15 220 494 0 250 215 511 15 511 303 0 512 215 0 17 512 0 511 512
 512 0 247 243 0 0 -17 247 0 224 247 247 0 512 243 0 0 +15 224 495 0 247 219 513
 15 513 308 0 514 219 0 17 514 0 513 514 514 0 242 241 0 0 -17 242 0 227 242 242
 0 514 241 0 0 +15 227 496 0 242 223 515 15 515 313 0 237 223 0 17 237 0 515 237
 237 0 235 238 0 0 -15 234 498 0 240 18 516 15 516 321 0 39 18 0 17 39 0 516 39
 39 33 0 0 0 0 ?82 1 233 542965865 15 144 608 0 517 139 475 17 517 0 144 517 517
 0 134 127 0 0 -17 134 0 123 134 134 0 517 127 0 0 +15 123 624 0 134 118 472 141
 110 97 110 110 101 16 30 1033 0 ?29 61 0 77 0 0 1 30 72 1114 0 61 0 77 0 +-.046
5 -.02981 .0425 1 0 0 17 29 0 65 54 31 50 25 30 0 63 +17 63 0 62 69 23 50 54 70
 0 0 +17 28 0 27 25 25 50 69 24 0 29 -19 17 187 0 1 0 9 5 S0 74 4 CI16 index_map
_offset0 0 1 dCCZ20 15 9 0 0 369 518 519 520 521 522 13 367 2 0 0 0 0 0 0 0 0 0
 0 0 81 2 518 638 523 1 0 519 0 0 0 524 81 2 519 640 525 1 518 520 0 0 0 526 81
 1 520 1172 527 1 519 521 0 0 528 81 2 521 1211 529 1 520 522 0 0 530 0 81 2 522
 1330 531 1 521 13 0 0 0 532 81 2 13 1415 533 1 522 2 0 0 0 0 80 2 533 534 535 9
000 0 0 0 0 3 5 0 0 0 FFTFFFFFFFFFFF9 1 79 16 535 BODY_RECIPE_200180 2 531 536 5
37 9000 0 0 0 0 3 5 0 0 0 FFTFFFFFFFFFFF9 1 82 1 532 1 79 24 537 BODY_IN_LIGHTWE
IGHT_PERM80 2 529 538 539 8004 0 0 0 0 3 5 0 0 0 FFTFFFFFFFFFFF2 3 83 1 530 1 79
 16 539 SDL/TYSA_DENSITY80 1 527 540 541 9000 1 1 1 1 1 1 1 1 0 FFTFFFFFFFFFFF1
 82 1 528 2039481 79 10 541 BODY_MATCH80 2 525 542 543 9000 0 0 0 0 3 5 0 0 0 FF
TFFFFFFFFFFF9 1 82 1 526 120 79 30 543 LAST_BODY_MODIFYING_FEATURE_ID80 2 523 54
4 545 9000 0 0 0 0 3 5 0 0 0 FFTFFFFFFFFFFF9 1 82 1 524 113 79 19 545 ENT_TIME_S
TAMP_200180 2 12 546 547 9000 0 0 0 0 3 5 0 0 0 FFTFFFFFFFFFFF9 1 82 1 14 106 79
 12 547 ATOM_ID_20011 0 
