**ABCDEFGHIJKLMNOPQRSTUVWXYZabcdefghijklmnopqrstuvwxyz**************************
**PARASOLID !"#$%&'()*+,-./:;<=>?@[\]^_`{|}~0123456789**************************
**PART1;
MC=AMD64;
MC_MODEL=Intel64 Family 6 Model 142 Stepping 12, GenuineIntel;
MC_ID=unknown;
OS=Windows_NT;
OS_RELEASE=unknown;
FRU=Parasolid Version 33.1, build 247,  8- 6-2021;
APPL=SOLIDWORKS 2022-2022009;
SITE=;
USER=unknown;
FORMAT=text;
GUISE=transmit;
KEY=FILE1. Input Shaft.x_t;
DATE=Thu Jun 15 05:41:31 2023;
**PART2;
SCH=SCH_3301247_33103;
USFLD_SIZE=0;
**PART3;
**END_OF_HEADER*****************************************************************
T51 : TRANSMIT FILE created by modeller version 330124723 SCH_3301247_33103_1300
6230 0 12 35 CCCI7 lattice222 0 CCCI4 mesh1006 0 I8 polyline1008 0 CCCCCCCDI5 ow
ner1040 0 CCCCCCI13 boundary_mesh1006 0 I17 boundary_polyline1008 0 CCCA16 index
_map_offset0 0 1 dA9 index_map82 0 A17 node_id_index_map82 0 A20 schema_embeddin
g_map82 0 A5 child12 0 A14 lowest_node_id0 0 1 dA16 mesh_offset_data206 0 Z1 280
8 2 3 0 0 0 0 0 0 0 1e3 1e-8 0 4 0 1 0 1 1 5 6 7 8 0 0 9 10 11 0 0 0 0 0 0 0 81
 255 2 2 2759 12 1 13 0 0 0 0 14 70 11 CI9 list_type0 0 1 uI10 notransmit0 0 1 l
CCCDCCDI12 finger_index0 0 1 dI12 finger_block1012 0 CZ3 0 4 T1 0 0 10 20 1 15 1
5 13 255 5 31 0 1 0 16 0 0 17 0 52 255 6 2304 18 19 20 0 0 +0 0 .000500000000000
007 0 0 1 .004 .70710678118655 .707106781186545 1 0 0 31 255 7 2288 0 10 21 0 0
 -0 0 0 0 0 1 1 0 0 .0035 29 255 8 1998 0 11 22 0 .002101814001577105 .003403289
27697521 .04 19 8 CCCCCCCA5 owner12 0 Z9 9 0 1 17 0 23 V0 16 255 10 2285 0 ?24 0
 25 7 0 0 1 18 255 11 1996 0 26 0 27 8 ?1 17 255 26 0 28 29 30 11 31 32 0 33 +18
 27 1800 0 34 11 35 22 ?1 17 34 0 28 36 37 27 38 39 0 40 +18 35 1605 0 41 27 42
 43 ?1 29 22 1802 0 27 43 8 .003700806492582235 .001517903588658115 .04 29 43 16
07 0 35 44 22 .00388621668920723 -.000947269678880943 .04 29 44 1413 0 42 45 43
 .002587224198202145 -.003050618125599675 .04 18 42 1411 0 46 35 47 44 ?1 29 45
 1220 0 47 48 44 3e-4 -.003988734135035825 .04 18 47 1218 0 49 42 50 45 ?1 29 48
 1028 0 50 51 45 -.00210181400157713 -.003403289276975195 .04 18 50 1026 0 52 47
 53 48 ?1 29 51 837 0 53 54 48 -.003700806492582245 -.00151790358865809 .04 18 5
3 835 0 55 50 56 51 ?1 29 54 647 0 56 57 51 -.003886216689207225 .00094726967888
097 .04 18 56 645 0 58 53 59 54 ?1 29 57 458 0 59 60 54 -.00258722419820212 .003
050618125599695 .04 18 59 456 0 61 56 62 57 ?1 29 60 254 0 62 63 57 -3e-4 .00398
8734135035825 .04 18 62 252 0 64 59 65 60 ?1 29 63 79 0 65 66 60 -.0015 -.003708
099243547835 .009 18 65 77 0 67 62 68 63 ?1 29 66 214 0 68 69 63 .0015 -.0037080
9924354783 .005 18 68 134 0 70 65 71 66 ?1 29 69 215 0 71 72 66 .0015 -.00370809
924354783 .009 18 71 143 0 73 68 74 69 ?1 29 72 217 0 74 75 69 -.0015 -.00370809
9243547835 .005 18 74 132 0 76 71 77 72 ?1 29 75 220 0 77 78 72 .0015 -.0025 .00
5 18 77 136 0 79 74 80 75 ?1 29 78 221 0 80 81 75 .0015 -.0025 .009 18 80 138 0
 82 77 83 78 ?1 29 81 222 0 83 84 78 -.0015 -.0025 .009 18 83 141 0 85 80 86 81
 ?1 29 84 223 0 86 87 81 -.0015 -.0025 .005 18 86 133 0 88 83 89 84 ?1 29 87 396
 0 89 90 84 3e-4 .003988734135035825 .03 18 89 325 0 91 86 92 87 ?1 29 90 397 0
 92 93 87 3e-4 .003988734135035825 .04 18 92 335 0 29 89 94 90 ?1 29 93 398 0 94
 95 90 -3e-4 .003988734135035825 .03 18 94 334 0 96 92 97 93 ?1 29 95 402 0 98 9
9 93 -3e-4 .0045 .04 18 98 333 0 100 101 102 95 ?1 29 99 403 0 102 103 95 3e-4 .
0045 .04 18 102 336 0 104 98 105 99 ?1 29 103 406 0 97 106 99 -3e-4 .0045 .03 18
 97 329 0 107 94 101 103 ?1 29 106 407 0 101 108 103 3e-4 .0045 .03 18 101 328 0
 109 97 98 106 ?1 29 108 601 0 105 110 106 -.002101814001577155 .003403289276975
18 .03 18 105 530 0 111 102 112 108 ?1 29 110 602 0 112 113 108 -.00210181400157
7155 .00340328927697518 .04 18 112 540 0 114 105 115 110 ?1 29 113 603 0 115 116
 110 -.00258722419820212 .003050618125599695 .03 18 115 539 0 117 112 118 113 ?1
 29 116 607 0 119 120 113 -.00288773873362862 .00346424089899952 .04 18 119 538
 0 121 122 123 116 ?1 29 120 608 0 123 124 116 -.00240232853700365 .003816912050
375005 .04 18 123 541 0 125 119 126 120 ?1 29 124 611 0 118 127 120 -.0028877387
3362862 .00346424089899952 .03 18 118 534 0 128 115 122 124 ?1 29 127 612 0 122
 129 124 -.00240232853700365 .003816912050375005 .03 18 122 533 0 130 118 119 12
7 ?1 29 129 791 0 126 131 127 -.003700806492582255 .001517903588658065 .03 18 12
6 720 0 132 123 133 129 ?1 29 131 792 0 133 134 129 -.003700806492582255 .001517
903588658065 .04 18 133 730 0 135 126 136 131 ?1 29 134 793 0 136 137 131 -.0038
86216689207225 .00094726967888097 .03 18 136 729 0 138 133 139 134 ?1 29 137 797
 0 140 141 134 -.00437245942164068 .001105259519798704 .04 18 140 728 0 142 143
 144 137 ?1 29 141 798 0 144 145 137 -.00418704922501571 .0016758934295758 .04 1
8 144 731 0 146 140 147 141 ?1 29 145 801 0 139 148 141 -.00437245942164068 .001
105259519798704 .03 18 139 724 0 149 136 143 145 ?1 29 148 802 0 143 150 145 -.0
0418704922501571 .0016758934295758 .03 18 143 723 0 151 139 140 148 ?1 29 150 98
2 0 147 152 148 -.003886216689207215 -.000947269678880998 .03 18 147 911 0 153 1
44 154 150 ?1 29 152 983 0 154 155 150 -.003886216689207215 -.000947269678880998
 .04 18 154 921 0 156 147 157 152 ?1 29 155 984 0 157 158 152 -.0037008064925822
45 -.00151790358865809 .03 18 157 920 0 159 154 160 155 ?1 29 158 988 0 161 162
 155 -.0041870492250157 -.00167589342957583 .04 18 161 919 0 163 164 165 158 ?1
 29 162 989 0 165 166 158 -.00437245942164067 -.001105259519798736 .04 18 165 92
2 0 167 161 168 162 ?1 29 166 992 0 160 169 162 -.0041870492250157 -.00167589342
957583 .03 18 160 915 0 170 157 164 166 ?1 29 169 993 0 164 171 166 -.0043724594
2164067 -.001105259519798736 .03 18 164 914 0 172 160 161 169 ?1 29 171 1174 0 1
68 173 169 -.0025872241982021 -.003050618125599715 .03 18 168 1103 0 174 165 175
 171 ?1 29 173 1175 0 175 176 171 -.0025872241982021 -.003050618125599715 .04 18
 175 1113 0 177 168 178 173 ?1 29 176 1176 0 178 179 173 -.00210181400157713 -.0
03403289276975195 .03 18 178 1112 0 180 175 181 176 ?1 29 179 1180 0 182 183 176
 -.002402328537003625 -.00381691205037502 .04 18 182 1111 0 184 185 186 179 ?1 2
9 183 1181 0 186 187 179 -.002887738733628595 -.00346424089899954 .04 18 186 111
4 0 188 182 189 183 ?1 29 187 1184 0 181 190 183 -.002402328537003625 -.00381691
205037502 .03 18 181 1107 0 191 178 185 187 ?1 29 190 1185 0 185 192 187 -.00288
7738733628595 -.00346424089899954 .03 18 185 1106 0 193 181 182 190 ?1 29 192 13
67 0 189 194 190 -3e-4 -.003988734135035825 .03 18 189 1296 0 195 186 196 192 ?1
 29 194 1368 0 196 197 192 -3e-4 -.003988734135035825 .04 18 196 1306 0 198 189
 199 194 ?1 29 197 1369 0 199 200 194 3e-4 -.003988734135035825 .03 18 199 1305
 0 201 196 202 197 ?1 29 200 1373 0 203 204 197 3e-4 -.0045 .04 18 203 1304 0 20
5 206 207 200 ?1 29 204 1374 0 207 208 200 -3e-4 -.0045 .04 18 207 1307 0 209 20
3 210 204 ?1 29 208 1377 0 202 211 204 3e-4 -.0045 .03 18 202 1300 0 212 199 206
 208 ?1 29 211 1378 0 206 213 208 -3e-4 -.0045 .03 18 206 1299 0 214 202 203 211
 ?1 29 213 1561 0 210 215 211 .00210181400157718 -.003403289276975165 .03 18 210
 1490 0 216 207 217 213 ?1 29 215 1562 0 217 218 213 .00210181400157718 -.003403
289276975165 .04 18 217 1500 0 219 210 220 215 ?1 29 218 1563 0 220 221 215 .002
587224198202145 -.003050618125599675 .03 18 220 1499 0 222 217 223 218 ?1 29 221
 1567 0 224 225 218 .002887738733628645 -.003464240898999495 .04 18 224 1498 0 2
26 227 228 221 ?1 29 225 1568 0 228 229 221 .00240232853700368 -.003816912050374
985 .04 18 228 1501 0 230 224 231 225 ?1 29 229 1571 0 223 232 225 .002887738733
628645 -.003464240898999495 .03 18 223 1494 0 233 220 227 229 ?1 29 232 1572 0 2
27 234 229 .00240232853700368 -.003816912050374985 .03 18 227 1493 0 235 223 224
 232 ?1 29 234 1756 0 231 236 232 .003700806492582265 -.00151790358865804 .03 18
 231 1685 0 237 228 238 234 ?1 29 236 1757 0 238 239 234 .003700806492582265 -.0
0151790358865804 .04 18 238 1695 0 240 231 241 236 ?1 29 239 1758 0 241 242 236
 .00388621668920723 -.000947269678880943 .03 18 241 1694 0 243 238 244 239 ?1 29
 242 1762 0 245 246 239 .004372459421640685 -.001105259519798674 .04 18 245 1693
 0 247 248 249 242 ?1 29 246 1763 0 249 250 242 .00418704922501572 -.00167589342
957577 .04 18 249 1696 0 251 245 252 246 ?1 29 250 1766 0 244 253 246 .004372459
421640685 -.001105259519798674 .03 18 244 1689 0 254 241 248 250 ?1 29 253 1767
 0 248 255 250 .00418704922501572 -.00167589342957577 .03 18 248 1688 0 256 244
 245 253 ?1 29 255 1952 0 252 257 253 .00388621668920721 .000947269678881024 .03
 18 252 1881 0 258 249 259 255 ?1 29 257 1953 0 259 260 255 .00388621668920721 .
000947269678881024 .04 18 259 1891 0 261 252 262 257 ?1 29 260 1954 0 262 263 25
7 .003700806492582235 .001517903588658115 .03 18 262 1890 0 264 259 265 260 ?1 2
9 263 1958 0 266 267 260 .00418704922501569 .001675893429575855 .04 18 266 1889
 0 268 269 270 263 ?1 29 267 1959 0 270 271 263 .004372459421640665 .00110525951
9798766 .04 18 270 1892 0 272 266 273 267 ?1 29 271 1962 0 265 274 267 .00418704
922501569 .001675893429575855 .03 18 265 1885 0 275 262 269 271 ?1 29 274 1963 0
 269 276 271 .004372459421640665 .001105259519798766 .03 18 269 1884 0 277 265 2
66 274 ?1 29 276 2149 0 273 278 274 .002587224198202075 .00305061812559973 .03 1
8 273 2078 0 279 270 280 276 ?1 29 278 2150 0 280 281 276 .002587224198202075 .0
0305061812559973 .04 18 280 2088 0 282 273 283 278 ?1 29 281 2151 0 283 284 278
 .002101814001577105 .00340328927697521 .03 18 283 2087 0 285 280 286 281 ?1 29
 284 2155 0 287 288 281 .002402328537003595 .003816912050375035 .04 18 287 2086
 0 289 290 291 284 ?1 29 288 2156 0 291 292 284 .002887738733628565 .00346424089
899956 .04 18 291 2089 0 293 287 0 288 ?1 29 292 2159 0 286 294 288 .00240232853
7003595 .003816912050375035 .03 18 286 2082 0 295 283 290 292 ?1 29 294 2160 0 2
90 0 292 .002887738733628565 .00346424089899956 .03 18 290 2081 0 296 286 287 29
4 ?1 17 296 0 297 298 279 290 299 300 0 301 +15 255 297 2099 0 279 302 0 17 298
 0 297 282 296 291 301 303 0 304 +17 279 0 297 296 282 273 305 306 0 299 -17 299
 0 307 285 308 273 296 300 0 309 -16 300 2044 0 ?296 310 32 311 0 0 1 17 301 0 3
12 313 304 290 298 303 0 308 -15 312 2119 0 304 314 0 17 313 0 312 289 301 286 3
08 310 0 0 +17 304 0 312 301 289 291 30 315 0 0 -16 303 2047 0 ?298 316 317 318
 0 0 1 17 308 0 307 299 319 290 313 310 0 0 -15 307 2122 0 299 320 0 17 319 0 30
7 308 285 286 321 317 0 313 -16 310 2064 0 ?313 317 300 322 0 0 1 16 317 2048 0
 ?321 303 310 323 0 0 1 30 255 322 2147 0 310 311 323 0 +.002402328537003595 .00
3816912050375035 .03 -.809016994374955 .587785252292463 0 30 311 2148 0 300 0 32
2 0 +.002887738733628565 .00346424089899956 .03 .587785252292462 .80901699437495
5 0 30 323 2146 0 317 322 324 0 +.002402328537003595 .003816912050375035 .03 -.5
87785252292462 -.809016994374955 0 30 324 2144 0 325 323 326 0 +.002887738733628
565 .00346424089899956 .04 .587785252292462 .809016994374955 0 16 325 2069 0 ?29
3 315 0 324 0 0 1 30 326 2143 0 315 324 327 0 +.002402328537003595 .003816912050
375035 .04 -.809016994374955 .587785252292463 0 16 315 2072 0 ?30 32 325 326 0 0
 1 30 327 2142 0 32 326 328 0 +.002402328537003595 .003816912050375035 .04 -.587
785252292462 -.809016994374955 0 16 32 2075 0 ?26 300 315 327 0 0 1 30 328 2138
 0 316 327 318 0 +.002402328537003595 .003816912050375035 .03 0 0 1 16 316 2067
 0 ?289 329 303 328 0 0 1 30 318 2137 0 303 328 330 0 +.002887738733628565 .0034
6424089899956 .03 0 0 1 30 330 2136 0 329 318 331 0 +.002101814001577105 .003403
28927697521 .04 0 0 -1 16 329 2059 0 ?332 306 316 330 0 0 1 30 331 2135 0 306 33
0 333 0 -.002587224198202075 .00305061812559973 .04 0 0 -1 16 306 2054 0 ?305 33
4 329 331 0 0 1 30 333 1951 0 335 331 336 0 +.004372459421640665 .00110525951979
8766 .03 .95105651629515 .3090169943749585 0 16 335 1847 0 ?277 337 39 333 0 0 1
 30 336 1950 0 337 333 338 0 +.00418704922501569 .001675893429575855 .03 -.30901
6994374958 .95105651629515 0 16 337 1867 0 ?339 340 335 336 0 0 1 30 338 1949 0
 340 336 341 0 +.00418704922501569 .001675893429575855 .03 -.95105651629515 -.30
90169943749585 0 16 340 1851 0 ?342 343 337 338 0 0 1 30 341 1947 0 334 338 344
 0 +.004372459421640665 .001105259519798766 .04 .95105651629515 .309016994374958
5 0 16 334 1872 0 ?272 345 306 341 0 0 1 30 344 1946 0 345 341 346 0 +.004187049
22501569 .001675893429575855 .04 -.309016994374958 .95105651629515 0 16 345 1875
 0 ?37 39 334 344 0 0 1 30 346 1945 0 39 344 347 0 +.00418704922501569 .00167589
3429575855 .04 -.95105651629515 -.3090169943749585 0 16 39 1878 0 ?34 335 345 34
6 0 0 1 30 347 1941 0 348 346 349 0 +.00418704922501569 .001675893429575855 .03
 0 0 1 16 348 1870 0 ?268 350 343 347 0 0 1 30 349 1940 0 343 347 351 0 +.004372
459421640665 .001105259519798766 .03 0 0 1 16 343 1850 0 ?352 348 340 349 0 0 1
 30 351 1939 0 350 349 353 0 +.003700806492582235 .001517903588658115 .04 0 0 -1
 16 350 1862 0 ?354 355 348 351 0 0 1 30 353 1938 0 355 351 356 0 -.003886216689
20721 .000947269678881024 .04 0 0 -1 16 355 1857 0 ?357 358 350 353 0 0 1 30 356
 1755 0 359 353 360 0 +.00418704922501572 -.00167589342957577 .03 .9510565162951
57 -.309016994374938 0 16 359 1651 0 ?256 361 362 356 0 0 1 30 360 1754 0 361 35
6 363 0 +.004372459421640685 -.001105259519798674 .03 .3090169943749385 .9510565
16295157 0 16 361 1671 0 ?364 365 359 360 0 0 1 30 363 1753 0 365 360 366 0 +.00
4372459421640685 -.001105259519798674 .03 -.951056516295157 .309016994374938 0 1
6 365 1655 0 ?367 368 361 363 0 0 1 30 366 1751 0 358 363 369 0 +.00418704922501
572 -.00167589342957577 .04 .951056516295157 -.309016994374938 0 16 358 1676 0 ?
251 370 355 366 0 0 1 30 369 1750 0 370 366 371 0 +.004372459421640685 -.0011052
59519798674 .04 .3090169943749385 .951056516295157 0 16 370 1679 0 ?372 362 358
 369 0 0 1 30 371 1749 0 362 369 373 0 +.004372459421640685 -.001105259519798674
 .04 -.951056516295157 .309016994374938 0 16 362 1682 0 ?41 359 370 371 0 0 1 30
 373 1745 0 374 371 375 0 +.004372459421640685 -.001105259519798674 .03 0 0 1 16
 374 1674 0 ?247 376 368 373 0 0 1 30 375 1744 0 368 373 377 0 +.004187049225015
72 -.00167589342957577 .03 0 0 1 16 368 1654 0 ?378 374 365 375 0 0 1 30 377 174
3 0 376 375 379 0 +.00388621668920723 -.000947269678880943 .04 0 0 -1 16 376 166
6 0 ?380 381 374 377 0 0 1 30 379 1742 0 381 377 382 0 -.003700806492582265 -.00
1517903588658035 .04 0 0 -1 16 381 1661 0 ?383 384 376 379 0 0 1 30 382 1560 0 3
85 379 386 0 +.00240232853700368 -.003816912050374985 .03 .587785252292481 -.809
016994374942 0 16 385 1456 0 ?235 387 388 382 0 0 1 30 386 1559 0 387 382 389 0
 +.002887738733628645 -.003464240898999495 .03 .809016994374942 .58778525229248
 0 16 387 1476 0 ?390 391 385 386 0 0 1 30 389 1558 0 391 386 392 0 +.0028877387
33628645 -.003464240898999495 .03 -.58778525229248 .809016994374942 0 16 391 146
0 0 ?393 394 387 389 0 0 1 30 392 1556 0 384 389 395 0 +.00240232853700368 -.003
816912050374985 .04 .587785252292481 -.809016994374942 0 16 384 1481 0 ?230 396
 381 392 0 0 1 30 395 1555 0 396 392 397 0 +.002887738733628645 -.00346424089899
9495 .04 .809016994374942 .58778525229248 0 16 396 1484 0 ?398 388 384 395 0 0 1
 30 397 1554 0 388 395 399 0 +.002887738733628645 -.003464240898999495 .04 -.587
78525229248 .809016994374942 0 16 388 1487 0 ?46 385 396 397 0 0 1 30 399 1550 0
 400 397 401 0 +.002887738733628645 -.003464240898999495 .03 0 0 1 16 400 1479 0
 ?226 402 394 399 0 0 1 30 401 1549 0 394 399 403 0 +.00240232853700368 -.003816
912050374985 .03 0 0 1 16 394 1459 0 ?404 400 391 401 0 0 1 30 403 1548 0 402 40
1 405 0 +.002587224198202145 -.003050618125599675 .04 0 0 -1 16 402 1471 0 ?406
 407 400 403 0 0 1 30 405 1547 0 407 403 408 0 -.00210181400157718 -.00340328927
6975165 .04 0 0 -1 16 407 1466 0 ?409 410 402 405 0 0 1 30 408 1366 0 411 405 41
2 0 +-3e-4 -.0045 .03 2542740851713535e-31 -1 0 16 411 1262 0 ?214 413 414 408 0
 0 1 30 412 1365 0 413 408 415 0 +3e-4 -.0045 .03 1 0 0 16 413 1282 0 ?416 417 4
11 412 0 0 1 30 415 1364 0 417 412 418 0 +3e-4 -.0045 .03 -1271370425856766e-31
 1 0 16 417 1266 0 ?419 420 413 415 0 0 1 30 418 1362 0 410 415 421 0 +-3e-4 -.0
045 .04 2542740851713535e-31 -1 0 16 410 1287 0 ?209 422 407 418 0 0 1 30 421 13
61 0 422 418 423 0 +3e-4 -.0045 .04 1 0 0 16 422 1290 0 ?424 414 410 421 0 0 1 3
0 423 1360 0 414 421 425 0 +3e-4 -.0045 .04 -1271370425856766e-31 1 0 16 414 129
3 0 ?49 411 422 423 0 0 1 30 425 1356 0 426 423 427 0 +3e-4 -.0045 .03 0 0 1 16
 426 1285 0 ?205 428 420 425 0 0 1 30 427 1355 0 420 425 429 0 +-3e-4 -.0045 .03
 0 0 1 16 420 1265 0 ?430 426 417 427 0 0 1 30 429 1354 0 428 427 431 0 +3e-4 -.
003988734135035825 .04 0 0 -1 16 428 1277 0 ?432 433 426 429 0 0 1 30 431 1353 0
 433 429 434 0 --3e-4 -.003988734135035825 .04 0 0 -1 16 433 1272 0 ?435 436 428
 431 0 0 1 30 434 1173 0 437 431 438 0 +-.002887738733628595 -.00346424089899954
 .03 -.587785252292468 -.809016994374951 0 16 437 1069 0 ?193 439 440 434 0 0 1
 30 438 1172 0 439 434 441 0 +-.002402328537003625 -.00381691205037502 .03 .8090
16994374951 -.587785252292469 0 16 439 1089 0 ?442 443 437 438 0 0 1 30 441 1171
 0 443 438 444 0 +-.002402328537003625 -.00381691205037502 .03 .587785252292469
 .809016994374951 0 16 443 1073 0 ?445 446 439 441 0 0 1 30 444 1169 0 436 441 4
47 0 +-.002887738733628595 -.00346424089899954 .04 -.587785252292468 -.809016994
374951 0 16 436 1094 0 ?188 448 433 444 0 0 1 30 447 1168 0 448 444 449 0 +-.002
402328537003625 -.00381691205037502 .04 .809016994374951 -.587785252292469 0 16
 448 1097 0 ?450 440 436 447 0 0 1 30 449 1167 0 440 447 451 0 +-.00240232853700
3625 -.00381691205037502 .04 .587785252292469 .809016994374951 0 16 440 1100 0 ?
52 437 448 449 0 0 1 30 451 1163 0 452 449 453 0 +-.002402328537003625 -.0038169
1205037502 .03 0 0 1 16 452 1092 0 ?184 454 446 451 0 0 1 30 453 1162 0 446 451
 455 0 +-.002887738733628595 -.00346424089899954 .03 0 0 1 16 446 1072 0 ?456 45
2 443 453 0 0 1 30 455 1161 0 454 453 457 0 +-.00210181400157713 -.0034032892769
75195 .04 0 0 -1 16 454 1084 0 ?458 459 452 455 0 0 1 30 457 1160 0 459 455 460
 0 --.0025872241982021 -.003050618125599715 .04 0 0 -1 16 459 1079 0 ?461 462 45
4 457 0 0 1 30 460 981 0 463 457 464 0 +-.00437245942164067 -.001105259519798736
 .03 -.951056516295152 -.309016994374952 0 16 463 877 0 ?172 465 466 460 0 0 1 3
0 464 980 0 465 460 467 0 +-.0041870492250157 -.00167589342957583 .03 .309016994
3749515 -.951056516295152 0 16 465 897 0 ?468 469 463 464 0 0 1 30 467 979 0 469
 464 470 0 +-.0041870492250157 -.00167589342957583 .03 .951056516295152 .3090169
94374952 0 16 469 881 0 ?471 472 465 467 0 0 1 30 470 977 0 462 467 473 0 +-.004
37245942164067 -.001105259519798736 .04 -.951056516295152 -.309016994374952 0 16
 462 902 0 ?167 474 459 470 0 0 1 30 473 976 0 474 470 475 0 +-.0041870492250157
 -.00167589342957583 .04 .3090169943749515 -.951056516295152 0 16 474 905 0 ?476
 466 462 473 0 0 1 30 475 975 0 466 473 477 0 +-.0041870492250157 -.001675893429
57583 .04 .951056516295152 .309016994374952 0 16 466 908 0 ?55 463 474 475 0 0 1
 30 477 971 0 478 475 479 0 +-.0041870492250157 -.00167589342957583 .03 0 0 1 16
 478 900 0 ?163 480 472 477 0 0 1 30 479 970 0 472 477 481 0 +-.0043724594216406
7 -.001105259519798736 .03 0 0 1 16 472 880 0 ?482 478 469 479 0 0 1 30 481 969
 0 480 479 483 0 +-.003700806492582245 -.00151790358865809 .04 0 0 -1 16 480 892
 0 ?484 485 478 481 0 0 1 30 483 968 0 485 481 486 0 --.003886216689207215 -.000
947269678880998 .04 0 0 -1 16 485 887 0 ?487 488 480 483 0 0 1 30 486 790 0 489
 483 490 0 +-.00418704922501571 .0016758934295758 .03 -.951056516295155 .3090169
943749445 0 16 489 686 0 ?151 491 492 486 0 0 1 30 490 789 0 491 486 493 0 +-.00
437245942164068 .001105259519798704 .03 -.309016994374945 -.951056516295155 0 16
 491 706 0 ?494 495 489 490 0 0 1 30 493 788 0 495 490 496 0 +-.0043724594216406
8 .001105259519798704 .03 .951056516295155 -.3090169943749445 0 16 495 690 0 ?49
7 498 491 493 0 0 1 30 496 786 0 488 493 499 0 +-.00418704922501571 .00167589342
95758 .04 -.951056516295155 .3090169943749445 0 16 488 711 0 ?146 500 485 496 0
 0 1 30 499 785 0 500 496 501 0 +-.00437245942164068 .001105259519798704 .04 -.3
09016994374945 -.951056516295155 0 16 500 714 0 ?502 492 488 499 0 0 1 30 501 78
4 0 492 499 503 0 +-.00437245942164068 .001105259519798704 .04 .951056516295155
 -.3090169943749445 0 16 492 717 0 ?58 489 500 501 0 0 1 30 503 780 0 504 501 50
5 0 +-.00437245942164068 .001105259519798704 .03 0 0 1 16 504 709 0 ?142 506 498
 503 0 0 1 30 505 779 0 498 503 507 0 +-.00418704922501571 .0016758934295758 .03
 0 0 1 16 498 689 0 ?508 504 495 505 0 0 1 30 507 778 0 506 505 509 0 +-.0038862
16689207225 .00094726967888097 .04 0 0 -1 16 506 701 0 ?510 511 504 507 0 0 1 30
 509 777 0 511 507 512 0 --.003700806492582255 .00151790358865806 .04 0 0 -1 16
 511 696 0 ?513 514 506 509 0 0 1 30 512 600 0 515 509 516 0 +-.0024023285370036
5 .003816912050375005 .03 -.587785252292475 .809016994374947 0 16 515 496 0 ?130
 517 518 512 0 0 1 30 516 599 0 517 512 519 0 +-.00288773873362862 .003464240898
99952 .03 -.809016994374947 -.587785252292474 0 16 517 516 0 ?520 521 515 516 0
 0 1 30 519 598 0 521 516 522 0 +-.00288773873362862 .00346424089899952 .03 .587
785252292475 -.809016994374947 0 16 521 500 0 ?523 524 517 519 0 0 1 30 522 596
 0 514 519 525 0 +-.00240232853700365 .003816912050375005 .04 -.587785252292475
 .809016994374947 0 16 514 521 0 ?125 526 511 522 0 0 1 30 525 595 0 526 522 527
 0 +-.00288773873362862 .00346424089899952 .04 -.809016994374947 -.5877852522924
74 0 16 526 524 0 ?528 518 514 525 0 0 1 30 527 594 0 518 525 529 0 +-.002887738
73362862 .00346424089899952 .04 .587785252292475 -.809016994374947 0 16 518 527
 0 ?61 515 526 527 0 0 1 30 529 590 0 530 527 531 0 +-.00288773873362862 .003464
24089899952 .03 0 0 1 16 530 519 0 ?121 532 524 529 0 0 1 30 531 589 0 524 529 5
33 0 +-.00240232853700365 .003816912050375005 .03 0 0 1 16 524 499 0 ?534 530 52
1 531 0 0 1 30 533 588 0 532 531 535 0 +-.00258722419820212 .003050618125599695
 .04 0 0 -1 16 532 511 0 ?536 537 530 533 0 0 1 30 535 587 0 537 533 538 0 --.00
2101814001577155 .00340328927697518 .04 0 0 -1 16 537 506 0 ?539 540 532 535 0 0
 1 30 538 395 0 541 535 542 0 +3e-4 .0045 .03 -2542740851713535e-31 1 0 16 541 2
91 0 ?109 543 544 538 0 0 1 30 542 394 0 543 538 545 0 +-3e-4 .0045 .03 -1 0 0 1
6 543 311 0 ?546 547 541 542 0 0 1 30 545 393 0 547 542 548 0 +-3e-4 .0045 .03 1
271370425856766e-31 -1 0 16 547 295 0 ?549 550 543 545 0 0 1 30 548 391 0 540 54
5 551 0 +3e-4 .0045 .04 -2542740851713535e-31 1 0 16 540 316 0 ?104 552 537 548
 0 0 1 30 551 390 0 552 548 553 0 +-3e-4 .0045 .04 -1 0 0 16 552 319 0 ?554 544
 540 551 0 0 1 30 553 389 0 544 551 555 0 +-3e-4 .0045 .04 1271370425856766e-31
 -1 0 16 544 322 0 ?64 541 552 553 0 0 1 30 555 385 0 556 553 557 0 +-3e-4 .0045
 .03 0 0 1 16 556 314 0 ?100 558 550 555 0 0 1 30 557 384 0 550 555 559 0 +3e-4
 .0045 .03 0 0 1 16 550 294 0 ?560 556 547 557 0 0 1 30 559 383 0 558 557 561 0
 +-3e-4 .003988734135035825 .04 0 0 -1 16 558 306 0 ?562 563 556 559 0 0 1 30 56
1 382 0 563 559 564 0 -3e-4 .003988734135035825 .04 0 0 -1 16 563 301 0 ?565 566
 558 561 0 0 1 31 564 209 0 566 561 567 0 +612323399573677e-33 -.0025 .005 0 1 0
 0 0 1 .0015 16 566 119 0 ?568 569 563 564 0 0 1 30 567 208 0 569 564 570 0 +-.0
015 -.0025 .005 271050543121376e-30 0 1 16 569 122 0 ?571 572 566 567 0 0 1 31 5
70 207 0 572 567 573 0 +1102182119232618e-33 -.0025 .009 0 1 0 0 0 1 .0015 16 57
2 125 0 ?574 575 569 570 0 0 1 30 573 206 0 575 570 576 0 +.0015 -.0025 .005 -54
2101086242752e-31 0 -1 16 575 128 0 ?577 578 572 573 0 0 1 30 576 205 0 579 573
 580 0 +.0015 -.004 .005 0 1 0 16 579 93 0 ?79 581 582 576 0 0 1 30 580 204 0 58
2 576 583 0 +.0015 -.004 .009 0 1 0 16 582 96 0 ?82 579 584 580 0 0 1 30 583 203
 0 584 580 585 0 +-.0015 -.004 .009 0 1 0 16 584 101 0 ?85 582 578 583 0 0 1 30
 585 202 0 578 583 586 0 +-.0015 -.004 .005 0 1 0 16 578 88 0 ?88 584 575 585 0
 0 1 31 586 7 0 587 585 588 0 +0 0 .04 0 0 1 1 0 0 .004 16 587 253 0 ?589 590 59
1 586 581 591 1 38 12 CCCCCCCCCCCA17 intersection_data204 0 Z588 64 0 590 586 59
2 0 +20 593 594 595 596 597 16 590 62 0 ?598 599 587 588 0 0 1 30 592 68 0 599 5
88 600 0 +.0015 -.00370809924354783 .04 0 0 -1 51 255 20 30 0 16 601 6 602 -0 0
 .04 0 0 -1 .004 -1 0 0 51 593 198 0 603 604 605 606 +1102182119232618e-33 -.004
 .009 0 1 0 .0015 0 0 1 40 255 11 594 0 1 11 938566144516962e-19 .35805771825048
35 ??-.0015 -.00370809924354783 .009 -.001422365437191382 -.00373856611056744 .0
0947631561289062 -.001201179856355294 -.00381538555754019 .00989842470618649 -.0
00842842287761842 -.003910193969352465 .0102408129907284 -.000372124577189506 -.
003982652796698645 .01045310815118886 .0001246442100971842 -.003998057505950765
 .010494812302896 .000583445776992456 -.003957220113325725 .0103818795263371 .00
0985954876644894 -.003876582642124395 .01013043928683506 .001303067377502024 -.0
0378180055128374 .00974297739514066 .0014778202154175 -.0037169944055518 .009256
99690835374 .0015 -.00370809924354783 .009 41 3 CI8 term_use0 0 1 cCZ1 595 L?-.0
015 -.00370809924354783 .009 41 1 596 L?.0015 -.00370809924354783 .009 204 2 17
 INTERSECTION_DATA17 Intersection data7 uv_type0 0 1 u6 values0 1 1 fT44 597 4 5
.09678575488033 .031 4.71238898038469 .000291900756452168 5.07593568397749 .0305
236843871094 5.03552701648479 .0002614338894325585 5.01739085582192 .03010157529
38135 5.35457798955883 .0001846144424598095 4.92469077502674 .0297591870092716 5
.68651061881715 898060306475353e-19 4.80555484425964 .02954689184881115 6.032484
3634998 173472033013558e-19 4.68122288270044 .029505187697104 .083192067806369 1
94249404923512e-20 4.56600530668903 .0296181204736629 .399506608571313 427798866
7427455e-20 4.463333472227995 .02986956071316495 .717234787544437 .0001234173578
756052 4.380566276334435 .03025702260485935 1.052595170820276 .00021819944871626
05 4.333966465517545 .03074300309164625 1.39861556341753 .0002830055944481995 4.
32799220588905 .031 1.570796326794895 .000291900756452169 14 255 603 157 607 ?60
8 609 610 5 593 -0 0 608 609 23 50 255 604 199 0 609 611 593 0 +.0015 -.004 .005
 1 0 -542101086242752e-31 -542101086242752e-31 0 -1 50 605 197 0 608 593 612 0 +
-.0015 -.004 .005 -1 0 271050543121376e-30 271050543121376e-30 0 1 141 255 606 5
88 606 606 593 14 608 165 613 ?614 603 615 5 605 -0 0 614 603 23 51 612 196 0 61
6 605 617 618 +612323399573677e-33 -.004 .005 0 1 0 .0015 0 0 1 14 616 145 619 ?
609 620 621 5 612 -0 0 609 620 23 50 617 3 0 622 612 601 0 +0 0 .04 0 0 1 1 0 0
 141 618 600 618 618 612 38 600 72 0 623 592 624 0 +20 612 625 626 627 628 16 62
3 70 0 ?629 630 599 600 0 0 1 30 624 80 0 630 600 631 0 --.0015 -.00370809924354
7835 .04 0 0 -1 40 11 625 0 1 11 938566144516964e-19 .3580577182504835 ??.0015 -
.00370809924354783 .005 .001422365437191384 -.00373856611056744 .004523684387109
38 .001201179856355296 -.00381538555754019 .004101575293813515 .0008428422877618
42 -.003910193969352465 .00375918700927159 .0003721245771895055 -.00398265279669
8645 .00354689184881113 -.000124644210097185 -.003998057505950765 .0035051876971
04 -.000583445776992457 -.003957220113325725 .003618120473662895 -.0009859548766
44894 -.003876582642124395 .003869560713164945 -.001303067377502024 -.0037818005
5128374 .004257022604859345 -.001477820215417498 -.0037169944055518 .00474300309
164626 -.0015 -.00370809924354783 .005 41 1 626 L?.0015 -.00370809924354783 .005
 41 1 627 L?-.0015 -.00370809924354783 .005 204 44 628 4 4.32799220588905 .035 1
.570796326794895 .000291900756452169 4.34884227679189 .0354763156128906 1.893934
362895 .0002614338894325595 4.407387104947455 .0358984247061865 2.21298533596903
5 .0001846144424598095 4.50008718574264 .0362408129907284 2.54491796522736 89806
0306475353e-19 4.61922311650974 .03645310815118885 2.890891709910005 17347203301
3558e-19 4.74355507806894 .036494812302896 3.224784721396165 194249404923512e-20
 4.85877265408035 .0363818795263371 3.54109926216111 4277988667427455e-20 4.9614
4448854139 .03613043928683505 3.85882744113423 .0001234173578756056 5.0442116844
3495 .03574297739514065 4.19418782441007 .000218199448716261 5.09081149525184 .0
3525699690835375 4.54020821700732 .0002830055944482 5.09678575488033 .035 4.7123
8898038469 .0002919007564521685 16 630 78 0 ?632 633 623 624 0 0 1 31 631 274 0
 633 624 634 0 +0 0 .03 0 0 1 1 0 0 .004 16 633 272 0 ?96 635 630 631 0 0 1 31 6
34 479 0 635 631 636 0 +0 0 .03 0 0 1 1 0 0 .004 16 635 477 0 ?117 637 633 634 0
 0 1 31 636 669 0 637 634 638 0 +0 0 .03 0 0 1 1 0 0 .004 16 637 667 0 ?138 639
 635 636 0 0 1 31 638 860 0 639 636 640 0 +0 0 .03 0 0 1 1 0 0 .004 16 639 858 0
 ?159 641 637 638 0 0 1 31 640 1052 0 641 638 642 0 +0 0 .03 0 0 1 1 0 0 .004 16
 641 1050 0 ?180 643 639 640 0 0 1 31 642 1245 0 643 640 644 0 +0 0 .03 0 0 1 1
 0 0 .004 16 643 1243 0 ?201 645 641 642 0 0 1 31 644 1439 0 645 642 646 0 +0 0
 .03 0 0 1 1 0 0 .004 16 645 1437 0 ?222 647 643 644 0 0 1 31 646 1634 0 647 644
 648 0 +0 0 .03 0 0 1 1 0 0 .004 16 647 1632 0 ?243 649 645 646 0 0 1 31 648 183
0 0 649 646 650 0 +0 0 .03 0 0 1 1 0 0 .004 16 649 1828 0 ?264 651 647 648 0 0 1
 31 650 2027 0 651 648 21 0 +0 0 .03 0 0 1 1 0 0 .004 16 651 2025 0 ?285 25 649
 650 0 0 1 31 21 2282 0 25 650 7 0 +0 0 .000500000000000007 0 0 1 1 0 0 .004 16
 25 2279 0 ?652 10 651 21 0 0 1 17 652 0 653 652 652 0 654 25 0 0 +15 653 2280 0
 652 16 655 17 654 0 656 654 654 0 652 25 0 0 -15 656 2299 0 654 19 0 14 19 2297
 657 ?0 320 658 5 6 +0 0 0 320 23 81 1 657 2763 659 19 660 0 619 661 662 14 320
 2120 661 ?19 314 307 5 663 -0 0 19 314 23 15 658 2298 0 664 19 656 13 23 10 0 0
 0 0 0 0 9 16 14 16 27 665 ?622 0 653 5 20 -0 0 622 0 23 81 1 665 2765 659 16 66
6 0 661 667 668 14 622 1 667 ?620 16 28 5 617 +0 0 620 16 23 81 1 667 2766 659 6
22 669 0 665 670 671 14 620 18 670 ?616 622 672 5 601 -0 0 616 622 23 15 28 2188
 0 36 622 0 17 36 0 28 293 34 280 673 674 0 0 +17 293 0 28 30 36 291 282 325 0 2
98 +17 673 0 675 354 305 27 36 674 0 0 -16 674 1801 0 ?36 676 581 586 676 581 1
 16 676 1606 0 ?677 678 674 586 678 674 1 16 581 1997 0 ?29 674 579 586 674 587
 1 17 29 0 28 104 26 92 679 581 0 680 +17 104 0 28 554 29 102 680 540 0 560 +17
 679 0 675 332 565 11 29 581 0 0 -17 680 0 681 91 560 92 104 540 0 565 -15 681 3
46 0 91 682 0 17 91 0 681 109 680 89 565 563 0 683 -17 560 0 681 680 109 102 684
 550 0 685 +17 565 0 675 679 686 92 91 563 0 0 +15 675 26 0 309 16 0 17 686 0 67
5 565 562 89 96 633 0 0 -17 562 0 675 686 687 94 688 558 0 0 +17 96 0 689 690 68
3 94 686 633 0 549 +15 689 369 0 683 691 0 17 690 0 689 692 96 97 549 547 0 546
 -17 683 0 689 96 692 89 109 541 0 686 -17 549 0 693 688 107 94 690 547 0 562 +1
5 693 350 0 688 694 0 17 688 0 693 695 549 62 562 558 0 687 -17 107 0 693 549 69
5 97 100 556 0 690 -17 695 0 693 107 688 98 64 544 0 554 -17 100 0 696 685 546 9
8 107 556 0 695 +15 696 366 0 685 697 0 17 685 0 696 684 100 102 554 552 0 0 -17
 546 0 696 100 684 97 692 543 0 0 +17 684 0 696 546 685 101 560 550 0 692 -17 69
2 0 689 683 690 101 546 543 0 0 -17 554 0 28 64 104 98 685 552 0 0 +17 64 0 28 5
89 554 62 695 544 0 688 +17 589 0 28 125 64 112 687 587 0 0 +17 125 0 28 528 589
 123 114 514 0 534 +17 687 0 675 562 539 62 589 587 0 0 -17 539 0 675 687 698 11
2 111 537 0 589 +17 698 0 675 539 536 105 117 635 0 0 -17 111 0 699 130 114 105
 539 537 0 700 -15 699 551 0 111 701 0 17 130 0 699 534 111 122 700 515 0 702 +1
7 114 0 699 111 534 112 125 514 0 539 -17 700 0 703 117 704 105 130 515 0 698 -1
5 703 574 0 700 705 0 17 117 0 703 706 700 115 698 635 0 523 +17 704 0 703 700 7
06 122 520 517 0 0 -17 706 0 703 704 117 118 523 521 0 520 -17 520 0 707 121 702
 118 704 517 0 0 +15 707 571 0 708 709 0 17 121 0 707 708 520 119 128 530 0 710
 +17 702 0 707 520 708 122 534 524 0 704 -17 708 0 707 702 121 123 528 526 0 0 -
17 534 0 699 114 130 123 702 524 0 708 +17 528 0 28 61 125 119 708 526 0 0 +17 6
1 0 28 711 528 59 710 518 0 712 +17 711 0 28 146 61 133 713 591 0 0 +17 710 0 71
4 128 712 119 61 518 0 528 -17 712 0 714 710 523 59 536 532 0 713 -15 714 555 0
 712 715 0 17 523 0 714 712 128 115 706 521 0 536 +17 536 0 675 698 713 115 712
 532 0 0 +17 713 0 675 536 513 59 711 591 0 0 -17 513 0 675 713 716 133 132 511
 0 711 +16 591 457 0 ?711 587 717 586 587 717 1 16 717 646 0 ?718 591 719 586 59
1 719 1 17 718 0 28 167 58 154 720 717 0 0 +16 719 836 0 ?721 717 722 586 717 72
2 1 17 721 0 28 188 55 175 723 719 0 0 +16 722 1027 0 ?724 719 725 586 719 725 1
 17 724 0 28 209 52 196 726 722 0 0 +16 725 1219 0 ?727 722 678 586 722 678 1 17
 727 0 28 230 49 217 728 725 0 0 +16 678 1412 0 ?729 725 676 586 725 676 1 17 72
9 0 28 251 46 238 730 678 0 0 +17 251 0 28 372 729 249 240 358 0 378 +17 46 0 28
 729 398 42 731 388 0 732 +17 730 0 675 406 383 42 729 678 0 0 -17 406 0 675 733
 730 220 732 402 0 0 +17 383 0 675 730 734 238 237 381 0 729 +17 734 0 675 383 3
80 231 243 647 0 0 -17 237 0 735 256 240 231 383 381 0 736 -15 735 1706 0 237 73
7 0 17 256 0 735 378 237 248 736 359 0 738 +17 240 0 735 237 378 238 251 358 0 3
83 -17 736 0 739 243 740 231 256 359 0 734 -15 739 1729 0 736 741 0 17 243 0 739
 742 736 241 734 647 0 367 +17 740 0 739 736 742 248 364 361 0 0 -17 742 0 739 7
40 243 244 367 365 0 364 -17 364 0 743 247 738 244 740 361 0 0 +15 743 1726 0 74
4 745 0 17 247 0 743 744 364 245 254 374 0 746 +17 738 0 743 364 744 248 378 368
 0 740 -17 744 0 743 738 247 249 372 370 0 0 -17 378 0 735 240 256 249 738 368 0
 744 +17 372 0 28 41 251 245 744 370 0 0 +17 41 0 28 677 372 35 746 362 0 747 +1
7 677 0 28 272 41 259 748 676 0 0 +17 746 0 749 254 747 245 41 362 0 372 -17 747
 0 749 746 367 35 380 376 0 748 -15 749 1710 0 747 750 0 17 367 0 749 747 254 24
1 742 365 0 380 +17 380 0 675 734 748 241 747 376 0 0 +17 748 0 675 380 357 35 6
77 676 0 0 -17 357 0 675 748 751 259 258 355 0 677 +17 751 0 675 357 354 252 264
 649 0 0 -17 258 0 752 277 261 252 357 355 0 753 -15 752 1902 0 258 754 0 17 277
 0 752 352 258 269 753 335 0 755 +17 261 0 752 258 352 259 272 334 0 357 -17 753
 0 756 264 757 252 277 335 0 751 -15 756 1925 0 753 758 0 17 264 0 756 759 753 2
62 751 649 0 342 +17 757 0 756 753 759 269 339 337 0 0 -17 759 0 756 757 264 265
 342 340 0 339 -17 339 0 760 268 755 265 757 337 0 0 +15 760 1922 0 761 762 0 17
 268 0 760 761 339 266 275 348 0 38 +17 755 0 760 339 761 269 352 343 0 757 -17
 761 0 760 755 268 270 37 345 0 0 -17 352 0 752 261 277 270 755 343 0 761 +17 37
 0 28 34 272 266 761 345 0 0 +17 272 0 28 37 677 270 261 334 0 352 +17 275 0 763
 342 38 265 268 348 0 759 -17 38 0 763 275 40 266 34 39 0 37 -15 763 1906 0 40 7
64 0 17 40 0 763 38 342 27 354 350 0 673 -17 342 0 763 40 275 262 759 340 0 354
 +17 354 0 675 751 673 262 40 350 0 0 +14 764 1903 765 ?762 754 763 5 766 +0 0 7
62 754 23 81 1 765 2768 659 764 767 0 670 768 769 14 762 1919 768 ?758 764 760 5
 770 +0 0 758 764 23 14 754 1899 771 ?764 741 752 5 772 +0 0 764 741 23 50 766 1
933 0 764 773 770 0 +.00418704922501569 .001675893429575855 .03 -.30901699437495
85 .95105651629515 0 -.95105651629515 -.3090169943749585 0 50 773 1936 0 758 774
 766 0 +0 0 .03 0 0 1 .309016994374958 -.95105651629515 0 50 770 1932 0 762 766
 772 0 +.00418704922501569 .001675893429575855 .03 .95105651629515 .309016994374
958 0 -.309016994374958 .95105651629515 0 50 772 1931 0 754 770 775 0 +.00437245
9421640665 .001105259519798766 .03 .3090169943749585 -.95105651629515 0 .9510565
1629515 .3090169943749585 0 50 775 1740 0 741 772 776 0 +0 0 .03 0 0 1 -.3090169
943749385 -.951056516295157 0 14 741 1727 777 ?754 745 739 5 775 -0 0 754 745 23
 50 776 1737 0 750 775 778 0 +.004372459421640685 -.001105259519798674 .03 .3090
16994374938 .951056516295157 0 -.951056516295157 .309016994374938 0 14 750 1707
 779 ?745 737 749 5 776 +0 0 745 737 23 50 778 1736 0 745 776 780 0 +.0043724594
21640685 -.001105259519798674 .03 .951056516295157 -.3090169943749385 0 .3090169
943749385 .951056516295157 0 14 745 1723 781 ?741 750 743 5 778 +0 0 741 750 23
 50 780 1735 0 737 778 782 0 +.00418704922501572 -.00167589342957577 .03 -.30901
6994374938 -.951056516295157 0 .951056516295157 -.309016994374938 0 14 737 1703
 783 ?750 784 735 5 780 +0 0 750 784 23 50 782 1545 0 784 780 785 0 +0 0 .03 0 0
 1 -.809016994374942 -.58778525229248 0 14 784 1532 786 ?737 787 788 5 782 -0 0
 737 787 23 50 785 1542 0 789 782 790 0 +.002887738733628645 -.00346424089899949
5 .03 .809016994374942 .58778525229248 0 -.58778525229248 .809016994374942 0 14
 789 1512 791 ?787 792 793 5 785 +0 0 787 792 23 50 790 1541 0 787 785 794 0 +.0
02887738733628645 -.003464240898999495 .03 .58778525229248 -.809016994374942 0 .
809016994374942 .58778525229248 0 14 787 1528 795 ?784 789 796 5 790 +0 0 784 78
9 23 50 794 1540 0 792 790 797 0 +.00240232853700368 -.003816912050374985 .03 -.
809016994374942 -.587785252292481 0 .587785252292481 -.809016994374942 0 14 792
 1508 798 ?789 799 800 5 794 +0 0 789 799 23 50 797 1351 0 799 794 801 0 +0 0 .0
3 0 0 1 -1 0 0 14 799 1338 802 ?792 803 804 5 797 -0 0 792 803 23 50 801 1348 0
 805 797 806 0 +3e-4 -.0045 .03 1 1271370425856766e-31 0 -1271370425856766e-31 1
 0 14 805 1318 807 ?803 808 809 5 801 +0 0 803 808 23 50 806 1347 0 803 801 810
 0 +3e-4 -.0045 .03 0 -1 0 0 0 -1 14 803 1334 811 ?799 805 812 5 806 +0 0 799 80
5 23 50 810 1346 0 808 806 813 0 +-3e-4 -.0045 .03 -1 -2542740851713535e-31 0 25
42740851713535e-31 -1 0 14 808 1314 814 ?805 815 816 5 810 +0 0 805 815 23 50 81
3 1158 0 815 810 817 0 +0 0 .03 0 0 1 -.809016994374951 .587785252292469 0 14 81
5 1145 818 ?808 819 820 5 813 -0 0 808 819 23 50 817 1155 0 821 813 822 0 +-.002
402328537003625 -.00381691205037502 .03 .809016994374951 -.587785252292469 0 .58
7785252292469 .809016994374951 0 14 821 1125 823 ?819 824 825 5 817 +0 0 819 824
 23 50 822 1154 0 819 817 826 0 +-.002402328537003625 -.00381691205037502 .03 -.
587785252292469 -.809016994374951 0 .809016994374951 -.587785252292469 0 14 819
 1141 827 ?815 821 828 5 822 +0 0 815 821 23 50 826 1153 0 824 822 829 0 +-.0028
87738733628595 -.00346424089899954 .03 -.809016994374951 .587785252292468 0 -.58
7785252292468 -.809016994374951 0 14 824 1121 830 ?821 831 832 5 826 +0 0 821 83
1 23 50 829 966 0 831 826 833 0 +0 0 .03 0 0 1 -.3090169943749515 .9510565162951
52 0 14 831 953 834 ?824 835 836 5 829 -0 0 824 835 23 50 833 963 0 837 829 838
 0 +-.0041870492250157 -.00167589342957583 .03 .3090169943749515 -.9510565162951
52 0 .951056516295152 .3090169943749515 0 14 837 933 839 ?835 840 841 5 833 +0 0
 835 840 23 50 838 962 0 835 833 842 0 +-.0041870492250157 -.00167589342957583 .
03 -.951056516295152 -.3090169943749515 0 .3090169943749515 -.951056516295152 0
 14 835 949 843 ?831 837 844 5 838 +0 0 831 837 23 50 842 961 0 840 838 845 0 +-
.00437245942164067 -.001105259519798736 .03 -.309016994374952 .951056516295152 0
 -.951056516295152 -.309016994374952 0 14 840 929 846 ?837 847 848 5 842 +0 0 83
7 847 23 50 845 775 0 847 842 849 0 +0 0 .03 0 0 1 .309016994374945 .95105651629
5155 0 14 847 762 850 ?840 851 852 5 845 -0 0 840 851 23 50 849 772 0 853 845 85
4 0 +-.00437245942164068 .001105259519798704 .03 -.3090169943749445 -.9510565162
95155 0 .951056516295155 -.3090169943749445 0 14 853 742 855 ?851 856 857 5 849
 +0 0 851 856 23 50 854 771 0 851 849 858 0 +-.00437245942164068 .00110525951979
8704 .03 -.951056516295155 .309016994374945 0 -.309016994374945 -.95105651629515
5 0 14 851 758 859 ?847 853 860 5 854 +0 0 847 853 23 50 858 770 0 856 854 861 0
 +-.00418704922501571 .0016758934295758 .03 .3090169943749445 .951056516295154 0
 -.951056516295155 .3090169943749445 0 14 856 738 862 ?853 705 863 5 858 +0 0 85
3 705 23 50 861 585 0 705 858 864 0 +0 0 .03 0 0 1 .809016994374947 .58778525229
2474 0 14 705 572 865 ?856 709 703 5 861 -0 0 856 709 23 50 864 582 0 715 861 86
6 0 +-.00288773873362862 .00346424089899952 .03 -.809016994374947 -.587785252292
474 0 .587785252292474 -.809016994374947 0 14 715 552 867 ?709 701 714 5 864 +0
 0 709 701 23 50 866 581 0 709 864 868 0 +-.00288773873362862 .00346424089899952
 .03 -.587785252292474 .809016994374947 0 -.809016994374947 -.587785252292474 0
 14 709 568 869 ?705 715 707 5 866 +0 0 705 715 23 50 868 580 0 701 866 870 0 +-
.00240232853700365 .003816912050375005 .03 .809016994374947 .587785252292475 0 -
.587785252292475 .809016994374947 0 14 701 548 871 ?715 691 699 5 868 +0 0 715 6
91 23 50 870 380 0 691 868 872 0 +0 0 .03 0 0 1 1 0 0 14 691 367 873 ?701 697 68
9 5 870 -0 0 701 697 23 50 872 377 0 694 870 874 0 +-3e-4 .0045 .03 -1 -12713704
25856766e-31 0 1271370425856766e-31 -1 0 14 694 347 875 ?697 682 693 5 872 +0 0
 697 682 23 50 874 376 0 697 872 876 0 +-3e-4 .0045 .03 0 1 0 0 0 1 14 697 363 8
77 ?691 694 696 5 874 +0 0 691 694 23 50 876 375 0 682 874 611 0 +3e-4 .0045 .03
 1 2542740851713535e-31 0 -2542740851713535e-31 1 0 14 682 343 878 ?694 614 681
 5 876 +0 0 694 614 23 50 611 200 0 614 876 604 0 +612323399573677e-33 -.0025 .0
05 0 1 0 0 0 1 14 614 191 879 ?682 608 880 5 611 -0 0 682 608 23 81 1 879 2803 6
59 614 881 0 878 882 883 15 880 193 0 884 614 0 17 884 0 880 885 886 77 568 566
 0 577 -17 885 0 880 887 884 80 577 575 0 0 -17 886 0 880 884 887 86 571 569 0 5
68 -17 568 0 621 888 79 86 884 566 0 0 +17 577 0 889 890 82 77 885 575 0 0 +15 8
89 156 0 82 609 0 17 890 0 889 73 577 68 79 579 0 891 -17 82 0 889 577 73 80 892
 582 0 574 +17 73 0 889 82 890 71 891 599 0 892 -17 892 0 610 67 574 71 82 582 0
 598 -17 574 0 610 892 85 80 887 572 0 885 +15 610 160 0 85 603 0 17 85 0 610 57
4 67 83 893 584 0 887 +17 887 0 880 886 885 83 574 572 0 571 -17 571 0 615 893 8
8 83 886 569 0 0 +15 615 168 0 88 608 0 17 893 0 615 76 571 65 85 584 0 632 -17
 88 0 615 571 76 86 888 578 0 886 +17 76 0 615 88 893 74 632 630 0 888 -17 888 0
 621 70 568 74 88 578 0 629 -15 621 148 0 79 616 0 17 70 0 621 79 888 68 629 623
 0 890 -17 629 0 655 632 891 74 70 623 0 0 +15 655 55 0 632 16 675 17 632 0 655
 598 629 65 76 630 0 0 +17 891 0 655 629 598 68 73 599 0 0 +17 598 0 655 891 632
 71 67 590 0 0 +16 599 66 0 ?891 623 590 592 0 0 1 17 67 0 610 85 892 65 598 590
 0 893 -17 79 0 621 568 70 77 890 579 0 884 +14 609 153 882 ?603 616 889 5 604 -
0 0 603 616 23 81 1 882 2804 659 609 894 0 879 895 896 80 255 1 659 897 898 9000
 1 1 1 1 1 1 1 1 0 FFFFTFTFFFFFFF1 81 1 894 2605 899 609 0 882 900 901 902 81 1
 895 2805 659 758 903 0 882 904 905 82 255 1 896 -2127036310 14 758 1923 895 ?30
2 762 756 5 773 -0 0 302 762 23 81 1 903 2644 899 758 0 895 906 907 908 81 1 904
 2806 659 302 907 0 895 909 910 82 1 905 527630449 14 302 2096 904 ?911 758 297
 5 774 +0 0 911 758 23 81 1 907 2645 899 302 0 904 903 912 913 81 1 909 2807 659
 911 912 0 904 914 915 82 1 910 646512753 14 911 2100 909 ?314 302 916 5 917 +0
 0 314 302 23 81 1 912 2646 899 911 0 909 907 918 919 81 1 914 2808 659 314 918
 0 909 0 920 82 1 915 645070961 14 314 2116 914 ?320 911 312 5 921 +0 0 320 911
 23 81 1 918 2647 899 314 0 914 912 922 923 82 1 920 555942001 80 1 899 0 924 80
01 0 0 0 0 3 5 0 0 0 FFFFTFTFFFFFFF2 81 1 922 2648 899 320 0 661 918 660 925 83
 255 3 923 .8 .807843137254902 .8 81 1 661 2764 659 320 922 0 657 665 926 81 1 6
60 2649 899 19 0 657 922 0 927 83 3 925 .8 .807843137254902 .8 83 3 927 .8 .8078
43137254902 .8 82 1 926 549126257 79 255 15 924 SDL/TYSA_COLOUR50 921 2129 0 314
 917 774 0 +.002402328537003595 .003816912050375035 .03 .587785252292463 .809016
994374955 0 -.809016994374955 .587785252292463 0 50 917 2130 0 911 663 921 0 +.0
02402328537003595 .003816912050375035 .03 -.809016994374955 .587785252292462 0 -
.587785252292462 -.809016994374955 0 50 774 2128 0 302 921 773 0 +.0028877387336
28565 .00346424089899956 .03 .809016994374955 -.587785252292462 0 .5877852522924
62 .809016994374955 0 50 663 2133 0 320 0 917 0 +0 0 .03 0 0 1 .809016994374955
 -.587785252292463 0 83 3 919 .8 .807843137254902 .8 15 916 2103 0 33 911 0 17 3
3 0 916 31 321 11 332 329 0 679 -17 31 0 916 295 33 287 26 32 0 30 -17 321 0 916
 33 295 283 319 317 0 332 +17 332 0 675 309 679 283 33 329 0 0 +17 309 0 675 305
 332 273 285 651 0 0 -17 305 0 675 673 309 280 279 306 0 36 +17 285 0 307 319 29
9 283 309 651 0 321 +17 295 0 916 321 31 286 289 316 0 319 -17 289 0 312 304 313
 287 295 316 0 31 +17 30 0 28 26 293 287 304 315 0 0 +83 3 913 .8 .8078431372549
02 .8 81 1 906 2643 899 762 0 768 767 903 928 83 3 908 .8 .807843137254902 .8 81
 1 768 2769 659 762 906 0 765 771 929 81 1 767 2642 899 764 0 765 930 906 931 83
 3 928 .8 .807843137254902 .8 81 1 930 2641 899 754 0 771 932 767 933 83 3 931 .
8 .807843137254902 .8 81 1 771 2770 659 754 930 0 768 777 934 81 1 932 2640 899
 741 0 777 935 930 936 83 3 933 .8 .807843137254902 .8 81 1 777 2771 659 741 932
 0 771 779 937 81 1 935 2639 899 745 0 781 938 932 939 83 3 936 .8 .807843137254
902 .8 81 1 781 2773 659 745 935 0 779 783 940 81 1 938 2638 899 750 0 779 941 9
35 942 83 3 939 .8 .807843137254902 .8 81 1 779 2772 659 750 938 0 777 781 943 8
1 1 941 2637 899 737 0 783 944 938 945 83 3 942 .8 .807843137254902 .8 81 1 783
 2774 659 737 941 0 781 786 946 81 1 944 2636 899 784 0 786 947 941 948 83 3 945
 .8 .807843137254902 .8 81 1 786 2775 659 784 944 0 783 791 949 81 1 947 2635 89
9 787 0 795 950 944 951 83 3 948 .8 .807843137254902 .8 81 1 795 2777 659 787 94
7 0 791 798 952 81 1 950 2634 899 789 0 791 953 947 954 83 3 951 .8 .80784313725
4902 .8 81 1 791 2776 659 789 950 0 786 795 955 81 1 953 2633 899 792 0 798 956
 950 957 83 3 954 .8 .807843137254902 .8 81 1 798 2778 659 792 953 0 795 802 958
 81 1 956 2632 899 799 0 802 959 953 960 83 3 957 .8 .807843137254902 .8 81 1 80
2 2779 659 799 956 0 798 807 961 81 1 959 2631 899 803 0 811 962 956 963 83 3 96
0 .8 .807843137254902 .8 81 1 811 2781 659 803 959 0 807 814 964 81 1 962 2630 8
99 805 0 807 965 959 966 83 3 963 .8 .807843137254902 .8 81 1 807 2780 659 805 9
62 0 802 811 967 81 1 965 2629 899 808 0 814 968 962 969 83 3 966 .8 .8078431372
54902 .8 81 1 814 2782 659 808 965 0 811 818 970 81 1 968 2628 899 815 0 818 971
 965 972 83 3 969 .8 .807843137254902 .8 81 1 818 2783 659 815 968 0 814 823 973
 81 1 971 2627 899 819 0 827 974 968 975 83 3 972 .8 .807843137254902 .8 81 1 82
7 2785 659 819 971 0 823 830 976 81 1 974 2626 899 821 0 823 977 971 978 83 3 97
5 .8 .807843137254902 .8 81 1 823 2784 659 821 974 0 818 827 979 81 1 977 2625 8
99 824 0 830 980 974 981 83 3 978 .8 .807843137254902 .8 81 1 830 2786 659 824 9
77 0 827 834 982 81 1 980 2624 899 831 0 834 983 977 984 83 3 981 .8 .8078431372
54902 .8 81 1 834 2787 659 831 980 0 830 839 985 81 1 983 2623 899 835 0 843 986
 980 987 83 3 984 .8 .807843137254902 .8 81 1 843 2789 659 835 983 0 839 846 988
 81 1 986 2622 899 837 0 839 989 983 990 83 3 987 .8 .807843137254902 .8 81 1 83
9 2788 659 837 986 0 834 843 991 81 1 989 2621 899 840 0 846 992 986 993 83 3 99
0 .8 .807843137254902 .8 81 1 846 2790 659 840 989 0 843 850 994 81 1 992 2620 8
99 847 0 850 995 989 996 83 3 993 .8 .807843137254902 .8 81 1 850 2791 659 847 9
92 0 846 855 997 81 1 995 2619 899 851 0 859 998 992 999 83 3 996 .8 .8078431372
54902 .8 81 1 859 2793 659 851 995 0 855 862 1000 81 1 998 2618 899 853 0 855 10
01 995 1002 83 3 999 .8 .807843137254902 .8 81 1 855 2792 659 853 998 0 850 859
 1003 81 1 1001 2617 899 856 0 862 1004 998 1005 83 3 1002 .8 .807843137254902 .
8 81 1 862 2794 659 856 1001 0 859 865 1006 81 1 1004 2616 899 705 0 865 1007 10
01 1008 83 3 1005 .8 .807843137254902 .8 81 1 865 2795 659 705 1004 0 862 867 10
09 81 1 1007 2615 899 709 0 869 1010 1004 1011 83 3 1008 .8 .807843137254902 .8
 81 1 869 2797 659 709 1007 0 867 871 1012 81 1 1010 2614 899 715 0 867 1013 100
7 1014 83 3 1011 .8 .807843137254902 .8 81 1 867 2796 659 715 1010 0 865 869 101
5 81 1 1013 2613 899 701 0 871 1016 1010 1017 83 3 1014 .8 .807843137254902 .8 8
1 1 871 2798 659 701 1013 0 869 873 1018 81 1 1016 2612 899 691 0 873 1019 1013
 1020 83 3 1017 .8 .807843137254902 .8 81 1 873 2799 659 691 1016 0 871 875 1021
 81 1 1019 2611 899 697 0 877 1022 1016 1023 83 3 1020 .8 .807843137254902 .8 81
 1 877 2801 659 697 1019 0 875 878 1024 81 1 1022 2610 899 694 0 875 1025 1019 1
026 83 3 1023 .8 .807843137254902 .8 81 1 875 2800 659 694 1022 0 873 877 1027 8
1 1 1025 2609 899 682 0 878 881 1022 1028 83 3 1026 .8 .807843137254902 .8 81 1
 878 2802 659 682 1025 0 877 879 1029 81 1 881 2608 899 614 0 879 1030 1025 1031
 83 3 1028 .8 .807843137254902 .8 81 1 1030 2607 899 608 0 613 901 881 1032 83 3
 1031 .8 .807843137254902 .8 81 1 613 2761 659 608 1030 0 607 619 1033 81 1 901
 2606 899 603 0 607 894 1030 1034 83 3 1032 .8 .807843137254902 .8 81 1 607 2760
 659 603 901 0 0 613 1035 83 3 1034 .8 .807843137254902 .8 82 1 1035 -2127822742
 81 1 619 2762 659 616 900 0 613 657 1036 82 1 1033 -2129067926 81 1 900 2604 89
9 616 0 619 1037 894 1038 82 1 1036 -2126118806 81 1 1037 2603 899 620 0 670 669
 900 1039 83 3 1038 .8 .807843137254902 .8 81 1 670 2767 659 620 1037 0 667 765
 1040 81 1 669 2602 899 622 0 667 666 1037 1041 83 3 1039 .8 .807843137254902 .8
 81 1 666 2601 899 16 0 665 0 669 1042 83 3 1041 .8 .807843137254902 .8 83 3 104
2 .8 .807843137254902 .8 82 1 1040 166330483 82 1 1029 -216661905 82 1 1027 -218
103697 82 1 1024 -224198545 82 1 1021 -231014289 82 1 1018 564461681 82 1 1015 5
63019889 82 1 1012 375849073 82 1 1009 369033329 82 1 1006 574488689 82 1 1003 5
73046897 82 1 1000 405471345 82 1 997 398655601 82 1 994 584581233 82 1 991 5831
39441 82 1 988 426967153 82 1 985 420151409 82 1 982 594739313 82 1 979 59329752
1 82 1 976 448462961 82 1 973 441647217 82 1 970 604962929 82 1 967 603521137 82
 1 964 469958769 82 1 961 463143025 82 1 958 615252081 82 1 955 613810289 82 1 9
52 491454577 82 1 949 484638833 82 1 946 625606769 82 1 943 624164977 82 1 940 5
12950385 82 1 937 506134641 82 1 934 636026993 82 1 929 534446193 83 3 902 .8 .8
07843137254902 .8 79 14 898 SWEntUnchanged82 1 883 -2138111894 15 863 741 0 132
 856 0 17 132 0 863 151 135 126 513 511 0 1043 -17 151 0 863 508 132 143 1043 48
9 0 1044 +17 135 0 863 132 508 133 146 488 0 513 -17 1043 0 852 138 1045 126 151
 489 0 716 -15 852 764 0 1043 847 0 17 138 0 852 1046 1043 136 716 637 0 497 +17
 1045 0 852 1043 1046 143 494 491 0 0 -17 716 0 675 513 510 126 138 637 0 0 -17
 510 0 675 716 720 136 1047 506 0 0 +17 720 0 675 510 487 56 718 717 0 0 -17 104
7 0 857 1048 497 56 510 506 0 720 -15 857 745 0 1047 853 0 17 1048 0 857 149 104
7 140 58 492 0 502 -17 497 0 857 1047 149 136 1046 495 0 510 +17 149 0 857 497 1
048 139 142 504 0 1046 -17 1046 0 852 1045 138 139 497 495 0 494 -17 494 0 860 1
42 1044 139 1045 491 0 0 +15 860 761 0 1049 851 0 17 142 0 860 1049 494 140 149
 504 0 1048 +17 1044 0 860 494 1049 143 508 498 0 1045 -17 1049 0 860 1044 142 1
44 502 500 0 0 -17 508 0 863 135 151 144 1044 498 0 1049 +17 502 0 28 58 146 140
 1049 500 0 0 +17 58 0 28 718 502 56 1048 492 0 1047 +17 146 0 28 502 711 144 13
5 488 0 508 +17 487 0 675 720 1050 154 153 485 0 718 +17 1050 0 675 487 484 147
 159 639 0 0 -17 153 0 848 172 156 147 487 485 0 1051 -15 848 932 0 153 840 0 17
 172 0 848 482 153 164 1051 463 0 1052 +17 156 0 848 153 482 154 167 462 0 487 -
17 1051 0 836 159 1053 147 172 463 0 1050 -15 836 955 0 1051 831 0 17 159 0 836
 1054 1051 157 1050 639 0 471 +17 1053 0 836 1051 1054 164 468 465 0 0 -17 1054
 0 836 1053 159 160 471 469 0 468 -17 468 0 844 163 1052 160 1053 465 0 0 +15 84
4 952 0 1055 835 0 17 163 0 844 1055 468 161 170 478 0 1056 +17 1052 0 844 468 1
055 164 482 472 0 1053 -17 1055 0 844 1052 163 165 476 474 0 0 -17 482 0 848 156
 172 165 1052 472 0 1055 +17 476 0 28 55 167 161 1055 474 0 0 +17 55 0 28 721 47
6 53 1056 466 0 1057 +17 167 0 28 476 718 165 156 462 0 482 +17 1056 0 841 170 1
057 161 55 466 0 476 -17 1057 0 841 1056 471 53 484 480 0 723 -15 841 936 0 1057
 837 0 17 471 0 841 1057 170 157 1054 469 0 484 +17 484 0 675 1050 723 157 1057
 480 0 0 +17 723 0 675 484 461 53 721 719 0 0 -17 461 0 675 723 1058 175 174 459
 0 721 +17 1058 0 675 461 458 168 180 641 0 0 -17 174 0 832 193 177 168 461 459
 0 1059 -15 832 1124 0 174 824 0 17 193 0 832 456 174 185 1059 437 0 1060 +17 17
7 0 832 174 456 175 188 436 0 461 -17 1059 0 820 180 1061 168 193 437 0 1058 -15
 820 1147 0 1059 815 0 17 180 0 820 1062 1059 178 1058 641 0 445 +17 1061 0 820
 1059 1062 185 442 439 0 0 -17 1062 0 820 1061 180 181 445 443 0 442 -17 442 0 8
28 184 1060 181 1061 439 0 0 +15 828 1144 0 1063 819 0 17 184 0 828 1063 442 182
 191 452 0 1064 +17 1060 0 828 442 1063 185 456 446 0 1061 -17 1063 0 828 1060 1
84 186 450 448 0 0 -17 456 0 832 177 193 186 1060 446 0 1063 +17 450 0 28 52 188
 182 1063 448 0 0 +17 52 0 28 724 450 50 1064 440 0 1065 +17 188 0 28 450 721 18
6 177 436 0 456 +17 1064 0 825 191 1065 182 52 440 0 450 -17 1065 0 825 1064 445
 50 458 454 0 726 -15 825 1128 0 1065 821 0 17 445 0 825 1065 191 178 1062 443 0
 458 +17 458 0 675 1058 726 178 1065 454 0 0 +17 726 0 675 458 435 50 724 722 0
 0 -17 435 0 675 726 1066 196 195 433 0 724 +17 1066 0 675 435 432 189 201 643 0
 0 -17 195 0 816 214 198 189 435 433 0 1067 -15 816 1317 0 195 808 0 17 214 0 81
6 430 195 206 1067 411 0 1068 +17 198 0 816 195 430 196 209 410 0 435 -17 1067 0
 804 201 1069 189 214 411 0 1066 -15 804 1340 0 1067 799 0 17 201 0 804 1070 106
7 199 1066 643 0 419 +17 1069 0 804 1067 1070 206 416 413 0 0 -17 1070 0 804 106
9 201 202 419 417 0 416 -17 416 0 812 205 1068 202 1069 413 0 0 +15 812 1337 0 1
071 803 0 17 205 0 812 1071 416 203 212 426 0 1072 +17 1068 0 812 416 1071 206 4
30 420 0 1069 -17 1071 0 812 1068 205 207 424 422 0 0 -17 430 0 816 198 214 207
 1068 420 0 1071 +17 424 0 28 49 209 203 1071 422 0 0 +17 49 0 28 727 424 47 107
2 414 0 1073 +17 209 0 28 424 724 207 198 410 0 430 +17 1072 0 809 212 1073 203
 49 414 0 424 -17 1073 0 809 1072 419 47 432 428 0 728 -15 809 1321 0 1073 805 0
 17 419 0 809 1073 212 199 1070 417 0 432 +17 432 0 675 1066 728 199 1073 428 0
 0 +17 728 0 675 432 409 47 727 725 0 0 -17 409 0 675 728 733 217 216 407 0 727
 +17 733 0 675 409 406 210 222 645 0 0 -17 216 0 800 235 219 210 409 407 0 1074
 -15 800 1511 0 216 792 0 17 235 0 800 404 216 227 1074 385 0 1075 +17 219 0 800
 216 404 217 230 384 0 409 -17 1074 0 788 222 1076 210 235 385 0 733 -15 788 153
4 0 1074 784 0 17 222 0 788 1077 1074 220 733 645 0 393 +17 1076 0 788 1074 1077
 227 390 387 0 0 -17 1077 0 788 1076 222 223 393 391 0 390 -17 390 0 796 226 107
5 223 1076 387 0 0 +15 796 1531 0 1078 787 0 17 226 0 796 1078 390 224 233 400 0
 731 +17 1075 0 796 390 1078 227 404 394 0 1076 -17 1078 0 796 1075 226 228 398
 396 0 0 -17 404 0 800 219 235 228 1075 394 0 1078 +17 398 0 28 46 230 224 1078
 396 0 0 +17 230 0 28 398 727 228 219 384 0 404 +17 233 0 793 393 731 223 226 40
0 0 1077 -17 731 0 793 233 732 224 46 388 0 398 -15 793 1515 0 732 789 0 17 732
 0 793 731 393 42 406 402 0 730 -17 393 0 793 732 233 220 1077 391 0 406 +17 212
 0 809 419 1072 202 205 426 0 1070 -17 191 0 825 445 1064 181 184 452 0 1062 -17
 170 0 841 471 1056 160 163 478 0 1054 -82 1 769 634585201 17 254 0 749 367 746
 244 247 374 0 742 -17 128 0 714 523 710 118 121 530 0 706 -17 109 0 681 560 91
 101 683 541 0 684 +17 282 0 297 279 298 280 293 325 0 305 -15 672 2286 0 24 620
 0 50 601 24 0 620 617 20 0 +0 0 0 0 0 1 1 0 0 17 24 0 672 24 24 0 664 10 0 0 +1
7 664 0 658 664 664 0 24 10 0 0 -82 1 671 164626545 82 1 668 166592627 82 1 662
 1071644787 141 602 588 1079 1079 20 141 1079 600 602 602 20 19 17 32 0 1 0 9 5
 S0 81 2 18 2305 1080 6 0 0 0 0 1081 1082 80 2 1080 1083 1084 8044 0 0 0 0 3 5 0
 0 0 FFFFTFFFTTFFFF3 2 84 255 6 1081 BAAAAB83 3 1082 -.000500000000000007 0 .000
500000000000011 79 17 1084 SDL/TYSA_BLEND_ID74 4 CI16 index_map_offset0 0 1 dCCZ
20 15 10 0 0 914 1085 1086 18 1087 1088 1089 13 660 2 0 0 0 0 0 0 0 0 0 0 81 2 1
085 2190 1090 1 0 1086 0 0 0 1091 81 2 1086 2192 1092 1 1085 1087 0 0 0 1093 81
 1 1087 2311 1094 1 1086 1088 0 0 1095 81 2 1088 2362 1096 1 1087 1089 0 0 1097
 0 81 2 1089 2595 1098 1 1088 13 0 0 0 1099 81 2 13 2598 1100 1 1089 2 0 0 0 0 8
0 2 1100 1101 1102 9000 0 0 0 0 3 5 0 0 0 FFTFFFFFFFFFFF9 1 79 16 1102 BODY_RECI
PE_200180 2 1098 1103 1104 9000 0 0 0 0 3 5 0 0 0 FFTFFFFFFFFFFF9 1 82 1 1099 1
 79 24 1104 BODY_IN_LIGHTWEIGHT_PERM80 2 1096 1105 1106 8004 0 0 0 0 3 5 0 0 0 F
FTFFFFFFFFFFF2 3 83 1 1097 1 79 16 1106 SDL/TYSA_DENSITY80 1 1094 1107 1108 9000
 1 1 1 1 1 1 1 1 0 FFTFFFFFFFFFFF1 82 1 1095 2510 79 10 1108 BODY_MATCH80 2 1092
 1109 1110 9000 0 0 0 0 3 5 0 0 0 FFTFFFFFFFFFFF9 1 82 1 1093 69 79 30 1110 LAST
_BODY_MODIFYING_FEATURE_ID80 2 1090 1111 1112 9000 0 0 0 0 3 5 0 0 0 FFTFFFFFFFF
FFF9 1 82 1 1091 120 79 19 1112 ENT_TIME_STAMP_200180 2 12 1113 1114 9000 0 0 0
 0 3 5 0 0 0 FFTFFFFFFFFFFF9 1 82 1 14 104 79 12 1114 ATOM_ID_20011 0 
