**ABCDEFGHIJKLMNOPQRSTUVWXYZabcdefghijklmnopqrstuvwxyz**************************
**PARASOLID !"#$%&'()*+,-./:;<=>?@[\]^_`{|}~0123456789**************************
**PART1;
MC=AMD64;
MC_MODEL=Intel64 Family 6 Model 142 Stepping 12, GenuineIntel;
MC_ID=unknown;
OS=Windows_NT;
OS_RELEASE=unknown;
FRU=Parasolid Version 33.1, build 247,  8- 6-2021;
APPL=SOLIDWORKS 2022-2022009;
SITE=;
USER=unknown;
FORMAT=text;
GUISE=transmit;
KEY=FILE2 Speed shaft.x_t;
DATE=Thu Jun 15 05:41:35 2023;
**PART2;
SCH=SCH_3301247_33103;
USFLD_SIZE=0;
**PART3;
**END_OF_HEADER*****************************************************************
T51 : TRANSMIT FILE created by modeller version 330124723 SCH_3301247_33103_1300
6230 0 12 35 CCCI7 lattice222 0 CCCI4 mesh1006 0 I8 polyline1008 0 CCCCCCCDI5 ow
ner1040 0 CCCCCCI13 boundary_mesh1006 0 I17 boundary_polyline1008 0 CCCA16 index
_map_offset0 0 1 dA9 index_map82 0 A17 node_id_index_map82 0 A20 schema_embeddin
g_map82 0 A5 child12 0 A14 lowest_node_id0 0 1 dA16 mesh_offset_data206 0 Z1 382
 2 3 0 0 0 0 0 0 0 1e3 1e-8 0 4 0 1 0 1 1 5 6 7 8 0 0 9 10 11 0 0 0 0 0 0 0 81 2
55 2 2 371 12 1 13 0 0 0 0 14 70 11 CI9 list_type0 0 1 uI10 notransmit0 0 1 lCCC
DCCDI12 finger_index0 0 1 dI12 finger_block1012 0 CZ3 0 4 T1 0 0 8 20 1 15 15 13
 255 5 99 0 1 0 16 0 0 17 0 50 255 6 94 0 18 19 0 0 +-.002 .007 .03 1 1891523342
216895e-31 0 -1891523342216895e-31 1 0 30 255 7 160 0 10 20 0 0 +-.002 .007 .01
 -1 0 0 29 255 8 143 0 11 21 0 -.002 .007 .02 19 8 CCCCCCCA5 owner12 0 Z9 33 0 1
 17 0 22 V0 16 255 10 158 0 ?23 0 24 7 0 0 1 18 255 11 141 0 25 0 26 8 ?1 17 255
 25 0 27 28 29 11 30 31 0 32 -18 26 30 0 33 11 34 35 ?1 17 33 0 36 37 38 26 39 4
0 0 41 +18 34 27 0 38 26 42 43 ?1 29 35 32 0 26 43 44 -.002 .007 .03 29 43 29 0
 34 45 35 .002 .007 .03 29 44 78 0 46 35 47 -.002 .00470724019463634 0 18 46 69
 0 48 49 50 44 ?1 29 47 77 0 49 44 51 .002 .00470724019463634 0 18 49 68 0 52 53
 46 47 ?1 29 51 76 0 53 47 21 .002 .007 0 18 53 67 0 54 55 49 51 ?1 29 21 75 0 5
5 51 8 -.002 .007 0 18 55 66 0 56 57 53 21 ?1 17 56 0 58 59 60 55 61 62 0 63 +18
 57 21 0 64 42 55 65 ?1 17 64 0 66 67 68 57 69 70 0 37 -18 42 24 0 69 34 57 45 ?
1 29 65 23 0 57 71 45 -.002 .00470724019463634 .03 29 71 279 0 50 72 65 -.002 .0
07 .01 29 45 26 0 42 65 43 .002 .00470724019463634 .03 18 50 230 0 23 46 73 71 ?
1 29 72 280 0 73 74 71 .002 .007 .01 18 73 232 0 75 50 76 72 ?1 29 74 281 0 76 7
7 72 -.002 .00470724019463634 .01 18 76 228 0 78 73 79 74 ?1 29 77 282 0 79 80 7
4 .002 .00470724019463634 .01 18 79 235 0 81 76 82 77 ?1 29 80 284 0 82 83 77 .0
02 .007 .02 18 82 231 0 28 79 84 80 ?1 29 83 285 0 84 85 80 -.002 .0047072401946
3634 .02 18 84 234 0 29 82 86 83 ?1 29 85 286 0 86 0 83 .002 .00470724019463634
 .02 18 86 229 0 87 84 0 85 ?1 17 87 0 27 29 28 86 88 89 0 90 -15 255 27 245 0 2
8 91 0 17 29 0 27 25 87 84 90 92 0 30 +17 28 0 27 87 25 82 32 24 0 88 -17 88 0 9
3 94 95 82 87 89 0 96 +16 89 210 0 ?88 31 97 98 0 0 1 17 90 0 66 68 67 86 29 92
 0 95 -15 66 290 0 67 99 100 17 68 0 66 64 90 42 95 101 0 102 -17 67 0 66 90 64
 84 103 104 0 0 +16 92 202 0 ?29 97 0 105 0 0 1 17 95 0 93 88 102 86 68 101 0 0
 +15 93 85 0 95 106 0 17 102 0 93 95 94 42 38 107 0 0 -16 101 81 0 ?95 108 109 1
10 109 109 1 16 108 181 0 ?48 104 101 111 104 104 1 16 109 167 0 ?52 101 112 110
 101 101 1 30 110 97 0 101 113 111 0 +.002 .00470724019463634 .03 0 0 -1 30 113
 96 0 112 114 110 0 +.002 .007 .03 0 0 -1 30 111 98 0 104 110 20 0 +-.002 .00470
724019463634 .03 0 0 -1 16 104 82 0 ?67 24 108 111 108 108 1 30 20 155 0 24 111
 7 0 +-.002 .007 .02 -1 0 0 16 24 153 0 ?32 10 104 20 0 0 1 17 32 0 115 41 96 11
 28 24 0 116 +15 115 83 0 96 117 0 17 41 0 115 39 32 26 116 118 0 119 -17 96 0 1
15 32 39 82 94 112 0 0 +17 116 0 120 30 119 11 41 118 0 0 +15 120 89 0 116 18 0
 17 30 0 120 103 116 84 25 31 0 67 +17 119 0 120 116 103 26 37 121 0 0 -16 118 7
9 0 ?116 122 62 114 62 62 1 16 122 151 0 ?54 112 118 113 112 112 1 16 62 145 0 ?
56 118 40 114 118 118 1 30 114 95 0 118 123 113 0 +-.002 .007 .03 0 0 -1 30 123
 71 0 124 125 114 0 +-.002 .007 0 -1 0 0 16 124 50 0 ?63 121 126 123 0 0 1 30 12
5 72 0 126 127 123 0 +.002 .007 0 0 1 0 16 126 54 0 ?128 124 129 125 0 0 1 31 25
5 127 73 0 129 130 125 0 +0 0 0 0 0 1 1 0 0 .0051145 16 129 58 0 ?131 126 132 12
7 0 0 1 30 130 74 0 132 133 127 0 +-.002 .007 0 1891523342216895e-31 -1 0 16 132
 62 0 ?59 129 134 130 0 0 1 30 133 19 0 40 135 130 0 +-.002 .007 .03 -1 0 0 16 4
0 17 0 ?33 62 107 133 0 0 1 30 135 15 0 107 136 133 0 +.002 .007 .03 0 1 0 16 10
7 13 0 ?38 40 70 135 0 0 1 31 136 11 0 70 137 135 0 +0 0 .03 0 0 1 1 0 0 .005114
5 16 70 9 0 ?69 107 121 136 0 0 1 30 137 7 0 121 138 136 0 +-.002 .007 .03 18915
23342216895e-31 -1 0 16 121 5 0 ?37 70 124 137 0 0 1 30 138 271 0 134 139 137 0
 +-.002 .007 .01 1891523342216895e-31 -1 0 16 134 215 0 ?78 132 140 138 0 0 1 30
 139 272 0 140 141 138 0 +.002 .007 .01 0 1 0 16 140 219 0 ?75 134 31 139 0 0 1
 30 141 273 0 31 98 139 0 +-.002 .007 .02 1891523342216895e-31 -1 0 16 31 209 0
 ?30 140 89 141 0 0 1 30 98 274 0 89 105 141 0 +.002 .007 .02 0 1 0 31 105 277 0
 92 142 98 0 +0 0 .02 0 0 1 1 0 0 .0051145 31 142 278 0 97 0 105 0 +0 0 .01 0 0
 1 1 0 0 .0051145 16 97 205 0 ?143 89 92 142 0 0 1 17 143 0 100 48 144 76 81 97
 0 145 +15 100 87 0 143 99 0 17 48 0 100 131 143 46 145 108 0 146 +17 144 0 100
 143 131 79 52 109 0 0 -17 81 0 147 75 78 79 143 97 0 148 -17 145 0 58 60 59 76
 48 108 0 0 -15 58 198 0 60 16 0 17 60 0 58 56 145 50 78 134 0 61 -17 59 0 58 14
5 56 46 149 132 0 0 +17 149 0 150 151 146 55 59 132 0 0 -15 150 49 0 149 152 0 1
7 151 0 150 153 149 53 63 124 0 0 -17 146 0 150 149 153 46 131 129 0 59 -17 153
 0 150 146 151 49 128 126 0 0 -17 131 0 100 144 48 49 146 129 0 153 +17 128 0 15
4 155 52 53 153 126 0 151 +15 154 174 0 148 156 0 17 155 0 154 148 128 73 54 122
 0 0 -17 52 0 154 128 148 49 144 109 0 131 +17 148 0 154 52 155 79 75 140 0 144
 -17 75 0 147 23 81 73 148 140 0 157 +15 147 242 0 78 158 0 17 23 0 147 78 75 50
 157 10 0 60 +17 157 0 159 54 61 73 23 10 0 155 -15 159 159 0 157 160 0 17 54 0
 159 63 157 53 155 122 0 128 +17 61 0 159 157 63 50 56 62 0 0 -17 63 0 159 61 54
 55 151 124 0 149 +14 255 160 161 161 ?18 156 159 5 162 -117 117 18 156 22 81 1
 161 372 163 160 164 0 0 165 166 14 18 90 165 ?99 160 120 5 6 -16 16 99 160 22 1
4 156 175 167 ?160 16 154 5 168 -106 106 160 16 22 50 162 91 0 117 169 168 0 +-.
002 .007 .03 0 -1 0 0 0 -1 14 117 84 170 ?171 106 115 5 162 -160 160 171 106 22
 13 22 34 0 0 0 0 0 0 9 16 14 16 199 172 ?156 0 58 5 6 -18 18 156 0 22 81 1 172
 376 163 16 173 0 170 174 175 80 255 1 163 176 177 9000 1 1 1 1 1 1 1 1 0 FFFFTF
TFFFFFFF1 81 1 173 336 178 16 0 172 0 179 180 81 1 170 375 163 117 181 0 167 172
 182 81 1 174 377 163 99 183 0 172 184 185 82 255 1 175 1240531057 14 99 88 174
 ?106 18 66 5 19 -0 0 106 18 22 81 1 183 340 178 99 0 174 186 187 188 81 1 184 3
78 163 106 187 0 174 189 190 82 1 185 -1572142991 14 106 86 184 ?117 99 93 5 168
 -156 156 117 99 22 81 1 187 341 178 106 0 184 183 181 191 81 1 189 379 163 158
 192 0 184 193 194 82 1 190 -1572405135 14 158 240 189 ?91 152 147 5 195 +0 0 91
 152 22 81 1 192 345 178 158 0 189 196 197 198 81 1 193 380 163 91 197 0 189 199
 200 82 1 194 1235943537 14 91 243 193 ?0 158 27 5 201 -0 0 0 158 22 81 1 197 34
6 178 91 0 193 192 0 202 81 1 199 381 163 171 203 0 193 204 205 82 1 200 1234108
529 14 171 1 199 ?152 117 36 5 206 +0 0 152 117 22 81 1 203 343 178 171 0 199 18
1 196 207 81 1 204 382 163 152 196 0 199 0 208 82 1 205 -1579220883 14 152 48 20
4 ?158 171 150 5 169 -0 0 158 171 22 81 1 196 344 178 152 0 204 203 192 209 82 1
 208 -1573584787 80 1 178 0 210 8001 0 0 0 0 3 5 0 0 0 FFFFTFTFFFFFFF2 83 255 3
 209 .63921568627451 .4 .211764705882353 79 255 15 210 SDL/TYSA_COLOUR50 169 70
 0 152 206 162 0 +0 0 0 0 0 1 1 0 0 50 206 3 0 171 201 169 0 +0 0 .03 0 0 1 1 0
 0 50 201 266 0 91 195 206 0 +0 0 .02 0 0 1 1 0 0 50 195 267 0 158 0 201 0 +0 0
 .01 0 0 1 1 0 0 81 1 181 342 178 117 0 170 187 203 211 83 3 207 .63921568627451
 .4 .211764705882353 83 3 211 .63921568627451 .4 .211764705882353 15 36 4 0 37 1
71 0 17 37 0 36 69 33 57 119 121 0 103 +17 69 0 36 38 37 42 64 70 0 68 +17 103 0
 120 119 30 57 67 104 0 0 -17 38 0 36 33 69 34 102 107 0 94 +17 94 0 93 102 88 3
4 96 112 0 39 -16 112 80 0 ?96 109 122 113 122 122 1 17 39 0 115 96 41 34 33 40
 0 0 -83 3 202 .63921568627451 .4 .211764705882353 83 3 198 .63921568627451 .4 .
211764705882353 83 3 191 .63921568627451 .4 .211764705882353 50 168 92 0 106 162
 19 0 +.002 .007 .03 -1 0 0 0 0 1 51 255 19 93 0 99 168 6 0 -0 0 .03 0 0 -1 .005
1145 -1 0 0 81 1 186 339 178 18 0 165 164 183 212 83 3 188 .63921568627451 .4 .2
11764705882353 81 1 165 373 163 18 186 0 161 167 213 81 1 164 338 178 160 0 161
 179 186 214 83 3 212 .63921568627451 .4 .211764705882353 81 1 179 337 178 156 0
 167 173 164 215 83 3 214 .63921568627451 .4 .211764705882353 81 1 167 374 163 1
56 179 0 165 170 216 83 3 215 .63921568627451 .4 .211764705882353 82 1 216 12373
85329 82 1 213 -1571880847 82 1 182 -1572667279 83 3 180 .63921568627451 .4 .211
764705882353 79 14 177 SWEntUnchanged82 1 166 1232273521 17 78 0 147 81 23 76 60
 134 0 143 +19 17 100 0 1 0 9 5 S0 74 4 CI16 index_map_offset0 0 1 dCCZ20 15 8 0
 0 217 218 204 219 220 13 197 2 0 0 0 0 0 0 0 0 0 0 0 0 81 2 217 124 221 1 0 218
 0 0 0 222 81 2 218 128 223 1 217 219 0 0 0 224 81 1 219 307 225 1 218 220 0 0 2
26 81 2 220 319 227 1 219 13 0 0 0 228 81 2 13 333 229 1 220 2 0 0 0 0 80 2 229
 230 231 9000 0 0 0 0 3 5 0 0 0 FFTFFFFFFFFFFF9 1 79 16 231 BODY_RECIPE_200180 2
 227 232 233 9000 0 0 0 0 3 5 0 0 0 FFTFFFFFFFFFFF9 1 82 1 228 1 79 24 233 BODY_
IN_LIGHTWEIGHT_PERM80 1 225 234 235 9000 1 1 1 1 1 1 1 1 0 FFTFFFFFFFFFFF1 82 1
 226 41437 79 10 235 BODY_MATCH80 2 223 236 237 9000 0 0 0 0 3 5 0 0 0 FFTFFFFFF
FFFFF9 1 82 1 224 62 79 30 237 LAST_BODY_MODIFYING_FEATURE_ID80 2 221 238 239 90
00 0 0 0 0 3 5 0 0 0 FFTFFFFFFFFFFF9 1 82 1 222 109 79 19 239 ENT_TIME_STAMP_200
180 2 12 240 241 9000 0 0 0 0 3 5 0 0 0 FFTFFFFFFFFFFF9 1 82 1 14 103 79 12 241
 ATOM_ID_20011 0 
