**ABCDEFGHIJKLMNOPQRSTUVWXYZabcdefghijklmnopqrstuvwxyz**************************
**PARASOLID !"#$%&'()*+,-./:;<=>?@[\]^_`{|}~0123456789**************************
**PART1;
MC=AMD64;
MC_MODEL=Intel64 Family 6 Model 142 Stepping 12, GenuineIntel;
MC_ID=unknown;
OS=Windows_NT;
OS_RELEASE=unknown;
FRU=Parasolid Version 33.1, build 247,  8- 6-2021;
APPL=SOLIDWORKS 2022-2022009;
SITE=;
USER=unknown;
FORMAT=text;
GUISE=transmit;
KEY=FILE3 Output Shaft.x_t;
DATE=Thu Jun 15 05:41:40 2023;
**PART2;
SCH=SCH_3301247_33103;
USFLD_SIZE=0;
**PART3;
**END_OF_HEADER*****************************************************************
T51 : TRANSMIT FILE created by modeller version 330124723 SCH_3301247_33103_1300
6230 0 12 35 CCCI7 lattice222 0 CCCI4 mesh1006 0 I8 polyline1008 0 CCCCCCCDI5 ow
ner1040 0 CCCCCCI13 boundary_mesh1006 0 I17 boundary_polyline1008 0 CCCA16 index
_map_offset0 0 1 dA9 index_map82 0 A17 node_id_index_map82 0 A20 schema_embeddin
g_map82 0 A5 child12 0 A14 lowest_node_id0 0 1 dA16 mesh_offset_data206 0 Z1 540
 2 3 0 0 0 0 0 0 0 1e3 1e-8 0 4 0 1 0 1 1 5 6 7 8 0 0 9 10 11 0 0 0 0 0 0 0 81 2
55 2 2 527 12 1 13 0 0 0 0 14 70 11 CI9 list_type0 0 1 uI10 notransmit0 0 1 lCCC
DCCDI12 finger_index0 0 1 dI12 finger_block1012 0 CZ3 0 4 T1 0 0 10 20 1 15 15 1
3 255 5 99 0 1 0 16 0 0 17 0 52 255 6 405 18 19 20 0 0 +0 0 .04 0 0 -1 .0045 .70
7106781186549 .707106781186546 -1 0 0 31 255 7 387 0 10 21 0 0 -0 0 .0395 0 0 1
 1 0 0 .005 29 255 8 194 0 11 22 0 .0015 .00476969600708473 .035 19 8 CCCCCCCA5
 owner12 0 Z9 33 0 1 17 0 23 V0 16 255 10 384 0 ?24 0 25 7 0 0 1 18 255 11 192 0
 26 0 27 8 ?1 17 255 26 0 28 29 30 11 31 32 0 33 -18 27 30 0 34 11 35 36 ?1 17 3
4 0 37 38 39 27 40 41 0 42 +18 35 27 0 39 27 43 44 ?1 29 36 32 0 27 44 45 -.002
 .007 .01 29 44 29 0 35 46 36 .002 .007 .01 29 45 78 0 47 36 48 -.002 .004582575
69495584 0 18 47 69 0 49 50 51 45 ?1 29 48 77 0 50 45 52 .002 .00458257569495584
 0 18 50 68 0 53 54 47 48 ?1 29 52 76 0 54 48 22 .002 .007 0 18 54 67 0 55 56 50
 52 ?1 29 22 75 0 56 52 8 -.002 .007 0 18 56 66 0 57 43 54 22 ?1 17 57 0 58 42 5
9 56 60 61 0 62 +18 43 21 0 38 35 56 46 ?1 17 38 0 37 63 34 43 64 65 0 66 +29 46
 23 0 43 67 44 -.002 .00458257569495584 .01 29 67 176 0 51 68 46 .002 .004582575
69495584 .01 18 51 155 0 69 47 70 67 ?1 29 68 320 0 70 71 67 -.0015 .00476969600
708473 .03 18 70 255 0 72 51 73 68 ?1 29 71 321 0 73 74 68 -.0015 .0047696960070
8473 .035 18 73 256 0 75 70 76 71 ?1 29 74 323 0 76 77 71 .0015 .004769696007084
73 .03 18 76 250 0 29 73 78 74 ?1 29 77 324 0 78 79 74 .0015 .0035 .03 18 78 251
 0 80 76 81 77 ?1 29 79 325 0 81 82 77 .0015 .0035 .035 18 81 254 0 31 78 83 79
 ?1 29 82 326 0 83 84 79 -.0015 .0035 .035 18 83 253 0 85 81 86 82 ?1 29 84 327
 0 86 0 82 -.0015 .0035 .03 18 86 252 0 87 83 0 84 ?1 17 87 0 88 89 72 86 90 91
 0 92 +15 255 88 265 0 72 93 0 17 89 0 88 94 87 78 95 96 0 0 -17 72 0 88 87 94 7
0 97 98 0 90 +17 90 0 99 75 92 70 87 91 0 100 -16 91 218 0 ?87 101 102 103 0 0 1
 17 92 0 99 90 85 86 104 105 0 95 -15 99 269 0 75 106 0 17 85 0 99 92 75 83 107
 102 0 104 +17 104 0 108 109 95 83 92 105 0 110 +16 105 219 0 ?104 111 96 112 0
 0 1 17 95 0 108 104 113 86 89 96 0 0 +15 108 299 0 95 114 0 17 113 0 108 95 109
 78 30 115 0 89 +16 96 215 0 ?95 105 0 116 0 0 1 31 116 315 0 96 0 112 0 +881855
534454723e-33 .0035 .03 0 1 0 0 0 1 .0015 30 255 112 314 0 105 116 117 0 +-.0015
 .0035 .03 -173472347597681e-30 0 1 31 117 313 0 111 112 118 0 +2695321348810475
e-34 .0035 .035 0 1 0 0 0 1 .0015 16 111 223 0 ?109 115 105 117 0 0 1 30 118 312
 0 115 117 119 0 +.0015 .0035 .03 867361737988404e-31 0 -1 16 115 227 0 ?113 120
 111 118 0 0 1 30 119 311 0 120 118 121 0 +.0015 .007 .03 0 -1 0 16 120 214 0 ?8
0 32 115 119 0 0 1 30 121 310 0 32 119 122 0 +.0015 .007 .035 0 -1 0 16 32 226 0
 ?31 102 120 121 0 0 1 30 122 309 0 102 121 103 0 +-.0015 .007 .035 0 -1 0 16 10
2 222 0 ?85 91 32 122 0 0 1 30 103 308 0 91 122 123 0 +-.0015 .007 .03 0 -1 0 31
 123 173 0 101 103 124 0 +0 0 .01 0 0 1 1 0 0 .005 16 101 146 0 ?125 126 91 123
 0 0 1 30 124 7 0 65 123 127 0 +-.002 .007 .01 538193731347811e-30 -1 0 16 65 5
 0 ?38 128 61 124 0 0 1 30 127 15 0 128 124 129 0 +.002 .007 .01 17939791044927e
-29 1 0 16 128 13 0 ?39 41 65 127 0 0 1 30 129 19 0 41 127 130 0 +-.002 .007 .01
 -1 0 0 16 41 17 0 ?34 131 128 129 0 0 1 30 130 74 0 126 129 132 0 +-.002 .007 0
 538193731347811e-30 -1 0 16 126 62 0 ?133 134 101 130 0 0 1 31 132 73 0 134 130
 135 0 +0 0 0 0 0 1 1 0 0 .005 16 134 58 0 ?53 136 126 132 0 0 1 30 135 72 0 136
 132 137 0 +.002 .007 0 17939791044927e-29 1 0 16 136 54 0 ?55 61 134 135 0 0 1
 30 137 71 0 61 135 138 0 +-.002 .007 0 -1 0 0 16 61 50 0 ?57 65 136 137 0 0 1 3
0 138 95 0 131 137 139 0 +-.002 .007 .01 0 0 -1 16 131 79 0 ?62 140 41 138 0 0 1
 30 139 96 0 140 138 141 0 +.002 .007 .01 0 0 -1 16 140 80 0 ?59 142 131 139 0 0
 1 30 141 97 0 142 139 143 0 +.002 .00458257569495584 .01 0 0 -1 16 142 81 0 ?14
4 145 140 141 0 0 1 30 143 98 0 145 141 146 0 +-.002 .00458257569495584 .01 0 0
 -1 16 145 82 0 ?147 148 142 143 0 0 1 30 146 198 0 148 143 149 0 +.0015 .004769
69600708473 .01 0 0 -1 16 148 196 0 ?29 150 145 146 0 0 1 38 12 CCCCCCCCCCCA17 i
ntersection_data204 0 Z149 202 0 150 146 151 0 +152 153 154 155 156 157 16 150 2
00 0 ?33 158 148 149 0 0 1 30 151 206 0 158 149 159 0 --.0015 .00476969600708473
 .01 0 0 -1 51 255 152 93 0 16 160 20 161 -0 0 .01 0 0 -1 .005 -1 0 0 51 153 304
 0 162 163 164 165 -2695321348810475e-34 .007 .035 0 -1 0 .0015 0 0 -1 40 255 11
 154 0 1 11 902926826651781e-19 .350967418458102 ??-.0015 .00476969600708473 .03
5 -.00141987650386866 .00479415797755578 .0354836845188361 -.001190463208791202
 .00485621224294352 .0359125773109795 -.000825405268983783 .00493140001844647 .0
3625247999662025 -.000356464197456522 .00498727714047772 .0364570289207602 .0001
419196271331936 .00499798547611279 .0364932711808089 .000608883420918945 .004962
78762186435 .0363708614006274 .001014651818238524 .00489596585851508 .0361047541
2999695 .001322940691016312 .00482180753743379 .0357069850974761 .00148352640288
205 .00477484548566253 .035221696666533 .0015 .00476969600708473 .035 41 3 CI8 t
erm_use0 0 1 cCZ1 155 L?-.0015 .00476969600708473 .035 41 1 156 L?.0015 .0047696
9600708473 .035 204 2 17 INTERSECTION_DATA17 Intersection data7 uv_type0 0 1 u6
 values0 1 1 fT44 157 4 1.2661036727795 -.025 4.71238898038469 .0022303039929152
75 1.282858763730972 -.0254836845188361 4.38406567885845 .002205842022444225 1.3
30394783238542 -.0259125773109795 4.05836506172227 .00214378775705648 1.40495613
4726272 -.02625247999662025 3.724280430190765 .002068599981553535 1.499442955769
588 -.0264570289207602 3.381531060536205 .002012722859522275 1.59918406484238 -.
0264932711808089 3.046837840192785 .002002014523887215 1.692876019893465 -.02637
08614006274 2.72360488709513 .00203721237813565 1.775145955409135 -.026104754129
99695 2.398681909047105 .002104034141484925 1.83857314170812 -.0257069850974761
 2.0615870231063 .002178192462566215 1.872037043224325 -.025221696666533 1.71913
7550581335 .00222515451433747 1.875488980810295 -.025 1.570796326794895 .0022303
03992915275 14 255 162 270 166 ?167 106 168 5 153 +0 0 167 106 23 50 255 163 305
 0 167 169 153 0 +.0015 .007 .03 -1 0 -867361737988404e-31 -867361737988404e-31
 0 1 50 164 303 0 106 153 170 0 +-.0015 .007 .03 1 0 173472347597681e-30 1734723
47597681e-30 0 -1 141 255 165 149 165 165 153 14 106 266 171 ?162 93 99 5 164 +0
 0 162 93 23 51 170 302 0 93 164 172 173 -881855534454723e-33 .007 .03 0 -1 0 .0
015 0 0 -1 14 93 262 174 ?106 175 88 5 170 +0 0 106 175 23 50 172 172 0 175 170
 176 0 +0 0 .04 0 0 1 1 0 0 141 173 159 173 173 170 38 159 209 0 98 151 21 0 +15
2 170 177 178 179 180 16 98 207 0 ?72 25 158 159 0 0 1 31 21 381 0 25 159 7 0 +0
 0 .04 0 0 1 1 0 0 .0045 40 11 177 0 1 11 902926826651789e-19 .350967418458106 ?
?.0015 .00476969600708473 .03 .00141987650386866 .00479415797755578 .02951631548
11639 .0011904632087912 .00485621224294352 .0290874226890205 .000825405268983783
 .00493140001844647 .0287475200033798 .0003564641974565245 .00498727714047772 .0
285429710792398 -.0001419196271331926 .00499798547611279 .0285067288191911 -.000
608883420918945 .00496278762186435 .02862913859937265 -.001014651818238524 .0048
9596585851508 .0288952458700031 -.001322940691016312 .00482180753743379 .0292930
149025239 -.00148352640288205 .00477484548566253 .029778303333467 -.0015 .004769
69600708473 .03 41 1 178 L?.0015 .00476969600708473 .03 41 1 179 L?-.0015 .00476
969600708473 .03 204 44 180 4 1.875488980810295 -.02 1.570796326794895 .00223030
3992915275 1.85873388985882 -.0195163154811639 1.24247302526866 .002205842022444
225 1.81119787035125 -.0190874226890205 .916772408132476 .00214378775705648 1.73
663651886352 -.0187475200033798 .582687776600974 .002068599981553535 1.642149697
820205 -.0185429710792398 .239938406946413 .002012722859522275 1.542408588747415
 -.0185067288191911 6.18843049378258 .002002014523887215 1.44871663369633 -.0186
2913859937265 5.86519754068492 .00203721237813565 1.366446698180656 -.0188952458
700031 5.5402745626369 .002104034141484925 1.303019511881674 -.0192930149025239
 5.20317967669609 .002178192462566215 1.26955561036547 -.019778303333467 4.86073
020417112 .00222515451433747 1.2661036727795 -.02 4.71238898038469 .002230303992
915275 16 25 378 0 ?181 10 98 21 0 0 1 17 181 0 182 181 181 0 183 25 0 0 +15 182
 379 0 181 175 0 17 183 0 184 183 183 0 181 25 0 0 -15 184 400 0 183 19 0 14 19
 398 185 ?0 114 186 5 6 +0 0 0 114 23 81 1 185 531 187 19 188 0 174 189 190 14 1
14 297 189 ?19 167 108 5 169 +0 0 19 167 23 15 186 399 0 191 19 184 13 23 34 0 0
 0 0 0 0 9 16 14 16 210 192 ?193 0 194 5 152 -0 0 193 0 23 81 1 192 533 187 16 1
95 0 189 196 197 14 193 90 196 ?198 16 199 5 20 -0 0 198 16 23 15 194 385 0 24 1
6 200 17 24 0 194 24 24 0 191 10 0 0 +15 200 87 0 53 16 201 17 53 0 200 202 147
 50 49 134 0 144 +15 201 208 0 97 16 0 17 97 0 201 203 100 76 72 98 0 0 -17 203
 0 201 204 97 11 29 148 0 0 -17 100 0 201 97 204 70 75 158 0 0 -17 204 0 201 100
 203 73 33 150 0 0 -17 75 0 99 85 90 73 100 158 0 107 +16 158 204 0 ?75 98 150 1
51 0 0 1 17 107 0 168 33 110 73 85 102 0 204 -15 168 273 0 33 162 0 17 33 0 168
 31 107 11 204 150 0 203 +17 110 0 168 107 31 83 109 111 0 0 -17 31 0 168 110 33
 81 26 32 0 109 +17 109 0 108 113 104 81 110 111 0 30 +17 30 0 28 26 80 81 113 1
15 0 0 -15 28 277 0 29 167 0 17 80 0 28 30 29 78 94 120 0 113 +17 29 0 28 80 26
 76 203 148 0 94 +17 94 0 88 72 89 76 80 120 0 97 -14 167 274 205 ?114 162 28 5
 163 +0 0 114 162 23 81 1 205 535 187 167 206 0 196 207 208 80 255 1 187 209 210
 9000 1 1 1 1 1 1 1 1 0 FFFFTFTFFFFFFF1 81 1 206 496 211 167 0 205 212 213 214 8
1 1 196 534 187 193 215 0 192 205 216 81 1 207 536 187 175 217 0 205 218 219 82
 255 1 208 2117271661 14 175 162 207 ?93 220 182 5 172 +0 0 93 220 23 81 1 217 4
92 211 175 0 207 221 222 223 81 1 218 537 187 224 225 0 207 226 227 82 1 219 -14
66695569 14 224 1 218 ?220 228 37 5 176 +0 0 220 228 23 81 1 225 490 211 224 0 2
18 229 221 230 81 1 226 538 187 220 221 0 218 231 232 82 1 227 -2086797206 14 22
0 48 226 ?175 224 233 5 234 -0 0 175 224 23 81 1 221 491 211 220 0 226 225 217 2
35 81 1 231 539 187 228 229 0 226 236 237 82 1 232 -2081161113 14 228 84 231 ?22
4 198 58 5 238 -0 0 224 198 23 81 1 229 489 211 228 0 231 239 225 240 81 1 236 5
40 187 198 239 0 231 0 241 82 1 237 -2080243609 14 198 86 236 ?228 193 242 5 160
 -0 0 228 193 23 81 1 239 488 211 198 0 236 215 229 243 82 1 241 -2079981465 80
 1 211 0 244 8001 0 0 0 0 3 5 0 0 0 FFFFTFTFFFFFFF2 81 1 215 487 211 193 0 196 1
95 239 245 83 255 3 243 .83921568627451 .466666666666667 .368627450980392 81 1 1
95 486 211 16 0 192 0 215 246 83 3 245 .83921568627451 .466666666666667 .3686274
50980392 83 3 246 .83921568627451 .466666666666667 .368627450980392 79 255 15 24
4 SDL/TYSA_COLOUR15 242 85 0 55 198 0 50 160 92 0 198 238 152 0 +.002 .007 .01 -
1 17939791044927e-29 0 -17939791044927e-29 -1 0 50 238 91 0 228 234 160 0 +-.002
 .007 .01 0 -1 0 0 0 -1 50 234 70 0 220 176 238 0 +0 0 0 0 0 1 1 0 0 50 176 3 0
 224 172 234 0 +0 0 .01 0 0 1 1 0 0 17 55 0 242 247 144 54 248 136 0 59 +17 247
 0 242 69 55 35 59 140 0 40 -17 144 0 242 55 69 50 202 142 0 248 +17 248 0 233 4
9 60 50 55 136 0 0 -17 59 0 58 57 40 54 247 140 0 60 +15 58 83 0 57 228 0 17 40
 0 58 59 42 35 34 41 0 0 -17 60 0 233 248 249 54 57 61 0 0 -15 233 49 0 249 220
 0 17 249 0 233 60 49 56 133 126 0 0 -17 49 0 233 249 248 47 53 134 0 147 -17 13
3 0 199 66 62 47 249 126 0 0 +15 199 89 0 133 193 0 17 66 0 199 64 133 43 147 14
5 0 125 -17 62 0 199 133 64 56 42 131 0 249 +17 64 0 199 62 66 27 38 65 0 0 -17
 42 0 58 40 57 27 62 131 0 64 -17 147 0 200 53 125 47 66 145 0 133 +17 125 0 200
 147 202 43 63 101 0 0 +17 202 0 200 125 53 51 144 142 0 63 -17 63 0 37 39 38 51
 125 101 0 0 -15 37 142 0 63 224 0 17 39 0 37 34 63 35 69 128 0 247 +17 69 0 242
 144 247 51 39 128 0 202 -83 3 240 .83921568627451 .466666666666667 .36862745098
0392 83 3 235 .83921568627451 .466666666666667 .368627450980392 83 3 230 .839215
68627451 .466666666666667 .368627450980392 81 1 222 493 211 93 0 174 217 250 251
 83 3 223 .83921568627451 .466666666666667 .368627450980392 81 1 174 530 187 93
 222 0 171 185 252 81 1 250 494 211 106 0 171 222 212 253 83 3 251 .839215686274
51 .466666666666667 .368627450980392 81 1 171 529 187 106 250 0 166 174 254 81 1
 212 495 211 162 0 166 250 206 255 83 3 253 .83921568627451 .466666666666667 .36
8627450980392 81 1 166 528 187 162 212 0 0 171 256 83 3 255 .83921568627451 .466
666666666667 .368627450980392 82 1 256 2118058093 82 1 254 2118844525 82 1 252 2
119303277 82 1 216 -2079457174 81 1 213 497 211 114 0 189 206 188 257 83 3 214 .
83921568627451 .466666666666667 .368627450980392 81 1 189 532 187 114 213 0 185
 192 258 81 1 188 498 211 19 0 185 213 0 259 83 3 257 .83921568627451 .466666666
666667 .368627450980392 83 3 259 .83921568627451 .466666666666667 .3686274509803
92 82 1 258 2110062701 79 14 210 SWEntUnchanged17 191 0 186 191 191 0 24 10 0 0
 -50 20 94 0 193 152 6 0 +-.002 .007 .01 1 538193731347811e-30 0 -53819373134781
1e-30 1 0 82 1 197 2116157551 50 169 306 0 114 0 163 0 +881855534454723e-33 .003
5 .03 0 1 0 0 0 1 82 1 190 -1878327185 141 161 149 260 260 152 141 260 159 161 1
61 152 19 17 100 0 1 0 9 5 S0 81 2 18 406 261 6 0 0 0 0 262 263 80 2 261 264 265
 8044 0 0 0 0 3 5 0 0 0 FFFFTFFFTTFFFF3 2 84 255 6 262 BAAAAB83 3 263 0 5e-4 5e-
4 79 17 265 SDL/TYSA_BLEND_ID74 4 CI16 index_map_offset0 0 1 dCCZ20 15 10 0 0 23
6 266 267 18 268 269 270 13 188 2 0 0 0 0 0 0 0 0 0 0 81 2 266 181 271 1 0 267 0
 0 0 272 81 2 267 185 273 1 266 268 0 0 0 274 81 1 268 412 275 1 267 269 0 0 276
 81 2 269 427 277 1 268 270 0 0 278 0 81 2 270 480 279 1 269 13 0 0 0 280 81 2 1
3 483 281 1 270 2 0 0 0 0 80 2 281 282 283 9000 0 0 0 0 3 5 0 0 0 FFTFFFFFFFFFFF
9 1 79 16 283 BODY_RECIPE_200180 2 279 284 285 9000 0 0 0 0 3 5 0 0 0 FFTFFFFFFF
FFFF9 1 82 1 280 1 79 24 285 BODY_IN_LIGHTWEIGHT_PERM80 2 277 286 287 8004 0 0 0
 0 3 5 0 0 0 FFTFFFFFFFFFFF2 3 83 1 278 1 79 16 287 SDL/TYSA_DENSITY80 1 275 288
 289 9000 1 1 1 1 1 1 1 1 0 FFTFFFFFFFFFFF1 82 1 276 164764 79 10 289 BODY_MATCH
80 2 273 290 291 9000 0 0 0 0 3 5 0 0 0 FFTFFFFFFFFFFF9 1 82 1 274 62 79 30 291
 LAST_BODY_MODIFYING_FEATURE_ID80 2 271 292 293 9000 0 0 0 0 3 5 0 0 0 FFTFFFFFF
FFFFF9 1 82 1 272 109 79 19 293 ENT_TIME_STAMP_200180 2 12 294 295 9000 0 0 0 0
 3 5 0 0 0 FFTFFFFFFFFFFF9 1 82 1 14 103 79 12 295 ATOM_ID_20011 0 
