**ABCDEFGHIJKLMNOPQRSTUVWXYZabcdefghijklmnopqrstuvwxyz**************************
**PARASOLID !"#$%&'()*+,-./:;<=>?@[\]^_`{|}~0123456789**************************
**PART1;
MC=AMD64;
MC_MODEL=Intel64 Family 6 Model 142 Stepping 12, GenuineIntel;
MC_ID=unknown;
OS=Windows_NT;
OS_RELEASE=unknown;
FRU=Parasolid Version 33.1, build 247,  8- 6-2021;
APPL=SOLIDWORKS 2022-2022009;
SITE=;
USER=unknown;
FORMAT=text;
GUISE=transmit;
KEY=FILEBath mug -2003091.x_t;
DATE=Thu Jun 15 06:29:09 2023;
**PART2;
SCH=SCH_3301247_33103;
USFLD_SIZE=0;
**PART3;
**END_OF_HEADER*****************************************************************
T51 : TRANSMIT FILE created by modeller version 330124723 SCH_3301247_33103_1300
6230 0 12 35 CCCI7 lattice222 0 CCCI4 mesh1006 0 I8 polyline1008 0 CCCCCCCDI5 ow
ner1040 0 CCCCCCI13 boundary_mesh1006 0 I17 boundary_polyline1008 0 CCCA16 index
_map_offset0 0 1 dA9 index_map82 0 A17 node_id_index_map82 0 A20 schema_embeddin
g_map82 0 A5 child12 0 A14 lowest_node_id0 0 1 dA16 mesh_offset_data206 0 Z1 195
0 2 3 0 0 0 0 0 0 0 1e3 1e-8 0 4 0 1 0 1 1 5 6 7 8 0 0 9 10 11 0 0 0 0 0 0 0 81
 255 2 2 1890 12 1 13 0 0 0 0 14 70 11 CI9 list_type0 0 1 uI10 notransmit0 0 1 l
CCCDCCDI12 finger_index0 0 1 dI12 finger_block1012 0 CZ3 0 4 T1 0 0 10 20 1 15 1
5 13 255 5 41 0 1 0 16 0 0 17 0 51 255 6 735 0 18 19 0 0 +.0880477893199725 .155
 -520417042793042e-32 0 1 0 .006 0 0 1 133 255 7 1544 0 10 20 0 0 +20 -.0955 .15
75 -.008 -.0915 .06 3491587173831545e-31 0 .0983875763675952 29 255 8 1531 0 11
 21 0 -.0915 .06 121533519515422e-28 19 8 CCCCCCCA5 owner12 0 Z9 45 0 1 17 0 22
 V0 16 255 10 1542 0 ?23 0 24 7 0 0 1 18 255 11 1526 0 25 0 26 8 223183845024466
5e-21 1 17 255 25 0 27 28 29 11 30 24 0 31 -18 26 1302 0 32 11 33 21 ?1 17 32 0
 34 35 36 26 37 38 0 39 -18 33 1076 0 40 26 41 42 ?1 29 21 1306 0 26 42 8 -.0805
 .1505 -.01078461538461538 29 42 1078 0 33 43 21 -.0671043962792305 .1575 -.011
 29 43 1045 0 41 44 42 -.0634599483064909 .1505 -.011 18 41 1043 0 45 33 46 43 ?
1 29 44 774 0 46 47 43 .0897483172675598 .155 -.003620525472838815 18 46 772 0 4
8 41 49 44 ?1 29 47 704 0 49 50 44 .0905985812413534 .155 -.00543078820925822 18
 49 702 0 51 46 52 47 ?1 29 50 694 0 52 53 47 .0905985812413534 .16 -.0054307882
0925822 18 52 692 0 54 49 55 50 ?1 29 53 686 0 55 56 50 .0905985812413534 .155 .
00543078820925821 18 55 684 0 57 52 58 53 ?1 29 56 683 0 58 59 53 .0905985812413
534 .16 .00543078820925821 18 58 681 0 60 55 61 56 ?1 29 59 379 0 61 62 56 .0636
657166577818 .155 -.0114520381898179 18 61 377 0 63 58 64 59 ?1 29 62 369 0 64 6
5 59 .0638741128193387 .158006601118621 -.01135415640454776 18 64 366 0 66 61 67
 62 ?1 29 65 356 0 67 68 62 .0638741128193386 .158006601118621 .0113541564045478
 18 67 353 0 69 64 70 65 ?1 29 68 262 0 70 71 65 .0825052133816601 .16 591068366
762558e-32 18 70 260 0 72 67 73 68 ?1 29 71 130 0 73 74 68 .063579418344519 .137
2706935123042 0 18 73 128 0 75 70 76 71 ?1 29 74 329 0 77 78 71 .061179613395391
2 .16 -.0100164407204907 18 77 283 0 79 80 81 74 ?1 29 78 331 0 80 82 74 .061179
6133953912 .16 .01001644072049072 18 80 285 0 83 76 77 78 ?1 29 82 332 0 76 84 7
8 .0608469949351275 .1416455775876842 103306938927158e-31 18 76 284 0 85 73 80 8
2 ?1 29 84 617 0 81 86 82 .0880477893199725 .158006601118621 -271050543121376e-3
3 18 81 486 0 87 77 88 84 ?1 29 86 620 0 89 90 84 .0681531905179306 .16 -.015973
1844735685 18 89 492 0 91 92 93 86 ?1 29 90 622 0 93 94 86 .0681531905179306 .16
 .0159731844735685 18 93 490 0 95 89 96 90 ?1 29 94 623 0 88 97 90 .068153190517
9306 .155 -.0159731844735685 18 88 489 0 98 81 92 94 ?1 29 97 625 0 92 99 94 .06
81531905179306 .155 .0159731844735685 18 92 493 0 100 88 89 97 ?1 29 99 966 0 96
 101 97 .0638736556080039 .158 .01135437115256116 18 96 862 0 102 93 103 99 ?1 2
9 101 967 0 103 104 99 .0638736556080039 .158 -.01135437115256118 18 103 871 0 1
05 96 106 101 ?1 29 104 968 0 107 108 101 .0664189631874005 .155 -.0145781113012
1946 18 107 868 0 109 110 111 104 ?1 29 108 969 0 111 112 104 .0664189631874005
 .155 .01457811130121944 18 111 870 0 113 107 114 108 ?1 29 112 970 0 114 115 10
8 .0897483172675598 .155 .003620525472838805 18 114 876 0 116 111 117 112 ?1 29
 115 973 0 117 118 112 .0636657166577818 .155 .01145203818981788 18 117 873 0 11
9 114 120 115 ?1 29 118 975 0 106 121 115 .0664189631874005 .158 -.0145781113012
1946 18 106 865 0 122 103 123 118 ?1 29 121 976 0 123 124 118 .0664189631874005
 .158 .01457811130121944 18 123 867 0 125 106 126 121 ?1 29 124 977 0 126 127 12
1 .0897483172675598 .158 .003620525472838805 18 126 869 0 128 123 129 124 ?1 29
 127 978 0 129 130 124 .0897483172675598 .158 -.00362052547283881 18 129 875 0 1
31 126 132 127 ?1 29 130 979 0 132 133 127 .0880477893199725 .158 0 18 132 863 0
 134 129 135 130 ?1 29 133 980 0 135 136 130 .0636657166577818 .158 .01145203818
981788 18 135 874 0 137 132 110 133 ?1 29 136 981 0 110 138 133 .063665716657781
8 .158 -.0114520381898179 18 110 872 0 139 135 107 136 ?1 29 138 1275 0 120 140
 136 -.0691303117308175 .155 .011 18 120 1179 0 141 117 142 138 ?1 29 140 1276 0
 142 143 138 -.0671043962792305 .155 .011 18 142 1180 0 144 120 145 140 ?1 29 14
3 1277 0 145 146 140 -.0637453736066391 .155 .011 18 145 1187 0 147 142 148 143
 ?1 29 146 1278 0 148 149 143 -.0637453736066391 .1575 .011 18 148 1177 0 150 14
5 151 146 ?1 29 149 1279 0 151 152 146 -.0671043962792305 .1575 .011 18 151 1193
 0 153 148 154 149 ?1 29 152 1280 0 154 155 149 -.0691303117308175 .1575 .011 18
 154 1175 0 156 151 157 152 ?1 29 155 1281 0 157 158 152 -.0691303117308175 .155
 -.011 18 157 1182 0 159 154 160 155 ?1 29 158 1282 0 160 161 155 -.067104396279
2305 .155 -.011 18 160 1183 0 162 157 163 158 ?1 29 161 1283 0 163 164 158 -.063
7453736066391 .155 -.011 18 163 1184 0 165 160 166 161 ?1 29 164 1284 0 166 167
 161 -.0691303117308175 .1575 -.011 18 166 1173 0 168 163 169 164 ?1 29 167 1286
 0 169 170 164 -.0637453736066391 .1575 -.011 18 169 1194 0 171 166 172 167 ?1 2
9 170 1288 0 172 173 167 -.0634599483064909 .1505 .011 18 172 1188 0 174 169 175
 170 ?1 29 173 1289 0 176 177 170 -.0805 .1575 .011 18 176 1190 0 178 179 180 17
3 223183844416919e-20 1 29 177 1290 0 180 181 173 -.0805 .1575 -.011 18 180 1174
 0 182 176 183 177 223183844416919e-20 1 29 181 1293 0 175 184 177 -.0805 .1505
 .011 18 175 1181 0 185 172 179 181 ?1 29 184 1294 0 179 186 181 -.0805 .1505 -.
011 18 179 1186 0 187 175 176 184 ?1 29 186 1457 0 183 188 184 -.0805 .1505 .010
7846153846154 18 183 1342 0 36 180 189 186 ?1 29 188 1458 0 189 190 186 -.0805 .
06 -.008 18 189 1348 0 191 183 192 188 223183844416919e-20 1 29 190 1459 0 192 1
93 188 -.0885 .06 -.008 18 192 1349 0 194 189 195 190 223183844416919e-20 1 29 1
93 1460 0 195 196 190 -.0915 .06 -.00500000000000579 18 195 1350 0 197 192 198 1
93 223183844416919e-20 1 29 196 1461 0 198 199 193 -.0915 .06 .00500000000003261
 18 198 1351 0 28 195 200 196 223183844416919e-20 1 29 199 1462 0 200 201 196 -.
0884999999999536 .06 .008 18 200 1352 0 202 198 203 199 223183844416919e-20 1 29
 201 1463 0 203 204 199 -.0925 .1575 -.011 18 203 1346 0 205 200 206 201 2231838
44416919e-20 1 29 204 1464 0 206 207 201 -.0955 .1575 -.00800000000000791 18 206
 1345 0 208 203 209 204 223183844416919e-20 1 29 207 1466 0 209 210 204 -.0805 .
06 .008 18 209 1353 0 211 206 212 207 223183844416919e-20 1 29 210 1468 0 212 21
3 207 -.0925 .1575 .011 18 212 1343 0 214 209 215 210 223183844416919e-20 1 29 2
13 1604 0 215 0 210 -.0955 .1575 .008 18 215 1565 0 29 212 0 213 223183844416919
e-20 1 17 29 0 27 25 214 215 216 217 218 219 -15 255 27 1537 0 25 220 0 17 214 0
 27 29 221 212 222 223 224 216 -17 216 0 225 222 219 212 29 217 226 0 +16 217 13
30 0 223183844416919e-20 216 223 227 0 0 0 1 133 218 1451 0 29 228 229 0 +229 -.
0925000000000012 .1575 .011 -.0955 .1575 .00799999999999505 0 1 17 219 0 225 216
 230 215 231 232 0 30 -15 225 1548 0 219 233 0 17 230 0 225 219 234 206 205 227
 235 231 +17 231 0 236 23 30 206 219 232 0 0 +16 232 1563 0 ?231 237 0 238 0 0 1
 17 30 0 236 231 23 215 25 24 0 0 +15 236 1586 0 30 239 0 17 23 0 236 30 231 11
 208 10 0 0 +16 24 1536 0 ?30 10 240 241 0 0 1 16 240 1058 0 ?242 24 243 244 0 0
 1 133 241 1538 0 24 245 20 0 +20 -.0915 .06 3491587173831545e-31 -.0955 .1575 .
008 .0983875763675952 .19683256439176 133 245 1529 0 31 246 241 0 +247 -.0915 .0
6 .005 -.0915 .06 121534726726935e-28 0 .499999999998494 38 12 CCCCCCCCCCCA17 in
tersection_data204 0 Z20 1539 0 1 241 7 248 +249 250 251 252 253 254 141 255 248
 241 255 255 20 124 255 249 1375 0 220 250 256 257 +258 259 51 250 1589 0 239 0
 249 260 +-.1015 .52229729970418 3469446951953615e-33 0 -1 0 .01 0 0 -1 40 255 2
1 251 0 1 21 .001401832571315888 .361234015662265 ??-.0955 .1575 -.008 -.0952584
635700784 .1516125495206615 -.00781301625455638 -.0942924965347284 .128067103034
006 -.00693194733088027 -.0933270310947515 .1045338829345688 -.00576216793176328
 -.0923628155449609 .0810311289084222 -.004063478834027695 -.0918824547757326 .0
693223351584843 -.00273912830279478 -.0916444744966462 .0635215658557514 -.00169
3699221450415 -.0915293325314759 .0607149804547261 -.000765369343594965 -.091509
2183495178 .0602246972694974 -.000429280808316506 -.0915039277324459 .0600957384
783697 -.000280248500149265 -.0915004971737164 .0600121186093373 -99715731686374
8e-19 -.0915000847655734 .0600020661608514 4117407293673805e-20 -.09150157539228
69 .0600384001869919 .000177497503857957 -.0915064373650296 .0601569107725956 .0
003587559907823735 -.0915199532326005 .0604863600446372 .000631400443869647 -.09
15812148536294 .0619796120572157 .001271888839536232 -.0918398656934115 .0682842
262769055 .002584918795372675 -.0928874772653285 .0938197583423835 .005081776475
28586 -.0939368815446195 .119398987650101 .00654211274970741 -.0954689652359726
 .1567435276268305 .0079766295937001 -.0955 .1575 .008 41 3 CI8 term_use0 0 1 cC
Z1 252 L?-.0955 .1575 -.008 41 1 253 L?-.0955 .1575 .008 204 2 17 INTERSECTION_D
ATA17 Intersection data7 uv_type0 0 1 u6 values0 1 1 fT84 254 4 .651526527921618
 505114174991032e-30 .643501108793287 .36479729970418 .6514069857197 .0603841074
803938 .674047798212508 .370684750183518 .647944869438665 .3018758663178875 .804
884157648171 .394230196670174 .636989227886848 .543242226312115 .956704156820494
 .417763416769611 .609731483159874 .784296113759772 1.152342816464512 .441266170
7957575 .579815102325585 .904386306066828 1.293337209170442 .452974964545696 .55
1504551122248 .963881375838448 1.400606007149644 .458775733848428 .5237989645538
44 .992666867131015 1.4941844704541 .461582319249454 .513402138840484 .997695412
620541 1.52785505022896 .462072602434682 .508758666247474 .999018066888517 1.542
767807066325 .46220156122581 .503118592355044 .9998757065709 1.560824588369505 .
462285181094843 .498712180821456 .999978808606653 1.574913745722425 .46229523354
3328 .494450002896092 .999606151928289 1.58854700933343 .462258899517188 .488793
383258333 .99839065874261 1.60667962600014 .462140388931584 .480330028446959 .99
5011691849875 1.633978399661005 .461810939659543 .460851866637864 .9796962865926
6 1.69833065410119 .460317687646964 .424123262210773 .915033576647123 1.83225702
3239285 .454013073427274 .3723725637704975 .653130683667861 2.10386385954479 .42
8477541361796 .354952044725259 .3907796138451175 2.283935619386895 .402898312054
0785 .3484753764471405 .00775869100686642 2.49420652952335 .365553772077349 .348
473472078382 1021002043832792e-27 2.49809154479651 .36479729970418 14 255 239 15
84 261 ?0 220 236 5 250 -0 0 0 220 22 141 260 20 260 260 250 81 1 261 1891 262 2
39 263 0 0 264 265 14 220 1365 264 ?239 266 27 5 249 +16 16 239 266 22 13 22 44
 0 0 0 0 0 0 9 16 14 16 1540 267 ?268 0 269 5 249 +220 220 268 0 22 81 1 267 189
3 262 16 270 0 264 271 272 14 268 1315 271 ?273 16 274 5 275 +276 276 273 16 22
 15 269 1543 0 208 16 0 17 208 0 269 205 277 206 23 10 0 230 -17 205 0 269 278 2
08 203 230 227 279 234 -17 277 0 269 208 197 11 280 281 282 23 +17 197 0 269 277
 194 195 283 284 285 280 +17 280 0 286 283 31 195 277 281 287 0 -16 281 1336 0 2
23183844416919e-20 277 284 288 0 0 0 1 133 282 1431 0 277 289 290 0 +290 -.0915
 .06 -.00500000000000579 -.0915 .06 1215323123039086e-29 0 .5 137 255 289 1432 0
 1 291 282 292 +249 293 0 ?137 290 1430 0 1 282 285 294 +249 295 0 ?133 285 1429
 0 197 290 296 0 +296 -.0884999999999955 .06 -.008 -.0915 .06 -.0050000000000057
9 0 1 141 294 282 297 297 290 134 255 295 0 0 0 0 0 0 +298 299 136 255 298 1 2 2
 2 5 FFF1 300 301 302 135 255 299 2 0 45 255 4 300 .651526527921782 1 .348473472
077457 1 127 255 2 301 2 2 128 255 2 302 0 1 141 297 246 294 294 290 133 246 152
8 0 28 303 245 0 +290 -.0915 .06 1215323123039086e-29 -.0915 .06 .00500000000003
26 .5 1 17 28 0 27 202 25 198 31 288 246 304 +137 303 1497 0 1 305 246 306 +307
 308 0 ?133 305 1496 0 222 309 303 0 +303 -.0925 .1575 .011 -.0805 .1575 .011 0
 1 141 306 305 306 306 303 50 255 307 1251 0 310 311 275 312 +0 .1575 0 0 1 0 0
 0 1 134 308 0 0 0 0 0 0 +313 314 136 313 1 2 2 2 5 FFF1 315 316 317 135 314 2 0
 45 4 315 .011 -.0925 .011 -.0805 127 2 316 2 2 128 2 317 0 1 14 310 1242 318 ?3
19 320 321 5 307 +233 233 319 320 22 50 311 1252 0 320 322 307 0 +0 .1505 0 0 1
 0 0 0 1 50 275 1250 0 276 307 323 0 +-.0805 .1505 .011 -1 0 0 0 0 1 141 312 303
 324 325 307 141 324 309 326 312 307 141 325 327 312 326 307 137 327 1489 0 1 32
8 235 329 +307 330 0 ?141 326 331 325 324 307 137 331 1491 0 1 235 226 332 +307
 333 0 ?133 235 1490 0 230 327 331 0 +331 -.0925 .1575 -.011 -.0955 .1575 -.0080
0000000000792 0 1 133 226 1494 0 216 331 309 0 +309 -.0955 .1575 .008 -.0925 .15
75 .011 0 1 141 332 235 332 332 331 134 333 0 0 0 0 0 0 +334 335 136 334 2 9 2 5
 5 FFF1 336 337 338 135 335 2 0 45 18 336 -.011 -.0925 -.011 -.09309647598045 -.
01077163859753462 -.0936480502970934 -.01054356157666668 -.0941989377306491 -.01
012132034356244 -.0946213203435569 -.00969978915822592 -.0950429926709503 -.0091
4805029710076 -.0952716385975316 -.00859699801286908 -.0955 -.00800000000000792
 -.0955 127 5 337 3 2 2 2 3 128 5 338 0 .25 .5 .75 1 137 309 1495 0 1 226 305 33
9 +307 340 0 ?141 339 226 339 339 309 134 340 0 0 0 0 0 0 +341 342 136 341 2 9 2
 5 5 FFF1 343 344 345 135 342 2 0 45 18 343 .008 -.0955 .00859647598045037 -.095
5 .00914805029709526 -.0952716385975339 .00969893773065465 -.0950435615766642 .0
1012132034355964 -.0946213203435597 .0105429926709581 -.0941997891582151 .010771
63859753386 -.0936480502970953 .011 -.0930969980128612 .011 -.0925 127 5 344 3 2
 2 2 3 128 5 345 0 .25 .5 .75 1 133 328 1488 0 234 346 327 0 +327 -.0805 .1575 -
.011 -.0925 .1575 -.011 0 1 141 329 328 329 329 327 134 330 0 0 0 0 0 0 +347 348
 136 347 1 2 2 2 5 FFF1 349 350 351 135 348 2 0 45 4 349 -.011 -.0805 -.011 -.09
25 127 2 350 2 2 128 2 351 0 1 17 234 0 225 230 352 203 278 237 328 0 +133 346 1
485 0 353 354 328 0 +355 -.0805 .1575 .011 -.0691303117308175 .1575 .011 0 .0113
6968826918256 16 353 1107 0 ?356 357 358 346 0 0 1 30 255 354 1484 0 1 359 346 3
60 +-.0805 .1505 .011 0 1 0 30 355 1270 0 358 361 362 363 +-.0805 .1575 .011 1 0
 0 16 358 1167 0 ?364 353 365 355 0 0 1 30 361 1271 0 366 367 355 0 +-.0805 .150
5 .011 0 0 1 30 362 1268 0 368 355 369 370 +-.0805 .1575 -.011 -1 0 0 141 363 34
6 363 363 355 16 368 1170 0 ?40 371 357 362 0 0 1 30 369 1262 0 372 362 373 0 --
.0637453736066391 .158 -.011 0 -1 0 141 370 374 370 370 362 133 374 1471 0 357 2
44 375 0 +362 -.0691303117308175 .1575 -.011 -.0805 .1575 -.011 -.01136968826918
254 0 16 357 1111 0 ?352 368 353 374 0 0 1 31 255 244 1060 0 240 376 374 0 +0 .1
575 0 0 1 0 0 0 1 .0646875 133 375 1472 0 377 374 378 0 +378 -.0805 .1505 -.011
 -.0805 .1575 -.011 0 .007 16 377 1148 0 ?379 380 366 375 0 0 1 30 378 1473 0 1
 375 359 381 +-.0805 .1505 -.011 0 1 0 133 359 1483 0 380 378 354 0 +354 -.0805
 .1505 .011 -.0805 .1575 .011 0 .007 141 381 375 381 381 378 16 380 1158 0 ?178
 372 377 359 0 0 1 17 178 0 382 383 185 176 384 380 0 385 +16 372 1159 0 ?386 38
7 380 369 0 0 1 17 386 0 388 242 389 169 165 372 0 0 +16 387 1141 0 ?390 391 372
 373 0 0 1 17 390 0 392 109 393 160 394 387 0 395 +16 391 1142 0 ?396 397 387 39
8 0 0 1 30 373 1261 0 387 369 398 0 +-.0671043962792305 .158 -.011 0 -1 0 30 398
 1260 0 391 373 399 0 +0 .155 -.011 -1 0 0 30 399 1259 0 397 398 400 0 --.069130
3117308175 .155 -.011 0 1 0 16 397 1143 0 ?159 401 391 399 0 0 1 30 400 1258 0 4
01 399 402 0 +-.0637453736066391 .158 .011 0 -1 0 16 401 1150 0 ?403 404 397 400
 0 0 1 30 402 1257 0 404 400 405 0 --.0671043962792305 .158 .011 0 -1 0 16 404 1
135 0 ?406 407 401 402 0 0 1 30 405 1256 0 407 402 408 0 +0 .155 .011 1 0 0 16 4
07 1134 0 ?409 410 404 405 0 0 1 30 408 1255 0 410 405 411 0 +-.0691303117308175
 .155 .011 0 1 0 16 410 1136 0 ?156 412 407 408 0 0 1 31 411 1254 0 412 408 413
 0 -0 .1575 0 0 1 0 0 0 1 .068 16 412 1120 0 ?393 414 410 411 0 0 1 31 413 1253
 0 414 411 415 0 -0 .1575 0 0 1 0 0 0 1 .07 16 414 1110 0 ?168 416 412 413 0 0 1
 30 415 965 0 417 413 418 0 +.01591351146107125 .158 -.03388081547784415 -.90513
1368209702 0 -.4251319868968135 16 417 790 0 ?419 420 421 415 421 421 1 31 418 9
64 0 420 415 422 0 -0 .158 0 0 -1 0 0 0 -1 .0646875 16 420 826 0 ?423 424 417 41
8 0 0 1 30 422 963 0 425 418 426 0 +.0159135114610712 .158 .0338808154778441 .90
5131368209702 0 -.4251319868968135 16 425 821 0 ?427 428 424 422 424 424 1 30 42
6 962 0 428 422 429 0 +.01761403940865855 .158 -.037501340950683 .90513136820970
2 0 .4251319868968145 16 428 803 0 ?430 431 425 426 0 0 1 31 429 961 0 431 426 4
32 0 +.0880477893199725 .158 -520417042793042e-32 0 -1 0 0 0 -1 .004 16 431 831
 0 ?433 434 428 429 0 0 1 30 432 960 0 434 429 435 0 +.0176140394086585 .158 .03
750134095068295 -.905131368209702 0 .4251319868968135 16 434 811 0 ?436 437 431
 432 0 0 1 31 435 959 0 437 432 438 0 +0 .158 0 0 -1 0 0 0 -1 .068 16 437 807 0
 ?439 440 434 435 0 0 1 30 438 955 0 416 435 441 0 +.01761403940865855 .155 -.03
7501340950683 .905131368209702 0 .4251319868968145 16 416 849 0 ?48 442 414 438
 0 0 1 31 441 954 0 442 438 443 0 +.0880477893199725 .155 -520417042793042e-32 0
 -1 0 0 0 -1 .004 16 442 852 0 ?444 445 416 441 0 0 1 30 443 953 0 445 441 446 0
 +.0176140394086585 .155 .03750134095068295 -.905131368209702 0 .425131986896813
5 16 445 855 0 ?447 448 442 443 0 0 1 31 446 952 0 449 443 450 0 +0 .155 0 0 -1
 0 0 0 -1 .068 16 449 858 0 ?451 421 448 446 448 448 1 30 450 951 0 452 446 453
 0 +.0664189631874005 .158 -.01457811130121946 0 -1 0 16 452 810 0 ?454 455 456
 450 0 0 1 30 453 950 0 456 450 457 0 +.0664189631874005 .158 .01457811130121944
 0 -1 0 16 456 814 0 ?113 452 458 453 0 0 1 30 457 949 0 458 453 459 0 +.0897483
172675598 .158 .003620525472838805 0 -1 0 16 458 834 0 ?116 456 460 457 0 0 1 30
 459 948 0 460 457 461 0 +.0897483172675598 .158 -.00362052547283881 0 -1 0 16 4
60 806 0 ?462 458 463 459 0 0 1 30 461 946 0 463 459 464 0 +.0636657166577818 .1
58 .01145203818981788 0 -1 0 16 463 830 0 ?119 460 440 461 0 0 1 30 464 945 0 44
0 461 465 0 +.0636657166577818 .158 -.0114520381898179 0 -1 0 16 440 820 0 ?466
 463 437 464 0 0 1 30 465 598 0 455 464 467 0 +.0880477893199725 .155 -271050543
121376e-33 0 1 0 16 455 757 0 ?87 468 452 465 0 0 1 31 467 594 0 469 465 470 0 +
0 .155 0 0 1 0 0 0 1 .07 16 469 439 0 ?471 472 473 467 473 473 1 30 470 593 0 47
2 467 474 0 +.0681531905179306 .155 .0159731844735685 .905131368209702 0 -.42513
19868968135 16 472 447 0 ?475 476 469 470 0 0 1 30 474 592 0 476 470 477 0 +.102
1610534001376 .155 -479135829589021e-33 -.905131368209702 0 -.425131986896814 16
 476 703 0 ?98 478 472 474 0 0 1 31 477 591 0 468 474 479 0 +0 .16 0 0 1 0 0 0 1
 .07 16 468 458 0 ?480 481 455 477 0 0 1 30 479 590 0 481 477 482 0 +.0681531905
179306 .16 .0159731844735685 .905131368209702 0 -.4251319868968135 16 481 461 0
 ?483 484 468 479 0 0 1 30 482 589 0 484 479 485 0 +.1021610534001376 .16 -47913
5829589021e-33 -.905131368209702 0 -.425131986896814 16 484 693 0 ?91 473 481 48
2 0 0 1 30 485 588 0 486 482 487 0 +.0681531905179306 .155 -.0159731844735685 0
 1 0 16 486 446 0 ?488 489 478 485 0 0 1 30 487 586 0 478 485 490 0 +.0681531905
179306 .155 .0159731844735685 0 1 0 16 478 442 0 ?95 486 476 487 0 0 1 38 490 58
5 0 491 487 492 0 +493 494 495 496 497 498 16 491 434 0 ?499 500 489 490 489 489
 1 30 492 584 0 500 490 501 0 +.0159135114610712 .158006601118621 -.033880815477
8442 -.905131368209702 -3436416226124885e-31 -.4251319868968135 52 255 493 74 0
 502 503 504 505 +0 .00937621713844825 0 0 1 0 .055586013571153 .062378286155180
4 .998052578482889 0 0 1 50 494 571 0 506 507 508 509 +.0633616221239686 .155 .0
1159486863179028 .4251319868968135 0 .905131368209703 .905131368209703 0 -.42513
19868968135 40 2 495 0 1 2 457706011930689e-21 .000182591940578616 ??.0640107801
31846 .159980711572669 .0112899650085242 .0636657027851071 .1549998 .01145204470
568722 41 1 496 L?.064010780131846 .159980711572669 .0112899650085242 41 1 497 L
?.0636657027851071 .1549998 .01145204470568722 204 8 498 4 1.39621586608771 .150
604494434221 .000717197559025525 .00498071157266911 1.39282178415774 .1456235828
615518 .0003359519643430465 -200000000005751e-21 14 506 762 510 ?511 502 512 5 4
94 -0 0 511 502 22 50 507 572 0 511 513 494 514 +.0880477893199725 .155 -2710505
43121376e-33 .4251319868968135 0 -.905131368209702 -.905131368209702 0 -.4251319
86896814 50 508 567 0 515 494 516 0 +0 .155 0 0 1 0 0 0 1 141 509 490 509 509 49
4 14 515 533 517 ?18 518 519 5 508 -0 0 18 518 22 50 516 565 0 520 508 521 0 +.1
021610534001376 .155 -479135829589021e-33 .425131986896814 0 -.905131368209702 -
.905131368209702 0 -.425131986896814 14 520 525 522 ?518 523 524 5 516 +0 0 518
 523 22 50 521 564 0 518 516 525 0 +.0681531905179306 .155 .0159731844735685 .42
51319868968135 0 .905131368209702 .905131368209702 0 -.4251319868968135 14 518 5
29 526 ?515 520 527 5 521 +0 0 515 520 22 51 525 563 0 523 521 528 0 +0 .155 0 0
 1 0 .07 0 0 1 14 523 521 529 ?520 530 531 5 525 +0 0 520 530 22 52 528 319 0 53
2 525 533 0 +0 .0095633519969138 0 0 1 0 .0525918558357044 .0623782861551804 .99
8052578482889 0 0 1 14 532 287 534 ?535 273 536 5 528 -0 0 535 273 22 50 533 318
 0 535 528 537 0 +0 .003 0 0 -1 0 0 0 -1 14 535 292 538 ?539 532 540 5 533 -0 0
 539 532 22 54 255 537 317 0 539 533 541 0 +0 .01 0 0 -1 0 .0456054877863241 .00
7 0 0 -1 14 539 296 542 ?543 535 544 5 537 -0 0 543 535 22 50 541 316 0 543 537
 545 0 +-.015348773639358 .0181115528944424 .03267845495687215 -.379997604119011
 .448397172860433 .809037574056102 0 -.874647062500788 .484760266584157 14 543 3
05 546 ?530 539 547 5 541 +0 0 530 539 22 50 545 315 0 530 541 548 0 +-.01534877
3639358 .0181115528944424 -.03267845495687215 -.3799976041190105 .44839717286043
3 -.809037574056102 0 .874647062500788 .484760266584157 14 530 309 549 ?523 543
 550 5 545 +0 0 523 543 22 50 548 181 0 551 545 552 0 +-.01420878082700094 .0167
663613758611 .03025134223470385 -.379997604119011 .448397172860433 .809037574056
102 0 -.874647062500788 .484760266584157 14 551 372 553 ?554 555 556 5 548 -0 0
 554 555 22 50 552 180 0 555 548 503 0 +-.01420878082700094 .0167663613758611 -.
03025134223470385 -.3799976041190105 .448397172860433 -.809037574056102 0 .87464
7062500788 .484760266584157 14 555 364 557 ?551 558 559 5 552 -0 0 551 558 22 50
 503 73 0 273 552 493 0 +0 .16 0 0 1 0 0 0 1 14 273 52 560 ?532 268 561 5 503 +0
 0 532 268 22 81 1 560 1909 262 273 562 0 557 563 564 15 561 540 0 483 273 565 1
7 483 0 561 54 480 58 566 481 0 0 +15 565 261 0 567 273 0 17 567 0 565 568 569 8
0 72 570 0 0 -17 568 0 565 569 567 77 571 572 0 0 +17 569 0 565 567 568 70 573 5
74 0 0 -17 72 0 550 575 83 70 567 570 0 576 +16 570 280 0 ?72 574 577 578 0 0 1
 16 574 281 0 ?573 579 570 580 0 0 1 16 577 429 0 ?581 570 582 501 582 582 1 30
 578 322 0 570 583 580 0 +.01491176177037022 .16 .03174803061080485 .90513136820
9702 0 -.425131986896814 31 583 323 0 572 584 578 0 -0 .16 0 0 1 0 0 0 1 .061994
1463358972 30 580 321 0 574 578 585 0 +.01491176177037022 .16 -.0317480306108048
5 -.905131368209702 0 -.425131986896814 30 585 211 0 1 580 586 587 +.055 .13 0 .
762895600573906 .646521695401615 0 133 586 187 0 588 585 589 0 +585 .06357941834
4519 .1372706935123042 0 .0880477893199725 .158006601118621 -3469446951953615e-3
3 .0112458616068371 .04331888831854785 141 587 586 587 587 585 16 588 151 0 ?590
 591 592 586 0 0 1 133 589 186 0 591 586 593 0 +593 .063579418344519 .1372706935
123042 0 .0638741128193386 .158006601118621 .0113541564045478 1.24785887104945 1
.061648490523336 16 591 142 0 ?594 595 588 589 0 0 1 32 255 593 185 0 1 589 596
 597 -.00323947089041932 .098579366577869 .00689702682859386 -.3799976041190105
 .448397172860433 -.809037574056102 .19062798101707 .893834422793602 .4058583465
72526 .1363996343263156 .060684681001293 32 596 183 0 1 593 598 599 -.0032394708
90419355 .0985793665778693 -.00689702682859393 -.379997604119011 .44839717286043
3 .809037574056102 .19062798101707 .893834422793602 -.405858346572526 .136399634
326316 .060684681001293 141 597 589 597 597 593 31 598 78 0 600 596 601 0 +0 .00
937621713844825 0 0 -1 0 0 0 -1 .055586013571153 141 599 602 599 599 596 133 602
 368 0 595 603 604 0 +596 .0638741128193387 .158006601118621 -.01135415640454776
 .0635794183445191 .1372706935123042 0 5.22153681665625 5.03532643613013 16 595
 367 0 ?75 600 591 602 0 0 1 30 603 363 0 605 601 602 0 +.015913511461071 .15800
66011186205 .03388081547784425 .905131368209702 158163228337288e-29 -.4251319868
968135 31 604 380 0 606 602 607 0 -0 .155 0 0 1 0 0 0 1 .0646875 16 606 378 0 ?6
08 609 610 604 610 610 1 30 607 689 0 609 604 611 0 +.0905985812413534 .155 .005
43078820925821 0 1 0 16 609 687 0 ?612 613 606 607 0 0 1 31 611 697 0 613 607 61
4 0 +.0880477893199725 .16 -520417042793042e-32 0 1 0 0 0 1 .006 16 613 695 0 ?5
4 615 609 611 0 0 1 30 614 707 0 615 611 616 0 -.0905985812413534 .155 -.0054307
8820925822 0 1 0 16 615 705 0 ?51 617 613 614 0 0 1 31 616 712 0 617 614 618 0 -
.0880477893199725 .155 -520417042793042e-32 0 1 0 0 0 1 .006 16 617 710 0 ?57 61
9 615 616 0 0 1 31 618 1046 0 619 616 620 0 -0 .1505 0 0 1 0 0 0 1 .06440625 16
 619 1044 0 ?621 622 617 618 0 0 1 38 620 1048 0 622 618 376 0 +493 323 623 624
 625 626 16 622 1047 0 ?627 243 619 620 0 0 1 38 376 1051 0 243 620 244 0 +493 6
28 629 630 631 632 50 323 1249 0 633 275 628 634 +-.0805 .1505 -.011 0 0 -1 -1 0
 0 40 2 623 0 1 2 4220817276863865e-22 3898554905407085e-20 ??-.0643599332515342
 .164691082609753 -.011 -.0630037554811467 .1433089173902472 -.011 41 1 624 L?-.
0643599332515342 .164691082609753 -.011 41 1 625 L?-.0630037554811467 .143308917
3902472 -.011 204 8 626 4 4.54311083605532 .1553148654713045 -.0161400667484658
 .01419108260975284 4.53953847332935 .133932700251799 -.0174962445188533 -.00719
108260975285 14 633 1216 563 ?276 635 636 5 323 +0 0 276 635 22 50 628 1247 0 63
5 323 637 638 +-.0805 .1505 .011 0 0 1 1 0 0 141 634 620 634 634 323 14 635 1208
 639 ?633 233 640 5 628 +0 0 633 233 22 50 637 942 0 641 628 642 0 +0 .158 0 0 -
1 0 0 0 -1 141 638 376 638 638 628 14 641 922 643 ?558 644 645 5 637 +0 0 558 64
4 22 51 642 940 0 646 637 647 0 +0 .158 0 0 -1 0 .068 0 0 -1 14 646 893 648 ?649
 650 392 5 642 -0 0 649 650 22 50 647 939 0 649 642 651 0 +.0176140394086585 .15
8 .03750134095068295 .4251319868968135 0 .905131368209702 .905131368209702 0 -.4
25131986896814 14 649 897 652 ?653 646 654 5 647 -0 0 653 646 22 51 651 938 0 64
4 647 655 0 +.0880477893199725 .158 -520417042793042e-32 0 -1 0 .004 0 0 -1 14 6
44 918 656 ?641 657 658 5 651 -0 0 641 657 22 50 655 937 0 650 651 659 0 +.01761
403940865855 .158 -.037501340950683 .425131986896814 0 -.905131368209702 -.90513
1368209702 0 -.4251319868968145 14 650 889 660 ?646 18 661 5 655 -0 0 646 18 22
 50 659 936 0 662 655 663 0 +.0159135114610712 .158 .0338808154778441 -.42513198
6896813 0 -.905131368209702 -.905131368209702 0 .4251319868968135 14 662 907 664
 ?657 653 665 5 659 -0 0 657 653 22 51 663 935 0 657 659 513 0 -0 .158 0 0 -1 0
 .0646875 0 0 -1 14 657 913 666 ?644 662 388 5 663 -0 0 644 662 22 50 513 934 0
 653 663 507 0 +.01591351146107125 .158 -.03388081547784415 -.4251319868968135 0
 .905131368209702 .905131368209702 0 .425131986896814 14 653 901 667 ?662 649 66
8 5 513 -0 0 662 649 22 81 1 667 1919 262 653 669 0 666 670 671 15 668 906 0 672
 653 0 17 672 0 668 673 105 61 581 577 0 0 -17 673 0 668 105 672 110 466 440 0 6
74 -17 105 0 668 672 673 103 139 421 0 419 -17 581 0 675 66 63 103 672 577 0 0 +
15 675 1050 0 676 502 677 17 66 0 675 75 581 64 678 582 0 679 +17 63 0 675 581 6
80 61 389 610 0 466 +17 680 0 675 63 621 163 627 622 0 389 -17 389 0 388 386 466
 163 63 610 0 0 -16 610 1038 0 ?63 606 605 604 606 606 1 17 466 0 388 389 674 61
 673 440 0 672 +15 388 917 0 242 657 0 17 674 0 388 466 137 110 423 420 0 0 -17
 137 0 388 674 681 135 119 463 0 423 -17 423 0 645 427 139 135 674 420 0 682 +15
 645 925 0 419 641 683 17 427 0 645 134 423 96 682 425 0 684 +17 139 0 645 423 4
19 110 105 421 0 673 +17 682 0 665 119 102 135 427 425 0 0 -15 665 912 0 102 662
 0 17 119 0 665 102 682 117 137 463 0 681 +17 102 0 665 682 119 96 685 489 0 427
 -17 685 0 675 608 499 117 102 489 0 0 +16 489 754 0 ?685 491 486 490 491 491 1
 17 608 0 675 676 685 145 681 606 0 0 +17 499 0 675 685 594 96 686 491 0 0 +17 5
94 0 675 499 75 67 687 591 0 686 +17 686 0 512 688 684 67 499 491 0 0 -15 512 76
0 0 684 506 0 17 688 0 512 689 686 81 69 605 0 0 +17 684 0 512 686 689 96 134 42
4 0 499 -17 689 0 512 684 688 132 87 455 0 0 -17 134 0 645 419 427 132 684 424 0
 690 +16 424 797 0 ?134 425 420 422 425 425 1 17 419 0 645 139 134 103 690 417 0
 678 +17 690 0 691 87 678 132 419 417 0 689 -15 691 765 0 690 511 0 17 87 0 691
 692 690 81 689 455 0 590 +17 678 0 691 690 692 103 66 582 0 581 -17 692 0 691 6
78 87 64 693 500 0 0 +16 582 751 0 ?66 577 500 501 577 577 1 16 500 472 0 ?692 5
82 491 492 0 0 1 38 501 583 0 577 492 694 0 +493 507 695 696 697 698 31 694 328
 0 699 501 700 0 +0 .00956335199691378 0 0 -1 0 0 0 -1 .0525918558357044 40 2 69
5 0 1 2 457706011945419e-21 .000182591940578647 ??.0636657027851071 .1549998 -.0
1145204470568724 .064010780131846 .159980711572669 -.01128996500852424 41 1 696
 L?.0636657027851071 .1549998 -.01145204470568724 41 1 697 L?.064010780131846 .1
59980711572669 -.01128996500852424 204 8 698 4 1.748770869432055 .14562358286155
18 .02693762186487005 -200000000005751e-21 1.745376787502085 .150604494434221 .0
2655637627018755 .00498071157266911 16 699 279 0 ?701 592 572 694 0 0 1 32 700 3
27 0 702 694 703 0 -.0031002496404378 .1046170700090854 -.00660061647989379 -.37
9997604119011 .448397172860433 .809037574056102 .19062798101707 .893834422793602
 -.405858346572526 .1305376499991536 .0580766633868368 16 702 276 0 ?85 572 704
 700 0 0 1 32 703 326 0 704 700 705 0 -.003100249640437765 .1046170700090852 .00
660061647989371 -.3799976041190105 .448397172860433 -.809037574056102 .190627981
01707 .893834422793602 .405858346572526 .1305376499991534 .0580766633868367 16 7
04 277 0 ?83 702 579 703 0 0 1 31 705 325 0 592 703 584 0 +0 .003 0 0 -1 0 0 0 -
1 .0456054877863241 16 592 278 0 ?706 588 699 705 0 0 1 30 584 324 0 579 705 583
 0 +-.0444301900260575 .0524276242307479 0 .762895600573906 .646521695401615 197
9646236219245e-32 16 579 282 0 ?576 704 574 584 0 0 1 17 576 0 547 573 85 70 575
 579 0 569 +15 547 308 0 85 543 0 17 573 0 547 85 576 77 569 574 0 568 +17 85 0
 547 576 573 76 79 702 0 707 +17 575 0 550 83 72 76 576 579 0 0 -15 550 312 0 83
 530 0 17 83 0 550 72 575 80 707 704 0 571 +17 707 0 708 79 571 76 83 704 0 575
 -17 571 0 708 707 79 80 568 572 0 567 -15 708 291 0 571 532 0 17 79 0 708 571 7
07 77 85 702 0 573 -16 572 275 0 ?568 699 702 583 0 0 1 17 706 0 709 706 706 0 7
10 592 0 0 +15 709 300 0 706 539 0 17 710 0 540 710 710 0 706 592 0 0 -15 540 29
5 0 710 535 0 17 701 0 536 701 701 0 711 699 0 0 +15 536 290 0 701 532 708 17 71
1 0 544 711 711 0 701 699 0 0 -15 544 299 0 711 539 709 17 693 0 556 712 679 81
 692 500 0 688 -15 556 371 0 693 551 0 17 712 0 556 679 693 73 590 588 0 0 -17 6
79 0 556 693 712 64 75 595 0 692 -17 75 0 675 594 66 73 679 595 0 687 +17 687 0
 559 590 69 73 594 591 0 712 -15 559 362 0 69 555 0 17 590 0 559 69 687 81 712 5
88 0 693 +17 69 0 559 687 590 67 688 605 0 594 -16 605 361 0 ?688 610 713 603 0
 0 1 16 713 59 0 ?714 605 600 601 0 0 1 17 714 0 715 714 714 0 716 713 0 0 +16 6
00 54 0 ?717 713 595 598 0 0 1 31 601 79 0 713 598 603 0 +0 0 0 0 -1 0 0 0 -1 .0
456054877863241 17 717 0 718 717 717 0 719 600 0 0 +15 718 98 0 717 554 720 17 7
19 0 677 719 719 0 717 600 0 0 -15 677 56 0 719 502 0 14 502 383 670 ?506 554 67
5 5 493 +0 0 506 554 22 81 1 670 1920 262 502 721 0 667 722 723 14 554 62 722 ?5
02 551 718 5 504 +0 0 502 551 22 81 1 722 1921 262 554 724 0 670 725 726 54 504
 75 0 554 493 19 0 +0 .01 0 0 -1 0 .0456054877863241 .01 0 0 -1 50 19 76 0 558 5
04 6 0 +0 0 0 0 -1 0 0 0 -1 14 558 67 725 ?555 641 715 5 19 +0 0 555 641 22 81 1
 725 1922 262 558 727 0 722 728 729 15 715 99 0 714 558 0 80 255 1 262 730 731 9
000 1 1 1 1 1 1 1 1 0 FFFFTFTFFFFFFF1 81 1 727 1788 732 558 0 725 733 734 735 81
 1 728 1923 262 18 736 0 725 737 738 82 255 1 729 514392183 14 18 723 728 ?650 5
15 739 5 6 +0 0 650 515 22 81 1 736 1779 732 18 0 728 740 741 742 81 1 737 1924
 262 511 743 0 728 744 745 82 1 738 -119275351 14 511 767 737 ?233 506 691 5 507
 -0 0 233 506 22 81 1 743 1794 732 511 0 737 746 747 748 81 1 744 1925 262 276 7
49 0 737 750 751 82 1 745 329580722 14 276 1227 744 ?320 633 382 5 275 +268 268
 320 633 22 81 1 749 1798 732 276 0 744 752 753 754 81 1 750 1926 262 320 753 0
 744 755 756 82 1 751 -842137394 14 320 1239 750 ?310 276 34 5 311 -0 0 310 276
 22 81 1 753 1799 732 320 0 750 749 757 758 81 1 755 1927 262 319 759 0 750 760
 761 82 1 756 -841416498 14 319 1356 755 ?266 310 762 5 256 +0 0 266 310 22 81 1
 759 1801 732 319 0 755 757 763 764 81 1 760 1928 262 233 747 0 755 0 765 82 1 7
61 -805044018 14 233 1195 760 ?635 511 225 5 307 +310 310 635 511 22 81 1 747 17
95 732 233 0 760 743 766 767 82 1 765 86442302 80 1 732 0 768 8001 0 0 0 0 3 5 0
 0 0 FFFFTFTFFFFFFF2 81 1 766 1796 732 635 0 639 747 752 769 83 255 3 767 .34117
64705882355 .83921568627451 .411764705882353 81 1 639 1911 262 635 766 0 563 643
 770 81 1 752 1797 732 633 0 563 766 749 771 83 3 769 .3411764705882355 .8392156
8627451 .411764705882353 81 1 563 1910 262 633 752 0 560 639 772 83 3 771 .34117
64705882355 .83921568627451 .411764705882353 82 1 772 -833290034 81 1 643 1912 2
62 641 733 0 639 648 773 82 1 770 -829751090 81 1 733 1787 732 641 0 643 774 727
 775 81 1 648 1913 262 646 776 0 643 652 777 82 1 773 305397938 81 1 776 1781 73
2 646 0 648 741 778 779 81 1 652 1914 262 649 778 0 648 656 780 82 1 777 3200780
30 81 1 778 1782 732 649 0 652 776 669 781 81 1 656 1915 262 644 774 0 652 660 7
82 82 1 780 320209074 81 1 774 1786 732 644 0 656 783 733 784 81 1 660 1916 262
 650 741 0 656 664 785 82 1 782 320340146 81 1 741 1780 732 650 0 660 736 776 78
6 81 1 664 1917 262 662 787 0 660 666 788 82 1 785 320471218 81 1 787 1784 732 6
62 0 664 669 783 789 81 1 666 1918 262 657 783 0 664 667 790 82 1 788 320602290
 81 1 783 1785 732 657 0 666 787 774 791 82 1 790 320733390 83 3 791 .3411764705
882355 .83921568627451 .411764705882353 81 1 669 1783 732 653 0 667 778 787 792
 83 3 789 .3411764705882355 .83921568627451 .411764705882353 83 3 792 .341176470
5882355 .83921568627451 .411764705882353 83 3 786 .3411764705882355 .83921568627
451 .411764705882353 83 3 784 .3411764705882355 .83921568627451 .411764705882353
 83 3 781 .3411764705882355 .83921568627451 .411764705882353 83 3 779 .341176470
5882355 .83921568627451 .411764705882353 83 3 775 .3411764705882355 .83921568627
451 .411764705882353 79 255 15 768 SDL/TYSA_COLOUR81 1 757 1800 732 310 0 318 75
3 759 793 81 1 763 1802 732 266 0 794 759 795 796 83 3 764 .3411764705882355 .83
921568627451 .411764705882353 14 266 1359 794 ?220 319 286 5 322 -0 0 220 319 22
 81 1 794 1896 262 266 763 0 318 510 797 81 1 795 1803 732 220 0 264 763 263 798
 83 3 796 .3411764705882355 .83921568627451 .411764705882353 81 1 264 1892 262 2
20 795 0 261 267 799 81 1 263 1804 732 239 0 261 795 0 800 83 3 798 .34117647058
82355 .83921568627451 .411764705882353 83 3 800 .3411764705882355 .8392156862745
1 .411764705882353 82 1 799 51052862 81 1 318 1895 262 310 757 0 271 794 801 81
 1 510 1897 262 506 746 0 794 517 802 82 1 797 54591806 81 1 746 1793 732 506 0
 510 721 743 803 81 1 517 1898 262 515 740 0 510 522 804 82 1 802 329121970 81 1
 740 1778 732 515 0 517 805 736 806 81 1 522 1899 262 520 807 0 517 526 808 82 1
 804 1230307534 81 1 807 1776 732 520 0 522 809 805 810 81 1 526 1900 262 518 80
5 0 522 529 811 82 1 808 1235484841 81 1 805 1777 732 518 0 526 807 740 812 81 1
 529 1901 262 523 809 0 526 534 813 82 1 811 1235615913 81 1 809 1775 732 523 0
 529 814 807 815 81 1 534 1902 262 532 816 0 529 538 817 82 1 813 1235747022 81
 1 816 1770 732 532 0 534 562 818 819 81 1 538 1903 262 535 818 0 534 542 820 82
 1 817 110100609 81 1 818 1771 732 535 0 538 816 821 822 81 1 542 1904 262 539 8
21 0 538 546 823 82 1 820 110362753 81 1 821 1772 732 539 0 542 818 824 825 81 1
 546 1905 262 543 824 0 542 549 826 82 1 823 110231681 81 1 824 1773 732 543 0 5
46 821 814 827 81 1 549 1906 262 530 814 0 546 553 828 82 1 826 112132225 81 1 8
14 1774 732 530 0 549 824 809 829 81 1 553 1907 262 551 830 0 549 557 831 82 1 8
28 112263297 81 1 830 1790 732 551 0 553 734 724 832 81 1 557 1908 262 555 734 0
 553 560 833 82 1 831 1251475589 81 1 734 1789 732 555 0 557 727 830 834 82 1 83
3 1245249669 83 3 834 .3411764705882355 .83921568627451 .411764705882353 81 1 72
4 1791 732 554 0 722 830 721 835 83 3 832 .3411764705882355 .83921568627451 .411
764705882353 81 1 721 1792 732 502 0 670 724 746 836 83 3 835 .3411764705882355
 .83921568627451 .411764705882353 83 3 836 .3411764705882355 .83921568627451 .41
1764705882353 83 3 829 .3411764705882355 .83921568627451 .411764705882353 83 3 8
27 .3411764705882355 .83921568627451 .411764705882353 83 3 825 .3411764705882355
 .83921568627451 .411764705882353 83 3 822 .3411764705882355 .83921568627451 .41
1764705882353 81 1 562 1769 732 273 0 560 837 816 838 83 3 819 .3411764705882355
 .83921568627451 .411764705882353 81 1 837 1768 732 268 0 271 270 562 839 83 3 8
38 .3411764705882355 .83921568627451 .411764705882353 81 1 271 1894 262 268 837
 0 267 318 840 81 1 270 1767 732 16 0 267 0 837 841 83 3 839 .3411764705882355 .
83921568627451 .411764705882353 83 3 841 .3411764705882355 .83921568627451 .4117
64705882353 82 1 840 -804585266 83 3 815 .3411764705882355 .83921568627451 .4117
64705882353 83 3 812 .3411764705882355 .83921568627451 .411764705882353 83 3 810
 .3411764705882355 .83921568627451 .411764705882353 83 3 806 .3411764705882355 .
83921568627451 .411764705882353 83 3 803 .3411764705882355 .83921568627451 .4117
64705882353 82 1 801 -841285426 15 286 1361 0 842 266 0 50 322 1373 0 266 256 31
1 843 +-.0885 .06 .005 0 1 0 0 0 1 50 256 1374 0 319 249 322 844 +-.0805 .1575 -
.011 1 0 0 0 0 1 141 843 845 846 847 322 137 845 1400 0 1 848 849 850 +322 851 0
 ?141 846 852 853 843 322 141 847 854 843 855 322 137 854 1395 0 1 849 287 856 +
322 857 0 ?141 855 247 847 858 322 137 247 1391 0 1 287 859 860 +322 861 0 ?141
 858 862 855 853 322 137 862 1387 0 1 859 863 864 +322 865 0 ?141 853 866 858 84
6 322 137 866 1383 0 1 863 867 868 +322 869 0 ?133 863 1384 0 870 862 866 0 +866
 -.0805 .06 .008 -.0884999999999536 .06 .008 0 1 133 867 1381 0 842 866 852 0 +8
52 -.0805 .06 -.008 -.0805 .06 .008 0 1 141 868 863 868 868 866 134 869 0 0 0 0
 0 0 +871 872 136 871 1 2 2 2 5 FFF1 873 874 875 135 872 2 0 45 4 873 .003 .008
 .003 463240557024847e-28 127 2 874 2 2 128 2 875 0 1 17 842 0 286 870 876 209 8
77 878 867 0 -137 852 1380 0 1 867 879 880 +322 881 0 ?133 879 1379 0 882 852 88
3 0 +228 -.0805 .1505 .0107846153846154 -.0805 .1575 .011 .0417697586381151 .048
7730714636673 141 880 867 880 880 852 134 881 0 0 0 0 0 0 +884 885 136 884 1 2 2
 2 5 FFF1 886 887 888 135 885 2 0 45 4 886 -.013 .008 .003 .008 127 2 887 2 2 12
8 2 888 0 1 16 882 1340 0 ?221 889 223 879 0 0 1 133 883 1378 0 890 879 891 0 +8
92 -.0805 .1505 -.01078461538461538 -.0805 .06 -.008 -.0417697586381151 .0487730
714636674 30 228 1452 0 1 893 218 894 +-.0805 .10875 .0095 142268954889918e-30 .
999526963076654 .030754675786974 133 893 1453 0 889 895 228 0 +228 -.0805 .06 .0
08 -.0805 .1505 .0107846153846154 -.0487730714636673 .0417697586381151 141 894 8
93 896 896 228 141 896 879 894 894 228 16 889 1339 0 ?897 890 882 893 0 0 1 137
 895 1454 0 1 224 893 898 +249 899 0 ?133 224 1455 0 214 900 895 0 +895 -.0805 .
1575 .011 -.0924999999999981 .1575 .011 0 1 141 898 224 898 898 895 134 899 0 0
 0 0 0 0 +901 902 136 901 1 2 2 2 5 FFF1 903 904 905 135 902 2 0 45 4 903 0 0 .2
343310652552295 0 127 2 904 2 2 128 2 905 0 1 31 900 1590 0 1 238 224 906 +-.101
5 .1575 3469446951953615e-33 0 1 0 0 0 1 .01 133 238 1591 0 232 0 900 0 +900 -.0
955 .1575 .008 -.0955 .1575 -.008 .643501108793287 2.498091544796505 141 906 238
 906 906 900 17 897 0 27 221 211 183 907 889 0 0 +16 890 1333 0 ?191 908 889 883
 0 0 1 17 191 0 269 194 909 189 910 890 0 876 +16 908 1332 0 ?909 878 890 911 0
 0 1 17 909 0 269 191 278 26 182 908 0 0 +16 878 1325 0 223183844416919e-20 877
 912 908 0 0 0 1 133 911 1443 0 908 913 892 0 +892 -.0805 .1575 -.011 -.0805 .15
05 -.01078461538461538 -.0487730714636673 -.0417697586381151 137 913 1444 0 1 91
4 911 915 +249 916 0 ?30 892 1442 0 1 911 917 918 +-.0805 .10875 -.0095 14226895
4889918e-30 -.999526963076654 .03075467578697395 133 917 1439 0 194 892 919 0 +9
19 -.0805 .06 -.008 -.0884999999999955 .06 -.008 0 1 141 918 911 920 920 892 141
 920 883 918 918 892 17 194 0 269 197 191 192 876 365 917 283 +137 919 1438 0 1
 917 921 922 +249 923 0 ?133 921 1437 0 877 919 924 0 +924 -.0805 .06 .008 -.080
5 .06 -.008 0 1 141 922 917 922 922 919 134 923 0 0 0 0 0 0 +925 926 136 925 1 2
 2 2 5 FFF1 927 928 929 135 926 2 0 45 4 927 1 1 .765668934744852 1 127 2 928 2
 2 128 2 929 0 1 17 877 0 762 910 907 189 842 878 921 0 +137 924 1436 0 1 921 93
0 931 +256 932 0 ?133 930 1435 0 211 924 933 0 +933 -.0884999999999537 .06 .008
 -.0805 .06 .008 0 1 141 931 921 931 931 924 134 932 0 0 0 0 0 0 +934 935 136 93
4 1 2 2 2 5 FFF1 936 937 938 135 935 2 0 45 4 936 .019 .0975 .003 .0975 127 2 93
7 2 2 128 2 938 0 1 17 211 0 27 897 202 209 870 912 930 907 +137 933 1434 0 1 93
0 291 939 +249 940 0 ?133 291 1433 0 202 933 289 0 +289 -.0915 .06 .005000000000
0326 -.0884999999999537 .06 .008 0 1 141 939 930 939 939 933 134 940 0 0 0 0 0 0
 +941 942 136 941 1 2 2 2 5 FFF1 943 944 945 135 942 2 0 45 4 943 .234331065254
 1 0 1 127 2 944 2 2 128 2 945 0 1 17 202 0 27 211 28 200 304 946 291 870 +17 30
4 0 286 31 870 198 202 946 859 0 -16 946 1337 0 223183844416919e-20 202 288 912
 0 0 0 1 17 870 0 286 304 842 200 211 912 863 0 -16 912 1338 0 223183844416919e-
20 211 946 878 0 0 0 1 16 288 1527 0 223183844416919e-20 28 281 946 0 0 0 1 17 3
1 0 286 280 304 11 28 288 245 277 -133 859 1388 0 304 247 862 0 +862 -.0885 .06
 .008 -.0915 .06 .0050000000000326 0 1 17 907 0 762 877 37 209 897 889 0 842 -15
 762 1358 0 37 319 0 17 37 0 762 907 910 183 32 38 0 897 +17 910 0 762 37 877 26
 191 890 0 909 -16 38 1303 0 ?37 366 947 361 366 947 1 16 366 1155 0 ?39 377 38
 361 947 38 1 16 947 1308 0 ?185 38 948 361 38 366 1 17 185 0 382 178 383 175 36
 947 0 384 +16 948 1145 0 ?187 947 371 367 0 0 1 17 187 0 636 379 627 179 45 948
 0 949 +16 371 1137 0 ?950 948 368 891 0 0 1 30 367 1272 0 948 891 361 0 +-.0805
 .1505 -.011 -1 0 0 30 891 1274 0 371 883 367 0 +-.0805 .1505 .011 1 0 0 17 950
 0 640 147 384 172 951 371 0 676 +15 640 1211 0 141 635 0 17 147 0 640 150 950 1
45 676 243 0 403 +17 384 0 640 950 385 175 178 380 0 951 -17 951 0 34 36 174 175
 950 371 0 0 -17 676 0 675 621 608 172 147 243 0 0 -17 621 0 675 680 676 41 174
 619 0 0 +16 243 1049 0 ?147 240 622 376 0 0 1 17 174 0 34 951 45 172 621 619 0
 950 -15 34 1241 0 174 320 0 17 45 0 34 174 35 41 187 948 0 627 -17 35 0 34 45 3
2 179 39 366 0 0 -17 627 0 636 187 165 41 680 622 0 621 +15 636 1219 0 952 633 0
 17 165 0 636 627 953 163 386 372 0 680 -17 953 0 636 165 394 169 40 368 0 386 -
17 394 0 636 953 162 33 390 387 0 393 -17 40 0 321 153 171 33 953 368 0 394 +15
 321 1244 0 153 310 0 17 153 0 321 364 40 151 393 412 0 954 -17 171 0 321 40 364
 169 242 240 0 953 -17 364 0 321 171 153 148 954 358 0 242 +17 242 0 388 403 386
 148 171 240 0 0 +17 403 0 388 681 242 145 150 401 0 608 +17 681 0 388 137 403 1
17 608 606 0 685 -17 150 0 640 954 147 148 403 401 0 364 -17 954 0 640 144 150 1
51 364 358 0 406 -17 144 0 640 141 954 142 406 404 0 409 -17 406 0 392 393 451 1
51 144 404 0 0 +15 392 1074 0 451 646 0 17 393 0 392 390 406 33 153 412 0 0 +17
 451 0 392 406 113 142 955 449 0 0 +17 113 0 392 451 956 111 125 456 0 447 +17 9
55 0 519 957 409 111 451 449 0 0 -15 519 770 0 958 515 0 17 957 0 519 959 955 11
4 447 445 0 0 -17 409 0 519 955 958 142 141 407 0 451 +17 958 0 519 409 960 120
 100 473 0 0 -17 141 0 640 156 144 120 409 407 0 961 -17 156 0 640 385 141 154 9
61 410 0 356 +17 961 0 531 100 962 120 156 410 0 958 -15 531 1103 0 961 523 0 17
 100 0 531 95 961 92 958 473 0 963 +17 962 0 531 961 964 154 168 414 0 0 -17 964
 0 531 962 471 166 159 397 0 0 -17 168 0 225 352 356 166 962 414 0 952 +17 352 0
 225 234 168 180 952 357 0 379 +17 356 0 225 168 222 154 385 353 0 962 +17 952 0
 636 159 379 166 352 357 0 964 -17 159 0 636 162 952 157 964 397 0 396 +17 379 0
 636 952 187 180 949 377 0 278 +17 949 0 274 39 182 179 379 377 0 35 -17 278 0 2
69 909 205 180 234 237 914 0 -16 237 1327 0 223183844416919e-20 234 227 232 0 0
 0 1 133 914 1445 0 278 965 913 0 +913 -.0924999999999974 .1575 -.011 -.0805 .15
75 -.011 0 1 137 965 1446 0 1 279 914 966 +249 967 0 ?133 279 1447 0 205 229 965
 0 +965 -.0955 .1575 -.00800000000000302 -.0924999999999974 .1575 -.011 0 1 141
 966 279 966 966 965 134 967 0 0 0 0 0 0 +968 969 136 968 1 2 2 2 5 FFF1 970 971
 972 135 969 2 0 45 4 970 .651526527921679 0 .765668934744785 0 127 2 971 2 2 12
8 2 972 0 1 137 229 1450 0 1 218 279 973 +249 974 0 ?141 973 218 973 973 229 134
 974 0 0 0 0 0 0 +975 976 136 975 1 2 2 2 5 FFF1 977 978 979 135 976 2 0 45 4 97
7 .234331065255293 0 .348473472078482 0 127 2 978 2 2 128 2 979 0 1 16 227 1328
 0 223183844416919e-20 230 217 237 0 0 0 1 15 274 1319 0 182 268 0 17 39 0 274 1
82 949 26 35 366 0 910 +17 182 0 274 949 39 180 909 908 0 352 -17 162 0 636 394
 159 160 396 391 0 390 -17 396 0 519 980 395 157 162 391 0 471 +17 980 0 519 981
 396 88 471 469 0 0 -17 395 0 519 396 982 160 109 448 0 0 -17 471 0 531 964 983
 157 980 469 0 0 +17 983 0 531 471 984 88 488 486 0 980 -17 984 0 531 983 95 89
 480 468 0 0 -17 488 0 524 985 98 89 983 486 0 984 +15 524 528 0 985 520 0 17 98
5 0 524 51 488 52 91 484 0 986 -17 98 0 524 488 51 88 981 476 0 983 +17 51 0 524
 98 985 49 986 615 0 981 +17 981 0 519 57 980 49 98 476 0 987 -17 57 0 519 960 9
81 55 987 617 0 475 +17 987 0 739 986 988 49 57 617 0 0 -15 739 724 0 987 18 0 1
7 986 0 739 60 987 52 51 615 0 0 -17 988 0 739 987 60 55 612 609 0 0 -17 60 0 73
9 988 986 58 54 613 0 612 -17 612 0 527 566 475 58 988 609 0 483 +15 527 532 0 4
75 518 0 17 566 0 527 963 612 93 483 481 0 480 -17 475 0 527 612 963 55 960 472
 0 988 +17 963 0 527 475 566 92 95 478 0 960 -17 960 0 519 958 57 92 475 472 0 0
 -17 95 0 531 984 100 93 963 478 0 566 +17 480 0 561 483 91 93 984 468 0 0 +17 9
1 0 561 480 54 89 985 484 0 488 +17 54 0 561 91 483 52 60 613 0 985 +17 982 0 51
9 395 959 107 48 416 0 0 -17 109 0 392 122 390 107 395 448 0 454 +16 448 1071 0
 ?109 449 445 446 449 449 1 17 122 0 392 956 109 106 454 452 0 989 -17 454 0 661
 48 989 107 122 452 0 982 +15 661 892 0 48 650 0 17 48 0 661 131 454 46 982 416
 0 462 +17 989 0 661 454 131 106 430 428 0 439 -17 131 0 661 989 48 129 462 460
 0 990 -17 430 0 683 433 439 129 989 428 0 0 +17 439 0 683 430 436 106 956 437 0
 0 +15 683 926 0 430 641 0 17 436 0 683 439 433 123 991 434 0 956 +17 956 0 392
 113 122 123 439 437 0 0 -17 433 0 683 436 430 126 990 431 0 0 +17 991 0 654 116
 125 126 436 434 0 433 -15 654 900 0 447 649 0 17 116 0 654 447 991 114 128 458
 0 444 +17 125 0 654 991 447 123 113 456 0 436 -17 447 0 654 125 116 111 957 445
 0 955 +17 128 0 658 990 444 126 116 458 0 991 -17 444 0 658 128 462 114 959 442
 0 957 +15 658 921 0 444 644 0 17 462 0 658 444 990 46 131 460 0 959 +17 959 0 5
19 982 957 46 444 442 0 0 -17 990 0 658 462 128 129 433 431 0 430 -17 222 0 225
 356 216 176 214 223 305 0 +17 385 0 640 384 156 176 356 353 0 221 -17 221 0 27
 214 897 176 383 882 0 222 +17 383 0 382 185 178 183 221 882 0 37 -15 382 1313 0
 383 276 0 16 223 1331 0 223183844416919e-20 222 882 217 0 0 0 1 16 473 1088 0 ?
100 469 484 467 469 469 1 17 36 0 34 32 951 183 185 947 0 383 -17 876 0 286 842
 283 189 194 365 848 877 -16 365 1334 0 223183844416919e-20 194 358 284 0 0 0 1
 17 283 0 286 876 280 192 197 284 849 0 -16 284 1335 0 223183844416919e-20 197 3
65 281 0 0 0 1 133 849 1396 0 283 845 854 0 +854 -.0915 .06 -.005 -.0885 .06 -.0
08 0 1 133 848 1401 0 876 296 845 0 +845 -.0885 .06 -.008 -.0805 .06 -.008 0 1 1
37 296 1428 0 1 285 848 992 +249 993 0 ?141 992 285 992 992 296 134 993 0 0 0 0
 0 0 +994 995 136 994 1 2 2 2 5 FFF1 996 997 998 135 995 2 0 45 4 996 .765668934
744852 1 .651526527921782 1 127 2 997 2 2 128 2 998 0 1 141 915 914 915 915 913
 134 916 0 0 0 0 0 0 +999 1000 136 999 1 2 2 2 5 FFF1 1001 1002 1003 135 1000 2
 0 45 4 1001 .765668934744785 0 1 0 127 2 1002 2 2 128 2 1003 0 1 141 864 859 86
4 864 862 134 865 0 0 0 0 0 0 +1004 1005 136 1004 2 9 2 5 5 FFF1 1006 1007 1008
 135 1005 2 0 45 18 1006 .003 0 .003 -.000596475980445446 .00277163859753698 -.0
0114805029708774 .002543561576666955 -.001698937730652905 .00212132034357117 -.0
02121320343548115 .001699789158233685 -.002542992670938445 .00114805029711786 -.
00277163859752451 .000596998012890021 -.003 326023930075081e-28 -.003 127 5 1007
 3 2 2 2 3 128 5 1008 0 .25 .5 .75 1 133 287 1392 0 280 854 247 0 +247 -.0915 .0
6 121534726726935e-28 -.0915 .06 -.00500000000000579 .499999999998494 1 141 860
 287 1009 1009 247 134 861 0 0 0 0 0 0 +1010 1011 136 1010 1 2 2 2 5 FFF1 1012 1
013 1014 135 1011 2 0 45 4 1012 -225514051876985e-31 -.003 -.0100000000000058 -.
003 127 2 1013 2 2 128 2 1014 0 1 141 1009 245 860 860 247 141 856 849 856 856 8
54 134 857 0 0 0 0 0 0 +1015 1016 136 1015 2 9 2 5 5 FFF1 1017 1018 1019 135 101
6 2 0 45 18 1017 -.01 -.003 -.0105964759804483 -.003 -.01114805029709526 -.00277
1638597533865 -.0116989377306567 -.002543561576664185 -.01212132034355964 -.0021
2132034355965 -.01254299267095956 -.00169978915821155 -.01277163859753386 -.0011
48050297095262 -.013 -.000596998012861196 -.013 1387778780781446e-32 127 5 1018
 3 2 2 2 3 128 5 1019 0 .25 .5 .75 1 141 850 848 850 850 845 134 851 0 0 0 0 0 0
 +1020 1021 136 1020 1 2 2 2 5 FFF1 1022 1023 1024 135 1021 2 0 45 4 1022 -.013
 1387778780781446e-32 -.013 .008 127 2 1023 2 2 128 2 1024 0 1 141 844 924 844 8
44 256 83 3 793 .3411764705882355 .83921568627451 .411764705882353 83 3 758 .341
1764705882355 .83921568627451 .411764705882353 83 3 754 .3411764705882355 .83921
568627451 .411764705882353 83 3 748 .3411764705882355 .83921568627451 .411764705
882353 83 3 742 .3411764705882355 .83921568627451 .411764705882353 83 3 735 .341
1764705882355 .83921568627451 .411764705882353 79 14 731 SWEntUnchanged82 1 726
 513802359 82 1 723 1252589774 15 720 61 0 716 554 0 17 716 0 720 716 716 0 714
 713 0 0 -16 421 815 0 ?139 417 449 415 417 417 1 82 1 671 320864434 40 2 629 0
 1 2 4220817276863865e-22 389855490540431e-19 ??-.0630037554811467 .143308917390
2472 .011 -.0643599332515342 .164691082609753 .011 41 1 630 L?-.0630037554811467
 .1433089173902472 .011 41 1 631 L?-.0643599332515342 .164691082609753 .011 204
 8 632 4 4.88523948744003 .133932700251799 .0174962445188533 -.00719108260975285
 4.88166712471406 .1553148654713045 .0161400667484658 .01419108260975284 82 1 56
4 512622761 141 514 501 514 514 507 141 505 490 1025 1026 493 141 1025 376 1027
 505 493 141 1026 501 505 1027 493 141 1027 620 1026 1025 493 141 360 359 360 36
0 354 141 292 291 292 292 289 134 293 0 0 0 0 0 0 +1028 1029 136 1028 1 2 2 2 5
 FFF1 1030 1031 1032 135 1029 2 0 45 4 1030 .348473472077457 1 .234331065254 1 1
27 2 1031 2 2 128 2 1032 0 1 82 1 272 -762314434 82 1 265 -764739266 141 257 895
 1033 1034 249 126 255 258 FF3 1 31 2 6 5 25 2 FFF9 3 1035 1036 1037 1038 1039 1
25 255 259 0 1 0 1 0 1 0 1 2 BBBBBBBB????0 0 0 0 45 186 1035 -.0805 .1575 .011 -
.0805 .06 .008 -.0815 .1575 .011 -.0811666666666667 .06 .008 -.0835344624133553
 .1575 .011 -.082478966114284 .06 .008 -.0866130031967261 .1575 .011 -.084432083
3852828 .06 .008 -.0896340515502727 .1575 .011 -.0864139168143287 .06 .008 -.091
5634791871272 .1575 .011 -.0877876292626123 .06 .008 -.0927280891329289 .1575 .0
11 -.08867349750436 .06 .008 -.0931508600842243 .1575 .01094945122666646 -.08903
6757008948 .06 .00796994003382265 -.0938943514796498 .1575 .01070368344079012 -.
0897901402775034 .06 .00776132016582349 -.0946546926564297 .1575 .01017907986017
832 -.0907106266168591 .06 .00716912031848789 -.0951906395440747 .1575 .00942132
21205017 -.0912754664590677 .06 .00625244056028328 -.0954461385624306 .1575 .008
66911446396008 -.0914721086068773 .06 .00551885299509793 -.0955 .1575 .008236116
53354746 -.0915 .06 .00516771789529155 -.0955 .1575 .00674620065513551 -.0915 .0
6 .004109403377733615 -.0955 .1575 .00413053038388414 -.0915 .06 .00242225683684
914 -.0955 .1575 1301042606982604e-33 -.0915 .06 -867361737988404e-33 -.0955 .15
75 -.004130530383884135 -.0915 .06 -.002422256836849145 -.0955 .1575 -.006746200
6551355 -.0915 .06 -.004109403377733615 -.0955 .1575 -.00823611653354745 -.0915
 .06 -.00516771789529155 -.0954461385624305 .1575 -.0086691144639601 -.091472108
6068773 .06 -.00551885299509793 -.0951906395440748 .1575 -.00942132212050164 -.0
912754664590676 .06 -.00625244056028327 -.0946546926564297 .1575 -.0101790798601
7838 -.090710626616859 .06 -.0071691203184879 -.0938943514796497 .1575 -.0107036
834407901 -.0897901402775034 .06 -.00776132016582348 -.0931508600842243 .1575 -.
0109494512266665 -.0890367570089481 .06 -.00796994003382265 -.0927280891329289 .
1575 -.011 -.08867349750436 .06 -.008 -.0915634791871272 .1575 -.011 -.087787629
2626123 .06 -.008 -.0896340515502727 .1575 -.011 -.0864139168143286 .06 -.008 -.
0866130031967261 .1575 -.011 -.0844320833852828 .06 -.008 -.0835344624133552 .15
75 -.011 -.082478966114284 .06 -.008 -.0815 .1575 -.011 -.0811666666666667 .06 -
.008 -.0805 .1575 -.011 -.0805 .06 -.008 127 25 1036 4 1 1 1 2 1 1 1 1 1 2 1 1 1
 2 1 1 1 1 1 2 1 1 1 4 127 2 1037 2 2 128 25 1038 0 .0585827663075963 .117165532
6151924 .1757482989227885 .234331065230385 .24859886608964 .2628666669488945 .29
1402268667404 .3199378703859135 .3342056712451685 .3484734721044235 .42423673605
22115 .5 .575763263947788 .651526527895576 .665794328754831 .680062129614086 .70
8597731332596 .737133333051105 .75140113391036 .765668934769615 .824251701077211
 .882834467384807 .941417233692404 1 128 2 1039 0 1 141 1033 20 1040 257 249 141
 1034 229 257 1041 249 141 1041 965 1034 1042 249 141 1042 913 1041 1043 249 141
 1043 919 1042 1044 249 141 1044 933 1043 1045 249 141 1045 289 1044 1046 249 14
1 1046 290 1045 1040 249 141 1040 296 1046 1033 249 141 255 7 248 248 20 19 17 4
0 0 1 0 9 5 S0 74 4 CI16 index_map_offset0 0 1 dCCZ20 15 10 0 0 760 1047 1048 10
49 1050 1051 1052 13 263 2 0 0 0 0 0 0 0 0 0 0 81 5 1047 137 1053 1 0 1048 0 0 1
054 0 0 0 0 81 2 1048 1499 1055 1 1047 1049 0 0 0 1056 81 2 1049 1508 1057 1 104
8 1050 0 0 0 1058 81 1 1050 1642 1059 1 1049 1051 0 0 1060 81 2 1051 1683 1061 1
 1050 1052 0 0 1062 0 81 2 1052 1723 1063 1 1051 13 0 0 0 1064 81 2 13 1764 1065
 1 1052 2 0 0 0 0 80 2 1065 1066 1067 9000 0 0 0 0 3 5 0 0 0 FFTFFFFFFFFFFF9 1 7
9 16 1067 BODY_RECIPE_200180 2 1063 1068 1069 9000 0 0 0 0 3 5 0 0 0 FFTFFFFFFFF
FFF9 1 82 1 1064 1 79 24 1069 BODY_IN_LIGHTWEIGHT_PERM80 2 1061 1070 1071 8004 0
 0 0 0 3 5 0 0 0 FFTFFFFFFFFFFF2 3 83 1 1062 1 79 16 1071 SDL/TYSA_DENSITY80 1 1
059 1072 1073 9000 1 1 1 1 1 1 1 1 0 FFTFFFFFFFFFFF1 82 1 1060 583 79 10 1073 BO
DY_MATCH80 2 1057 1074 1075 9000 0 0 0 0 3 5 0 0 0 FFTFFFFFFFFFFF9 1 82 1 1058 1
51 79 30 1075 LAST_BODY_MODIFYING_FEATURE_ID80 2 1055 1076 1077 9000 0 0 0 0 3 5
 0 0 0 FFTFFFFFFFFFFT9 1 82 1 1056 239 79 19 1077 ENT_TIME_STAMP_200180 5 1053 1
078 1079 9000 0 0 0 0 3 6 0 0 0 FFTTTTTTFTTFTT2 2 2 2 2 83 1 1054 1 79 19 1079 B
ODY_SCALING_FACTOR80 2 12 1080 1081 9000 0 0 0 0 3 5 0 0 0 FFTFFFFFFFFFFF9 1 82
 1 14 113 79 12 1081 ATOM_ID_20011 0 
