**ABCDEFGHIJKLMNOPQRSTUVWXYZabcdefghijklmnopqrstuvwxyz**************************
**PARASOLID !"#$%&'()*+,-./:;<=>?@[\]^_`{|}~0123456789**************************
**PART1;
MC=AMD64;
MC_MODEL=Intel64 Family 6 Model 142 Stepping 12, GenuineIntel;
MC_ID=unknown;
OS=Windows_NT;
OS_RELEASE=unknown;
FRU=Parasolid Version 33.1, build 247,  8- 6-2021;
APPL=SOLIDWORKS 2022-2022009;
SITE=;
USER=unknown;
FORMAT=text;
GUISE=transmit;
KEY=FILECrank - 2003091.x_t;
DATE=Thu Jun 15 06:28:57 2023;
**PART2;
SCH=SCH_3301247_33103;
USFLD_SIZE=0;
**PART3;
**END_OF_HEADER*****************************************************************
T51 : TRANSMIT FILE created by modeller version 330124723 SCH_3301247_33103_1300
6230 0 12 35 CCCI7 lattice222 0 CCCI4 mesh1006 0 I8 polyline1008 0 CCCCCCCDI5 ow
ner1040 0 CCCCCCI13 boundary_mesh1006 0 I17 boundary_polyline1008 0 CCCA16 index
_map_offset0 0 1 dA9 index_map82 0 A17 node_id_index_map82 0 A20 schema_embeddin
g_map82 0 A5 child12 0 A14 lowest_node_id0 0 1 dA16 mesh_offset_data206 0 Z1 636
 2 3 0 0 0 0 0 0 0 1e3 1e-8 0 4 0 1 0 1 1 5 6 7 8 0 0 9 10 11 0 0 0 0 0 0 0 81 2
55 2 2 621 12 1 13 0 0 0 0 14 70 11 CI9 list_type0 0 1 uI10 notransmit0 0 1 lCCC
DCCDI12 finger_index0 0 1 dI12 finger_block1012 0 CZ3 0 4 T1 0 0 9 20 1 15 15 13
 255 5 183 0 1 0 16 0 0 17 0 51 255 6 174 0 18 19 0 0 -0 .075 .008 0 0 -1 .01 -1
 0 0 30 255 7 182 0 10 20 0 0 +-.00987117014340245 .0766 .008 0 0 -1 29 255 8 13
5 0 21 22 0 .00987117014340245 .0766 0 19 8 CCCCCCCA5 owner12 0 Z9 61 0 1 17 0 2
3 V0 16 255 10 150 0 ?24 0 25 7 0 0 1 18 255 11 58 0 26 0 27 28 ?1 17 255 26 0 2
9 30 31 11 32 33 0 34 +18 27 55 0 31 11 35 36 ?1 29 28 60 0 11 36 37 .0098711701
4340245 .0766 .008 29 36 57 0 27 38 28 .01812122136866625 .02570146291477195 .00
8 29 37 142 0 39 28 40 -.00987117014340245 .0766 0 18 39 125 0 41 42 0 37 ?1 29
 40 141 0 42 37 43 -.0217165743154854 .00352 0 18 42 124 0 44 45 39 40 ?1 29 43
 140 0 45 40 46 .00406153846153845 -.0216218386203728 0 18 45 123 0 47 48 42 43
 ?1 29 46 139 0 48 43 49 .0668461538461539 -.00982810846380581 0 18 48 122 0 50
 51 45 46 ?1 29 49 138 0 51 46 52 .0668461538461539 .00982810846380581 0 18 51 1
21 0 53 54 48 49 ?1 29 52 137 0 54 49 22 .0261462376659149 .01747335445096605 0
 18 54 120 0 55 56 51 52 ?1 29 22 136 0 56 52 8 .01812122136866625 .025701462914
77195 0 18 56 119 0 57 21 54 22 ?1 17 57 0 58 59 60 56 61 62 0 63 +18 21 118 0 6
4 65 56 8 ?1 17 64 0 66 34 63 21 67 68 0 69 +18 65 37 0 70 71 21 72 ?1 17 70 0 7
3 24 74 65 75 76 0 30 -18 71 40 0 75 77 65 78 ?1 29 72 39 0 65 0 78 -.0098711701
4340245 .0766 .008 29 78 42 0 71 72 79 -.0217165743154854 .00352 .008 29 79 45 0
 77 78 80 .00406153846153845 -.0216218386203728 .008 18 77 43 0 81 82 71 79 ?1 2
9 80 48 0 82 79 83 .0668461538461539 -.00982810846380581 .008 18 82 46 0 84 85 7
7 80 ?1 29 83 51 0 85 80 38 .0668461538461539 .00982810846380581 .008 18 85 49 0
 86 35 82 83 ?1 29 38 54 0 35 83 36 .0261462376659149 .01747335445096605 .008 18
 35 52 0 87 27 85 38 ?1 17 87 0 29 31 86 35 88 89 0 90 +15 255 29 4 0 30 16 91 1
7 31 0 29 26 87 27 92 93 0 59 +17 86 0 29 87 84 85 94 95 0 96 +17 88 0 97 98 90
 85 87 89 0 0 -16 89 25 0 ?87 93 95 99 0 0 1 17 90 0 97 88 55 35 60 100 0 92 -15
 97 155 0 55 101 0 17 55 0 97 90 98 54 102 103 0 60 +17 60 0 58 57 92 54 90 100
 0 61 +16 100 145 0 ?60 104 105 106 0 0 1 17 92 0 58 60 59 35 31 93 0 0 -15 58 1
53 0 57 107 0 17 59 0 58 92 57 27 63 105 0 32 -16 93 29 0 ?31 33 89 108 0 0 1 16
 33 33 0 ?26 109 93 110 0 0 1 31 255 108 31 0 93 99 110 0 +.0279923915120687 .02
73014629147719 .008 0 0 -1 -1 0 0 .01 30 99 27 0 89 111 108 0 +.0261462376659149
 .01747335445096605 .008 -.982810846380581 .1846153846153845 0 30 110 35 0 33 10
8 112 0 +.00987117014340245 .0766 .008 -.16 .987117014340245 0 31 112 134 0 113
 110 114 0 +0 .075 0 0 0 1 1 0 0 .01 16 113 114 0 ?115 116 117 112 0 0 1 30 114
 133 0 116 112 118 0 +-.00987117014340245 .0766 0 -.16 -.987117014340245 0 16 11
6 110 0 ?44 119 113 114 0 0 1 31 118 132 0 119 114 120 0 +0 0 0 0 0 1 1 0 0 .022
 16 119 106 0 ?47 121 116 118 0 0 1 30 120 131 0 121 118 122 0 +.004061538461538
46 -.0216218386203728 0 .982810846380581 .1846153846153845 0 16 121 102 0 ?50 12
3 119 120 0 0 1 31 122 130 0 123 120 124 0 +.065 0 0 0 0 1 1 0 0 .01 16 123 98 0
 ?53 103 121 122 0 0 1 30 124 129 0 103 122 125 0 +.0261462376659149 .0174733544
5096605 0 -.982810846380581 .1846153846153845 0 16 103 94 0 ?55 62 123 124 0 0 1
 31 125 128 0 62 124 126 0 +.0279923915120687 .0273014629147719 0 0 0 -1 -1 0 0
 .01 16 62 90 0 ?57 68 103 125 0 0 1 30 126 127 0 68 125 127 0 +.009871170143402
45 .0766 0 -.16 .987117014340245 0 16 68 86 0 ?64 128 62 126 0 0 1 30 127 175 0
 109 126 129 0 +.00987117014340245 .0766 .008 0 0 -1 16 109 143 0 ?69 105 33 127
 0 0 1 30 129 176 0 105 127 106 0 +.01812122136866625 .02570146291477195 .008 0
 0 -1 16 105 144 0 ?63 100 109 129 0 0 1 30 106 177 0 100 129 130 0 +.0261462376
659149 .01747335445096605 .008 0 0 -1 30 130 178 0 104 106 131 0 +.0668461538461
539 .00982810846380581 .008 0 0 -1 16 104 146 0 ?98 132 100 130 0 0 1 30 131 179
 0 132 130 133 0 +.0668461538461539 -.00982810846380581 .008 0 0 -1 16 132 147 0
 ?134 135 104 131 0 0 1 30 133 180 0 135 131 20 0 +.00406153846153845 -.02162183
86203728 .008 0 0 -1 16 135 148 0 ?136 25 132 133 0 0 1 30 20 181 0 25 133 7 0 +
-.0217165743154854 .00352 .008 0 0 -1 16 25 149 0 ?137 10 135 20 0 0 1 17 137 0
 138 47 139 42 74 25 0 140 +15 138 161 0 47 141 0 17 47 0 138 142 137 45 140 119
 0 136 +17 139 0 138 137 142 71 81 143 0 0 -17 74 0 73 70 44 71 137 25 0 139 -17
 140 0 144 41 145 42 47 119 0 0 -15 144 85 0 146 147 148 17 41 0 144 146 140 39
 44 116 0 24 -17 145 0 144 140 149 45 50 121 0 0 -17 149 0 144 145 102 48 53 123
 0 0 -17 50 0 150 151 136 48 145 121 0 134 +15 150 159 0 50 152 0 17 151 0 150 1
53 50 82 134 132 0 94 -17 136 0 150 50 153 45 142 135 0 145 +17 134 0 154 53 94
 48 151 132 0 149 +15 154 157 0 53 155 0 17 53 0 154 96 134 51 149 123 0 98 +17
 94 0 154 134 96 82 86 95 0 0 -17 96 0 154 94 53 85 98 104 0 88 -16 95 21 0 ?86
 89 156 111 0 0 1 16 156 17 0 ?84 95 143 157 0 0 1 31 111 23 0 95 157 99 0 +.065
 0 .008 0 0 1 1 0 0 .01 30 157 19 0 156 158 111 0 +.00406153846153846 -.02162183
86203728 .008 .982810846380581 .1846153846153845 0 31 158 15 0 143 159 157 0 +0
 0 .008 0 0 1 1 0 0 .022 16 143 13 0 ?81 156 76 158 0 0 1 30 159 11 0 76 160 158
 0 +-.00987117014340245 .0766 .008 -.16 -.987117014340245 0 16 76 9 0 ?75 143 12
8 159 0 0 1 31 160 7 0 128 161 159 0 +0 .075 .008 0 0 1 1 0 0 .01 16 128 5 0 ?30
 76 68 160 0 0 1 31 161 239 0 162 163 160 0 +0 .075 0 0 0 1 1 0 0 .005 16 162 21
7 0 ?164 117 165 161 0 0 1 31 163 240 0 117 166 161 0 +0 .075 .008 0 0 1 1 0 0 .
005 16 117 220 0 ?167 113 162 163 0 0 1 31 166 277 0 168 169 163 0 +.065 0 0 0 0
 1 1 0 0 .005 16 168 255 0 ?170 165 171 166 0 0 1 31 169 278 0 165 172 166 0 +.0
65 0 .008 0 0 1 1 0 0 .005 16 165 258 0 ?173 162 168 169 0 0 1 31 172 362 0 174
 175 169 0 +0 0 .008 0 0 1 1 0 0 .015 16 174 340 0 ?176 171 177 172 0 0 1 31 175
 363 0 171 178 172 0 +0 0 .02 0 0 1 1 0 0 .015 16 171 343 0 ?179 168 174 175 0 0
 1 31 178 410 0 180 181 175 0 +0 0 .02 0 0 1 1 0 0 .01 16 180 391 0 ?182 177 0 1
78 0 0 1 31 181 411 0 177 0 178 0 +0 0 0 0 0 1 1 0 0 .01 16 177 388 0 ?183 174 1
80 181 0 0 1 17 183 0 184 183 183 0 185 177 0 0 +15 184 382 0 183 147 144 17 185
 0 186 185 185 0 183 177 0 0 -15 186 397 0 185 187 188 14 255 187 394 189 ?0 190
 186 5 191 -0 0 0 190 23 15 188 398 0 182 187 0 17 182 0 188 182 182 0 192 180 0
 0 +17 192 0 193 192 192 0 182 180 0 0 -15 193 377 0 192 190 194 14 190 351 195
 ?187 196 193 5 197 +0 0 187 196 23 15 194 353 0 179 190 0 17 179 0 194 179 179
 0 198 171 0 0 +17 198 0 199 198 198 0 179 171 0 0 -15 199 349 0 198 196 200 14
 196 346 201 ?190 202 199 5 203 -0 0 190 202 23 15 200 350 0 176 196 0 17 176 0
 200 176 176 0 204 174 0 0 +17 204 0 205 204 204 0 176 174 0 0 -15 205 334 0 204
 16 206 14 16 252 207 ?147 0 205 5 208 +0 0 147 0 23 15 206 211 0 209 16 29 17 2
09 0 206 209 209 0 167 117 0 0 -17 167 0 210 167 167 0 209 117 0 0 +15 210 226 0
 167 211 212 14 211 223 213 ?202 214 210 5 215 +0 0 202 214 23 15 212 227 0 216
 211 0 17 216 0 212 216 216 0 164 162 0 0 -17 164 0 148 164 164 0 216 162 0 0 +1
5 148 206 0 164 147 217 14 147 246 218 ?18 16 184 5 219 -0 0 18 16 23 15 217 244
 0 170 147 0 17 170 0 217 170 170 0 220 168 0 0 +17 220 0 221 220 220 0 170 168
 0 0 -15 221 265 0 220 202 0 14 202 261 222 ?196 211 223 5 224 +0 0 196 211 23 8
1 1 222 628 225 202 226 0 218 227 228 15 223 264 0 173 202 221 51 224 274 0 202
 203 215 0 -.065 0 .008 0 0 -1 .005 -1 0 0 13 23 62 0 0 0 0 0 0 9 16 51 203 359
 0 196 197 224 0 -0 0 .02 0 0 -1 .015 -1 0 0 51 215 236 0 211 224 208 0 -0 .075
 .008 0 0 -1 .005 -1 0 0 50 255 208 3 0 16 215 219 0 +0 .075 .008 0 0 1 1 0 0 50
 219 126 0 147 208 229 0 +0 .075 0 0 0 1 1 0 0 50 229 167 0 214 219 230 0 +.0098
7117014340245 .0766 .008 -.987117014340245 -.16 0 .16 -.987117014340245 0 14 214
 152 227 ?211 107 66 5 229 -0 0 211 107 23 51 230 168 0 107 229 231 0 +.02799239
15120687 .0273014629147719 .008 0 0 -1 .01 -1 0 0 14 107 154 232 ?214 101 58 5 2
30 -0 0 214 101 23 50 231 169 0 101 230 233 0 +.0261462376659149 .01747335445096
605 .008 -.1846153846153845 -.982810846380581 0 .982810846380581 -.1846153846153
845 0 14 101 156 234 ?107 155 97 5 231 -0 0 107 155 23 51 233 170 0 155 231 235
 0 -.065 0 .008 0 0 -1 .01 -1 0 0 14 155 158 236 ?101 152 154 5 233 -0 0 101 152
 23 50 235 171 0 152 233 237 0 +.00406153846153846 -.0216218386203728 .008 -.184
6153846153845 .982810846380581 0 -.982810846380581 -.1846153846153845 0 14 152 1
60 238 ?155 141 150 5 235 -0 0 155 141 23 51 237 172 0 141 235 19 0 -0 0 .008 0
 0 -1 .022 -1 0 0 14 141 162 239 ?152 240 138 5 237 -0 0 152 240 23 50 19 173 0
 240 237 6 0 +-.00987117014340245 .0766 .008 .987117014340245 -.16 0 .16 .987117
014340245 0 14 240 164 241 ?141 18 73 5 19 -0 0 141 18 23 81 1 241 635 225 240 2
42 0 239 243 244 14 18 166 243 ?240 147 245 5 6 -0 0 240 147 23 15 73 163 0 44 2
40 0 17 44 0 73 74 24 42 41 116 0 137 +17 24 0 73 44 70 39 246 10 0 115 +17 246
 0 245 247 115 65 24 10 0 0 -17 115 0 245 246 69 39 146 113 0 0 +15 245 165 0 11
5 18 0 17 69 0 245 115 247 21 34 109 0 146 +17 146 0 144 67 41 21 115 113 0 0 -1
7 67 0 144 61 146 56 64 68 0 0 -17 61 0 144 102 67 54 57 62 0 0 -17 102 0 144 14
9 61 51 55 103 0 0 -17 247 0 245 69 246 11 30 128 0 0 -17 34 0 66 32 64 11 69 10
9 0 247 -15 66 151 0 64 214 0 17 32 0 66 63 34 27 26 33 0 0 -17 63 0 66 64 32 56
 59 105 0 67 +17 30 0 29 75 26 65 247 128 0 246 +17 75 0 29 81 30 71 70 76 0 74
 +17 81 0 29 84 75 77 139 143 0 142 +17 84 0 29 86 81 82 153 156 0 151 +17 142 0
 138 139 47 77 136 135 0 153 -17 153 0 150 136 151 77 84 156 0 0 -81 1 243 636 2
25 18 248 0 241 0 249 80 255 1 225 250 251 9000 1 1 1 1 1 1 1 1 0 FFFFTFTFFFFFFF
1 81 1 248 577 252 18 0 243 253 242 254 82 255 1 249 -2070806424 80 1 252 0 255
 8001 0 0 0 0 3 5 0 0 0 FFFFTFTFFFFFFF2 81 1 253 576 252 147 0 218 256 248 257 8
1 1 242 578 252 240 0 241 248 258 259 83 255 3 254 1 .168627450980392 .168627450
980392 81 1 258 579 252 141 0 239 242 260 261 83 3 259 1 .168627450980392 .16862
7450980392 81 1 239 634 225 141 258 0 238 241 262 81 1 260 580 252 152 0 238 258
 263 264 83 3 261 1 .168627450980392 .168627450980392 81 1 238 633 225 152 260 0
 236 239 265 81 1 263 581 252 155 0 236 260 266 267 83 3 264 1 .168627450980392
 .168627450980392 81 1 236 632 225 155 263 0 234 238 268 81 1 266 582 252 101 0
 234 263 269 270 83 3 267 1 .168627450980392 .168627450980392 81 1 234 631 225 1
01 266 0 232 236 271 81 1 269 583 252 107 0 232 266 272 273 83 3 270 1 .16862745
0980392 .168627450980392 81 1 232 630 225 107 269 0 227 234 274 81 1 272 584 252
 214 0 227 269 275 276 83 3 273 1 .168627450980392 .168627450980392 81 1 227 629
 225 214 272 0 222 232 277 81 1 275 585 252 211 0 213 272 226 278 83 3 276 1 .16
8627450980392 .168627450980392 81 1 213 626 225 211 275 0 207 218 279 81 1 226 5
86 252 202 0 222 275 280 281 83 3 278 1 .168627450980392 .168627450980392 81 1 2
80 587 252 196 0 201 226 282 283 83 3 281 1 .168627450980392 .168627450980392 81
 1 201 624 225 196 280 0 195 207 284 81 1 282 588 252 190 0 195 280 285 286 83 3
 283 1 .168627450980392 .168627450980392 81 1 195 623 225 190 282 0 189 201 287
 81 1 285 589 252 187 0 189 282 0 288 83 3 286 1 .168627450980392 .1686274509803
92 81 1 189 622 225 187 285 0 0 195 289 83 3 288 1 .168627450980392 .16862745098
0392 82 1 289 568328302 82 1 287 -656408466 81 1 207 625 225 16 256 0 201 213 29
0 82 1 284 -654442389 81 1 256 575 252 16 0 207 0 253 291 82 1 290 -2065498005 8
3 3 291 1 .168627450980392 .168627450980392 81 1 218 627 225 147 253 0 213 222 2
92 82 1 279 -2094268312 82 1 292 -2066022290 82 1 277 -2072641432 82 1 274 -2072
379288 82 1 271 -2072117144 82 1 268 -2071855000 82 1 265 -2071592856 82 1 262 -
2071330712 83 3 257 1 .168627450980392 .168627450980392 79 255 15 255 SDL/TYSA_C
OLOUR79 14 251 SWEntUnchanged82 1 244 -2071068568 50 197 361 0 190 191 203 0 +0
 0 .02 0 0 1 1 0 0 51 191 407 0 187 0 197 0 +0 0 0 0 0 1 .01 1 0 0 17 173 0 223
 173 173 0 293 165 0 0 +17 293 0 91 293 293 0 173 165 0 0 -15 91 249 0 293 16 0
 82 1 228 -2090139544 17 98 0 97 55 88 51 96 104 0 102 +19 17 184 0 1 0 9 5 S0 7
4 4 CI16 index_map_offset0 0 1 dCCZ20 15 9 0 0 243 294 295 296 297 298 13 285 2
 0 0 0 0 0 0 0 0 0 0 0 81 2 294 364 299 1 0 295 0 0 0 300 81 2 295 368 301 1 294
 296 0 0 0 302 81 1 296 419 303 1 295 297 0 0 304 81 2 297 436 305 1 296 298 0 0
 306 0 81 2 298 499 307 1 297 13 0 0 0 308 81 2 13 572 309 1 298 2 0 0 0 0 80 2
 309 310 311 9000 0 0 0 0 3 5 0 0 0 FFTFFFFFFFFFFF9 1 79 16 311 BODY_RECIPE_2001
80 2 307 312 313 9000 0 0 0 0 3 5 0 0 0 FFTFFFFFFFFFFF9 1 82 1 308 1 79 24 313 B
ODY_IN_LIGHTWEIGHT_PERM80 2 305 314 315 8004 0 0 0 0 3 5 0 0 0 FFTFFFFFFFFFFF2 3
 83 1 306 1 79 16 315 SDL/TYSA_DENSITY80 1 303 316 317 9000 1 1 1 1 1 1 1 1 0 FF
TFFFFFFFFFFF1 82 1 304 885692 79 10 317 BODY_MATCH80 2 301 318 319 9000 0 0 0 0
 3 5 0 0 0 FFTFFFFFFFFFFF9 1 82 1 302 62 79 30 319 LAST_BODY_MODIFYING_FEATURE_I
D80 2 299 320 321 9000 0 0 0 0 3 5 0 0 0 FFTFFFFFFFFFFT9 1 82 1 300 107 79 19 32
1 ENT_TIME_STAMP_200180 2 12 322 323 9000 0 0 0 0 3 5 0 0 0 FFTFFFFFFFFFFF9 1 82
 1 14 103 79 12 323 ATOM_ID_20011 0 
