**ABCDEFGHIJKLMNOPQRSTUVWXYZabcdefghijklmnopqrstuvwxyz**************************
**PARASOLID !"#$%&'()*+,-./:;<=>?@[\]^_`{|}~0123456789**************************
**PART1;
MC=AMD64;
MC_MODEL=Intel64 Family 6 Model 142 Stepping 12, GenuineIntel;
MC_ID=unknown;
OS=Windows_NT;
OS_RELEASE=unknown;
FRU=Parasolid Version 33.1, build 247,  8- 6-2021;
APPL=SOLIDWORKS 2022-2022009;
SITE=;
USER=unknown;
FORMAT=text;
GUISE=transmit;
KEY=FILEGeneva.x_t;
DATE=Thu Jun 15 06:28:51 2023;
**PART2;
SCH=SCH_3301247_33103;
USFLD_SIZE=0;
**PART3;
**END_OF_HEADER*****************************************************************
T51 : TRANSMIT FILE created by modeller version 330124723 SCH_3301247_33103_1300
6230 0 12 35 CCCI7 lattice222 0 CCCI4 mesh1006 0 I8 polyline1008 0 CCCCCCCDI5 ow
ner1040 0 CCCCCCI13 boundary_mesh1006 0 I17 boundary_polyline1008 0 CCCA16 index
_map_offset0 0 1 dA9 index_map82 0 A17 node_id_index_map82 0 A20 schema_embeddin
g_map82 0 A5 child12 0 A14 lowest_node_id0 0 1 dA16 mesh_offset_data206 0 Z1 152
1 2 3 0 0 0 0 0 0 0 1e3 1e-8 0 4 0 1 0 1 1 5 6 7 8 0 0 9 10 11 0 0 0 0 0 0 0 81
 255 2 2 1486 12 1 13 0 0 0 0 14 70 11 CI9 list_type0 0 1 uI10 notransmit0 0 1 l
CCCDCCDI12 finger_index0 0 1 dI12 finger_block1012 0 CZ3 0 4 T1 0 0 9 20 1 15 15
 13 255 5 204 0 1 0 16 0 0 17 0 51 255 6 193 0 16 18 0 0 +.015875 0 .00635 0 0 -
1 .00254 -1 0 0 30 255 7 202 0 19 20 0 0 +.015875 .00254 .00635 0 0 -1 29 255 8
 152 0 21 22 0 .00732132833709204 .01431311903047316 0 19 8 CCCCCCCA5 owner12 0
 Z9 68 0 1 17 0 23 V0 16 255 10 940 0 ?24 0 19 25 0 0 1 18 255 11 59 0 26 0 27 2
8 ?1 17 255 26 0 29 30 31 11 32 33 0 34 +18 27 56 0 31 11 35 36 ?1 29 28 61 0 11
 36 37 .00732132833709204 .01431311903047316 .00635 29 36 58 0 27 38 28 .0120774
0793387722 .02895082690699385 .00635 29 37 157 0 39 28 40 .015875 .00254 0 18 39
 138 0 41 42 43 37 ?1 29 40 156 0 42 37 44 .03126599688159645 .00254 0 18 42 137
 0 45 46 39 40 ?1 29 44 155 0 46 40 47 .0306128649977918 .0068459227009201 0 18
 46 136 0 48 49 42 44 ?1 29 47 154 0 49 44 22 .01597075492558675 .02699905828185
21 0 18 49 135 0 50 51 46 47 ?1 29 22 153 0 51 47 8 .01207740793387722 .02895082
690699385 0 18 51 134 0 52 21 49 22 ?1 17 52 0 53 54 55 51 56 57 0 58 +18 21 133
 0 59 60 51 8 ?1 17 59 0 61 34 58 21 62 63 0 64 +18 60 44 0 65 66 21 67 ?1 17 65
 0 29 68 69 60 70 71 0 72 +18 66 47 0 68 73 60 74 ?1 29 67 46 0 60 75 74 .015875
 .00254 .00635 29 75 758 0 76 77 67 -.0113501702448794 .0113859940458554 0 29 74
 49 0 66 67 78 .03126599688159645 .00254 .00635 29 78 52 0 73 74 38 .03061286499
77918 .0068459227009201 .00635 18 73 50 0 79 35 66 78 ?1 29 38 55 0 35 78 36 .01
597075492558675 .0269990582818521 .00635 18 35 53 0 80 27 73 38 ?1 17 80 0 29 31
 79 35 81 82 0 83 +15 255 29 4 0 30 84 0 17 31 0 29 26 80 27 85 86 0 54 +17 79 0
 29 80 68 73 87 88 0 89 +17 81 0 90 91 83 73 80 82 0 0 -16 82 21 0 ?80 86 88 92
 0 0 1 17 83 0 90 81 50 35 55 93 0 85 -15 90 176 0 50 94 0 17 50 0 90 83 91 49 9
5 96 0 55 +17 55 0 53 52 85 49 83 93 0 56 +16 93 163 0 ?55 97 98 99 0 0 1 17 85
 0 53 55 54 35 31 86 0 0 -15 53 174 0 52 100 0 17 54 0 53 85 52 27 58 98 0 32 -1
6 86 25 0 ?31 33 82 101 0 0 1 16 33 29 0 ?26 102 86 103 0 0 1 31 255 101 27 0 86
 92 103 0 +0 0 .00635 0 0 1 1 0 0 .031369 31 92 23 0 82 104 101 0 +.031419469403
74215 .0228275807291818 .00635 0 0 -1 1 0 0 .016002 30 103 31 0 33 101 105 0 +.0
0732132833709204 .01431311903047316 .00635 -.309016994374951 -.951056516295152 0
 31 105 35 0 102 103 106 0 +.00490564478570235 .01509802219618555 .00635 0 0 -1
 1 0 0 .00254 16 102 33 0 ?30 107 33 105 0 0 1 31 106 148 0 108 105 109 0 +.0158
75 0 0 0 0 -1 1 0 0 .00254 16 108 123 0 ?41 110 111 106 0 0 1 30 109 147 0 110 1
06 112 0 +.015875 .00254 0 1 0 0 16 110 119 0 ?45 113 108 109 0 0 1 31 112 146 0
 113 109 114 0 +0 0 0 0 0 1 1 0 0 .031369 16 113 115 0 ?48 96 110 112 0 0 1 31 1
14 145 0 96 112 115 0 +.03141946940374215 .0228275807291818 0 0 0 -1 1 0 0 .0160
02 16 96 111 0 ?50 57 113 114 0 0 1 31 115 144 0 57 114 116 0 +0 0 0 0 0 1 1 0 0
 .031369 16 57 107 0 ?52 63 96 115 0 0 1 30 116 143 0 63 115 117 0 +.00732132833
709204 .01431311903047316 0 -.309016994374951 -.951056516295152 0 16 63 103 0 ?5
9 118 57 116 0 0 1 31 117 142 0 118 116 119 0 +.00490564478570235 .0150980221961
8555 0 0 0 -1 1 0 0 .00254 16 118 99 0 ?120 71 63 117 0 0 1 30 119 197 0 107 117
 121 0 +.00732132833709204 .01431311903047316 .00635 0 0 -1 16 107 161 0 ?64 98
 102 119 0 0 1 30 121 198 0 98 119 99 0 +.01207740793387722 .02895082690699385 .
00635 0 0 -1 16 98 162 0 ?58 93 107 121 0 0 1 30 99 199 0 93 121 122 0 +.0159707
5492558675 .0269990582818521 .00635 0 0 -1 30 122 200 0 97 99 20 0 +.03061286499
77918 .0068459227009201 .00635 0 0 -1 16 97 164 0 ?91 123 93 122 0 0 1 30 20 201
 0 123 122 7 0 +.03126599688159645 .00254 .00635 0 0 -1 16 123 165 0 ?124 19 97
 20 0 0 1 17 124 0 125 48 87 42 126 123 0 127 +16 19 166 0 ?128 10 123 7 0 0 1 1
7 128 0 129 45 130 39 72 19 0 131 +15 129 180 0 45 132 0 17 45 0 129 126 128 42
 131 110 0 124 +17 130 0 129 128 126 60 68 133 0 0 -17 72 0 134 70 41 60 128 19
 0 130 -17 131 0 135 136 127 39 45 110 0 0 -15 135 94 0 136 137 0 17 136 0 135 1
38 131 139 41 108 0 140 -17 127 0 135 131 95 42 48 113 0 0 -17 95 0 135 127 56 4
6 50 96 0 0 -17 48 0 125 89 124 46 127 113 0 91 +15 125 178 0 48 141 0 17 89 0 1
25 87 48 73 91 97 0 81 -17 91 0 90 50 81 46 89 97 0 95 +17 87 0 125 124 89 66 79
 88 0 0 -16 88 17 0 ?79 82 133 104 0 0 1 16 133 13 0 ?68 88 71 142 0 0 1 31 104
 19 0 88 142 92 0 +0 0 .00635 0 0 1 1 0 0 .031369 30 142 15 0 133 143 104 0 +.01
5875 .00254 .00635 1 0 0 31 143 11 0 71 144 142 0 +.015875 0 .00635 0 0 -1 1 0 0
 .00254 16 71 9 0 ?65 133 118 143 0 0 1 30 144 678 0 111 145 143 0 +.00248996123
4312555 .01588292536189795 .00635 0 0 -1 16 111 279 0 ?146 108 147 144 0 0 1 30
 145 679 0 147 148 144 0 +.00724604083109764 .03052063323841865 .00635 0 0 -1 16
 147 283 0 ?149 111 150 145 0 0 1 30 148 680 0 150 151 145 0 +.00294903613606059
 .0312300711953753 .00635 0 0 -1 16 150 287 0 ?152 147 153 148 0 0 1 30 151 681
 0 153 154 148 0 +-.02074239562778445 .0235322583833441 .00635 0 0 -1 16 153 291
 0 ?155 150 156 151 0 0 1 30 154 682 0 156 157 151 0 +-.02380174828246275 .02043
259503093725 .00635 0 0 -1 16 156 295 0 ?158 153 159 154 0 0 1 30 157 683 0 159
 160 154 0 +-.0113501702448794 .0113859940458554 .00635 0 0 -1 16 159 301 0 ?161
 156 162 157 0 0 1 31 160 685 0 163 164 157 0 +-.01284314478570228 .009331090880
14303 0 0 0 -1 .309016994374945 .951056516295155 0 .00254 16 163 296 0 ?165 166
 167 160 0 0 1 30 164 686 0 167 168 160 0 +-.0113501702448794 .0113859940458554
 0 .809016994374947 -.587785252292474 0 16 167 292 0 ?169 163 170 164 0 0 1 31 1
68 687 0 170 171 164 0 +0 0 0 0 0 1 .309016994374945 .951056516295155 0 .031369
 16 170 288 0 ?172 167 173 168 0 0 1 31 171 688 0 173 174 168 0 +-.0120011694037
421 .03693580150074835 0 0 0 -1 .309016994374945 .951056516295155 0 .016002 16 1
73 284 0 ?175 170 176 171 0 0 1 31 174 689 0 176 177 171 0 +0 0 0 0 0 1 .3090169
94374945 .951056516295155 0 .031369 16 176 280 0 ?178 173 179 174 0 0 1 30 177 6
90 0 179 180 174 0 +.002489961234312555 .01588292536189795 0 .309016994374945 .9
51056516295155 0 16 179 276 0 ?181 176 182 177 0 0 1 31 180 693 0 162 183 177 0
 +-.01284314478570228 .00933109088014303 .00635 0 0 -1 .309016994374945 .9510565
16295155 0 .00254 16 162 323 0 ?184 159 185 180 0 0 1 30 183 694 0 185 186 180 0
 +-.0113501702448794 .0113859940458554 .00635 .809016994374947 -.587785252292474
 0 16 185 320 0 ?187 162 188 183 0 0 1 31 186 695 0 188 189 183 0 +0 0 .00635 0
 0 1 .309016994374945 .951056516295155 0 .031369 16 188 317 0 ?190 185 191 186 0
 0 1 31 189 696 0 191 192 186 0 +-.0120011694037421 .03693580150074835 .00635 0
 0 -1 .309016994374945 .951056516295155 0 .016002 16 191 314 0 ?193 188 194 189
 0 0 1 31 192 697 0 194 195 189 0 +0 0 .00635 0 0 1 .309016994374945 .9510565162
95155 0 .031369 16 194 311 0 ?196 191 166 192 0 0 1 30 195 698 0 166 197 192 0 +
.002489961234312555 .01588292536189795 .00635 .309016994374945 .951056516295155
 0 16 166 308 0 ?198 194 163 195 0 0 1 30 197 701 0 182 199 195 0 +-.01433611932
652522 .00727618771443057 .00635 0 0 -1 16 182 392 0 ?200 179 201 197 0 0 1 30 1
99 702 0 201 202 197 0 +-.02678769736410865 .01632278869951235 .00635 0 0 -1 16
 201 396 0 ?203 182 204 199 0 0 1 30 202 703 0 204 205 199 0 +-.0287902604316547
 .0124553227689007 .00635 0 0 -1 16 204 400 0 ?206 201 207 202 0 0 1 30 205 704
 0 207 208 202 0 +-.02879026043165465 -.0124553227689009 .00635 0 0 -1 16 207 40
4 0 ?209 204 210 205 0 0 1 30 208 705 0 210 211 205 0 +-.0267876973641085 -.0163
2278869951255 .00635 0 0 -1 16 210 408 0 ?212 207 213 208 0 0 1 30 211 706 0 213
 214 208 0 +-.01433611932652516 -.00727618771443067 .00635 0 0 -1 16 213 414 0 ?
215 210 216 211 0 0 1 31 214 707 0 217 218 211 0 +-.01284314478570228 -.00933109
088014303 0 0 0 -1 -.809016994374951 .587785252292469 0 .00254 16 217 409 0 ?219
 220 221 214 0 0 1 30 218 708 0 221 222 214 0 +-.01433611932652516 -.00727618771
443066 0 .809016994374946 .587785252292475 0 16 221 405 0 ?223 217 224 218 0 0 1
 31 222 709 0 224 225 218 0 +0 0 0 0 0 1 -.809016994374951 .587785252292469 0 .0
31369 16 224 401 0 ?226 221 227 222 0 0 1 31 225 710 0 227 228 222 0 +-.0388366
 -1318389841742372e-31 0 0 0 -1 -.809016994374951 .587785252292469 0 .016002 16
 227 397 0 ?229 224 230 225 0 0 1 31 228 711 0 230 231 225 0 +0 0 0 0 0 1 -.8090
16994374951 .587785252292469 0 .031369 16 230 393 0 ?232 227 233 228 0 0 1 30 23
1 712 0 233 234 228 0 +-.01433611932652522 .00727618771443057 0 -.80901699437495
1 .587785252292469 0 16 233 389 0 ?235 230 236 231 0 0 1 31 234 713 0 216 237 23
1 0 +-.01284314478570228 -.00933109088014303 .00635 0 0 -1 -.809016994374951 .58
7785252292469 0 .00254 16 216 343 0 ?238 213 239 234 0 0 1 30 237 714 0 239 240
 234 0 +-.01433611932652516 -.00727618771443066 .00635 .809016994374946 .5877852
52292475 0 16 239 340 0 ?241 216 242 237 0 0 1 31 240 715 0 242 243 237 0 +0 0 .
00635 0 0 1 -.809016994374951 .587785252292469 0 .031369 16 242 337 0 ?244 239 2
45 240 0 0 1 31 243 716 0 245 246 240 0 +-.0388366 -1318389841742372e-31 .00635
 0 0 -1 -.809016994374951 .587785252292469 0 .016002 16 245 334 0 ?247 242 248 2
43 0 0 1 31 246 717 0 248 249 243 0 +0 0 .00635 0 0 1 -.809016994374951 .5877852
52292469 0 .031369 16 248 331 0 ?250 245 220 246 0 0 1 30 249 718 0 220 251 246
 0 +-.01433611932652522 .00727618771443057 .00635 -.809016994374951 .58778525229
2469 0 16 220 328 0 ?252 248 217 249 0 0 1 30 251 719 0 236 253 249 0 +-.0113501
702448793 -.01138599404585548 .00635 0 0 -1 16 236 418 0 ?254 233 255 251 0 0 1
 30 253 720 0 255 256 251 0 +-.0238017482824626 -.02043259503093745 .00635 0 0 -
1 16 255 422 0 ?257 236 258 253 0 0 1 30 256 721 0 258 259 253 0 +-.020742395627
78425 -.02353225838334425 .00635 0 0 -1 16 258 426 0 ?260 255 261 256 0 0 1 30 2
59 722 0 261 262 256 0 +.002949036136060815 -.03123007119537525 .00635 0 0 -1 16
 261 430 0 ?263 258 264 259 0 0 1 30 262 723 0 264 265 259 0 +.00724604083109787
 -.0305206332384186 .00635 0 0 -1 16 264 434 0 ?266 261 267 262 0 0 1 30 265 724
 0 267 268 262 0 +.002489961234312675 -.0158829253618979 .00635 0 0 -1 16 267 44
0 0 ?269 264 270 265 0 0 1 31 268 725 0 271 272 265 0 +.00490564478570236 -.0150
9802219618555 0 0 0 -1 -.809016994374942 -.58778525229248 0 .00254 16 271 435 0
 ?273 274 275 268 0 0 1 30 272 726 0 275 276 268 0 +.00248996123431267 -.0158829
253618979 0 -.309016994374952 .951056516295152 0 16 275 431 0 ?277 271 278 272 0
 0 1 31 276 727 0 278 279 272 0 +0 0 0 0 0 1 -.809016994374942 -.58778525229248
 0 .031369 16 278 427 0 ?280 275 281 276 0 0 1 31 279 728 0 281 282 276 0 +-.012
00116940374184 -.03693580150074845 0 0 0 -1 -.809016994374942 -.58778525229248 0
 .016002 16 281 423 0 ?283 278 284 279 0 0 1 31 282 729 0 284 285 279 0 +0 0 0 0
 0 1 -.809016994374942 -.58778525229248 0 .031369 16 284 419 0 ?286 281 287 282
 0 0 1 30 285 730 0 287 288 282 0 +-.0113501702448793 -.01138599404585548 0 -.80
9016994374942 -.58778525229248 0 16 287 415 0 ?289 284 290 285 0 0 1 31 288 731
 0 270 291 285 0 +.00490564478570236 -.01509802219618555 .00635 0 0 -1 -.8090169
94374942 -.58778525229248 0 .00254 16 270 363 0 ?292 267 293 288 0 0 1 30 291 73
2 0 293 294 288 0 +.00248996123431267 -.0158829253618979 .00635 -.30901699437495
2 .951056516295152 0 16 293 360 0 ?295 270 296 291 0 0 1 31 294 733 0 296 297 29
1 0 +0 0 .00635 0 0 1 -.809016994374942 -.58778525229248 0 .031369 16 296 357 0
 ?298 293 299 294 0 0 1 31 297 734 0 299 300 294 0 +-.01200116940374184 -.036935
80150074845 .00635 0 0 -1 -.809016994374942 -.58778525229248 0 .016002 16 299 35
4 0 ?301 296 302 297 0 0 1 31 300 735 0 302 303 297 0 +0 0 .00635 0 0 1 -.809016
994374942 -.58778525229248 0 .031369 16 302 351 0 ?304 299 274 300 0 0 1 30 303
 736 0 274 305 300 0 +-.0113501702448793 -.01138599404585548 .00635 -.8090169943
74942 -.58778525229248 0 16 274 348 0 ?306 302 271 303 0 0 1 30 305 737 0 290 30
7 303 0 +.00732132833709214 -.01431311903047312 .00635 0 0 -1 16 290 444 0 ?308
 287 309 305 0 0 1 30 307 738 0 309 310 305 0 +.01207740793387744 -.028950826906
99375 .00635 0 0 -1 16 309 448 0 ?311 290 312 307 0 0 1 30 310 739 0 312 313 307
 0 +.01597075492558695 -.026999058281852 .00635 0 0 -1 16 312 452 0 ?314 309 315
 310 0 0 1 30 313 740 0 315 316 310 0 +.03061286499779185 -.00684592270091989 .0
0635 0 0 -1 16 315 456 0 ?317 312 318 313 0 0 1 30 316 741 0 318 319 313 0 +.031
2659968815965 -.002539999999999775 .00635 0 0 -1 16 318 460 0 ?320 315 321 316 0
 0 1 30 319 742 0 321 322 316 0 +.015875 -.002539999999999885 .00635 0 0 -1 16 3
21 464 0 ?323 318 324 319 0 0 1 30 322 746 0 325 326 319 0 +.015875 -.0025399999
9999989 0 -1 -743849426498855e-29 0 16 325 457 0 ?140 327 328 322 0 0 1 31 326 7
47 0 328 329 322 0 +0 0 0 0 0 1 .309016994374958 -.95105651629515 0 .031369 16 3
28 453 0 ?330 325 331 326 0 0 1 31 329 748 0 331 332 326 0 +.0314194694037423 -.
0228275807291816 0 0 0 -1 .309016994374958 -.95105651629515 0 .016002 16 331 449
 0 ?333 328 334 329 0 0 1 31 332 749 0 334 335 329 0 +0 0 0 0 0 1 .3090169943749
58 -.95105651629515 0 .031369 16 334 445 0 ?336 331 337 332 0 0 1 30 335 750 0 3
37 338 332 0 +.00732132833709214 -.01431311903047312 0 .309016994374958 -.951056
51629515 0 16 337 441 0 ?339 334 340 335 0 0 1 30 338 753 0 324 341 335 0 +.0158
75 -.00253999999999989 .00635 -1 -743849426498855e-29 0 16 324 380 0 ?69 321 342
 338 0 0 1 31 341 754 0 342 343 338 0 +0 0 .00635 0 0 1 .309016994374958 -.95105
651629515 0 .031369 16 342 377 0 ?344 324 345 341 0 0 1 31 343 755 0 345 346 341
 0 +.0314194694037423 -.0228275807291816 .00635 0 0 -1 .309016994374958 -.951056
51629515 0 .016002 16 345 374 0 ?347 342 348 343 0 0 1 31 346 756 0 348 349 343
 0 +0 0 .00635 0 0 1 .309016994374958 -.95105651629515 0 .031369 16 348 371 0 ?3
50 345 327 346 0 0 1 30 349 757 0 327 25 346 0 +.00732132833709214 -.01431311903
047312 .00635 .309016994374958 -.95105651629515 0 16 327 368 0 ?351 348 325 349
 0 0 1 31 25 972 0 10 352 349 0 +0 0 .00635 0 0 1 1 0 0 .00635 31 352 973 0 340
 353 25 0 +0 0 .011176 0 0 1 1 0 0 .00635 16 340 953 0 ?354 337 355 352 0 0 1 31
 353 1036 0 355 356 352 0 +0 0 -693889390390723e-32 0 0 1 1 0 0 .003175 16 355 1
017 0 ?357 340 358 353 0 0 1 31 356 1037 0 358 0 353 0 +0 0 .011176 0 0 1 1 0 0
 .003175 16 358 1016 0 ?359 355 0 356 0 0 1 17 359 0 360 359 359 0 361 358 0 0 +
15 360 1030 0 359 362 0 17 361 0 363 361 361 0 359 358 0 0 -15 363 1009 0 361 36
4 365 14 255 364 961 366 ?362 367 363 5 368 +0 0 362 367 23 15 365 963 0 354 364
 0 17 354 0 365 354 354 0 369 340 0 0 +17 369 0 370 369 369 0 354 340 0 0 -15 37
0 959 0 369 367 371 14 367 956 372 ?364 373 370 5 374 -0 0 364 373 23 15 371 960
 0 24 367 0 17 24 0 371 24 24 0 375 10 0 0 +17 375 0 376 375 375 0 24 10 0 0 -15
 376 942 0 375 84 29 14 84 1 377 ?137 378 376 5 379 +0 0 137 378 23 81 1 377 148
9 380 84 381 0 372 382 383 14 137 93 382 ?384 84 385 5 386 -0 0 384 84 23 14 378
 171 387 ?84 388 389 5 390 -0 0 84 388 23 50 255 379 3 0 84 391 386 0 +.015875 0
 .00635 0 0 1 1 0 0 13 23 69 0 0 0 0 0 0 9 16 14 16 183 392 ?132 0 134 5 6 -0 0
 132 0 23 81 1 392 1492 380 16 393 0 387 394 395 14 132 181 394 ?141 16 129 5 18
 -0 0 141 16 23 15 134 182 0 41 16 0 17 41 0 134 72 323 39 136 108 0 128 +17 323
 0 134 41 70 139 396 321 0 0 +17 70 0 134 323 72 397 65 71 0 69 -18 139 521 0 13
6 398 399 400 ?1 17 396 0 401 402 140 397 323 321 0 0 -15 401 637 0 140 373 0 17
 402 0 401 320 396 403 69 324 0 0 -17 140 0 401 396 320 139 138 325 0 323 +18 39
7 501 0 70 404 403 405 ?1 18 404 510 0 219 406 397 407 ?1 18 403 500 0 344 397 4
08 409 ?1 29 405 806 0 397 409 410 .015875 -.002539999999999885 .00635 29 409 80
7 0 403 411 405 .0312659968815965 -.002539999999999775 .00635 29 410 804 0 412 4
05 413 .00732132833709214 -.01431311903047312 0 18 412 516 0 273 414 0 410 ?1 29
 413 803 0 414 410 415 .01207740793387744 -.02895082690699375 0 18 414 517 0 339
 416 412 413 ?1 29 415 802 0 416 413 417 .01597075492558695 -.026999058281852 0
 18 416 518 0 336 418 414 415 ?1 29 417 801 0 418 415 419 .03061286499779185 -.0
0684592270091989 0 18 418 519 0 333 399 416 417 ?1 29 419 800 0 399 417 400 .031
2659968815965 -.002539999999999775 0 18 399 520 0 330 139 418 419 ?1 29 400 799
 0 139 419 420 .015875 -.002539999999999885 0 29 420 796 0 421 400 422 -.0113501
702448793 -.01138599404585548 .00635 18 421 490 0 238 423 424 420 ?1 29 422 795
 0 423 420 425 -.0238017482824626 -.02043259503093745 .00635 18 423 491 0 306 42
6 421 422 ?1 29 425 794 0 426 422 427 -.02074239562778425 -.02353225838334425 .0
0635 18 426 492 0 304 428 423 425 ?1 29 427 793 0 428 425 429 .00294903613606081
5 -.03123007119537525 .00635 18 428 493 0 301 430 426 427 ?1 29 429 792 0 430 42
7 431 .00724604083109787 -.0305206332384186 .00635 18 430 494 0 298 432 428 429
 ?1 29 431 791 0 432 429 407 .002489961234312675 -.0158829253618979 .00635 18 43
2 495 0 295 433 430 431 ?1 29 407 790 0 404 431 434 -.0113501702448793 -.0113859
9404585548 0 29 434 789 0 406 407 435 -.0238017482824626 -.02043259503093745 0 1
8 406 511 0 289 436 404 434 ?1 29 435 788 0 436 434 437 -.02074239562778425 -.02
353225838334425 0 18 436 512 0 286 438 406 435 ?1 29 437 787 0 438 435 439 .0029
49036136060815 -.03123007119537525 0 18 438 513 0 283 440 436 437 ?1 29 439 786
 0 440 437 441 .00724604083109787 -.0305206332384186 0 18 440 514 0 280 424 438
 439 ?1 29 441 785 0 424 439 442 .002489961234312675 -.0158829253618979 0 18 424
 515 0 277 421 440 441 ?1 29 442 784 0 443 441 444 -.01433611932652522 .00727618
771443057 .00635 18 443 484 0 184 445 446 442 ?1 29 444 783 0 445 442 447 -.0267
8769736410865 .01632278869951235 .00635 18 445 485 0 252 448 443 444 ?1 29 447 7
82 0 448 444 449 -.0287902604316547 .0124553227689007 .00635 18 448 486 0 250 45
0 445 447 ?1 29 449 781 0 450 447 451 -.02879026043165465 -.0124553227689009 .00
635 18 450 487 0 247 452 448 449 ?1 29 451 780 0 452 449 453 -.0267876973641085
 -.01632278869951255 .00635 18 452 488 0 244 454 450 451 ?1 29 453 779 0 454 451
 455 -.01433611932652516 -.00727618771443067 .00635 18 454 489 0 241 456 452 453
 ?1 29 455 778 0 433 453 457 -.01433611932652522 .00727618771443057 0 18 433 477
 0 165 458 432 455 ?1 29 457 777 0 458 455 459 -.02678769736410865 .016322788699
51235 0 18 458 505 0 235 460 433 457 ?1 29 459 776 0 460 457 461 -.0287902604316
547 .0124553227689007 0 18 460 506 0 232 462 458 459 ?1 29 461 775 0 462 459 463
 -.02879026043165465 -.0124553227689009 0 18 462 507 0 229 464 460 461 ?1 29 463
 774 0 464 461 465 -.0267876973641085 -.01632278869951255 0 18 464 508 0 226 446
 462 463 ?1 29 465 773 0 446 463 466 -.01433611932652516 -.00727618771443067 0 1
8 446 509 0 223 443 464 465 ?1 29 466 771 0 467 465 468 .002489961234312555 .015
88292536189795 .00635 18 467 478 0 30 469 76 466 ?1 29 468 770 0 469 466 470 .00
724604083109764 .03052063323841865 .00635 18 469 479 0 198 471 467 468 ?1 29 470
 769 0 471 468 472 .00294903613606059 .0312300711953753 .00635 18 471 480 0 196
 473 469 470 ?1 29 472 768 0 473 470 474 -.02074239562778445 .0235322583833441 .
00635 18 473 481 0 193 475 471 472 ?1 29 474 767 0 475 472 476 -.023801748282462
75 .02043259503093725 .00635 18 475 482 0 190 43 473 474 ?1 29 476 766 0 43 474
 477 -.0113501702448794 .0113859940458554 .00635 18 43 483 0 187 39 475 476 ?1 2
9 477 763 0 456 476 478 .002489961234312555 .01588292536189795 0 18 456 470 0 12
0 479 454 477 ?1 29 478 762 0 479 477 480 .00724604083109764 .03052063323841865
 0 18 479 472 0 181 481 456 478 ?1 29 480 761 0 481 478 482 .00294903613606059 .
0312300711953753 0 18 481 473 0 178 483 479 480 ?1 29 482 760 0 483 480 77 -.020
74239562778445 .0235322583833441 0 18 483 474 0 175 484 481 482 ?1 29 77 759 0 4
84 482 75 -.02380174828246275 .02043259503093725 0 18 484 475 0 172 76 483 77 ?1
 17 172 0 485 486 155 484 487 170 0 158 +18 76 476 0 169 467 484 75 ?1 17 169 0
 488 489 158 76 490 167 0 161 +15 488 550 0 169 491 0 17 489 0 488 492 169 43 16
1 159 0 493 -17 158 0 488 169 492 484 486 156 0 490 +17 490 0 135 487 494 484 16
9 167 0 0 -17 161 0 495 165 493 76 489 159 0 494 +15 495 555 0 165 496 0 17 165
 0 495 497 161 433 494 163 0 200 +17 493 0 495 161 497 43 184 162 0 0 -17 494 0
 135 490 498 76 165 163 0 0 -17 498 0 135 494 499 433 235 233 0 0 -17 499 0 135
 498 500 458 232 230 0 0 -17 235 0 501 502 200 458 498 233 0 203 +15 501 571 0 2
35 503 0 17 502 0 501 504 235 445 203 201 0 505 -17 200 0 501 235 504 433 497 18
2 0 498 +17 203 0 506 232 505 458 502 201 0 499 +15 506 575 0 232 507 0 17 232 0
 506 508 203 460 499 230 0 206 +17 505 0 506 203 508 445 250 248 0 0 -17 508 0 5
06 505 232 448 206 204 0 509 -17 250 0 29 247 252 448 505 248 0 508 +17 247 0 29
 244 250 450 509 245 0 510 +17 252 0 29 250 184 445 504 220 0 502 +17 184 0 29 2
52 187 443 493 162 0 497 +17 504 0 501 200 502 443 252 220 0 0 -17 187 0 29 184
 190 43 492 185 0 489 +17 497 0 495 493 165 443 200 182 0 504 -17 190 0 29 187 1
93 475 511 188 0 486 +17 492 0 488 158 489 475 187 185 0 0 -17 193 0 29 190 196
 473 512 191 0 513 +17 511 0 485 155 486 473 190 188 0 0 -17 486 0 485 511 172 4
75 158 156 0 492 -15 485 546 0 172 514 0 14 514 543 515 ?491 516 485 5 517 -0 0
 491 516 23 81 1 515 1494 380 514 518 0 394 519 520 14 491 547 519 ?496 514 488
 5 521 -0 0 496 514 23 14 516 539 522 ?514 523 524 5 525 -0 0 514 523 23 51 517
 653 0 514 521 525 0 -0 0 .00635 0 0 -1 .031369 -1 0 0 50 521 654 0 491 526 517
 0 +-.0113501702448794 .0113859940458554 .00635 .587785252292474 .80901699437494
7 0 -.809016994374947 .587785252292474 0 51 525 652 0 516 517 527 0 +-.012001169
4037421 .03693580150074835 .00635 0 0 -1 .016002 -1 0 0 51 527 651 0 523 525 391
 0 -0 0 .00635 0 0 -1 .031369 -1 0 0 14 523 535 528 ?516 384 529 5 527 -0 0 516
 384 23 50 391 650 0 384 527 379 0 +.002489961234312555 .01588292536189795 .0063
5 -.951056516295154 .3090169943749445 0 -.309016994374945 -.951056516295155 0 14
 384 531 530 ?523 137 531 5 391 -0 0 523 137 23 81 1 530 1498 380 384 532 0 528
 533 534 15 531 534 0 181 384 0 17 181 0 531 535 146 479 536 179 0 149 +17 535 0
 531 537 181 469 149 147 0 538 -17 146 0 531 181 537 456 539 111 0 536 +17 536 0
 135 540 541 456 181 179 0 0 -17 149 0 529 178 538 479 535 147 0 541 +15 529 538
 0 178 523 0 17 178 0 529 542 149 481 541 176 0 152 +17 538 0 529 149 542 469 19
6 194 0 0 -17 541 0 135 536 543 479 178 176 0 0 -17 543 0 135 541 487 481 175 17
3 0 0 -17 487 0 135 543 490 483 172 170 0 0 -17 175 0 524 513 152 483 543 173 0
 155 +15 524 542 0 175 516 0 17 513 0 524 512 175 473 155 153 0 511 -17 152 0 52
4 175 512 481 542 150 0 543 +17 155 0 485 172 511 483 513 153 0 487 +17 512 0 52
4 152 513 471 193 191 0 0 -17 542 0 529 538 178 471 152 150 0 512 -17 196 0 29 1
93 198 471 538 194 0 542 +17 198 0 29 196 30 469 537 166 0 535 +17 30 0 29 198 2
6 467 544 102 0 539 +17 537 0 531 146 535 467 198 166 0 0 -17 544 0 389 64 539 1
1 30 102 0 0 -17 539 0 389 544 120 467 146 111 0 537 -15 389 170 0 120 378 0 17
 120 0 389 539 64 456 540 118 0 146 +17 64 0 389 120 544 21 34 107 0 540 +17 540
 0 135 62 536 21 120 118 0 0 -17 62 0 135 56 540 51 59 63 0 0 -17 56 0 135 95 62
 49 52 57 0 0 -17 34 0 61 32 59 11 64 107 0 544 -15 61 172 0 59 388 0 17 32 0 61
 58 34 27 26 33 0 0 -17 58 0 61 59 32 51 54 98 0 62 +14 388 173 533 ?378 100 61
 5 545 -0 0 378 100 23 81 1 533 1499 380 388 546 0 530 547 548 14 100 175 547 ?3
88 94 53 5 549 -0 0 388 94 23 50 545 188 0 388 390 549 0 +.00732132833709204 .01
431311903047316 .00635 .951056516295152 -.309016994374951 0 .309016994374951 .95
1056516295153 0 51 390 187 0 378 386 545 0 +.00490564478570235 .0150980221961855
5 .00635 0 0 -1 .00254 -1 0 0 51 549 189 0 100 545 550 0 -0 0 .00635 0 0 -1 .031
369 -1 0 0 51 550 190 0 94 549 551 0 +.03141946940374215 .0228275807291818 .0063
5 0 0 -1 .016002 -1 0 0 14 94 177 552 ?100 141 90 5 550 -0 0 100 141 23 51 551 1
91 0 141 550 18 0 -0 0 .00635 0 0 -1 .031369 -1 0 0 14 141 179 553 ?94 132 125 5
 551 -0 0 94 132 23 50 18 192 0 132 551 6 0 +.015875 .00254 .00635 0 1 0 0 0 1 8
1 1 553 1502 380 141 554 0 552 555 556 80 255 1 380 557 558 9000 1 1 1 1 1 1 1 1
 0 FFFFTFTFFFFFFF1 81 1 554 1369 559 141 0 553 560 561 562 81 1 552 1501 380 94
 561 0 547 553 563 81 1 555 1503 380 496 564 0 553 565 566 82 255 1 556 75163250
3 14 496 551 555 ?503 491 495 5 526 -0 0 503 491 23 81 1 564 1381 559 496 0 555
 567 568 569 81 1 565 1504 380 503 568 0 555 570 571 82 1 566 1628897401 14 503
 568 565 ?507 496 501 5 572 -0 0 507 496 23 81 1 568 1382 559 503 0 565 564 573
 574 81 1 570 1505 380 507 573 0 565 575 576 82 1 571 1690370169 14 507 572 570
 ?577 503 506 5 578 -0 0 577 503 23 81 1 573 1383 559 507 0 570 568 579 580 81 1
 575 1506 380 577 579 0 570 581 582 82 1 576 1690108025 14 577 576 575 ?583 507
 584 5 585 -0 0 583 507 23 81 1 579 1384 559 577 0 575 573 586 587 81 1 581 1507
 380 583 586 0 575 588 589 82 1 582 1689845881 14 583 580 581 ?590 577 591 5 592
 -0 0 590 577 23 81 1 586 1385 559 583 0 581 579 593 594 81 1 588 1508 380 590 5
93 0 581 595 596 82 1 589 1689583737 14 590 584 588 ?597 583 598 5 599 -0 0 597
 583 23 81 1 593 1386 559 590 0 588 586 600 601 81 1 595 1509 380 597 600 0 588
 602 603 82 1 596 1689321593 14 597 588 595 ?604 590 605 5 606 -0 0 604 590 23 8
1 1 600 1387 559 597 0 595 593 607 608 81 1 602 1510 380 604 607 0 595 609 610 8
2 1 603 1689059449 14 604 593 602 ?611 597 612 5 613 -0 0 611 597 23 81 1 607 13
88 559 604 0 602 600 614 615 81 1 609 1511 380 611 614 0 602 616 617 82 1 610 17
34082681 14 611 597 609 ?618 604 619 5 620 -0 0 618 604 23 81 1 614 1389 559 611
 0 609 607 621 622 81 1 616 1512 380 618 621 0 609 623 624 82 1 617 1733820537 1
4 618 601 616 ?625 611 626 5 627 -0 0 625 611 23 81 1 621 1390 559 618 0 616 614
 628 629 81 1 623 1513 380 625 628 0 616 630 631 82 1 624 1733558393 14 625 605
 623 ?632 618 633 5 634 -0 0 632 618 23 81 1 628 1391 559 625 0 623 621 635 636
 81 1 630 1514 380 632 635 0 623 637 638 82 1 631 1733296249 14 632 609 630 ?639
 625 640 5 641 -0 0 639 625 23 81 1 635 1392 559 632 0 630 628 642 643 81 1 637
 1515 380 639 642 0 630 644 645 82 1 638 1733034105 14 639 613 637 ?646 632 647
 5 648 -0 0 646 632 23 81 1 642 1393 559 639 0 637 635 649 650 81 1 644 1516 380
 646 649 0 637 651 652 82 1 645 1732771961 14 646 618 644 ?653 639 654 5 655 -0
 0 653 639 23 81 1 649 1394 559 646 0 644 642 656 657 81 1 651 1517 380 653 656
 0 644 658 659 82 1 652 1777795193 14 653 622 651 ?660 646 661 5 662 -0 0 660 64
6 23 81 1 656 1395 559 653 0 651 649 663 664 81 1 658 1518 380 660 663 0 651 665
 666 82 1 659 1777533049 14 660 626 658 ?667 653 668 5 669 -0 0 667 653 23 81 1
 663 1396 559 660 0 658 656 670 671 81 1 665 1519 380 667 670 0 658 672 673 82 1
 666 1777270905 14 667 630 665 ?373 660 674 5 675 -0 0 373 660 23 81 1 670 1397
 559 667 0 665 663 676 677 81 1 672 1520 380 373 676 0 665 678 679 82 1 673 1777
008761 14 373 634 672 ?367 667 401 5 680 -0 0 367 667 23 81 1 676 1398 559 373 0
 672 670 681 682 81 1 678 1521 380 362 683 0 672 0 684 82 1 679 1776746617 14 36
2 1026 678 ?0 364 685 5 686 -0 0 0 364 23 81 1 683 1401 559 362 0 678 687 0 688
 82 1 684 -537263997 80 1 559 0 689 8001 0 0 0 0 3 5 0 0 0 FFFFTFTFFFFFFF2 81 1
 687 1400 559 364 0 366 681 683 690 83 255 3 688 1 .168627450980392 .16862745098
0392 81 1 366 1487 380 364 687 0 0 372 691 81 1 681 1399 559 367 0 372 676 687 6
92 83 3 690 1 .168627450980392 .168627450980392 81 1 372 1488 380 367 681 0 366
 377 693 83 3 692 1 .168627450980392 .168627450980392 82 1 693 -986840962 82 1 6
91 -988807037 79 255 15 689 SDL/TYSA_COLOUR15 685 1029 0 694 362 360 51 686 1035
 0 362 0 368 0 +0 0 .011176 0 0 1 .003175 1 0 0 50 368 971 0 364 686 374 0 +0 0
 .011176 0 0 1 1 0 0 51 374 969 0 367 368 680 0 -0 0 .011176 0 0 -1 .00635 -1 0
 0 50 680 674 0 373 374 675 0 +.015875 -.00253999999999989 .00635 74384942649885
5e-29 -1 0 1 743849426498855e-29 0 51 675 673 0 667 680 669 0 -0 0 .00635 0 0 -1
 .031369 -1 0 0 51 669 672 0 660 675 662 0 +.0314194694037423 -.0228275807291816
 .00635 0 0 -1 .016002 -1 0 0 51 662 671 0 653 669 655 0 -0 0 .00635 0 0 -1 .031
369 -1 0 0 50 655 670 0 646 662 648 0 +.00732132833709214 -.01431311903047312 .0
0635 .95105651629515 .309016994374958 0 -.309016994374958 .95105651629515 0 51 6
48 669 0 639 655 641 0 +.00490564478570236 -.01509802219618555 .00635 0 0 -1 .00
254 -1 0 0 50 641 668 0 632 648 634 0 +.00248996123431267 -.0158829253618979 .00
635 -.951056516295152 -.309016994374952 0 .309016994374952 -.951056516295152 0 5
1 634 667 0 625 641 627 0 -0 0 .00635 0 0 -1 .031369 -1 0 0 51 627 666 0 618 634
 620 0 +-.01200116940374184 -.03693580150074845 .00635 0 0 -1 .016002 -1 0 0 51
 620 665 0 611 627 613 0 -0 0 .00635 0 0 -1 .031369 -1 0 0 50 613 664 0 604 620
 606 0 +-.0113501702448793 -.01138599404585548 .00635 .58778525229248 -.80901699
4374942 0 .809016994374942 .58778525229248 0 51 606 663 0 597 613 599 0 +-.01284
314478570228 -.00933109088014303 .00635 0 0 -1 .00254 -1 0 0 50 599 662 0 590 60
6 592 0 +-.01433611932652516 -.00727618771443066 .00635 -.587785252292475 .80901
6994374946 0 -.809016994374947 -.587785252292475 0 51 592 661 0 583 599 585 0 -0
 0 .00635 0 0 -1 .031369 -1 0 0 51 585 660 0 577 592 578 0 +-.0388366 -131838984
1742372e-31 .00635 0 0 -1 .016002 -1 0 0 51 578 659 0 507 585 572 0 -0 0 .00635
 0 0 -1 .031369 -1 0 0 50 572 658 0 503 578 526 0 +-.01433611932652522 .00727618
771443057 .00635 -.587785252292469 -.809016994374951 0 .809016994374951 -.587785
252292469 0 51 526 655 0 496 572 521 0 +-.01284314478570228 .00933109088014303 .
00635 0 0 -1 .00254 -1 0 0 17 694 0 685 694 694 0 357 355 0 0 -17 357 0 385 357
 357 0 694 355 0 0 +15 385 996 0 357 137 135 83 3 682 1 .168627450980392 .168627
450980392 83 3 677 1 .168627450980392 .168627450980392 15 674 633 0 330 667 0 17
 330 0 674 695 317 399 696 328 0 320 +17 695 0 674 697 330 403 320 318 0 402 -17
 317 0 674 330 697 418 698 315 0 696 +17 696 0 135 699 138 418 330 328 0 0 -17 3
20 0 401 140 402 399 695 318 0 138 +17 138 0 135 696 136 399 140 325 0 0 -17 699
 0 135 700 696 416 333 331 0 0 -17 700 0 135 701 699 414 336 334 0 0 -17 333 0 6
68 698 314 418 699 331 0 317 +15 668 629 0 333 660 0 17 698 0 668 702 333 408 31
7 315 0 697 -17 314 0 668 333 702 416 703 312 0 699 +17 702 0 668 314 698 704 34
7 345 0 0 -17 703 0 661 705 336 704 314 312 0 702 -15 661 625 0 336 653 0 17 705
 0 661 311 703 706 350 348 0 0 -17 336 0 661 703 311 416 700 334 0 314 +18 704 4
98 0 350 408 706 707 ?1 17 350 0 29 347 351 704 705 348 0 703 +18 408 499 0 347
 403 704 411 ?1 18 706 497 0 351 704 398 708 ?1 29 707 809 0 704 708 411 .015970
75492558695 -.026999058281852 .00635 29 708 810 0 706 709 707 .01207740793387744
 -.02895082690699375 .00635 29 411 808 0 408 707 409 .03061286499779185 -.006845
92270091989 .00635 29 709 811 0 398 0 708 .00732132833709214 -.01431311903047312
 .00635 18 398 496 0 292 706 139 709 ?1 17 292 0 29 351 295 398 710 270 0 711 +1
7 351 0 29 350 292 706 712 327 0 713 +17 295 0 29 292 298 432 714 293 0 715 +17
 710 0 647 269 711 432 292 270 0 0 -17 711 0 647 710 273 398 308 290 0 712 -15 6
47 617 0 273 639 0 17 273 0 647 711 269 412 716 271 0 308 +17 308 0 654 339 712
 412 711 290 0 701 +17 712 0 654 308 713 398 351 327 0 0 -15 654 621 0 339 646 0
 17 713 0 654 712 339 706 311 309 0 705 -17 339 0 654 713 308 414 701 337 0 311
 +17 311 0 661 336 705 414 713 309 0 700 +17 701 0 135 716 700 412 339 337 0 0 -
17 716 0 135 717 701 424 273 271 0 0 -17 717 0 135 718 716 440 277 275 0 0 -17 7
18 0 135 719 717 438 280 278 0 0 -17 277 0 640 715 266 424 717 275 0 269 +15 640
 612 0 277 632 0 17 715 0 640 714 277 432 269 267 0 710 -17 266 0 640 277 714 44
0 720 264 0 717 +17 269 0 647 273 710 424 715 267 0 716 +17 714 0 640 266 715 43
0 295 293 0 0 -17 720 0 633 721 280 430 266 264 0 714 -15 633 608 0 280 625 0 17
 721 0 633 263 720 428 298 296 0 0 -17 280 0 633 720 263 440 718 278 0 266 +17 2
63 0 633 280 721 438 722 261 0 718 +17 722 0 626 723 283 428 263 261 0 721 -15 6
26 604 0 283 618 0 17 723 0 626 260 722 426 301 299 0 0 -17 283 0 626 722 260 43
8 719 281 0 263 +17 260 0 626 283 723 436 724 258 0 719 +17 719 0 135 725 718 43
6 283 281 0 0 -17 725 0 135 726 719 406 286 284 0 0 -17 726 0 135 727 725 404 28
9 287 0 0 -17 286 0 619 724 257 436 725 284 0 260 +15 619 600 0 286 611 0 17 724
 0 619 728 286 426 260 258 0 723 -17 257 0 619 286 728 406 729 255 0 725 +17 728
 0 619 257 724 423 304 302 0 0 -17 729 0 612 730 289 423 257 255 0 728 -15 612 5
96 0 289 604 0 17 730 0 612 254 729 421 306 274 0 0 -17 289 0 612 729 254 406 72
6 287 0 257 +17 254 0 612 289 730 404 731 236 0 726 +17 731 0 605 732 219 421 25
4 236 0 730 -15 605 592 0 219 597 0 17 732 0 605 215 731 454 238 216 0 0 -17 219
 0 605 731 215 404 727 217 0 254 +17 215 0 605 219 732 446 733 213 0 727 +17 727
 0 135 734 726 446 219 217 0 0 -17 734 0 135 735 727 464 223 221 0 0 -17 735 0 1
35 500 734 462 226 224 0 0 -17 223 0 598 733 212 446 734 221 0 215 +15 598 587 0
 223 590 0 17 733 0 598 736 223 454 215 213 0 732 -17 212 0 598 223 736 464 737
 210 0 734 +17 736 0 598 212 733 452 241 239 0 0 -17 737 0 591 738 226 452 212 2
10 0 736 -15 591 583 0 226 583 0 17 738 0 591 209 737 450 244 242 0 0 -17 226 0
 591 737 209 464 735 224 0 212 +17 209 0 591 226 738 462 510 207 0 735 +17 510 0
 584 509 229 450 209 207 0 738 -15 584 579 0 229 577 0 17 509 0 584 206 510 448
 247 245 0 0 -17 229 0 584 510 206 462 500 227 0 209 +17 206 0 584 229 509 460 5
08 204 0 500 +17 500 0 135 499 735 460 229 227 0 0 -17 244 0 29 241 247 452 738
 242 0 737 +17 241 0 29 238 244 454 736 239 0 733 +17 238 0 29 306 241 421 732 2
16 0 731 +17 306 0 29 304 238 423 730 274 0 729 +17 304 0 29 301 306 426 728 302
 0 724 +17 301 0 29 298 304 428 723 299 0 722 +17 298 0 29 295 301 430 721 296 0
 720 +17 347 0 29 344 350 408 702 345 0 698 +17 344 0 29 69 347 403 697 342 0 69
5 +17 69 0 29 65 344 397 402 324 0 396 +17 697 0 674 317 695 408 344 342 0 0 -83
 3 671 1 .168627450980392 .168627450980392 83 3 664 1 .168627450980392 .16862745
0980392 83 3 657 1 .168627450980392 .168627450980392 83 3 650 1 .168627450980392
 .168627450980392 83 3 643 1 .168627450980392 .168627450980392 83 3 636 1 .16862
7450980392 .168627450980392 83 3 629 1 .168627450980392 .168627450980392 83 3 62
2 1 .168627450980392 .168627450980392 83 3 615 1 .168627450980392 .1686274509803
92 83 3 608 1 .168627450980392 .168627450980392 83 3 601 1 .168627450980392 .168
627450980392 83 3 594 1 .168627450980392 .168627450980392 83 3 587 1 .1686274509
80392 .168627450980392 83 3 580 1 .168627450980392 .168627450980392 83 3 574 1 .
168627450980392 .168627450980392 81 1 567 1380 559 491 0 519 518 564 739 83 3 56
9 1 .168627450980392 .168627450980392 81 1 519 1495 380 491 567 0 515 522 740 81
 1 518 1379 559 514 0 515 741 567 742 83 3 739 1 .168627450980392 .1686274509803
92 81 1 741 1378 559 516 0 522 743 518 744 83 3 742 1 .168627450980392 .16862745
0980392 81 1 522 1496 380 516 741 0 519 528 745 81 1 743 1377 559 523 0 528 532
 741 746 83 3 744 1 .168627450980392 .168627450980392 81 1 528 1497 380 523 743
 0 522 530 747 81 1 532 1376 559 384 0 530 748 743 749 83 3 746 1 .1686274509803
92 .168627450980392 81 1 748 1375 559 137 0 382 381 532 750 83 3 749 1 .16862745
0980392 .168627450980392 81 1 382 1490 380 137 748 0 377 387 751 81 1 381 1374 5
59 84 0 377 752 748 753 83 3 750 1 .168627450980392 .168627450980392 81 1 752 13
73 559 378 0 387 546 381 754 83 3 753 1 .168627450980392 .168627450980392 81 1 3
87 1491 380 378 752 0 382 392 755 81 1 546 1372 559 388 0 533 756 752 757 83 3 7
54 1 .168627450980392 .168627450980392 81 1 756 1371 559 100 0 547 561 546 758 8
3 3 757 1 .168627450980392 .168627450980392 81 1 547 1500 380 100 756 0 533 552
 759 81 1 561 1370 559 94 0 552 554 756 760 83 3 758 1 .168627450980392 .1686274
50980392 83 3 760 1 .168627450980392 .168627450980392 82 1 759 751108215 82 1 75
5 750583929 82 1 751 748421251 82 1 747 1629945977 82 1 745 1629683833 82 1 740
 1629159545 82 1 563 751370359 81 1 560 1368 559 132 0 394 393 554 761 83 3 562
 1 .168627450980392 .168627450980392 81 1 394 1493 380 132 560 0 392 515 762 81
 1 393 1367 559 16 0 392 0 560 763 83 3 761 1 .168627450980392 .168627450980392
 83 3 763 1 .168627450980392 .168627450980392 82 1 762 751894647 79 14 558 SWEnt
Unchanged50 386 140 0 137 379 390 0 +.015875 0 0 0 0 1 1 0 0 82 1 548 750846071
 82 1 534 1630208121 82 1 520 1629421689 82 1 395 752156793 82 1 383 736886910 1
7 68 0 29 79 65 66 130 133 0 126 +17 126 0 129 130 45 66 124 123 0 87 -19 17 205
 0 1 0 9 5 S0 74 4 CI16 index_map_offset0 0 1 dCCZ20 15 9 0 0 678 764 765 766 76
7 768 13 683 2 0 0 0 0 0 0 0 0 0 0 0 81 2 764 976 769 1 0 765 0 0 0 770 81 2 765
 980 771 1 764 766 0 0 0 772 81 1 766 1043 773 1 765 767 0 0 774 81 2 767 1080 7
75 1 766 768 0 0 776 0 81 2 768 1245 777 1 767 13 0 0 0 778 81 2 13 1364 779 1 7
68 2 0 0 0 0 80 2 779 780 781 9000 0 0 0 0 3 5 0 0 0 FFTFFFFFFFFFFF9 1 79 16 781
 BODY_RECIPE_200180 2 777 782 783 9000 0 0 0 0 3 5 0 0 0 FFTFFFFFFFFFFF9 1 82 1
 778 1 79 24 783 BODY_IN_LIGHTWEIGHT_PERM80 2 775 784 785 8004 0 0 0 0 3 5 0 0 0
 FFTFFFFFFFFFFF2 3 83 1 776 1 79 16 785 SDL/TYSA_DENSITY80 1 773 786 787 9000 1
 1 1 1 1 1 1 1 0 FFTFFFFFFFFFFF1 82 1 774 1780714 79 10 787 BODY_MATCH80 2 771 7
88 789 9000 0 0 0 0 3 5 0 0 0 FFTFFFFFFFFFFF9 1 82 1 772 71 79 30 789 LAST_BODY_
MODIFYING_FEATURE_ID80 2 769 790 791 9000 0 0 0 0 3 5 0 0 0 FFTFFFFFFFFFFT9 1 82
 1 770 116 79 19 791 ENT_TIME_STAMP_200180 2 12 792 793 9000 0 0 0 0 3 5 0 0 0 F
FTFFFFFFFFFFF9 1 82 1 14 104 79 12 793 ATOM_ID_20011 0 
