**ABCDEFGHIJKLMNOPQRSTUVWXYZabcdefghijklmnopqrstuvwxyz**************************
**PARASOLID !"#$%&'()*+,-./:;<=>?@[\]^_`{|}~0123456789**************************
**PART1;
MC=AMD64;
MC_MODEL=Intel64 Family 6 Model 142 Stepping 12, GenuineIntel;
MC_ID=unknown;
OS=Windows_NT;
OS_RELEASE=unknown;
FRU=Parasolid Version 33.1, build 247,  8- 6-2021;
APPL=SOLIDWORKS 2022-2022009;
SITE=;
USER=unknown;
FORMAT=text;
GUISE=transmit;
KEY=FILEHinge - 2003091.x_t;
DATE=Thu Jun 15 06:28:38 2023;
**PART2;
SCH=SCH_3301247_33103;
USFLD_SIZE=0;
**PART3;
**END_OF_HEADER*****************************************************************
T51 : TRANSMIT FILE created by modeller version 330124723 SCH_3301247_33103_1300
6230 0 12 35 CCCI7 lattice222 0 CCCI4 mesh1006 0 I8 polyline1008 0 CCCCCCCDI5 ow
ner1040 0 CCCCCCI13 boundary_mesh1006 0 I17 boundary_polyline1008 0 CCCA16 index
_map_offset0 0 1 dA9 index_map82 0 A17 node_id_index_map82 0 A20 schema_embeddin
g_map82 0 A5 child12 0 A14 lowest_node_id0 0 1 dA16 mesh_offset_data206 0 Z1 275
 2 3 0 0 0 0 0 0 0 1e3 1e-8 0 4 0 1 0 1 1 5 6 7 0 0 0 8 9 0 0 0 0 0 0 0 0 81 255
 2 2 266 10 1 11 0 0 0 0 12 70 11 CI9 list_type0 0 1 uI10 notransmit0 0 1 lCCCDC
CDI12 finger_index0 0 1 dI12 finger_block1012 0 CZ3 0 4 T1 0 0 9 20 1 13 13 13 2
55 5 31 0 1 0 14 0 0 15 0 51 255 6 30 0 14 16 0 17 -0 0 .0047625 0 0 -1 .009525
 -1 0 0 38 12 CCCCCCCCCCCA17 intersection_data204 0 Z7 132 0 9 18 0 0 +6 19 20 2
1 21 22 19 8 CCCCCCCA5 owner12 0 Z8 9 0 1 15 0 23 V0 16 255 9 130 0 ?24 0 25 7 0
 0 1 17 255 24 0 26 24 24 0 27 9 0 0 +16 25 54 0 ?28 9 29 18 0 0 1 17 28 0 30 28
 28 0 31 25 0 0 +16 29 5 0 ?32 25 33 34 0 0 1 31 255 18 57 0 25 35 7 0 -0 0 -.00
47625 0 0 1 1 0 0 .003175 31 35 25 0 33 34 18 0 +0 0 -.0047625 0 0 1 1 0 0 .0095
25 16 33 20 0 ?36 29 37 35 0 0 1 31 34 7 0 29 38 35 0 +0 0 .0047625 0 0 1 1 0 0
 .009525 31 38 100 0 37 39 34 0 -0 0 .0047625 0 0 1 1 0 0 .003175 16 37 66 0 ?40
 33 41 38 0 0 1 31 39 101 0 42 43 38 0 +0 0 -.009525 0 0 1 1 0 0 .003175 16 42 6
7 0 ?44 41 45 39 0 0 1 31 43 102 0 41 46 39 0 +0 0 .009525 0 0 1 1 0 0 .003175 1
6 41 71 0 ?47 37 42 43 0 0 1 31 46 181 0 45 0 43 0 +0 0 0 1 0 0 0 0 -1 .003175 1
6 45 149 0 ?48 42 0 46 0 0 1 17 48 0 49 48 48 0 50 45 0 0 +15 255 49 157 0 48 51
 52 17 50 0 53 50 50 0 48 45 0 0 -15 53 175 0 50 54 0 14 255 54 173 55 ?0 51 53
 5 56 -0 0 0 51 23 81 1 55 267 57 54 58 0 0 59 60 14 51 154 59 ?54 61 49 5 19 -0
 0 54 61 23 50 255 56 179 0 54 0 19 0 +0 0 0 1 0 0 0 0 -1 13 23 10 0 0 0 0 0 0 8
 14 14 14 27 62 ?63 0 26 5 6 -0 0 63 0 23 81 1 62 269 57 14 64 0 59 65 66 14 63
 1 65 ?67 14 68 5 69 +0 0 67 14 23 15 26 124 0 24 14 70 15 70 26 0 71 14 72 17 7
1 0 70 71 71 0 32 29 0 0 -15 72 28 0 36 14 0 17 36 0 72 36 36 0 73 33 0 0 +17 73
 0 74 73 73 0 36 33 0 0 -15 74 19 0 73 67 0 14 67 18 75 ?76 63 77 5 16 -0 0 76 6
3 23 81 1 75 271 57 67 78 0 65 79 80 14 76 92 79 ?81 67 82 5 83 -0 0 81 67 23 15
 77 56 0 31 67 74 50 16 24 0 67 69 6 0 +0 0 -.0047625 0 0 1 1 0 0 50 69 3 0 63 8
4 16 0 +0 0 .0047625 0 0 1 1 0 0 51 84 97 0 85 83 69 0 -0 0 .009525 0 0 -1 .0031
75 -1 0 0 14 85 84 86 ?61 81 87 5 84 -81 81 61 81 23 50 83 98 0 76 88 84 0 +0 0
 -.009525 0 0 1 1 0 0 50 88 99 0 61 19 83 0 +0 0 .009525 0 0 1 1 0 0 14 61 89 89
 ?51 85 90 5 88 +0 0 51 85 23 51 19 178 0 51 56 88 91 +-.009525 0 0 1 0 0 .00317
5 0 0 -1 141 255 91 7 91 91 19 81 1 89 274 57 61 92 0 86 93 94 15 90 91 0 47 61
 0 17 47 0 90 47 47 0 95 41 0 0 +17 95 0 96 95 95 0 47 41 0 0 -15 96 88 0 95 85
 0 80 255 1 57 97 98 9000 1 1 1 1 1 1 1 1 0 FFFFTFTFFFFFFF1 81 1 92 244 99 61 0
 89 100 101 102 81 1 86 273 57 85 100 0 79 89 103 81 1 93 275 57 81 104 0 89 0 1
05 82 255 1 94 370933890 14 81 79 93 ?85 76 106 5 84 -85 85 85 76 23 81 1 104 24
2 99 81 0 93 107 100 108 82 1 105 375718018 80 1 99 0 109 8001 0 0 0 0 3 5 0 0 0
 FFFFTFTFFFFFFF2 81 1 107 241 99 76 0 79 78 104 110 81 1 100 243 99 85 0 86 104
 92 111 83 255 3 108 .792156862745098 .819607843137255 .933333333333333 83 3 111
 .792156862745098 .819607843137255 .933333333333333 81 1 79 272 57 76 107 0 75 8
6 112 81 1 78 240 99 67 0 75 113 107 114 83 3 110 .792156862745098 .819607843137
255 .933333333333333 81 1 113 239 99 63 0 65 64 78 115 83 3 114 .792156862745098
 .819607843137255 .933333333333333 81 1 65 270 57 63 113 0 62 75 116 81 1 64 238
 99 14 0 62 0 113 117 83 3 115 .792156862745098 .819607843137255 .93333333333333
3 83 3 117 .792156862745098 .819607843137255 .933333333333333 82 1 116 980091010
 82 1 112 372637826 79 255 15 109 SDL/TYSA_COLOUR15 106 82 0 44 81 30 17 44 0 10
6 44 44 0 118 42 0 0 +15 30 83 0 28 81 0 17 118 0 82 118 118 0 44 42 0 0 -15 82
 94 0 118 76 0 82 1 103 372899970 81 1 101 245 99 51 0 59 92 58 119 83 3 102 .79
2156862745098 .819607843137255 .933333333333333 81 1 59 268 57 51 101 0 55 62 12
0 81 1 58 246 99 54 0 55 101 0 121 83 3 119 .792156862745098 .819607843137255 .9
33333333333333 83 3 121 .792156862745098 .819607843137255 .933333333333333 82 1
 120 624754821 79 14 98 SWEntUnchanged15 87 87 0 122 85 96 17 122 0 87 122 122 0
 40 37 0 0 -17 40 0 68 40 40 0 122 37 0 0 +15 68 61 0 40 63 123 15 123 4 0 32 63
 0 17 32 0 123 32 32 0 71 29 0 0 +17 31 0 77 31 31 0 28 25 0 0 -82 1 80 98179494
6 82 1 66 982057093 82 1 60 619708549 15 52 158 0 27 51 0 17 27 0 52 27 27 0 24
 9 0 0 -19 15 32 0 1 0 8 5 S0 40 255 20 20 0 1 20 .0001937281550590285 .35614197
8077951 ??-.009525 0 -.003175 -.00947031463746155 .00101919854173828 -.003006968
46217558 -.00932889315036059 .001922856622100365 -.002526508937416365 -.00915121
502105174 .00264213713468414 -.001760606816277585 -.00901288963621787 .003081143
52235601 -.000766276447924376 -.00898489267932401 .003161855237203285 .000288611
2592574515 -.00906879311732123 .002912493157970855 .001264123650903244 -.0092267
6590451116 .002364828945896575 .00211853936868062 -.00940132019210325 .001529968
51129418 .002782053442054675 -.00951166955264036 .000503753234604315 .0031347819
1883035 -.00950970614243959 -.000539549890600343 .003128819412422705 -.009407203
14543453 -.00149337000791054 .00280186920099302 -.00924072271679135 -.0023096901
6783125 .00217852159241621 -.00907151740143302 -.002903996734760185 .00128352170
3946672 -.00898332273519968 -.00316631294019472 .0002347069763672725 -.009014917
49049847 -.00307520530038317 -.000789770447975399 -.0091413938855791 -.002675919
062433905 -.00170882479245324 -.00931682545537242 -.00198050206617525 -.00248157
9449841485 -.0094691457241532 -.001030002065411094 -.003003284992345695 -.009525
 -281643493170532e-33 -.003175 41 3 CI8 term_use0 0 1 cCZ1 21 H?-.009525 -281643
493170532e-33 -.003175 204 2 17 INTERSECTION_DATA17 Intersection data7 uv_type0
 0 1 u6 values0 1 1 fT80 22 4 0 .0079375 0 0 .1072077188172186 .0077694684621755
8 .3267930055816975 546853625384459e-19 .203271664635535 .00728900893741637 .650
54996566296 .000196106849639407 .281076147163998 .00652310681627758 .98300807517
5357 .000373784978948256 .329404533962524 .00552877644792438 1.327042772960138 .
000512110363782126 .3383735471856485 .00447388874074255 1.661823165067165 .00054
0107320675991 .3107507973241225 .003498376349096755 1.98029465193931 .0004562068
82678768 .250900128731461 .00264396063131938 2.301315599859 .000298234095488837
 .1613254790488055 .001980446557945325 2.638793841787625 .000123679807896751 .05
29121649159581 .00162771808116965 2.98225687289681 1333044735963954e-20 6.226509
31210637 .001633680587577295 3.312358365527085 152938575604146e-19 6.12575151665
26 .00196063079900698 3.631283125013375 .000117796854565472 6.03825660372975 .00
258397840758379 3.956207631498425 .000284277283208652 5.97337125485557 .00347897
8296053325 4.29622065959524 .000453482598566977 5.94431558351818 .00452779302363
273 4.63839802917838 .00054167726480032 5.95443955791742 .0055522704479754 4.963
77494319315 .00051008250950153 5.99841565850163 .00647132479245324 5.28070380580
453 .000383606114420905 6.07373042572796 .00724407944984148 5.60961542094498 .00
02081745446275775 6.17483674038732 .00776578499234569 5.9527972744933 5585427584
67978e-19 0 .0079375 0 0 141 17 7 17 17 6 74 4 CI16 index_map_offset0 0 1 dCCZ20
 13 9 0 0 93 124 125 126 127 128 11 58 2 0 0 0 0 0 0 0 0 0 0 0 81 2 124 108 129
 1 0 125 0 0 0 130 81 2 125 114 131 1 124 126 0 0 0 132 81 1 126 194 133 1 125 1
27 0 0 134 81 2 127 205 135 1 126 128 0 0 136 0 81 2 128 232 137 1 127 11 0 0 0
 138 81 2 11 235 139 1 128 2 0 0 0 0 80 2 139 140 141 9000 0 0 0 0 3 5 0 0 0 FFT
FFFFFFFFFFF9 1 79 16 141 BODY_RECIPE_200180 2 137 142 143 9000 0 0 0 0 3 5 0 0 0
 FFTFFFFFFFFFFF9 1 82 1 138 1 79 24 143 BODY_IN_LIGHTWEIGHT_PERM80 2 135 144 145
 8004 0 0 0 0 3 5 0 0 0 FFTFFFFFFFFFFF2 3 83 1 136 1 79 16 145 SDL/TYSA_DENSITY8
0 1 133 146 147 9000 1 1 1 1 1 1 1 1 0 FFTFFFFFFFFFFF1 82 1 134 14953 79 10 147
 BODY_MATCH80 2 131 148 149 9000 0 0 0 0 3 5 0 0 0 FFTFFFFFFFFFFF9 1 82 1 132 65
 79 30 149 LAST_BODY_MODIFYING_FEATURE_ID80 2 129 150 151 9000 0 0 0 0 3 5 0 0 0
 FFTFFFFFFFFFFT9 1 82 1 130 115 79 19 151 ENT_TIME_STAMP_200180 2 10 152 153 900
0 0 0 0 0 3 5 0 0 0 FFTFFFFFFFFFFF9 1 82 1 12 105 79 12 153 ATOM_ID_20011 0 
