**ABCDEFGHIJKLMNOPQRSTUVWXYZabcdefghijklmnopqrstuvwxyz**************************
**PARASOLID !"#$%&'()*+,-./:;<=>?@[\]^_`{|}~0123456789**************************
**PART1;
MC=AMD64;
MC_MODEL=Intel64 Family 6 Model 142 Stepping 12, GenuineIntel;
MC_ID=unknown;
OS=Windows_NT;
OS_RELEASE=unknown;
FRU=Parasolid Version 33.1, build 247,  8- 6-2021;
APPL=SOLIDWORKS 2022-2022009;
SITE=;
USER=unknown;
FORMAT=text;
GUISE=transmit;
KEY=FILELifting Fork.x_t;
DATE=Thu Jun 15 06:28:32 2023;
**PART2;
SCH=SCH_3301247_33103;
USFLD_SIZE=0;
**PART3;
**END_OF_HEADER*****************************************************************
T51 : TRANSMIT FILE created by modeller version 330124723 SCH_3301247_33103_1300
6230 0 12 35 CCCI7 lattice222 0 CCCI4 mesh1006 0 I8 polyline1008 0 CCCCCCCDI5 ow
ner1040 0 CCCCCCI13 boundary_mesh1006 0 I17 boundary_polyline1008 0 CCCA16 index
_map_offset0 0 1 dA9 index_map82 0 A17 node_id_index_map82 0 A20 schema_embeddin
g_map82 0 A5 child12 0 A14 lowest_node_id0 0 1 dA16 mesh_offset_data206 0 Z1 130
4 2 3 0 0 0 0 0 0 0 1e3 1e-8 0 4 0 1 0 1 1 5 6 7 8 0 0 9 10 11 0 0 0 0 0 0 0 81
 255 2 2 1242 12 1 13 0 0 0 0 14 70 11 CI9 list_type0 0 1 uI10 notransmit0 0 1 l
CCCDCCDI12 finger_index0 0 1 dI12 finger_block1012 0 CZ3 0 4 T1 0 0 10 20 1 15 1
5 13 255 5 99 0 1 0 16 0 0 17 0 50 255 6 94 0 18 19 0 0 +0 0 .2 1 0 0 0 0 -1 137
 255 7 906 0 1 20 0 21 +22 23 0 ?29 255 8 744 0 11 24 0 1.44 -.06 .2 19 8 CCCCCC
CA5 owner12 0 Z9 33 0 1 17 0 25 V0 16 255 10 82 0 ?26 0 27 28 0 0 1 18 255 11 74
1 0 29 0 30 8 2e-8 1 17 255 29 0 31 32 33 11 34 35 36 37 -18 30 556 0 38 11 39 2
4 2e-8 1 17 38 0 40 37 41 30 42 43 0 32 -18 39 552 0 44 30 45 46 2e-8 1 29 24 55
9 0 30 46 8 1.12 -.06 .2 29 46 555 0 39 47 24 .96 -.06 .2 29 47 547 0 45 48 46 1
.12 0 .2 18 45 544 0 41 39 49 47 2e-8 1 29 48 366 0 49 50 47 .64 -.06 .2 18 49 3
63 0 51 45 52 48 2e-8 1 29 50 360 0 52 53 48 .48 -.06 .2 18 52 358 0 54 49 55 50
 2e-8 1 29 53 353 0 55 56 50 .64 0 .2 18 55 350 0 57 52 58 53 2e-8 1 29 56 331 0
 58 59 53 .16 -.06 .2 18 58 141 0 60 55 61 56 ?1 29 59 330 0 62 63 56 3673940397
44206e-32 -.06 .2 18 62 191 0 64 65 66 59 ?1 29 63 327 0 67 68 59 -1519617764955
685e-30 1062211776130384e-49 .199999999999757 18 67 192 0 69 66 70 63 ?1 29 68 7
5 0 71 72 63 0 0 0 18 71 66 0 73 74 75 68 ?1 29 72 76 0 75 76 68 1.6 0 0 18 75 6
7 0 77 71 78 72 ?1 29 76 77 0 78 79 72 1.6 -.06 0 18 78 68 0 80 75 81 76 ?1 29 7
9 78 0 81 82 76 0 -.06 0 18 81 69 0 83 78 84 79 ?1 29 82 29 0 61 85 79 1.6 0 .2
 18 61 27 0 86 58 74 82 2e-8 1 29 85 26 0 74 87 82 1.6 -.06 .2 18 74 24 0 33 61
 71 85 2e-8 1 29 87 280 0 84 88 85 .13 0 2.6 18 84 193 0 89 81 90 87 2e-8 1 29 8
8 281 0 90 91 87 .03 0 2.6 18 90 188 0 92 84 93 88 2e-8 1 29 91 282 0 93 94 88 .
13 -.01 2.6 18 93 194 0 95 90 65 91 2e-8 1 29 94 283 0 65 96 91 .03 -.01 2.6 18
 65 195 0 97 93 62 94 2e-8 1 29 96 286 0 66 98 94 .16 0 .2 18 66 189 0 99 62 67
 96 21e-7 1 29 98 500 0 70 100 96 .61 0 2.6 18 70 415 0 101 67 102 98 2e-8 1 29
 100 501 0 102 103 98 .51 0 2.6 18 102 410 0 104 70 105 100 2e-8 1 29 103 502 0
 105 106 100 .61 -.01 2.6 18 105 416 0 107 102 108 103 2e-8 1 29 106 503 0 108 1
09 103 .51 -.01 2.6 18 108 417 0 110 105 111 106 2e-8 1 29 109 507 0 111 112 106
 .48 0 .2 18 111 414 0 113 108 114 109 2e-8 1 29 112 693 0 114 115 109 1.09 0 2.
6 18 114 608 0 116 111 117 112 2e-8 1 29 115 694 0 117 118 112 .99 0 2.6 18 117
 603 0 119 114 120 115 2e-8 1 29 118 695 0 120 121 115 1.09 -.01 2.6 18 120 609
 0 122 117 123 118 2e-8 1 29 121 696 0 123 124 118 .99 -.01 2.6 18 123 610 0 125
 120 126 121 2e-8 1 29 124 700 0 126 127 121 .96 0 .2 18 126 607 0 128 123 129 1
24 2e-8 1 29 127 867 0 129 130 124 1.57 0 2.6 18 129 782 0 131 126 132 127 2e-8
 1 29 130 868 0 132 133 127 1.47 0 2.6 18 132 777 0 134 129 135 130 2e-8 1 29 13
3 869 0 135 136 130 1.57 -.01 2.6 18 135 783 0 137 132 138 133 2e-8 1 29 136 870
 0 138 139 133 1.47 -.01 2.6 18 138 784 0 140 135 141 136 2e-8 1 29 139 874 0 14
1 0 136 1.44 0 .2 18 141 781 0 142 138 0 139 2e-8 1 17 142 0 143 144 145 141 41
 146 0 147 -15 255 143 83 0 73 148 0 17 144 0 143 149 142 132 150 151 0 0 +17 14
5 0 143 142 152 45 116 153 0 0 +17 41 0 40 38 147 45 142 146 0 42 +16 146 738 0
 ?41 154 155 156 0 0 1 17 147 0 40 41 37 141 157 158 0 150 -15 40 746 0 147 159
 0 17 37 0 40 147 38 11 32 160 0 157 +17 157 0 161 162 150 11 147 158 0 163 +16
 158 769 0 ?157 35 0 164 0 0 1 17 150 0 161 157 165 141 144 151 0 0 -15 161 796
 0 157 166 0 17 165 0 161 150 162 132 167 168 169 144 -16 151 767 0 ?144 170 171
 172 0 0 1 16 170 771 0 ?162 173 151 174 0 0 1 16 171 768 0 ?175 151 35 176 0 0
 1 133 255 172 862 0 151 177 178 0 +178 1.44 0 .2 1.47 0 2.6 -1.199957086189844
 1.20023040648651 30 255 177 863 0 1 176 172 179 +1.585001708118415 0 1.39986335
052699 .01249902355192596 0 -.999921884154082 30 178 861 0 1 172 174 180 +1.4549
98291881586 0 1.39986335052699 .01249902355192602 0 .999921884154082 133 174 858
 0 170 178 181 0 +181 1.44 -.06 .2 1.47 -.01 2.6 0 1 141 255 180 172 180 180 178
 134 255 181 857 0 1 174 182 183 +184 185 133 182 856 0 34 181 186 0 +186 1.44 -
.06 .2 1.6 -.06 .2 0 1 141 183 174 183 183 181 136 255 184 3 5 3 3 6 FFF1 187 18
8 189 135 255 185 2 0 45 255 15 187 1.44 -.06 .2 1.444998698684804 -.04166883552
53265 .599895894784329 1.454999023823982 -.0150016268303537 1.399921905918662 1.
464998698684804 -.00833550219199315 2.19989589478433 1.47 -.01 2.6 127 255 3 188
 4 1 4 128 255 3 189 0 .500056937280421 1 17 34 0 190 191 163 74 29 35 182 192 +
137 186 855 0 1 182 193 194 +195 196 0 ?133 193 854 0 173 186 197 0 +197 1.6 -.0
6 .2 1.57 -.01 2.6 0 1 141 194 182 194 194 186 124 255 195 806 0 198 199 200 201
 +202 203 134 196 0 0 0 0 0 0 +204 205 136 204 1 2 2 2 5 FFF1 206 207 208 135 20
5 2 0 45 4 206 0 0 1 0 127 2 207 2 2 128 2 208 0 1 14 255 198 800 209 ?0 210 190
 5 195 +0 0 0 210 25 50 199 807 0 210 211 195 212 +1.6 -.06 .2 .999921884154081
 462556791089346e-30 .01249902355192602 -462592926927149e-30 1 0 50 200 805 0 21
3 195 214 215 +1.44 0 2.6 0 0 1 1 0 0 141 201 186 216 216 195 126 255 202 FF3 3
 4 5 5 6 2 3 FFF9 3 217 218 219 220 221 125 255 203 0 1 0 1 0 1 0 1 2 BBBBBBBB??
??0 0 0 0 45 60 217 1.44 -.06 .2 1.444998698684804 -.0416688355253265 .599895894
784329 1.454999023823982 -.0150016268303537 1.399921905918662 1.464998698684804
 -.00833550219199315 2.19989589478433 1.47 -.01 2.6 1.493333333333332 -.06 .2 1.
494999566228268 -.0416688355253265 .599895894784329 1.498333007941328 -.01500162
68303537 1.399921905918662 1.501666232894935 -.00833550219199315 2.1998958947843
3 1.503333333333335 -.01 2.6 1.546666666666665 -.06 .2 1.54500043377173 -.041668
8355253265 .599895894784329 1.54166699205867 -.0150016268303537 1.39992190591866
2 1.538333767105065 -.00833550219199315 2.19989589478433 1.536666666666665 -.01
 2.6 1.6 -.06 .2 1.595001301315195 -.0416688355253265 .599895894784329 1.5850009
76176015 -.0150016268303537 1.399921905918662 1.575001301315195 -.00833550219199
315 2.19989589478433 1.57 -.01 2.6 127 2 218 4 4 127 3 219 4 1 4 128 2 220 0 1 1
28 3 221 0 .500056937280421 1 141 216 222 201 201 195 137 222 845 0 1 223 224 22
5 +195 226 0 ?133 223 846 0 140 227 222 0 +222 1.57 -.01 2.6 1.47 -.01 2.6 0 1 1
33 224 844 0 137 222 228 0 +228 1.57 154074395550979e-47 2.6 1.57 -.01 2.6 0 1 1
41 225 223 225 225 222 134 226 0 0 0 0 0 0 +229 230 136 229 1 2 2 2 5 FFF1 231 2
32 233 135 230 2 0 45 4 231 1 1 0 1 127 2 232 2 2 128 2 233 0 1 17 137 0 234 192
 131 135 235 236 224 191 -137 228 843 0 1 224 237 238 +199 239 0 ?133 237 824 0
 134 228 240 0 +240 1.57 0 2.6 1.47 0 2.6 0 1 141 238 224 238 238 228 134 239 0
 0 0 0 0 0 +241 242 136 241 1 2 2 2 5 FFF1 243 244 245 135 242 2 0 45 4 243 .06
 2.400187492676355 .05 2.400187492676355 127 2 244 2 2 128 2 245 0 1 17 134 0 24
6 167 235 132 149 247 237 165 +137 240 823 0 1 237 248 249 +200 250 0 ?133 248 8
19 0 235 240 251 0 +251 1.57 -.01 2.6 1.57 0 2.6 0 1 141 249 237 249 249 240 134
 250 0 0 0 0 0 0 +252 253 136 252 1 2 2 2 5 FFF1 254 255 256 135 253 2 0 45 4 25
4 .13 0 .03 0 127 2 255 2 2 128 2 256 0 1 17 235 0 246 134 257 129 137 236 248 0
 +137 251 818 0 1 248 258 259 +200 260 0 ?133 258 815 0 257 251 261 0 +261 1.47
 -.01 2.6 1.57 -.01 2.6 0 1 141 259 248 259 259 251 134 260 0 0 0 0 0 0 +262 263
 136 262 1 2 2 2 5 FFF1 264 265 266 135 263 2 0 45 4 264 .13 -.01 .13 0 127 2 26
5 2 2 128 2 266 0 1 17 257 0 246 235 167 135 140 267 258 0 +137 261 814 0 1 258
 268 269 +200 270 0 ?133 268 812 0 167 261 271 0 +271 1.47 0 2.6 1.47 -.01 2.6 0
 1 141 269 258 269 269 261 134 270 0 0 0 0 0 0 +272 273 136 272 1 2 2 2 5 FFF1 2
74 275 276 135 273 2 0 45 4 274 .03 -.01 .13 -.01 127 2 275 2 2 128 2 276 0 1 17
 167 0 246 257 134 138 165 168 268 0 +137 271 811 0 1 268 277 278 +200 279 0 ?13
3 277 690 0 153 271 280 0 +280 1.09 0 2.6 1.12 0 .2 -1.20023040648651 1.19995708
6189844 141 278 268 278 278 271 134 279 0 0 0 0 0 0 +281 282 136 281 1 2 2 2 5 F
FF1 283 284 285 135 282 2 0 45 4 283 .03 0 .03 -.01 127 2 284 2 2 128 2 285 0 1
 16 153 594 0 ?145 286 43 277 0 0 1 30 280 689 0 1 277 287 288 +1.10500170811841
2 0 1.39986335052699 .01249902355192596 0 -.999921884154082 133 287 688 0 286 28
0 289 0 +289 .96 0 .2 .99 0 2.6 -1.199957086189844 1.20023040648651 141 288 277
 288 288 280 16 286 593 0 ?290 291 153 287 0 0 1 30 289 687 0 1 287 292 293 +.97
4998291881587 0 1.39986335052699 .01249902355192602 0 .999921884154082 133 292 6
84 0 291 289 294 0 +294 .96 -.06 .2 .99 -.01 2.6 0 1 141 293 287 293 293 289 16
 291 597 0 ?295 296 286 292 0 0 1 134 294 683 0 1 292 297 298 +299 300 133 297 6
82 0 301 294 302 0 +302 .96 -.06 .2 1.12 -.06 .2 0 1 141 298 292 298 298 294 136
 299 3 5 3 3 6 FFF1 303 304 305 135 300 2 0 45 15 303 .96 -.06 .2 .9649986986848
04 -.0416688355253265 .599895894784329 .974999023823983 -.0150016268303537 1.399
921905918662 .984998698684804 -.00833550219199315 2.19989589478433 .99 -.01 2.6
 127 3 304 4 1 4 128 3 305 0 .500056937280421 1 17 301 0 306 307 308 30 44 309 2
97 310 +137 302 681 0 1 297 311 312 +313 314 0 ?133 311 680 0 296 302 315 0 +315
 1.12 -.06 .2 1.09 -.01 2.6 0 1 141 312 297 312 312 302 124 313 632 0 316 317 31
8 319 +320 321 134 314 0 0 0 0 0 0 +322 323 136 322 1 2 2 2 5 FFF1 324 325 326 1
35 323 2 0 45 4 324 0 0 1 0 127 2 325 2 2 128 2 326 0 1 14 316 626 327 ?213 328
 306 5 313 +0 0 213 328 25 50 317 633 0 328 214 313 329 +1.12 -.06 .2 .999921884
154081 462556791089346e-30 .01249902355192602 -462592926927149e-30 1 0 50 318 63
1 0 330 313 331 332 +.96 0 2.6 0 0 1 1 0 0 141 319 302 333 333 313 126 320 FF3 3
 4 5 5 6 2 3 FFF9 3 334 335 336 337 338 125 321 0 1 0 1 0 1 0 1 2 BBBBBBBB????0
 0 0 0 45 60 334 .96 -.06 .2 .964998698684804 -.0416688355253265 .59989589478432
9 .974999023823983 -.0150016268303537 1.399921905918662 .984998698684804 -.00833
550219199315 2.19989589478433 .99 -.01 2.6 1.013333333333332 -.06 .2 1.014999566
228268 -.0416688355253265 .599895894784329 1.018333007941328 -.0150016268303537
 1.399921905918662 1.021666232894934 -.00833550219199315 2.19989589478433 1.0233
33333333332 -.01 2.6 1.066666666666666 -.06 .2 1.065000433771732 -.0416688355253
265 .599895894784329 1.061666992058672 -.0150016268303537 1.399921905918662 1.05
8333767105064 -.00833550219199315 2.19989589478433 1.056666666666666 -.01 2.6 1.
12 -.06 .2 1.115001301315196 -.0416688355253265 .599895894784329 1.1050009761760
16 -.0150016268303537 1.399921905918662 1.095001301315196 -.00833550219199315 2.
19989589478433 1.09 -.01 2.6 127 2 335 4 4 127 3 336 4 1 4 128 2 337 0 1 128 3 3
38 0 .500056937280421 1 141 333 339 319 319 313 137 339 671 0 1 340 341 342 +313
 343 0 ?133 340 672 0 125 344 339 0 +339 1.09 -.01 2.6 .99 -.01 2.6 0 1 133 341
 670 0 122 339 345 0 +345 1.09 154074395550979e-47 2.6 1.09 -.01 2.6 0 1 141 342
 340 342 342 339 134 343 0 0 0 0 0 0 +346 347 136 346 1 2 2 2 5 FFF1 348 349 350
 135 347 2 0 45 4 348 1 1 0 1 127 2 349 2 2 128 2 350 0 1 17 122 0 351 310 116 1
20 352 353 341 307 -137 345 669 0 1 341 354 355 +317 356 0 ?133 354 650 0 119 34
5 357 0 +357 1.09 0 2.6 .99 0 2.6 0 1 141 355 341 355 355 345 134 356 0 0 0 0 0
 0 +358 359 136 358 1 2 2 2 5 FFF1 360 361 362 135 359 2 0 45 4 360 .06 2.400187
492676355 .05 2.400187492676355 127 2 361 2 2 128 2 362 0 1 17 119 0 363 364 352
 117 152 365 354 366 +137 357 649 0 1 354 367 368 +318 369 0 ?133 367 645 0 352
 357 370 0 +370 1.09 -.01 2.6 1.09 0 2.6 0 1 141 368 354 368 368 357 134 369 0 0
 0 0 0 0 +371 372 136 371 1 2 2 2 5 FFF1 373 374 375 135 372 2 0 45 4 373 .13 0
 .03 0 127 2 374 2 2 128 2 375 0 1 17 352 0 363 119 376 114 122 353 367 0 +137 3
70 644 0 1 367 377 378 +318 379 0 ?133 377 641 0 376 370 380 0 +380 .99 -.01 2.6
 1.09 -.01 2.6 0 1 141 378 367 378 378 370 134 379 0 0 0 0 0 0 +381 382 136 381
 1 2 2 2 5 FFF1 383 384 385 135 382 2 0 45 4 383 .13 -.01 .13 0 127 2 384 2 2 12
8 2 385 0 1 17 376 0 363 352 364 120 125 386 377 0 +137 380 640 0 1 377 387 388
 +318 389 0 ?133 387 638 0 364 380 390 0 +390 .99 0 2.6 .99 -.01 2.6 0 1 141 388
 377 388 388 380 134 389 0 0 0 0 0 0 +391 392 136 391 1 2 2 2 5 FFF1 393 394 395
 135 392 2 0 45 4 393 .03 -.01 .13 -.01 127 2 394 2 2 128 2 395 0 1 17 364 0 363
 376 119 123 366 396 387 0 +137 390 637 0 1 387 397 398 +318 399 0 ?133 397 497
 0 400 390 401 0 +401 .61 0 2.6 .64 0 .2 -1.20023040648651 1.199957086189844 141
 398 387 398 398 390 134 399 0 0 0 0 0 0 +402 403 136 402 1 2 2 2 5 FFF1 404 405
 406 135 403 2 0 45 4 404 .03 0 .03 -.01 127 2 405 2 2 128 2 406 0 1 16 400 401
 0 ?407 408 409 397 0 0 1 30 401 496 0 1 397 410 411 +.625001708118413 0 1.39986
335052699 .01249902355192596 0 -.999921884154082 133 410 495 0 408 401 412 0 +41
2 .48 0 .2 .51 0 2.6 -1.199957086189844 1.20023040648651 141 411 397 411 411 401
 16 408 400 0 ?413 414 400 410 0 0 1 30 412 494 0 1 410 415 416 +.49499829188158
7 0 1.39986335052699 .01249902355192602 0 .999921884154082 133 415 491 0 414 412
 417 0 +417 .48 -.06 .2 .51 -.01 2.6 0 1 141 416 410 416 416 412 16 414 404 0 ?4
18 419 408 415 0 0 1 134 417 490 0 1 415 420 421 +422 423 133 420 489 0 424 417
 425 0 +425 .48 -.06 .2 .64 -.06 .2 0 1 141 421 415 421 421 417 136 422 3 5 3 3
 6 FFF1 426 427 428 135 423 2 0 45 15 426 .48 -.06 .2 .484998698684804 -.0416688
355253265 .599895894784329 .494999023823983 -.0150016268303537 1.399921905918662
 .504998698684804 -.00833550219199315 2.19989589478433 .51 -.01 2.6 127 3 427 4
 1 4 128 3 428 0 .500056937280421 1 17 424 0 429 430 431 49 54 432 420 433 +137
 425 488 0 1 420 434 435 +436 437 0 ?133 434 487 0 419 425 438 0 +438 .64 -.06 .
2 .61 -.01 2.6 0 1 141 435 420 435 435 425 124 436 439 0 439 440 441 442 +443 44
4 134 437 0 0 0 0 0 0 +445 446 136 445 1 2 2 2 5 FFF1 447 448 449 135 446 2 0 45
 4 447 0 0 1 0 127 2 448 2 2 128 2 449 0 1 14 439 433 450 ?330 451 429 5 436 +0
 0 330 451 25 50 440 440 0 451 331 436 452 +.64 -.06 .2 .999921884154081 4625567
91089346e-30 .01249902355192602 -462592926927149e-30 1 0 50 441 438 0 453 436 45
4 455 +.48 0 2.6 0 0 1 1 0 0 141 442 425 456 456 436 126 443 FF3 3 4 5 5 6 2 3 F
FF9 3 457 458 459 460 461 125 444 0 1 0 1 0 1 0 1 2 BBBBBBBB????0 0 0 0 45 60 45
7 .48 -.06 .2 .484998698684804 -.0416688355253265 .599895894784329 .494999023823
983 -.0150016268303537 1.399921905918662 .504998698684804 -.00833550219199315 2.
19989589478433 .51 -.01 2.6 .533333333333333 -.06 .2 .534999566228268 -.04166883
55253265 .599895894784329 .538333007941328 -.0150016268303537 1.399921905918662
 .541666232894935 -.00833550219199315 2.19989589478433 .543333333333333 -.01 2.6
 .586666666666667 -.06 .2 .585000433771732 -.0416688355253265 .599895894784329 .
581666992058672 -.0150016268303537 1.399921905918662 .578333767105065 -.00833550
219199315 2.19989589478433 .576666666666667 -.01 2.6 .64 -.06 .2 .63500130131519
6 -.0416688355253265 .599895894784329 .625000976176017 -.0150016268303537 1.3999
21905918662 .615001301315196 -.00833550219199315 2.19989589478433 .61 -.01 2.6 1
27 2 458 4 4 127 3 459 4 1 4 128 2 460 0 1 128 3 461 0 .500056937280421 1 141 45
6 462 442 442 436 137 462 478 0 1 463 464 465 +436 466 0 ?133 463 479 0 110 467
 462 0 +462 .61 -.01 2.6 .51 -.01 2.6 0 1 133 464 477 0 107 462 468 0 +468 .61 1
54074395550979e-47 2.6 .61 -.01 2.6 0 1 141 465 463 465 465 462 134 466 0 0 0 0
 0 0 +469 470 136 469 1 2 2 2 5 FFF1 471 472 473 135 470 2 0 45 4 471 1 1 0 1 12
7 2 472 2 2 128 2 473 0 1 17 107 0 474 433 101 105 475 476 464 430 -137 468 476
 0 1 464 477 478 +440 479 0 ?133 477 457 0 104 468 480 0 +480 .61 0 2.6 .51 0 2.
6 0 1 141 478 464 478 478 468 134 479 0 0 0 0 0 0 +481 482 136 481 1 2 2 2 5 FFF
1 483 484 485 135 482 2 0 45 4 483 .06 2.400187492676355 .05 2.400187492676355 1
27 2 484 2 2 128 2 485 0 1 17 104 0 486 487 475 102 488 489 477 490 +137 480 456
 0 1 477 491 492 +441 493 0 ?133 491 452 0 475 480 494 0 +494 .61 -.01 2.6 .61 0
 2.6 0 1 141 492 477 492 492 480 134 493 0 0 0 0 0 0 +495 496 136 495 1 2 2 2 5
 FFF1 497 498 499 135 496 2 0 45 4 497 .13 0 .03 0 127 2 498 2 2 128 2 499 0 1 1
7 475 0 486 104 500 70 107 476 491 0 +137 494 451 0 1 491 501 502 +441 503 0 ?13
3 501 448 0 500 494 504 0 +504 .51 -.01 2.6 .61 -.01 2.6 0 1 141 502 491 502 502
 494 134 503 0 0 0 0 0 0 +505 506 136 505 1 2 2 2 5 FFF1 507 508 509 135 506 2 0
 45 4 507 .13 -.01 .13 0 127 2 508 2 2 128 2 509 0 1 17 500 0 486 475 487 105 11
0 510 501 0 +137 504 447 0 1 501 511 512 +441 513 0 ?133 511 445 0 487 504 514 0
 +514 .51 0 2.6 .51 -.01 2.6 0 1 141 512 501 512 512 504 134 513 0 0 0 0 0 0 +51
5 516 136 515 1 2 2 2 5 FFF1 517 518 519 135 516 2 0 45 4 517 .03 -.01 .13 -.01
 127 2 518 2 2 128 2 519 0 1 17 487 0 486 500 104 108 490 520 511 0 +137 514 444
 0 1 511 521 522 +441 523 0 ?133 521 277 0 524 514 525 0 +525 .13 0 2.6 .16 0 .2
 -1.20023040648651 1.199957086189844 141 522 511 522 522 514 134 523 0 0 0 0 0 0
 +526 527 136 526 1 2 2 2 5 FFF1 528 529 530 135 527 2 0 45 4 528 .03 0 .03 -.01
 127 2 529 2 2 128 2 530 0 1 16 524 176 0 ?531 532 533 521 0 0 1 30 525 276 0 1
 521 534 535 +.1450017081184126 0 1.39986335052699 .01249902355192596 0 -.999921
884154082 133 534 275 0 532 525 536 0 +536 -1519617764955685e-30 106221177613038
4e-49 .199999999999757 .03 0 2.6 -1.199957086190086 1.20023040648651 141 535 521
 535 535 525 16 532 175 0 ?537 538 524 534 0 0 1 30 536 274 0 1 534 539 540 +.01
499829188158738 0 1.39986335052699 .01249902355192602 0 .999921884154082 133 539
 271 0 538 536 541 0 +541 367394039744206e-32 -.06 .2 .03 -.01 2.6 0 1 141 540 5
34 540 540 536 16 538 180 0 ?542 543 532 539 0 0 1 134 541 270 0 1 539 544 545 +
546 547 133 544 267 0 543 541 548 0 +548 .16 -.06 .2 .13 -.01 2.6 0 1 141 545 53
9 545 545 541 136 546 3 5 3 3 6 FFF1 549 550 551 135 547 2 0 45 15 549 734788079
488412e-32 -.06 .2 .00499869868480411 -.0416688355253265 .599895894784329 .01499
902382398328 -.0150016268303537 1.399921905918662 .0249986986848041 -.0083355021
9199315 2.19989589478433 .03 -.01 2.6 127 3 550 4 1 4 128 3 551 0 .5000569372804
21 1 16 543 187 0 ?552 553 538 544 0 0 1 134 548 266 0 1 544 554 555 +556 557 13
3 554 261 0 558 548 559 0 +559 .03 -.01 2.6 .03 -770371977754894e-48 2.6 0 1 141
 555 544 555 555 548 136 556 3 5 3 3 6 FFF1 560 561 562 135 557 2 0 45 15 560 .1
6 -.06 .2 .155001301315196 -.0416688355253265 .599895894784329 .1450009761760166
 -.0150016268303537 1.399921905918662 .135001301315196 -.00833550219199315 2.199
89589478433 .13 -.01 2.6 127 3 561 4 1 4 128 3 562 0 .500056937280421 1 17 558 0
 563 69 542 90 564 553 554 537 -137 559 260 0 1 554 565 566 +454 567 0 ?133 565
 259 0 97 559 568 0 +568 .13 -.01 2.6 .03 -.01 2.6 0 1 141 566 554 566 566 559 5
0 454 221 0 569 441 570 571 +0 0 .2 -.999921884154081 -1224551134826686e-31 .012
49902355192602 1224646799147352e-31 -1 0 134 567 0 0 0 0 0 0 +572 573 136 572 1
 2 2 2 5 FFF1 574 575 576 135 573 2 0 45 4 574 .01 2.400187492676355 36739403974
4206e-32 2.400187492676355 127 2 575 2 2 128 2 576 0 1 14 569 207 577 ?578 579 5
63 5 454 +0 0 578 579 25 50 570 220 0 578 454 580 581 +.16 -.06 .2 .999921884154
081 462556791089346e-30 .01249902355192602 -462592926927149e-30 1 0 141 571 559
 571 571 454 14 578 210 582 ?583 569 584 5 570 +0 0 583 569 25 124 580 219 0 583
 570 585 586 +587 588 141 581 589 581 581 570 137 589 256 0 1 590 591 592 +570 5
93 0 ?133 590 257 0 95 568 589 0 +589 .13 154074395550979e-47 2.6 .13 -.01 2.6 0
 1 133 591 237 0 92 589 594 0 +594 .13 0 2.6 .03 0 2.6 0 1 141 592 590 592 592 5
89 134 593 0 0 0 0 0 0 +595 596 136 595 1 2 2 2 5 FFF1 597 598 599 135 596 2 0 4
5 4 597 .06 2.400187492676355 .05 2.400187492676355 127 2 598 2 2 128 2 599 0 1
 17 92 0 600 564 601 90 602 603 591 558 +137 594 236 0 1 591 604 605 +585 606 0
 ?133 604 232 0 601 594 607 0 +607 .13 -.01 2.6 .13 0 2.6 0 1 141 605 591 605 60
5 594 50 585 218 0 579 580 608 609 +0 0 2.6 0 0 1 1 0 0 134 606 0 0 0 0 0 0 +610
 611 136 610 1 2 2 2 5 FFF1 612 613 614 135 611 2 0 45 4 612 .13 0 .03 0 127 2 6
13 2 2 128 2 614 0 1 14 579 196 615 ?569 616 600 5 585 +0 0 569 616 25 50 608 3
 0 159 585 617 0 +0 0 .2 0 0 1 1 0 0 141 609 594 618 619 585 141 618 620 621 609
 585 141 619 607 609 621 585 137 607 231 0 1 604 622 623 +585 624 0 ?141 621 625
 619 618 585 137 625 227 0 1 622 626 627 +585 628 0 ?133 622 228 0 629 607 625 0
 +625 .03 -.01 2.6 .13 -.01 2.6 0 1 133 626 225 0 564 625 620 0 +620 .03 0 2.6 .
03 -.01 2.6 0 1 141 627 622 627 627 625 134 628 0 0 0 0 0 0 +630 631 136 630 1 2
 2 2 5 FFF1 632 633 634 135 631 2 0 45 4 632 .03 -.01 .13 -.01 127 2 633 2 2 128
 2 634 0 1 17 564 0 600 629 92 65 558 553 626 0 +137 620 224 0 1 626 635 636 +58
5 637 0 ?30 635 11 0 1 620 638 639 +0 -.06 .2 1 0 0 141 636 626 636 636 620 134
 637 0 0 0 0 0 0 +640 641 136 640 1 2 2 2 5 FFF1 642 643 644 135 641 2 0 45 4 64
2 .03 0 .03 -.01 127 2 643 2 2 128 2 644 0 1 30 638 19 0 1 635 645 646 +0 0 .2 -
1 0 0 141 639 647 648 649 635 133 647 365 0 650 651 652 0 +635 .64 -.06 .2 .96 -
.06 .2 .64 .96 141 648 653 649 639 635 141 649 651 639 648 635 133 651 362 0 654
 655 647 0 +635 .16 -.06 .2 .48 -.06 .2 .16 .48 16 654 142 0 ?656 657 650 651 0
 0 1 133 655 356 0 658 659 651 0 +638 .48 0 .2 .16 0 .2 -.48 -.16 16 658 355 0 ?
99 155 660 655 0 0 1 30 659 329 0 657 661 655 0 +0 -.06 .2 1 0 0 16 657 9 0 ?662
 660 654 659 0 0 1 30 661 326 0 663 664 659 0 +120351816552866e-51 1473884669130
366e-68 .2 1224646799147352e-31 -1 0 16 663 5 0 ?64 160 665 661 0 0 1 137 664 32
2 0 1 666 661 667 +22 668 0 ?133 666 321 0 602 669 664 0 +664 .03 0 2.6 .13 0 2.
6 0 1 141 667 666 667 667 664 50 22 91 0 148 617 670 671 +0 0 .2 0 -1 0 0 0 -1 1
34 668 0 0 0 0 0 0 +672 673 136 672 1 2 2 2 5 FFF1 674 675 676 135 673 2 0 45 4
 674 -2.4 .03 -2.4 .13 127 2 675 2 2 128 2 676 0 1 14 148 84 677 ?616 678 143 5
 22 -0 0 616 678 25 50 617 70 0 616 608 22 0 +0 0 0 0 0 1 1 0 0 50 670 92 0 678
 22 19 679 +1.6 0 .2 -1 0 0 0 0 1 141 671 664 680 681 22 141 680 7 682 671 22 14
1 681 683 671 682 22 137 683 534 0 1 684 685 686 +22 687 0 ?141 682 688 681 680
 22 137 688 727 0 1 689 156 690 +22 691 0 ?133 689 726 0 152 692 688 0 +688 .99
 0 2.6 1.09 0 2.6 0 1 133 156 739 0 146 688 693 0 +638 1.44 0 .2 1.12 0 .2 -1.44
 -1.12 141 690 689 690 690 688 134 691 0 0 0 0 0 0 +694 695 136 694 1 2 2 2 5 FF
F1 696 697 698 135 695 2 0 45 4 696 -2.4 .99 -2.4 1.09 127 2 697 2 2 128 2 698 0
 1 133 693 884 0 699 156 700 0 +700 1.6 0 .2 1.6 0 0 0 .2 16 699 80 0 ?701 27 15
4 693 0 0 1 30 700 885 0 1 693 702 703 +1.6 0 .2 0 0 -1 133 702 889 0 704 700 70
5 0 +705 1.6 0 .2 1.6 -.06 .2 0 1 141 703 693 703 703 700 17 704 0 706 707 86 74
 708 660 702 34 -137 705 890 0 1 702 709 710 +670 711 0 ?133 709 892 0 27 705 71
2 0 +712 1.6 -.06 .2 1.6 -.06 0 0 .2 141 710 702 710 710 705 134 711 0 0 0 0 0 0
 +713 714 136 713 1 2 2 2 5 FFF1 715 716 717 135 714 1 0 45 4 715 0 0 0 -.06 127
 2 716 2 2 128 2 717 0 1 16 27 81 0 ?707 10 699 709 0 0 1 30 712 893 0 1 709 36
 718 +1.6 -.06 .2 0 0 -1 133 36 897 0 29 712 719 0 +719 1.6 -.06 .2 1.44 -.06 .2
 0 1 141 718 709 718 718 712 137 719 898 0 1 36 164 720 +19 721 0 ?133 164 902 0
 158 719 722 0 +722 1.44 0 .2 1.44 -.06 .2 0 .06 141 720 36 720 720 719 50 19 93
 0 723 670 6 724 +0 -.06 .2 0 1 0 0 0 1 134 721 0 0 0 0 0 0 +725 726 136 725 1 2
 2 2 5 FFF1 727 728 729 135 726 1 0 45 4 727 0 1.6 0 1.44 127 2 728 2 2 128 2 72
9 0 1 14 723 88 730 ?678 18 31 5 19 -0 0 678 18 25 141 724 731 732 733 19 137 73
1 521 0 1 652 734 735 +19 736 0 ?141 732 719 733 724 19 141 733 737 724 732 19 1
37 737 714 0 1 738 739 740 +19 741 0 ?133 738 713 0 44 653 737 0 +737 1.12 -.06
 .2 .96 -.06 .2 0 1 133 739 718 0 43 737 742 0 +742 1.12 -.06 .2 1.12 0 .2 -.06
 0 141 740 738 740 740 737 134 741 0 0 0 0 0 0 +743 744 136 743 1 2 2 2 5 FFF1 7
45 746 747 135 744 1 0 45 4 745 0 1.12 0 .96 127 2 746 2 2 128 2 747 0 1 16 43 5
98 0 ?42 153 309 739 0 0 1 30 742 719 0 1 739 748 749 +1.12 0 .2 -46259292692714
9e-30 1 0 133 748 722 0 750 742 692 0 +692 .96 0 .2 .96 -.06 .2 0 .06 141 749 73
9 749 749 742 16 750 595 0 ?751 309 247 748 0 0 1 30 692 723 0 1 748 689 752 +.9
6 0 .2 1224646799147352e-31 -1 0 141 752 748 752 752 692 17 751 0 753 295 754 39
 755 750 0 308 +16 309 600 0 2e-8 301 43 750 0 0 0 1 16 247 763 0 2e-8 134 750 2
36 0 0 0 1 16 236 761 0 2e-8 235 247 267 0 0 0 1 16 267 759 0 2e-8 257 236 168 0
 0 0 1 16 168 757 0 2e-8 167 267 173 0 0 0 1 16 173 776 0 ?191 168 170 193 0 0 1
 17 191 0 190 140 34 135 192 173 0 257 +15 190 802 0 34 198 0 17 140 0 190 163 1
91 138 257 267 223 162 -17 192 0 234 708 137 74 191 173 0 0 -15 234 799 0 708 21
0 0 17 708 0 234 131 192 61 704 660 756 175 +17 131 0 234 137 708 129 175 171 0
 149 -16 660 13 0 2e-8 708 658 657 0 0 0 1 133 756 852 0 708 197 757 0 +757 1.6
 -.06 .2 1.6 0 .2 0 1 17 175 0 143 701 149 61 131 171 0 0 +17 701 0 143 73 175 7
5 86 699 0 758 +17 149 0 143 175 144 129 134 247 20 235 -133 20 905 0 149 722 7
 0 +7 1.47 0 2.6 1.57 0 2.6 0 1 30 722 903 0 1 164 20 759 +1.44 0 .2 12246467991
47352e-31 -1 0 141 759 164 759 759 722 17 73 0 143 760 701 71 758 665 0 761 +17
 86 0 706 704 77 61 701 699 0 708 -17 758 0 762 763 764 75 73 665 0 0 -15 762 49
 0 764 616 0 17 763 0 762 83 758 78 77 765 0 0 -17 764 0 762 758 83 71 766 767 0
 0 -16 665 50 0 ?73 663 765 768 0 0 1 16 765 54 0 ?77 665 769 770 0 0 1 30 768 7
1 0 665 770 771 0 +0 0 0 -1 0 0 30 770 72 0 765 772 768 0 +1.6 0 0 0 1 0 30 771
 302 0 154 768 28 0 +0 0 .2 0 0 -1 16 154 79 0 ?761 699 146 771 0 0 1 30 28 312
 0 10 771 773 0 +0 -.06 .2 0 0 -1 133 773 318 0 533 28 669 0 +669 .16 -.06 .2 .1
6 0 .2 -.06 0 16 533 181 0 ?774 524 489 773 0 0 1 30 669 319 0 1 773 666 775 +.1
6 0 .2 -462592926927149e-30 1 0 141 775 773 775 775 669 17 774 0 584 89 60 66 77
6 533 0 531 +16 489 396 0 2e-8 104 533 476 0 0 0 1 16 476 394 0 2e-8 475 489 510
 0 0 0 1 16 510 392 0 2e-8 500 476 520 0 0 0 1 16 520 390 0 2e-8 487 510 419 0 0
 0 1 16 419 409 0 ?430 520 414 434 0 0 1 17 430 0 429 110 424 105 433 419 0 500
 +15 429 435 0 424 439 0 17 110 0 429 431 430 108 500 510 463 418 -17 433 0 474
 777 107 49 430 419 0 0 -15 474 432 0 777 451 0 17 777 0 474 101 433 55 51 409 0
 407 +17 101 0 474 107 777 70 407 400 0 488 -17 51 0 778 779 57 49 777 409 0 780
 -16 409 405 0 ?777 400 432 734 0 0 1 17 407 0 143 128 488 55 101 400 0 0 +17 12
8 0 143 290 407 126 57 155 0 755 -17 488 0 143 407 413 70 104 489 684 475 -17 41
3 0 143 488 113 102 781 408 0 0 +133 684 533 0 488 782 683 0 +683 .51 0 2.6 .61
 0 2.6 0 1 30 782 530 0 1 783 684 784 +.48 0 .2 1224646799147352e-31 -1 0 133 78
3 529 0 785 786 782 0 +782 .48 0 .2 .48 -.06 .2 0 .06 141 784 783 784 784 782 16
 785 402 0 ?787 432 365 783 0 0 1 30 786 526 0 1 734 783 788 +.64 0 .2 -46259292
6927149e-30 1 0 133 734 525 0 409 731 786 0 +786 .64 -.06 .2 .64 513581318503263
e-46 .2 -.06 513581318503263e-46 141 788 734 788 788 786 17 787 0 789 418 781 52
 790 785 0 431 +16 432 407 0 2e-8 424 409 785 0 0 0 1 16 365 589 0 2e-8 119 785
 353 0 0 0 1 16 353 587 0 2e-8 352 365 386 0 0 0 1 16 386 585 0 2e-8 376 353 396
 0 0 0 1 16 396 583 0 2e-8 364 386 296 0 0 0 1 16 296 602 0 ?307 396 291 311 0 0
 1 17 307 0 306 125 301 120 310 296 0 376 +15 306 628 0 301 316 0 17 125 0 306 3
08 307 123 376 386 340 295 -17 310 0 351 42 122 30 307 296 0 0 -15 351 625 0 42
 328 0 17 42 0 351 116 310 45 38 43 0 145 +17 116 0 351 122 42 114 145 153 0 152
 -17 152 0 143 145 290 114 119 365 689 352 -17 290 0 143 152 128 117 754 286 0 0
 +17 754 0 753 751 366 126 290 286 0 0 -15 753 622 0 751 791 0 17 366 0 753 754
 295 117 364 396 792 290 -17 295 0 753 366 751 123 308 291 0 364 +133 792 674 0
 366 315 344 0 +344 .99 -.01 2.6 .99 -770371977754894e-48 2.6 0 1 134 315 679 0
 1 311 792 793 +794 795 137 344 673 0 1 792 340 796 +214 797 0 ?141 796 792 796
 796 344 50 214 634 0 791 200 317 798 +.96 0 .2 -.999921884154081 -1224551134826
686e-31 .01249902355192602 1224646799147352e-31 -1 0 134 797 0 0 0 0 0 0 +799 80
0 136 799 1 2 2 2 5 FFF1 801 802 803 135 800 2 0 45 4 801 .01 2.400187492676355
 367394039744206e-32 2.400187492676355 127 2 802 2 2 128 2 803 0 1 14 791 620 80
4 ?328 330 753 5 214 +0 0 328 330 25 141 798 344 798 798 214 81 1 804 1263 805 7
91 806 0 807 808 809 14 328 623 807 ?316 791 351 5 317 +0 0 316 791 25 14 330 61
1 808 ?791 439 363 5 318 +0 0 791 439 25 13 25 34 0 0 0 0 0 0 9 16 14 16 569 810
 ?811 0 778 5 608 +811 159 811 0 25 81 1 810 1251 805 16 812 0 450 813 814 14 81
1 376 813 ?159 16 815 5 608 +159 16 159 16 25 15 778 572 0 755 16 0 14 159 157 8
16 ?18 811 40 5 608 +16 811 18 811 25 81 1 816 1253 805 159 817 0 813 818 819 14
 18 90 818 ?723 159 820 5 6 -0 0 723 159 25 81 1 818 1254 805 18 821 0 816 615 8
22 15 820 89 0 766 18 0 17 766 0 820 823 761 81 764 767 0 0 +17 823 0 820 824 76
6 62 26 10 0 0 -17 761 0 820 766 824 71 760 154 0 764 +16 767 62 0 ?766 769 603
 645 0 0 1 16 769 58 0 ?80 765 767 772 0 0 1 16 603 170 0 2e-8 92 767 825 0 0 0
 1 30 645 74 0 767 638 772 0 +0 0 0 0 -1 0 30 772 73 0 769 645 770 0 +0 -.06 0 1
 0 0 16 825 168 0 2e-8 601 603 826 0 0 0 1 17 601 0 600 92 629 84 95 825 604 0 +
16 826 166 0 2e-8 629 825 553 0 0 0 1 17 629 0 600 601 564 93 97 826 622 0 +16 5
53 164 0 2e-8 564 826 543 0 0 0 1 15 600 198 0 564 579 0 17 97 0 827 828 552 65
 629 826 565 542 -15 827 215 0 662 583 0 17 828 0 827 662 97 62 542 538 0 829 -1
7 552 0 827 97 662 93 60 543 0 629 +17 542 0 563 558 64 65 828 538 0 564 +15 563
 209 0 64 569 0 17 64 0 563 542 69 62 824 663 0 828 +17 69 0 563 64 558 67 537 5
32 0 760 -17 824 0 820 761 823 67 64 663 0 0 -17 537 0 143 602 760 90 69 532 0 0
 +17 760 0 143 537 73 67 761 154 0 824 -17 602 0 143 531 537 84 92 603 666 601 -
17 531 0 143 113 602 66 89 524 0 0 +17 113 0 143 413 531 111 99 658 0 790 -17 89
 0 584 95 774 84 531 524 0 602 -15 584 212 0 774 578 0 17 95 0 584 60 89 93 601
 825 590 552 -17 60 0 584 774 95 58 552 543 0 662 -17 662 0 827 552 828 58 829 6
57 0 776 +17 829 0 31 26 830 62 662 657 0 823 -17 776 0 815 656 99 58 774 533 0
 830 -15 815 379 0 790 811 0 17 656 0 815 790 776 52 830 654 0 787 +17 99 0 815
 776 790 66 113 658 0 774 +17 830 0 31 829 54 58 656 654 0 0 -15 31 87 0 80 723
 0 17 54 0 31 830 780 52 424 432 652 656 -17 780 0 31 54 44 49 779 650 0 424 -13
3 652 520 0 54 647 731 0 +731 .64 -.06 .2 .48 -.06 .2 0 1 17 44 0 31 780 32 39 3
01 309 738 779 -17 779 0 778 755 51 39 780 650 0 751 +16 650 364 0 ?779 654 160
 647 0 0 1 16 160 557 0 ?37 650 663 653 0 0 1 133 653 558 0 160 685 738 0 +635 1
.12 -.06 .2 1.44 -.06 .2 1.12 1.44 133 685 550 0 155 683 653 0 +638 .96 0 .2 .64
 0 .2 -.96 -.64 16 155 549 0 ?57 146 658 685 0 0 1 17 57 0 778 51 755 55 128 155
 0 777 +17 755 0 778 57 779 126 751 750 0 754 -17 32 0 31 44 29 30 37 160 0 301
 -17 80 0 31 33 26 78 83 769 0 707 +17 33 0 31 29 80 74 707 27 0 704 -17 26 0 31
 80 829 81 823 10 0 766 +17 83 0 762 764 763 81 80 769 0 26 -17 707 0 706 77 704
 78 33 27 0 763 +15 706 85 0 77 678 0 17 77 0 706 86 707 75 763 765 0 701 +14 67
8 86 831 ?148 723 706 5 670 -0 0 148 723 25 81 1 831 1265 805 678 832 0 808 833
 834 80 255 1 805 835 836 9000 1 1 1 1 1 1 1 1 0 FFFFTFTFFFFFFF1 81 1 832 1170 8
37 678 0 831 838 839 840 81 1 808 1264 805 330 841 0 804 831 842 81 1 833 1266 8
05 616 843 0 831 0 844 82 255 1 834 265027702 14 616 48 833 ?579 148 762 5 617 -
0 0 579 148 25 81 1 843 1172 837 616 0 833 839 845 846 82 1 844 263848040 80 1 8
37 0 847 8001 0 0 0 0 3 5 0 0 0 FFFFTFTFFFFFFF2 81 1 839 1171 837 148 0 677 832
 843 848 81 1 845 1173 837 579 0 615 843 849 850 83 255 3 846 .647058823529412 .
517647058823529 0 81 1 615 1255 805 579 845 0 818 582 851 81 1 849 1174 837 569
 0 577 845 852 853 83 3 850 .647058823529412 .517647058823529 0 81 1 577 1258 80
5 569 849 0 854 855 856 81 1 852 1175 837 578 0 582 849 857 858 83 3 853 .647058
823529412 .517647058823529 0 81 1 582 1256 805 578 852 0 615 854 859 81 1 857 11
76 837 583 0 854 852 860 861 83 3 858 .647058823529412 .517647058823529 0 14 583
 213 854 ?453 578 827 5 580 +0 0 453 578 25 81 1 854 1257 805 583 857 0 582 577
 862 81 1 860 1177 837 453 0 863 857 864 865 83 3 861 .647058823529412 .51764705
8823529 0 14 453 418 863 ?866 583 486 5 441 +0 0 866 583 25 81 1 863 1247 805 45
3 860 0 730 867 868 81 1 864 1178 837 866 0 867 860 869 870 83 3 865 .6470588235
29412 .517647058823529 0 14 866 427 867 ?451 453 789 5 331 +0 0 451 453 25 81 1
 867 1248 805 866 864 0 863 871 872 81 1 869 1179 837 451 0 871 864 873 874 83 3
 870 .647058823529412 .517647058823529 0 14 451 430 871 ?439 866 474 5 440 +0 0
 439 866 25 81 1 871 1249 805 451 869 0 867 450 875 81 1 873 1180 837 439 0 450
 869 841 876 83 3 874 .647058823529412 .517647058823529 0 81 1 450 1250 805 439
 873 0 871 810 877 81 1 841 1181 837 330 0 808 873 806 878 83 3 876 .64705882352
9412 .517647058823529 0 81 1 806 1182 837 791 0 804 841 879 880 83 3 878 .647058
823529412 .517647058823529 0 81 1 879 1183 837 328 0 807 806 881 882 83 3 880 .6
47058823529412 .517647058823529 0 81 1 807 1262 805 328 879 0 883 804 884 81 1 8
81 1184 837 316 0 327 879 885 886 83 3 882 .647058823529412 .517647058823529 0 8
1 1 327 1244 805 316 881 0 209 677 887 81 1 885 1185 837 213 0 883 881 888 889 8
3 3 886 .647058823529412 .517647058823529 0 14 213 785 883 ?166 316 246 5 200 +0
 0 166 316 25 81 1 883 1261 805 213 885 0 890 807 891 81 1 888 1186 837 166 0 85
5 885 892 893 83 3 889 .647058823529412 .517647058823529 0 14 166 794 855 ?210 2
13 161 5 211 +0 0 210 213 25 81 1 855 1259 805 166 888 0 577 890 894 81 1 892 11
87 837 210 0 890 888 895 896 83 3 893 .647058823529412 .517647058823529 0 14 210
 797 890 ?198 166 234 5 199 +0 0 198 166 25 81 1 890 1260 805 210 892 0 855 883
 897 81 1 895 1188 837 198 0 209 892 0 898 83 3 896 .647058823529412 .5176470588
23529 0 81 1 209 1243 805 198 895 0 0 327 899 83 3 898 .647058823529412 .5176470
58823529 0 82 1 899 -809107338 82 1 897 -808976266 82 1 894 -808845194 50 211 80
8 0 166 0 199 900 +1.44 0 .2 -.999921884154081 -1224551134826686e-31 .0124990235
5192602 1224646799147352e-31 -1 0 141 900 227 900 900 211 137 227 847 0 1 169 22
3 901 +211 902 0 ?133 169 848 0 165 757 227 0 +227 1.47 -.01 2.6 1.47 -770371977
754894e-48 2.6 0 1 141 901 169 901 901 227 134 902 0 0 0 0 0 0 +903 904 136 903
 1 2 2 2 5 FFF1 905 906 907 135 904 2 0 45 4 905 .01 2.400187492676355 367394039
744206e-32 2.400187492676355 127 2 906 2 2 128 2 907 0 1 137 757 851 0 1 756 169
 908 +199 909 0 ?141 908 756 908 908 757 134 909 0 0 0 0 0 0 +910 911 136 910 1
 2 2 2 5 FFF1 912 913 914 135 911 2 0 45 4 912 0 0 .06 0 127 2 913 2 2 128 2 914
 0 1 82 1 891 -797638538 15 246 787 0 167 213 0 81 1 677 1245 805 148 839 0 327
 730 915 82 1 887 -929169290 81 1 730 1246 805 723 838 0 677 863 916 82 1 915 26
4765558 81 1 838 1169 837 723 0 730 821 832 917 82 1 916 265289846 81 1 821 1168
 837 18 0 818 817 838 918 83 3 917 .647058823529412 .517647058823529 0 81 1 817
 1167 837 159 0 816 919 821 920 83 3 918 .647058823529412 .517647058823529 0 81
 1 919 1166 837 811 0 813 812 817 921 83 3 920 .647058823529412 .517647058823529
 0 81 1 813 1252 805 811 919 0 810 816 922 81 1 812 1165 837 16 0 810 0 919 923
 83 3 921 .647058823529412 .517647058823529 0 83 3 923 .647058823529412 .5176470
58823529 0 82 1 922 -1021706122 82 1 884 -929038218 82 1 877 -1049362314 82 1 87
5 -1049231242 82 1 872 -1049100170 15 789 429 0 787 866 0 50 331 441 0 866 318 4
40 924 +.48 0 .2 -.999921884154081 -1224551134826686e-31 .01249902355192602 1224
646799147352e-31 -1 0 141 924 467 924 924 331 137 467 480 0 1 925 463 926 +331 9
27 0 ?133 925 481 0 490 438 467 0 +467 .51 -.01 2.6 .51 -770371977754894e-48 2.6
 0 1 141 926 925 926 926 467 134 927 0 0 0 0 0 0 +928 929 136 928 1 2 2 2 5 FFF1
 930 931 932 135 929 2 0 45 4 930 .01 2.400187492676355 367394039744206e-32 2.40
0187492676355 127 2 931 2 2 128 2 932 0 1 17 490 0 789 781 418 102 487 520 925 4
13 -134 438 486 0 1 434 925 933 +934 935 141 933 434 933 933 438 136 934 3 5 3 3
 6 FFF1 936 937 938 135 935 2 0 45 15 936 .64 -.06 .2 .635001301315196 -.0416688
355253265 .599895894784329 .625000976176017 -.0150016268303537 1.399921905918662
 .615001301315196 -.00833550219199315 2.19989589478433 .61 -.01 2.6 127 3 937 4
 1 4 128 3 938 0 .500056937280421 1 17 781 0 789 787 490 111 413 408 0 0 -17 418
 0 789 490 787 108 431 414 0 487 +17 431 0 429 424 110 52 418 414 0 0 -82 1 868
 -1037893514 15 486 420 0 487 453 0 82 1 862 -1977745292 82 1 859 -1977614220 82
 1 856 -1977483148 82 1 851 -1966276492 83 3 848 .647058823529412 .5176470588235
29 0 79 255 15 847 SDL/TYSA_COLOUR82 1 842 -917700490 83 3 840 .647058823529412
 .517647058823529 0 79 14 836 SWEntUnchanged17 790 0 815 99 656 111 787 785 0 78
1 -82 1 822 265551988 82 1 819 -1950220170 82 1 814 -901578634 15 363 613 0 364
 330 0 82 1 809 -928907146 141 793 311 793 793 315 136 794 3 5 3 3 6 FFF1 939 94
0 941 135 795 2 0 45 15 939 1.12 -.06 .2 1.115001301315196 -.0416688355253265 .5
99895894784329 1.105000976176016 -.0150016268303537 1.399921905918662 1.09500130
1315196 -.00833550219199315 2.19989589478433 1.09 -.01 2.6 127 3 940 4 1 4 128 3
 941 0 .500056937280421 1 17 308 0 306 301 125 39 295 291 0 0 -134 197 853 0 1 1
93 756 942 +943 944 141 942 193 942 942 197 136 943 3 5 3 3 6 FFF1 945 946 947 1
35 944 2 0 45 15 945 1.6 -.06 .2 1.595001301315195 -.0416688355253265 .599895894
784329 1.585000976176015 -.0150016268303537 1.399921905918662 1.575001301315195
 -.00833550219199315 2.19989589478433 1.57 -.01 2.6 127 3 946 4 1 4 128 3 947 0
 .500056937280421 1 17 163 0 190 34 140 11 162 170 0 0 -17 162 0 161 165 157 138
 163 170 0 167 +141 735 652 735 735 731 134 736 0 0 0 0 0 0 +948 949 136 948 1 2
 2 2 5 FFF1 950 951 952 135 949 1 0 45 4 950 0 .64 0 .48 127 2 951 2 2 128 2 952
 0 1 141 686 684 686 686 683 134 687 0 0 0 0 0 0 +953 954 136 953 1 2 2 2 5 FFF1
 955 956 957 135 954 2 0 45 4 955 -2.4 .51 -2.4 .61 127 2 956 2 2 128 2 957 0 1
 141 679 705 679 679 670 141 646 156 958 959 638 141 958 685 959 646 638 141 959
 655 646 958 638 141 623 604 623 623 607 134 624 0 0 0 0 0 0 +960 961 136 960 1
 2 2 2 5 FFF1 962 963 964 135 961 2 0 45 4 962 .13 -.01 .13 0 127 2 963 2 2 128
 2 964 0 1 137 568 258 0 1 565 590 965 +580 966 0 ?141 965 565 965 965 568 134 9
66 0 0 0 0 0 0 +967 968 136 967 1 2 2 2 5 FFF1 969 970 971 135 968 2 0 45 4 969
 1 1 0 1 127 2 970 2 2 128 2 971 0 1 141 586 568 586 586 580 126 587 FF3 3 4 5 5
 6 2 3 FFF9 3 972 973 974 975 976 125 588 0 1 0 1 0 1 0 1 2 BBBBBBBB????0 0 0 0
 45 60 972 734788079488412e-32 -.06 .2 .00499869868480411 -.0416688355253265 .59
9895894784329 .01499902382398328 -.0150016268303537 1.399921905918662 .024998698
6848041 -.00833550219199315 2.19989589478433 .03 -.01 2.6 .0533333333333333 -.06
 .2 .054999566228268 -.0416688355253265 .599895894784329 .0583330079413278 -.015
0016268303537 1.399921905918662 .0616662328949347 -.00833550219199315 2.19989589
478433 .0633333333333333 -.01 2.6 .1066666666666666 -.06 .2 .105000433771732 -.0
416688355253265 .599895894784329 .1016669920586722 -.0150016268303537 1.39992190
5918662 .0983337671050653 -.00833550219199315 2.19989589478433 .0966666666666667
 -.01 2.6 .16 -.06 .2 .155001301315196 -.0416688355253265 .599895894784329 .1450
009761760166 -.0150016268303537 1.399921905918662 .135001301315196 -.00833550219
199315 2.19989589478433 .13 -.01 2.6 127 2 973 4 4 127 3 974 4 1 4 128 2 975 0 1
 128 3 976 0 .500056937280421 1 141 455 480 977 978 441 141 977 514 979 455 441
 141 978 494 455 979 441 141 979 504 978 977 441 141 452 468 452 452 440 141 332
 357 980 981 318 141 980 390 982 332 318 141 981 370 332 982 318 141 982 380 981
 980 318 141 329 345 329 329 317 141 215 240 983 984 200 141 983 271 985 215 200
 141 984 251 215 985 200 141 985 261 984 983 200 141 212 757 986 986 199 141 986
 228 212 212 199 16 35 774 0 2e-8 34 171 158 0 0 0 1 133 176 864 0 171 0 177 0 +
177 1.57 0 2.6 1.6 0 .2 -1.20023040648651 1.199957086189844 141 179 176 179 179
 177 19 17 100 0 1 0 9 5 S0 141 21 20 21 21 7 134 23 0 0 0 0 0 0 +987 988 136 98
7 1 2 2 2 5 FFF1 989 990 991 135 988 2 0 45 4 989 -2.4 1.47 -2.4 1.57 127 2 990
 2 2 128 2 991 0 1 74 4 CI16 index_map_offset0 0 1 dCCZ20 15 10 0 0 833 992 993
 994 995 996 997 13 895 2 0 0 0 0 0 0 0 0 0 0 81 5 992 161 998 1 0 993 0 0 999 0
 0 0 0 81 2 993 908 1000 1 992 994 0 0 0 1001 81 2 994 915 1002 1 993 995 0 0 0
 1003 81 1 995 949 1004 1 994 996 0 0 1005 81 2 996 975 1006 1 995 997 0 0 1007
 0 81 2 997 1082 1008 1 996 13 0 0 0 1009 81 2 13 1162 1010 1 997 2 0 0 0 0 80 2
 1010 1011 1012 9000 0 0 0 0 3 5 0 0 0 FFTFFFFFFFFFFF9 1 79 16 1012 BODY_RECIPE_
200180 2 1008 1013 1014 9000 0 0 0 0 3 5 0 0 0 FFTFFFFFFFFFFF9 1 82 1 1009 1 79
 24 1014 BODY_IN_LIGHTWEIGHT_PERM80 2 1006 1015 1016 8004 0 0 0 0 3 5 0 0 0 FFTF
FFFFFFFFFF2 3 83 1 1007 1 79 16 1016 SDL/TYSA_DENSITY80 1 1004 1017 1018 9000 1
 1 1 1 1 1 1 1 0 FFTFFFFFFFFFFF1 82 1 1005 3938 79 10 1018 BODY_MATCH80 2 1002 1
019 1020 9000 0 0 0 0 3 5 0 0 0 FFTFFFFFFFFFFF9 1 82 1 1003 69 79 30 1020 LAST_B
ODY_MODIFYING_FEATURE_ID80 2 1000 1021 1022 9000 0 0 0 0 3 5 0 0 0 FFTFFFFFFFFFF
T9 1 82 1 1001 109 79 19 1022 ENT_TIME_STAMP_200180 5 998 1023 1024 9000 0 0 0 0
 3 6 0 0 0 FFTTTTTTFTTFTT2 2 2 2 2 83 1 999 1 79 19 1024 BODY_SCALING_FACTOR80 2
 12 1025 1026 9000 0 0 0 0 3 5 0 0 0 FFTFFFFFFFFFFF9 1 82 1 14 103 79 12 1026 AT
OM_ID_20011 0 
