**ABCDEFGHIJKLMNOPQRSTUVWXYZabcdefghijklmnopqrstuvwxyz**************************
**PARASOLID !"#$%&'()*+,-./:;<=>?@[\]^_`{|}~0123456789**************************
**PART1;
MC=AMD64;
MC_MODEL=Intel64 Family 6 Model 142 Stepping 12, GenuineIntel;
MC_ID=unknown;
OS=Windows_NT;
OS_RELEASE=unknown;
FRU=Parasolid Version 33.1, build 247,  8- 6-2021;
APPL=SOLIDWORKS 2022-2022009;
SITE=;
USER=unknown;
FORMAT=text;
GUISE=transmit;
KEY=FILEMug.x_t;
DATE=Thu Jun 15 06:28:24 2023;
**PART2;
SCH=SCH_3301247_33103;
USFLD_SIZE=0;
**PART3;
**END_OF_HEADER*****************************************************************
T51 : TRANSMIT FILE created by modeller version 330124723 SCH_3301247_33103_1300
6230 0 10 21 CCCCI7 lattice222 0 CCCI4 mesh1006 0 I8 polyline1008 0 CCCCCCCCCCA1
6 mesh_offset_data206 0 Z1 5 2 3 0 0 0 0 0 0 0 0 1e3 1e-8 0 0 0 1 0 1 4 0 81 255
 2 2 5 5 1 0 0 0 0 0 0 70 11 CI9 list_type0 0 1 uI10 notransmit0 0 1 lCCCDCCDI12
 finger_index0 0 1 dI12 finger_block1012 0 CZ3 0 4 T1 0 0 1 20 1 6 6 11 255 4 3
 0 1 7 8 1 9 0 0 0 12 35 CCCI7 lattice222 0 CCCI4 mesh1006 0 I8 polyline1008 0 C
CCCCCCDI5 owner1040 0 CCCCCCI13 boundary_mesh1006 0 I17 boundary_polyline1008 0
 CCCA16 index_map_offset0 0 1 dA9 index_map82 0 A17 node_id_index_map82 0 A20 sc
hema_embedding_map82 0 A5 child12 0 A14 lowest_node_id0 0 1 dA16 mesh_offset_dat
a206 0 Z7 313 10 11 0 0 0 0 0 0 0 1e3 1e-8 4 12 0 1 0 1 1 13 14 15 16 0 0 17 18
 19 0 0 0 0 0 0 0 100 10 CCCCCCCCCA9 precision229 0 Z8 4 4 0 0 1 0 0 0 1 0 0 0 1
 0 0 0 1 0 ?0 11 9 1 0 1 12 20 1 0 4 0 0 12 12 817 21 22 0 0 0 0 0 0 0 1e3 1e-8
 9 23 7 1 0 1 1 24 25 26 27 0 0 28 29 30 0 0 0 0 0 0 0 100 20 2 9 0 0 1 0 0 0 1
 0 0 0 1 0 0 0 1 0 ?0 81 1 21 817 31 12 32 0 0 0 0 70 22 0 4 T12 0 0 5 20 1 33 3
3 13 255 24 48 0 12 0 34 0 0 35 0 50 255 25 83 0 36 37 0 0 +0 0 0 0 1 0 0 0 1 13
3 255 26 252 0 38 39 0 0 +40 .0579230579940489 .1222375 .01154841398336698 .0577
203865753425 .092075 0 5.49601895852559 5.27863725229519 29 255 27 601 0 30 41 0
 .056436064185918 .123825 .01124097245839376 19 8 CCCCCCCA5 owner12 0 Z28 52 0 1
2 35 0 42 V0 16 255 29 245 0 ?43 0 44 39 0 0 12 18 255 30 599 0 45 0 46 27 ?12 1
7 255 45 0 47 48 49 30 50 51 0 52 -18 46 406 0 53 30 54 41 ?12 17 53 0 55 56 57
 46 58 59 0 60 +18 54 237 0 61 46 62 63 ?12 29 41 408 0 46 63 27 .05929134260609
24 .1222375 .0130942451991599 29 63 240 0 54 64 41 .0719991653287671 .1222375 34
69446951953615e-33 29 64 208 0 62 65 63 .0577203865753425 .092075 0 18 62 153 0
 66 54 67 64 ?12 29 65 356 0 67 68 64 .0579230579940489 .1222375 .01154841398336
698 18 67 299 0 69 62 70 65 ?12 29 68 358 0 70 71 65 .0579230579940489 .1222375
 -.01154841398336696 18 70 290 0 72 67 73 68 ?12 29 71 362 0 73 74 68 .060719945
7987493 .123825 -.01397558631033304 18 73 296 0 75 70 76 71 ?12 29 74 363 0 76 7
7 71 .07775448 .123825 -758941520739853e-33 18 76 298 0 78 73 79 74 ?12 29 77 36
4 0 79 80 74 .0607199457987493 .123825 .01397558631033306 18 79 294 0 81 76 82 7
7 ?12 29 80 534 0 82 83 77 .0752516295473089 .117475 0 18 82 472 0 84 79 85 80 ?
12 29 83 539 0 85 86 80 .0607199457987493 .117475 .01397558631033306 18 85 463 0
 87 82 88 83 ?12 29 86 540 0 88 89 83 .07775448 .117475 -758941520739853e-33 18
 88 462 0 90 85 91 86 ?12 29 89 541 0 91 92 86 .0607199457987493 .117475 -.01397
558631033304 18 91 466 0 93 88 94 89 ?12 29 92 542 0 95 96 89 .0752516295473089
 .1222375 -1422247078103912e-33 18 95 471 0 97 98 99 92 ?12 29 96 543 0 99 100 9
2 .0592913426060924 .1222375 -.0130942451991599 18 99 470 0 101 95 102 96 ?12 29
 100 544 0 94 103 96 .0592913426060924 .117475 .0130942451991599 18 94 473 0 57
 91 98 100 ?12 29 103 545 0 98 104 100 .0592913426060924 .117475 -.0130942451991
599 18 98 469 0 105 94 95 103 ?12 29 104 667 0 106 107 103 .056436064185918 .123
825 -.01124097245839376 18 106 620 0 108 109 0 104 ?12 29 107 668 0 102 110 104
 .0701374378203285 .123825 -2903412980065015e-33 18 102 623 0 48 99 109 107 ?12
 29 110 670 0 109 0 107 .0562376169297902 .0944630107955446 -569388814182424e-33
 18 109 622 0 50 102 106 110 ?12 17 50 0 111 112 52 109 45 51 0 49 +15 255 111 6
33 0 50 113 0 17 112 0 111 52 50 106 114 115 0 116 +17 52 0 111 50 112 30 116 11
7 0 118 -16 51 615 0 ?50 119 115 120 0 0 12 17 49 0 47 45 48 109 121 122 0 114 +
15 47 637 0 49 123 0 17 48 0 47 49 45 102 118 124 0 121 -17 121 0 125 108 114 10
2 49 122 0 126 -16 122 618 0 ?49 115 117 127 0 0 12 17 114 0 125 121 108 109 112
 115 0 0 -15 125 641 0 114 128 0 17 108 0 125 114 121 106 126 129 0 112 -16 115
 616 0 ?112 51 122 130 0 0 12 32 255 130 663 0 115 131 127 0 -.00489862431392594
 .001387927769114282 -.00597082523492793 .607482923836615 -.287579420338054 -.74
0447549962147 .1824049572341795 .957756794284451 -.222329383074681 .181147778838
3645 .0515186999881982 31 255 131 664 0 117 120 130 0 -0 .123825 0 0 1 0 0 0 1 .
0575446678903217 30 255 127 662 0 122 130 132 0 +.009410396421777 -.004454835258
634825 433680868994202e-32 -.42787288720203 -.903838919496942 2434547559635535e-
32 30 132 661 0 124 127 133 0 +.0282167871893333 .123825 .03439282014742585 -.77
3106026896256 0 .634276809584495 16 124 614 0 ?118 117 0 132 0 0 12 30 133 660 0
 129 132 134 0 +.0282167871893333 .123825 -.03439282014742585 .773106026896256 0
 .634276809584495 16 129 617 0 ?126 135 136 133 0 0 12 31 134 659 0 136 133 137
 0 +0 .0015875 0 0 1 0 0 0 1 .04207002 16 136 619 0 ?138 129 119 134 0 0 12 31 1
37 533 0 139 134 140 0 +0 .117475 0 0 -1 0 0 0 -1 .0607200342997989 16 139 450 0
 ?105 141 142 137 0 0 12 30 140 532 0 141 137 143 0 +.0592913426060924 .117475 -
.0130942451991599 .773106026896256 0 .634276809584495 16 141 454 0 ?144 145 139
 140 0 0 12 30 143 531 0 145 140 146 0 +.0752516295473089 .117475 -1422247078103
912e-33 -.773106026896256 0 .634276809584495 16 145 458 0 ?57 59 141 143 0 0 12
 31 146 530 0 135 143 147 0 +0 .1222375 0 0 -1 0 0 0 -1 .0607200342997989 16 135
 429 0 ?148 149 129 146 0 0 12 30 147 529 0 149 146 150 0 +.0592913426060924 .12
22375 -.0130942451991599 .773106026896256 0 .634276809584495 16 149 432 0 ?151 1
42 135 147 0 0 12 30 150 528 0 142 147 152 0 +.0752516295473089 .1222375 -142224
7078103912e-33 -.773106026896256 0 .634276809584495 16 142 435 0 ?153 139 149 15
0 0 0 12 30 152 527 0 59 150 154 0 +.0592913426060924 .117475 .0130942451991599
 0 1 0 16 59 461 0 ?53 155 145 152 0 0 12 30 154 526 0 155 152 156 0 +.075251629
5473089 .117475 -1422247078103912e-33 0 1 0 16 155 457 0 ?97 157 59 154 0 0 12 3
0 156 525 0 157 154 158 0 +.0592913426060924 .117475 -.0130942451991599 0 1 0 16
 157 453 0 ?159 160 155 156 0 0 12 31 158 524 0 160 156 161 0 +0 .117475 0 0 -1
 0 0 0 -1 .0623075342997989 16 160 420 0 ?162 163 157 158 0 0 12 30 161 523 0 16
3 158 164 0 +.07775448 .117475 -758941520739853e-33 .773106026896256 0 .63427680
9584495 16 163 423 0 ?165 166 160 161 0 0 12 30 164 522 0 166 161 167 0 +.060719
9457987493 .117475 .01397558631033306 -.773106026896256 0 .634276809584495 16 16
6 426 0 ?168 169 163 164 0 0 12 31 167 352 0 169 164 170 0 +0 .123825 0 0 1 0 0
 0 1 .0623075342997989 16 169 281 0 ?171 172 166 167 0 0 12 30 170 351 0 172 167
 173 0 +.0607199457987493 .123825 .01397558631033306 .773106026896256 0 -.634276
809584495 16 172 284 0 ?174 175 169 170 0 0 12 30 173 350 0 175 170 176 0 +.0777
5448 .123825 -758941520739853e-33 -.773106026896256 0 -.634276809584495 16 175 2
87 0 ?177 178 172 173 0 0 12 30 176 349 0 179 173 180 0 +.0607199457987493 .1222
375 -.01397558631033304 0 1 0 16 179 273 0 ?75 181 182 176 0 0 12 30 180 348 0 1
82 176 183 0 +.07775448 .1222375 -758941520739853e-33 0 1 0 16 182 277 0 ?78 179
 178 180 0 0 12 30 183 347 0 178 180 184 0 +.0607199457987493 .1222375 .01397558
631033306 0 1 0 16 178 269 0 ?81 182 175 183 0 0 12 30 184 336 0 181 183 185 0 +
.0289657733305823 .1222375 .03530574285106485 -.773106026896256 0 .6342768095844
95 16 181 263 0 ?186 187 179 184 0 0 12 31 185 335 0 187 184 188 0 -0 .1222375 0
 0 1 0 0 0 1 .0590630723287671 16 187 264 0 ?189 190 181 185 0 0 12 30 188 204 0
 12 185 191 192 +.07275068 .123825 0 -.42787288720203 -.903838919496942 0 133 19
1 183 0 193 188 194 0 +194 .0577203865753424 .092075 0 .0579230579940489 .122237
5 -.01154841398336696 1.004548054884396 .787166348653997 141 255 192 195 192 192
 188 133 195 239 0 190 196 39 0 +188 .0719991653287671 .1222375 3469446951953615
e-33 .0577203865753425 .092075 0 .001756397036856505 .0351279407371298 16 190 23
8 0 ?197 193 187 195 0 0 12 31 196 86 0 44 198 195 0 +0 0 0 0 1 0 0 0 1 .0420700
2 30 39 247 0 29 195 26 0 +.0289657733305823 .1222375 -.03530574285106485 .77310
6026896256 0 .634276809584495 16 44 71 0 ?199 29 200 196 0 0 12 31 198 85 0 200
 40 196 0 +0 .0079375 0 0 1 0 0 0 1 .053975 16 200 66 0 ?201 44 38 198 0 0 12 32
 40 180 0 12 194 198 202 -.00502778219497065 -.00345411496098283 .00612825293013
599 .607482923836615 -.287579420338054 .740447549962147 .1824049572341795 .95775
6794284451 .222329383074681 .1859239489978515 .0528770499448861 32 194 182 0 12
 191 40 203 -.0050277821949706 -.00345411496098305 -.00612825293013595 .60748292
3836615 -.287579420338054 -.740447549962147 .1824049572341795 .957756794284451 -
.222329383074681 .185923948997852 .0528770499448862 141 202 26 202 202 40 141 20
3 191 203 203 194 17 201 0 204 201 201 0 205 200 0 0 +16 38 251 0 ?66 200 193 26
 0 0 12 17 66 0 206 207 186 62 208 38 0 197 +16 193 150 0 ?209 38 190 191 0 0 12
 17 209 0 210 43 197 70 211 193 0 0 +15 210 170 0 209 212 0 17 43 0 210 197 209
 54 72 29 0 207 +17 197 0 210 209 43 62 207 190 0 211 +17 211 0 213 208 189 62 2
09 193 0 0 -15 213 135 0 208 214 0 17 208 0 213 189 211 67 66 38 0 0 -17 189 0 2
13 211 208 70 69 187 0 209 +17 69 0 215 61 72 67 189 187 0 186 -15 215 322 0 69
 216 0 17 61 0 215 72 69 54 186 181 0 43 -17 72 0 215 69 61 70 43 29 0 189 -17 1
86 0 206 66 207 67 61 181 0 208 +15 206 167 0 207 217 0 17 207 0 206 186 66 54 1
97 190 0 0 -14 255 217 256 218 ?212 214 206 24 219 +0 0 212 214 42 81 1 218 798
 220 217 221 0 0 222 223 14 212 248 222 ?36 217 210 24 224 +0 0 36 217 42 14 214
 260 225 ?217 34 204 24 226 +0 0 217 34 42 50 219 178 0 217 227 224 0 +.00521540
739649874 -.002468948141685205 .00635694515395231 .607482923836615 -.28757942033
8054 .740447549962147 .773106026896256 0 -.634276809584495 13 42 51 0 0 0 0 0 0
 28 34 14 34 64 228 ?214 0 229 24 230 +0 0 214 0 42 81 1 228 801 220 34 231 0 22
5 232 233 15 229 327 0 171 34 234 50 230 80 0 34 224 226 0 +0 .123825 0 0 1 0 0
 0 1 50 224 177 0 212 219 230 0 +.00521540739649874 -.002468948141685205 -.00635
694515395231 .607482923836615 -.287579420338054 -.740447549962147 -.773106026896
256 0 -.634276809584495 52 255 226 81 0 214 230 37 0 +0 .123825 0 0 1 0 .0591337
4 .0444710285974263 .999010674425197 0 0 1 54 255 37 82 0 235 226 25 0 -0 .01289
65326016 0 0 1 0 .04207002 .0128965326016 0 0 1 14 235 74 232 ?216 36 236 24 37
 -0 0 216 36 42 81 1 232 802 220 235 237 0 228 238 239 14 216 320 238 ?240 235 2
41 24 242 -0 0 240 235 42 14 36 77 243 ?235 212 244 24 25 -0 0 235 212 42 15 236
 105 0 205 235 245 17 205 0 236 205 205 0 201 200 0 0 -15 245 73 0 199 235 0 17
 199 0 245 199 199 0 246 44 0 0 +17 246 0 244 246 246 0 199 44 0 0 -15 244 106 0
 246 36 0 81 1 243 804 220 36 247 0 238 248 249 80 255 1 220 250 251 9000 1 1 1
 1 1 1 1 1 0 FFFFTFTFFFFFFF1 81 1 247 715 252 36 0 243 253 237 254 81 1 238 803
 220 216 255 0 232 243 256 81 1 248 805 220 240 257 0 243 258 259 82 255 1 249 -
1673985940 14 240 474 248 ?260 216 261 24 262 +0 0 260 216 42 81 1 257 718 252 2
40 0 248 255 263 264 81 1 258 806 220 260 263 0 248 265 266 82 1 259 -1700069247
 14 260 494 258 ?267 240 268 24 269 +0 0 267 240 42 81 1 263 719 252 260 0 258 2
57 270 271 81 1 265 807 220 267 270 0 258 272 273 82 1 266 -1704591231 14 267 49
8 265 ?274 260 275 24 276 +0 0 274 260 42 81 1 270 720 252 267 0 265 263 277 278
 81 1 272 808 220 274 277 0 265 279 280 82 1 273 -1704853375 14 274 502 272 ?281
 267 55 24 282 +0 0 281 267 42 81 1 277 721 252 274 0 272 270 283 284 81 1 279 8
09 220 281 283 0 272 285 286 82 1 280 -1705115519 14 281 316 279 ?287 274 288 24
 289 +0 0 287 274 42 81 1 283 722 252 281 0 279 277 290 291 81 1 285 810 220 287
 290 0 279 292 293 82 1 286 -87162751 14 287 312 285 ?294 281 295 24 296 +0 0 29
4 281 42 81 1 290 723 252 287 0 285 283 297 298 81 1 292 811 220 294 297 0 285 2
99 300 82 1 293 -87293823 14 294 308 292 ?113 287 301 24 227 +0 0 113 287 42 81
 1 297 724 252 294 0 292 290 302 303 81 1 299 812 220 113 302 0 292 304 305 82 1
 300 -87031679 14 113 629 299 ?123 294 306 24 307 -0 0 123 294 42 81 1 302 725 2
52 113 0 299 297 308 309 81 1 304 813 220 123 308 0 299 310 311 82 1 305 -120756
6205 14 123 634 304 ?128 113 47 24 312 -0 0 128 113 42 81 1 308 726 252 123 0 30
4 302 313 314 81 1 310 814 220 128 313 0 304 315 316 82 1 311 -1207762813 14 128
 638 310 ?317 123 125 24 318 -0 0 317 123 42 81 1 313 727 252 128 0 310 308 319
 320 81 1 315 815 220 317 319 0 310 321 322 82 1 316 -1207631741 14 317 642 315
 ?323 128 324 24 325 +0 0 323 128 42 81 1 319 728 252 317 0 315 313 326 327 81 1
 321 816 220 323 326 0 315 0 328 82 1 322 -1206779773 14 323 646 321 ?0 317 329
 24 330 +0 0 0 317 42 81 1 326 729 252 323 0 321 319 0 331 82 1 328 -1206976381
 80 1 252 0 332 8001 0 0 0 0 3 5 0 0 0 FFFFTFTFFFFFFF2 83 255 3 331 .79215686274
5098 .819607843137255 .933333333333333 79 255 15 332 SDL/TYSA_COLOUR15 329 649 0
 333 323 334 54 330 653 0 323 325 282 0 -0 .0128965326016 0 0 1 0 .04207002 .011
3090326016 0 0 1 50 325 654 0 317 318 330 0 +0 .0015875 0 0 1 0 0 0 1 50 282 515
 0 274 330 276 0 +.0752516295473089 .117475 -1422247078103912e-33 -.634276809584
495 0 -.773106026896256 -.773106026896256 0 .634276809584495 50 276 514 0 267 28
2 269 0 +.0592913426060924 .117475 -.0130942451991599 -.634276809584495 0 .77310
6026896256 .773106026896256 0 .634276809584495 51 255 269 513 0 260 276 262 0 -0
 .117475 0 0 1 0 .0607200342997989 0 0 1 50 262 512 0 240 269 242 0 +0 .117475 0
 0 -1 0 0 0 -1 50 242 334 0 216 262 296 0 +0 .1222375 0 0 1 0 0 0 1 50 296 332 0
 287 242 289 0 +.07775448 .1222375 -758941520739853e-33 .634276809584495 0 -.773
106026896256 -.773106026896256 0 -.634276809584495 50 289 331 0 281 296 227 0 +.
0607199457987493 .1222375 .01397558631033306 .634276809584495 0 .773106026896256
 .773106026896256 0 -.634276809584495 51 227 330 0 294 289 219 0 +0 .1222375 0 0
 1 0 .0623075342997989 0 0 1 50 318 655 0 128 312 325 0 +.004251028254908115 -.0
02012415811898545 -.0051814846683874 .607482923836615 -.287579420338054 -.740447
549962147 -.773106026896256 0 -.634276809584495 50 312 656 0 123 307 318 0 +.004
251028254908115 -.002012415811898545 .0051814846683874 .607482923836615 -.287579
420338054 .740447549962147 .773106026896256 0 -.634276809584495 52 307 657 0 113
 0 312 0 +0 .1238955977578984 0 0 1 0 .05754781055435 .0444710285974263 .9990106
74425197 0 0 1 17 333 0 329 333 333 0 335 119 0 0 +15 334 650 0 336 323 0 17 336
 0 334 336 336 0 138 136 0 0 -17 138 0 324 138 138 0 336 136 0 0 +15 324 645 0 1
38 317 0 17 335 0 306 335 335 0 333 119 0 0 -16 119 612 0 ?333 136 51 337 0 0 12
 31 337 666 0 119 0 120 0 +0 .00829819205662901 0 0 1 0 0 0 1 .0524019841219275
 32 120 665 0 51 337 131 0 -.00489862431392598 .001387927769114478 .005970825234
92797 .607482923836615 -.287579420338054 .740447549962147 .1824049572341795 .957
756794284451 .222329383074681 .1811477788383645 .0515186999881982 15 306 632 0 3
35 113 111 83 3 327 .792156862745098 .819607843137255 .933333333333333 83 3 320
 .792156862745098 .819607843137255 .933333333333333 83 3 314 .792156862745098 .8
19607843137255 .933333333333333 83 3 309 .792156862745098 .819607843137255 .9333
33333333333 83 3 303 .792156862745098 .819607843137255 .933333333333333 15 301 3
11 0 338 294 0 17 338 0 301 93 81 73 171 169 0 177 -17 93 0 301 339 338 91 75 17
9 0 340 -17 81 0 301 338 339 79 87 178 0 341 +17 171 0 229 174 177 79 338 169 0
 0 +17 177 0 229 171 174 73 342 175 0 0 +17 174 0 229 177 171 76 341 172 0 342 +
17 342 0 295 90 75 76 177 175 0 0 -15 295 315 0 342 287 0 17 90 0 295 340 342 88
 78 182 0 165 -17 75 0 295 342 340 73 93 179 0 338 +17 340 0 295 75 90 91 165 16
3 0 162 -17 165 0 261 168 162 88 340 163 0 343 +17 162 0 261 165 168 91 339 160
 0 0 +15 261 476 0 162 240 344 17 168 0 261 162 165 85 343 166 0 339 +17 339 0 3
01 81 93 85 162 160 0 0 -17 343 0 288 78 87 88 168 166 0 0 -15 288 319 0 341 281
 0 17 78 0 288 341 343 76 90 182 0 174 +17 87 0 288 343 341 85 81 178 0 168 -17
 341 0 288 87 78 79 174 172 0 171 -15 344 477 0 345 240 0 17 345 0 344 346 347 9
8 144 141 0 0 -17 346 0 344 347 345 94 105 139 0 0 -17 347 0 344 345 346 82 57 1
45 0 0 -17 144 0 275 97 348 82 345 141 0 347 +15 275 501 0 101 267 0 17 97 0 275
 101 144 95 84 155 0 56 +17 348 0 275 144 101 98 159 157 0 345 -17 101 0 275 348
 97 99 151 149 0 159 -17 159 0 268 60 105 99 348 157 0 148 +15 268 497 0 60 260
 0 17 60 0 268 58 159 46 148 135 0 153 -17 105 0 268 159 58 98 346 139 0 348 +17
 148 0 241 151 153 99 60 135 0 0 +15 241 404 0 153 216 215 17 151 0 241 153 148
 95 101 149 0 0 +17 153 0 241 148 151 46 56 142 0 0 +17 56 0 55 84 53 95 153 142
 0 151 -15 55 505 0 56 274 0 17 84 0 55 57 56 82 97 155 0 144 -17 57 0 55 53 84
 94 347 145 0 58 +17 58 0 268 105 60 94 53 59 0 346 -83 3 298 .792156862745098 .
819607843137255 .933333333333333 83 3 291 .792156862745098 .819607843137255 .933
333333333333 83 3 284 .792156862745098 .819607843137255 .933333333333333 83 3 27
8 .792156862745098 .819607843137255 .933333333333333 83 3 271 .792156862745098 .
819607843137255 .933333333333333 81 1 255 717 252 216 0 238 237 257 349 83 3 264
 .792156862745098 .819607843137255 .933333333333333 81 1 237 716 252 235 0 232 2
47 255 350 83 3 349 .792156862745098 .819607843137255 .933333333333333 83 3 350
 .792156862745098 .819607843137255 .933333333333333 82 1 256 -92471167 81 1 253
 714 252 212 0 222 221 247 351 83 3 254 .792156862745098 .819607843137255 .93333
3333333333 81 1 222 799 220 212 253 0 218 225 352 81 1 221 713 252 217 0 218 353
 253 354 83 3 351 .792156862745098 .819607843137255 .933333333333333 81 1 353 71
2 252 214 0 225 231 221 355 83 3 354 .792156862745098 .819607843137255 .93333333
3333333 81 1 225 800 220 214 353 0 222 228 356 81 1 231 711 252 34 0 228 0 353 3
57 83 3 355 .792156862745098 .819607843137255 .933333333333333 83 3 357 .7921568
62745098 .819607843137255 .933333333333333 82 1 356 -78315395 82 1 352 -83296131
 79 14 251 SWEntUnchanged82 1 239 -1674313620 15 234 597 0 116 34 0 17 116 0 234
 126 118 106 52 117 0 0 +17 126 0 234 118 116 102 108 129 0 0 +17 118 0 234 116
 126 30 48 124 0 0 +16 117 613 0 ?116 122 124 131 0 0 12 82 1 233 -1675493245 15
 204 104 0 201 214 213 82 1 223 -78708611 19 35 47 0 12 0 28 24 S0 74 4 CI16 ind
ex_map_offset0 0 1 dCCZ20 33 5 0 0 321 358 32 326 21 0 0 0 0 0 0 0 0 0 0 0 0 0 0
 0 81 2 358 690 359 12 0 32 0 0 360 0 81 3 32 710 361 12 358 21 0 0 362 363 364
 80 3 361 365 366 9000 0 1 0 0 1 1 1 1 0 FFTFFFFFFFFFFF1 1 1 82 1 362 170969 82
 1 363 110 82 6 364 588629 171060 694886 588496 702470 702479 79 13 366 TempAxis
Faces80 2 359 367 368 8004 0 0 0 0 3 5 0 0 0 FFTFFFFFFFFFFF2 3 83 1 360 1 79 16
 368 SDL/TYSA_DENSITY80 1 31 369 370 8017 0 0 0 0 0 0 0 0 0 TTTTTTTTTTTTTF3 79 1
3 370 SDL/TYSA_NAME81 1 10 297 31 7 371 0 0 0 0 70 11 0 4 T7 0 0 5 20 1 372 372
 13 13 133 0 7 0 373 0 0 374 0 50 14 153 0 373 375 0 376 +-.0835632331264054 .11
7475 0 0 -1 0 0 0 -1 137 255 15 227 0 7 377 0 378 +14 379 0 ?29 16 160 0 19 380
 0 -.0761920345298406 .117475 -.0111125 19 17 139 0 7 374 0 381 V0 16 18 141 0 1
81891157016818e-20 382 0 383 0 0 0 7 18 19 151 0 384 0 385 16 181891157016818e-2
0 7 17 384 0 386 387 388 19 389 390 0 382 +18 385 152 0 391 19 392 380 181891157
016818e-20 7 17 391 0 393 394 395 385 382 18 396 397 -18 392 73 0 398 385 399 40
0 181891157016818e-20 7 29 380 161 0 385 400 16 -.0797532331264054 .117475 -.011
1125 29 400 125 0 392 401 380 -.0797532331264054 .117475 .0111125 29 401 130 0 3
99 402 400 -.0761920345298406 .117475 .0111125 18 399 77 0 387 392 403 401 18189
1157016818e-20 7 29 402 18 0 403 404 401 -.08929624 .047625 .003175 18 403 15 0
 405 399 406 402 181891157016818e-20 7 29 404 13 0 406 407 402 -.085746482085719
1 .047625 .003175 18 406 10 0 408 403 409 404 181891157016818e-20 7 29 407 8 0 4
09 410 404 -.0857464820857191 .047625 -.003175 18 409 5 0 411 406 412 407 181891
157016818e-20 7 29 410 4 0 412 0 407 -.08929624 .047625 -.003175 18 412 2 0 413
 409 0 410 181891157016818e-20 7 17 413 0 414 415 397 412 416 417 0 418 -15 414
 50 0 415 419 0 17 415 0 414 420 413 403 421 422 423 424 +17 397 0 414 413 420 3
85 394 425 426 416 +17 416 0 427 382 418 385 413 417 0 0 +16 417 66 0 ?416 428 3
90 429 0 0 7 17 418 0 427 416 389 412 411 430 431 421 +15 427 44 0 416 432 0 17
 389 0 427 418 382 409 384 390 0 0 -17 411 0 433 408 421 409 418 430 434 388 -16
 430 6 0 181891157016818e-20 418 435 436 0 0 0 7 133 431 124 0 418 0 437 0 +437
 -.0857464820857191 .047625 -.003175 -.08929624 .047625 -.003175 0 1 17 421 0 43
3 411 405 412 415 422 438 0 -15 433 22 0 421 439 0 17 405 0 433 421 408 403 440
 441 442 415 -16 422 20 0 181891157016818e-20 415 441 0 0 0 0 7 133 438 195 0 42
1 443 444 0 +444 -.08929624 .047625 .003175 -.08929624 .047625 -.003175 0 1 137
 443 189 0 7 442 438 445 +446 447 0 ?137 444 196 0 7 438 396 448 +446 449 0 ?133
 396 205 0 391 444 450 0 +450 -.0761920345298406 .117475 -.0111125 -.07975323312
64054 .117475 -.0111125 0 1 141 448 438 448 448 444 50 446 25 0 439 0 451 452 +-
.08929624 .047625 0 0 -1 0 0 0 -1 134 255 449 0 0 0 0 0 0 +453 454 136 255 453 2
 17 2 9 5 FFF1 455 456 457 135 255 454 2 0 45 255 34 455 -.003175 0 -.003175 .00
0631260766137143 -.002933317515723335 .001215019897759156 -.00269194650064037 .0
01798026707645545 -.00224506403026729 .002245064030267295 -.001798959242589915 .
002691323400713275 -.00121501989775916 .00293331751572333 -.000632096747451909 .
00317489050292864 0 .003175 .000630996747504788 .00317510930652019 .001215019897
75916 .00293331751572333 .001798026707638475 .002691946500642705 .00224506403026
729 .002245064030267295 .002691323400705065 .00179895924260285 .0029333175157233
35 .001215019897759156 .003175 .000631832527611512 .003175 0 127 255 9 456 3 2 2
 2 2 2 2 2 3 128 255 9 457 0 .125 .25 .375 .5 .625 .75 .875 1 14 439 23 458 ?459
 373 433 13 446 +0 0 459 373 381 124 255 451 84 0 459 446 460 461 +462 463 141 4
52 464 465 466 446 137 464 171 0 7 434 467 468 +446 469 0 ?141 465 444 470 452 4
46 141 466 471 452 470 446 137 471 180 0 7 467 442 472 +446 473 0 ?141 470 443 4
66 465 446 133 467 179 0 408 464 471 0 +471 -.0857464820857191 .047625 -.003175
 -.0857464820857191 .047625 .003175 0 1 133 442 188 0 405 471 443 0 +443 -.08574
64820857191 .047625 .003175 -.08929624 .047625 .003175 0 1 141 472 467 472 472 4
71 134 473 0 0 0 0 0 0 +474 475 136 474 2 9 2 5 5 FFF1 476 477 478 135 475 2 0 4
5 18 476 .003175 .003549757914280915 .002520341710879925 .004135302088883395 .00
169936520254434 .004448995859559935 .000879150695534039 .00476239847078604 -8673
61737988404e-33 .0047625 -.00087805069553386 .00476260140217985 -.00169936520254
434 .004448995859559935 -.00251991781293416 .004135681234732295 -.003175 .003549
757914280915 127 5 477 3 2 2 2 3 128 5 478 0 .25 .5 .75 1 17 408 0 433 405 411 4
06 388 436 467 440 -17 388 0 386 384 479 409 408 436 480 389 +16 436 11 0 181891
157016818e-20 388 430 441 0 0 0 7 17 440 0 481 482 424 406 405 441 483 479 +15 4
81 47 0 482 484 0 17 482 0 481 398 440 399 479 435 0 485 -17 424 0 481 440 398 4
03 420 428 0 0 -16 441 16 0 181891157016818e-20 440 436 422 0 0 0 7 133 483 110
 0 440 486 487 0 +487 -.08929624 .047625 .003175 -.0857464820857191 .047625 .003
175 0 1 17 479 0 386 388 387 406 482 435 0 0 +15 386 41 0 388 459 0 17 387 0 386
 479 384 399 395 383 488 482 +16 435 72 0 ?479 390 430 489 0 0 7 16 390 69 0 ?38
4 417 435 490 0 0 7 133 489 108 0 435 487 491 0 +491 -.0761920345298406 .117475
 .0111125 -.0857464820857191 .047625 .003175 -.0354729258532054 .035472925853205
4 137 487 109 0 7 483 489 492 +493 494 0 ?30 491 107 0 7 489 480 495 +-.08096925
83077798 .08255 .00714375 -.134672392057775 -.984553688763288 -.1118811009958282
 133 480 104 0 388 491 496 0 +496 -.0857464820857191 .047625 .003175 -.085746482
0857191 .047625 -.003175 0 1 141 495 489 495 495 491 137 496 103 0 7 480 497 498
 +451 499 0 ?133 497 100 0 382 496 500 0 +500 -.0797532331264054 .117475 -.01111
25 -.0761920345298406 .117475 -.0111125 0 1 141 498 480 498 498 496 134 499 0 0
 0 0 0 0 +501 502 136 501 1 2 2 2 5 FFF1 503 504 505 135 502 2 0 45 4 503 0 0 1
 0 127 2 504 2 2 128 2 505 0 1 17 382 0 427 389 416 19 391 18 497 395 +137 500 9
9 0 7 497 426 506 +460 507 0 ?133 426 96 0 397 500 508 0 +508 -.0797532331264054
 .117475 .0111125 -.0797532331264054 .117475 -.0111125 0 1 141 506 497 506 506 5
00 50 460 83 0 432 451 493 509 +0 .0002509561448240695 .00220841407445181 0 -.11
29096880442862 -.993605254789719 0 .993605254789719 -.1129096880442862 134 507 0
 0 0 0 0 0 +510 511 136 510 1 2 2 2 5 FFF1 512 513 514 135 511 2 0 45 4 512 .117
9784862148144 -.0797532331264054 .1179784862148144 -.0761920345298406 127 2 513
 2 2 128 2 514 0 1 14 432 42 515 ?484 459 427 13 460 +0 0 484 459 381 50 493 82
 0 484 460 375 516 +0 .0002509561448240695 -.00220841407445181 0 -.1129096880442
862 .993605254789719 0 -.993605254789719 -.1129096880442862 141 509 437 517 517
 460 137 437 123 0 7 431 490 518 +460 519 0 ?141 517 500 509 509 460 133 490 122
 0 390 437 520 0 +520 -.0857464820857191 .047625 -.003175 -.0761920345298406 .11
7475 -.0111125 -.0354729258532054 .0354729258532054 141 518 431 518 518 437 134
 519 0 0 0 0 0 0 +521 522 136 521 1 2 2 2 5 FFF1 523 524 525 135 522 2 0 45 4 52
3 .047678938518901 -.0857464820857191 .047678938518901 -.08929624 127 2 524 2 2
 128 2 525 0 1 30 520 121 0 7 490 429 526 +-.0809692583077798 .08255 -.00714375
 .134672392057775 .984553688763288 -.1118811009958282 133 429 120 0 417 520 527
 0 +527 -.08929624 .047625 -.003175 -.0797532331264054 .117475 -.0111125 0 .0709
443118681087 141 526 490 526 526 520 30 527 119 0 7 429 423 528 +-.08929624 .047
625 -.003175 .134514052251797 .98457505839026 -.1118835293625296 133 423 116 0 4
15 527 529 0 +529 -.08929624 .047625 -.003175 -.08929624 .047625 .003175 0 1 141
 528 429 528 528 527 137 529 115 0 7 423 530 531 +375 532 0 ?133 530 114 0 428 5
29 486 0 +486 -.08929624 .047625 .003175 -.0797532331264055 .117475 .0111125 -.0
3547215593405435 .03547215593405435 141 531 423 531 531 529 124 375 81 0 419 493
 14 533 +534 535 134 532 0 0 0 0 0 0 +536 537 136 536 1 2 2 2 5 FFF1 538 539 540
 135 537 2 0 45 4 538 0 0 1 0 127 2 539 2 2 128 2 540 0 1 14 419 48 541 ?0 484 4
14 13 375 +0 0 0 484 381 141 533 529 542 542 375 126 255 534 FF3 1 26 2 6 5 13 2
 FFF9 3 543 544 545 546 547 125 255 535 0 1 0 1 0 1 0 1 2 BBBBBBBB????0 0 0 0 45
 156 543 -.08929624 .047625 -.003175 -.0797532331264054 .117475 -.0111125 -.0890
316566666667 .047625 -.003175 -.078877247766045 .117475 -.01081216216216216 -.08
873236 .047625 -.00314282666666667 -.0779596022046025 .117475 -.0103819021603716
4 -.08808212 .047625 -.002953173333333335 -.0761503080521726 .117475 -.009177859
98036174 -.0877299066666667 .047625 -.002794 -.075259254791946 .117475 -.0084015
5146291025 -.0872219066666667 .047625 -.002413 -.0740806804384316 .117475 -.0069
6200707397473 -.0870566406380184 .047625 -.00226243823106274 -.0737147162001867
 .117475 -.00643709209986744 -.0867515927866392 .047625 -.001912904234690685 -.0
730624656134692 .117475 -.0053069126606205 -.0866119551095733 .047625 -.00171384
0830449825 -.0727763218091429 .117475 -.00470164932213463 -.0863775837139562 .04
7625 -.00127439446366782 -.0723072458033714 .117475 -.003430118292204045 -.08628
30585404339 .047625 -.00103403550295858 -.0721244523114684 .117475 -.00276392925
8447895 -.0861548060749507 .047625 -.000529041420118344 -.0718786526632659 .1174
75 -.001398424427094644 -.08612124 .047625 -.0002645833333333335 -.0718157331264
055 .117475 -.000699255952380947 -.08612124 .047625 .000264583333333333 -.071815
7331264054 .117475 .000699255952380957 -.0861548060749507 .047625 .0005290414201
18343 -.0718786526632659 .117475 .001398424427094652 -.086283058540434 .047625 .
00103403550295858 -.0721244523114684 .117475 .0027639292584479 -.086377583713956
2 .047625 .00127439446366782 -.0723072458033714 .117475 .003430118292204055 -.08
66119551095732 .047625 .001713840830449825 -.0727763218091428 .117475 .004701649
32213464 -.0867515927866391 .047625 .001912904234690685 -.0730624656134691 .1174
75 .00530691266062051 -.0870566406380184 .047625 .00226243823106274 -.0737147162
001867 .117475 .00643709209986744 -.0872219066666667 .047625 .002413 -.074080680
4384315 .117475 .00696200707397474 -.0877299066666667 .047625 .002794 -.07525925
47919461 .117475 .00840155146291026 -.08808212 .047625 .002953173333333335 -.076
1503080521726 .117475 .00917785998036175 -.08873236 .047625 .00314282666666667 -
.0779596022046025 .117475 .01038190216037164 -.0890316566666667 .047625 .003175
 -.078877247766045 .117475 .01081216216216216 -.08929624 .047625 .003175 -.07975
32331264054 .117475 .0111125 127 13 544 4 2 2 2 2 2 2 2 2 2 2 2 4 127 2 545 2 2
 128 13 546 0 .125 .25 .3125 .375 .4375 .5 .5625 .625 .6875 .75 .875 1 128 2 547
 0 1 141 542 508 533 533 375 137 508 95 0 7 426 548 549 +375 550 0 ?133 548 92 0
 398 508 551 0 +551 -.0761920345298406 .117475 .0111125 -.0797532331264054 .1174
75 .0111125 0 1 141 549 426 549 549 508 134 550 0 0 0 0 0 0 +552 553 136 552 1 2
 2 2 5 FFF1 554 555 556 135 553 2 0 45 4 554 1 1 0 1 127 2 555 2 2 128 2 556 0 1
 17 398 0 481 424 482 392 485 557 548 420 +137 551 91 0 7 548 488 558 +493 559 0
 ?133 488 88 0 387 551 560 0 +560 -.0761920345298406 .117475 -.0111125 -.0761920
345298406 .117475 .0111125 0 1 141 558 548 558 558 551 134 559 0 0 0 0 0 0 +561
 562 136 561 1 2 2 2 5 FFF1 563 564 565 135 562 2 0 45 4 563 -.1179784862148144
 -.0761920345298406 -.1179784862148144 -.0797532331264054 127 2 564 2 2 128 2 56
5 0 1 137 560 87 0 7 488 434 566 +451 567 0 ?133 434 170 0 411 560 464 0 +464 -.
08929624 .047625 -.003175 -.0857464820857191 .047625 -.003175 0 1 141 566 488 56
6 566 560 134 567 0 0 0 0 0 0 +568 569 136 568 1 2 2 2 5 FFF1 570 571 572 135 56
9 2 0 45 4 570 1 1 0 1 127 2 571 2 2 128 2 572 0 1 17 485 0 393 395 394 399 398
 557 573 0 -16 557 145 0 181891157016818e-20 398 383 425 0 0 0 7 17 420 0 414 39
7 415 392 424 428 0 394 +16 428 55 0 ?420 425 417 530 0 0 7 17 394 0 393 485 391
 392 397 425 377 0 -15 393 138 0 394 373 0 16 425 147 0 181891157016818e-20 397
 557 428 0 0 0 7 133 377 226 0 394 574 15 0 +15 -.0797532331264054 .117475 -.011
1125 -.0797532331264054 .117475 .0111125 0 1 137 574 222 0 7 573 377 575 +14 576
 0 ?133 573 221 0 485 577 574 0 +574 -.0797532331264054 .117475 .0111125 -.07619
20345298406 .117475 .0111125 0 1 141 575 573 575 575 574 134 576 0 0 0 0 0 0 +57
8 579 136 578 1 2 2 2 5 FFF1 580 581 582 135 579 2 0 45 4 580 -.0111125 .00381 -
.0111125 .00737119859656488 127 2 581 2 2 128 2 582 0 1 137 577 215 0 7 583 573
 584 +14 585 0 ?133 583 214 0 395 450 577 0 +577 -.0761920345298406 .117475 .011
1125 -.0761920345298406 .117475 -.0111125 0 1 141 584 583 584 584 577 134 585 0
 0 0 0 0 0 +586 587 136 586 2 17 2 9 5 FFF1 588 589 590 135 587 2 0 45 34 588 -.
0111125 .00737119859656488 -.01020035768983512 .00874630486848526 -.008980132036
87929 .00985796396829559 -.00776051316723911 .01096907027183186 -.00630584220048
39 .01174983315381952 -.00485214045230051 .01253007582889942 -.00325101521788323
 .012932637977346 -.001650956781770335 .01333493190653766 0 .013335 .00164985678
1671845 .013335068048093 .003251015217883235 .01293263797734598 .004851106833793
82 .0125304760378216 .0063058422004839 .01174983315381952 .00775960830573045 .01
09697103967532 .00898013203687929 .00985796396829559 .01020004900892244 .0087467
7022247041 .0111125 .00737119859656488 127 9 589 3 2 2 2 2 2 2 2 3 128 9 590 0 .
125 .25 .375 .5 .625 .75 .875 1 17 395 0 393 391 485 19 387 383 583 0 -137 450 2
06 0 7 396 583 591 +14 592 0 ?141 591 396 591 591 450 134 592 0 0 0 0 0 0 +593 5
94 136 593 1 2 2 2 5 FFF1 595 596 597 135 594 2 0 45 4 595 .0111125 .00737119859
656488 .0111125 .00381 127 2 596 2 2 128 2 597 0 1 16 383 143 0 181891157016818e
-20 387 18 557 0 0 0 7 14 373 136 598 ?439 0 393 13 14 -0 0 439 0 381 81 1 598 2
95 220 373 599 0 515 541 600 13 381 140 0 0 0 0 0 0 17 373 81 1 599 262 252 373
 0 598 0 601 602 81 1 515 294 220 432 603 0 604 598 605 81 1 541 296 220 419 606
 0 598 0 607 82 1 600 771883152 81 1 606 267 252 419 0 541 608 0 609 82 1 607 76
0545424 81 1 608 266 252 484 0 610 603 606 611 83 3 609 .792156862745098 .819607
843137255 .933333333333333 14 484 45 610 ?419 432 481 13 493 +0 0 419 432 381 81
 1 610 292 220 484 608 0 458 604 612 81 1 603 265 252 432 0 515 613 608 614 83 3
 611 .792156862745098 .819607843137255 .933333333333333 81 1 613 264 252 459 0 6
04 601 603 615 83 3 614 .792156862745098 .819607843137255 .933333333333333 14 45
9 39 604 ?432 439 386 13 451 +0 0 432 439 381 81 1 604 293 220 459 613 0 610 515
 616 81 1 601 263 252 439 0 458 599 613 617 83 3 615 .792156862745098 .819607843
137255 .933333333333333 81 1 458 291 220 439 601 0 0 610 618 83 3 617 .792156862
745098 .819607843137255 .933333333333333 82 1 618 769458320 82 1 616 760873104 8
2 1 612 760414352 82 1 605 760610960 83 3 602 .792156862745098 .819607843137255
 .933333333333333 30 486 113 0 7 530 483 619 +-.0845247365632027 .08255 .0071437
5 .134514052251797 .98457505839026 .1118835293625296 141 619 530 619 619 486 141
 516 487 620 620 493 141 620 551 516 516 493 141 492 483 492 492 487 134 494 0 0
 0 0 0 0 +621 622 136 621 1 2 2 2 5 FFF1 623 624 625 135 622 2 0 45 4 623 -.0476
78938518901 -.08929624 -.047678938518901 -.0857464820857191 127 2 624 2 2 128 2
 625 0 1 141 468 434 468 468 464 134 469 0 0 0 0 0 0 +626 627 136 626 1 2 2 2 5
 FFF1 628 629 630 135 627 2 0 45 4 628 .003175 0 .003175 .003549757914280915 127
 2 629 2 2 128 2 630 0 1 141 461 496 631 631 451 126 462 FF3 1 18 2 6 5 9 2 FFF9
 3 632 633 634 635 636 125 463 0 1 0 1 0 1 0 1 2 BBBBBBBB????0 0 0 0 45 108 632
 -.0857464820857191 .047625 .003175 -.0761920345298406 .117475 .0111125 -.085570
0931968302 .047625 .002977791226984395 -.0754203331409517 .117475 .0106006112085
7188 -.0854046057407984 .047625 .002758779588254555 -.0746577564933924 .117475 .
00997839340162191 -.0851079256249252 .047625 .00228339654460443 -.07323554195300
09 .117475 .00849791997876269 -.0849767329650837 .047625 .00202702513968414 -.07
25766385798861 .117475 .00763904068639852 -.084761134372067 .047625 .00148316852
889113 -.0714625982306743 .117475 .00571269091219484 -.0846773359549231 .047625
 .001195987081034108 -.0710086802954942 .117475 .00464523798361919 -.08456363876
88896 .047625 .000605995577303429 -.0703909940374061 .117475 .00238477464152053
 -.08453374 .047625 .0003031855214297725 -.0702282331264054 .117475 .00119276028
0687022 -.08453374 .047625 -.0003031855214297695 -.0702282331264055 .117475 -.00
1192760280687026 -.0845636387688896 .047625 -.000605995577303425 -.0703909940374
062 .117475 -.002384774641520535 -.0846773359549231 .047625 -.001195987081034104
 -.0710086802954942 .117475 -.0046452379836192 -.0847611343720669 .047625 -.0014
83168528891128 -.0714625982306742 .117475 -.00571269091219484 -.0849767329650836
 .047625 -.00202702513968414 -.0725766385798861 .117475 -.00763904068639853 -.08
51079256249251 .047625 -.002283396544604425 -.0732355419530009 .117475 -.0084979
1997876269 -.0854046057407984 .047625 -.002758779588254555 -.0746577564933924 .1
17475 -.00997839340162191 -.0855700931968302 .047625 -.002977791226984395 -.0754
203331409517 .117475 -.0106006112085719 -.0857464820857191 .047625 -.003175 -.07
61920345298406 .117475 -.0111125 127 9 633 4 2 2 2 2 2 2 2 4 127 2 634 2 2 128 9
 635 0 .125 .25 .375 .5 .625 .75 .875 1 128 2 636 0 1 141 631 560 461 461 451 14
1 445 442 445 445 443 134 447 0 0 0 0 0 0 +637 638 136 637 1 2 2 2 5 FFF1 639 64
0 641 135 638 2 0 45 4 639 -.003175 .003549757914280915 -.003175 0 127 2 640 2 2
 128 2 641 0 1 19 374 1 0 7 0 17 13 S0 141 378 377 378 378 15 134 379 0 0 0 0 0
 0 +642 643 136 642 2 33 2 17 5 FFF1 644 645 646 135 643 2 0 45 66 644 .0111125
 .00381 .0108166026309589 .0046730339930366 .01039074814935606 .0054805208827860
3 .0099652777829369 .00628727942990114 .00941965782661483 .00701953008964945 .00
887469511636782 .00775089869061948 .00822253150950557 .00839009724765978 .007571
15348967564 .00902852583518291 .00682809568071508 .00955933395300113 .0060859329
4863275 .0100895026669031 .00526981150146014 .01049918296769222 .004454673142576
175 .01090836977341736 .003585071870766285 .01118709148668412 .00271651810829065
5 .01146547745573594 .00181430413797939 .01160655231948364 .000913176961896376 .
01174745724643948 -1734723475976805e-33 .0117475 -.000912076961730801 .011747542
7020602 -.001814304137979395 .01160655231948364 -.0027154445041145 .011465731771
9306 -.00358507187076629 .01118709148668412 -.004453651696624455 .01090878684757
382 -.00526981150146014 .01049918296769222 -.00608498817172532 .0100900724908576
 -.00682809568071509 .00955933395300113 -.00757030805290816 .00902923473528193 -
.00822253150950557 .00839009724765978 -.00887396930698034 .0077517296559877 -.00
941965782661484 .00701953008964945 -.00996468901759103 .00628821252053349 -.0103
9074814935606 .00548052088278601 -.01081642317599204 .00467355740335654 -.011112
5 .00381 127 17 645 3 2 2 2 2 2 2 2 2 2 2 2 2 2 2 2 3 128 17 646 0 .0625 .125 .1
875 .25 .3125 .375 .4375 .5 .5625 .625 .6875 .75 .8125 .875 .9375 1 141 376 450
 647 648 14 141 647 15 649 376 14 141 648 577 376 649 14 141 649 574 648 647 14
 74 20 372 5 0 0 541 650 371 606 10 0 0 0 0 0 0 0 0 0 0 0 0 0 0 0 81 2 650 254 3
59 7 0 371 0 0 651 0 81 3 371 261 361 7 650 10 0 0 652 653 0 82 1 652 1256891 82
 1 653 117 83 1 651 1 74 20 6 1 0 0 2 0 0 0 0 0 0 0 0 0 0 0 0 0 0 0 0 0 0 0 80 2
 5 654 655 9000 0 0 0 0 3 5 0 0 0 TFFFFFFFFFFFFF9 1 79 18 655 MULTI_BODY_ID_2001
1 0 
