**ABCDEFGHIJKLMNOPQRSTUVWXYZabcdefghijklmnopqrstuvwxyz**************************
**PARASOLID !"#$%&'()*+,-./:;<=>?@[\]^_`{|}~0123456789**************************
**PART1;
MC=AMD64;
MC_MODEL=Intel64 Family 6 Model 142 Stepping 12, GenuineIntel;
MC_ID=unknown;
OS=Windows_NT;
OS_RELEASE=unknown;
FRU=Parasolid Version 33.1, build 247,  8- 6-2021;
APPL=SOLIDWORKS 2022-2022009;
SITE=;
USER=unknown;
FORMAT=text;
GUISE=transmit;
KEY=FILESupport - 2003091.x_t;
DATE=Thu Jun 15 06:28:04 2023;
**PART2;
SCH=SCH_3301247_33103;
USFLD_SIZE=0;
**PART3;
**END_OF_HEADER*****************************************************************
T51 : TRANSMIT FILE created by modeller version 330124723 SCH_3301247_33103_1300
6230 0 12 35 CCCI7 lattice222 0 CCCI4 mesh1006 0 I8 polyline1008 0 CCCCCCCDI5 ow
ner1040 0 CCCCCCI13 boundary_mesh1006 0 I17 boundary_polyline1008 0 CCCA16 index
_map_offset0 0 1 dA9 index_map82 0 A17 node_id_index_map82 0 A20 schema_embeddin
g_map82 0 A5 child12 0 A14 lowest_node_id0 0 1 dA16 mesh_offset_data206 0 Z1 102
8 2 3 0 0 0 0 0 0 0 1e3 1e-8 0 4 0 1 0 1 1 5 6 7 8 0 0 9 10 11 0 0 0 0 0 0 0 81
 255 2 2 1009 12 1 13 0 0 0 0 14 70 11 CI9 list_type0 0 1 uI10 notransmit0 0 1 l
CCCDCCDI12 finger_index0 0 1 dI12 finger_block1012 0 CZ3 0 4 T1 0 0 9 20 1 15 15
 13 255 5 183 0 1 0 16 0 0 17 0 51 255 6 629 0 18 19 0 0 +-.041275 -.019685 .002
54 1 546369598732853e-31 0 .00254 -546369598732853e-31 1 0 31 255 7 605 0 10 20
 0 0 --.041275 -.019685 .00254 1 0 0 0 0 -1 .00254 29 255 8 596 0 11 21 0 -.0412
75 -.019685 0 19 8 CCCCCCCA5 owner12 0 Z9 61 0 1 17 0 22 V0 16 255 10 603 0 ?23
 0 24 7 0 0 1 18 255 11 594 0 25 0 26 8 ?1 17 255 25 0 27 28 29 11 30 24 0 31 +1
8 26 585 0 32 11 33 21 ?1 17 32 0 34 35 36 26 37 38 0 29 +18 33 576 0 23 26 39 4
0 ?1 29 21 587 0 26 40 8 .022225 -.019685 0 29 40 578 0 33 41 21 -.041275 -.0222
25 .00254 29 41 575 0 39 42 40 .022225 -.022225 .00254 18 39 573 0 37 33 43 41 ?
1 29 42 396 0 43 44 41 .022225 -.01905 .003175 18 43 394 0 45 39 46 42 ?1 29 44
 137 0 47 48 42 -.041275 .055287109679961 0 18 47 120 0 49 50 51 44 ?1 29 48 138
 0 51 52 44 -.04015406103286385 .0573937339428535 0 18 51 121 0 53 47 54 48 ?1 2
9 52 139 0 54 55 48 -.02776315901731725 .0509234821413682 0 18 54 122 0 56 51 57
 52 ?1 29 55 140 0 57 58 52 -.02993548831653625 .0483707376272137 0 18 57 123 0
 59 54 60 55 ?1 29 58 141 0 60 61 55 -.02619465832944085 .0420696583294403 0 18
 60 124 0 62 57 63 58 ?1 29 61 142 0 63 64 58 .022225 -.00635 0 18 63 125 0 35 6
0 65 61 ?1 29 64 54 0 46 66 61 -.041275 .055287109679961 .003175 18 46 52 0 67 4
3 68 64 ?1 29 66 51 0 68 69 64 -.04015406103286385 .0573937339428535 .003175 18
 68 49 0 70 46 71 66 ?1 29 69 48 0 71 72 66 -.02776315901731725 .050923482141368
2 .003175 18 71 46 0 73 68 74 69 ?1 29 72 45 0 74 75 69 -.02993548831653625 .048
3707376272137 .003175 18 74 43 0 76 71 77 72 ?1 29 75 42 0 77 78 72 -.0261946583
2944085 .0420696583294403 .003175 18 77 40 0 79 74 50 75 ?1 29 78 39 0 50 80 75
 .022225 -.00635 .003175 18 50 37 0 81 77 47 78 ?1 29 80 534 0 82 83 78 .022225
 -.022225 .028575 18 82 456 0 84 85 86 80 ?1 29 83 535 0 86 87 80 -.041275 -.022
225 .028575 18 86 455 0 88 82 0 83 ?1 29 87 536 0 65 89 83 -.041275 -.01905 .003
175 18 65 454 0 90 63 91 87 ?1 29 89 538 0 91 92 87 .022225 -.01905 .028575 18 9
1 452 0 93 65 85 89 ?1 29 92 539 0 85 0 89 -.041275 -.01905 .028575 18 85 457 0
 94 91 82 92 ?1 17 94 0 95 96 97 85 93 98 0 99 -15 255 95 479 0 100 101 0 17 96
 0 95 100 94 86 102 103 0 0 +17 97 0 95 94 100 91 104 105 0 106 -17 93 0 107 108
 99 91 94 98 0 97 +16 98 409 0 ?93 109 110 111 0 0 1 17 99 0 107 93 112 85 113 1
10 0 102 +15 107 463 0 99 114 115 17 112 0 107 99 108 65 45 116 0 113 +17 113 0
 117 118 102 65 99 110 0 0 -16 110 406 0 ?99 98 119 120 0 0 1 17 102 0 117 113 8
8 85 96 103 0 0 -15 117 153 0 31 121 0 17 88 0 117 102 23 86 122 123 0 124 -16 1
03 434 0 ?96 125 105 126 0 0 1 16 125 293 0 ?127 128 103 129 0 0 1 16 105 438 0
 ?104 103 116 130 0 0 1 30 255 126 514 0 103 130 131 0 +-.041275 -.01905 .028575
 0 -1 0 30 130 515 0 105 132 126 0 +.022225 -.01905 .028575 0 -1 0 31 131 316 0
 128 126 129 0 +-.03175 .03175 .003175 0 0 1 1 0 0 .003175 16 128 296 0 ?133 134
 125 131 0 0 1 31 129 315 0 125 131 135 0 +-.03175 .03175 0 0 0 1 1 0 0 .003175
 31 135 278 0 136 129 137 0 +-.03175 0 .003175 0 0 1 1 0 0 .003175 16 136 258 0
 ?138 139 134 135 0 0 1 31 137 277 0 134 135 140 0 +-.03175 0 0 0 0 1 1 0 0 .003
175 16 134 255 0 ?141 136 128 137 0 0 1 31 140 240 0 142 137 143 0 +0 0 .003175
 0 0 1 1 0 0 .003175 16 142 220 0 ?144 145 139 140 0 0 1 31 143 239 0 139 140 14
6 0 +0 0 0 0 0 1 1 0 0 .003175 16 139 217 0 ?147 142 136 143 0 0 1 30 146 7 0 14
8 143 149 0 +.022225 -.022225 .003175 0 1 0 16 148 395 0 ?81 150 151 146 0 0 1 3
0 149 11 0 150 146 152 0 +.022225 -.00635 .003175 -.707106781186552 .70710678118
6544 0 16 150 9 0 ?79 153 148 149 0 0 1 31 152 15 0 153 149 154 0 +-.0293624 .04
445 .003175 0 0 -1 1 0 0 .0039624 16 153 13 0 ?76 155 150 152 0 0 1 31 154 19 0
 155 152 156 0 +-.03030285262200825 .0508840309779918 .003175 0 0 1 1 0 0 .00254
 16 155 17 0 ?73 157 153 154 0 0 1 31 156 23 0 157 154 158 0 +-.0357124 .0508 .0
03175 0 0 1 1 0 0 .0079502 16 157 21 0 ?70 159 155 156 0 0 1 31 158 27 0 159 156
 160 0 +-.038735 .055287109679961 .003175 0 0 1 -1 0 0 .00254 16 159 25 0 ?67 16
1 157 158 0 0 1 30 160 31 0 161 158 162 0 +-.041275 .055287109679961 .003175 0 -
1 0 16 161 29 0 ?90 163 159 160 0 0 1 30 162 134 0 145 160 164 0 +.022225 -.0222
25 0 0 1 0 16 145 586 0 ?35 165 142 162 0 0 1 30 164 133 0 165 162 166 0 +.02222
5 -.00635 0 -.707106781186552 .707106781186544 0 16 165 110 0 ?62 167 145 164 0
 0 1 31 166 132 0 167 164 168 0 +-.0293624 .04445 0 0 0 -1 1 0 0 .0039624 16 167
 106 0 ?59 169 165 166 0 0 1 31 168 131 0 169 166 170 0 +-.03030285262200825 .05
08840309779918 0 0 0 1 1 0 0 .00254 16 169 102 0 ?56 171 167 168 0 0 1 31 170 13
0 0 171 168 172 0 +-.0357124 .0508 0 0 0 1 1 0 0 .0079502 16 171 98 0 ?53 173 16
9 170 0 0 1 31 172 129 0 173 170 174 0 +-.038735 .055287109679961 0 0 0 1 -1 0 0
 .00254 16 173 94 0 ?49 151 171 172 0 0 1 30 174 128 0 151 172 175 0 +-.041275 .
055287109679961 0 0 -1 0 16 151 90 0 ?31 148 173 174 0 0 1 30 175 175 0 163 174
 176 0 +.022225 -.022225 .003175 0 0 -1 16 163 143 0 ?36 123 161 175 0 0 1 30 17
6 176 0 123 175 177 0 +-.041275 -.022225 .003175 0 0 -1 16 123 144 0 ?122 178 16
3 176 0 0 1 30 177 177 0 178 176 179 0 +-.041275 .055287109679961 .003175 0 0 -1
 16 178 145 0 ?180 181 123 177 0 0 1 30 179 178 0 181 177 182 0 +-.0401540610328
6385 .0573937339428535 .003175 0 0 -1 16 181 146 0 ?183 184 178 179 0 0 1 30 182
 179 0 184 179 185 0 +-.02776315901731725 .0509234821413682 .003175 0 0 -1 16 18
4 147 0 ?186 187 181 182 0 0 1 30 185 180 0 187 182 188 0 +-.02993548831653625 .
0483707376272137 .003175 0 0 -1 16 187 148 0 ?189 190 184 185 0 0 1 30 188 181 0
 190 185 191 0 +-.02619465832944085 .0420696583294403 .003175 0 0 -1 16 190 149
 0 ?192 193 187 188 0 0 1 30 191 182 0 193 188 194 0 +.022225 -.00635 .003175 0
 0 -1 16 193 150 0 ?195 196 190 191 0 0 1 30 194 581 0 196 191 197 0 +-.041275 -
.022225 .00254 1 546369598732853e-31 0 16 196 579 0 ?198 38 193 194 0 0 1 31 197
 590 0 38 194 20 0 -.022225 -.019685 .00254 -1 0 0 0 0 1 .00254 16 38 588 0 ?32
 24 196 197 0 0 1 30 20 599 0 24 197 7 0 --.0293624 -.019685 0 1 546369598732853
e-31 0 16 24 597 0 ?25 10 38 20 0 0 1 17 198 0 199 84 122 39 200 196 0 36 +15 19
9 151 0 122 201 202 17 84 0 199 124 198 82 36 163 0 100 -17 122 0 199 198 124 33
 88 123 0 200 +17 200 0 203 204 37 33 198 196 0 0 -17 36 0 34 32 104 39 84 163 0
 0 +15 34 165 0 36 205 0 17 104 0 34 36 106 82 97 105 0 0 +17 106 0 34 104 206 9
1 108 109 0 0 -17 206 0 34 106 207 43 81 148 0 108 -17 108 0 107 112 93 43 106 1
09 0 0 +16 109 412 0 ?108 116 98 208 0 0 1 16 116 415 0 ?112 105 109 209 0 0 1 3
0 208 523 0 109 111 209 0 +.022225 -.01905 .003175 -1365923996832132e-31 0 -1 30
 111 524 0 98 120 208 0 +-.041275 -.01905 .028575 1 0 -546369598732853e-31 30 20
9 522 0 116 208 132 0 +-.041275 -.01905 .003175 -1 0 0 30 132 520 0 119 209 130
 0 +-.041275 -.022225 .028575 1 0 -546369598732853e-31 16 119 431 0 ?100 110 210
 132 0 0 1 17 100 0 95 97 96 82 124 119 0 104 +16 210 443 0 ?211 119 212 213 0 0
 1 17 211 0 214 211 211 0 215 210 0 0 +16 212 418 0 ?216 210 217 218 0 0 1 31 21
3 527 0 210 219 218 0 +-.009525 -.01905 .015875 0 1 0 0 0 1 .003175 31 219 528 0
 220 221 213 0 +-.03175 -.022225 .01905 0 1 0 0 0 1 .003175 31 218 526 0 212 213
 120 0 +-.009525 -.022225 .015875 0 1 0 0 0 1 .003175 30 120 525 0 110 218 111 0
 +-.041275 -.01905 .003175 -2731847993664265e-31 0 1 16 220 421 0 ?222 217 223 2
19 0 0 1 31 221 529 0 217 224 219 0 +-.03175 -.01905 .01905 0 1 0 0 0 1 .003175
 16 217 446 0 ?225 212 220 221 0 0 1 31 224 530 0 226 227 221 0 +.0127 -.022225
 .01905 0 1 0 0 0 1 .003175 16 226 424 0 ?228 223 0 224 0 0 1 31 227 531 0 223 0
 224 0 +.0127 -.01905 .01905 0 1 0 0 0 1 .003175 16 223 449 0 ?229 220 226 227 0
 0 1 17 229 0 230 229 229 0 231 223 0 0 +15 230 501 0 229 232 233 17 231 0 234 2
31 231 0 229 223 0 0 -15 234 465 0 231 114 0 14 255 114 460 235 ?101 236 237 5 2
38 +0 0 101 236 22 81 1 235 1010 239 114 240 0 0 241 242 14 101 476 241 ?243 114
 95 5 244 -0 0 243 114 22 14 236 299 245 ?114 246 247 5 248 +0 0 114 246 22 15 2
37 462 0 249 114 107 50 255 238 510 0 114 250 244 0 +0 -.01905 0 0 1 0 0 0 1 13
 22 62 0 0 0 0 0 0 9 16 14 16 290 251 ?252 0 253 5 254 +0 0 252 0 22 81 1 251 10
13 239 16 255 0 245 256 257 14 252 284 256 ?205 16 27 5 258 -0 0 205 16 22 15 25
3 401 0 45 16 259 50 254 3 0 16 260 258 0 +-.0293624 .04445 .003175 0 0 1 1 0 0
 51 260 236 0 261 262 254 0 -0 0 .003175 0 0 -1 .003175 -1 0 0 50 258 126 0 252
 254 263 0 +-.0293624 .04445 0 0 0 1 1 0 0 50 263 167 0 201 258 264 0 +-.041275
 -.022225 .003175 -546369598732853e-31 1 0 -1 -546369598732853e-31 0 14 201 152
 265 ?261 121 199 5 263 -0 0 261 121 22 50 264 168 0 121 263 266 0 +-.041275 .05
5287109679961 .003175 1 0 0 0 0 -1 14 121 154 267 ?201 268 117 5 264 -0 0 201 26
8 22 51 266 169 0 268 264 269 0 --.038735 .055287109679961 .003175 0 0 -1 .00254
 -1 0 0 14 268 156 270 ?121 271 272 5 266 -0 0 121 271 22 51 269 170 0 271 266 2
73 0 --.0357124 .0508 .003175 0 0 -1 .0079502 -1 0 0 14 271 158 274 ?268 275 276
 5 269 -0 0 268 275 22 51 273 171 0 275 269 277 0 --.03030285262200825 .05088403
09779918 .003175 0 0 -1 .00254 -1 0 0 14 275 160 278 ?271 279 280 5 273 -0 0 271
 279 22 51 277 172 0 279 273 281 0 +-.0293624 .04445 .003175 0 0 -1 .0039624 -1
 0 0 14 279 162 282 ?275 283 284 5 277 -0 0 275 283 22 50 281 173 0 283 277 19 0
 +.022225 -.00635 .003175 -.707106781186544 -.707106781186551 0 .707106781186552
 -.707106781186544 0 14 283 164 285 ?279 205 286 5 281 -0 0 279 205 22 50 19 174
 0 205 281 6 0 +.022225 -.022225 .003175 -1 0 0 0 0 1 14 205 166 287 ?283 252 34
 5 19 -0 0 283 252 22 81 1 287 1022 239 205 288 0 285 289 290 80 255 1 239 291 2
92 9000 1 1 1 1 1 1 1 1 0 FFFFTFTFFFFFFF1 81 1 288 950 293 205 0 287 294 295 296
 81 1 285 1021 239 283 295 0 282 287 297 81 1 289 1023 239 261 298 0 287 299 300
 82 255 1 290 29294723 14 261 223 289 ?246 201 301 5 260 +0 0 246 201 22 81 1 29
8 958 293 261 0 289 302 303 304 81 1 299 1024 239 246 303 0 289 305 306 82 1 300
 763887734 14 246 261 299 ?236 261 307 5 262 +0 0 236 261 22 81 1 303 959 293 24
6 0 299 298 308 309 81 1 305 1025 239 243 310 0 299 311 312 82 1 306 768016502 1
4 243 488 305 ?313 101 214 5 250 +0 0 313 101 22 81 1 310 963 293 243 0 305 314
 315 316 81 1 311 1026 239 313 315 0 305 317 318 82 1 312 502792321 14 313 493 3
11 ?232 243 319 5 320 +0 0 232 243 22 81 1 315 964 293 313 0 311 310 321 322 81
 1 317 1027 239 232 321 0 311 323 324 82 1 318 506855553 14 232 498 317 ?18 313
 230 5 325 +0 0 18 313 22 81 1 321 965 293 232 0 317 315 326 327 81 1 323 1028 2
39 18 326 0 317 0 328 82 1 324 510918785 14 18 617 323 ?0 232 203 5 6 +0 0 0 232
 22 81 1 326 966 293 18 0 323 321 0 329 82 1 328 1019478147 80 1 293 0 330 8001
 0 0 0 0 3 5 0 0 0 FFFFTFTFFFFFFF2 83 255 3 329 .63921568627451 .666666666666667
 .67843137254902 79 255 15 330 SDL/TYSA_COLOUR15 203 618 0 204 18 0 17 204 0 203
 30 200 11 23 10 0 0 -17 30 0 203 37 204 26 25 24 0 0 -17 23 0 117 88 31 33 204
 10 0 122 +17 31 0 117 23 180 11 28 151 0 204 +17 180 0 117 31 118 47 331 178 0
 28 +17 28 0 27 332 25 47 31 151 0 0 -15 27 85 0 29 252 333 17 332 0 27 334 28 5
1 49 173 0 0 -17 334 0 27 335 332 54 53 171 0 0 -17 49 0 272 331 183 47 332 173
 0 180 +15 272 155 0 49 268 0 17 331 0 272 336 49 46 180 178 0 118 -17 183 0 272
 49 336 51 337 181 0 332 +17 336 0 272 183 331 68 67 159 0 0 -17 337 0 276 338 5
3 68 183 181 0 336 -15 276 157 0 53 271 0 17 338 0 276 186 337 71 70 157 0 0 -17
 53 0 276 337 186 51 334 171 0 183 +17 186 0 276 53 338 54 339 184 0 334 +17 339
 0 280 340 56 71 186 184 0 338 -15 280 159 0 56 275 0 17 340 0 280 189 339 74 73
 155 0 0 -17 56 0 280 339 189 54 335 169 0 186 +17 189 0 280 56 340 57 341 187 0
 335 +17 335 0 27 342 334 57 56 169 0 0 -17 342 0 27 343 335 60 59 167 0 0 -17 3
43 0 27 29 342 63 62 165 0 195 -17 59 0 284 341 192 57 342 167 0 189 +15 284 161
 0 59 279 0 17 341 0 284 344 59 74 189 187 0 340 -17 192 0 284 59 344 60 345 190
 0 342 +17 344 0 284 192 341 77 76 153 0 0 -17 345 0 286 346 62 77 192 190 0 344
 -15 286 163 0 62 283 0 17 346 0 286 195 345 50 79 150 0 207 -17 62 0 286 345 19
5 60 343 165 0 192 +17 195 0 286 62 346 63 207 193 0 0 +17 207 0 34 206 35 50 19
5 193 0 0 -17 35 0 34 207 32 63 29 145 0 343 +17 29 0 27 25 343 26 35 145 0 30 -
17 79 0 253 76 81 77 346 150 0 345 +17 76 0 253 73 79 74 344 153 0 341 +17 81 0
 253 79 45 50 206 148 0 346 +17 45 0 253 81 90 43 112 116 0 206 -17 90 0 253 45
 67 65 118 161 0 112 +17 67 0 253 90 70 46 336 159 0 331 +17 118 0 117 180 113 4
6 90 161 0 0 -17 70 0 253 67 73 68 338 157 0 337 +17 73 0 253 70 76 71 340 155 0
 339 +15 333 206 0 147 252 347 17 147 0 333 147 147 0 348 139 0 0 +15 347 244 0
 141 252 349 17 141 0 347 141 141 0 350 134 0 0 +15 349 282 0 127 252 0 17 127 0
 349 127 127 0 351 125 0 0 +17 351 0 352 351 351 0 127 125 0 0 -15 352 303 0 351
 236 0 17 350 0 353 350 350 0 141 134 0 0 -15 353 265 0 350 246 0 17 348 0 354 3
48 348 0 147 139 0 0 -15 354 227 0 348 261 0 17 37 0 203 200 30 39 32 38 0 198 -
83 3 327 .63921568627451 .666666666666667 .67843137254902 51 325 513 0 232 0 320
 0 -.0127 -.01905 .01905 0 -1 0 .003175 0 0 -1 51 320 512 0 313 325 250 0 --.031
75 -.01905 .01905 0 -1 0 .003175 0 0 -1 51 250 511 0 243 320 238 0 --.009525 -.0
1905 .015875 0 -1 0 .003175 0 0 -1 83 3 322 .63921568627451 .666666666666667 .67
843137254902 15 319 496 0 225 313 355 17 225 0 319 225 225 0 249 217 0 0 +15 355
 497 0 356 313 0 17 356 0 355 356 356 0 222 220 0 0 -17 222 0 357 222 222 0 356
 220 0 0 +15 357 470 0 222 201 358 15 358 471 0 228 201 0 17 228 0 358 228 228 0
 359 226 0 0 +17 359 0 233 359 359 0 228 226 0 0 -15 233 502 0 359 232 0 17 249
 0 237 249 249 0 225 217 0 0 -81 1 314 962 293 101 0 241 240 310 360 83 3 316 .6
3921568627451 .666666666666667 .67843137254902 81 1 241 1011 239 101 314 0 235 2
45 361 81 1 240 961 293 114 0 235 308 314 362 83 3 360 .63921568627451 .66666666
6666667 .67843137254902 81 1 308 960 293 236 0 245 303 240 363 83 3 362 .6392156
8627451 .666666666666667 .67843137254902 81 1 245 1012 239 236 308 0 241 251 364
 83 3 363 .63921568627451 .666666666666667 .67843137254902 82 1 364 772079734 82
 1 361 497680513 15 214 491 0 211 243 365 15 365 492 0 366 243 0 17 366 0 365 36
6 366 0 216 212 0 0 -17 216 0 202 216 216 0 366 212 0 0 +15 202 469 0 216 201 35
7 83 3 309 .63921568627451 .666666666666667 .67843137254902 15 307 264 0 138 246
 353 51 262 274 0 246 248 260 0 --.03175 0 .003175 0 0 -1 .003175 -1 0 0 51 248
 312 0 236 244 262 0 --.03175 .03175 .003175 0 0 -1 .003175 -1 0 0 50 244 506 0
 101 238 248 0 +-.041275 -.01905 .028575 -546369598732853e-31 0 -1 -1 0 54636959
8732853e-31 17 138 0 307 138 138 0 367 136 0 0 +17 367 0 259 367 367 0 138 136 0
 0 -15 259 249 0 367 16 368 15 368 211 0 369 16 370 17 369 0 368 369 369 0 144 1
42 0 0 -15 370 287 0 371 16 0 17 371 0 370 371 371 0 133 128 0 0 -17 133 0 247 1
33 133 0 371 128 0 0 +15 247 302 0 133 236 352 17 144 0 301 144 144 0 369 142 0
 0 +15 301 226 0 144 261 354 81 1 302 957 293 201 0 265 372 298 373 83 3 304 .63
921568627451 .666666666666667 .67843137254902 81 1 265 1015 239 201 302 0 256 26
7 374 81 1 372 956 293 121 0 267 375 302 376 83 3 373 .63921568627451 .666666666
666667 .67843137254902 81 1 267 1016 239 121 372 0 265 270 377 81 1 375 955 293
 268 0 270 378 372 379 83 3 376 .63921568627451 .666666666666667 .67843137254902
 81 1 270 1017 239 268 375 0 267 274 380 81 1 378 954 293 271 0 274 381 375 382
 83 3 379 .63921568627451 .666666666666667 .67843137254902 81 1 274 1018 239 271
 378 0 270 278 383 81 1 381 953 293 275 0 278 384 378 385 83 3 382 .639215686274
51 .666666666666667 .67843137254902 81 1 278 1019 239 275 381 0 274 282 386 81 1
 384 952 293 279 0 282 295 381 387 83 3 385 .63921568627451 .666666666666667 .67
843137254902 81 1 282 1020 239 279 384 0 278 285 388 81 1 295 951 293 283 0 285
 288 384 389 83 3 387 .63921568627451 .666666666666667 .67843137254902 83 3 389
 .63921568627451 .666666666666667 .67843137254902 82 1 388 790888566 82 1 386 79
0626422 82 1 383 790364278 82 1 380 790102134 82 1 377 28508291 81 1 256 1014 23
9 252 294 0 251 265 390 82 1 374 28377219 81 1 294 949 293 252 0 256 255 288 391
 82 1 390 27918467 81 1 255 948 293 16 0 251 0 294 392 83 3 391 .63921568627451
 .666666666666667 .67843137254902 83 3 392 .63921568627451 .666666666666667 .678
43137254902 82 1 297 791150710 83 3 296 .63921568627451 .666666666666667 .678431
37254902 79 14 292 SWEntUnchanged82 1 257 27787393 82 1 242 515768449 17 215 0 1
15 215 215 0 211 210 0 0 -15 115 464 0 215 114 234 17 124 0 199 122 84 86 100 11
9 0 96 -19 17 184 0 1 0 9 5 S0 74 4 CI16 index_map_offset0 0 1 dCCZ20 15 9 0 0 3
23 393 394 395 396 397 13 326 2 0 0 0 0 0 0 0 0 0 0 0 81 2 393 550 398 1 0 394 0
 0 0 399 81 2 394 560 400 1 393 395 0 0 0 401 81 1 395 642 402 1 394 396 0 0 403
 81 2 396 663 404 1 395 397 0 0 405 0 81 2 397 737 406 1 396 13 0 0 0 407 81 2 1
3 945 408 1 397 2 0 0 0 0 80 2 408 409 410 9000 0 0 0 0 3 5 0 0 0 FFTFFFFFFFFFFF
9 1 79 16 410 BODY_RECIPE_200180 2 406 411 412 9000 0 0 0 0 3 5 0 0 0 FFTFFFFFFF
FFFF9 1 82 1 407 1 79 24 412 BODY_IN_LIGHTWEIGHT_PERM80 2 404 413 414 8004 0 0 0
 0 3 5 0 0 0 FFTFFFFFFFFFFF2 3 83 1 405 1 79 16 414 SDL/TYSA_DENSITY80 1 402 415
 416 9000 1 1 1 1 1 1 1 1 0 FFTFFFFFFFFFFF1 82 1 403 276 79 10 416 BODY_MATCH80
 2 400 417 418 9000 0 0 0 0 3 5 0 0 0 FFTFFFFFFFFFFF9 1 82 1 401 105 79 30 418 L
AST_BODY_MODIFYING_FEATURE_ID80 2 398 419 420 9000 0 0 0 0 3 5 0 0 0 FFTFFFFFFFF
FFT9 1 82 1 399 107 79 19 420 ENT_TIME_STAMP_200180 2 12 421 422 9000 0 0 0 0 3
 5 0 0 0 FFTFFFFFFFFFFF9 1 82 1 14 102 79 12 422 ATOM_ID_20011 0 
