**ABCDEFGHIJKLMNOPQRSTUVWXYZabcdefghijklmnopqrstuvwxyz**************************
**PARASOLID !"#$%&'()*+,-./:;<=>?@[\]^_`{|}~0123456789**************************
**PART1;
MC=AMD64;
MC_MODEL=Intel64 Family 6 Model 142 Stepping 12, GenuineIntel;
MC_ID=unknown;
OS=Windows_NT;
OS_RELEASE=unknown;
FRU=Parasolid Version 33.1, build 247,  8- 6-2021;
APPL=SOLIDWORKS 2022-2022009;
SITE=;
USER=unknown;
FORMAT=text;
GUISE=transmit;
KEY=FILETransition pipe.x_t;
DATE=Thu Jun 15 06:27:40 2023;
**PART2;
SCH=SCH_3301247_33103;
USFLD_SIZE=0;
**PART3;
**END_OF_HEADER*****************************************************************
T51 : TRANSMIT FILE created by modeller version 330124723 SCH_3301247_33103_1300
6230 0 12 35 CCCI7 lattice222 0 CCCI4 mesh1006 0 I8 polyline1008 0 CCCCCCCDI5 ow
ner1040 0 CCCCCCI13 boundary_mesh1006 0 I17 boundary_polyline1008 0 CCCA16 index
_map_offset0 0 1 dA9 index_map82 0 A17 node_id_index_map82 0 A20 schema_embeddin
g_map82 0 A5 child12 0 A14 lowest_node_id0 0 1 dA16 mesh_offset_data206 0 Z1 101
7 2 3 0 0 0 0 0 0 0 1e3 1e-8 0 4 0 1 0 1 1 5 6 7 8 0 0 9 10 11 0 0 0 0 0 0 0 81
 255 2 2 993 12 1 13 0 0 0 0 14 70 11 CI9 list_type0 0 1 uI10 notransmit0 0 1 lC
CCDCCDI12 finger_index0 0 1 dI12 finger_block1012 0 CZ3 0 4 T1 0 0 9 20 1 15 15
 13 255 5 75 0 1 0 16 0 0 17 0 54 255 6 692 0 18 19 0 0 +.00476249999999975 .076
2 0 -1 -333066907387547e-29 0 .0428625 .0015875 333066907387547e-29 -1 0 31 255
 7 660 0 10 20 0 0 +.00476249999999975 .0762 0 -1 -333066907387547e-29 0 3330669
07387547e-29 -1 0 .04445 29 255 8 332 0 11 21 0 -2537969834293105e-31 .0762 -.01
27 19 8 CCCCCCCA5 owner12 0 Z9 76 0 1 17 0 22 V0 16 255 10 657 0 ?23 0 24 7 0 0
 1 18 255 11 330 0 25 0 26 8 ?1 17 255 25 0 27 28 29 11 30 31 0 32 +18 26 110 0
 33 11 34 21 ?1 17 33 0 35 36 37 26 38 39 0 40 +18 34 107 0 36 26 41 42 ?1 29 21
 112 0 26 42 8 .0760677083333124 .00635 .01269931096221114 29 42 109 0 34 43 21
 .0760677083333333 .00635 -.01269931096221092 29 43 103 0 41 44 42 .0762 0 .0127
 18 41 102 0 37 34 45 43 ?1 29 44 280 0 45 46 43 .0762 0 -.0127 18 45 180 0 47 4
1 48 44 ?1 29 46 503 0 48 49 44 .00634999999999973 .0760677083333333 .0126993109
6221092 18 48 403 0 50 45 51 46 ?1 29 49 504 0 51 52 46 .00634999999999973 .0760
677083333125 -.0126993109622107 18 51 406 0 53 48 54 49 ?1 29 52 505 0 54 0 49 -
270716782324598e-30 .0762 .0127 18 54 405 0 28 51 0 52 ?1 17 28 0 27 50 25 54 55
 56 0 57 -15 255 27 411 0 28 58 0 17 50 0 27 29 28 48 57 59 0 60 +17 55 0 61 62
 62 11 28 56 0 0 +16 56 6 0 ?55 63 64 65 64 64 1 17 57 0 66 32 67 54 50 59 0 62
 -15 66 343 0 57 68 0 17 32 0 66 30 57 11 62 64 0 55 -17 67 0 66 57 30 48 53 69
 0 0 -16 59 342 0 ?50 70 31 71 31 31 1 17 62 0 61 55 55 54 32 64 0 0 +15 61 41 0
 55 72 73 16 64 331 0 ?62 56 74 65 56 56 1 16 74 126 0 ?75 64 76 77 0 0 1 31 65
 16 0 56 78 79 0 -466590430475142e-32 .0762 0 -1 612323399573677e-31 0 0 0 1 .01
27 31 78 266 0 80 81 65 0 +.0762 0 0 0 -1 0 0 0 -1 .04445 31 79 17 0 82 65 83 0
 -.0762 0 0 0 1 0 0 0 1 .0127 16 82 9 0 ?84 85 63 79 63 63 1 38 12 CCCCCCCCCCCA1
7 intersection_data204 0 Z83 113 0 85 79 86 0 +87 88 89 90 90 91 16 85 111 0 ?40
 92 82 83 0 0 1 38 86 115 0 92 83 93 0 -94 87 95 96 97 98 54 87 15 0 68 99 100 1
01 +0 0 0 0 0 -1 .0762 .0127 -1 0 0 50 255 88 262 0 102 103 94 104 +0 .00635 0 0
 -1 0 0 0 -1 40 255 20 89 0 1 20 .000723393488135706 .338381404573637 ??.0646644
643740904 .00635 -.00594142863930729 .063326777021728 .00635 -.00190935422441154
5 .0633999445726207 .00635 .0023384841929164 .0648730583669086 .00635 .006318058
22023314 .0675821353461664 .00635 .00959501459317563 .0712356957085311 .00635 .0
1180552202185074 .0754308529119567 .00635 .01269006133913328 .0796899066237016 .
00635 .01213604855330892 .0835214042692436 .00635 .0102029113716202 .08648684568
09855 .00635 .00711526888118596 .0882543185834344 .00635 .00322970048429062 .088
6324185057199 .00635 -.001012217916282374 .0875855765915367 .00635 -.00513526969
39628 .0852334251077041 .00635 -.00868123181246429 .0818363500558995 .00635 -.01
125557929793462 .0777691602888199 .00635 -.01256775674180686 .0734846512152146 .
00635 -.01246310885972854 .0694680308404063 .00635 -.01094468516832058 .06618229
66430123 .00635 -.00818124002584839 .0646644643740904 .00635 -.00594142863930727
 41 3 CI8 term_use0 0 1 cCZ1 90 H?.0646644643740904 .00635 -.00594142863930727 2
04 2 17 INTERSECTION_DATA17 Intersection data7 uv_type0 0 1 u6 values0 1 1 fT80
 91 4 3.04370726708849 2.654759832134575 .00594142863930729 .0646644643740904 3.
0416531784572 2.99067759594574 .001909354224411545 .063326777021728 3.0417677498
09225 -2.956403339801935 -.0023384841929164 .0633999445726207 3.044020012475555
 -2.62089563956932 -.00631805822023314 .0648730583669086 3.04790796187514 -2.285
15590183432 -.00959501459317563 .0675821353461664 3.052686937128295 -1.948351588
002705 -.01180552202185074 .0712356957085311 3.05760761497495 -1.61036080108296
 -.01269006133913328 .0754308529119567 3.062076797387015 -1.27167020938904 -.012
13604855330892 .0796899066237016 3.065710221967435 -.932947964005754 -.010202911
3716202 .0835214042692436 3.06830259031312 -.594696507969183 -.00711526888118596
 .0864868456809855 3.06976527905328 -.2571312067303685 -.00322970048429062 .0882
543185834344 3.070070643693675 .0797868241786212 .001012217916282374 .0886324185
057199 3.069218761506665 .4162701549947695 .0051352696939628 .0875855765915367 3
.067228746151105 .75263112060046 .00868123181246429 .0852334251077041 3.06415393
8547855 1.089220389189622 .01125557929793462 .0818363500558995 3.06012148594046
 1.42635965152086 .01256775674180686 .0777691602888199 3.05539417689379 1.764244
63502472 .01246310885972854 .0734846512152146 3.05043702342784 2.10281218669127
 .01094468516832058 .0694680308404063 3.04593835422174 2.441626070755925 .008181
24002584839 .0661822966430123 3.04370726708849 2.654759832134575 .00594142863930
727 .0646644643740904 14 255 102 186 105 ?106 107 108 5 88 -107 107 106 107 22 5
1 255 103 481 0 109 110 88 0 -.00634999999999973 .0762 -.03175 -1 -3330669073875
47e-29 0 .003175 333066907387547e-29 -1 0 51 94 260 0 111 88 112 113 -.0762 .006
35 0 0 -1 0 .0127 0 0 -1 141 255 104 83 114 115 88 141 114 116 115 104 88 141 11
5 117 104 114 88 56 255 117 604 0 118 119 120 121 +R88 122 123 -.003175 -.003175
 1 1 0 0 0 0 14 118 595 124 ?125 109 126 5 117 -0 0 125 109 22 59 255 119 583 0
 1 127 117 128 +1 129 50 120 603 0 1 117 130 131 +0 .009525 0 0 -1 0 0 0 -1 141
 121 132 133 133 117 54 122 65 0 16 134 132 135 -0 0 0 0 0 -1 .0762 .01905 -1 0
 0 38 123 605 0 1 136 137 138 +120 130 139 140 140 141 38 136 582 0 142 143 123
 0 +119 144 145 146 146 147 38 137 621 0 1 123 148 149 +150 151 152 153 153 154
 141 138 117 138 138 123 54 130 602 0 1 120 129 155 -0 0 0 0 0 -1 .0762 .022225
 -1 0 0 40 20 139 0 1 20 .00128929762168554 .3420919794183005 ??.055242638111673
6 .009525 -.00939369978231772 .0532370795068586 .009525 -.00218287866873148 .053
7503365990342 .009525 .00518285742856652 .0566562266955621 .009525 .011934716298
08052 .0616548544083702 .009525 .01741067176412235 .0682598692439729 .009525 .02
0999287417331 .0757454141747997 .009525 .02222454667881975 .0832222977048229 .00
9525 .0208976615172509 .0898023858274865 .009525 .0171746379441635 .094735503195
5136 .009525 .0115087488317085 .0967375767376862 .009525 .00726119584748952 .097
9629278421138 .009525 -668121979407621e-19 .0966933224660013 .009525 -.007387369
57630256 .0930744325855784 .009525 -.01387667445295102 .0875041211032849 .009525
 -.01882058795784405 .0805850525468729 .009525 -.02166766083273205 .073069014436
9745 .009525 -.02208249454282355 .0657920181873205 .009525 -.0199857948373819 .0
595992598372431 .009525 -.0155854206601278 .0552426381116736 .009525 -.009393699
78231772 41 1 140 H?.0552426381116736 .009525 -.00939369978231772 204 80 141 4 .
00939369978231772 .0552426381116736 2.97085028340856 2.7052102516068 .0021828786
6873148 .0532370795068586 2.964549262807005 3.04321679025914 -.00518285742856652
 .0537503365990342 2.96620521727463 -2.90622611452919 -.01193471629808052 .05665
62266955621 2.975031025791615 -2.574721646698505 -.01741067176412235 .0616548544
083702 2.988315352634055 -2.24150353004998 -.020999287417331 .0682598692439729 3
.002947641447255 -1.90445689089714 -.02222454667881975 .0757454141747997 3.01649
908166854 -1.56440931296417 -.0208976615172509 .0832222977048229 3.0276360145033
35 -1.223443803411604 -.0171746379441635 .0898023858274865 3.03592151572592 -.88
3181564696668 -.0115087488317085 .0947355031955136 3.041386319531745 -.544311215
094521 -.00726119584748952 .0967375767376862 3.0434467510417 -.3328235955133375
 668121979407621e-19 .0979629278421138 3.04466666834365 .00300617766354706 .0073
8736957630256 .0966933224660013 3.04340212005796 .338836617229935 .0138766744529
5102 .0930744325855784 3.039610234742245 .674327696906571 .01882058795784405 .08
75041211032849 3.03316752721891 1.009978868712794 .02166766083273205 .0805850525
468729 3.02394042661555 1.346374202802674 .02208249454282355 .0730690144369745 3
.01196737258924 1.684099530557865 .0199857948373819 .0657920181873205 2.99781719
2762225 2.023544457257885 .0155854206601278 .0595992598372431 2.9831154181296 2.
36443450321184 .00939369978231772 .0552426381116736 2.97085028340856 2.705210251
6068 56 129 620 0 125 130 150 156 +R144 122 137 -.003175 -.003175 1 1 0 0 0 0 14
1 155 123 155 155 130 14 125 611 157 ?158 118 159 5 129 -0 0 158 118 22 50 150 6
19 0 1 129 151 160 +.009525 3172462292866385e-32 0 -1 -333066907387547e-29 0 0 0
 -1 141 156 161 162 162 129 50 144 488 0 163 0 164 165 +.00635 2114974861910925e
-32 0 -1 -333066907387547e-29 0 0 0 -1 14 163 412 166 ?167 168 169 5 144 -168 16
8 167 168 22 51 164 486 0 58 144 170 171 +.00634999999999973 .0762 0 -1 -3330669
07387547e-29 0 .0127 333066907387547e-29 -1 0 141 165 93 172 173 144 38 93 339 0
 69 86 71 0 +87 144 174 175 175 176 141 172 136 173 165 144 141 173 129 165 172
 144 16 69 337 0 ?53 31 39 93 0 0 1 38 71 341 0 31 93 116 0 -164 87 177 178 179
 180 40 20 174 0 1 20 .00072329198218203 .338922629878767 ??.00634999999999979 .
0646644643740905 -.00594142863930729 .00634999999999978 .0672775213623663 -.0093
2339861952763 .00634999999999976 .070861421453345 -.01165078138546906 .006349999
99999975 .0750251615203652 -.01266760008144156 .00634999999999974 .0792994626256
394 -.012249301629644 .00634999999999972 .0831912286648312 -.01043889154642692 .
00634999999999971 .0862543927593568 -.00744652858491308 .00634999999999971 .0881
452435288824 -.003618236272181565 .00634999999999971 .0886582167792866 .00061024
6586784342 .00634999999999971 .0877428588976246 .00476467420999993 .006349999999
99972 .0855045968177735 .00838314849122977 .00634999999999973 .0821915092979667
 .01106330924843356 .00634999999999974 .0781690340134155 .01250330239046944 .006
34999999999975 .073884423338722 .0125345650381717 .00634999999999977 .0698220235
916681 .0111446895167219 .00634999999999978 .0664494786649215 .00848699038573824
 .00634999999999979 .064157072139448 .00486930279530287 .00634999999999979 .0632
018752336372 .000713738854676112 .00634999999999979 .063677975607571 -.003506964
99132535 .00634999999999979 .0646644643740905 -.00594142863930729 41 1 175 H?.00
634999999999979 .0646644643740905 -.00594142863930729 204 80 176 4 1.66868171329
6195 2.654759832134575 .00594142863930729 -.0646644643740904 1.66490270250848 2.
31721421500567 .00932339861952763 -.0672775213623662 1.660169133441725 1.9801346
78929975 .01165078138546906 -.0708614214533449 1.65523335674268 1.64224225287793
 .01266760008144156 -.0750251615203652 1.650702032117035 1.30358865323977 .01224
9301629644 -.0792994626256394 1.646978764685035 .964843801439547 .01043889154642
692 -.0831912286648311 1.64428319514867 .6265342863874 .00744652858491308 -.0862
543927593568 1.642712277933875 .2889026183294995 .003618236272181565 -.088145243
5288824 1.642297595679305 -.048069422296784 -.000610246586784342 -.0886582167792
866 1.64304093735107 -.38458145567336 -.00476467420999993 -.0877428588976246 1.6
44925258813765 -.720939140616984 -.00838314849122977 -.0855045968177735 1.647901
74753435 -1.057492129537574 -.01106330924843356 -.0821915092979667 1.65185255637
5875 -1.394568369915 -.01250330239046944 -.0781690340134155 1.65653069105659 -1.
73238069902421 -.0125345650381717 -.073884423338722 1.661492340917075 -2.0708963
4208703 -.0111446895167219 -.0698220235916681 1.666068344298755 -2.4097159120782
7 -.00848699038573824 -.0664494786649214 1.669450855346975 -2.74810737101072 -.0
0486930279530287 -.064157072139448 1.670931989526765 -3.08536311773389 -.0007137
38854676112 -.0632018752336372 1.67018824570104 2.861818099323105 .0035069649913
2535 -.063677975607571 1.668681713296195 2.654759832134575 .00594142863930729 -.
0646644643740904 16 31 340 0 ?25 59 69 71 59 59 1 38 116 559 0 70 71 181 0 +132
 88 182 183 183 184 40 25 177 0 1 25 .002662207682233995 .3931500907156895 ??.00
03903844259186085 .0761995000000085 -.0126999999901575 .000719870904134169 .0761
982998224455 -.0126999998861967 .00203778317105695 .0761863761146584 -.012699992
69250768 .00365219535239317 .0761562384157086 -.01269992460307306 .0050468404986
0732 .0761164350425905 -.0126997250717444 .0106212033897862 .0758298885779291 -.
0126946058440289 .0161991781113891 .0753390637418487 -.0126707848517525 .0382939
6369660905 .0713888856443661 -.01175343263293804 .0513290721833686 .067556057574
7853 -.00930442149462129 .0555681456085096 .0660693608714944 -.00765899150332396
 .0604858246304288 .0641969324763026 -.004149261382650765 .0615849954167681 .063
7567202740049 -.00254062780836438 .0621786124040668 .0635156829380081 -.00063095
2193795685 .0620718809247333 .0635591915960163 .001224729722742764 .061483766042
8589 .0637975935472015 .002733187549287055 .0598294687637319 .0644560192501629 .
00483414068345676 .0558201474769575 .0659772675054158 .00753563138324651 .042367
8621165429 .0703107751301628 .01125197895627652 .0256654851151527 .0740388545728
474 .01251476929242794 .01524155949810365 .0754378440422105 .0126771100135641 .0
0877710385925161 .0759472521254722 .01269748473170658 .0049054745140953 .0761210
509179514 .01269975460559942 .002671018630020815 .076176593370991 .0126999784302
8556 .001423623401522916 .0761933507100081 .01269999825932834 .00039038442591836
2 .0761994999999821 .0126999999901575 41 2 178 TF-2541369892306025e-31 .0762 -.0
127 .0003903844259186085 .0761995000000085 -.0126999999901575 41 2 179 TF-254136
9892306025e-31 .0762 .0127 .000390384425918362 .0761994999999821 .01269999999015
75 204 108 180 4 4.71238898038469 .00635 1.570796326794895 1.570796326794895 4.7
1242835046277 .00595961557408112 1.57591947078522 1.57075695671547 4.71252285263
347 .00563012909586556 1.58024338126046 1.570662454546105 4.71346172746773 .0043
12216828942775 1.59753729448808 1.56972357971179 4.71583478124236 .0026978046476
0656 1.61871622761493 1.56735052593722 4.71896894577181 .00130315950139241 1.637
003634327795 1.564216361407785 4.74153573872657 -.004271203389786465 1.709957182
825495 1.54164956845302 4.78023126650098 -.00984917811138939 1.782588718434565 1
.50295404067861 5.10091845470209 -.0319439636966093 2.063148657351945 1.18226685
2477494 5.46100489532764 -.04497907218336885 2.22053979805209 .822180411851946 5
.63584090344798 -.0492181456085098 2.27007597034489 .647344403731604 5.950361160
7524 -.0541358246304291 2.32643887201688 .332824146427186 6.08177693304055 -.055
2349954167683 2.33886979056372 .2014083741390325 6.23348357188275 -.055828612404
067 2.345557411546745 .0497017352968341 .0965855117369856 -.0557218809247336 2.3
44356326571645 -.0965855117369855 .216908520461602 -.0551337660428591 2.33772754
1245425 -.216908520461602 .3904893768885435 -.0534794687637321 2.31898648377666
 -.390489376888544 .635222715800816 -.0494701474769577 2.272993447338375 -.63522
2715800817 1.08860868780496 -.03601786211654315 2.11311067709652 -1.088608687804
962 1.3997952285841 -.01931548511515295 1.90448261397324 -1.3997952285841 1.5107
4796604005 -.00889155949810394 1.770153894978845 -1.51074796604005 1.55089360540
5695 -.00242710385925188 1.68585431713918 -1.55089360540569 1.56457982360217 .00
1444525485904428 1.635150413624185 -1.56457982360216 1.568953284097235 .00367898
1369978915 1.605845476291015 -1.568953284097245 1.570272760629885 .0049263765984
7681 1.589478505203635 -1.570272760629965 1.57075695671474 .00595961557408137 1.
57591947078522 -1.57075695671755 1.570796326794895 .00635 1.570796326794895 -1.5
70796326794895 16 70 556 0 ?185 186 59 116 0 0 1 38 181 568 0 186 116 143 0 +161
 122 187 188 188 189 59 132 560 0 1 122 161 190 +1 117 40 20 182 0 1 20 .0013619
70003849176 .353468298953539 ??.0553515945715672 .00635 -.00962058285918578 .059
5992598372431 .00635 -.0155854206601278 .0657920181873205 .00635 -.0199857948373
819 .0730690144369745 .00635 -.02208249454282355 .0805850525468729 .00635 -.0216
6766083273205 .0875041211032849 .00635 -.01882058795784405 .0930744325855784 .00
635 -.01387667445295102 .0966933224660013 .00635 -.00738736957630256 .0979629278
421138 .00635 -668121979407621e-19 .0967375767376862 .00635 .00726119584748952 .
0947355031955136 .00635 .0115087488317085 .0898023858274865 .00635 .017174637944
1635 .0832222977048229 .00635 .0208976615172509 .0757454141747997 .00635 .022224
54667881975 .0682598692439729 .00635 .020999287417331 .0616548544083702 .00635 .
01741067176412235 .0566562266955621 .00635 .01193471629808052 .0537503365990342
 .00635 .00518285742856652 .0532370795068586 .00635 -.00218287866873148 .0553515
945715672 .00635 -.00962058285918578 41 1 183 H?.0553515945715672 .00635 -.00962
058285918578 204 40 184 3 .00962058285918578 .0553515945715672 .0155854206601278
 .0595992598372431 .0199857948373819 .0657920181873205 .02208249454282355 .07306
90144369745 .02166766083273205 .0805850525468729 .01882058795784405 .08750412110
32849 .01387667445295102 .0930744325855784 .00738736957630256 .0966933224660013
 668121979407621e-19 .0979629278421138 -.00726119584748952 .0967375767376862 -.0
115087488317085 .0947355031955136 -.0171746379441635 .0898023858274865 -.0208976
615172509 .0832222977048229 -.02222454667881975 .0757454141747997 -.020999287417
331 .0682598692439729 -.01741067176412235 .0616548544083702 -.01193471629808052
 .0566562266955621 -.00518285742856652 .0537503365990342 .00218287866873148 .053
2370795068586 .00962058285918578 .0553515945715672 59 161 569 0 1 132 127 191 +0
 129 141 190 116 190 190 132 59 127 576 0 1 161 119 192 +0 117 141 191 181 191 1
91 161 141 192 143 192 192 127 38 143 575 0 193 181 136 0 +127 122 194 195 195 1
96 16 193 572 0 ?197 142 186 143 0 0 1 40 21 194 0 1 21 .001101911175052996 .344
089709221763 ??.0581722570338154 .01001038457041516 -.0082462138793021 .05807825
66863909 .0100139206570762 -.00805174267055805 .0563473389889266 .01008147721176
894 -.001871038858912695 .0567904337277205 .01006373011748278 .00444244922448558
5 .0592975431186045 .00996905602696888 .01022975682692616 .0636051083994192 .009
82629288995968 .01492343294067628 .0692897161344234 .00966870510433415 .01799938
921485515 .0757252940010492 .00952246988438757 .01904961143898835 .0821485072032
319 .00940210199297871 .01791228130050075 .0877984673239305 .009312451930475 .01
472111823785442 .0920329664724189 .00925327861341116 .00986464185575014 .0937512
503112 .00923095956430238 .00622388215499102 .0948028444503463 .0092177430103447
2 -57267598234939e-18 .0937132704608344 .00923144306529858 -.00633203106540219 .
0906072404379611 .00927251384936515 -.01189429238824372 .0858253230483906 .00934
225944708371 -.0161319325352949 .0798833630522373 .00944206163580998 -.018572280
7137703 .0734249713054358 .00957140118931697 -.01892785246527735 .06716655502696
56 .00972399774711795 -.01713068128918445 .0618343824606939 .00988221153327252 -
.01335893199439524 .0581722570338154 .01001038457041516 -.0082462138793021 41 1
 195 H?.0581722570338154 .01001038457041516 -.0082462138793021 204 42 196 3 2.97
1179904596015 2.69391621281592 2.97085028340856 2.7052102516068 2.96454926280700
5 3.04321679025914 2.96620521727463 -2.90622611452919 2.975031025791615 -2.57472
1646698505 2.988315352634055 -2.24150353004998 3.002947641447255 -1.904456890897
14 3.01649908166854 -1.56440931296417 3.027636014503335 -1.223443803411604 3.035
92151572592 -.883181564696668 3.041386319531745 -.54431121509452 3.0434467510417
 -.332823595513338 3.04466666834365 .00300617766354706 3.04340212005796 .3388366
17229935 3.039610234742245 .674327696906572 3.03316752721891 1.009978868712794 3
.02394042661555 1.346374202802674 3.01196737258924 1.68409953055787 2.9978171927
62225 2.023544457257885 2.9831154181296 2.36443450321184 2.971179904596015 2.693
91621281592 17 197 0 198 197 197 0 199 193 0 0 +16 142 579 0 ?200 201 193 136 0
 0 1 16 186 565 0 ?202 193 70 181 0 0 1 17 202 0 203 202 202 0 204 186 0 0 +15 2
03 566 0 202 16 0 17 204 0 159 204 204 0 202 186 0 0 -15 159 612 0 204 125 205 1
5 205 613 0 206 125 0 17 206 0 205 206 206 0 200 142 0 0 -17 200 0 207 200 200 0
 206 142 0 0 +15 207 580 0 200 163 208 15 208 417 0 209 163 210 17 209 0 208 209
 209 0 211 212 0 0 -15 210 418 0 213 163 214 17 213 0 210 213 213 0 215 216 0 0
 -15 214 419 0 217 163 218 17 217 0 214 217 217 0 219 220 0 0 -15 218 420 0 221
 163 0 17 221 0 218 221 221 0 222 223 0 0 -17 222 0 224 222 222 0 221 223 0 0 +1
6 223 391 0 ?222 220 225 226 0 0 1 16 220 388 0 ?219 216 223 227 0 0 1 16 225 37
9 0 ?228 223 229 230 0 0 1 31 226 502 0 223 0 227 0 +.00634999999999973 .0762 -.
03175 1 333066907387547e-29 0 0 0 -1 .003175 31 227 501 0 220 226 231 0 +.006349
99999999984 .04445 0 1 333066907387547e-29 0 0 0 -1 .003175 31 231 500 0 216 227
 232 0 +.00634999999999973 .0762 .03175 1 333066907387547e-29 0 0 0 -1 .003175 1
6 216 385 0 ?215 212 220 231 0 0 1 31 232 499 0 212 231 233 0 +.0063499999999996
2 .10795 0 1 333066907387547e-29 0 0 0 -1 .003175 16 212 382 0 ?211 234 216 232
 0 0 1 31 233 497 0 234 232 235 0 -.00634999999999973 .0762 0 1 333066907387547e
-29 0 0 0 -1 .0127 16 234 362 0 ?60 236 212 233 0 0 1 31 235 496 0 237 233 238 0
 +-270716782324598e-30 .0762 -.03175 1 333066907387547e-29 0 0 0 -1 .003175 16 2
37 376 0 ?239 240 0 235 0 0 1 31 238 495 0 240 235 241 0 +-157918123022682e-30 .
04445 0 1 333066907387547e-29 0 0 0 -1 .003175 16 240 373 0 ?242 243 237 238 0 0
 1 31 241 494 0 243 238 244 0 +-270716782324598e-30 .0762 .03175 1 3330669073875
47e-29 0 0 0 -1 .003175 16 243 370 0 ?245 229 240 241 0 0 1 31 244 493 0 229 241
 230 0 +-383515441626514e-30 .10795 0 1 333066907387547e-29 0 0 0 -1 .003175 16
 229 367 0 ?246 225 243 244 0 0 1 31 230 492 0 225 244 247 0 +-270716782324598e-
30 .0762 0 1 333066907387547e-29 0 0 0 -1 .04445 31 247 276 0 248 230 249 0 +.07
62 .00635 -.03175 0 -1 0 0 0 -1 .003175 16 248 139 0 ?250 251 80 247 0 0 1 31 24
9 275 0 251 247 252 0 +.04445 .00635 0 0 -1 0 0 0 -1 .003175 16 251 136 0 ?253 2
54 248 249 0 0 1 31 252 274 0 254 249 255 0 +.0762 .00635 .03175 0 -1 0 0 0 -1 .
003175 16 254 133 0 ?256 76 251 252 0 0 1 31 255 273 0 76 252 77 0 +.10795 .0063
5 0 0 -1 0 0 0 -1 .003175 16 76 130 0 ?257 74 254 255 0 0 1 31 77 271 0 74 255 2
58 0 -.0762 .00635 0 0 -1 0 0 0 -1 .0127 31 258 270 0 236 77 259 0 +.0762 0 -.03
175 0 -1 0 0 0 -1 .003175 16 236 159 0 ?260 261 234 258 0 0 1 31 259 269 0 261 2
58 262 0 +.04445 0 0 0 -1 0 0 0 -1 .003175 16 261 156 0 ?263 264 236 259 0 0 1 3
1 262 268 0 264 259 81 0 +.0762 0 .03175 0 -1 0 0 0 -1 .003175 16 264 153 0 ?265
 266 261 262 0 0 1 31 81 267 0 266 262 78 0 +.10795 0 0 0 -1 0 0 0 -1 .003175 16
 266 150 0 ?267 80 264 81 0 0 1 17 267 0 268 267 267 0 269 266 0 0 +16 80 144 0
 ?270 248 266 78 0 0 1 17 270 0 271 270 270 0 272 80 0 0 +15 271 205 0 270 273 2
74 17 272 0 275 272 272 0 270 80 0 0 -15 275 215 0 272 106 0 14 106 211 276 ?277
 102 278 5 112 +0 0 277 102 22 81 1 276 998 279 106 280 0 166 281 282 14 277 216
 281 ?283 106 284 5 285 -0 0 283 106 22 15 278 636 0 286 106 275 51 112 259 0 10
6 94 285 0 +.0762 .00635 0 0 -1 0 .04445 0 0 -1 13 22 3 0 0 0 0 0 0 9 16 14 16 3
49 287 ?68 0 198 5 122 -0 0 68 0 22 81 1 287 1000 279 16 288 0 281 289 290 14 68
 344 289 ?72 16 35 5 87 -0 0 273 16 22 15 198 573 0 197 16 203 81 1 289 1001 279
 68 291 0 287 292 293 14 72 39 292 ?273 68 61 5 134 +0 0 111 273 22 15 35 108 0
 37 68 66 14 273 22 294 ?111 72 295 5 100 -0 0 72 68 22 81 1 294 1003 279 273 29
6 0 292 297 298 14 111 181 297 ?107 273 299 5 94 +0 0 107 72 22 15 295 24 0 300
 273 271 50 100 31 0 273 87 134 0 +.0762 0 0 0 1 0 0 0 1 50 134 48 0 72 100 122
 0 +466590430475142e-32 .0762 0 -1 612323399573677e-31 0 0 0 1 17 300 0 295 47 4
7 41 84 82 0 38 -17 47 0 295 300 300 45 37 63 0 301 -17 84 0 299 302 38 45 300 8
2 0 0 +17 38 0 299 84 75 41 33 39 0 0 -15 299 185 0 38 111 0 17 75 0 299 38 302
 26 303 74 0 0 +16 39 116 0 ?33 69 92 86 92 92 1 16 92 114 0 ?301 39 85 86 39 39
 1 17 301 0 35 37 36 45 302 92 0 84 +17 37 0 35 33 301 41 47 63 0 300 +17 36 0 3
5 301 33 34 40 85 0 302 -17 302 0 299 75 84 34 301 92 0 303 -17 303 0 304 40 40
 34 75 74 0 0 -15 304 200 0 303 107 0 17 40 0 304 303 303 26 36 85 0 75 +14 107
 196 305 ?102 111 304 5 88 -102 102 102 111 22 81 1 305 1005 279 107 306 0 297 3
07 308 80 255 1 279 309 310 9000 1 1 1 1 1 1 1 1 0 FFFFTFTFFFFFFF1 81 1 306 909
 311 107 0 305 312 313 314 81 1 297 1004 279 111 312 0 294 305 315 81 1 307 1006
 279 167 316 0 305 317 318 82 255 1 308 143458424 14 167 437 307 ?319 163 320 5
 170 -0 0 319 163 22 81 1 316 919 311 167 0 307 321 322 323 81 1 317 1007 279 15
8 324 0 307 325 326 82 1 318 1580007559 14 158 672 317 ?18 125 327 5 19 +0 0 18
 125 22 81 1 324 926 311 158 0 317 328 329 330 81 1 325 1008 279 18 329 0 317 33
1 332 82 1 326 -922484601 14 18 685 325 ?0 158 333 5 6 +0 0 0 158 22 81 1 329 92
7 311 18 0 325 324 0 334 81 1 331 1009 279 335 336 0 325 337 338 82 1 332 -92123
9417 14 335 231 331 ?58 339 340 5 99 -0 0 58 339 22 81 1 336 915 311 335 0 331 3
41 342 343 81 1 337 1010 279 58 342 0 331 344 345 82 1 338 131989624 14 58 407 3
37 ?168 335 27 5 164 -0 0 168 335 22 81 1 342 916 311 58 0 337 336 346 347 81 1
 344 1011 279 339 341 0 337 348 349 82 1 345 1594556545 14 339 226 344 ?335 283
 350 5 351 -0 0 335 283 22 81 1 341 914 311 339 0 344 352 336 353 81 1 348 1012
 279 283 352 0 344 354 355 82 1 349 131596408 14 283 221 348 ?339 277 356 5 357
 -0 0 339 277 22 81 1 352 913 311 283 0 348 358 341 359 81 1 354 1013 279 168 34
6 0 348 360 361 82 1 355 131203192 14 168 422 354 ?163 58 362 5 144 -163 163 163
 58 22 81 1 346 917 311 168 0 354 342 321 363 81 1 360 1014 279 319 322 0 354 36
4 365 82 1 361 1593180289 14 319 442 360 ?366 167 367 5 368 +0 0 366 167 22 81 1
 322 920 311 319 0 360 316 369 370 81 1 364 1015 279 366 369 0 360 371 372 82 1
 365 1580400769 14 366 447 364 ?373 319 374 5 375 +0 0 373 319 22 81 1 369 921 3
11 366 0 364 322 376 377 81 1 371 1016 279 373 376 0 364 378 379 82 1 372 158066
2913 14 373 452 371 ?109 366 380 5 110 +0 0 109 366 22 81 1 376 922 311 373 0 37
1 369 381 382 81 1 378 1017 279 109 381 0 371 0 383 82 1 379 1580925057 14 109 4
57 378 ?118 373 224 5 103 +0 0 118 373 22 81 1 381 923 311 109 0 378 376 384 385
 82 1 383 1581187201 80 1 311 0 386 8001 0 0 0 0 3 5 0 0 0 FFFFTFTFFFFFFF2 81 1
 384 924 311 118 0 124 381 328 387 83 255 3 385 .792156862745098 .81960784313725
5 .933333333333333 81 1 124 995 279 118 384 0 105 157 388 81 1 328 925 311 125 0
 157 384 324 389 83 3 387 .792156862745098 .819607843137255 .933333333333333 81
 1 157 996 279 125 328 0 124 166 390 83 3 389 .792156862745098 .819607843137255
 .933333333333333 81 1 166 997 279 163 321 0 157 276 391 82 1 390 -1925709691 81
 1 321 918 311 163 0 166 346 316 392 82 1 391 1593835655 83 3 392 .7921568627450
98 .819607843137255 .933333333333333 81 1 105 994 279 102 313 0 0 124 393 82 1 3
88 -1927151483 81 1 313 910 311 102 0 105 306 280 394 82 1 393 144113799 81 1 28
0 911 311 106 0 276 313 358 395 83 3 394 .792156862745098 .819607843137255 .9333
33333333333 81 1 358 912 311 277 0 281 280 352 396 83 3 395 .792156862745098 .81
9607843137255 .933333333333333 81 1 281 999 279 277 358 0 276 287 397 83 3 396 .
792156862745098 .819607843137255 .933333333333333 82 1 397 130809976 79 255 15 3
86 SDL/TYSA_COLOUR15 224 460 0 222 109 398 15 398 461 0 399 109 0 17 399 0 398 3
99 399 0 239 237 0 0 -17 239 0 400 239 239 0 399 237 0 0 +15 400 435 0 239 72 0
 83 3 382 .792156862745098 .819607843137255 .933333333333333 15 380 455 0 219 37
3 401 51 110 482 0 373 375 103 0 -.00634999999999984 .04445 0 -1 -33306690738754
7e-29 0 .003175 333066907387547e-29 -1 0 51 375 483 0 366 368 110 0 -.0063499999
9999973 .0762 .03175 -1 -333066907387547e-29 0 .003175 333066907387547e-29 -1 0
 51 368 484 0 319 170 375 0 -.00634999999999962 .10795 0 -1 -333066907387547e-29
 0 .003175 333066907387547e-29 -1 0 51 170 485 0 167 164 368 0 -.006349999999999
73 .0762 0 -1 -333066907387547e-29 0 .04445 333066907387547e-29 -1 0 17 219 0 38
0 219 219 0 217 220 0 0 +15 401 456 0 402 373 0 17 402 0 401 402 402 0 242 240 0
 0 -17 242 0 403 242 242 0 402 240 0 0 +15 403 434 0 242 72 400 83 3 377 .792156
862745098 .819607843137255 .933333333333333 15 374 450 0 215 366 404 17 215 0 37
4 215 215 0 213 216 0 0 +15 404 451 0 405 366 0 17 405 0 404 405 405 0 245 243 0
 0 -17 245 0 406 245 245 0 405 243 0 0 +15 406 433 0 245 72 403 83 3 370 .792156
862745098 .819607843137255 .933333333333333 15 367 445 0 211 319 407 17 211 0 36
7 211 211 0 209 212 0 0 +15 407 446 0 408 319 0 17 408 0 407 408 408 0 246 229 0
 0 -17 246 0 409 246 246 0 408 229 0 0 +15 409 432 0 246 72 406 83 3 363 .792156
862745098 .819607843137255 .933333333333333 15 362 426 0 60 168 0 17 60 0 362 53
 53 48 29 234 0 67 +17 53 0 362 60 60 51 67 69 0 29 +17 29 0 27 25 50 51 60 234
 0 30 -17 30 0 66 67 32 51 25 31 0 0 -83 3 359 .792156862745098 .819607843137255
 .933333333333333 15 356 224 0 410 283 411 51 357 257 0 283 285 351 0 +.0762 .00
635 .03175 0 -1 0 .003175 0 0 -1 51 285 258 0 277 112 357 0 +.10795 .00635 0 0 -
1 0 .003175 0 0 -1 51 351 256 0 339 357 99 0 +.04445 .00635 0 0 -1 0 .003175 0 0
 -1 51 99 255 0 335 351 87 0 +.0762 .00635 -.03175 0 -1 0 .003175 0 0 -1 17 410
 0 356 410 410 0 256 254 0 0 -15 411 225 0 265 283 0 17 265 0 411 265 265 0 412
 264 0 0 +17 412 0 413 412 412 0 265 264 0 0 -15 413 207 0 412 273 414 15 414 20
8 0 415 273 416 17 415 0 414 415 415 0 263 261 0 0 -15 416 209 0 417 273 0 17 41
7 0 416 417 417 0 260 236 0 0 -17 260 0 418 260 260 0 417 236 0 0 +15 418 235 0
 260 335 0 17 263 0 419 263 263 0 415 261 0 0 +15 419 230 0 263 339 0 17 256 0 4
20 256 256 0 410 254 0 0 +15 420 192 0 256 102 421 15 421 193 0 253 102 422 17 2
53 0 421 253 253 0 423 251 0 0 +15 422 194 0 250 102 0 17 250 0 422 250 250 0 42
4 248 0 0 +17 424 0 340 424 424 0 250 248 0 0 -15 340 234 0 424 335 418 17 423 0
 350 423 423 0 253 251 0 0 -15 350 229 0 423 339 419 83 3 353 .792156862745098 .
819607843137255 .933333333333333 83 3 347 .792156862745098 .819607843137255 .933
333333333333 83 3 343 .792156862745098 .819607843137255 .933333333333333 83 3 33
4 .792156862745098 .819607843137255 .933333333333333 15 333 686 0 425 18 426 17
 425 0 333 425 425 0 23 10 0 0 -15 426 687 0 427 18 0 17 427 0 426 427 427 0 428
 24 0 0 -17 428 0 169 428 428 0 427 24 0 0 +16 24 649 0 ?428 10 429 20 0 0 1 16
 429 641 0 ?430 24 201 431 0 0 1 31 20 652 0 24 431 7 0 -.00634999999999975 .076
2 0 -1 -333066907387547e-29 0 333066907387547e-29 -1 0 .0428625 31 431 644 0 429
 148 20 0 -.0762 .00635 0 0 -1 0 0 0 -1 .0428625 31 148 638 0 201 137 431 0 +.07
62 .0047625 0 0 -1 0 0 0 -1 .04445 16 201 635 0 ?286 429 142 148 0 0 1 17 286 0
 278 286 286 0 432 201 0 0 +17 432 0 433 432 432 0 286 201 0 0 -15 433 674 0 432
 158 0 17 430 0 108 430 430 0 434 429 0 0 +15 108 642 0 430 102 435 17 434 0 327
 434 434 0 430 429 0 0 -15 327 673 0 434 158 433 15 435 557 0 185 102 436 17 185
 0 435 185 185 0 437 70 0 0 +15 436 191 0 257 102 420 17 257 0 436 257 257 0 438
 76 0 0 +17 438 0 284 438 438 0 257 76 0 0 -15 284 219 0 438 277 268 15 268 220
 0 267 277 0 17 437 0 439 437 437 0 185 70 0 0 -15 439 597 0 437 118 0 15 169 65
0 0 428 163 207 17 23 0 320 23 23 0 425 10 0 0 +15 320 658 0 23 167 440 15 440 4
41 0 228 167 0 17 228 0 440 228 228 0 441 225 0 0 +17 441 0 73 441 441 0 228 225
 0 0 -15 73 431 0 441 72 409 83 3 330 .792156862745098 .819607843137255 .9333333
33333333 54 19 679 0 158 151 6 0 +.0762 .0047625 0 0 -1 0 .0428625 .0015875 0 0
 -1 54 151 618 0 1 150 19 442 -0 0 0 0 0 -1 .0762 .022225 -1 0 0 141 442 137 442
 442 151 83 3 323 .792156862745098 .819607843137255 .933333333333333 81 1 312 90
8 311 111 0 297 296 306 443 82 1 315 144834680 81 1 296 907 311 273 0 294 444 31
2 445 83 3 443 .792156862745098 .819607843137255 .933333333333333 81 1 444 906 3
11 72 0 292 291 296 446 83 3 445 .792156862745098 .819607843137255 .933333333333
333 81 1 292 1002 279 72 444 0 289 294 447 81 1 291 905 311 68 0 289 288 444 448
 83 3 446 .792156862745098 .819607843137255 .933333333333333 81 1 288 904 311 16
 0 287 0 291 449 83 3 448 .792156862745098 .819607843137255 .933333333333333 83
 3 449 .792156862745098 .819607843137255 .933333333333333 82 1 447 -502857599 83
 3 314 .792156862745098 .819607843137255 .933333333333333 79 14 310 SWEntUnchang
ed16 63 105 0 ?37 82 56 79 82 82 1 82 1 298 -501612424 82 1 293 1590820993 82 1
 290 1595146373 82 1 282 130547847 15 274 206 0 269 273 413 17 269 0 274 269 269
 0 267 266 0 0 -17 199 0 126 199 199 0 197 193 0 0 -15 126 596 0 199 118 439 40
 22 187 0 1 22 .001107532512102128 .3435730942494655 ??.01001038457041496 .05817
22570338154 -.00824621387930211 .00988562918744748 .0617298151938884 -.013253701
42851896 .00973014617432676 .066939582182524 -.01702002519814775 .00957708907106
363 .0731677869711966 -.01889718478739 .00944559708390602 .0796896893205367 -.01
86150479483797 .00934378774252586 .0857268213176304 -.01619292117694505 .0092728
8504952934 .0905802099749874 -.0119278085272511 .00923142370142652 .093714790869
7724 -.00632774150581866 .00921774235044386 .0948028976106846 -3558250823139935e
-20 .00923105386162764 .0937438404067738 .0062451471321038 .00925283073665391 .0
920667592892201 .00980895372988749 .00931137702122793 .087871522188992 .01466124
278782916 .00939943272099327 .0823049879100368 .0178553442750152 .00951754490228
766 .0759659250806595 .0190466015973136 .00966239357934872 .0695418803474323 .01
8083739138532 .00982145716452138 .0637637401597955 .0150459177047798 .0099681061
5970435 .0593239976892995 .01027037959629188 .0100646881440606 .0567663088071841
 .004342913246977305 .0100809159151943 .0563612306563204 -.0020038306282449 .010
0297328639268 .057662170815336 -.00711346018817816 .01001363273909636 .058085897
342445 -.00806776347025393 .01001038457041496 .0581722570338155 -.00824621387930
21 41 1 188 H?.01001038457041496 .0581722570338155 -.0082462138793021 204 44 189
 3 1.741209075788675 2.69391621281592 1.729591512283505 2.37215368528431 1.71514
251585286 2.03664730731097 1.70094855546788 1.697544453465515 1.68877559963119 1
.3566956684147 1.679362678147905 1.01602726515365 1.67281302355269 .676582087959
96 1.668985072883735 .338597878778083 1.66772225113438 .001867849287234215 1.668
950933720005 -.3340049224690995 1.670961309969515 -.540897651163242 1.6763681663
48575 -.878244297909136 1.684506159837095 -1.214767589018192 1.695433922494175 -
1.551907221674885 1.708855946371195 -1.89066206096263 1.723624146703345 -2.23109
030722494 1.73726947256065 -2.57219179061586 1.746273142669035 -2.9115958116261
 1.74778733635589 3.03620974640083 1.743012883359265 2.75891046743514 1.74151185
760509 2.70428210258711 1.741209075788675 2.69391621281592 141 171 71 171 171 16
4 141 162 119 156 156 129 141 160 137 160 160 150 141 149 129 149 149 137 40 20
 152 0 1 20 .001288154907870512 .3422843588796565 ??.00952499999999981 .05525149
42980329 -.00941239071529625 .0095249999999998 .0594779025768408 -.0154626516666
0545 .00952499999999978 .0655282571161006 -.0198566960645057 .00952499999999976
 .07276983285102 -.02204671558528835 .00952499999999973 .0803595880742569 -.0217
175559397763 .00952499999999971 .0873893966291738 -.01889174137310255 .009524999
99999969 .0930429413719 -.01391577661512626 .00952499999999968 .0966950940510524
 -.00738236509012177 .00952499999999967 .0979629897876521 -4151292626996595e-20
 .00952499999999968 .0967289426818544 .00728600498745444 .00952499999999968 .094
7748756232969 .0114437793515354 .0095249999999997 .089887483552862 .017104783252
46735 .00952499999999972 .0834045024964267 .02083123498751775 .00952499999999975
 .0760254292280084 .0222210351968659 .00952499999999977 .0685530355257919 .02109
769566162065 .00952499999999979 .0618390545158618 .01755357065557645 .0095249999
9999981 .0566869041056969 .0119821095290072 .00952499999999982 .0537223889751118
 .00506673212147352 .00952499999999982 .0532531693069968 -.002337802399619055 .0
0952499999999981 .0552514942980329 -.00941239071529625 41 1 153 H?.0095249999999
9981 .0552514942980329 -.00941239071529625 204 80 154 4 .00941239071529625 -.055
2514942980328 1.74151185760509 2.70428210258711 .01546265166660545 -.05947790257
68407 1.729591512283505 2.37215368528431 .0198566960645057 -.0655282571161006 1.
71514251585286 2.03664730731097 .02204671558528835 -.0727698328510199 1.70094855
546788 1.697544453465515 .0217175559397763 -.0803595880742569 1.68877559963119 1
.3566956684147 .01889174137310255 -.0873893966291738 1.679362678147905 1.0160272
6515365 .01391577661512626 -.0930429413719 1.67281302355269 .67658208795996 .007
38236509012177 -.0966950940510524 1.668985072883735 .338597878778083 41512926269
96595e-20 -.0979629897876521 1.66772225113438 .001867849287234215 -.007286004987
45444 -.0967289426818544 1.668950933720005 -.3340049224690995 -.0114437793515354
 -.0947748756232969 1.670961309969515 -.540897651163242 -.01710478325246735 -.08
9887483552862 1.676368166348575 -.878244297909137 -.02083123498751775 -.08340450
24964266 1.684506159837095 -1.214767589018192 -.0222210351968659 -.0760254292280
083 1.695433922494175 -1.551907221674885 -.02109769566162065 -.0685530355257919
 1.708855946371195 -1.89066206096263 -.01755357065557645 -.0618390545158617 1.72
3624146703345 -2.23109030722494 -.0119821095290072 -.0566869041056968 1.73726947
256065 -2.57219179061586 -.00506673212147352 -.0537223889751118 1.74627314266903
5 -2.9115958116261 .002337802399619055 -.0532531693069968 1.74778733635589 3.036
20974640083 .00941239071529625 -.0552514942980328 1.74151185760509 2.70428210258
711 40 21 145 0 1 21 .001288154907870512 .3422843588796565 ??.00634999999999982
 .0553515945715672 -.00962058285918579 .00634999999999982 .0552514942980329 -.00
941239071529625 .00634999999999982 .0532477934959832 -.00228722004107083 .006349
99999999982 .0537223889751118 .00506673212147352 .00634999999999981 .05668690410
56968 .0119821095290072 .00634999999999979 .0618390545158618 .01755357065557645
 .00634999999999977 .0685530355257919 .02109769566162065 .00634999999999975 .076
0254292280084 .0222210351968659 .00634999999999972 .0834045024964267 .0208312349
8751775 .0063499999999997 .089887483552862 .01710478325246735 .00634999999999968
 .0947748756232969 .0114437793515354 .00634999999999968 .0967289426818544 .00728
600498745444 .00634999999999967 .0979629897876521 -4151292626996595e-20 .0063499
9999999968 .0966950940510524 -.00738236509012177 .00634999999999969 .09304294137
19 -.01391577661512626 .00634999999999971 .0873893966291738 -.01889174137310255
 .00634999999999973 .0803595880742569 -.0217175559397763 .00634999999999976 .072
7698328510199 -.02204671558528835 .00634999999999978 .0655282571161006 -.0198566
960645057 .0063499999999998 .0594779025768407 -.01546265166660545 .0063499999999
9982 .0553515945715672 -.00962058285918579 41 1 146 H?.00634999999999982 .055351
5945715672 -.00962058285918579 204 42 147 3 .00962058285918579 -.055351594571567
2 .00941239071529625 -.0552514942980328 .00228722004107083 -.0532477934959831 -.
00506673212147352 -.0537223889751118 -.0119821095290072 -.0566869041056968 -.017
55357065557645 -.0618390545158617 -.02109769566162065 -.0685530355257919 -.02222
10351968659 -.0760254292280083 -.02083123498751775 -.0834045024964266 -.01710478
325246735 -.0898874835528619 -.0114437793515354 -.0947748756232968 -.00728600498
745444 -.0967289426818543 4151292626996595e-20 -.0979629897876521 .0073823650901
2177 -.0966950940510524 .01391577661512626 -.0930429413719 .01889174137310255 -.
0873893966291738 .0217175559397763 -.0803595880742569 .02204671558528835 -.07276
98328510199 .0198566960645057 -.0655282571161006 .01546265166660545 -.0594779025
768407 .00962058285918579 -.0553515945715672 141 135 143 450 451 122 141 450 181
 452 135 122 141 451 117 135 452 122 141 452 129 451 450 122 141 133 127 121 121
 117 141 131 123 131 131 120 141 128 136 128 128 119 141 113 86 113 113 94 141 1
01 83 453 454 87 141 453 71 455 101 87 141 454 86 101 455 87 141 455 93 454 453
 87 40 25 95 0 1 25 .002662207682228125 .393150090714352 ??.0761995000000085 .00
03903844259188625 -.0126999999901575 .0761982998224455 .000719870904134462 -.012
6999998861967 .0761863761146583 .0020377831710574 -.01269999269250768 .076156238
4157086 .00365219535239382 -.01269992460307306 .0761164350425906 .00504684049860
819 -.0126997250717444 .075829888577929 .01062120338978792 -.0126946058440289 .0
753390637418484 .01619917811139175 -.01267078485175248 .0713888856443646 .038293
9636966151 -.01175343263293744 .0675560575747875 .0513290721833618 -.00930442149
462349 .0660693608714916 .0555681456085171 -.00765899150332046 .0641969324763049
 .0604858246304227 -.004149261382658025 .0637567202740062 .0615849954167646 -.00
254062780837168 .0635156829380082 .0621786124040662 -.000630952193802286 .063559
1915960156 .0620718809247346 .00122472972273831 .0637975935472004 .0614837660428
614 .00273318754928294 .0644560192501606 .0598294687637376 .00483414068345156 .0
659772675054107 .0558201474769713 .00753563138323977 .0703107751301497 .04236786
21165896 .01125197895626976 .0740388545728426 .0256654851151809 .012514769292427
12 .0754378440422087 .01524155949812155 .012677110013564 .0759472521254715 .0087
7710385926259 .01269748473170656 .0761210509179512 .0049054745141018 .0126997546
0559942 .076176593370991 .002671018630025015 .01269997843028556 .076193350710008
4 .001423623401525114 .01269999825932834 .0761994999999827 .0003903844259186215
 .0126999999901575 41 2 96 TF.0762 0 -.0127 .0761995000000085 .00039038442591886
25 -.0126999999901575 41 2 97 TF.0762 0 .0127 .0761994999999827 .000390384425918
6215 .0126999999901575 204 108 98 4 0 .00635 3.141592653589795 1.570796326794895
 6.28314593710151 .00595961557408114 3.136469509599465 1.57075695671547 6.283051
4349308 .00563012909586554 3.132145599124225 1.570662454546105 6.28211256009654
 .0043122168289426 3.114851685896605 1.569723579711795 6.27973950632192 .0026978
0464760618 3.09367275276975 1.567350525937215 6.27660534179247 .0013031595013918
14 3.075385346056885 1.56421636140777 6.2540385488377 -.00427120338978792 3.0024
31797559175 1.54164956845301 6.21534302106328 -.00984917811139173 2.929800261950
095 1.50295404067859 5.89465583286206 -.0319439636966151 2.64924032303267 1.1822
6685247737 5.53456939223689 -.04497907218336185 2.49184918233268 .82218041185219
8 5.35973338411595 -.0492181456085171 2.442313010039715 .647344403731258 5.04521
312681248 -.0541358246304227 2.38595010836788 .3328241464277905 4.91379735452431
 -.0552349954167646 2.37351918982101 .201408374139619 4.76209071568204 -.0558286
124040662 2.366831568837955 .0497017352973545 4.61580346864806 -.055721880924734
6 2.36803265381303 -.096585511736633 4.49548045992342 -.0551337660428614 2.37466
1439139235 -.21690852046127 4.32189960349659 -.0534794687637376 2.39340249660796
5 -.390489376888101 4.07716626458453 -.0494701474769713 2.439395533046155 -.6352
22715800157 3.62378029258088 -.0360178621165896 2.5992783032876 -1.0886086878038
12 3.312593751800965 -.0193154851151809 2.80790636641109 -1.399795228583722 3.20
164101434478 -.00889155949812153 2.94223508540561 -1.51074796603991 3.1614953749
79045 -.002427103859262595 3.026534663245365 -1.550893605405645 3.14780915678253
5 .001444525485898202 3.07723856676042 -1.56457982360214 3.14343569628745 .00367
8981369974985 3.10654350409362 -1.56895328409723 3.142116219754785 .004926376598
47489 3.122910475181025 -1.570272760629945 3.1416320236699 .00595961557408138 3.
136469509599465 -1.570756956717505 3.141592653589795 .00635 3.141592653589795 -1
.570796326794895 19 17 5 0 1 0 9 5 S0 74 4 CI16 index_map_offset0 0 1 dCCZ20 15
 9 0 0 378 456 457 458 459 460 13 329 2 0 0 0 0 0 0 0 0 0 0 0 81 2 456 522 461 1
 0 457 0 0 0 462 81 2 457 524 463 1 456 458 0 0 0 464 81 1 458 703 465 1 457 459
 0 0 466 81 2 459 729 467 1 458 460 0 0 468 0 81 2 460 816 469 1 459 13 0 0 0 47
0 81 2 13 901 471 1 460 2 0 0 0 0 80 2 471 472 473 9000 0 0 0 0 3 5 0 0 0 FFTFFF
FFFFFFFF9 1 79 16 473 BODY_RECIPE_200180 2 469 474 475 9000 0 0 0 0 3 5 0 0 0 FF
TFFFFFFFFFFF9 1 82 1 470 1 79 24 475 BODY_IN_LIGHTWEIGHT_PERM80 2 467 476 477 80
04 0 0 0 0 3 5 0 0 0 FFTFFFFFFFFFFF2 3 83 1 468 1 79 16 477 SDL/TYSA_DENSITY80 1
 465 478 479 9000 1 1 1 1 1 1 1 1 0 FFTFFFFFFFFFFF1 82 1 466 844232 79 10 479 BO
DY_MATCH80 2 463 480 481 9000 0 0 0 0 3 5 0 0 0 FFTFFFFFFFFFFF9 1 82 1 464 67 79
 30 481 LAST_BODY_MODIFYING_FEATURE_ID80 2 461 482 483 9000 0 0 0 0 3 5 0 0 0 FF
TFFFFFFFFFFT9 1 82 1 462 111 79 19 483 ENT_TIME_STAMP_200180 2 12 484 485 9000 0
 0 0 0 3 5 0 0 0 FFTFFFFFFFFFFF9 1 82 1 14 103 79 12 485 ATOM_ID_20011 0 
