**ABCDEFGHIJKLMNOPQRSTUVWXYZabcdefghijklmnopqrstuvwxyz**************************
**PARASOLID !"#$%&'()*+,-./:;<=>?@[\]^_`{|}~0123456789**************************
**PART1;
MC=AMD64;
MC_MODEL=Intel64 Family 6 Model 142 Stepping 12, GenuineIntel;
MC_ID=unknown;
OS=Windows_NT;
OS_RELEASE=unknown;
FRU=Parasolid Version 33.1, build 247,  8- 6-2021;
APPL=SOLIDWORKS 2022-2022009;
SITE=;
USER=unknown;
FORMAT=text;
GUISE=transmit;
KEY=FILEWheel.x_t;
DATE=Thu Jun 15 06:27:27 2023;
**PART2;
SCH=SCH_3301247_33103;
USFLD_SIZE=0;
**PART3;
**END_OF_HEADER*****************************************************************
T51 : TRANSMIT FILE created by modeller version 330124723 SCH_3301247_33103_1300
6230 0 12 35 CCCI7 lattice222 0 CCCI4 mesh1006 0 I8 polyline1008 0 CCCCCCCDI5 ow
ner1040 0 CCCCCCI13 boundary_mesh1006 0 I17 boundary_polyline1008 0 CCCA16 index
_map_offset0 0 1 dA9 index_map82 0 A17 node_id_index_map82 0 A20 schema_embeddin
g_map82 0 A5 child12 0 A14 lowest_node_id0 0 1 dA16 mesh_offset_data206 0 Z1 499
 2 3 0 0 0 0 0 0 0 1e3 1e-8 0 4 0 1 0 1 1 5 6 7 0 0 0 8 9 0 0 0 0 0 0 0 0 81 255
 2 2 484 10 1 11 0 0 0 0 12 70 11 CI9 list_type0 0 1 uI10 notransmit0 0 1 lCCCDC
CDI12 finger_index0 0 1 dI12 finger_block1012 0 CZ3 0 4 T1 0 0 9 20 1 13 13 13 2
55 5 111 0 1 0 14 0 0 15 0 50 255 6 206 0 14 16 0 0 +.01905 .0127 0 -1 0 0 0 0 1
 31 255 7 221 0 9 17 0 0 +.01905 0 0 -1 0 0 0 0 1 .01905 19 8 CCCCCCCA5 owner12
 0 Z8 115 0 1 15 0 18 V0 16 255 9 184 0 ?19 0 20 7 0 0 1 17 255 19 0 21 19 19 0
 22 9 0 0 +16 20 179 0 ?23 9 24 17 0 0 1 17 23 0 25 23 23 0 26 20 0 0 +16 24 174
 0 ?27 20 28 29 0 0 1 31 17 220 0 20 29 7 0 +.00635 0 0 -1 0 0 0 0 1 .01905 31 2
9 219 0 24 30 17 0 +.00635 0 0 -1 0 0 0 0 1 .04445 31 30 218 0 28 31 29 0 +.0127
 0 0 -1 0 0 0 0 1 .04445 16 28 169 0 ?32 24 33 30 0 0 1 31 31 217 0 33 34 30 0 +
.0127 0 0 -1 0 0 0 0 1 .0508 16 33 164 0 ?35 28 36 31 0 0 1 31 34 216 0 36 37 31
 0 +.00634999999999991 0 0 -1 0 0 0 0 1 .0508 16 36 159 0 ?38 33 39 34 0 0 1 31
 37 215 0 39 40 34 0 +0 0 0 -1 0 0 0 0 1 .04445 16 39 154 0 ?41 36 42 37 0 0 1 3
1 40 214 0 42 43 37 0 +-.0063500000000003 0 0 -1 0 0 0 0 1 .0508 16 42 149 0 ?44
 39 45 40 0 0 1 31 43 213 0 45 46 40 0 +-.01270000000000032 0 0 -1 0 0 0 0 1 .05
08 16 45 144 0 ?47 42 48 43 0 0 1 31 46 212 0 48 49 43 0 +-.01270000000000026 0
 0 -1 0 0 0 0 1 .04445 16 48 139 0 ?50 45 51 46 0 0 1 31 49 211 0 51 52 46 0 +-.
0063500000000003 0 0 -1 0 0 0 0 1 .04445 16 51 134 0 ?53 48 54 49 0 0 1 31 52 21
0 0 54 55 49 0 +-.00635000000000013 0 0 -1 0 0 0 0 1 .01905 16 54 129 0 ?56 51 5
7 52 0 0 1 31 55 209 0 57 58 52 0 +-.01905 0 0 -1 0 0 0 0 1 .01905 16 57 124 0 ?
59 54 60 55 0 0 1 31 58 208 0 60 61 55 0 +-.01905 0 0 -1 0 0 0 0 1 .0127 16 60 1
19 0 ?62 57 63 58 0 0 1 31 61 207 0 63 0 58 0 +.01905 0 0 -1 0 0 0 0 1 .0127 16
 63 117 0 ?64 60 0 61 0 0 1 17 64 0 65 64 64 0 66 63 0 0 +15 255 65 189 0 64 14
 0 17 66 0 67 66 66 0 64 63 0 0 -15 67 282 0 66 68 69 14 255 68 122 70 ?0 71 67
 5 72 -0 0 0 71 18 15 69 121 0 62 68 0 17 62 0 69 62 62 0 73 60 0 0 +17 73 0 74
 73 73 0 62 60 0 0 -15 74 283 0 73 71 75 14 71 127 76 ?68 77 74 5 78 -0 0 68 77
 18 15 75 126 0 59 71 0 17 59 0 75 59 59 0 79 57 0 0 +17 79 0 80 79 79 0 59 57 0
 0 -15 80 284 0 79 77 81 14 77 132 82 ?71 83 80 5 84 -0 0 71 83 18 15 81 131 0 5
6 77 0 17 56 0 81 56 56 0 85 54 0 0 +17 85 0 86 85 85 0 56 54 0 0 -15 86 285 0 8
5 83 87 14 83 137 88 ?77 89 86 5 90 -0 0 77 89 18 15 87 136 0 53 83 0 17 53 0 87
 53 53 0 91 51 0 0 +17 91 0 92 91 91 0 53 51 0 0 -15 92 286 0 91 89 93 14 89 142
 94 ?83 95 92 5 96 -0 0 83 95 18 15 93 141 0 50 89 0 17 50 0 93 50 50 0 97 48 0
 0 +17 97 0 98 97 97 0 50 48 0 0 -15 98 287 0 97 95 99 14 95 147 100 ?89 101 98
 5 102 -0 0 89 101 18 15 99 146 0 47 95 0 17 47 0 99 47 47 0 103 45 0 0 +17 103
 0 104 103 103 0 47 45 0 0 -15 104 288 0 103 101 105 14 101 152 106 ?95 107 104
 5 108 -0 0 95 107 18 15 105 151 0 44 101 0 17 44 0 105 44 44 0 109 42 0 0 +17 1
09 0 110 109 109 0 44 42 0 0 -15 110 289 0 109 107 111 14 107 157 112 ?101 113 1
10 5 114 -0 0 101 113 18 15 111 156 0 41 107 0 17 41 0 111 41 41 0 115 39 0 0 +1
7 115 0 116 115 115 0 41 39 0 0 -15 116 290 0 115 113 117 14 113 162 118 ?107 11
9 116 5 120 -0 0 107 119 18 15 117 161 0 38 113 0 17 38 0 117 38 38 0 121 36 0 0
 +17 121 0 122 121 121 0 38 36 0 0 -15 122 291 0 121 119 123 14 119 167 124 ?113
 125 122 5 126 -0 0 113 125 18 15 123 166 0 35 119 0 17 35 0 123 35 35 0 127 33
 0 0 +17 127 0 128 127 127 0 35 33 0 0 -15 128 292 0 127 125 129 14 125 172 130
 ?119 131 128 5 132 -0 0 119 131 18 15 129 171 0 32 125 0 17 32 0 129 32 32 0 13
3 28 0 0 +17 133 0 134 133 133 0 32 28 0 0 -15 134 293 0 133 131 135 14 131 177
 136 ?125 137 134 5 138 -0 0 125 137 18 15 135 176 0 27 131 0 17 27 0 135 27 27
 0 139 24 0 0 +17 139 0 140 139 139 0 27 24 0 0 -15 140 294 0 139 137 25 14 137
 182 141 ?131 142 140 5 143 -0 0 131 142 18 15 25 181 0 23 137 0 81 1 141 497 14
4 137 145 0 136 146 147 14 142 187 146 ?137 14 148 5 16 -0 0 137 14 18 50 143 20
4 0 137 138 16 0 +.00635 .01905 0 -1 0 0 0 0 1 13 18 114 0 0 0 0 0 0 8 14 14 14
 190 149 ?142 0 150 5 6 -0 0 142 0 18 81 1 149 499 144 14 151 0 146 0 152 15 150
 296 0 22 14 65 17 22 0 150 22 22 0 19 9 0 0 -80 255 1 144 153 154 9000 1 1 1 1
 1 1 1 1 0 FFFFTFTFFFFFFF1 81 1 151 438 155 14 0 149 0 156 157 81 1 146 498 144
 142 156 0 141 149 158 82 255 1 152 -1569718156 81 1 156 439 155 142 0 146 151 1
45 159 82 1 158 -1570045836 80 1 155 0 160 8001 0 0 0 0 3 5 0 0 0 FFFFTFTFFFFFFF
2 81 1 145 440 155 137 0 141 156 161 162 83 255 3 159 .647058823529412 .61960784
3137255 .588235294117647 81 1 161 441 155 131 0 136 145 163 164 83 3 162 .647058
823529412 .619607843137255 .588235294117647 81 1 136 496 144 131 161 0 130 141 1
65 81 1 163 442 155 125 0 130 161 166 167 83 3 164 .647058823529412 .61960784313
7255 .588235294117647 81 1 130 495 144 125 163 0 124 136 168 81 1 166 443 155 11
9 0 124 163 169 170 83 3 167 .647058823529412 .619607843137255 .588235294117647
 81 1 124 494 144 119 166 0 118 130 171 81 1 169 444 155 113 0 118 166 172 173 8
3 3 170 .647058823529412 .619607843137255 .588235294117647 81 1 118 493 144 113
 169 0 112 124 174 81 1 172 445 155 107 0 112 169 175 176 83 3 173 .647058823529
412 .619607843137255 .588235294117647 81 1 112 492 144 107 172 0 106 118 177 81
 1 175 446 155 101 0 106 172 178 179 83 3 176 .647058823529412 .619607843137255
 .588235294117647 81 1 106 491 144 101 175 0 100 112 180 81 1 178 447 155 95 0 1
00 175 181 182 83 3 179 .647058823529412 .619607843137255 .588235294117647 81 1
 100 490 144 95 178 0 94 106 183 81 1 181 448 155 89 0 94 178 184 185 83 3 182 .
647058823529412 .619607843137255 .588235294117647 81 1 94 489 144 89 181 0 88 10
0 186 81 1 184 449 155 83 0 88 181 187 188 83 3 185 .647058823529412 .6196078431
37255 .588235294117647 81 1 88 488 144 83 184 0 82 94 189 81 1 187 450 155 77 0
 82 184 190 191 83 3 188 .647058823529412 .619607843137255 .588235294117647 81 1
 82 487 144 77 187 0 76 88 192 81 1 190 451 155 71 0 76 187 193 194 83 3 191 .64
7058823529412 .619607843137255 .588235294117647 81 1 76 486 144 71 190 0 70 82 1
95 81 1 193 452 155 68 0 70 190 0 196 83 3 194 .647058823529412 .619607843137255
 .588235294117647 81 1 70 485 144 68 193 0 0 76 197 83 3 196 .647058823529412 .6
19607843137255 .588235294117647 82 1 197 -1577713548 82 1 195 -1577123724 82 1 1
92 -1576533900 82 1 189 -1575944076 82 1 186 -1575354252 82 1 183 -1574764428 82
 1 180 -1574174604 82 1 177 -1573584780 82 1 174 -1572994956 82 1 171 -157240513
2 82 1 168 -1571815308 82 1 165 -1571225484 79 255 15 160 SDL/TYSA_COLOUR83 3 15
7 .647058823529412 .619607843137255 .588235294117647 79 14 154 SWEntUnchanged51
 255 138 203 0 131 132 143 0 +-.487032527769321 0 0 -1 0 0 .04445 0 0 1 51 16 20
5 0 142 143 6 0 --.487032527769321 0 0 -1 0 0 .01905 0 0 1 50 132 202 0 125 126
 138 0 +.0127 .04445 0 -1 0 0 0 0 1 51 126 201 0 119 120 132 0 --.48703252776932
1 0 0 -1 0 0 .0508 0 0 1 52 255 120 200 0 113 114 126 0 -.00634999999999991 0 0
 1 0 0 .0508 .707106781186553 .707106781186543 0 0 -1 52 114 199 0 107 108 120 0
 -0 0 0 -1 0 0 .04445 .707106781186531 .707106781186564 0 0 1 51 108 198 0 101 1
02 114 0 --.487032527769321 0 0 -1 0 0 .0508 0 0 1 50 102 197 0 95 96 108 0 +-.0
1270000000000032 .04445 0 1 0 0 0 0 -1 51 96 196 0 89 90 102 0 +-.48703252776932
1 0 0 -1 0 0 .04445 0 0 1 50 90 195 0 83 84 96 0 +-.00635000000000022 .01905 0 1
 0 0 0 0 -1 51 84 194 0 77 78 90 0 --.487032527769321 0 0 -1 0 0 .01905 0 0 1 50
 78 193 0 71 72 84 0 +-.01905 .0127 0 1 0 0 0 0 -1 51 72 192 0 68 0 78 0 +-.4870
32527769321 0 0 -1 0 0 .0127 0 0 1 15 148 295 0 26 142 21 17 26 0 148 26 26 0 23
 20 0 0 -15 21 186 0 19 142 0 82 1 147 -1570635660 19 15 110 0 1 0 8 5 S0 74 4 C
I16 index_map_offset0 0 1 dCCZ20 13 9 0 0 198 199 149 200 201 202 11 193 2 0 0 0
 0 0 0 0 0 0 0 0 81 2 198 312 203 1 0 199 0 0 0 204 81 2 199 316 205 1 198 200 0
 0 0 206 81 1 200 332 207 1 199 201 0 0 208 81 2 201 350 209 1 200 202 0 0 210 0
 81 2 202 397 211 1 201 11 0 0 0 212 81 2 11 435 213 1 202 2 0 0 0 0 80 2 213 21
4 215 9000 0 0 0 0 3 5 0 0 0 FFTFFFFFFFFFFF9 1 79 16 215 BODY_RECIPE_200180 2 21
1 216 217 9000 0 0 0 0 3 5 0 0 0 FFTFFFFFFFFFFF9 1 82 1 212 1 79 24 217 BODY_IN_
LIGHTWEIGHT_PERM80 2 209 218 219 8004 0 0 0 0 3 5 0 0 0 FFTFFFFFFFFFFF2 3 83 1 2
10 1 79 16 219 SDL/TYSA_DENSITY80 1 207 220 221 9000 1 1 1 1 1 1 1 1 0 FFTFFFFFF
FFFFF1 82 1 208 827767 79 10 221 BODY_MATCH80 2 205 222 223 9000 0 0 0 0 3 5 0 0
 0 FFTFFFFFFFFFFF9 1 82 1 206 49 79 30 223 LAST_BODY_MODIFYING_FEATURE_ID80 2 20
3 224 225 9000 0 0 0 0 3 5 0 0 0 FFTFFFFFFFFFFT9 1 82 1 204 103 79 19 225 ENT_TI
ME_STAMP_200180 2 10 226 227 9000 0 0 0 0 3 5 0 0 0 FFTFFFFFFFFFFF9 1 82 1 12 10
1 79 12 227 ATOM_ID_20011 0 
