**ABCDEFGHIJKLMNOPQRSTUVWXYZabcdefghijklmnopqrstuvwxyz**************************
**PARASOLID !"#$%&'()*+,-./:;<=>?@[\]^_`{|}~0123456789**************************
**PART1;
MC=AMD64;
MC_MODEL=Intel64 Family 6 Model 142 Stepping 12, GenuineIntel;
MC_ID=unknown;
OS=Windows_NT;
OS_RELEASE=unknown;
FRU=Parasolid Version 33.1, build 247,  8- 6-2021;
APPL=SOLIDWORKS 2022-2022009;
SITE=;
USER=unknown;
FORMAT=text;
GUISE=transmit;
KEY=FILEYoke.x_t;
DATE=Thu Jun 15 06:27:22 2023;
**PART2;
SCH=SCH_3301247_33103;
USFLD_SIZE=0;
**PART3;
**END_OF_HEADER*****************************************************************
T51 : TRANSMIT FILE created by modeller version 330124723 SCH_3301247_33103_1300
6230 0 12 35 CCCI7 lattice222 0 CCCI4 mesh1006 0 I8 polyline1008 0 CCCCCCCDI5 ow
ner1040 0 CCCCCCI13 boundary_mesh1006 0 I17 boundary_polyline1008 0 CCCA16 index
_map_offset0 0 1 dA9 index_map82 0 A17 node_id_index_map82 0 A20 schema_embeddin
g_map82 0 A5 child12 0 A14 lowest_node_id0 0 1 dA16 mesh_offset_data206 0 Z1 754
 2 3 0 0 0 0 0 0 0 1e3 1e-8 0 4 0 1 0 1 1 5 6 7 8 0 0 9 10 11 0 0 0 0 0 0 0 81 2
55 2 2 740 12 1 13 0 0 0 0 14 70 11 CI9 list_type0 0 1 uI10 notransmit0 0 1 lCCC
DCCDI12 finger_index0 0 1 dI12 finger_block1012 0 CZ3 0 4 T1 0 0 10 20 1 15 15 1
3 255 5 183 0 1 0 16 0 0 17 0 51 255 6 369 18 16 19 0 0 +-.04445 -.0381 0 1 0 0
 .0254 0 0 -1 31 255 7 394 0 20 21 0 0 +.0254 -.0381 0 1 0 0 0 0 -1 .009525 29 2
55 8 326 0 11 22 0 -.04445 -.0381 -.0254 19 8 CCCCCCCA5 owner12 0 Z9 61 0 1 17 0
 23 V0 16 255 10 348 0 ?24 0 25 21 0 0 1 18 255 11 324 0 26 0 27 8 ?1 17 255 26
 0 28 29 30 11 31 25 0 32 -18 27 321 0 24 11 33 22 ?1 17 24 0 34 35 36 27 37 10
 0 29 +18 33 313 0 37 27 38 39 ?1 29 22 323 0 27 39 8 -.0254 -.0381 -.0254 29 39
 315 0 33 40 22 -.0254 -.0381 .0254 29 40 312 0 38 41 39 -.04445 -.0381 .0254 18
 38 310 0 31 33 42 40 ?1 29 41 257 0 42 43 40 .0254 -.0381 -.0254 18 42 255 0 44
 38 45 41 ?1 29 43 254 0 45 46 41 .04445 -.0381 -.0254 18 45 252 0 47 42 48 43 ?
1 29 46 246 0 48 49 43 .04445 -.0381 .0254 18 48 244 0 50 45 51 46 ?1 29 49 243
 0 51 52 46 .0254 -.0381 .0254 18 51 241 0 53 48 54 49 ?1 29 52 135 0 55 56 49 -
.0254 0 -.0254 18 55 118 0 35 57 58 52 ?1 29 56 138 0 58 59 52 -.04445 -54435550
2220999e-32 -.0254 18 58 121 0 60 55 61 56 ?1 29 59 139 0 61 62 56 .04445 0 -.02
54 18 61 122 0 63 58 64 59 ?1 29 62 142 0 64 65 59 .0254 0 -.0254 18 64 125 0 66
 61 0 62 ?1 29 65 60 0 54 67 62 -.0254 0 .0254 18 54 58 0 68 51 69 65 ?1 29 67 5
1 0 69 70 65 -.04445 -544355502220999e-32 .0254 18 69 49 0 71 54 72 67 ?1 29 70
 48 0 72 73 67 .04445 0 .0254 18 72 46 0 74 69 57 70 ?1 29 73 39 0 57 0 70 .0254
 0 .0254 18 57 37 0 75 72 55 73 ?1 17 75 0 76 77 53 57 78 79 0 80 -15 255 76 163
 0 81 82 0 17 77 0 76 81 75 64 83 84 0 85 +17 53 0 76 75 81 51 44 86 0 87 +17 78
 0 88 89 80 51 75 79 0 0 +16 79 9 0 ?78 90 91 92 0 0 1 17 80 0 88 78 68 57 93 91
 0 83 +15 88 4 0 94 95 0 17 68 0 88 80 96 54 36 97 0 98 +17 93 0 99 100 83 54 80
 91 0 0 -16 91 5 0 ?80 79 101 102 0 0 1 17 83 0 99 93 85 57 77 84 0 0 -15 99 165
 0 85 103 0 17 85 0 99 83 100 64 104 105 0 0 +16 84 150 0 ?77 106 107 108 0 0 1
 16 106 247 0 ?89 109 84 110 0 0 1 16 107 147 0 ?111 84 112 113 0 0 1 30 255 108
 182 0 84 113 110 0 +.0254 0 .0254 0 0 -1 30 113 179 0 107 114 108 0 +.04445 0 .
0254 0 0 -1 30 110 249 0 106 108 115 0 -.0254 -.0381 .0254 -1 72849279831047e-29
 0 30 115 260 0 109 110 116 0 --277555756156289e-31 -.0381 -.0254 1 -72849279831
047e-29 0 16 109 258 0 ?117 86 106 115 0 0 1 31 116 268 0 86 115 118 0 -.0254 -.
0381 0 1 0 0 0 0 -1 .0254 16 86 266 0 ?53 119 109 116 0 0 1 31 118 281 0 119 116
 120 0 -.04445 -.0381 0 -1 -1092739197465704e-31 0 1092739197465704e-31 -1 0 .02
54 16 119 279 0 ?47 121 86 118 0 0 1 30 120 318 0 121 118 122 0 --.04445 -.0381
 .0254 -1 0 0 16 121 316 0 ?96 123 119 120 0 0 1 30 122 329 0 123 120 124 0 -0 -
.0381 -.0254 1 0 0 16 123 327 0 ?32 25 121 122 0 0 1 31 124 337 0 25 122 21 0 --
.04445 -.0381 0 1 1092739197465704e-31 0 -1092739197465704e-31 1 0 .0254 16 25 3
35 0 ?31 10 123 124 0 0 1 31 21 350 0 10 124 7 0 --.0254 -.0381 0 -1 0 0 0 0 1 .
0254 17 31 0 125 126 127 38 26 25 0 30 +15 125 155 0 127 128 0 17 126 0 125 129
 31 69 94 130 0 0 -17 127 0 125 31 129 11 131 132 0 0 +17 30 0 28 26 37 38 96 12
1 0 94 -15 28 317 0 30 16 0 17 37 0 28 30 29 33 24 10 0 96 -17 96 0 88 68 94 33
 30 121 0 36 +17 94 0 88 96 71 38 126 130 0 0 +17 71 0 88 94 74 69 133 134 0 135
 +16 130 25 0 ?94 97 134 136 0 0 1 16 97 314 0 ?68 137 130 138 0 0 1 16 134 21 0
 ?71 130 90 139 0 0 1 30 136 27 0 130 139 138 0 +-.04445 -544355502220999e-32 .0
254 1092739197465704e-31 -1 0 31 139 23 0 134 140 136 0 +0 0 .0254 0 0 1 1 0 0 .
04445 30 138 35 0 97 136 141 0 +-.0254 -.0635 .0254 0 1 0 31 141 134 0 105 138 1
42 0 +0 0 -.0254 0 0 -1 1 0 0 .0254 16 105 114 0 ?85 143 144 141 0 0 1 30 142 13
3 0 143 141 145 0 +.0254 -.0635 -.0254 0 -1 0 16 143 110 0 ?81 146 105 142 0 0 1
 30 145 131 0 146 142 147 0 +.04445 -544355502220999e-32 -.0254 -109273919746570
4e-31 1 0 16 146 253 0 ?63 148 143 145 0 0 1 31 147 130 0 148 145 149 0 +0 0 -.0
254 0 0 1 1 0 0 .04445 16 148 98 0 ?60 132 146 147 0 0 1 30 149 129 0 132 147 15
0 0 +-.04445 -544355502220999e-32 -.0254 1092739197465704e-31 -1 0 16 132 94 0 ?
127 101 148 149 0 0 1 30 150 127 0 101 149 151 0 +-.0254 -.0635 -.0254 0 1 0 16
 101 322 0 ?35 91 132 150 0 0 1 30 151 175 0 137 150 114 0 +-.0254 0 .0254 0 0 -
1 16 137 143 0 ?100 112 97 151 0 0 1 30 114 178 0 112 151 113 0 +-.04445 -544355
502220999e-32 .0254 0 0 -1 16 112 146 0 ?129 107 137 114 0 0 1 17 129 0 125 127
 126 58 135 112 0 131 +17 135 0 152 133 60 69 129 112 0 126 -17 131 0 153 154 32
 58 127 132 0 0 -15 153 85 0 155 156 0 17 154 0 153 157 131 61 60 148 0 0 -17 32
 0 153 131 155 11 29 123 0 127 +17 155 0 153 32 104 27 35 101 0 0 -17 29 0 28 37
 26 27 32 123 0 155 -17 104 0 153 155 66 55 85 105 0 0 -17 35 0 34 98 24 55 155
 101 0 100 +15 34 151 0 36 158 0 17 98 0 34 36 35 54 100 137 0 93 -17 100 0 99 8
5 93 55 98 137 0 104 +17 36 0 34 24 98 33 68 97 0 0 -14 255 158 152 159 ?95 128
 160 5 161 -0 0 95 128 23 81 1 159 741 162 158 163 0 0 164 165 14 95 1 164 ?156
 158 88 5 166 +0 0 156 158 23 14 128 156 167 ?158 168 169 5 170 -0 0 158 168 23
 15 160 408 0 171 158 34 50 255 161 167 0 158 172 170 0 +-.0254 -.0635 .0254 -1
 0 0 0 0 1 13 23 62 0 0 0 0 0 0 9 16 14 16 366 173 ?174 0 28 5 6 +0 0 174 0 23 8
1 1 173 744 162 16 175 0 167 176 177 14 174 297 176 ?103 16 178 5 19 +0 0 103 16
 23 81 1 176 745 162 174 179 0 173 180 181 14 103 166 180 ?82 174 99 5 182 -0 0
 82 174 23 15 178 248 0 87 174 0 51 19 300 183 174 182 6 0 +.0254 -.0381 0 1 -72
849279831047e-29 0 .0254 72849279831047e-29 1 0 81 2 183 301 184 19 0 0 0 18 185
 186 51 182 174 0 103 187 19 0 +0 0 .0254 0 0 -1 .0254 -1 0 0 50 187 173 0 82 18
8 182 0 +.0254 -.0635 .0254 1 0 0 0 0 -1 14 82 164 189 ?190 103 191 5 187 -0 0 1
90 103 23 50 188 171 0 190 192 187 0 +.04445 -544355502220999e-32 .0254 -1 -1092
739197465704e-31 0 1092739197465704e-31 -1 0 14 190 160 193 ?168 82 194 5 188 -0
 0 168 82 23 51 192 170 0 168 170 188 0 -0 0 .0254 0 0 -1 .04445 -1 0 0 14 168 1
58 195 ?128 190 196 5 192 -0 0 128 190 23 50 170 169 0 128 161 192 0 +-.04445 -5
44355502220999e-32 .0254 1 1092739197465704e-31 0 -1092739197465704e-31 1 0 81 1
 195 749 162 168 197 0 193 198 199 15 196 476 0 200 168 152 17 200 0 196 200 200
 0 201 202 0 0 -15 152 157 0 60 168 0 17 60 0 152 135 111 58 154 148 0 129 +17 1
11 0 152 60 133 61 203 107 0 154 +17 133 0 152 111 135 72 71 134 0 0 -17 203 0 2
04 205 63 72 111 107 0 133 -15 204 159 0 205 190 0 17 205 0 204 47 203 48 74 90
 0 0 -17 63 0 204 203 47 61 157 146 0 111 +17 47 0 204 63 205 45 50 119 0 206 +1
7 157 0 153 117 154 45 63 146 0 0 -17 117 0 153 66 157 42 206 109 0 81 +17 66 0
 153 104 117 64 81 143 0 77 -17 206 0 178 50 44 45 117 109 0 157 -17 81 0 76 53
 77 42 66 143 0 0 +17 50 0 178 87 206 48 47 119 0 89 -17 44 0 178 206 87 42 53 8
6 0 117 -17 87 0 178 44 50 51 89 106 0 78 -17 89 0 88 74 78 48 87 106 0 205 +17
 74 0 88 71 89 72 205 90 0 203 +16 90 245 0 ?74 134 79 140 0 0 1 30 140 19 0 90
 92 139 0 +.04445 -544355502220999e-32 .0254 -1092739197465704e-31 1 0 30 92 11
 0 79 102 140 0 +.0254 -.0635 .0254 0 -1 0 31 102 7 0 91 207 92 0 +0 0 .0254 0 0
 -1 1 0 0 .0254 31 207 455 0 144 208 102 0 +-.0254 -.0381 0 -1 0 0 0 0 1 .009525
 16 144 424 0 ?171 105 20 207 0 0 1 31 208 456 0 209 210 207 0 +-.04445 -.0381 0
 1 0 0 0 0 -1 .009525 16 209 423 0 ?211 20 212 208 0 0 1 31 210 457 0 212 213 20
8 0 +.04445 -.0381 0 1 0 0 0 0 -1 .009525 16 212 426 0 ?214 209 202 210 0 0 1 38
 12 CCCCCCCCCCCA17 intersection_data204 0 Z213 502 0 202 215 210 0 +216 217 218
 219 219 220 16 202 485 0 ?201 212 221 213 0 0 1 31 215 503 0 221 0 213 0 +0 .09
017 0 0 1 0 0 0 1 .01524 51 216 499 0 222 223 224 225 +0 -.063501 0 0 1 0 .01524
 0 0 1 51 217 501 0 1 0 223 226 -0 0 .0254 0 0 -1 .04445 -1 0 0 40 255 20 218 0
 1 20 .000935075116819087 .357279540190347 ??0 .04445 .01524 .00488369111840293
 .04418090154195625 .01443631397067936 .0092135099047166 .0434846379223248 .0121
3955663258296 .01266791975519006 .04260664630167535 .00847239098932911 .01478469
1414489 .04191915313765695 .003697363895849975 .01517874275700445 .0417780835883
6825 -.001365052495944482 .01399461945394384 .0421894907096459 -.006033922964315
7 .01138628985772306 .0429669047439528 -.01012965958341706 .00739136542316313 .0
438311557819466 -.01332761483466822 .002465275888281765 .04438158305868165 -.015
0392823896174 -.002539071525525645 .0443774223653004 -.0150269995604001 -.007109
84433112965 .04387770064152295 -.01347990035523644 -.01103192387874196 .04305925
168339135 -.01051447837667864 -.01390652638131088 .0422186099250781 -.0062342701
2615786 -.0151927386411493 .0417729959732568 -.001199288364710346 -.014780523684
61124 .0419206228437585 .00371398971574321 -.01289715615699084 .0425378168582050
5 .00811917256019313 -.00959284601398104 .04340253224585 .0118420819686425 -.005
04554240160191 .0441627105358541 .0143805459518628 3796105086570085e-34 .04445 .
01524 41 3 CI8 term_use0 0 1 cCZ1 219 H?3796105086570085e-34 .04445 .01524 204 2
 17 INTERSECTION_DATA17 Intersection data7 uv_type0 0 1 u6 values0 1 1 fT80 220
 4 0 .107951 1.570796326794895 .01016 .3262067948934475 .1076819015419562 1.6808
8789635505 .01096368602932062 .649214653279779 .1069856379223248 1.7795880982399
25 .01326044336741702 .981313549317916 .1061076463016754 1.85979500394317 .01692
76090106709 1.325741844725402 .105420153137657 1.90987034971147 .02170263610415
 1.660486903324825 .1052790835883682 1.919286393692865 .0267650524959445 1.97787
3129581275 .105690490709646 1.891083963730025 .0314339229643157 2.29785616931500
5 .1064679047439528 1.829843364265175 .03552965958341705 2.63523208028785 .10733
21557819466 1.737857273524715 .03872761483466825 2.9791152154334 .10788258305868
16 1.626286574470735 .0404392823896174 3.30897894540356 .1078784223653004 1.5136
4324795308 .0404269995604001 3.626950851869455 .107378700641523 1.41015480306854
 .03887990035523645 3.951001603254525 .1065602516833914 1.319987806291254 .03591
447837667865 4.290951210507055 .105719609925078 1.252596002333012 .0316342701261
5785 4.6336140706366 .1052739959732568 1.221971234087872 .02659928836471035 4.95
856815023914 .1054216228437584 1.231821725181052 .0216860102842568 5.27424062880
496 .106038816858205 1.276413016532162 .01728082743980685 5.6023377464539 .10690
353224585 1.353272916410992 .0135579180313575 5.9457455339695 .107663710535854 1
.4570406303486 .0110194540481372 2490882602736275e-32 .107951 1.570796326794895
 .01016 50 223 500 0 227 217 216 0 +0 .09017 0 0 1 0 0 0 1 141 255 226 213 226 2
26 217 14 227 486 198 ?222 228 229 5 223 +0 0 222 228 23 81 1 198 750 162 227 23
0 0 195 231 232 14 222 489 231 ?0 227 233 5 216 +0 0 0 227 23 14 228 427 234 ?22
7 235 236 5 224 -235 235 227 235 23 15 229 488 0 237 227 0 17 237 0 229 237 237
 0 238 221 0 0 +17 238 0 233 238 238 0 237 221 0 0 -16 221 482 0 ?237 202 0 215
 0 0 1 15 233 492 0 238 222 239 15 239 493 0 201 222 0 17 201 0 239 201 201 0 20
0 202 0 0 +81 1 234 752 162 228 240 0 231 241 242 14 235 432 241 ?228 156 243 5
 224 -228 228 228 156 23 15 236 430 0 244 228 245 51 224 454 0 228 216 166 0 +.0
4445 -.0381 0 1 0 0 .009525 0 0 -1 50 166 3 0 95 224 172 0 +0 0 .0254 0 0 1 1 0
 0 50 172 126 0 156 166 161 0 +0 0 -.0254 0 0 1 1 0 0 14 156 84 246 ?235 95 153
 5 172 -0 0 235 95 23 81 1 246 754 162 156 247 0 241 0 248 80 255 1 162 249 250
 9000 1 1 1 1 1 1 1 1 0 FFFFTFTFFFFFFF1 81 1 247 706 251 156 0 246 252 253 254 8
1 1 241 753 162 235 253 0 234 246 255 82 255 1 248 1055916152 81 1 253 707 251 2
35 0 241 247 240 256 82 1 255 442630268 80 1 251 0 257 8001 0 0 0 0 3 5 0 0 0 FF
FFTFTFFFFFFF2 81 1 240 708 251 228 0 234 253 230 258 83 255 3 256 .8274509803921
57 .666666666666667 .1294117647058822 81 1 230 709 251 227 0 198 240 259 260 83
 3 258 .827450980392157 .666666666666667 .1294117647058822 81 1 259 710 251 222
 0 231 230 0 261 83 3 260 .827450980392157 .666666666666667 .1294117647058822 81
 1 231 751 162 222 259 0 198 234 262 83 3 261 .827450980392157 .666666666666667
 .1294117647058822 82 1 262 -1665924989 79 255 15 257 SDL/TYSA_COLOUR81 1 252 70
5 251 95 0 164 163 247 263 83 3 254 .827450980392157 .666666666666667 .129411764
7058822 81 1 164 742 162 95 252 0 159 167 264 81 1 163 704 251 158 0 159 265 252
 266 83 3 263 .827450980392157 .666666666666667 .1294117647058822 81 1 265 703 2
51 128 0 167 197 163 267 83 3 266 .827450980392157 .666666666666667 .12941176470
58822 81 1 167 743 162 128 265 0 164 173 268 81 1 197 702 251 168 0 195 269 265
 270 83 3 267 .827450980392157 .666666666666667 .1294117647058822 81 1 269 701 2
51 190 0 193 271 197 272 83 3 270 .827450980392157 .666666666666667 .12941176470
58822 81 1 193 748 162 190 269 0 189 195 273 81 1 271 700 251 82 0 189 274 269 2
75 83 3 272 .827450980392157 .666666666666667 .1294117647058822 81 1 189 747 162
 82 271 0 180 193 276 81 1 274 699 251 103 0 180 179 271 277 83 3 275 .827450980
392157 .666666666666667 .1294117647058822 81 1 180 746 162 103 274 0 176 189 278
 81 1 179 698 251 174 0 176 175 274 279 83 3 277 .827450980392157 .6666666666666
67 .1294117647058822 81 1 175 697 251 16 0 173 0 179 280 83 3 279 .8274509803921
57 .666666666666667 .1294117647058822 83 3 280 .827450980392157 .666666666666667
 .1294117647058822 82 1 278 1059455092 82 1 276 1059192956 82 1 273 1058668668 8
2 1 268 1058144380 82 1 264 1045561464 79 14 250 SWEntUnchanged17 244 0 236 244
 244 0 211 209 0 0 -15 245 431 0 281 228 0 17 281 0 245 281 281 0 171 144 0 0 -1
7 171 0 160 171 171 0 281 144 0 0 +17 211 0 169 211 211 0 244 209 0 0 +15 169 40
0 0 211 128 125 15 243 435 0 214 235 282 17 214 0 243 214 214 0 283 212 0 0 +15
 282 436 0 284 235 0 17 284 0 282 284 284 0 285 20 0 0 -17 285 0 191 285 285 0 2
84 20 0 0 +16 20 425 0 ?285 144 209 7 0 0 1 15 191 392 0 285 82 76 17 283 0 194
 283 283 0 214 212 0 0 -15 194 415 0 283 190 204 82 1 242 443220092 82 1 232 -16
67563389 141 225 213 225 225 216 82 1 199 1058406531 80 2 184 286 287 8044 0 0 0
 0 3 5 0 0 0 FFFFTFFFTTFFFF3 2 81 2 18 370 184 6 0 0 183 0 288 289 84 255 6 185
 EAKBCC83 2 186 1.570796326794895 4.71238898038469 84 6 288 EAKBCC83 2 289 3.141
592653589795 6.28318530717959 79 17 287 SDL/TYSA_BLEND_ID82 1 181 1730543734 82
 1 177 2132082808 82 1 165 1057620092 19 17 184 0 1 0 9 5 S0 74 4 CI16 index_map
_offset0 0 1 dCCZ20 15 10 0 0 246 18 290 291 292 293 294 13 259 2 0 0 0 0 0 0 0
 0 0 0 81 2 290 504 295 1 0 291 0 0 0 296 81 2 291 508 297 1 290 292 0 0 0 298 8
1 1 292 512 299 1 291 293 0 0 300 81 2 293 528 301 1 292 294 0 0 302 0 81 2 294
 588 303 1 293 13 0 0 0 304 81 2 13 694 305 1 294 2 0 0 0 0 80 2 305 306 307 900
0 0 0 0 0 3 5 0 0 0 FFTFFFFFFFFFFF9 1 79 16 307 BODY_RECIPE_200180 2 303 308 309
 9000 0 0 0 0 3 5 0 0 0 FFTFFFFFFFFFFF9 1 82 1 304 1 79 24 309 BODY_IN_LIGHTWEIG
HT_PERM80 2 301 310 311 8004 0 0 0 0 3 5 0 0 0 FFTFFFFFFFFFFF2 3 83 1 302 1 79 1
6 311 SDL/TYSA_DENSITY80 1 299 312 313 9000 1 1 1 1 1 1 1 1 0 FFTFFFFFFFFFFF1 82
 1 300 278096 79 10 313 BODY_MATCH80 2 297 314 315 9000 0 0 0 0 3 5 0 0 0 FFTFFF
FFFFFFFF9 1 82 1 298 66 79 30 315 LAST_BODY_MODIFYING_FEATURE_ID80 2 295 316 317
 9000 0 0 0 0 3 5 0 0 0 FFTFFFFFFFFFFT9 1 82 1 296 111 79 19 317 ENT_TIME_STAMP_
200180 2 12 318 319 9000 0 0 0 0 3 5 0 0 0 FFTFFFFFFFFFFF9 1 82 1 14 103 79 12 3
19 ATOM_ID_20011 0 
