**ABCDEFGHIJKLMNOPQRSTUVWXYZabcdefghijklmnopqrstuvwxyz**************************
**PARASOLID !"#$%&'()*+,-./:;<=>?@[\]^_`{|}~0123456789**************************
**PART1;
MC=AMD64;
MC_MODEL=Intel64 Family 6 Model 142 Stepping 12, GenuineIntel;
MC_ID=unknown;
OS=Windows_NT;
OS_RELEASE=unknown;
FRU=Parasolid Version 33.1, build 247,  8- 6-2021;
APPL=SOLIDWORKS 2022-2022009;
SITE=;
USER=unknown;
FORMAT=text;
GUISE=transmit;
KEY=FILEArm 2003091.x_t;
DATE=Thu Jun 15 06:32:02 2023;
**PART2;
SCH=SCH_3301247_33103;
USFLD_SIZE=0;
**PART3;
**END_OF_HEADER*****************************************************************
T51 : TRANSMIT FILE created by modeller version 330124723 SCH_3301247_33103_1300
6230 0 12 35 CCCI7 lattice222 0 CCCI4 mesh1006 0 I8 polyline1008 0 CCCCCCCDI5 ow
ner1040 0 CCCCCCI13 boundary_mesh1006 0 I17 boundary_polyline1008 0 CCCA16 index
_map_offset0 0 1 dA9 index_map82 0 A17 node_id_index_map82 0 A20 schema_embeddin
g_map82 0 A5 child12 0 A14 lowest_node_id0 0 1 dA16 mesh_offset_data206 0 Z1 452
 2 3 0 0 0 0 0 0 0 1e3 1e-8 0 4 0 1 0 1 1 5 6 7 8 0 0 9 10 11 0 0 0 0 0 0 0 81 2
55 2 2 439 12 1 13 0 0 0 0 14 70 11 CI9 list_type0 0 1 uI10 notransmit0 0 1 lCCC
DCCDI12 finger_index0 0 1 dI12 finger_block1012 0 CZ3 0 4 T1 0 0 9 20 1 15 15 13
 255 5 272 0 1 0 16 0 0 17 0 51 255 6 263 0 18 19 0 0 -0 0 .003175 0 0 -1 .00317
5 -1 0 0 30 255 7 271 0 10 20 0 0 +.00918388178931443 -.01482592201527412 .00317
5 0 0 -1 29 255 8 209 0 21 22 0 .0127 -.05715 0 19 8 CCCCCCCA5 owner12 0 Z9 90 0
 1 17 0 23 V0 16 255 10 224 0 ?24 0 25 7 0 0 1 18 255 11 85 0 26 0 27 28 ?1 17 2
55 26 0 29 30 31 11 32 33 0 34 +18 27 82 0 32 11 35 36 ?1 29 28 87 0 11 36 37 .0
127 -.05715 .003175 29 36 84 0 27 38 28 -.0127 -.05715 .003175 29 37 216 0 39 28
 40 .00918388178931443 -.01482592201527412 0 18 39 196 0 24 41 0 37 ?1 29 40 215
 0 41 37 42 .0155120818780171 -.0079502 0 18 41 195 0 43 44 39 40 ?1 29 42 214 0
 44 40 45 .034925 -.0079502 0 18 44 194 0 46 47 41 42 ?1 29 45 213 0 47 42 48 .0
34925 .0079502 0 18 47 193 0 49 50 44 45 ?1 29 48 212 0 50 45 51 914410568069825
e-40 .0079502 0 18 50 192 0 52 53 47 48 ?1 29 51 211 0 53 48 22 -.0079502 -10842
02172485504e-34 0 18 53 191 0 54 55 50 51 ?1 29 22 210 0 55 51 8 -.0127 -.05715
 0 18 55 190 0 56 21 53 22 ?1 17 56 0 57 54 58 55 59 60 0 61 -18 21 189 0 62 63
 55 8 ?1 17 62 0 64 65 66 21 34 67 0 59 +18 63 64 0 68 69 21 70 ?1 17 68 0 64 66
 65 63 24 10 0 71 -18 69 67 0 72 73 63 74 ?1 29 70 66 0 63 0 74 .009183881789314
43 -.01482592201527412 .003175 29 74 69 0 69 70 75 .0155120818780171 -.0079502 .
003175 29 75 72 0 73 74 76 .034925 -.0079502 .003175 18 73 70 0 77 78 69 75 ?1 2
9 76 75 0 78 75 79 .034925 .0079502 .003175 18 78 73 0 80 81 73 76 ?1 29 79 78 0
 81 76 38 914410568069825e-40 .0079502 .003175 18 81 76 0 82 35 78 79 ?1 29 38 8
1 0 35 79 36 -.0079502 -1084202172485504e-34 .003175 18 35 79 0 83 27 81 38 ?1 1
7 83 0 84 85 86 35 31 87 0 88 -15 255 84 227 0 89 90 0 17 85 0 84 89 83 53 91 92
 0 93 +17 86 0 84 83 89 27 61 94 0 0 -17 31 0 29 26 88 27 83 87 0 86 +16 87 54 0
 ?31 33 95 96 0 0 1 17 88 0 29 31 97 35 82 95 0 91 +15 29 8 0 30 98 0 17 97 0 29
 88 99 81 80 100 0 101 +17 82 0 102 103 91 81 88 95 0 97 -16 95 49 0 ?88 87 100
 104 0 0 1 17 91 0 102 82 93 35 85 92 0 0 -15 102 229 0 93 105 0 17 93 0 102 91
 103 53 52 106 0 0 +16 92 219 0 ?85 107 94 108 0 0 1 16 107 220 0 ?103 109 92 11
0 0 0 1 16 94 218 0 ?61 92 67 111 0 0 1 30 108 266 0 92 111 110 0 +-.0079502 -10
84202172485504e-34 .003175 0 0 -1 30 111 265 0 94 112 108 0 +-.0127 -.05715 .003
175 0 0 -1 30 110 267 0 107 108 113 0 +914410568069825e-40 .0079502 .003175 0 0
 -1 30 113 268 0 109 110 114 0 +.034925 .0079502 .003175 0 0 -1 16 109 221 0 ?11
5 116 107 113 0 0 1 30 114 269 0 116 113 20 0 +.034925 -.0079502 .003175 0 0 -1
 16 116 222 0 ?117 25 109 114 0 0 1 30 20 270 0 25 114 7 0 +.0155120818780171 -.
0079502 .003175 0 0 -1 16 25 223 0 ?118 10 116 20 0 0 1 17 118 0 119 120 72 41 1
21 25 0 122 +15 119 235 0 120 123 0 17 120 0 119 124 118 44 43 125 0 0 +17 72 0
 119 118 124 69 126 127 0 128 -17 121 0 129 71 122 69 118 25 0 0 -17 122 0 129 1
21 24 41 130 131 0 0 +15 129 237 0 122 132 0 17 24 0 129 122 71 39 68 10 0 130 +
17 130 0 57 58 43 39 122 131 0 65 -16 131 164 0 ?122 125 133 134 0 0 1 16 125 15
9 0 ?120 135 131 136 0 0 1 16 133 169 0 ?58 131 137 138 0 0 1 31 255 134 204 0 1
31 138 136 0 -.0155120818780171 -.0143002 0 0 0 1 1 0 0 .00635 30 138 205 0 133
 139 134 0 +.00789769540033013 .000656109523037215 0 .0827908685471065 -.9965669
43102778 0 30 136 203 0 125 134 140 0 +284169510056165e-32 -.0079502 0 1 3574369
324748615e-31 0 31 140 202 0 135 136 141 0 +.034925 0 0 0 0 1 1 0 0 .0079502 16
 135 154 0 ?142 143 125 140 0 0 1 30 141 201 0 143 140 144 0 +789772287971986e-3
3 .0079502 0 -1 993399270423369e-31 0 16 143 149 0 ?145 106 135 141 0 0 1 31 144
 200 0 106 141 146 0 +0 0 0 0 0 1 1 0 0 .0079502 16 106 144 0 ?93 147 143 144 0
 0 1 30 146 199 0 147 144 148 0 +-.00789566106238213 .000656217163851315 0 -.082
8255464522355 -.996564061591069 0 16 147 139 0 ?89 60 106 146 0 0 1 31 148 198 0
 60 146 112 0 +0 -.05715 0 0 0 1 1 0 0 .0127 16 60 134 0 ?59 149 147 148 0 0 1 3
0 112 264 0 67 148 111 0 +.0127 -.05715 .003175 0 0 -1 16 67 217 0 ?62 94 33 112
 0 0 1 16 33 59 0 ?26 67 87 150 0 0 1 31 150 61 0 33 96 151 0 +0 -.05715 .003175
 0 0 1 1 0 0 .0127 30 96 56 0 87 104 150 0 +-.00789566106238213 .000656217163851
315 .003175 -.0828255464522355 -.996564061591069 0 31 151 208 0 152 150 153 0 +0
 0 0 0 0 1 1 0 0 .003175 16 152 184 0 ?154 155 0 151 0 0 1 31 153 207 0 155 151
 139 0 +.034925 0 0 0 0 1 1 0 0 .003175 16 155 179 0 ?156 137 152 153 0 0 1 31 1
39 206 0 137 153 138 0 +0 -.05715 0 0 0 1 1 0 0 .003175 16 137 174 0 ?157 133 15
5 139 0 0 1 17 157 0 158 157 157 0 159 137 0 0 +15 158 132 0 157 160 57 17 159 0
 161 159 159 0 157 137 0 0 -15 161 243 0 159 162 0 14 255 162 242 163 ?164 90 16
5 5 166 +0 0 164 90 23 81 1 163 440 167 162 168 0 0 169 170 14 164 246 169 ?18 1
62 171 5 19 +0 0 18 162 23 14 90 228 172 ?162 105 84 5 173 -0 0 162 105 23 15 16
5 241 0 174 162 161 51 166 261 0 162 175 19 0 -0 -.05715 .003175 0 0 -1 .003175
 -1 0 0 13 23 91 0 0 0 0 0 0 9 16 14 16 240 176 ?132 0 64 5 175 +0 0 132 0 23 81
 1 176 443 167 16 177 0 172 178 179 14 132 238 178 ?123 16 129 5 180 -0 0 123 16
 23 15 64 239 0 65 16 0 50 255 175 260 0 16 180 166 0 +.00789769540033013 .00065
6109523037215 .003175 .996566943102778 .0827908685471065 0 -.0827908685471065 .9
96566943102778 0 51 180 259 0 132 181 175 0 +.0155120818780171 -.0143002 .003175
 0 0 -1 .00635 -1 0 0 50 181 258 0 123 182 180 0 +284169510056165e-32 -.0079502
 .003175 -3574369324748615e-31 1 0 -1 -3574369324748615e-31 0 14 123 236 183 ?18
4 132 119 5 181 -0 0 184 132 23 51 182 257 0 184 185 181 0 -.034925 0 .003175 0
 0 -1 .0079502 -1 0 0 14 184 234 186 ?187 123 188 5 182 -0 0 187 123 23 50 185 2
56 0 187 189 182 0 +789772287971986e-33 .0079502 .003175 -993399270423369e-31 -1
 0 1 -993399270423369e-31 0 14 187 232 190 ?105 184 191 5 185 -0 0 105 184 23 51
 189 255 0 105 173 185 0 -0 0 .003175 0 0 -1 .0079502 -1 0 0 14 105 230 192 ?90
 187 102 5 189 -0 0 90 187 23 50 173 254 0 90 193 189 0 +-.00789566106238213 .00
0656217163851315 .003175 .996564061591069 -.0828255464522355 0 .0828255464522355
 .996564061591069 0 51 193 253 0 194 195 173 0 -0 -.05715 .003175 0 0 -1 .0127 -
1 0 0 14 194 226 196 ?98 18 197 5 193 -0 0 98 18 23 50 195 197 0 160 198 193 0 +
0 0 0 0 0 1 1 0 0 14 160 128 199 ?0 98 200 5 195 -0 0 0 98 23 50 198 3 0 98 0 19
5 0 +0 0 .003175 0 0 1 1 0 0 14 98 1 201 ?160 194 202 5 198 +0 0 160 194 23 81 1
 201 451 167 98 203 0 199 204 205 15 202 5 0 206 98 207 17 206 0 202 206 206 0 2
08 149 0 0 -15 207 6 0 209 98 210 17 209 0 207 209 209 0 211 212 0 0 -15 210 7 0
 213 98 29 17 213 0 210 213 213 0 174 214 0 0 -17 174 0 165 174 174 0 213 214 0
 0 +16 214 19 0 ?174 215 212 216 0 0 1 16 215 24 0 ?66 217 214 218 0 0 1 16 212
 14 0 ?211 214 149 219 0 0 1 31 216 21 0 214 219 218 0 +0 -.05715 .003175 0 0 1
 1 0 0 .003175 31 219 16 0 212 220 216 0 +.034925 0 .003175 0 0 1 1 0 0 .003175
 30 218 26 0 215 216 221 0 +.00789769540033013 .000656109523037215 .003175 .0827
908685471065 -.996566943102778 0 31 221 31 0 217 218 222 0 -.0155120818780171 -.
0143002 .003175 0 0 1 1 0 0 .00635 16 217 29 0 ?128 127 215 221 0 0 1 30 222 36
 0 127 221 223 0 +284169510056165e-32 -.0079502 .003175 1 3574369324748615e-31 0
 16 127 34 0 ?126 224 217 222 0 0 1 31 223 41 0 224 222 225 0 +.034925 0 .003175
 0 0 1 1 0 0 .0079502 16 224 39 0 ?99 100 127 223 0 0 1 30 225 46 0 100 223 104
 0 +789772287971986e-33 .0079502 .003175 -1 993399270423369e-31 0 16 100 44 0 ?9
7 95 224 225 0 0 1 31 104 51 0 95 225 96 0 +0 0 .003175 0 0 1 1 0 0 .0079502 17
 99 0 29 97 126 78 77 224 0 226 +17 126 0 29 99 128 73 72 127 0 124 +17 77 0 188
 117 226 73 99 224 0 126 -17 226 0 188 77 142 78 115 109 0 0 -15 188 233 0 142 1
84 0 17 142 0 188 226 117 47 46 135 0 0 +17 115 0 191 145 80 47 226 109 0 142 +1
5 191 231 0 145 187 0 17 145 0 191 101 115 50 49 143 0 0 +17 80 0 191 115 101 78
 97 100 0 99 -17 101 0 191 80 145 81 103 107 0 0 -17 103 0 102 93 82 50 101 107
 0 145 +17 49 0 57 46 52 47 145 143 0 115 -15 57 133 0 58 160 0 17 46 0 57 43 49
 44 142 135 0 117 -17 52 0 57 49 54 50 93 106 0 103 -17 54 0 57 52 56 53 89 147
 0 85 -17 89 0 84 86 85 55 54 147 0 0 +17 43 0 57 130 46 41 120 125 0 118 -17 11
7 0 188 142 77 44 124 116 0 120 +17 124 0 119 72 120 73 117 116 0 0 -17 58 0 57
 56 130 21 65 133 0 0 +17 65 0 64 68 62 39 58 133 0 0 -17 128 0 29 126 30 69 71
 217 0 121 +17 30 0 29 128 26 63 66 215 0 0 -17 71 0 129 24 121 63 128 217 0 30
 -17 66 0 64 62 68 11 30 215 0 0 +31 220 11 0 149 0 219 0 +0 0 .003175 0 0 1 1 0
 0 .003175 16 149 9 0 ?208 212 60 220 0 0 1 17 208 0 227 208 208 0 206 149 0 0 +
15 227 249 0 208 18 228 14 18 250 204 ?194 164 227 5 6 +0 0 194 164 23 15 228 25
1 0 229 18 0 17 229 0 228 229 229 0 154 152 0 0 -17 154 0 200 154 154 0 229 152
 0 0 +15 200 130 0 154 160 230 15 230 131 0 156 160 158 17 156 0 230 156 156 0 2
31 155 0 0 +17 231 0 232 231 231 0 156 155 0 0 -15 232 247 0 231 164 0 81 1 204
 452 167 18 233 0 201 0 234 80 255 1 167 235 236 9000 1 1 1 1 1 1 1 1 0 FFFFTFTF
FFFFFF1 81 1 233 408 237 18 0 204 238 239 240 82 255 1 234 -645463948 80 1 237 0
 241 8001 0 0 0 0 3 5 0 0 0 FFFFTFTFFFFFFF2 81 1 238 407 237 164 0 169 168 233 2
42 81 1 239 409 237 194 0 196 233 203 243 83 255 3 240 1 1 1 81 1 196 449 167 19
4 239 0 192 199 244 81 1 203 410 237 98 0 201 239 245 246 83 3 243 1 1 1 81 1 24
5 411 237 160 0 199 203 0 247 83 3 246 1 1 1 81 1 199 450 167 160 245 0 196 201
 248 83 3 247 1 1 1 82 1 248 -650968972 81 1 192 448 167 105 249 0 190 196 250 8
2 1 244 -648085388 81 1 249 404 237 105 0 192 251 252 253 81 1 190 447 167 187 2
51 0 186 192 254 82 1 250 -647561100 81 1 251 403 237 187 0 190 255 249 256 81 1
 186 446 167 184 255 0 183 190 257 82 1 254 -647298956 81 1 255 402 237 184 0 18
6 258 251 259 81 1 183 445 167 123 258 0 178 186 260 82 1 257 -647036812 81 1 25
8 401 237 123 0 183 261 255 262 81 1 178 444 167 132 261 0 176 183 263 82 1 260
 -646774668 81 1 261 400 237 132 0 178 177 258 264 82 1 263 -646512524 81 1 177
 399 237 16 0 176 0 261 265 83 3 264 1 1 1 83 3 265 1 1 1 83 3 262 1 1 1 83 3 25
9 1 1 1 83 3 256 1 1 1 81 1 252 405 237 90 0 172 249 168 266 83 3 253 1 1 1 81 1
 172 442 167 90 252 0 169 176 267 81 1 168 406 237 162 0 163 252 238 268 83 3 26
6 1 1 1 83 3 268 1 1 1 81 1 169 441 167 164 238 0 163 172 269 82 1 267 -64782324
4 82 1 269 -645726092 83 3 242 1 1 1 79 255 15 241 SDL/TYSA_COLOUR79 14 236 SWEn
tUnchanged17 211 0 171 211 211 0 209 212 0 0 +15 171 245 0 211 164 232 82 1 205
 -665714572 15 197 225 0 59 194 0 17 59 0 197 34 61 21 56 60 0 58 +17 34 0 197 3
2 59 11 62 67 0 66 -17 61 0 197 59 32 55 86 94 0 89 +17 32 0 197 61 34 27 26 33
 0 31 -82 1 179 -646250380 51 19 262 0 164 166 6 0 -.034925 0 .003175 0 0 -1 .00
3175 -1 0 0 82 1 170 -645988236 19 17 273 0 1 0 9 5 S0 74 4 CI16 index_map_offse
t0 0 1 dCCZ20 15 9 0 0 270 271 272 204 273 274 13 245 2 0 0 0 0 0 0 0 0 0 0 0 81
 2 270 88 275 1 0 271 0 0 0 276 81 5 271 89 277 1 270 272 0 0 278 0 0 0 0 81 2 2
72 328 279 1 271 273 0 0 0 280 81 1 273 342 281 1 272 274 0 0 282 81 2 274 357 2
83 1 273 13 0 0 0 284 81 2 13 396 285 1 274 2 0 0 0 0 80 2 285 286 287 9000 0 0
 0 0 3 5 0 0 0 FFTFFFFFFFFFFF9 1 79 16 287 BODY_RECIPE_200180 2 283 288 289 9000
 0 0 0 0 3 5 0 0 0 FFTFFFFFFFFFFF9 1 82 1 284 1 79 24 289 BODY_IN_LIGHTWEIGHT_PE
RM80 1 281 290 291 9000 1 1 1 1 1 1 1 1 0 FFTFFFFFFFFFFF1 82 1 282 3725392 79 10
 291 BODY_MATCH80 2 279 292 293 9000 0 0 0 0 3 5 0 0 0 FFTFFFFFFFFFFF9 1 82 1 28
0 53 79 30 293 LAST_BODY_MODIFYING_FEATURE_ID80 5 277 294 295 9000 0 0 0 0 3 6 0
 0 0 FFTTTTTTFTTFTT2 2 2 2 2 83 1 278 1 79 19 295 BODY_SCALING_FACTOR80 2 275 29
6 297 9000 0 0 0 0 3 5 0 0 0 FFTFFFFFFFFFFT9 1 82 1 276 103 79 19 297 ENT_TIME_S
TAMP_200180 2 12 298 299 9000 0 0 0 0 3 5 0 0 0 FFTFFFFFFFFFFF9 1 82 1 14 101 79
 12 299 ATOM_ID_20011 0 
