**ABCDEFGHIJKLMNOPQRSTUVWXYZabcdefghijklmnopqrstuvwxyz**************************
**PARASOLID !"#$%&'()*+,-./:;<=>?@[\]^_`{|}~0123456789**************************
**PART1;
MC=AMD64;
MC_MODEL=Intel64 Family 6 Model 142 Stepping 12, GenuineIntel;
MC_ID=unknown;
OS=Windows_NT;
OS_RELEASE=unknown;
FRU=Parasolid Version 33.1, build 247,  8- 6-2021;
APPL=SOLIDWORKS 2022-2022009;
SITE=;
USER=unknown;
FORMAT=text;
GUISE=transmit;
KEY=FILECoverplate.x_t;
DATE=Thu Jun 15 06:32:14 2023;
**PART2;
SCH=SCH_3301247_33103;
USFLD_SIZE=0;
**PART3;
**END_OF_HEADER*****************************************************************
T51 : TRANSMIT FILE created by modeller version 330124723 SCH_3301247_33103_1300
6230 0 12 35 CCCI7 lattice222 0 CCCI4 mesh1006 0 I8 polyline1008 0 CCCCCCCDI5 ow
ner1040 0 CCCCCCI13 boundary_mesh1006 0 I17 boundary_polyline1008 0 CCCA16 index
_map_offset0 0 1 dA9 index_map82 0 A17 node_id_index_map82 0 A20 schema_embeddin
g_map82 0 A5 child12 0 A14 lowest_node_id0 0 1 dA16 mesh_offset_data206 0 Z1 172
5 2 3 0 0 0 0 0 0 0 1e3 1e-8 0 4 0 1 0 1 1 5 6 7 8 0 0 9 10 11 0 0 0 0 0 0 0 81
 255 2 2 1691 12 1 13 0 0 0 0 14 70 11 CI9 list_type0 0 1 uI10 notransmit0 0 1 l
CCCDCCDI12 finger_index0 0 1 dI12 finger_block1012 0 CZ3 0 4 T1 0 0 9 20 1 15 15
 13 255 5 529 0 1 0 16 0 0 17 0 51 255 6 1243 0 18 19 0 0 +-.0064008 .020574 584
2e-7 0 0 -1 .001524 -1 0 0 31 255 7 1104 0 10 20 0 0 --.0064008 .020574 5842e-7
 0 0 1 1 0 0 .001524 29 255 8 1034 0 11 21 0 -.0064008 .01905 5842e-7 19 8 CCCCC
CCA5 owner12 0 Z9 180 0 1 17 0 22 V0 16 255 10 1089 0 ?23 0 24 7 0 0 1 18 255 11
 1032 0 25 0 26 8 ?1 17 255 25 0 27 28 29 11 30 31 0 32 +18 26 1029 0 33 11 34 2
1 ?1 17 33 0 35 32 36 26 37 38 0 28 +18 34 1026 0 39 26 40 41 ?1 29 21 1031 0 26
 41 8 -.001524 .01905 5842e-7 29 41 1028 0 34 42 21 -.0064008 .01905 -5842e-7 29
 42 1025 0 40 43 41 -.001524 .01905 -5842e-7 18 40 1023 0 44 34 45 42 ?1 29 43 1
012 0 45 46 42 0 .020574 5842e-7 18 45 1010 0 47 40 48 43 ?1 29 46 1009 0 48 49
 43 0 .030226 5842e-7 18 48 1007 0 50 45 51 46 ?1 29 49 1006 0 51 52 46 0 .02057
4 -5842e-7 18 51 1004 0 53 48 54 49 ?1 29 52 1003 0 54 55 49 0 .030226 -5842e-7
 18 54 1001 0 56 51 57 52 ?1 29 55 990 0 57 58 52 -.0079248 .020574 5842e-7 18 5
7 988 0 23 54 59 55 ?1 29 58 987 0 59 60 55 -.0079248 .030226 5842e-7 18 59 985
 0 61 57 62 58 ?1 29 60 984 0 62 63 58 -.0079248 .020574 -5842e-7 18 62 982 0 64
 59 65 60 ?1 29 63 981 0 65 66 60 -.0079248 .030226 -5842e-7 18 65 979 0 67 62 6
8 63 ?1 29 66 968 0 68 69 63 -.0064008 .03175 5842e-7 18 68 966 0 70 65 71 66 ?1
 29 69 965 0 71 72 66 -.001524 .03175 5842e-7 18 71 963 0 73 68 74 69 ?1 29 72 9
62 0 74 75 69 -.0064008 .03175 -5842e-7 18 74 960 0 76 71 77 72 ?1 29 75 959 0 7
7 78 72 -.001524 .03175 -5842e-7 18 77 957 0 79 74 80 75 ?1 29 78 951 0 80 81 75
 .007874 .03175 5842e-7 18 80 949 0 82 77 83 78 ?1 29 81 948 0 83 84 78 .007874
 .03175 -5842e-7 18 83 946 0 85 80 86 81 ?1 29 84 940 0 86 87 81 .007874 .01905
 5842e-7 18 86 938 0 88 83 89 84 ?1 29 87 937 0 89 90 84 .007874 .01905 -5842e-7
 18 89 935 0 91 86 92 87 ?1 29 90 924 0 92 93 87 .00635 .020574 5842e-7 18 92 92
2 0 94 89 95 90 ?1 29 93 921 0 95 96 90 .00635 .030226 5842e-7 18 95 919 0 97 92
 98 93 ?1 29 96 918 0 98 99 93 .00635 .020574 -5842e-7 18 98 916 0 100 95 101 96
 ?1 29 99 915 0 101 102 96 .00635 .030226 -5842e-7 18 101 913 0 103 98 104 99 ?1
 29 102 737 0 104 105 99 -.0200152 .00635 5842e-7 18 104 735 0 106 101 107 102 ?
1 29 105 734 0 107 108 102 -.0238252 .01016 5842e-7 18 107 732 0 109 104 110 105
 ?1 29 108 731 0 110 111 105 -.0238252 .04064 5842e-7 18 110 729 0 112 107 113 1
08 ?1 29 111 728 0 113 114 108 -.0200152 .04445 5842e-7 18 113 726 0 115 110 116
 111 ?1 29 114 725 0 116 117 111 .0142748 .01016 5842e-7 18 116 723 0 118 113 11
9 114 ?1 29 117 722 0 119 120 114 .0104648 .00635 5842e-7 18 119 720 0 121 116 1
22 117 ?1 29 120 714 0 122 123 117 .0142748 .04064 5842e-7 18 122 712 0 124 119
 125 120 ?1 29 123 691 0 125 126 120 .0104648 .00635 -5842e-7 18 125 689 0 127 1
22 128 123 ?1 29 126 688 0 128 129 123 .0142748 .01016 -5842e-7 18 128 686 0 130
 125 131 126 ?1 29 129 685 0 131 132 126 .0142748 .04064 -5842e-7 18 131 683 0 1
33 128 134 129 ?1 29 132 682 0 134 135 129 -.0200152 .04445 -5842e-7 18 134 680
 0 136 131 137 132 ?1 29 135 679 0 137 138 132 -.0238252 .01016 -5842e-7 18 137
 677 0 139 134 140 135 ?1 29 138 676 0 140 141 135 -.0238252 .04064 -5842e-7 18
 140 674 0 142 137 143 138 ?1 29 141 673 0 143 144 138 -.0200152 .00635 -5842e-7
 18 143 671 0 145 140 146 141 ?1 29 144 665 0 146 147 141 .0104648 .04445 5842e-
7 18 146 663 0 148 143 149 144 ?1 29 147 662 0 149 150 144 .0104648 .04445 -5842
e-7 18 149 660 0 151 146 152 147 ?1 29 150 399 0 153 154 147 -.00461254227538508
 .001419411764705882 -5842e-7 18 153 356 0 155 156 157 150 ?1 29 154 400 0 157 1
58 150 -.00825402301911014 .00635 -5842e-7 18 157 357 0 159 153 160 154 ?1 29 15
8 403 0 160 161 154 -.01780442301911015 .04445 -5842e-7 18 160 360 0 162 157 163
 158 ?1 29 161 404 0 163 164 158 -.01416294227538508 .0493805882352941 -5842e-7
 18 163 361 0 165 160 166 161 ?1 29 164 405 0 166 167 161 -.00493785772461493 .0
493805882352941 -5842e-7 18 166 362 0 168 163 169 164 ?1 29 167 406 0 169 170 16
4 -.00129637698088987 .04445 -5842e-7 18 169 363 0 171 166 172 167 ?1 29 170 408
 0 172 173 167 .0142748 .03175 -5842e-7 18 172 365 0 174 169 175 170 ?1 29 173 4
11 0 175 176 170 .0142748 .01905 -5842e-7 18 175 368 0 177 172 178 173 ?1 29 176
 413 0 178 179 173 .00825402301911014 .00635 -5842e-7 18 178 370 0 180 175 181 1
76 ?1 29 179 414 0 181 182 176 .00461254227538508 .001419411764705884 -5842e-7 1
8 181 371 0 183 178 0 179 ?1 29 182 178 0 152 184 179 -.00461254227538508 .00141
9411764705882 5842e-7 18 152 176 0 185 149 186 182 ?1 29 184 175 0 186 187 182 -
.00825402301911014 .00635 5842e-7 18 186 173 0 188 152 189 184 ?1 29 187 166 0 1
89 190 184 -.01780442301911015 .04445 5842e-7 18 189 164 0 191 186 192 187 ?1 29
 190 163 0 192 193 187 -.01416294227538508 .0493805882352941 5842e-7 18 192 161
 0 194 189 195 190 ?1 29 193 160 0 195 196 190 -.00493785772461493 .049380588235
2941 5842e-7 18 195 158 0 197 192 198 193 ?1 29 196 157 0 198 199 193 -.00129637
698088987 .04445 5842e-7 18 198 155 0 200 195 201 196 ?1 29 199 151 0 201 202 19
6 .0142748 .03175 5842e-7 18 201 149 0 203 198 204 199 ?1 29 202 142 0 204 205 1
99 .0142748 .01905 5842e-7 18 204 140 0 206 201 207 202 ?1 29 205 136 0 207 208
 202 .00825402301911014 .00635 5842e-7 18 207 134 0 209 204 156 205 ?1 29 208 13
3 0 156 0 205 .00461254227538508 .001419411764705884 5842e-7 18 156 131 0 210 20
7 153 208 ?1 17 210 0 211 212 213 156 209 214 0 215 -15 255 211 467 0 180 216 0
 17 212 0 211 180 210 181 217 218 0 219 +17 213 0 211 210 180 207 220 221 0 222
 -17 209 0 223 224 215 207 210 214 0 213 +16 214 44 0 ?209 225 226 227 0 0 1 17
 215 0 223 209 228 156 229 226 0 217 +15 223 8 0 230 231 0 17 228 0 223 215 188
 152 232 233 0 0 -17 229 0 234 155 217 152 215 226 0 228 -16 226 39 0 ?215 214 2
35 236 0 0 1 17 217 0 234 229 219 156 212 218 0 0 -15 234 469 0 219 16 0 17 219
 0 234 217 155 181 237 238 0 0 +16 218 434 0 ?212 239 221 240 0 0 1 16 239 666 0
 ?241 242 218 243 0 0 1 16 221 433 0 ?220 218 244 245 0 0 1 30 255 240 524 0 218
 245 243 0 +.00461254227538508 .001419411764705884 5842e-7 0 0 -1 30 245 523 0 2
21 246 240 0 +.00825402301911014 .00635 5842e-7 0 0 -1 30 243 668 0 239 240 247
 0 +.0104648 .04445 5842e-7 0 0 -1 31 247 694 0 242 243 248 0 --.0200152 .04064
 -5842e-7 0 0 1 1 0 0 .00381 16 242 692 0 ?136 249 239 247 0 0 1 31 248 699 0 24
9 247 250 0 --.0200152 .01016 -5842e-7 0 0 1 1 0 0 .00381 16 249 697 0 ?139 251
 242 248 0 0 1 31 250 704 0 251 248 252 0 -.0104648 .01016 -5842e-7 0 0 1 1 0 0
 .00381 16 251 702 0 ?127 253 249 250 0 0 1 31 252 709 0 253 250 254 0 -.0104648
 .04064 -5842e-7 0 0 1 1 0 0 .00381 16 253 707 0 ?133 255 251 252 0 0 1 30 254 7
17 0 255 252 256 0 -.0142748 .04064 5842e-7 0 0 -1 16 255 715 0 ?124 257 253 254
 0 0 1 31 256 740 0 257 254 258 0 +-.0200152 .04064 5842e-7 0 0 1 1 0 0 .00381 1
6 257 738 0 ?112 259 255 256 0 0 1 31 258 745 0 259 256 260 0 +-.0200152 .01016
 5842e-7 0 0 1 1 0 0 .00381 16 259 743 0 ?106 261 257 258 0 0 1 31 260 750 0 261
 258 262 0 +.0104648 .01016 5842e-7 0 0 1 1 0 0 .00381 16 261 748 0 ?118 263 259
 260 0 0 1 31 262 755 0 263 260 264 0 +.0104648 .04064 5842e-7 0 0 1 1 0 0 .0038
1 16 263 753 0 ?148 265 261 262 0 0 1 30 264 760 0 265 262 266 0 +.0142748 .0101
6 -5842e-7 0 0 -1 16 265 758 0 ?267 268 263 264 0 0 1 30 266 765 0 268 264 269 0
 -.0104648 .00635 5842e-7 0 0 -1 16 268 763 0 ?121 270 265 266 0 0 1 30 269 770
 0 270 266 271 0 +-.0200152 .00635 5842e-7 0 0 -1 16 270 768 0 ?272 273 268 269
 0 0 1 30 271 775 0 273 269 274 0 +-.0238252 .04064 -5842e-7 0 0 -1 16 273 773 0
 ?275 276 270 271 0 0 1 30 274 780 0 276 271 277 0 --.0238252 .01016 5842e-7 0 0
 -1 16 276 778 0 ?109 278 273 274 0 0 1 30 277 785 0 278 274 279 0 --.0200152 .0
4445 5842e-7 0 0 -1 16 278 783 0 ?115 280 276 277 0 0 1 30 279 927 0 280 277 281
 0 -.00635 .030226 5842e-7 0 0 -1 16 280 925 0 ?97 282 278 279 0 0 1 30 281 932
 0 282 279 283 0 +.00635 .020574 5842e-7 0 0 -1 16 282 930 0 ?284 285 280 281 0
 0 1 30 283 943 0 285 281 286 0 -.007874 .01905 5842e-7 0 0 -1 16 285 941 0 ?88
 287 282 283 0 0 1 30 286 954 0 287 283 288 0 +.007874 .03175 -5842e-7 0 0 -1 16
 287 952 0 ?289 290 285 286 0 0 1 30 288 971 0 290 286 291 0 --.001524 .03175 58
42e-7 0 0 -1 16 290 969 0 ?73 292 287 288 0 0 1 30 291 976 0 292 288 293 0 +-.00
64008 .03175 -5842e-7 0 0 -1 16 292 974 0 ?294 295 290 291 0 0 1 30 293 993 0 29
5 291 296 0 +-.0079248 .020574 5842e-7 0 0 -1 16 295 991 0 ?297 298 292 293 0 0
 1 30 296 998 0 298 293 299 0 --.0079248 .030226 5842e-7 0 0 -1 16 298 996 0 ?61
 300 295 296 0 0 1 30 299 1015 0 300 296 301 0 -0 .020574 5842e-7 0 0 -1 16 300
 1013 0 ?47 302 298 299 0 0 1 30 301 1020 0 302 299 303 0 +0 .030226 5842e-7 0 0
 -1 16 302 1018 0 ?304 31 300 301 0 0 1 30 303 1037 0 31 301 305 0 --.0064008 .0
1905 5842e-7 0 0 -1 16 31 1035 0 ?25 306 302 303 0 0 1 30 305 1042 0 306 303 307
 0 +-.001524 .01905 -5842e-7 0 0 -1 16 306 1040 0 ?308 309 31 305 0 0 1 31 307 1
093 0 309 305 310 0 +.007874 .020574 -5842e-7 0 0 1 1 0 0 .001524 16 309 1045 0
 ?91 311 306 307 0 0 1 31 310 1094 0 311 307 312 0 -.007874 .020574 5842e-7 0 0
 1 1 0 0 .001524 16 311 1049 0 ?94 313 309 310 0 0 1 31 312 1095 0 313 310 314 0
 +.007874 .030226 -5842e-7 0 0 1 1 0 0 .001524 16 313 1053 0 ?103 315 311 312 0
 0 1 31 314 1096 0 315 312 316 0 -.007874 .030226 5842e-7 0 0 1 1 0 0 .001524 16
 315 1057 0 ?82 317 313 314 0 0 1 31 316 1097 0 317 314 318 0 +-.0064008 .030226
 -5842e-7 0 0 1 1 0 0 .001524 16 317 1061 0 ?67 319 315 316 0 0 1 31 318 1098 0
 319 316 320 0 --.0064008 .030226 5842e-7 0 0 1 1 0 0 .001524 16 319 1065 0 ?70
 321 317 318 0 0 1 31 320 1099 0 321 318 322 0 +-.001524 .030226 -5842e-7 0 0 1
 1 0 0 .001524 16 321 1069 0 ?79 323 319 320 0 0 1 31 322 1100 0 323 320 324 0 -
-.001524 .030226 5842e-7 0 0 1 1 0 0 .001524 16 323 1073 0 ?50 325 321 322 0 0 1
 31 324 1101 0 325 322 326 0 +-.001524 .020574 -5842e-7 0 0 1 1 0 0 .001524 16 3
25 1077 0 ?53 38 323 324 0 0 1 31 326 1102 0 38 324 20 0 --.001524 .020574 5842e
-7 0 0 1 1 0 0 .001524 16 38 1081 0 ?33 24 325 326 0 0 1 31 20 1103 0 24 326 7 0
 +-.0064008 .020574 -5842e-7 0 0 1 1 0 0 .001524 16 24 1085 0 ?39 10 38 20 0 0 1
 17 39 0 327 328 329 34 64 24 0 29 +15 327 242 0 330 331 332 17 328 0 327 53 39
 40 29 333 0 0 -17 329 0 327 39 67 62 334 335 0 0 +17 64 0 336 337 30 62 39 24 0
 297 -17 29 0 27 25 308 34 328 333 0 30 +15 27 479 0 28 338 0 17 308 0 27 29 28
 40 339 306 0 328 +16 333 1024 0 ?29 340 341 342 0 0 1 17 30 0 336 64 343 34 25
 31 0 0 -15 336 1232 0 343 18 0 17 343 0 336 30 337 11 23 10 0 0 -17 337 0 336 3
43 64 57 297 295 0 0 -17 23 0 35 344 32 57 343 10 0 345 +15 35 5 0 344 231 346 1
7 344 0 35 70 23 59 345 347 0 348 -17 32 0 35 23 33 11 28 349 0 343 +17 345 0 35
0 297 61 57 344 347 0 337 +15 350 485 0 334 351 0 17 297 0 350 334 345 62 337 29
5 0 329 +17 61 0 350 345 334 59 352 298 0 344 +16 347 986 0 ?345 353 354 355 0 0
 1 16 353 964 0 ?356 357 347 358 0 0 1 16 354 246 0 ?359 347 360 361 0 0 1 30 35
5 11 0 347 0 358 0 +-.0079248 -1082467449009526e-33 5842e-7 136592399683213e-30
 -1 0 30 358 16 0 353 355 362 0 +0 .03175 5842e-7 -1 0 0 30 362 21 0 357 358 363
 0 +0 0 5842e-7 0 -1 0 16 357 1008 0 ?36 349 353 362 0 0 1 30 363 26 0 349 362 3
64 0 +0 .01905 5842e-7 -1 0 0 16 349 1030 0 ?32 365 357 363 0 0 1 31 364 31 0 36
5 363 366 0 +0 0 5842e-7 0 0 1 1 0 0 .0025527 16 365 29 0 ?367 235 349 364 0 0 1
 31 366 36 0 235 364 236 0 +-.0095504 .0508 5842e-7 0 0 1 1 0 0 .0025527 16 235
 34 0 ?368 226 365 366 0 0 1 31 236 41 0 226 366 227 0 +0 0 5842e-7 0 0 1 1 0 0
 .004826 31 227 46 0 214 236 369 0 -.00825402301911014 .00254 5842e-7 0 0 1 1 0
 0 .00381 30 369 51 0 225 227 370 0 +1829580153428085e-33 .00635 5842e-7 1 -2881
22858807572e-30 0 16 225 49 0 ?224 371 214 369 0 0 1 30 370 56 0 371 369 372 0 +
.0142748 -974914593498964e-32 5842e-7 -682961998416066e-30 -1 0 16 371 54 0 ?373
 374 225 370 0 0 1 30 372 61 0 374 370 375 0 +0 .01905 5842e-7 -1 0 0 16 374 59
 0 ?376 377 371 372 0 0 1 30 375 66 0 377 372 378 0 +.00635 867361737988404e-33
 5842e-7 136592399683213e-30 -1 0 16 377 920 0 ?379 380 374 375 0 0 1 30 378 71
 0 380 375 381 0 +2780005570475655e-32 .03175 5842e-7 -1 875592305661623e-30 0 1
6 380 69 0 ?382 383 377 378 0 0 1 30 381 76 0 383 378 384 0 +.0142748 7799316747
99174e-32 5842e-7 546369598732853e-30 -1 0 16 383 713 0 ?203 385 380 381 0 0 1 3
0 384 81 0 385 381 386 0 +0 .04445 5842e-7 1 0 0 16 385 79 0 ?387 388 383 384 0
 0 1 31 386 86 0 388 384 389 0 +-.00129637698088987 .04826 5842e-7 0 0 1 1 0 0 .
00381 16 388 84 0 ?390 391 385 386 0 0 1 31 389 91 0 391 386 392 0 +-.0095504 .0
508 5842e-7 0 0 1 1 0 0 .004826 16 391 89 0 ?194 393 388 389 0 0 1 31 392 96 0 3
93 389 394 0 --.01780442301911015 .04826 5842e-7 0 0 1 1 0 0 .00381 16 393 94 0
 ?395 396 391 392 0 0 1 30 394 101 0 396 392 397 0 +-512282442959862e-31 .04445
 5842e-7 1 1152491435230284e-30 0 16 396 727 0 ?191 398 393 394 0 0 1 30 397 106
 0 398 394 399 0 +-.0238252 0 5842e-7 0 -1 0 16 398 730 0 ?400 401 396 397 0 0 1
 30 399 111 0 401 397 402 0 +707428480581254e-33 .00635 5842e-7 1 -1114060599340
558e-31 0 16 401 736 0 ?188 233 398 399 0 0 1 31 402 116 0 233 399 403 0 +-.0082
5402301911014 .00254 5842e-7 0 0 1 1 0 0 .00381 16 233 114 0 ?232 404 401 402 0
 0 1 30 403 398 0 335 402 405 0 +-.0079248 -1082467449009526e-33 -5842e-7 136592
399683213e-30 -1 0 16 335 980 0 ?329 406 0 403 0 0 1 30 405 397 0 406 403 407 0
 +0 .03175 -5842e-7 -1 0 0 16 406 958 0 ?330 341 335 405 0 0 1 30 407 396 0 341
 405 342 0 +0 0 -5842e-7 0 -1 0 16 341 1002 0 ?408 333 406 407 0 0 1 30 342 395
 0 333 407 409 0 +0 .01905 -5842e-7 -1 0 0 31 409 394 0 340 342 410 0 +0 0 -5842
e-7 0 0 1 1 0 0 .0025527 16 340 331 0 ?411 412 333 409 0 0 1 31 410 393 0 412 40
9 413 0 +-.0095504 .0508 -5842e-7 0 0 1 1 0 0 .0025527 16 412 326 0 ?414 238 340
 410 0 0 1 31 413 392 0 238 410 415 0 +0 0 -5842e-7 0 0 1 1 0 0 .004826 16 238 3
21 0 ?219 416 412 413 0 0 1 31 415 391 0 416 413 417 0 -.00825402301911014 .0025
4 -5842e-7 0 0 1 1 0 0 .00381 16 416 316 0 ?180 418 238 415 0 0 1 30 417 390 0 4
18 415 419 0 +1829580153428085e-33 .00635 -5842e-7 1 -288122858807572e-30 0 16 4
18 311 0 ?420 421 416 417 0 0 1 30 419 389 0 421 417 422 0 +.0142748 -9749145934
98964e-32 -5842e-7 -682961998416066e-30 -1 0 16 421 306 0 ?423 424 418 419 0 0 1
 30 422 388 0 424 419 425 0 +0 .01905 -5842e-7 -1 0 0 16 424 301 0 ?426 427 421
 422 0 0 1 30 425 387 0 427 422 428 0 +.00635 867361737988404e-33 -5842e-7 13659
2399683213e-30 -1 0 16 427 914 0 ?429 430 424 425 0 0 1 30 428 386 0 430 425 431
 0 +2780005570475655e-32 .03175 -5842e-7 -1 875592305661623e-30 0 16 430 291 0 ?
432 433 427 428 0 0 1 30 431 385 0 433 428 434 0 +.0142748 779931674799174e-32 -
5842e-7 546369598732853e-30 -1 0 16 433 684 0 ?174 435 430 431 0 0 1 30 434 384
 0 435 431 436 0 +0 .04445 -5842e-7 1 0 0 16 435 281 0 ?437 438 433 434 0 0 1 31
 436 383 0 438 434 439 0 +-.00129637698088987 .04826 -5842e-7 0 0 1 1 0 0 .00381
 16 438 276 0 ?440 441 435 436 0 0 1 31 439 382 0 441 436 442 0 +-.0095504 .0508
 -5842e-7 0 0 1 1 0 0 .004826 16 441 271 0 ?165 443 438 439 0 0 1 31 442 381 0 4
43 439 444 0 --.01780442301911015 .04826 -5842e-7 0 0 1 1 0 0 .00381 16 443 266
 0 ?445 446 441 442 0 0 1 30 444 380 0 446 442 447 0 +-512282442959862e-31 .0444
5 -5842e-7 1 1152491435230284e-30 0 16 446 681 0 ?162 448 443 444 0 0 1 30 447 3
79 0 448 444 449 0 +-.0238252 0 -5842e-7 0 -1 0 16 448 675 0 ?450 360 446 447 0
 0 1 30 449 378 0 360 447 361 0 +707428480581254e-33 .00635 -5842e-7 1 -11140605
99340558e-31 0 16 360 672 0 ?159 354 448 449 0 0 1 31 361 377 0 354 449 451 0 +-
.00825402301911014 .00254 -5842e-7 0 0 1 1 0 0 .00381 30 451 509 0 404 361 452 0
 +-.00461254227538508 .001419411764705882 5842e-7 0 0 -1 16 404 419 0 ?155 453 2
33 451 0 0 1 30 452 510 0 453 451 454 0 +-.00825402301911014 .00635 5842e-7 0 0
 -1 16 453 420 0 ?455 456 404 452 0 0 1 30 454 513 0 456 452 457 0 +-.0178044230
1911015 .04445 5842e-7 0 0 -1 16 456 423 0 ?458 459 453 454 0 0 1 30 457 514 0 4
59 454 460 0 +-.01416294227538508 .0493805882352941 5842e-7 0 0 -1 16 459 424 0
 ?461 462 456 457 0 0 1 30 460 515 0 462 457 463 0 +-.00493785772461493 .0493805
882352941 5842e-7 0 0 -1 16 462 425 0 ?168 464 459 460 0 0 1 30 463 516 0 464 46
0 465 0 +-.00129637698088987 .04445 5842e-7 0 0 -1 16 464 426 0 ?171 466 462 463
 0 0 1 30 465 518 0 466 463 246 0 +.0142748 .03175 5842e-7 0 0 -1 16 466 428 0 ?
467 244 464 465 0 0 1 30 246 521 0 244 465 245 0 +.0142748 .01905 5842e-7 0 0 -1
 16 244 431 0 ?177 221 466 246 0 0 1 17 177 0 468 426 469 175 206 244 0 470 +15
 468 461 0 426 471 0 17 426 0 468 88 177 89 470 424 0 472 +17 469 0 468 177 88 2
04 376 374 0 473 -17 206 0 474 373 475 204 177 244 0 469 -17 470 0 476 423 91 17
5 426 424 0 475 -15 476 245 0 437 331 0 17 423 0 476 127 470 128 475 421 0 0 +17
 91 0 476 470 429 89 100 309 0 426 +17 475 0 474 206 267 175 423 421 0 0 -15 474
 463 0 373 477 0 17 267 0 474 475 373 128 478 265 0 423 +17 373 0 474 267 206 11
6 473 371 0 478 +17 478 0 479 480 130 116 267 265 0 0 -15 479 825 0 480 481 0 17
 480 0 479 482 478 119 118 261 0 0 -17 130 0 479 478 482 128 127 251 0 267 -17 4
82 0 479 130 480 125 121 268 0 0 -17 127 0 476 483 423 125 130 251 0 420 +17 483
 0 476 183 127 178 420 418 0 0 -17 420 0 484 121 220 125 483 418 0 482 +15 484 4
65 0 420 485 0 17 121 0 484 222 420 119 482 268 0 224 +17 220 0 484 420 222 178
 213 221 0 483 +17 222 0 484 220 121 207 224 225 0 0 -17 224 0 223 118 209 119 2
22 225 0 480 +17 118 0 223 473 224 116 480 261 0 373 +17 473 0 223 376 118 204 3
73 371 0 0 -17 376 0 223 94 473 86 469 374 0 486 +17 94 0 223 487 376 92 486 311
 0 379 +17 486 0 488 472 489 86 94 311 0 0 -15 488 1127 0 486 490 0 17 472 0 488
 100 486 89 88 285 0 0 -17 489 0 488 486 100 92 284 282 0 0 -17 100 0 488 489 47
2 98 91 309 0 284 -17 284 0 491 492 379 98 489 282 0 429 +15 491 459 0 379 493 0
 17 492 0 491 97 284 101 429 427 0 494 -17 379 0 491 284 97 92 487 377 0 489 +17
 429 0 476 91 103 98 492 427 0 0 +17 103 0 476 429 432 101 85 313 0 492 +17 432
 0 476 103 174 83 495 430 0 0 +17 85 0 496 497 494 83 103 313 0 289 -15 496 1148
 0 498 499 0 17 497 0 496 498 85 80 289 287 0 0 -17 494 0 496 85 498 101 97 280
 0 0 -17 289 0 500 495 382 83 497 287 0 432 +15 500 457 0 382 501 0 17 495 0 500
 502 289 172 432 430 0 0 -17 382 0 500 289 502 80 503 380 0 497 +17 502 0 500 38
2 495 201 467 466 0 503 -17 503 0 223 230 82 201 382 380 0 0 -17 230 0 223 148 5
03 122 203 383 0 504 -17 82 0 223 503 487 80 498 315 0 382 +17 487 0 223 82 94 9
5 379 377 0 498 -17 498 0 496 494 497 95 82 315 0 0 -17 148 0 223 505 230 146 50
4 263 0 387 +17 203 0 506 467 124 201 230 383 0 502 +17 504 0 507 508 509 122 14
8 263 0 0 -15 507 804 0 504 510 0 17 508 0 507 151 504 131 124 255 0 0 -17 509 0
 507 504 151 146 241 239 0 0 -17 151 0 507 509 508 149 133 253 0 241 -17 241 0 5
11 512 387 149 509 239 0 437 +15 511 453 0 387 513 0 17 512 0 511 200 241 169 43
7 435 0 440 -17 387 0 511 241 200 146 505 385 0 509 +17 437 0 476 133 440 149 51
2 435 0 0 +17 133 0 476 174 437 131 151 253 0 514 +17 440 0 476 437 515 169 516
 438 0 0 +17 515 0 476 440 517 166 165 441 0 516 -17 516 0 518 197 171 166 440 4
38 0 0 -15 518 451 0 516 519 0 17 197 0 518 390 516 195 168 462 0 520 -17 171 0
 518 516 390 169 200 464 0 512 +17 390 0 518 171 197 198 521 388 0 0 +17 200 0 5
11 387 512 198 171 464 0 505 -17 505 0 223 521 148 198 387 385 0 390 -17 521 0 2
23 194 505 195 390 388 0 0 -17 194 0 223 395 521 192 520 391 0 522 +17 395 0 223
 523 194 189 524 393 0 525 +17 520 0 526 168 522 195 194 391 0 521 -17 522 0 526
 520 165 192 461 459 0 524 -15 526 449 0 165 527 0 17 165 0 526 522 168 163 515
 441 0 461 +17 461 0 528 445 524 163 522 459 0 517 +17 524 0 528 461 525 192 395
 393 0 0 -15 528 447 0 445 529 0 17 525 0 528 524 445 189 458 456 0 0 -17 445 0
 528 525 461 160 517 443 0 0 +17 458 0 530 531 191 160 525 456 0 445 +15 530 445
 0 531 532 0 17 531 0 530 115 458 134 162 446 0 533 -17 191 0 530 458 115 189 52
3 396 0 395 +17 115 0 530 191 531 113 533 278 0 523 +17 523 0 223 112 395 113 19
1 396 0 534 -17 112 0 223 400 523 110 534 257 0 535 +17 534 0 536 533 537 113 11
2 257 0 0 -15 536 867 0 534 538 0 17 533 0 536 142 534 134 115 278 0 0 -17 537 0
 536 534 142 110 275 273 0 0 -17 142 0 536 537 533 140 136 242 0 275 -17 275 0 5
39 450 535 140 537 273 0 540 +15 539 443 0 450 541 0 17 450 0 539 109 275 137 54
0 448 0 542 +17 535 0 539 275 109 110 400 398 0 537 -17 540 0 476 136 139 140 45
0 448 0 0 -17 136 0 476 162 540 134 142 242 0 531 +17 139 0 476 540 543 137 145
 249 0 450 +17 543 0 476 139 359 143 159 360 0 0 -17 145 0 544 545 542 143 139 2
49 0 272 -15 544 846 0 546 547 0 17 545 0 544 546 145 104 272 270 0 0 -17 542 0
 544 145 546 137 109 276 0 0 -17 272 0 548 159 549 143 545 270 0 543 +15 548 441
 0 549 550 0 17 159 0 548 551 272 157 543 360 0 455 +17 549 0 548 272 551 104 18
8 401 0 545 -17 551 0 548 549 159 186 455 453 0 232 -17 188 0 223 228 106 186 54
9 401 0 551 +17 106 0 223 188 400 104 546 259 0 549 +17 400 0 223 106 112 107 53
5 398 0 546 +17 546 0 544 542 545 107 106 259 0 0 -17 455 0 552 553 232 157 551
 453 0 359 +17 232 0 552 455 185 186 228 233 0 0 +15 552 439 0 553 554 0 17 185
 0 552 232 553 152 155 404 0 229 -17 553 0 552 185 455 153 359 354 0 0 -17 155 0
 234 219 229 153 185 404 0 237 +17 237 0 476 359 183 153 219 238 0 553 -17 359 0
 476 543 237 157 553 354 0 0 +17 183 0 476 237 483 181 180 416 0 212 -17 180 0 2
11 213 212 178 183 416 0 220 +14 255 554 440 555 ?231 338 552 5 556 +0 0 231 338
 22 81 1 555 1692 557 554 558 0 0 559 560 14 231 1 559 ?331 554 35 5 561 +0 0 33
1 554 22 14 338 480 562 ?554 563 27 5 564 -0 0 554 563 22 51 556 487 0 554 565 5
66 0 --.00825402301911014 .00254 5842e-7 0 0 -1 .00381 -1 0 0 13 22 181 0 0 0 0
 0 0 9 16 14 16 470 567 ?216 0 234 5 568 -0 0 216 0 22 81 1 567 1695 557 16 569
 0 562 570 571 14 216 468 570 ?485 16 211 5 572 -0 0 485 16 22 51 568 502 0 16 5
72 573 0 -0 0 5842e-7 0 0 -1 .004826 -1 0 0 51 572 501 0 216 574 568 0 +.0082540
2301911014 .00254 5842e-7 0 0 -1 .00381 -1 0 0 51 573 503 0 575 568 576 0 --.009
5504 .0508 5842e-7 0 0 -1 .0025527 -1 0 0 14 575 472 577 ?563 578 579 5 573 +0 0
 563 578 22 51 576 504 0 563 573 564 0 -0 0 5842e-7 0 0 -1 .0025527 -1 0 0 14 56
3 476 580 ?338 575 581 5 576 +0 0 338 575 22 50 255 564 505 0 338 576 582 0 +0 .
01905 5842e-7 0 -1 0 0 0 -1 50 582 506 0 578 564 583 0 +0 0 5842e-7 1 0 0 0 0 -1
 14 578 482 584 ?575 585 586 5 582 -0 0 575 585 22 50 583 507 0 585 582 587 0 +0
 .03175 5842e-7 0 -1 0 0 0 -1 14 585 484 588 ?578 351 589 5 583 +0 0 578 351 22
 50 587 508 0 351 583 590 0 +-.0079248 -1082467449009526e-33 5842e-7 1 136592399
683213e-30 0 -136592399683213e-30 1 0 14 351 486 591 ?585 550 350 5 587 +0 0 585
 550 22 51 590 815 0 510 587 592 0 +.0104648 .04064 5842e-7 0 0 -1 .00381 -1 0 0
 14 510 803 593 ?481 331 507 5 590 +0 0 481 331 22 51 592 836 0 481 590 594 0 +.
0104648 .01016 5842e-7 0 0 1 .00381 1 0 0 14 481 824 595 ?547 510 479 5 592 +0 0
 547 510 22 51 594 857 0 547 592 596 0 +-.0200152 .01016 5842e-7 0 0 -1 .00381 -
1 0 0 14 547 845 597 ?538 481 544 5 594 +0 0 538 481 22 51 596 878 0 538 594 598
 0 +-.0200152 .04064 5842e-7 0 0 1 .00381 1 0 0 14 538 866 599 ?490 547 536 5 59
6 +0 0 490 547 22 51 598 1138 0 490 596 600 0 +.007874 .020574 5842e-7 0 0 -1 .0
01524 -1 0 0 14 490 1126 601 ?499 538 488 5 598 -0 0 499 538 22 51 600 1159 0 49
9 598 602 0 +.007874 .030226 5842e-7 0 0 1 .001524 1 0 0 14 499 1147 603 ?604 49
0 496 5 600 -0 0 604 490 22 51 602 1180 0 604 600 605 0 +-.0064008 .030226 5842e
-7 0 0 1 .001524 1 0 0 14 604 1168 606 ?607 499 608 5 602 -0 0 607 499 22 51 605
 1201 0 607 602 19 0 +-.001524 .030226 5842e-7 0 0 -1 .001524 -1 0 0 14 607 1189
 609 ?610 604 611 5 605 -0 0 610 604 22 51 19 1222 0 610 605 6 0 +-.001524 .0205
74 5842e-7 0 0 1 .001524 1 0 0 14 610 1210 612 ?18 607 613 5 19 -0 0 18 607 22 8
1 1 612 1710 557 610 614 0 609 615 616 14 18 1231 615 ?0 610 336 5 6 -0 0 0 610
 22 15 613 1211 0 37 610 0 17 37 0 613 617 339 45 33 38 0 0 -17 617 0 613 44 37
 51 47 300 0 0 -17 339 0 613 37 44 26 308 306 0 0 -17 44 0 613 339 617 40 53 325
 0 308 -17 53 0 327 618 328 51 44 325 0 408 +17 618 0 327 79 53 54 408 341 0 0 -
17 408 0 586 47 304 51 618 341 0 617 +15 586 481 0 619 578 0 17 47 0 586 619 408
 45 617 300 0 36 +17 304 0 586 408 619 54 620 302 0 618 +17 619 0 586 304 47 48
 36 357 0 620 -17 620 0 611 621 56 48 304 302 0 0 -15 611 1190 0 621 607 0 17 62
1 0 611 622 620 71 50 323 0 0 -17 56 0 611 620 622 54 79 321 0 304 -17 622 0 611
 56 621 77 73 290 0 0 -17 79 0 327 330 618 77 56 321 0 623 +17 330 0 327 67 79 7
4 623 406 0 0 +17 623 0 589 73 294 77 330 406 0 622 -15 589 483 0 356 585 0 17 7
3 0 589 356 623 71 622 290 0 624 +17 294 0 589 623 356 74 625 292 0 330 +17 356
 0 589 294 73 68 624 353 0 625 +17 625 0 608 348 76 68 294 292 0 0 -15 608 1169
 0 348 604 0 17 348 0 608 352 625 59 70 319 0 0 -17 76 0 608 625 352 74 67 317 0
 294 -17 352 0 608 76 348 65 61 298 0 0 -17 67 0 327 329 330 65 76 317 0 334 +17
 334 0 350 61 297 65 329 335 0 352 -17 70 0 35 624 344 68 348 319 0 356 +17 624
 0 35 50 70 71 356 353 0 621 -17 50 0 35 36 624 48 621 323 0 619 +17 36 0 35 33
 50 45 619 357 0 37 +81 1 615 1711 557 18 626 0 612 627 628 80 255 1 557 629 630
 9000 1 1 1 1 1 1 1 1 0 FFFFTFTFFFFFFF1 81 1 626 1621 631 18 0 615 614 0 632 81
 1 627 1712 557 331 633 0 615 634 635 82 255 1 628 -1488060295 14 331 240 627 ?5
10 231 327 5 565 -0 0 510 231 22 81 1 633 1611 631 331 0 627 636 637 638 81 1 63
4 1713 557 501 639 0 627 640 641 82 1 635 -320864135 14 501 458 634 ?642 493 500
 5 643 +0 0 642 493 22 81 1 639 1594 631 501 0 634 644 645 646 81 1 640 1714 557
 493 644 0 634 647 648 82 1 641 -314179463 14 493 460 640 ?501 471 491 5 649 +0
 0 501 471 22 81 1 644 1593 631 493 0 640 650 639 651 81 1 647 1715 557 471 650
 0 640 652 653 82 1 648 -314048391 14 471 462 647 ?493 477 468 5 654 -0 0 493 47
7 22 81 1 650 1592 631 471 0 647 655 644 656 81 1 652 1716 557 550 657 0 647 658
 659 82 1 653 -313917319 14 550 442 652 ?351 541 548 5 566 -0 0 351 541 22 81 1
 657 1602 631 550 0 652 660 661 662 81 1 658 1717 557 541 660 0 652 663 664 82 1
 659 -316014473 14 541 444 658 ?550 532 539 5 665 -0 0 550 532 22 81 1 660 1601
 631 541 0 658 666 657 667 81 1 663 1718 557 532 666 0 658 668 669 82 1 664 -315
686793 14 532 446 663 ?541 529 530 5 670 +0 0 541 529 22 81 1 666 1600 631 532 0
 663 671 660 672 81 1 668 1719 557 513 673 0 663 674 675 82 1 669 -315424649 14
 513 454 668 ?519 642 511 5 676 +0 0 519 642 22 81 1 673 1596 631 513 0 668 645
 677 678 81 1 674 1720 557 642 645 0 668 679 680 82 1 675 -314441609 14 642 456
 674 ?513 501 506 5 681 +0 0 513 501 22 81 1 645 1595 631 642 0 674 639 673 682
 81 1 679 1721 557 477 655 0 674 683 684 82 1 680 -314310537 14 477 464 679 ?471
 485 474 5 685 +0 0 471 485 22 81 1 655 1591 631 477 0 679 686 650 687 81 1 683
 1722 557 485 686 0 679 688 689 82 1 684 -313589641 14 485 466 683 ?477 216 484
 5 574 -0 0 477 216 22 81 1 686 1590 631 485 0 683 690 655 691 81 1 688 1723 557
 529 671 0 683 692 693 82 1 689 -313393033 14 529 448 688 ?532 527 528 5 694 -0
 0 532 527 22 81 1 671 1599 631 529 0 688 695 666 696 81 1 692 1724 557 527 695
 0 688 697 698 82 1 693 -315228043 14 527 450 692 ?529 519 526 5 699 -0 0 529 51
9 22 81 1 695 1598 631 527 0 692 677 671 700 81 1 697 1725 557 519 677 0 692 0 7
01 82 1 698 -314900363 14 519 452 697 ?527 513 518 5 702 +0 0 527 513 22 81 1 67
7 1597 631 519 0 697 673 695 703 82 1 701 -314638219 80 1 631 0 704 8001 0 0 0 0
 3 5 0 0 0 FFFFTFTFFFFFFF2 83 255 3 703 1 .870588235294118 .529411764705882 79 2
55 15 704 SDL/TYSA_COLOUR51 702 493 0 519 699 676 0 --.00129637698088987 .04826
 5842e-7 0 0 -1 .00381 -1 0 0 51 699 492 0 527 694 702 0 --.0095504 .0508 5842e-
7 0 0 -1 .004826 -1 0 0 50 676 494 0 513 702 681 0 +0 .04445 5842e-7 0 1 0 0 0 1
 50 681 495 0 642 676 643 0 +.0142748 779931674799174e-32 5842e-7 1 546369598732
853e-30 0 -546369598732853e-30 1 0 50 643 496 0 501 681 649 0 +2780005570475655e
-32 .03175 5842e-7 -875592305661623e-30 -1 0 1 -875592305661623e-30 0 50 649 497
 0 493 643 654 0 +.00635 867361737988404e-33 5842e-7 1 136592399683213e-30 0 -13
6592399683213e-30 1 0 50 654 498 0 471 649 685 0 +0 .01905 5842e-7 0 -1 0 0 0 -1
 50 685 499 0 477 654 574 0 +.0142748 -974914593498964e-32 5842e-7 1 -6829619984
16066e-30 0 682961998416066e-30 1 0 50 574 500 0 485 685 572 0 +1829580153428085
e-33 .00635 5842e-7 288122858807572e-30 1 0 -1 288122858807572e-30 0 51 694 491
 0 529 670 699 0 +-.01780442301911015 .04826 5842e-7 0 0 -1 .00381 -1 0 0 50 670
 490 0 532 665 694 0 +-512282442959862e-31 .04445 5842e-7 -1152491435230284e-30
 1 0 -1 -1152491435230284e-30 0 50 665 489 0 541 566 670 0 +-.0238252 0 5842e-7
 1 0 0 0 0 -1 50 566 488 0 550 556 665 0 +707428480581254e-33 .00635 5842e-7 111
4060599340558e-31 1 0 -1 1114060599340558e-31 0 83 3 700 1 .870588235294118 .529
411764705882 83 3 696 1 .870588235294118 .529411764705882 81 1 690 1589 631 216
 0 570 569 686 705 83 3 691 1 .870588235294118 .529411764705882 81 1 570 1696 55
7 216 690 0 567 577 706 81 1 569 1588 631 16 0 567 0 690 707 83 3 705 1 .8705882
35294118 .529411764705882 83 3 707 1 .870588235294118 .529411764705882 81 1 577
 1697 557 575 708 0 570 580 709 82 1 706 -313065355 81 1 708 1606 631 575 0 577
 710 711 712 81 1 580 1698 557 563 711 0 577 584 713 82 1 709 -312475531 81 1 71
1 1607 631 563 0 580 708 714 715 81 1 584 1699 557 578 710 0 580 588 716 82 1 71
3 -312213387 81 1 710 1605 631 578 0 584 717 708 718 81 1 588 1700 557 585 717 0
 584 591 719 82 1 716 -311689095 81 1 717 1604 631 585 0 588 661 710 720 81 1 59
1 1701 557 351 661 0 588 593 721 82 1 719 -311426951 81 1 661 1603 631 351 0 591
 657 717 722 81 1 593 1702 557 510 637 0 591 595 723 82 1 721 -311230343 81 1 63
7 1612 631 510 0 593 633 724 725 81 1 595 1703 557 481 724 0 593 597 726 82 1 72
3 1554841719 81 1 724 1613 631 481 0 595 637 727 728 81 1 597 1704 557 547 727 0
 595 599 729 82 1 726 1556807799 81 1 727 1614 631 547 0 597 724 730 731 81 1 59
9 1705 557 538 730 0 597 601 732 82 1 729 1558773879 81 1 730 1615 631 538 0 599
 727 733 734 81 1 601 1706 557 490 733 0 599 603 735 82 1 732 1560739959 81 1 73
3 1616 631 490 0 601 730 736 737 81 1 603 1707 557 499 736 0 601 606 738 82 1 73
5 -1497890695 81 1 736 1617 631 499 0 603 733 739 740 81 1 606 1708 557 604 739
 0 603 609 741 82 1 738 -1495924615 81 1 739 1618 631 604 0 606 736 742 743 81 1
 609 1709 557 607 742 0 606 612 744 82 1 741 -1493958535 81 1 742 1619 631 607 0
 609 739 614 745 82 1 744 -1491992455 81 1 614 1620 631 610 0 612 742 626 746 83
 3 745 1 .870588235294118 .529411764705882 83 3 746 1 .870588235294118 .52941176
4705882 83 3 743 1 .870588235294118 .529411764705882 83 3 740 1 .870588235294118
 .529411764705882 83 3 737 1 .870588235294118 .529411764705882 83 3 734 1 .87058
8235294118 .529411764705882 83 3 731 1 .870588235294118 .529411764705882 83 3 72
8 1 .870588235294118 .529411764705882 83 3 725 1 .870588235294118 .5294117647058
82 83 3 722 1 .870588235294118 .529411764705882 83 3 720 1 .870588235294118 .529
411764705882 83 3 718 1 .870588235294118 .529411764705882 81 1 714 1608 631 338
 0 562 711 558 747 83 3 715 1 .870588235294118 .529411764705882 81 1 562 1694 55
7 338 714 0 559 567 748 81 1 558 1609 631 554 0 555 714 636 749 83 3 747 1 .8705
88235294118 .529411764705882 81 1 636 1610 631 231 0 559 558 633 750 83 3 749 1
 .870588235294118 .529411764705882 81 1 559 1693 557 231 636 0 555 562 751 83 3
 750 1 .870588235294118 .529411764705882 82 1 751 -350683015 82 1 748 -311951239
 83 3 712 1 .870588235294118 .529411764705882 83 3 687 1 .870588235294118 .52941
1764705882 83 3 682 1 .870588235294118 .529411764705882 15 506 455 0 514 642 0 1
7 514 0 506 124 467 131 174 433 0 508 -17 124 0 506 203 514 122 508 255 0 230 +1
7 467 0 506 514 203 172 502 466 0 495 +17 174 0 476 432 133 172 514 433 0 467 +8
3 3 678 1 .870588235294118 .529411764705882 83 3 672 1 .870588235294118 .5294117
64705882 83 3 667 1 .870588235294118 .529411764705882 83 3 662 1 .87058823529411
8 .529411764705882 83 3 656 1 .870588235294118 .529411764705882 83 3 651 1 .8705
88235294118 .529411764705882 83 3 646 1 .870588235294118 .529411764705882 83 3 6
38 1 .870588235294118 .529411764705882 50 565 376 0 331 561 556 0 +0 0 -5842e-7
 0 0 1 1 0 0 50 561 3 0 231 0 565 0 +0 0 5842e-7 0 0 1 1 0 0 83 3 632 1 .8705882
35294118 .529411764705882 79 14 630 SWEntUnchanged82 1 616 -1490026375 15 581 47
5 0 367 563 752 17 367 0 581 367 367 0 753 365 0 0 +15 752 477 0 754 563 0 17 75
4 0 752 754 754 0 411 340 0 0 -17 411 0 332 411 411 0 754 340 0 0 +15 332 243 0
 411 331 755 15 755 244 0 414 331 476 17 414 0 755 414 414 0 756 412 0 0 +17 756
 0 757 756 756 0 414 412 0 0 -15 757 473 0 756 575 0 17 753 0 346 753 753 0 367
 365 0 0 -15 346 6 0 753 231 758 15 758 7 0 759 231 223 17 759 0 758 759 759 0 3
68 235 0 0 -17 368 0 579 368 368 0 759 235 0 0 +15 579 471 0 368 575 757 82 1 57
1 -312803211 82 1 560 -316145547 17 109 0 539 535 450 107 542 276 0 400 +17 162
 0 476 517 136 160 531 446 0 458 +17 517 0 476 515 162 163 445 443 0 0 -17 168 0
 526 165 520 166 197 462 0 515 +17 97 0 491 379 492 95 494 280 0 487 +17 88 0 46
8 469 426 86 472 285 0 376 +17 28 0 27 308 25 26 32 349 0 339 -19 17 530 0 1 0 9
 5 S0 74 4 CI16 index_map_offset0 0 1 dCCZ20 15 9 0 0 760 761 697 762 763 764 13
 626 2 0 0 0 0 0 0 0 0 0 0 0 81 2 760 179 765 1 0 761 0 0 0 766 81 2 761 629 767
 1 760 762 0 0 0 768 81 1 762 1276 769 1 761 763 0 0 770 81 2 763 1312 771 1 762
 764 0 0 772 0 81 2 764 1475 773 1 763 13 0 0 0 774 81 2 13 1585 775 1 764 2 0 0
 0 0 80 2 775 776 777 9000 0 0 0 0 3 5 0 0 0 FFTFFFFFFFFFFF9 1 79 16 777 BODY_RE
CIPE_200180 2 773 778 779 9000 0 0 0 0 3 5 0 0 0 FFTFFFFFFFFFFF9 1 82 1 774 1 79
 24 779 BODY_IN_LIGHTWEIGHT_PERM80 2 771 780 781 8004 0 0 0 0 3 5 0 0 0 FFTFFFFF
FFFFFF2 3 83 1 772 1 79 16 781 SDL/TYSA_DENSITY80 1 769 782 783 9000 1 1 1 1 1 1
 1 1 0 FFTFFFFFFFFFFF1 82 1 770 3140375 79 10 783 BODY_MATCH80 2 767 784 785 900
0 0 0 0 0 3 5 0 0 0 FFTFFFFFFFFFFF9 1 82 1 768 70 79 30 785 LAST_BODY_MODIFYING_
FEATURE_ID80 2 765 786 787 9000 0 0 0 0 3 5 0 0 0 FFTFFFFFFFFFFT9 1 82 1 766 107
 79 19 787 ENT_TIME_STAMP_200180 2 12 788 789 9000 0 0 0 0 3 5 0 0 0 FFTFFFFFFFF
FFF9 1 82 1 14 101 79 12 789 ATOM_ID_20011 0 
