**ABCDEFGHIJKLMNOPQRSTUVWXYZabcdefghijklmnopqrstuvwxyz**************************
**PARASOLID !"#$%&'()*+,-./:;<=>?@[\]^_`{|}~0123456789**************************
**PART1;
MC=AMD64;
MC_MODEL=Intel64 Family 6 Model 142 Stepping 12, GenuineIntel;
MC_ID=unknown;
OS=Windows_NT;
OS_RELEASE=unknown;
FRU=Parasolid Version 33.1, build 247,  8- 6-2021;
APPL=SOLIDWORKS 2022-2022009;
SITE=;
USER=unknown;
FORMAT=text;
GUISE=transmit;
KEY=FILERachet.x_t;
DATE=Thu Jun 15 06:32:43 2023;
**PART2;
SCH=SCH_3301247_33103;
USFLD_SIZE=0;
**PART3;
**END_OF_HEADER*****************************************************************
T51 : TRANSMIT FILE created by modeller version 330124723 SCH_3301247_33103_1300
6230 0 12 35 CCCI7 lattice222 0 CCCI4 mesh1006 0 I8 polyline1008 0 CCCCCCCDI5 ow
ner1040 0 CCCCCCI13 boundary_mesh1006 0 I17 boundary_polyline1008 0 CCCA16 index
_map_offset0 0 1 dA9 index_map82 0 A17 node_id_index_map82 0 A20 schema_embeddin
g_map82 0 A5 child12 0 A14 lowest_node_id0 0 1 dA16 mesh_offset_data206 0 Z1 224
2 2 3 0 0 0 0 0 0 0 1e3 1e-8 0 4 0 1 0 1 1 5 6 7 8 0 0 9 10 11 0 0 0 0 0 0 0 81
 255 2 2 2191 12 1 13 0 0 0 0 14 70 11 CI9 list_type0 0 1 uI10 notransmit0 0 1 l
CCCDCCDI12 finger_index0 0 1 dI12 finger_block1012 0 CZ3 0 4 T1 0 0 10 20 1 15 1
5 13 255 5 1146 0 1 0 16 0 0 17 0 51 255 6 1097 0 18 19 0 0 -0 0 .00635 0 0 -1 .
003175 -1 0 0 30 255 7 1145 0 10 20 0 0 +-.002683825790645735 .01001617420935412
 .00635 0 0 -1 29 255 8 853 0 21 22 0 0 .0127 0 19 8 CCCCCCCA5 owner12 0 Z9 398
 0 1 17 0 23 V0 16 255 10 948 0 ?24 0 25 7 0 0 1 18 255 11 393 0 26 0 27 28 ?1 1
7 255 26 0 29 30 31 11 32 33 0 34 +18 27 390 0 31 11 35 36 ?1 29 28 395 0 11 36
 37 0 .0127 .00635 29 36 392 0 27 38 28 867361737988404e-33 .0103695065777821 .0
0635 29 37 900 0 39 28 40 -.002683825790645735 .01001617420935412 0 18 39 802 0
 41 42 0 37 ?1 29 40 899 0 42 37 43 -.00328700187280203 .01226725799387116 0 18
 42 801 0 44 45 39 40 ?1 29 43 898 0 45 40 46 -.00518475328889106 .0089802561210
6912 0 18 45 800 0 47 48 42 43 ?1 29 46 897 0 48 43 49 -.00635 .0109985226280623
6 0 18 48 799 0 50 51 45 46 ?1 29 49 896 0 51 46 52 -.00733234841870824 .0073323
4841870821 0 18 51 798 0 53 54 48 49 ?1 29 52 895 0 54 49 55 -.00898025612106917
 .00898025612106914 0 18 54 797 0 56 57 51 52 ?1 29 55 894 0 57 52 58 -.00898025
612106915 .00518475328889102 0 18 57 796 0 59 60 54 55 ?1 29 58 893 0 60 55 61 -
.0109985226280624 .00635 0 18 60 795 0 62 63 57 58 ?1 29 61 892 0 63 58 64 -.010
0161742093541 .002683825790645835 0 18 63 794 0 65 66 60 61 ?1 29 64 891 0 66 61
 67 -.01226725799387118 .00328700187280198 0 18 66 793 0 68 69 63 64 ?1 29 67 89
0 0 69 64 70 -.0103695065777821 -3642919299551295e-32 0 18 69 792 0 71 72 66 67
 ?1 29 70 889 0 72 67 73 -.0127 -3729655473350135e-32 0 18 72 791 0 74 75 69 70
 ?1 29 73 888 0 75 70 76 -.0100161742093541 -.002683825790645915 0 18 75 790 0 7
7 78 72 73 ?1 29 76 887 0 78 73 79 -.01226725799387116 -.003287001872802065 0 18
 78 789 0 80 81 75 76 ?1 29 79 886 0 81 76 82 -.00898025612106913 -.005184753288
8911 0 18 81 788 0 83 84 78 79 ?1 29 82 885 0 84 79 85 -.01099852262806236 -.006
35 0 18 84 787 0 86 87 81 82 ?1 29 85 884 0 87 82 88 -.00733234841870822 -.00733
234841870828 0 18 87 786 0 89 90 84 85 ?1 29 88 883 0 90 85 91 -.008980256121069
15 -.00898025612106921 0 18 90 785 0 92 93 87 88 ?1 29 91 882 0 93 88 94 -.00518
475328889103 -.00898025612106918 0 18 93 784 0 95 96 90 91 ?1 29 94 881 0 96 91
 97 -.00635 -.01099852262806242 0 18 96 783 0 98 99 93 94 ?1 29 97 880 0 99 94 1
00 -.00268382579064585 -.01001617420935414 0 18 99 782 0 101 102 96 97 ?1 29 100
 879 0 102 97 103 -.003287001872801995 -.01226725799387122 0 18 102 781 0 104 10
5 99 100 ?1 29 103 878 0 105 100 106 234187669256869e-31 -.01036950657778214 0 1
8 105 780 0 107 108 102 103 ?1 29 106 877 0 108 103 109 234187669256869e-31 -.01
27 0 18 108 779 0 110 111 105 106 ?1 29 109 876 0 111 106 112 .0026838257906459
 -.01001617420935414 0 18 111 778 0 113 114 108 109 ?1 29 112 875 0 114 109 115
 .003287001872802045 -.0122672579938712 0 18 114 777 0 116 117 111 112 ?1 29 115
 874 0 117 112 118 .00518475328889108 -.00898025612106917 0 18 117 776 0 119 120
 114 115 ?1 29 118 873 0 120 115 121 .00635 -.0109985226280624 0 18 120 775 0 12
2 123 117 118 ?1 29 121 872 0 123 118 124 .00733234841870826 -.00733234841870826
 0 18 123 774 0 125 126 120 121 ?1 29 124 871 0 126 121 127 .00898025612106919 -
.00898025612106919 0 18 126 773 0 128 129 123 124 ?1 29 127 870 0 129 124 130 .0
0898025612106917 -.00518475328889107 0 18 129 772 0 131 132 126 127 ?1 29 130 86
9 0 132 127 133 .0109985226280624 -.00635 0 18 132 771 0 134 135 129 130 ?1 29 1
33 868 0 135 130 136 .01001617420935412 -.002683825790645885 0 18 135 770 0 137
 138 132 133 ?1 29 136 867 0 138 133 139 .0122672579938712 -.003287001872802035
 0 18 138 769 0 140 141 135 136 ?1 29 139 866 0 141 136 142 .01036950657778212 -
1214306433183764e-32 0 18 141 768 0 143 144 138 139 ?1 29 142 865 0 144 139 145
 .0127 -1127570259384924e-32 0 18 144 767 0 146 147 141 142 ?1 29 145 864 0 147
 142 148 .01001617420935412 .002683825790645865 0 18 147 766 0 149 150 144 145 ?
1 29 148 863 0 150 145 151 .0122672579938712 .00328700187280201 0 18 150 765 0 1
52 153 147 148 ?1 29 151 862 0 153 148 154 .00898025612106916 .00518475328889104
 0 18 153 764 0 155 156 150 151 ?1 29 154 861 0 156 151 157 .0109985226280624 .0
0635 0 18 156 763 0 158 159 153 154 ?1 29 157 860 0 159 154 160 .007332348418708
25 .00733234841870823 0 18 159 762 0 161 162 156 157 ?1 29 160 859 0 162 157 163
 .00898025612106917 .00898025612106915 0 18 162 761 0 164 165 159 160 ?1 29 163
 858 0 165 160 166 .00518475328889106 .00898025612106913 0 18 165 760 0 167 168
 162 163 ?1 29 166 857 0 168 163 169 .00635 .01099852262806236 0 18 168 759 0 17
0 171 165 166 ?1 29 169 856 0 171 166 172 .002683825790645875 .0100161742093541
 0 18 171 758 0 173 174 168 169 ?1 29 172 855 0 174 169 22 .00328700187280202 .0
1226725799387116 0 18 174 757 0 175 176 171 172 ?1 29 22 854 0 176 172 8 8673617
37988404e-33 .0103695065777821 0 18 176 756 0 177 21 174 22 ?1 17 177 0 178 179
 180 176 181 182 0 183 +18 21 755 0 184 185 176 8 ?1 17 184 0 186 34 183 21 187
 188 0 189 +18 185 252 0 190 191 21 192 ?1 17 190 0 193 24 194 185 195 196 0 30
 -18 191 255 0 195 197 185 198 ?1 29 192 254 0 185 0 198 -.002683825790645735 .0
1001617420935412 .00635 29 198 257 0 191 192 199 -.00328700187280203 .0122672579
9387116 .00635 29 199 260 0 197 198 200 -.00518475328889106 .00898025612106912 .
00635 18 197 258 0 201 202 191 199 ?1 29 200 263 0 202 199 203 -.00635 .01099852
262806236 .00635 18 202 261 0 204 205 197 200 ?1 29 203 266 0 205 200 206 -.0073
3234841870824 .00733234841870821 .00635 18 205 264 0 207 208 202 203 ?1 29 206 2
69 0 208 203 209 -.00898025612106917 .00898025612106914 .00635 18 208 267 0 210
 211 205 206 ?1 29 209 272 0 211 206 212 -.00898025612106915 .00518475328889102
 .00635 18 211 270 0 213 214 208 209 ?1 29 212 275 0 214 209 215 -.0109985226280
624 .00635 .00635 18 214 273 0 216 217 211 212 ?1 29 215 278 0 217 212 218 -.010
0161742093541 .002683825790645835 .00635 18 217 276 0 219 220 214 215 ?1 29 218
 281 0 220 215 221 -.01226725799387118 .00328700187280198 .00635 18 220 279 0 22
2 223 217 218 ?1 29 221 284 0 223 218 224 -.0103695065777821 -3642919299551295e-
32 .00635 18 223 282 0 225 226 220 221 ?1 29 224 287 0 226 221 227 -.0127 -37296
55473350135e-32 .00635 18 226 285 0 228 229 223 224 ?1 29 227 290 0 229 224 230
 -.0100161742093541 -.002683825790645915 .00635 18 229 288 0 231 232 226 227 ?1
 29 230 293 0 232 227 233 -.01226725799387116 -.003287001872802065 .00635 18 232
 291 0 234 235 229 230 ?1 29 233 296 0 235 230 236 -.00898025612106913 -.0051847
532888911 .00635 18 235 294 0 237 238 232 233 ?1 29 236 299 0 238 233 239 -.0109
9852262806236 -.00635 .00635 18 238 297 0 240 241 235 236 ?1 29 239 302 0 241 23
6 242 -.00733234841870822 -.00733234841870828 .00635 18 241 300 0 243 244 238 23
9 ?1 29 242 305 0 244 239 245 -.00898025612106915 -.00898025612106921 .00635 18
 244 303 0 246 247 241 242 ?1 29 245 308 0 247 242 248 -.00518475328889103 -.008
98025612106918 .00635 18 247 306 0 249 250 244 245 ?1 29 248 311 0 250 245 251 -
.00635 -.01099852262806242 .00635 18 250 309 0 252 253 247 248 ?1 29 251 314 0 2
53 248 254 -.00268382579064585 -.01001617420935414 .00635 18 253 312 0 255 256 2
50 251 ?1 29 254 317 0 256 251 257 -.003287001872801995 -.01226725799387122 .006
35 18 256 315 0 258 259 253 254 ?1 29 257 320 0 259 254 260 234187669256869e-31
 -.01036950657778214 .00635 18 259 318 0 261 262 256 257 ?1 29 260 323 0 262 257
 263 234187669256869e-31 -.0127 .00635 18 262 321 0 264 265 259 260 ?1 29 263 32
6 0 265 260 266 .0026838257906459 -.01001617420935414 .00635 18 265 324 0 267 26
8 262 263 ?1 29 266 329 0 268 263 269 .003287001872802045 -.0122672579938712 .00
635 18 268 327 0 270 271 265 266 ?1 29 269 332 0 271 266 272 .00518475328889108
 -.00898025612106917 .00635 18 271 330 0 273 274 268 269 ?1 29 272 335 0 274 269
 275 .00635 -.0109985226280624 .00635 18 274 333 0 276 277 271 272 ?1 29 275 338
 0 277 272 278 .00733234841870826 -.00733234841870826 .00635 18 277 336 0 279 28
0 274 275 ?1 29 278 341 0 280 275 281 .00898025612106919 -.00898025612106919 .00
635 18 280 339 0 282 283 277 278 ?1 29 281 344 0 283 278 284 .00898025612106917
 -.00518475328889107 .00635 18 283 342 0 285 286 280 281 ?1 29 284 347 0 286 281
 287 .0109985226280624 -.00635 .00635 18 286 345 0 288 289 283 284 ?1 29 287 350
 0 289 284 290 .01001617420935412 -.002683825790645885 .00635 18 289 348 0 291 2
92 286 287 ?1 29 290 353 0 292 287 293 .0122672579938712 -.003287001872802035 .0
0635 18 292 351 0 294 295 289 290 ?1 29 293 356 0 295 290 296 .01036950657778212
 -1214306433183764e-32 .00635 18 295 354 0 297 298 292 293 ?1 29 296 359 0 298 2
93 299 .0127 -1127570259384924e-32 .00635 18 298 357 0 300 301 295 296 ?1 29 299
 362 0 301 296 302 .01001617420935412 .002683825790645865 .00635 18 301 360 0 30
3 304 298 299 ?1 29 302 365 0 304 299 305 .0122672579938712 .00328700187280201 .
00635 18 304 363 0 306 307 301 302 ?1 29 305 368 0 307 302 308 .0089802561210691
6 .00518475328889104 .00635 18 307 366 0 309 310 304 305 ?1 29 308 371 0 310 305
 311 .0109985226280624 .00635 .00635 18 310 369 0 312 313 307 308 ?1 29 311 374
 0 313 308 314 .00733234841870825 .00733234841870823 .00635 18 313 372 0 315 316
 310 311 ?1 29 314 377 0 316 311 317 .00898025612106917 .00898025612106915 .0063
5 18 316 375 0 318 319 313 314 ?1 29 317 380 0 319 314 320 .00518475328889106 .0
0898025612106913 .00635 18 319 378 0 321 322 316 317 ?1 29 320 383 0 322 317 323
 .00635 .01099852262806236 .00635 18 322 381 0 324 325 319 320 ?1 29 323 386 0 3
25 320 38 .002683825790645875 .0100161742093541 .00635 18 325 384 0 326 35 322 3
23 ?1 29 38 389 0 35 323 36 .00328700187280202 .01226725799387116 .00635 18 35 3
87 0 327 27 325 38 ?1 17 327 0 29 31 326 35 328 329 0 330 +15 255 29 6 0 30 331
 0 17 31 0 29 26 327 27 332 333 0 179 +17 326 0 29 327 324 325 334 335 0 336 +17
 328 0 337 338 330 325 327 329 0 0 -16 329 237 0 ?327 333 335 339 0 0 1 17 330 0
 337 328 175 35 180 340 0 332 -15 337 953 0 175 341 0 17 175 0 337 330 338 174 3
42 343 0 180 +17 180 0 178 177 332 174 330 340 0 181 +16 340 903 0 ?180 344 345
 346 0 0 1 17 332 0 178 180 179 35 31 333 0 0 -15 178 951 0 177 347 0 17 179 0 1
78 332 177 27 183 345 0 32 -16 333 242 0 ?31 33 329 348 0 0 1 16 33 247 0 ?26 34
9 333 350 0 0 1 30 348 244 0 333 339 350 0 +-.00449012806053459 .007777129933336
52 .00635 -.866025403784436 -.5 0 30 339 239 0 329 351 348 0 +0 0 .00635 .258819
0451025215 .965925826289068 0 30 350 249 0 33 348 352 0 +0 0 .00635 0 1 0 31 255
 352 852 0 353 350 354 0 +0 0 0 0 0 1 1 0 0 .003175 16 353 750 0 ?355 356 0 352
 0 0 1 30 354 851 0 356 352 357 0 +-.00634999999999991 .00635 0 -.70710678118655
4 -.707106781186542 0 16 356 745 0 ?358 359 353 354 0 0 1 30 357 850 0 359 354 3
60 0 +0 0 0 -.2588190451025855 .965925826289051 0 16 359 740 0 ?44 361 356 357 0
 0 1 30 360 849 0 361 357 362 0 +-.00777712993333657 .00449012806053449 0 -.4999
99999999994 -.866025403784442 0 16 361 735 0 ?47 363 359 360 0 0 1 30 362 848 0
 363 360 364 0 +0 0 0 -.5 .866025403784438 0 16 363 730 0 ?50 365 361 362 0 0 1
 30 364 847 0 365 362 366 0 +-.00867426131403115 .002324261314031115 0 -.2588190
45102514 -.96592582628907 0 16 365 725 0 ?53 367 363 364 0 0 1 30 366 846 0 367
 364 368 0 +0 0 0 -.707106781186548 .707106781186547 0 16 367 720 0 ?56 369 365
 366 0 0 1 30 368 845 0 369 366 370 0 +-.00898025612106912 -451483979397256e-31
 0 502751784927384e-29 -1 0 16 369 715 0 ?59 371 367 368 0 0 1 30 370 844 0 371
 368 372 0 +0 0 0 -.866025403784439 .5 0 16 371 710 0 ?62 373 369 370 0 0 1 30 3
72 843 0 373 370 374 0 +-.00867426131403113 -.002324261314031235 0 .258819045102
5275 -.965925826289067 0 16 373 705 0 ?65 375 371 372 0 0 1 30 374 842 0 375 372
 376 0 +0 0 0 -.965925826289069 .2588190451025205 0 16 375 700 0 ?68 377 373 374
 0 0 1 30 376 841 0 377 374 378 0 +-.00777712993333654 -.004490128060534615 0 .5
00000000000006 -.866025403784435 0 16 377 695 0 ?71 379 375 376 0 0 1 30 378 840
 0 379 376 380 0 +0 0 0 -1 -1836970198721165e-31 0 16 379 690 0 ?74 381 377 378
 0 0 1 30 380 839 0 381 378 382 0 +-.00635 -.00635 0 .707106781186551 -.70710678
1186544 0 16 381 685 0 ?77 383 379 380 0 0 1 30 382 838 0 383 380 384 0 +0 0 0 -
.965925826289068 -.2588190451025215 0 16 383 680 0 ?80 385 381 382 0 0 1 30 384
 837 0 385 382 386 0 +-.004490128060534515 -.00777712993333661 0 .86602540378444
2 -.499999999999994 0 16 385 675 0 ?83 387 383 384 0 0 1 30 386 836 0 387 384 38
8 0 +0 0 0 -.866025403784438 -.5 0 16 387 670 0 ?86 389 385 386 0 0 1 30 388 835
 0 389 386 390 0 +-.002324261314031125 -.00867426131403119 0 .96592582628907 -.2
588190451025145 0 16 389 665 0 ?89 391 387 388 0 0 1 30 390 834 0 391 388 392 0
 +0 0 0 -.707106781186547 -.707106781186548 0 16 391 660 0 ?92 393 389 390 0 0 1
 30 392 833 0 393 390 394 0 +656703970032375e-31 -.00898025612106914 0 1 7312753
23530741e-29 0 16 393 655 0 ?95 395 391 392 0 0 1 30 394 832 0 395 392 396 0 +0
 0 0 -.5 -.866025403784439 0 16 395 650 0 ?98 397 393 394 0 0 1 30 396 831 0 397
 394 398 0 +.00232426131403124 -.00867426131403117 0 .965925826289067 .258819045
102527 0 16 397 645 0 ?101 399 395 396 0 0 1 30 398 830 0 399 396 400 0 +0 0 0 -
.2588190451025205 -.965925826289069 0 16 399 640 0 ?104 401 397 398 0 0 1 30 400
 829 0 401 398 402 0 +.004490128060534625 -.00777712993333656 0 .866025403784436
 .500000000000006 0 16 401 635 0 ?107 403 399 400 0 0 1 30 402 828 0 403 400 404
 0 +0 0 0 1224646799147444e-31 -1 0 16 403 630 0 ?110 405 401 402 0 0 1 30 404 8
27 0 405 402 406 0 +.00635 -.00635 0 .707106781186543 .707106781186552 0 16 405
 625 0 ?113 407 403 404 0 0 1 30 406 826 0 407 404 408 0 +0 0 0 .258819045102521
 -.965925826289068 0 16 407 620 0 ?116 409 405 406 0 0 1 30 408 825 0 409 406 41
0 0 +.00777712993333661 -.004490128060534525 0 .5 .866025403784442 0 16 409 615
 0 ?119 411 407 408 0 0 1 30 410 824 0 411 408 412 0 +0 0 0 .5 -.866025403784438
 0 16 411 610 0 ?122 413 409 410 0 0 1 30 412 823 0 413 410 414 0 +.008674261314
03119 -.002324261314031125 0 .2588190451025145 .96592582628907 0 16 413 605 0 ?1
25 415 411 412 0 0 1 30 414 822 0 415 412 416 0 +0 0 0 .707106781186548 -.707106
781186548 0 16 415 600 0 ?128 417 413 414 0 0 1 30 416 821 0 417 414 418 0 +.008
98025612106914 492527977524281e-31 0 -548456492648055e-29 1 0 16 417 595 0 ?131
 419 415 416 0 0 1 30 418 820 0 419 416 420 0 +0 0 0 .866025403784439 -.5 0 16 4
19 590 0 ?134 421 417 418 0 0 1 30 420 819 0 421 418 422 0 +.00867426131403114 .
002324261314031235 0 -.2588190451025275 .965925826289067 0 16 421 585 0 ?137 423
 419 420 0 0 1 30 422 818 0 423 420 424 0 +0 0 0 .965925826289069 -.258819045102
5205 0 16 423 580 0 ?140 425 421 422 0 0 1 30 424 817 0 425 422 426 0 +.00777712
993333653 .00449012806053461 0 -.500000000000006 .866025403784436 0 16 425 575 0
 ?143 427 423 424 0 0 1 30 426 816 0 427 424 428 0 +0 0 0 1 1927716320679495e-31
 0 16 427 570 0 ?146 429 425 426 0 0 1 30 428 815 0 429 426 430 0 +.00635 .00635
 0 -.707106781186552 .707106781186543 0 16 429 565 0 ?149 431 427 428 0 0 1 30 4
30 814 0 431 428 432 0 +0 0 0 .965925826289068 .258819045102521 0 16 431 560 0 ?
152 433 429 430 0 0 1 30 432 813 0 433 430 434 0 +.00449012806053451 .0077771299
3333658 0 -.866025403784442 .5 0 16 433 555 0 ?155 435 431 432 0 0 1 30 434 812
 0 435 432 436 0 +0 0 0 .866025403784438 .5 0 16 435 550 0 ?158 437 433 434 0 0
 1 30 436 811 0 437 434 438 0 +.00232426131403112 .00867426131403115 0 -.9659258
2628907 .258819045102515 0 16 437 545 0 ?161 439 435 436 0 0 1 30 438 810 0 439
 436 440 0 +0 0 0 .707106781186547 .707106781186548 0 16 439 540 0 ?164 441 437
 438 0 0 1 30 440 809 0 441 438 442 0 +-533571975651302e-31 .0089802561210691 0
 -1 -594161200368727e-29 0 16 441 535 0 ?167 443 439 440 0 0 1 30 442 808 0 443
 440 444 0 +0 0 0 .5 .866025403784438 0 16 443 530 0 ?170 445 441 442 0 0 1 30 4
44 807 0 445 442 446 0 +-.00232426131403121 .00867426131403113 0 -.9659258262890
67 -.258819045102525 0 16 445 525 0 ?173 343 443 444 0 0 1 30 446 806 0 343 444
 447 0 +0 0 0 .2588190451025215 .965925826289068 0 16 343 520 0 ?175 182 445 446
 0 0 1 30 447 805 0 182 446 448 0 +-.00449012806053459 .00777712993333652 0 -.86
6025403784436 -.5 0 16 182 515 0 ?177 188 343 447 0 0 1 30 448 804 0 188 447 449
 0 +0 0 0 0 1 0 16 188 510 0 ?184 450 182 448 0 0 1 30 449 1098 0 349 448 451 0
 +0 .0127 .00635 0 0 -1 16 349 901 0 ?189 345 33 449 0 0 1 30 451 1099 0 345 449
 346 0 +867361737988404e-33 .0103695065777821 .00635 0 0 -1 16 345 902 0 ?183 34
0 349 451 0 0 1 30 346 1100 0 340 451 452 0 +.00328700187280202 .012267257993871
16 .00635 0 0 -1 30 452 1101 0 344 346 453 0 +.002683825790645875 .0100161742093
541 .00635 0 0 -1 16 344 904 0 ?338 454 340 452 0 0 1 30 453 1102 0 454 452 455
 0 +.00635 .01099852262806236 .00635 0 0 -1 16 454 905 0 ?456 457 344 453 0 0 1
 30 455 1103 0 457 453 458 0 +.00518475328889106 .00898025612106913 .00635 0 0 -
1 16 457 906 0 ?459 460 454 455 0 0 1 30 458 1104 0 460 455 461 0 +.008980256121
06917 .00898025612106915 .00635 0 0 -1 16 460 907 0 ?462 463 457 458 0 0 1 30 46
1 1105 0 463 458 464 0 +.00733234841870825 .00733234841870823 .00635 0 0 -1 16 4
63 908 0 ?465 466 460 461 0 0 1 30 464 1106 0 466 461 467 0 +.0109985226280624 .
00635 .00635 0 0 -1 16 466 909 0 ?468 469 463 464 0 0 1 30 467 1107 0 469 464 47
0 0 +.00898025612106916 .00518475328889104 .00635 0 0 -1 16 469 910 0 ?471 472 4
66 467 0 0 1 30 470 1108 0 472 467 473 0 +.0122672579938712 .00328700187280201 .
00635 0 0 -1 16 472 911 0 ?474 475 469 470 0 0 1 30 473 1109 0 475 470 476 0 +.0
1001617420935412 .002683825790645865 .00635 0 0 -1 16 475 912 0 ?477 478 472 473
 0 0 1 30 476 1110 0 478 473 479 0 +.0127 -1127570259384924e-32 .00635 0 0 -1 16
 478 913 0 ?480 481 475 476 0 0 1 30 479 1111 0 481 476 482 0 +.0103695065777821
2 -1214306433183764e-32 .00635 0 0 -1 16 481 914 0 ?483 484 478 479 0 0 1 30 482
 1112 0 484 479 485 0 +.0122672579938712 -.003287001872802035 .00635 0 0 -1 16 4
84 915 0 ?486 487 481 482 0 0 1 30 485 1113 0 487 482 488 0 +.01001617420935412
 -.002683825790645885 .00635 0 0 -1 16 487 916 0 ?489 490 484 485 0 0 1 30 488 1
114 0 490 485 491 0 +.0109985226280624 -.00635 .00635 0 0 -1 16 490 917 0 ?492 4
93 487 488 0 0 1 30 491 1115 0 493 488 494 0 +.00898025612106917 -.0051847532888
9107 .00635 0 0 -1 16 493 918 0 ?495 496 490 491 0 0 1 30 494 1116 0 496 491 497
 0 +.00898025612106919 -.00898025612106919 .00635 0 0 -1 16 496 919 0 ?498 499 4
93 494 0 0 1 30 497 1117 0 499 494 500 0 +.00733234841870826 -.00733234841870826
 .00635 0 0 -1 16 499 920 0 ?501 502 496 497 0 0 1 30 500 1118 0 502 497 503 0 +
.00635 -.0109985226280624 .00635 0 0 -1 16 502 921 0 ?504 505 499 500 0 0 1 30 5
03 1119 0 505 500 506 0 +.00518475328889108 -.00898025612106917 .00635 0 0 -1 16
 505 922 0 ?507 508 502 503 0 0 1 30 506 1120 0 508 503 509 0 +.0032870018728020
45 -.0122672579938712 .00635 0 0 -1 16 508 923 0 ?510 511 505 506 0 0 1 30 509 1
121 0 511 506 512 0 +.0026838257906459 -.01001617420935414 .00635 0 0 -1 16 511
 924 0 ?513 514 508 509 0 0 1 30 512 1122 0 514 509 515 0 +234187669256869e-31 -
.0127 .00635 0 0 -1 16 514 925 0 ?516 517 511 512 0 0 1 30 515 1123 0 517 512 51
8 0 +234187669256869e-31 -.01036950657778214 .00635 0 0 -1 16 517 926 0 ?519 520
 514 515 0 0 1 30 518 1124 0 520 515 521 0 +-.003287001872801995 -.0122672579938
7122 .00635 0 0 -1 16 520 927 0 ?522 523 517 518 0 0 1 30 521 1125 0 523 518 524
 0 +-.00268382579064585 -.01001617420935414 .00635 0 0 -1 16 523 928 0 ?525 526
 520 521 0 0 1 30 524 1126 0 526 521 527 0 +-.00635 -.01099852262806242 .00635 0
 0 -1 16 526 929 0 ?528 529 523 524 0 0 1 30 527 1127 0 529 524 530 0 +-.0051847
5328889103 -.00898025612106918 .00635 0 0 -1 16 529 930 0 ?531 532 526 527 0 0 1
 30 530 1128 0 532 527 533 0 +-.00898025612106915 -.00898025612106921 .00635 0 0
 -1 16 532 931 0 ?534 535 529 530 0 0 1 30 533 1129 0 535 530 536 0 +-.007332348
41870822 -.00733234841870828 .00635 0 0 -1 16 535 932 0 ?537 538 532 533 0 0 1 3
0 536 1130 0 538 533 539 0 +-.01099852262806236 -.00635 .00635 0 0 -1 16 538 933
 0 ?540 541 535 536 0 0 1 30 539 1131 0 541 536 542 0 +-.00898025612106913 -.005
1847532888911 .00635 0 0 -1 16 541 934 0 ?543 544 538 539 0 0 1 30 542 1132 0 54
4 539 545 0 +-.01226725799387116 -.003287001872802065 .00635 0 0 -1 16 544 935 0
 ?546 547 541 542 0 0 1 30 545 1133 0 547 542 548 0 +-.0100161742093541 -.002683
825790645915 .00635 0 0 -1 16 547 936 0 ?549 550 544 545 0 0 1 30 548 1134 0 550
 545 551 0 +-.0127 -3729655473350135e-32 .00635 0 0 -1 16 550 937 0 ?552 553 547
 548 0 0 1 30 551 1135 0 553 548 554 0 +-.0103695065777821 -3642919299551295e-32
 .00635 0 0 -1 16 553 938 0 ?555 556 550 551 0 0 1 30 554 1136 0 556 551 557 0 +
-.01226725799387118 .00328700187280198 .00635 0 0 -1 16 556 939 0 ?558 559 553 5
54 0 0 1 30 557 1137 0 559 554 560 0 +-.0100161742093541 .002683825790645835 .00
635 0 0 -1 16 559 940 0 ?561 562 556 557 0 0 1 30 560 1138 0 562 557 563 0 +-.01
09985226280624 .00635 .00635 0 0 -1 16 562 941 0 ?564 565 559 560 0 0 1 30 563 1
139 0 565 560 566 0 +-.00898025612106915 .00518475328889102 .00635 0 0 -1 16 565
 942 0 ?567 568 562 563 0 0 1 30 566 1140 0 568 563 569 0 +-.00898025612106917 .
00898025612106914 .00635 0 0 -1 16 568 943 0 ?570 571 565 566 0 0 1 30 569 1141
 0 571 566 572 0 +-.00733234841870824 .00733234841870821 .00635 0 0 -1 16 571 94
4 0 ?573 574 568 569 0 0 1 30 572 1142 0 574 569 575 0 +-.00635 .010998522628062
36 .00635 0 0 -1 16 574 945 0 ?576 577 571 572 0 0 1 30 575 1143 0 577 572 20 0
 +-.00518475328889106 .00898025612106912 .00635 0 0 -1 16 577 946 0 ?578 25 574
 575 0 0 1 30 20 1144 0 25 575 7 0 +-.00328700187280203 .01226725799387116 .0063
5 0 0 -1 16 25 947 0 ?579 10 577 20 0 0 1 17 579 0 580 47 581 42 194 25 0 582 +1
5 580 1039 0 47 583 0 17 47 0 580 584 579 45 582 361 0 578 +17 581 0 580 579 584
 191 201 585 0 0 -17 194 0 193 190 44 191 579 25 0 581 -17 582 0 586 41 587 42 4
7 361 0 0 -15 586 509 0 588 589 0 17 41 0 586 588 582 39 44 359 0 24 -17 587 0 5
86 582 590 45 50 363 0 0 -17 590 0 586 587 591 48 53 365 0 0 -17 50 0 592 593 57
8 48 587 363 0 576 +15 592 1037 0 50 594 0 17 593 0 592 595 50 202 576 574 0 596
 -17 578 0 592 50 595 45 584 577 0 587 +17 576 0 597 53 596 48 593 574 0 590 +15
 597 1035 0 53 598 0 17 53 0 597 599 576 51 590 365 0 573 +17 596 0 597 576 599
 202 207 600 0 0 -17 599 0 597 596 53 205 573 571 0 601 -17 207 0 29 210 204 205
 596 600 0 599 +16 600 32 0 ?207 602 603 604 0 0 1 16 602 37 0 ?210 605 600 606
 0 0 1 16 603 27 0 ?204 600 585 607 0 0 1 30 604 34 0 600 607 606 0 +-.008674261
31403115 .002324261314031115 .00635 -.258819045102514 -.96592582628907 0 30 607
 29 0 603 608 604 0 +0 0 .00635 -.5 .866025403784438 0 30 606 39 0 602 604 609 0
 +0 0 .00635 -.707106781186548 .707106781186547 0 30 609 44 0 605 606 610 0 +-.0
0898025612106912 -451483979397256e-31 .00635 502751784927384e-29 -1 0 16 605 42
 0 ?213 611 602 609 0 0 1 30 610 49 0 611 609 612 0 +0 0 .00635 -.86602540378443
9 .5 0 16 611 47 0 ?216 613 605 610 0 0 1 30 612 54 0 613 610 614 0 +-.008674261
31403113 -.002324261314031235 .00635 .2588190451025275 -.965925826289067 0 16 61
3 52 0 ?219 615 611 612 0 0 1 30 614 59 0 615 612 616 0 +0 0 .00635 -.9659258262
89069 .2588190451025205 0 16 615 57 0 ?222 617 613 614 0 0 1 30 616 64 0 617 614
 618 0 +-.00777712993333654 -.004490128060534615 .00635 .500000000000006 -.86602
5403784435 0 16 617 62 0 ?225 619 615 616 0 0 1 30 618 69 0 619 616 620 0 +0 0 .
00635 -1 -1836970198721165e-31 0 16 619 67 0 ?228 621 617 618 0 0 1 30 620 74 0
 621 618 622 0 +-.00635 -.00635 .00635 .707106781186551 -.707106781186544 0 16 6
21 72 0 ?231 623 619 620 0 0 1 30 622 79 0 623 620 624 0 +0 0 .00635 -.965925826
289068 -.2588190451025215 0 16 623 77 0 ?234 625 621 622 0 0 1 30 624 84 0 625 6
22 626 0 +-.004490128060534515 -.00777712993333661 .00635 .866025403784442 -.499
999999999994 0 16 625 82 0 ?237 627 623 624 0 0 1 30 626 89 0 627 624 628 0 +0 0
 .00635 -.866025403784438 -.5 0 16 627 87 0 ?240 629 625 626 0 0 1 30 628 94 0 6
29 626 630 0 +-.002324261314031125 -.00867426131403119 .00635 .96592582628907 -.
2588190451025145 0 16 629 92 0 ?243 631 627 628 0 0 1 30 630 99 0 631 628 632 0
 +0 0 .00635 -.707106781186547 -.707106781186548 0 16 631 97 0 ?246 633 629 630
 0 0 1 30 632 104 0 633 630 634 0 +656703970032375e-31 -.00898025612106914 .0063
5 1 731275323530741e-29 0 16 633 102 0 ?249 635 631 632 0 0 1 30 634 109 0 635 6
32 636 0 +0 0 .00635 -.5 -.866025403784439 0 16 635 107 0 ?252 637 633 634 0 0 1
 30 636 114 0 637 634 638 0 +.00232426131403124 -.00867426131403117 .00635 .9659
25826289067 .258819045102527 0 16 637 112 0 ?255 639 635 636 0 0 1 30 638 119 0
 639 636 640 0 +0 0 .00635 -.2588190451025205 -.965925826289069 0 16 639 117 0 ?
258 641 637 638 0 0 1 30 640 124 0 641 638 642 0 +.004490128060534625 -.00777712
993333656 .00635 .866025403784436 .500000000000006 0 16 641 122 0 ?261 643 639 6
40 0 0 1 30 642 129 0 643 640 644 0 +0 0 .00635 1224646799147444e-31 -1 0 16 643
 127 0 ?264 645 641 642 0 0 1 30 644 134 0 645 642 646 0 +.00635 -.00635 .00635
 .707106781186543 .707106781186552 0 16 645 132 0 ?267 647 643 644 0 0 1 30 646
 139 0 647 644 648 0 +0 0 .00635 .258819045102521 -.965925826289068 0 16 647 137
 0 ?270 649 645 646 0 0 1 30 648 144 0 649 646 650 0 +.00777712993333661 -.00449
0128060534525 .00635 .5 .866025403784442 0 16 649 142 0 ?273 651 647 648 0 0 1 3
0 650 149 0 651 648 652 0 +0 0 .00635 .5 -.866025403784438 0 16 651 147 0 ?276 6
53 649 650 0 0 1 30 652 154 0 653 650 654 0 +.00867426131403119 -.00232426131403
1125 .00635 .2588190451025145 .96592582628907 0 16 653 152 0 ?279 655 651 652 0
 0 1 30 654 159 0 655 652 656 0 +0 0 .00635 .707106781186548 -.707106781186548 0
 16 655 157 0 ?282 657 653 654 0 0 1 30 656 164 0 657 654 658 0 +.00898025612106
914 492527977524281e-31 .00635 -548456492648055e-29 1 0 16 657 162 0 ?285 659 65
5 656 0 0 1 30 658 169 0 659 656 660 0 +0 0 .00635 .866025403784439 -.5 0 16 659
 167 0 ?288 661 657 658 0 0 1 30 660 174 0 661 658 662 0 +.00867426131403114 .00
2324261314031235 .00635 -.2588190451025275 .965925826289067 0 16 661 172 0 ?291
 663 659 660 0 0 1 30 662 179 0 663 660 664 0 +0 0 .00635 .965925826289069 -.258
8190451025205 0 16 663 177 0 ?294 665 661 662 0 0 1 30 664 184 0 665 662 666 0 +
.00777712993333653 .00449012806053461 .00635 -.500000000000006 .866025403784436
 0 16 665 182 0 ?297 667 663 664 0 0 1 30 666 189 0 667 664 668 0 +0 0 .00635 1
 1927716320679495e-31 0 16 667 187 0 ?300 669 665 666 0 0 1 30 668 194 0 669 666
 670 0 +.00635 .00635 .00635 -.707106781186552 .707106781186543 0 16 669 192 0 ?
303 671 667 668 0 0 1 30 670 199 0 671 668 672 0 +0 0 .00635 .965925826289068 .2
58819045102521 0 16 671 197 0 ?306 673 669 670 0 0 1 30 672 204 0 673 670 674 0
 +.00449012806053451 .00777712993333658 .00635 -.866025403784442 .5 0 16 673 202
 0 ?309 675 671 672 0 0 1 30 674 209 0 675 672 676 0 +0 0 .00635 .86602540378443
8 .5 0 16 675 207 0 ?312 677 673 674 0 0 1 30 676 214 0 677 674 678 0 +.00232426
131403112 .00867426131403115 .00635 -.96592582628907 .258819045102515 0 16 677 2
12 0 ?315 679 675 676 0 0 1 30 678 219 0 679 676 680 0 +0 0 .00635 .707106781186
547 .707106781186548 0 16 679 217 0 ?318 681 677 678 0 0 1 30 680 224 0 681 678
 682 0 +-533571975651302e-31 .0089802561210691 .00635 -1 -594161200368727e-29 0
 16 681 222 0 ?321 683 679 680 0 0 1 30 682 229 0 683 680 351 0 +0 0 .00635 .5 .
866025403784438 0 16 683 227 0 ?324 335 681 682 0 0 1 30 351 234 0 335 682 339 0
 +-.00232426131403121 .00867426131403113 .00635 -.965925826289067 -.258819045102
525 0 16 335 232 0 ?326 329 683 351 0 0 1 17 324 0 29 326 321 322 684 683 0 685
 +17 321 0 29 324 318 319 686 681 0 687 +17 684 0 688 459 685 319 324 683 0 0 -1
7 685 0 688 684 170 322 456 454 0 334 -15 688 957 0 170 689 0 17 170 0 688 685 4
59 168 690 443 0 456 +17 456 0 691 173 334 168 685 454 0 692 +17 334 0 691 456 3
36 322 326 335 0 0 -15 691 955 0 173 693 0 17 336 0 691 334 173 325 338 344 0 32
8 -17 173 0 691 336 456 171 692 445 0 338 +17 338 0 337 175 328 171 336 344 0 34
2 +17 342 0 586 692 181 171 175 343 0 0 -17 692 0 586 690 342 168 173 445 0 0 -1
7 181 0 586 342 187 174 177 182 0 0 -17 187 0 586 181 588 176 184 188 0 0 -17 58
8 0 586 187 41 21 358 356 0 0 -17 358 0 694 695 189 39 588 356 0 0 +15 694 1043
 0 358 16 0 17 695 0 694 696 358 185 24 10 0 0 -17 189 0 694 358 696 21 34 349 0
 588 +17 696 0 694 189 695 11 30 697 0 0 -17 34 0 186 32 184 11 189 349 0 696 -1
5 186 949 0 184 698 0 17 32 0 186 183 34 27 26 33 0 0 -17 183 0 186 184 32 176 1
79 345 0 187 +14 255 698 950 699 ?331 18 186 5 700 -0 0 331 18 23 81 1 699 2192
 701 698 702 0 0 703 704 14 331 1 703 ?589 698 705 5 706 +0 0 589 698 23 14 18 1
046 707 ?698 347 708 5 6 +0 0 698 347 23 50 255 700 1049 0 698 709 710 0 +0 0 .0
0635 -1 0 0 0 0 1 13 23 399 0 0 0 0 0 0 9 16 14 16 1044 711 ?712 0 694 5 19 -0 0
 712 0 23 81 1 711 2195 701 16 713 0 707 714 715 14 712 1042 714 ?583 16 193 5 7
16 -0 0 583 16 23 50 19 1096 0 16 716 6 0 +-.00634999999999991 .00635 .00635 .70
7106781186542 -.707106781186554 0 .707106781186554 .707106781186542 0 50 716 109
5 0 712 717 19 0 +0 0 .00635 -.965925826289051 -.2588190451025855 0 .25881904510
25855 -.965925826289051 0 50 717 1094 0 583 718 716 0 +-.00777712993333657 .0044
9012806053449 .00635 .866025403784442 -.499999999999994 0 .499999999999994 .8660
25403784442 0 14 583 1040 719 ?594 712 580 5 717 -0 0 594 712 23 50 718 1093 0 5
94 720 717 0 +0 0 .00635 -.866025403784438 -.5 0 .5 -.866025403784439 0 14 594 1
038 721 ?598 583 592 5 718 -0 0 598 583 23 50 720 1092 0 598 722 718 0 +-.008674
26131403115 .002324261314031115 .00635 .96592582628907 -.258819045102514 0 .2588
19045102514 .96592582628907 0 14 598 1036 723 ?724 594 597 5 720 -0 0 724 594 23
 50 722 1091 0 724 725 720 0 +0 0 .00635 -.707106781186547 -.707106781186548 0 .
707106781186548 -.707106781186547 0 14 724 1034 726 ?727 598 728 5 722 -0 0 727
 598 23 50 725 1090 0 727 729 722 0 +-.00898025612106912 -451483979397256e-31 .0
0635 1 502751784927384e-29 0 -502751784927384e-29 1 0 14 727 1032 730 ?731 724 7
32 5 725 -0 0 731 724 23 50 729 1089 0 731 733 725 0 +0 0 .00635 -.5 -.866025403
784439 0 .866025403784439 -.5 0 14 731 1030 734 ?735 727 736 5 729 -0 0 735 727
 23 50 733 1088 0 735 737 729 0 +-.00867426131403113 -.002324261314031235 .00635
 .965925826289066 .2588190451025275 0 -.2588190451025275 .965925826289067 0 14 7
35 1028 738 ?739 731 740 5 733 -0 0 739 731 23 50 737 1087 0 739 741 733 0 +0 0
 .00635 -.2588190451025205 -.965925826289068 0 .965925826289069 -.25881904510252
05 0 14 739 1026 742 ?743 735 744 5 737 -0 0 743 735 23 50 741 1086 0 743 745 73
7 0 +-.00777712993333654 -.004490128060534615 .00635 .866025403784435 .500000000
000006 0 -.500000000000006 .866025403784435 0 14 743 1024 746 ?747 739 748 5 741
 -0 0 747 739 23 50 745 1085 0 747 749 741 0 +0 0 .00635 1836970198721165e-31 -1
 0 1 1836970198721165e-31 0 14 747 1022 750 ?751 743 752 5 745 -0 0 751 743 23 5
0 749 1084 0 751 753 745 0 +-.00635 -.00635 .00635 .707106781186544 .70710678118
6551 0 -.707106781186551 .707106781186544 0 14 751 1020 754 ?755 747 756 5 749 -
0 0 755 747 23 50 753 1083 0 755 757 749 0 +0 0 .00635 .2588190451025215 -.96592
5826289068 0 .965925826289068 .2588190451025215 0 14 755 1018 758 ?759 751 760 5
 753 -0 0 759 751 23 50 757 1082 0 759 761 753 0 +-.004490128060534515 -.0077771
2993333661 .00635 .499999999999994 .866025403784442 0 -.866025403784442 .4999999
99999994 0 14 759 1016 762 ?763 755 764 5 757 -0 0 763 755 23 50 761 1081 0 763
 765 757 0 +0 0 .00635 .5 -.866025403784438 0 .866025403784439 .5 0 14 763 1014
 766 ?767 759 768 5 761 -0 0 767 759 23 50 765 1080 0 767 769 761 0 +-.002324261
314031125 -.00867426131403119 .00635 .2588190451025145 .96592582628907 0 -.96592
582628907 .2588190451025145 0 14 767 1012 770 ?771 763 772 5 765 -0 0 771 763 23
 50 769 1079 0 771 773 765 0 +0 0 .00635 .707106781186548 -.707106781186547 0 .7
07106781186547 .707106781186548 0 14 771 1010 774 ?775 767 776 5 769 -0 0 775 76
7 23 50 773 1078 0 775 777 769 0 +656703970032375e-31 -.00898025612106914 .00635
 -731275323530741e-29 1 0 -1 -731275323530741e-29 0 14 775 1008 778 ?779 771 780
 5 773 -0 0 779 771 23 50 777 1077 0 779 781 773 0 +0 0 .00635 .866025403784439
 -.5 0 .5 .866025403784439 0 14 779 1006 782 ?783 775 784 5 777 -0 0 783 775 23
 50 781 1076 0 783 785 777 0 +.00232426131403124 -.00867426131403117 .00635 -.25
8819045102527 .965925826289067 0 -.965925826289067 -.258819045102527 0 14 783 10
04 786 ?787 779 788 5 781 -0 0 787 779 23 50 785 1075 0 787 789 781 0 +0 0 .0063
5 .965925826289068 -.2588190451025205 0 .2588190451025205 .965925826289069 0 14
 787 1002 790 ?791 783 792 5 785 -0 0 791 783 23 50 789 1074 0 791 793 785 0 +.0
04490128060534625 -.00777712993333656 .00635 -.5 .866025403784435 0 -.8660254037
84436 -.500000000000006 0 14 791 1000 794 ?795 787 796 5 789 -0 0 795 787 23 50
 793 1073 0 795 797 789 0 +0 0 .00635 1 1224646799147444e-31 0 -1224646799147444
e-31 1 0 14 795 998 798 ?799 791 800 5 793 -0 0 799 791 23 50 797 1072 0 799 801
 793 0 +.00635 -.00635 .00635 -.707106781186552 .707106781186543 0 -.70710678118
6543 -.707106781186552 0 14 799 996 802 ?803 795 804 5 797 -0 0 803 795 23 50 80
1 1071 0 803 805 797 0 +0 0 .00635 .965925826289068 .258819045102521 0 -.2588190
45102521 .965925826289068 0 14 803 994 806 ?807 799 808 5 801 -0 0 807 799 23 50
 805 1070 0 807 809 801 0 +.00777712993333661 -.004490128060534525 .00635 -.8660
25403784442 .5 0 -.5 -.866025403784442 0 14 807 992 810 ?811 803 812 5 805 -0 0
 811 803 23 50 809 1069 0 811 813 805 0 +0 0 .00635 .866025403784438 .5 0 -.5 .8
66025403784439 0 14 811 990 814 ?815 807 816 5 809 -0 0 815 807 23 50 813 1068 0
 815 817 809 0 +.00867426131403119 -.002324261314031125 .00635 -.96592582628907
 .2588190451025145 0 -.2588190451025145 -.96592582628907 0 14 815 988 818 ?819 8
11 820 5 813 -0 0 819 811 23 50 817 1067 0 819 821 813 0 +0 0 .00635 .7071067811
86548 .707106781186548 0 -.707106781186548 .707106781186548 0 14 819 986 822 ?82
3 815 824 5 817 -0 0 823 815 23 50 821 1066 0 823 825 817 0 +.00898025612106914
 492527977524281e-31 .00635 -1 -548456492648055e-29 0 548456492648055e-29 -1 0 1
4 823 984 826 ?827 819 828 5 821 -0 0 827 819 23 50 825 1065 0 827 829 821 0 +0
 0 .00635 .5 .866025403784439 0 -.866025403784439 .5 0 14 827 982 830 ?831 823 8
32 5 825 -0 0 831 823 23 50 829 1064 0 831 833 825 0 +.00867426131403114 .002324
261314031235 .00635 -.965925826289066 -.2588190451025275 0 .2588190451025275 -.9
65925826289067 0 14 831 980 834 ?835 827 836 5 829 -0 0 835 827 23 50 833 1063 0
 835 837 829 0 +0 0 .00635 .2588190451025205 .965925826289068 0 -.96592582628906
9 .2588190451025205 0 14 835 978 838 ?839 831 840 5 833 -0 0 839 831 23 50 837 1
062 0 839 841 833 0 +.00777712993333653 .00449012806053461 .00635 -.866025403784
435 -.5 0 .500000000000006 -.866025403784436 0 14 839 976 842 ?843 835 844 5 837
 -0 0 843 835 23 50 841 1061 0 843 845 837 0 +0 0 .00635 -1927716320679495e-31 1
 0 -1 -1927716320679495e-31 0 14 843 974 846 ?847 839 848 5 841 -0 0 847 839 23
 50 845 1060 0 847 849 841 0 +.00635 .00635 .00635 -.707106781186543 -.707106781
186552 0 .707106781186552 -.707106781186543 0 14 847 972 850 ?851 843 852 5 845
 -0 0 851 843 23 50 849 1059 0 851 853 845 0 +0 0 .00635 -.258819045102521 .9659
25826289068 0 -.965925826289068 -.258819045102521 0 14 851 970 854 ?855 847 856
 5 849 -0 0 855 847 23 50 853 1058 0 855 857 849 0 +.00449012806053451 .00777712
993333658 .00635 -.5 -.866025403784442 0 .866025403784442 -.5 0 14 855 968 858 ?
859 851 860 5 853 -0 0 859 851 23 50 857 1057 0 859 861 853 0 +0 0 .00635 -.5 .8
66025403784438 0 -.866025403784439 -.5 0 14 859 966 862 ?863 855 864 5 857 -0 0
 863 855 23 50 861 1056 0 863 865 857 0 +.00232426131403112 .00867426131403115 .
00635 -.258819045102515 -.96592582628907 0 .96592582628907 -.258819045102515 0 1
4 863 964 866 ?867 859 868 5 861 -0 0 867 859 23 50 865 1055 0 867 869 861 0 +0
 0 .00635 -.707106781186548 .707106781186547 0 -.707106781186547 -.7071067811865
48 0 14 867 962 870 ?871 863 872 5 865 -0 0 871 863 23 50 869 1054 0 871 873 865
 0 +-533571975651302e-31 .0089802561210691 .00635 594161200368727e-29 -1 0 1 594
161200368727e-29 0 14 871 960 874 ?689 867 875 5 869 -0 0 689 867 23 50 873 1053
 0 689 876 869 0 +0 0 .00635 -.866025403784438 .5 0 -.5 -.866025403784438 0 14 6
89 958 877 ?693 871 688 5 873 -0 0 693 871 23 50 876 1052 0 693 878 873 0 +-.002
32426131403121 .00867426131403113 .00635 .2588190451025245 -.965925826289067 0 .
965925826289067 .258819045102525 0 14 693 956 879 ?341 689 691 5 876 -0 0 341 68
9 23 50 878 1051 0 341 710 876 0 +0 0 .00635 -.965925826289068 .2588190451025215
 0 -.2588190451025215 -.965925826289068 0 14 341 954 880 ?347 693 337 5 878 -0 0
 347 693 23 50 710 1050 0 347 700 878 0 +-.00449012806053459 .00777712993333652
 .00635 .5 -.866025403784436 0 .866025403784436 .5 0 14 347 952 881 ?18 341 178
 5 710 -0 0 18 341 23 81 1 881 2241 701 347 882 0 880 883 884 80 255 1 701 885 8
86 9000 1 1 1 1 1 1 1 1 0 FFFFTFTFFFFFFF1 81 1 882 2083 887 347 0 881 888 889 89
0 81 1 880 2240 701 341 888 0 879 881 891 81 1 883 2242 701 589 892 0 881 0 893
 82 255 1 884 -70320010 14 589 506 883 ?0 331 894 5 709 -0 0 0 331 23 81 1 892 2
087 887 589 0 883 895 0 896 82 1 893 -86179722 80 1 887 0 897 8001 0 0 0 0 3 5 0
 0 0 FFFFTFTFFFFFFF2 81 1 895 2086 887 331 0 703 702 892 898 83 255 3 896 1 .960
78431372549 .890196078431373 81 1 703 2193 701 331 895 0 699 707 899 81 1 702 20
85 887 698 0 699 889 895 900 83 3 898 1 .96078431372549 .890196078431373 81 1 88
9 2084 887 18 0 707 882 702 901 83 3 900 1 .96078431372549 .890196078431373 81 1
 707 2194 701 18 889 0 703 711 902 83 3 901 1 .96078431372549 .890196078431373 8
2 1 902 -57999242 82 1 899 -145751946 79 255 15 897 SDL/TYSA_COLOUR15 894 508 0
 355 589 586 50 709 803 0 589 706 700 0 +0 0 0 0 0 1 1 0 0 50 706 3 0 331 0 709
 0 +0 0 .00635 0 0 1 1 0 0 17 355 0 894 355 355 0 903 353 0 0 +17 903 0 904 903
 903 0 355 353 0 0 -15 904 1047 0 903 18 0 81 1 888 2082 887 341 0 880 905 882 9
06 81 1 879 2239 701 693 905 0 877 880 907 82 1 891 -70057866 81 1 905 2081 887
 693 0 879 908 888 909 81 1 877 2238 701 689 908 0 874 879 910 82 1 907 -6979572
2 81 1 908 2080 887 689 0 877 911 905 912 81 1 874 2237 701 871 911 0 870 877 91
3 82 1 910 -69533578 81 1 911 2079 887 871 0 874 914 908 915 81 1 870 2236 701 8
67 914 0 866 874 916 82 1 913 -69271434 81 1 914 2078 887 867 0 870 917 911 918
 81 1 866 2235 701 863 917 0 862 870 919 82 1 916 -69009290 81 1 917 2077 887 86
3 0 866 920 914 921 81 1 862 2234 701 859 920 0 858 866 922 82 1 919 -68747146 8
1 1 920 2076 887 859 0 862 923 917 924 81 1 858 2233 701 855 923 0 854 862 925 8
2 1 922 -68485002 81 1 923 2075 887 855 0 858 926 920 927 81 1 854 2232 701 851
 926 0 850 858 928 82 1 925 -68222858 81 1 926 2074 887 851 0 854 929 923 930 81
 1 850 2231 701 847 929 0 846 854 931 82 1 928 -67960714 81 1 929 2073 887 847 0
 850 932 926 933 81 1 846 2230 701 843 932 0 842 850 934 82 1 931 -67698570 81 1
 932 2072 887 843 0 846 935 929 936 81 1 842 2229 701 839 935 0 838 846 937 82 1
 934 -67436426 81 1 935 2071 887 839 0 842 938 932 939 81 1 838 2228 701 835 938
 0 834 842 940 82 1 937 -67174282 81 1 938 2070 887 835 0 838 941 935 942 81 1 8
34 2227 701 831 941 0 830 838 943 82 1 940 -66912138 81 1 941 2069 887 831 0 834
 944 938 945 81 1 830 2226 701 827 944 0 826 834 946 82 1 943 -66649994 81 1 944
 2068 887 827 0 830 947 941 948 81 1 826 2225 701 823 947 0 822 830 949 82 1 946
 -66387850 81 1 947 2067 887 823 0 826 950 944 951 81 1 822 2224 701 819 950 0 8
18 826 952 82 1 949 -66125706 81 1 950 2066 887 819 0 822 953 947 954 81 1 818 2
223 701 815 953 0 814 822 955 82 1 952 -65863562 81 1 953 2065 887 815 0 818 956
 950 957 81 1 814 2222 701 811 956 0 810 818 958 82 1 955 -65601418 81 1 956 206
4 887 811 0 814 959 953 960 81 1 810 2221 701 807 959 0 806 814 961 82 1 958 -65
339274 81 1 959 2063 887 807 0 810 962 956 963 81 1 806 2220 701 803 962 0 802 8
10 964 82 1 961 -65077130 81 1 962 2062 887 803 0 806 965 959 966 81 1 802 2219
 701 799 965 0 798 806 967 82 1 964 -64814986 81 1 965 2061 887 799 0 802 968 96
2 969 81 1 798 2218 701 795 968 0 794 802 970 82 1 967 -64552842 81 1 968 2060 8
87 795 0 798 971 965 972 81 1 794 2217 701 791 971 0 790 798 973 82 1 970 -64290
698 81 1 971 2059 887 791 0 794 974 968 975 81 1 790 2216 701 787 974 0 786 794
 976 82 1 973 -64028554 81 1 974 2058 887 787 0 790 977 971 978 81 1 786 2215 70
1 783 977 0 782 790 979 82 1 976 -63766410 81 1 977 2057 887 783 0 786 980 974 9
81 81 1 782 2214 701 779 980 0 778 786 982 82 1 979 -63504266 81 1 980 2056 887
 779 0 782 983 977 984 81 1 778 2213 701 775 983 0 774 782 985 82 1 982 -6324212
2 81 1 983 2055 887 775 0 778 986 980 987 81 1 774 2212 701 771 986 0 770 778 98
8 82 1 985 -62979978 81 1 986 2054 887 771 0 774 989 983 990 81 1 770 2211 701 7
67 989 0 766 774 991 82 1 988 -62717834 81 1 989 2053 887 767 0 770 992 986 993
 81 1 766 2210 701 763 992 0 762 770 994 82 1 991 -62455690 81 1 992 2052 887 76
3 0 766 995 989 996 81 1 762 2209 701 759 995 0 758 766 997 82 1 994 -62193546 8
1 1 995 2051 887 759 0 762 998 992 999 81 1 758 2208 701 755 998 0 754 762 1000
 82 1 997 -61931402 81 1 998 2050 887 755 0 758 1001 995 1002 81 1 754 2207 701
 751 1001 0 750 758 1003 82 1 1000 -61669258 81 1 1001 2049 887 751 0 754 1004 9
98 1005 81 1 750 2206 701 747 1004 0 746 754 1006 82 1 1003 -61407114 81 1 1004
 2048 887 747 0 750 1007 1001 1008 81 1 746 2205 701 743 1007 0 742 750 1009 82
 1 1006 -61144970 81 1 1007 2047 887 743 0 746 1010 1004 1011 81 1 742 2204 701
 739 1010 0 738 746 1012 82 1 1009 -60882826 81 1 1010 2046 887 739 0 742 1013 1
007 1014 81 1 738 2203 701 735 1013 0 734 742 1015 82 1 1012 -60620682 81 1 1013
 2045 887 735 0 738 1016 1010 1017 81 1 734 2202 701 731 1016 0 730 738 1018 82
 1 1015 -60358538 81 1 1016 2044 887 731 0 734 1019 1013 1020 81 1 730 2201 701
 727 1019 0 726 734 1021 82 1 1018 -60096394 81 1 1019 2043 887 727 0 730 1022 1
016 1023 81 1 726 2200 701 724 1022 0 723 730 1024 82 1 1021 -59834250 81 1 1022
 2042 887 724 0 726 1025 1019 1026 81 1 723 2199 701 598 1025 0 721 726 1027 82
 1 1024 -59572106 81 1 1025 2041 887 598 0 723 1028 1022 1029 81 1 721 2198 701
 594 1028 0 719 723 1030 82 1 1027 -59309962 81 1 1028 2040 887 594 0 721 1031 1
025 1032 81 1 719 2197 701 583 1031 0 714 721 1033 82 1 1030 -59047818 81 1 1031
 2039 887 583 0 719 1034 1028 1035 81 1 714 2196 701 712 1034 0 711 719 1036 82
 1 1033 -58785674 81 1 1034 2038 887 712 0 714 713 1031 1037 82 1 1036 -58523530
 81 1 713 2037 887 16 0 711 0 1034 1038 83 3 1037 1 .96078431372549 .89019607843
1373 83 3 1038 1 .96078431372549 .890196078431373 83 3 1035 1 .96078431372549 .8
90196078431373 83 3 1032 1 .96078431372549 .890196078431373 83 3 1029 1 .9607843
1372549 .890196078431373 83 3 1026 1 .96078431372549 .890196078431373 83 3 1023
 1 .96078431372549 .890196078431373 83 3 1020 1 .96078431372549 .890196078431373
 83 3 1017 1 .96078431372549 .890196078431373 83 3 1014 1 .96078431372549 .89019
6078431373 83 3 1011 1 .96078431372549 .890196078431373 83 3 1008 1 .96078431372
549 .890196078431373 83 3 1005 1 .96078431372549 .890196078431373 83 3 1002 1 .9
6078431372549 .890196078431373 83 3 999 1 .96078431372549 .890196078431373 83 3
 996 1 .96078431372549 .890196078431373 83 3 993 1 .96078431372549 .890196078431
373 83 3 990 1 .96078431372549 .890196078431373 83 3 987 1 .96078431372549 .8901
96078431373 83 3 984 1 .96078431372549 .890196078431373 83 3 981 1 .960784313725
49 .890196078431373 83 3 978 1 .96078431372549 .890196078431373 83 3 975 1 .9607
8431372549 .890196078431373 83 3 972 1 .96078431372549 .890196078431373 83 3 969
 1 .96078431372549 .890196078431373 83 3 966 1 .96078431372549 .890196078431373
 83 3 963 1 .96078431372549 .890196078431373 83 3 960 1 .96078431372549 .8901960
78431373 83 3 957 1 .96078431372549 .890196078431373 83 3 954 1 .96078431372549
 .890196078431373 83 3 951 1 .96078431372549 .890196078431373 83 3 948 1 .960784
31372549 .890196078431373 83 3 945 1 .96078431372549 .890196078431373 83 3 942 1
 .96078431372549 .890196078431373 83 3 939 1 .96078431372549 .890196078431373 83
 3 936 1 .96078431372549 .890196078431373 83 3 933 1 .96078431372549 .8901960784
31373 83 3 930 1 .96078431372549 .890196078431373 83 3 927 1 .96078431372549 .89
0196078431373 83 3 924 1 .96078431372549 .890196078431373 83 3 921 1 .9607843137
2549 .890196078431373 83 3 918 1 .96078431372549 .890196078431373 83 3 915 1 .96
078431372549 .890196078431373 83 3 912 1 .96078431372549 .890196078431373 83 3 9
09 1 .96078431372549 .890196078431373 83 3 906 1 .96078431372549 .89019607843137
3 83 3 890 1 .96078431372549 .890196078431373 79 14 886 SWEntUnchanged15 875 959
 0 167 871 0 17 167 0 875 687 462 165 1039 441 0 459 +17 687 0 875 686 167 319 4
59 457 0 684 -17 462 0 875 167 686 162 1040 460 0 1039 +17 1039 0 586 1041 690 1
62 167 441 0 0 -17 459 0 688 170 684 165 687 457 0 690 +17 690 0 586 1039 692 16
5 170 443 0 0 -17 1041 0 586 1042 1039 159 164 439 0 0 -17 1042 0 586 1043 1041
 156 161 437 0 0 -17 164 0 872 1040 465 162 1041 439 0 462 +15 872 961 0 164 867
 0 17 1040 0 872 1044 164 316 462 460 0 686 -17 465 0 872 164 1044 159 1045 463
 0 1041 +17 1044 0 872 465 1040 313 318 679 0 0 -17 1045 0 868 1046 161 313 465
 463 0 1044 -15 868 963 0 161 863 0 17 1046 0 868 468 1045 310 315 677 0 0 -17 1
61 0 868 1045 468 159 1042 437 0 465 +17 468 0 868 161 1046 156 1047 466 0 1042
 +17 1047 0 864 1048 158 310 468 466 0 1046 -15 864 965 0 158 859 0 17 1048 0 86
4 471 1047 307 312 675 0 0 -17 158 0 864 1047 471 156 1043 435 0 468 +17 471 0 8
64 158 1048 153 1049 469 0 1043 +17 1043 0 586 1050 1042 153 158 435 0 0 -17 105
0 0 586 1051 1043 150 155 433 0 0 -17 1051 0 586 1052 1050 147 152 431 0 0 -17 1
55 0 860 1049 474 153 1050 433 0 471 +15 860 967 0 155 855 0 17 1049 0 860 1053
 155 307 471 469 0 1048 -17 474 0 860 155 1053 150 1054 472 0 1050 +17 1053 0 86
0 474 1049 304 309 673 0 0 -17 1054 0 856 1055 152 304 474 472 0 1053 -15 856 96
9 0 152 851 0 17 1055 0 856 477 1054 301 306 671 0 0 -17 152 0 856 1054 477 150
 1051 431 0 474 +17 477 0 856 152 1055 147 1056 475 0 1051 +17 1056 0 852 1057 1
49 301 477 475 0 1055 -15 852 971 0 149 847 0 17 1057 0 852 480 1056 298 303 669
 0 0 -17 149 0 852 1056 480 147 1052 429 0 477 +17 480 0 852 149 1057 144 1058 4
78 0 1052 +17 1052 0 586 1059 1051 144 149 429 0 0 -17 1059 0 586 1060 1052 141
 146 427 0 0 -17 1060 0 586 1061 1059 138 143 425 0 0 -17 146 0 848 1058 483 144
 1059 427 0 480 +15 848 973 0 146 843 0 17 1058 0 848 1062 146 298 480 478 0 105
7 -17 483 0 848 146 1062 141 1063 481 0 1059 +17 1062 0 848 483 1058 295 300 667
 0 0 -17 1063 0 844 1064 143 295 483 481 0 1062 -15 844 975 0 143 839 0 17 1064
 0 844 486 1063 292 297 665 0 0 -17 143 0 844 1063 486 141 1060 425 0 483 +17 48
6 0 844 143 1064 138 1065 484 0 1060 +17 1065 0 840 1066 140 292 486 484 0 1064
 -15 840 977 0 140 835 0 17 1066 0 840 489 1065 289 294 663 0 0 -17 140 0 840 10
65 489 138 1061 423 0 486 +17 489 0 840 140 1066 135 1067 487 0 1061 +17 1061 0
 586 1068 1060 135 140 423 0 0 -17 1068 0 586 1069 1061 132 137 421 0 0 -17 1069
 0 586 1070 1068 129 134 419 0 0 -17 137 0 836 1067 492 135 1068 421 0 489 +15 8
36 979 0 137 831 0 17 1067 0 836 1071 137 289 489 487 0 1066 -17 492 0 836 137 1
071 132 1072 490 0 1068 +17 1071 0 836 492 1067 286 291 661 0 0 -17 1072 0 832 1
073 134 286 492 490 0 1071 -15 832 981 0 134 827 0 17 1073 0 832 495 1072 283 28
8 659 0 0 -17 134 0 832 1072 495 132 1069 419 0 492 +17 495 0 832 134 1073 129 1
074 493 0 1069 +17 1074 0 828 1075 131 283 495 493 0 1073 -15 828 983 0 131 823
 0 17 1075 0 828 498 1074 280 285 657 0 0 -17 131 0 828 1074 498 129 1070 417 0
 495 +17 498 0 828 131 1075 126 1076 496 0 1070 +17 1070 0 586 1077 1069 126 131
 417 0 0 -17 1077 0 586 1078 1070 123 128 415 0 0 -17 1078 0 586 1079 1077 120 1
25 413 0 0 -17 128 0 824 1076 501 126 1077 415 0 498 +15 824 985 0 128 819 0 17
 1076 0 824 1080 128 280 498 496 0 1075 -17 501 0 824 128 1080 123 1081 499 0 10
77 +17 1080 0 824 501 1076 277 282 655 0 0 -17 1081 0 820 1082 125 277 501 499 0
 1080 -15 820 987 0 125 815 0 17 1082 0 820 504 1081 274 279 653 0 0 -17 125 0 8
20 1081 504 123 1078 413 0 501 +17 504 0 820 125 1082 120 1083 502 0 1078 +17 10
83 0 816 1084 122 274 504 502 0 1082 -15 816 989 0 122 811 0 17 1084 0 816 507 1
083 271 276 651 0 0 -17 122 0 816 1083 507 120 1079 411 0 504 +17 507 0 816 122
 1084 117 1085 505 0 1079 +17 1079 0 586 1086 1078 117 122 411 0 0 -17 1086 0 58
6 1087 1079 114 119 409 0 0 -17 1087 0 586 1088 1086 111 116 407 0 0 -17 119 0 8
12 1085 510 117 1086 409 0 507 +15 812 991 0 119 807 0 17 1085 0 812 1089 119 27
1 507 505 0 1084 -17 510 0 812 119 1089 114 1090 508 0 1086 +17 1089 0 812 510 1
085 268 273 649 0 0 -17 1090 0 808 1091 116 268 510 508 0 1089 -15 808 993 0 116
 803 0 17 1091 0 808 513 1090 265 270 647 0 0 -17 116 0 808 1090 513 114 1087 40
7 0 510 +17 513 0 808 116 1091 111 1092 511 0 1087 +17 1092 0 804 1093 113 265 5
13 511 0 1091 -15 804 995 0 113 799 0 17 1093 0 804 516 1092 262 267 645 0 0 -17
 113 0 804 1092 516 111 1088 405 0 513 +17 516 0 804 113 1093 108 1094 514 0 108
8 +17 1088 0 586 1095 1087 108 113 405 0 0 -17 1095 0 586 1096 1088 105 110 403
 0 0 -17 1096 0 586 1097 1095 102 107 401 0 0 -17 110 0 800 1094 519 108 1095 40
3 0 516 +15 800 997 0 110 795 0 17 1094 0 800 1098 110 262 516 514 0 1093 -17 51
9 0 800 110 1098 105 1099 517 0 1095 +17 1098 0 800 519 1094 259 264 643 0 0 -17
 1099 0 796 1100 107 259 519 517 0 1098 -15 796 999 0 107 791 0 17 1100 0 796 52
2 1099 256 261 641 0 0 -17 107 0 796 1099 522 105 1096 401 0 519 +17 522 0 796 1
07 1100 102 1101 520 0 1096 +17 1101 0 792 1102 104 256 522 520 0 1100 -15 792 1
001 0 104 787 0 17 1102 0 792 525 1101 253 258 639 0 0 -17 104 0 792 1101 525 10
2 1097 399 0 522 +17 525 0 792 104 1102 99 1103 523 0 1097 +17 1097 0 586 1104 1
096 99 104 399 0 0 -17 1104 0 586 1105 1097 96 101 397 0 0 -17 1105 0 586 1106 1
104 93 98 395 0 0 -17 101 0 788 1103 528 99 1104 397 0 525 +15 788 1003 0 101 78
3 0 17 1103 0 788 1107 101 253 525 523 0 1102 -17 528 0 788 101 1107 96 1108 526
 0 1104 +17 1107 0 788 528 1103 250 255 637 0 0 -17 1108 0 784 1109 98 250 528 5
26 0 1107 -15 784 1005 0 98 779 0 17 1109 0 784 531 1108 247 252 635 0 0 -17 98
 0 784 1108 531 96 1105 395 0 528 +17 531 0 784 98 1109 93 1110 529 0 1105 +17 1
110 0 780 1111 95 247 531 529 0 1109 -15 780 1007 0 95 775 0 17 1111 0 780 534 1
110 244 249 633 0 0 -17 95 0 780 1110 534 93 1106 393 0 531 +17 534 0 780 95 111
1 90 1112 532 0 1106 +17 1106 0 586 1113 1105 90 95 393 0 0 -17 1113 0 586 1114
 1106 87 92 391 0 0 -17 1114 0 586 1115 1113 84 89 389 0 0 -17 92 0 776 1112 537
 90 1113 391 0 534 +15 776 1009 0 92 771 0 17 1112 0 776 1116 92 244 534 532 0 1
111 -17 537 0 776 92 1116 87 1117 535 0 1113 +17 1116 0 776 537 1112 241 246 631
 0 0 -17 1117 0 772 1118 89 241 537 535 0 1116 -15 772 1011 0 89 767 0 17 1118 0
 772 540 1117 238 243 629 0 0 -17 89 0 772 1117 540 87 1114 389 0 537 +17 540 0
 772 89 1118 84 1119 538 0 1114 +17 1119 0 768 1120 86 238 540 538 0 1118 -15 76
8 1013 0 86 763 0 17 1120 0 768 543 1119 235 240 627 0 0 -17 86 0 768 1119 543 8
4 1115 387 0 540 +17 543 0 768 86 1120 81 1121 541 0 1115 +17 1115 0 586 1122 11
14 81 86 387 0 0 -17 1122 0 586 1123 1115 78 83 385 0 0 -17 1123 0 586 1124 1122
 75 80 383 0 0 -17 83 0 764 1121 546 81 1122 385 0 543 +15 764 1015 0 83 759 0 1
7 1121 0 764 1125 83 235 543 541 0 1120 -17 546 0 764 83 1125 78 1126 544 0 1122
 +17 1125 0 764 546 1121 232 237 625 0 0 -17 1126 0 760 1127 80 232 546 544 0 11
25 -15 760 1017 0 80 755 0 17 1127 0 760 549 1126 229 234 623 0 0 -17 80 0 760 1
126 549 78 1123 383 0 546 +17 549 0 760 80 1127 75 1128 547 0 1123 +17 1128 0 75
6 1129 77 229 549 547 0 1127 -15 756 1019 0 77 751 0 17 1129 0 756 552 1128 226
 231 621 0 0 -17 77 0 756 1128 552 75 1124 381 0 549 +17 552 0 756 77 1129 72 11
30 550 0 1124 +17 1124 0 586 1131 1123 72 77 381 0 0 -17 1131 0 586 1132 1124 69
 74 379 0 0 -17 1132 0 586 1133 1131 66 71 377 0 0 -17 74 0 752 1130 555 72 1131
 379 0 552 +15 752 1021 0 74 747 0 17 1130 0 752 1134 74 226 552 550 0 1129 -17
 555 0 752 74 1134 69 1135 553 0 1131 +17 1134 0 752 555 1130 223 228 619 0 0 -1
7 1135 0 748 1136 71 223 555 553 0 1134 -15 748 1023 0 71 743 0 17 1136 0 748 55
8 1135 220 225 617 0 0 -17 71 0 748 1135 558 69 1132 377 0 555 +17 558 0 748 71
 1136 66 1137 556 0 1132 +17 1137 0 744 1138 68 220 558 556 0 1136 -15 744 1025
 0 68 739 0 17 1138 0 744 561 1137 217 222 615 0 0 -17 68 0 744 1137 561 66 1133
 375 0 558 +17 561 0 744 68 1138 63 1139 559 0 1133 +17 1133 0 586 1140 1132 63
 68 375 0 0 -17 1140 0 586 1141 1133 60 65 373 0 0 -17 1141 0 586 1142 1140 57 6
2 371 0 0 -17 65 0 740 1139 564 63 1140 373 0 561 +15 740 1027 0 65 735 0 17 113
9 0 740 1143 65 217 561 559 0 1138 -17 564 0 740 65 1143 60 1144 562 0 1140 +17
 1143 0 740 564 1139 214 219 613 0 0 -17 1144 0 736 1145 62 214 564 562 0 1143 -
15 736 1029 0 62 731 0 17 1145 0 736 567 1144 211 216 611 0 0 -17 62 0 736 1144
 567 60 1141 371 0 564 +17 567 0 736 62 1145 57 1146 565 0 1141 +17 1146 0 732 1
147 59 211 567 565 0 1145 -15 732 1031 0 59 727 0 17 1147 0 732 570 1146 208 213
 605 0 0 -17 59 0 732 1146 570 57 1142 369 0 567 +17 570 0 732 59 1147 54 1148 5
68 0 1142 +17 1142 0 586 591 1141 54 59 369 0 0 -17 591 0 586 590 1142 51 56 367
 0 0 -17 56 0 728 1148 573 54 591 367 0 570 +15 728 1033 0 56 724 0 17 1148 0 72
8 601 56 208 570 568 0 1147 -17 573 0 728 56 601 51 599 571 0 591 +17 601 0 728
 573 1148 205 210 602 0 0 -17 210 0 29 213 207 208 601 602 0 1148 +17 213 0 29 2
16 210 211 1147 605 0 1146 +17 216 0 29 219 213 214 1145 611 0 1144 +17 219 0 29
 222 216 217 1143 613 0 1139 +17 222 0 29 225 219 220 1138 615 0 1137 +17 225 0
 29 228 222 223 1136 617 0 1135 +17 228 0 29 231 225 226 1134 619 0 1130 +17 231
 0 29 234 228 229 1129 621 0 1128 +17 234 0 29 237 231 232 1127 623 0 1126 +17 2
37 0 29 240 234 235 1125 625 0 1121 +17 240 0 29 243 237 238 1120 627 0 1119 +17
 243 0 29 246 240 241 1118 629 0 1117 +17 246 0 29 249 243 244 1116 631 0 1112 +
17 249 0 29 252 246 247 1111 633 0 1110 +17 252 0 29 255 249 250 1109 635 0 1108
 +17 255 0 29 258 252 253 1107 637 0 1103 +17 258 0 29 261 255 256 1102 639 0 11
01 +17 261 0 29 264 258 259 1100 641 0 1099 +17 264 0 29 267 261 262 1098 643 0
 1094 +17 267 0 29 270 264 265 1093 645 0 1092 +17 270 0 29 273 267 268 1091 647
 0 1090 +17 273 0 29 276 270 271 1089 649 0 1085 +17 276 0 29 279 273 274 1084 6
51 0 1083 +17 279 0 29 282 276 277 1082 653 0 1081 +17 282 0 29 285 279 280 1080
 655 0 1076 +17 285 0 29 288 282 283 1075 657 0 1074 +17 288 0 29 291 285 286 10
73 659 0 1072 +17 291 0 29 294 288 289 1071 661 0 1067 +17 294 0 29 297 291 292
 1066 663 0 1065 +17 297 0 29 300 294 295 1064 665 0 1063 +17 300 0 29 303 297 2
98 1062 667 0 1058 +17 303 0 29 306 300 301 1057 669 0 1056 +17 306 0 29 309 303
 304 1055 671 0 1054 +17 309 0 29 312 306 307 1053 673 0 1049 +17 312 0 29 315 3
09 310 1048 675 0 1047 +17 315 0 29 318 312 313 1046 677 0 1045 +17 318 0 29 321
 315 316 1044 679 0 1040 +17 686 0 875 462 687 316 321 681 0 0 -15 193 1041 0 44
 712 0 17 44 0 193 194 24 42 41 359 0 579 +17 24 0 193 44 190 39 695 10 0 358 +8
2 1 715 -58261386 15 708 1045 0 1149 18 904 17 1149 0 708 1149 1149 0 1150 450 0
 0 +17 1150 0 705 1150 1150 0 1149 450 0 0 -16 450 7 0 ?1149 697 188 1151 0 0 1
 16 697 12 0 ?30 196 450 1152 0 0 1 31 1151 9 0 450 0 1152 0 +0 0 .00635 0 0 1 1
 0 0 .003175 30 1152 14 0 697 1151 1153 0 +-.00634999999999991 .00635 .00635 -.7
07106781186554 -.707106781186542 0 30 1153 19 0 196 1152 608 0 +0 0 .00635 -.258
8190451025855 .965925826289051 0 16 196 17 0 ?195 585 697 1153 0 0 1 30 608 24 0
 585 1153 607 0 +-.00777712993333657 .00449012806053449 .00635 -.499999999999994
 -.866025403784442 0 16 585 22 0 ?201 603 196 608 0 0 1 17 201 0 29 204 195 197
 581 585 0 584 +17 204 0 29 207 201 202 595 603 0 593 +17 195 0 29 201 30 191 19
0 196 0 194 +17 584 0 580 581 47 197 578 577 0 595 -17 595 0 592 578 593 197 204
 603 0 0 -17 30 0 29 195 26 185 696 697 0 695 +15 705 5 0 1150 331 29 82 1 704 -
70582154 19 17 1147 0 1 0 9 5 S0 74 4 CI16 index_map_offset0 0 1 dCCZ20 15 10 0
 0 1154 1155 1156 883 1157 1158 1159 13 892 2 0 0 0 0 0 0 0 0 0 0 81 2 1154 396
 1160 1 0 1155 0 0 0 1161 81 5 1155 397 1162 1 1154 1156 0 0 1163 0 0 0 0 81 2 1
156 1354 1164 1 1155 1157 0 0 0 1165 81 1 1157 1406 1166 1 1156 1158 0 0 1167 81
 2 1158 1460 1168 1 1157 1159 0 0 1169 0 81 2 1159 1710 1170 1 1158 13 0 0 0 117
1 81 2 13 2034 1172 1 1159 2 0 0 0 0 80 2 1172 1173 1174 9000 0 0 0 0 3 5 0 0 0
 FFTFFFFFFFFFFF9 1 79 16 1174 BODY_RECIPE_200180 2 1170 1175 1176 9000 0 0 0 0 3
 5 0 0 0 FFTFFFFFFFFFFF9 1 82 1 1171 1 79 24 1176 BODY_IN_LIGHTWEIGHT_PERM80 2 1
168 1177 1178 8004 0 0 0 0 3 5 0 0 0 FFTFFFFFFFFFFF2 3 83 1 1169 1 79 16 1178 SD
L/TYSA_DENSITY80 1 1166 1179 1180 9000 1 1 1 1 1 1 1 1 0 FFTFFFFFFFFFFF1 82 1 11
67 1242958 79 10 1180 BODY_MATCH80 2 1164 1181 1182 9000 0 0 0 0 3 5 0 0 0 FFTFF
FFFFFFFFF9 1 82 1 1165 45 79 30 1182 LAST_BODY_MODIFYING_FEATURE_ID80 5 1162 118
3 1184 9000 0 0 0 0 3 6 0 0 0 FFTTTTTTFTTFTT2 2 2 2 2 83 1 1163 1 79 19 1184 BOD
Y_SCALING_FACTOR80 2 1160 1185 1186 9000 0 0 0 0 3 5 0 0 0 FFTFFFFFFFFFFT9 1 82
 1 1161 103 79 19 1186 ENT_TIME_STAMP_200180 2 12 1187 1188 9000 0 0 0 0 3 5 0 0
 0 FFTFFFFFFFFFFF9 1 82 1 14 101 79 12 1188 ATOM_ID_20011 0 
