**ABCDEFGHIJKLMNOPQRSTUVWXYZabcdefghijklmnopqrstuvwxyz**************************
**PARASOLID !"#$%&'()*+,-./:;<=>?@[\]^_`{|}~0123456789**************************
**PART1;
MC=AMD64;
MC_MODEL=Intel64 Family 6 Model 142 Stepping 12, GenuineIntel;
MC_ID=unknown;
OS=Windows_NT;
OS_RELEASE=unknown;
FRU=Parasolid Version 33.1, build 247,  8- 6-2021;
APPL=SOLIDWORKS 2022-2022009;
SITE=;
USER=unknown;
FORMAT=text;
GUISE=transmit;
KEY=FILERachet stop.x_t;
DATE=Thu Jun 15 06:32:38 2023;
**PART2;
SCH=SCH_3301247_33103;
USFLD_SIZE=0;
**PART3;
**END_OF_HEADER*****************************************************************
T51 : TRANSMIT FILE created by modeller version 330124723 SCH_3301247_33103_1300
6230 0 12 35 CCCI7 lattice222 0 CCCI4 mesh1006 0 I8 polyline1008 0 CCCCCCCDI5 ow
ner1040 0 CCCCCCI13 boundary_mesh1006 0 I17 boundary_polyline1008 0 CCCA16 index
_map_offset0 0 1 dA9 index_map82 0 A17 node_id_index_map82 0 A20 schema_embeddin
g_map82 0 A5 child12 0 A14 lowest_node_id0 0 1 dA16 mesh_offset_data206 0 Z1 241
 2 3 0 0 0 0 0 0 0 1e3 1e-8 0 4 0 1 0 1 1 5 6 7 8 0 0 9 10 11 0 0 0 0 0 0 0 81 2
55 2 2 235 12 1 13 0 0 0 0 14 70 11 CI9 list_type0 0 1 uI10 notransmit0 0 1 lCCC
DCCDI12 finger_index0 0 1 dI12 finger_block1012 0 CZ3 0 4 T1 0 0 9 20 1 15 15 13
 255 5 99 0 1 0 16 0 0 17 0 51 255 6 94 0 16 18 0 0 +-.01236289851865262 -.00519
798284505601 .003175 0 0 -1 .008636 -1 0 0 30 255 7 98 0 10 19 0 0 +-.0044019411
39217225 -.001850796922103275 .003175 0 0 -1 29 255 8 75 0 20 21 0 -.014478 .003
175 0 19 8 CCCCCCCA5 owner12 0 Z9 33 0 1 17 0 22 V0 16 255 10 82 0 ?23 0 24 7 0
 0 1 18 255 11 30 0 25 0 26 27 ?1 17 255 25 0 28 29 30 11 31 32 0 33 +18 26 27 0
 30 11 34 35 ?1 29 27 32 0 11 35 36 -.014478 .003175 .003175 29 35 29 0 26 37 27
 -.00963471339969708 .007239 .003175 29 36 78 0 38 27 39 -.004401941139217225 -.
001850796922103275 0 18 38 69 0 40 41 0 36 ?1 29 39 77 0 41 36 21 .0033792029570
035 .00337394760116081 0 18 41 68 0 42 43 38 39 ?1 29 21 76 0 43 39 8 -.00963471
339969708 .007239 0 18 43 67 0 44 20 41 21 ?1 17 44 0 45 46 47 43 48 49 0 50 +18
 20 66 0 51 52 43 8 ?1 17 51 0 53 33 50 20 54 55 0 56 +18 52 21 0 57 34 20 58 ?1
 17 57 0 59 23 60 52 61 62 0 29 -18 34 24 0 61 26 52 37 ?1 29 58 23 0 52 0 37 -.
004401941139217225 -.001850796922103275 .003175 29 37 26 0 34 58 35 .00337920295
70035 .00337394760116081 .003175 17 61 0 28 30 29 34 57 62 0 60 +15 255 28 4 0 2
9 63 0 17 30 0 28 25 61 26 64 65 0 46 +17 29 0 28 61 25 52 66 67 0 68 +16 62 9 0
 ?61 65 67 69 0 0 1 17 60 0 59 57 42 34 47 24 0 64 -15 59 87 0 42 70 0 17 42 0 5
9 60 23 41 40 71 0 47 +17 47 0 45 44 64 41 60 24 0 48 +16 24 81 0 ?47 10 72 19 0
 0 1 17 64 0 45 47 46 34 30 65 0 0 -15 45 85 0 44 73 0 17 46 0 45 64 44 26 50 72
 0 31 -16 65 13 0 ?30 32 62 74 0 0 1 16 32 17 0 ?25 75 65 76 0 0 1 31 255 74 15
 0 65 69 76 0 +-.00668650797875161 -.00667610908314799 .003175 0 0 1 1 0 0 .0142
24 31 69 11 0 62 77 74 0 +0 0 .003175 0 0 1 1 0 0 .0047752 30 76 19 0 32 74 78 0
 +-.00963471339969708 .007239 .003175 -.766044443118982 -.642787609686535 0 31 7
8 74 0 79 76 80 0 +-.01236289851865262 -.00519798284505601 0 0 0 -1 1 0 0 .00863
6 16 79 62 0 ?81 71 0 78 0 0 1 31 80 73 0 71 78 82 0 +0 0 0 0 0 1 1 0 0 .0047752
 16 71 58 0 ?42 49 79 80 0 0 1 31 82 72 0 49 80 83 0 +-.00668650797875161 -.0066
7610908314799 0 0 0 1 1 0 0 .014224 16 49 54 0 ?44 55 71 82 0 0 1 30 83 71 0 55
 82 84 0 +-.00963471339969708 .007239 0 -.766044443118982 -.642787609686535 0 16
 55 50 0 ?51 67 49 83 0 0 1 30 84 95 0 75 83 85 0 +-.014478 .003175 .003175 0 0
 -1 16 75 79 0 ?56 72 32 84 0 0 1 30 85 96 0 72 84 19 0 +-.00963471339969708 .00
7239 .003175 0 0 -1 16 72 80 0 ?50 24 75 85 0 0 1 30 19 97 0 24 85 7 0 +.0033792
029570035 .00337394760116081 .003175 0 0 -1 17 50 0 53 51 31 43 46 72 0 54 +15 5
3 83 0 51 86 0 17 31 0 53 50 33 26 25 32 0 0 -17 54 0 87 48 88 43 51 55 0 0 -15
 87 49 0 88 89 0 17 48 0 87 40 54 41 44 49 0 0 -17 88 0 87 54 40 20 81 79 0 0 -1
7 40 0 87 88 48 38 42 71 0 23 -17 81 0 90 68 56 38 88 79 0 0 +15 90 89 0 81 16 0
 17 68 0 90 66 81 52 23 10 0 0 -17 56 0 90 81 66 20 33 75 0 88 +17 66 0 90 56 68
 11 29 67 0 0 -17 33 0 53 31 51 11 56 75 0 66 -16 67 5 0 ?29 62 55 77 0 0 1 31 7
7 7 0 67 0 69 0 +-.01236289851865262 -.00519798284505601 .003175 0 0 -1 1 0 0 .0
08636 17 23 0 59 42 57 38 68 10 0 81 +14 255 16 90 91 ?70 0 90 5 6 -0 0 70 0 22
 81 1 91 236 92 16 93 0 0 94 95 14 70 88 94 ?73 16 59 5 18 -0 0 73 16 22 13 22 3
4 0 0 0 0 0 0 9 16 81 1 94 237 92 70 96 0 91 97 98 14 73 86 97 ?86 70 45 5 99 -0
 0 86 70 22 51 18 93 0 70 99 6 0 -0 0 .003175 0 0 -1 .0047752 -1 0 0 51 99 92 0
 73 100 18 0 --.00668650797875161 -.00667610908314799 .003175 0 0 -1 .014224 -1
 0 0 50 255 100 91 0 86 101 99 0 +-.00963471339969708 .007239 .003175 .642787609
686535 -.766044443118982 0 .766044443118982 .642787609686535 0 14 86 84 102 ?63
 73 53 5 100 -0 0 63 73 22 50 101 70 0 89 103 100 0 +-.01236289851865262 -.00519
798284505601 0 0 0 1 1 0 0 14 89 48 104 ?0 63 87 5 101 -0 0 0 63 22 50 103 3 0 6
3 0 101 0 +-.01236289851865262 -.00519798284505601 .003175 0 0 1 1 0 0 14 63 1 1
05 ?89 86 28 5 103 +0 0 89 86 22 81 1 105 241 92 63 106 0 104 0 107 80 255 1 92
 108 109 9000 1 1 1 1 1 1 1 1 0 FFFFTFTFFFFFFF1 81 1 106 220 110 63 0 105 111 11
2 113 81 1 104 240 92 89 112 0 102 105 114 82 255 1 107 -2003304333 81 1 112 221
 110 89 0 104 106 0 115 81 1 102 239 92 86 111 0 97 104 116 82 1 114 -1997668237
 81 1 111 219 110 86 0 102 117 106 118 81 1 97 238 92 73 117 0 94 102 119 82 1 1
16 -1996750733 81 1 117 218 110 73 0 97 96 111 120 82 1 119 -1996488589 80 1 110
 0 121 8001 0 0 0 0 3 5 0 0 0 FFFFTFTFFFFFFF2 81 1 96 217 110 70 0 94 93 117 122
 83 255 3 120 1 .168627450980392 .168627450980392 81 1 93 216 110 16 0 91 0 96 1
23 83 3 122 1 .168627450980392 .168627450980392 83 3 123 1 .168627450980392 .168
627450980392 79 255 15 121 SDL/TYSA_COLOUR83 3 118 1 .168627450980392 .168627450
980392 83 3 115 1 .168627450980392 .168627450980392 83 3 113 1 .168627450980392
 .168627450980392 79 14 109 SWEntUnchanged82 1 98 -1996226445 82 1 95 -199596430
1 19 17 100 0 1 0 9 5 S0 74 4 CI16 index_map_offset0 0 1 dCCZ20 15 9 0 0 124 125
 105 126 127 128 13 112 2 0 0 0 0 0 0 0 0 0 0 0 81 2 124 124 129 1 0 125 0 0 0 1
30 81 2 125 128 131 1 124 126 0 0 0 132 81 1 126 135 133 1 125 127 0 0 134 81 2
 127 144 135 1 126 128 0 0 136 0 81 2 128 170 137 1 127 13 0 0 0 138 81 2 13 213
 139 1 128 2 0 0 0 0 80 2 139 140 141 9000 0 0 0 0 3 5 0 0 0 FFTFFFFFFFFFFF9 1 7
9 16 141 BODY_RECIPE_200180 2 137 142 143 9000 0 0 0 0 3 5 0 0 0 FFTFFFFFFFFFFF9
 1 82 1 138 1 79 24 143 BODY_IN_LIGHTWEIGHT_PERM80 2 135 144 145 8004 0 0 0 0 3
 5 0 0 0 FFTFFFFFFFFFFF2 3 83 1 136 1 79 16 145 SDL/TYSA_DENSITY80 1 133 146 147
 9000 1 1 1 1 1 1 1 1 0 FFTFFFFFFFFFFF1 82 1 134 1411222 79 10 147 BODY_MATCH80
 2 131 148 149 9000 0 0 0 0 3 5 0 0 0 FFTFFFFFFFFFFF9 1 82 1 132 48 79 30 149 LA
ST_BODY_MODIFYING_FEATURE_ID80 2 129 150 151 9000 0 0 0 0 3 5 0 0 0 FFTFFFFFFFFF
FT9 1 82 1 130 103 79 19 151 ENT_TIME_STAMP_200180 2 12 152 153 9000 0 0 0 0 3 5
 0 0 0 FFTFFFFFFFFFFF9 1 82 1 14 101 79 12 153 ATOM_ID_20011 0 
