**ABCDEFGHIJKLMNOPQRSTUVWXYZabcdefghijklmnopqrstuvwxyz**************************
**PARASOLID !"#$%&'()*+,-./:;<=>?@[\]^_`{|}~0123456789**************************
**PART1;
MC=AMD64;
MC_MODEL=Intel64 Family 6 Model 142 Stepping 12, GenuineIntel;
MC_ID=unknown;
OS=Windows_NT;
OS_RELEASE=unknown;
FRU=Parasolid Version 33.1, build 247,  8- 6-2021;
APPL=SOLIDWORKS 2022-2022009;
SITE=;
USER=unknown;
FORMAT=text;
GUISE=transmit;
KEY=FILESwivel.x_t;
DATE=Thu Jun 15 06:08:13 2023;
**PART2;
SCH=SCH_3301247_33103;
USFLD_SIZE=0;
**PART3;
**END_OF_HEADER*****************************************************************
T51 : TRANSMIT FILE created by modeller version 330124723 SCH_3301247_33103_1300
6230 0 12 35 CCCI7 lattice222 0 CCCI4 mesh1006 0 I8 polyline1008 0 CCCCCCCDI5 ow
ner1040 0 CCCCCCI13 boundary_mesh1006 0 I17 boundary_polyline1008 0 CCCA16 index
_map_offset0 0 1 dA9 index_map82 0 A17 node_id_index_map82 0 A20 schema_embeddin
g_map82 0 A5 child12 0 A14 lowest_node_id0 0 1 dA16 mesh_offset_data206 0 Z1 592
 2 3 0 0 0 0 0 0 0 1e3 1e-8 0 4 0 1 0 1 1 5 6 7 8 0 0 9 10 11 0 0 0 0 0 0 0 81 2
55 2 2 572 12 1 13 0 0 0 0 14 70 11 CI9 list_type0 0 1 uI10 notransmit0 0 1 lCCC
DCCDI12 finger_index0 0 1 dI12 finger_block1012 0 CZ3 0 4 T1 0 0 9 20 1 15 15 13
 255 5 31 0 1 16 17 0 0 18 0 51 255 6 30 0 19 20 0 21 -0 0 .027305 0 0 -1 .0127
 -1 0 0 38 12 CCCCCCCCCCCA17 intersection_data204 0 Z7 125 0 22 23 0 0 +24 25 26
 27 27 28 29 255 8 289 0 11 29 0 0 -.0127 0 19 8 CCCCCCCA5 owner12 0 Z9 9 0 1 30
 0 31 V0 16 255 10 111 0 ?32 0 33 34 0 0 1 18 255 11 286 0 35 0 36 8 ?1 17 255 3
5 0 37 38 38 11 39 40 0 41 +18 36 272 0 42 11 43 29 ?1 17 42 0 44 32 32 36 45 46
 0 47 +18 43 138 0 48 36 49 50 ?1 29 29 275 0 36 50 8 0 -.00635 0 29 50 140 0 43
 51 29 0 .0127 0 29 51 96 0 49 0 50 0 .00635 0 18 49 94 0 52 43 0 51 ?1 17 52 0
 53 54 54 49 55 56 0 45 -15 255 53 112 0 54 57 0 17 54 0 53 52 52 36 32 10 0 55
 -17 55 0 58 59 59 36 52 56 0 0 +16 56 101 0 ?55 33 46 60 0 0 1 17 45 0 61 47 47
 49 42 46 0 32 -15 61 107 0 47 62 0 17 47 0 61 45 45 36 59 33 0 54 -16 46 98 0 ?
42 56 63 64 0 0 1 17 32 0 44 42 42 49 54 10 0 59 +15 44 232 0 42 65 0 17 59 0 58
 55 55 49 47 33 0 0 +15 58 248 0 55 66 0 16 33 106 0 ?59 10 56 67 0 0 1 32 255 6
7 108 0 33 60 34 0 +0 0 0 -.707106781186548 0 -.707106781186548 .707106781186548
 0 -.707106781186548 .00898025612106915 .00635 32 60 103 0 56 64 67 0 +0 0 0 .70
7106781186548 0 -.707106781186548 -.707106781186548 0 -.707106781186548 .0089802
5612106915 .00635 32 34 113 0 10 67 23 0 -0 0 0 -.707106781186548 0 -.7071067811
86548 .707106781186548 0 -.707106781186548 .00898025612106915 .00635 38 23 119 0
 68 34 7 0 +24 25 69 70 70 71 16 68 164 0 ?72 22 73 23 0 0 1 51 24 70 0 57 25 74
 75 -0 0 .027305 0 0 -1 .00635 -1 0 0 51 25 251 0 76 77 24 78 -.027305 0 0 -1 0
 0 .0127 0 0 1 40 255 21 69 0 1 21 .0004349273070005445 .3834108663117405 ??-.00
635 0 -.0127 -.00603808635936311 -.00196570931647411 -.0125469512983484 -.005156
30117413429 -.003706083944222165 -.01214721950894024 -.00371258326245968 -.00515
162358090187 -.0116082201254411 -.00170869000463057 -.00611578927597048 -.011130
45917884452 .000411539861733183 -.00633665013569509 -.0110062193807772 .00223852
46444252 -.00594234864479534 -.0112240141029713 .003877922261261735 -.0050283415
6910712 -.0116621516481475 .00530650483485372 -.003487621888575955 -.01221173589
471726 .00618577536379686 -.001434811189196618 -.0126186891891098 .0063175873902
4724 .000640772632521963 -.01268382475570404 .00584244714996959 .002487631664819
405 -.01245398284486484 .00482733985158081 .00412544421333507 -.0120112742888779
4 .00321739108089579 .00547456798593024 -.0114594548459963 .001118913650316974 .
00625064254642148 -.01105529139176646 -.000934428344712161 .00628087125075801 -.
01103814551142544 -.002694326047350605 .00575005279545919 -.01132373140132844 -.
004294922748825675 .00467719345137869 -.01180736471099204 -.00561464542227541 .0
02966185560972515 -.01234875472336698 -.00629193300337415 .000856784150793659 -.
01267106628973856 -.00635 136616277506119e-33 -.0127 41 3 CI8 term_use0 0 1 cCZ1
 70 H?-.00635 136616277506119e-33 -.0127 204 2 17 INTERSECTION_DATA17 Intersecti
on data7 uv_type0 0 1 u6 values0 1 1 fT84 71 4 0 .040005 3.141592653589795 .0336
55 5.96845448965909 .0398519512983484 3.296997683804535 .0333430863593631 5.6599
8693947566 .03945221950894025 3.43771928989152 .0324613011741343 5.3368483812317
 .0389132201254411 3.55927118841871 .0310175832624597 4.98483188632763 .03843545
917884455 3.64402443819586 .02901369000463055 4.64753409794437 .0383112193807772
 3.663978066844495 .0268934601382668 4.35212255648488 .0385290141029713 3.628507
44086572 .0250664753555748 4.05544922024009 .0389671516481475 3.54867566724382 .
02342707773873825 3.723037343323645 .03951673589471725 3.419782872248265 .021998
4951651463 3.369515437846395 .0399236891891098 3.25481164127062 .021119224636203
15 3.040511534604035 .03998882475570405 3.09111668434975 .02098741260975275 2.73
9056523352255 .03975898284486485 2.944441459400095 .0214625528500304 2.434434157
65602 .03931627428887795 2.810752085283745 .0224776601484192 2.102120914210205 .
0387644548459963 2.695916211796055 .0240876089191042 1.74792801875412 .038360291
39176645 2.627004272409025 .02618608634968305 1.423105927016002 .038343145511425
45 2.62426783211628 .02823942834471215 1.132603956000066 .03862873140132845 2.67
173422233811 .0299993260473506 .827978936048857 .03911236471099205 2.76443116992
799 .03159992274882565 .486026051990239 .039653754723367 2.90585745037787 .03291
96454222754 .135339422969489 .03997606628973855 3.07407805524164 .03359693300337
415 2151437441041245e-32 .040005 3.141592653589795 .033655 14 255 76 241 79 ?19
 80 81 5 25 -82 83 19 80 31 50 255 77 252 0 84 85 25 0 +-.027305 0 0 1 0 0 0 0 -
1 141 255 78 23 86 86 25 141 86 7 78 78 25 14 84 237 87 ?88 89 90 5 77 -0 0 88 8
9 31 50 85 253 0 91 92 77 0 +.027305 0 0 1 0 0 0 0 -1 14 91 233 93 ?94 82 95 5 8
5 +0 0 94 82 31 51 92 254 0 66 0 85 96 -.027305 0 0 -1 0 0 .00635 0 0 1 14 66 24
5 97 ?62 0 58 16 92 +89 65 62 0 98 141 96 99 100 100 92 38 99 260 0 101 102 103
 0 +6 92 104 105 105 106 141 100 103 96 96 92 38 103 259 0 73 99 107 0 +6 92 108
 109 109 110 16 73 170 0 ?111 68 101 103 0 0 1 32 107 258 0 40 103 112 0 -0 0 0
 .707106781186548 0 -.707106781186548 -.707106781186548 0 -.707106781186548 .017
9605122421383 .0127 40 21 108 0 1 21 .0004349273070005445 .3834108663117405 ??-.
0127 0 .00635 -.0125469512983484 .00196570931647411 .00603808635936311 -.0121472
1950894024 .00370608394422216 .00515630117413429 -.0116082201254411 .00515162358
090187 .00371258326245968 -.01113045917884452 .00611578927597048 .00170869000463
057 -.0110062193807772 .00633665013569509 -.0004115398617331835 -.01122401410297
13 .00594234864479534 -.0022385246444252 -.0116621516481475 .00502834156910712 -
.003877922261261735 -.01221173589471726 .00348762188857595 -.00530650483485372 -
.0126186891891098 .001434811189196618 -.00618577536379686 -.01268382475570404 -.
000640772632521965 -.00631758739024723 -.01245398284486484 -.00248763166481941 -
.00584244714996959 -.01201127428887794 -.00412544421333507 -.00482733985158081 -
.0114594548459963 -.00547456798593024 -.003217391080895785 -.01105529139176646 -
.00625064254642148 -.00111891365031697 -.01103814551142544 -.00628087125075801 .
000934428344712163 -.01132373140132844 -.00575005279545919 .002694326047350605 -
.01180736471099204 -.00467719345137869 .004294922748825675 -.01234875472336698 -
.002966185560972515 .00561464542227541 -.01267106628973856 -.000856784150793657
 .00629193300337415 -.0127 -277226641882526e-33 .00635 41 1 109 H?-.0127 -277226
641882526e-33 .00635 204 84 110 4 0 .020955 0 .040005 .1554050302147435 .0212669
136406369 .314730817520497 .0398519512983484 .2961266363017275 .0221486988258657
 .623198367703925 .03945221950894025 .417678534828916 .0235924167375403 .9463369
2594789 .0389132201254411 .502431784606065 .02559630999536945 1.298353420851958
 .03843545917884455 .522385413254702 .0277165398617332 1.635651209235215 .038311
2193807772 .486914787275926 .0295435246444252 1.931062750694705 .038529014102971
3 .407083013654027 .03118292226126175 2.2277360869395 .0389671516481475 .2781902
18658473 .0326115048348537 2.560147963855945 .03951673589471725 .113218987680824
4 .03349077536379685 2.913669869333195 .0399236891891098 6.23270933793954 .03362
258739024725 3.24267377257555 .03998882475570405 6.08603411298989 .0331474471499
696 3.544128783827335 .03975898284486485 5.95234473887354 .0321323398515808 3.84
875114952357 .03931627428887795 5.83750886538585 .0305223910808958 4.18106439296
938 .0387644548459963 5.76859692599882 .02842391365031695 4.53525728842546 .0383
6029139176645 5.76586048570607 .02637057165528785 4.86007938016359 .038343145511
42545 5.8133268759279 .0246106739526494 5.15058135117952 .03862873140132845 5.90
602382351778 .0230100772511743 5.45520637113073 .03911236471099205 6.04745010396
766 .0216903545777246 5.79715925518935 .039653754723367 6.21567070883144 .021013
06699662585 6.1478458842101 .03997606628973855 0 .020955 0 .040005 16 40 162 0 ?
35 113 22 107 0 0 1 32 112 257 0 113 107 114 0 +0 0 0 .707106781186548 0 -.70710
6781186548 -.707106781186548 0 -.707106781186548 .0179605122421383 .0127 16 113
 157 0 ?115 116 40 112 0 0 1 32 114 256 0 116 112 117 0 +0 0 0 -.707106781186548
 0 -.707106781186548 .707106781186548 0 -.707106781186548 .0179605122421383 .012
7 16 116 163 0 ?38 118 113 114 0 0 1 32 117 255 0 118 114 119 0 -0 0 0 -.7071067
81186548 0 -.707106781186548 .707106781186548 0 -.707106781186548 .0179605122421
383 .0127 16 118 158 0 ?120 121 116 117 0 0 1 31 255 119 74 0 122 117 123 0 +0 0
 .027305 0 0 1 1 0 0 .00635 16 122 54 0 ?124 125 121 119 0 0 1 31 123 73 0 121 1
19 126 0 +0 0 -.027305 0 0 1 1 0 0 .00635 16 121 51 0 ?127 122 118 123 0 0 1 31
 126 7 0 63 123 128 0 +0 0 .027305 0 0 1 1 0 0 .0127 16 63 5 0 ?129 46 125 126 0
 0 1 31 128 25 0 125 126 64 0 +0 0 -.027305 0 0 1 1 0 0 .0127 16 125 20 0 ?130 6
3 122 128 0 0 1 32 64 100 0 46 128 60 0 -0 0 0 .707106781186548 0 -.707106781186
548 -.707106781186548 0 -.707106781186548 .00898025612106915 .00635 17 130 0 131
 130 130 0 132 125 0 0 +15 131 28 0 130 88 133 17 132 0 134 132 132 0 130 125 0
 0 -15 134 19 0 132 135 136 14 135 42 137 ?80 88 134 5 20 -0 0 80 88 31 15 136 4
0 0 127 135 0 17 127 0 136 127 127 0 138 121 0 0 +17 138 0 139 138 138 0 127 121
 0 0 -15 139 61 0 138 80 140 14 80 120 141 ?76 135 139 5 24 +62 142 76 135 31 15
 140 117 0 72 80 0 17 72 0 140 72 72 0 143 68 0 0 +17 143 0 81 143 143 0 72 68 0
 0 -15 81 244 0 143 76 0 81 1 141 578 144 80 145 0 137 146 147 14 62 104 146 ?57
 66 61 16 24 +57 80 57 66 98 14 142 126 148 ?149 17 150 5 24 +80 57 149 17 31 13
 31 10 0 0 0 0 0 0 9 17 14 17 150 151 ?142 0 152 5 6 -153 88 142 0 31 81 1 151 5
81 144 17 154 0 148 155 156 15 152 26 0 157 17 158 14 153 131 155 ?0 19 159 5 6
 -19 17 0 19 31 14 88 154 160 ?135 84 131 5 6 -17 19 135 84 31 81 1 160 583 144
 88 161 0 155 162 163 14 19 27 162 ?153 76 164 5 6 -88 153 153 76 31 81 1 162 58
4 144 19 165 0 160 166 167 15 164 129 0 168 19 0 17 168 0 164 168 168 0 169 101
 0 0 +17 169 0 170 169 169 0 168 101 0 0 -16 101 169 0 ?168 73 171 99 0 0 1 16 1
71 173 0 ?172 101 173 174 0 0 1 17 172 0 95 172 172 0 175 171 0 0 +16 173 159 0
 ?176 171 177 102 0 0 1 31 174 262 0 171 178 102 0 +.027305 0 0 1 0 0 0 0 -1 .01
27 31 178 263 0 179 180 174 0 +-.027305 0 0 1 0 0 0 0 -1 .00635 31 102 261 0 173
 174 99 0 +-.027305 0 0 1 0 0 0 0 -1 .0127 16 179 176 0 ?181 177 0 178 0 0 1 31
 180 264 0 177 0 178 0 +.027305 0 0 1 0 0 0 0 -1 .00635 16 177 166 0 ?182 173 17
9 180 0 0 1 17 182 0 183 182 182 0 184 177 0 0 +15 183 217 0 182 94 170 17 184 0
 185 184 184 0 182 177 0 0 -15 185 236 0 184 91 0 14 94 214 166 ?186 91 183 5 92
 +65 89 186 91 31 15 170 218 0 169 94 0 81 1 166 585 144 94 187 0 162 188 189 14
 186 190 188 ?89 94 190 5 25 -83 82 89 94 31 14 65 229 191 ?0 57 44 16 92 +66 94
 0 57 98 14 89 209 192 ?84 186 193 5 92 +94 66 84 186 31 81 1 192 588 144 89 194
 0 191 195 196 15 193 212 0 197 89 198 17 197 0 193 197 197 0 181 179 0 0 -15 19
8 213 0 199 89 0 17 199 0 198 199 199 0 111 73 0 0 -17 111 0 159 111 111 0 199 7
3 0 0 +15 159 134 0 111 153 0 17 181 0 200 181 181 0 197 179 0 0 +15 200 240 0 1
81 84 0 80 255 1 144 201 202 9000 1 1 1 1 1 1 1 1 0 FFFFTFTFFFFFFF1 81 1 194 519
 203 89 0 192 204 205 206 81 1 191 587 144 65 207 0 188 192 208 81 1 195 589 144
 57 209 0 192 210 211 82 255 1 196 -91619200 14 57 57 195 ?65 62 53 16 24 +142 6
2 65 62 98 81 1 209 529 203 57 0 195 212 207 213 81 1 210 590 144 83 214 0 195 2
15 216 82 1 211 -121765760 14 83 205 210 ?82 149 217 5 25 -76 186 82 149 31 81 1
 214 514 203 83 0 210 218 219 220 81 1 215 591 144 82 219 0 210 221 222 82 1 216
 -91094912 14 82 185 215 ?91 83 223 5 25 -186 76 91 83 31 81 1 219 515 203 82 0
 215 214 224 225 81 1 221 592 144 149 218 0 215 0 226 82 1 222 -88407936 14 149
 48 221 ?83 142 227 5 74 +0 0 83 142 31 81 1 218 513 203 149 0 221 228 214 229 8
2 1 226 -115408769 80 1 203 0 230 8001 0 0 0 0 3 5 0 0 0 FFFFTFTFFFFFFF2 81 1 22
8 512 203 142 0 148 154 218 231 83 255 3 229 .647058823529412 .619607843137255 .
588235294117647 81 1 148 580 144 142 228 0 146 151 232 81 1 154 511 203 17 0 151
 0 228 233 83 3 231 .647058823529412 .619607843137255 .588235294117647 83 3 233
 .647058823529412 .619607843137255 .588235294117647 81 1 146 579 144 62 212 0 14
1 148 234 82 1 232 -94633856 81 1 212 528 203 62 0 146 235 209 236 82 1 234 -965
99936 81 1 235 527 203 66 0 97 237 212 238 83 3 236 .647058823529412 .6196078431
37255 .588235294117647 81 1 97 576 144 66 235 0 93 137 239 81 1 237 526 203 153
 0 155 165 235 240 83 3 238 .647058823529412 .619607843137255 .588235294117647 8
1 1 155 582 144 153 237 0 151 160 241 81 1 165 525 203 19 0 162 242 237 243 83 3
 240 .647058823529412 .619607843137255 .588235294117647 81 1 242 524 203 76 0 79
 145 165 244 83 3 243 .647058823529412 .619607843137255 .588235294117647 81 1 79
 573 144 76 242 0 0 87 245 81 1 145 523 203 80 0 141 246 242 247 83 3 244 .64705
8823529412 .619607843137255 .588235294117647 81 1 246 522 203 135 0 137 161 145
 248 83 3 247 .647058823529412 .619607843137255 .588235294117647 81 1 137 577 14
4 135 246 0 97 141 249 81 1 161 521 203 88 0 160 205 246 250 83 3 248 .647058823
529412 .619607843137255 .588235294117647 81 1 205 520 203 84 0 87 194 161 251 83
 3 250 .647058823529412 .619607843137255 .588235294117647 81 1 87 574 144 84 205
 0 79 93 252 83 3 251 .647058823529412 .619607843137255 .588235294117647 81 1 93
 575 144 91 224 0 87 97 253 82 1 252 -99221376 81 1 224 516 203 91 0 93 219 187
 254 82 1 253 -98697088 81 1 187 517 203 94 0 166 224 204 255 83 3 254 .64705882
3529412 .619607843137255 .588235294117647 81 1 204 518 203 186 0 188 187 194 256
 83 3 255 .647058823529412 .619607843137255 .588235294117647 81 1 188 586 144 18
6 204 0 166 191 257 83 3 256 .647058823529412 .619607843137255 .588235294117647
 82 1 257 -88932224 82 1 249 -115933057 82 1 245 -100925312 82 1 241 -87883648 8
2 1 239 -105054080 79 255 15 230 SDL/TYSA_COLOUR15 227 4 0 129 149 258 50 74 3 0
 149 24 20 0 +0 0 .027305 0 0 1 1 0 0 50 20 24 0 135 74 6 0 +0 0 -.027305 0 0 1
 1 0 0 17 129 0 227 129 129 0 157 63 0 0 +15 258 45 0 259 149 0 17 259 0 258 259
 259 0 124 122 0 0 -17 124 0 150 124 124 0 259 122 0 0 +15 150 60 0 124 142 260
 15 260 123 0 261 142 0 17 261 0 260 261 261 0 262 22 0 0 +17 262 0 217 262 262
 0 261 22 0 0 -16 22 165 0 ?261 40 68 7 0 0 1 15 217 208 0 262 83 0 17 157 0 152
 157 157 0 129 63 0 0 -83 3 225 .647058823529412 .619607843137255 .5882352941176
47 15 223 188 0 175 82 263 17 175 0 223 175 175 0 172 171 0 0 -15 263 189 0 115
 82 0 17 115 0 263 120 120 11 48 113 0 0 +17 120 0 263 115 115 43 41 118 0 0 +17
 48 0 158 264 264 43 115 113 0 39 -15 158 149 0 264 17 0 17 264 0 158 48 48 11 3
8 116 0 115 -17 39 0 133 41 41 43 35 40 0 38 -15 133 153 0 41 88 0 17 41 0 133 3
9 39 11 120 118 0 264 -17 38 0 37 35 35 43 264 116 0 120 +15 37 194 0 35 186 0 8
3 3 220 .647058823529412 .619607843137255 .588235294117647 81 1 207 530 203 65 0
 191 209 0 265 83 3 213 .647058823529412 .619607843137255 .588235294117647 83 3
 265 .647058823529412 .619607843137255 .588235294117647 13 16 315 0 1 0 66 0 0 1
8 0 13 98 316 0 0 0 0 0 0 30 66 19 30 317 0 1 18 9 98 V0 19 18 32 0 1 0 30 5 S0
 82 1 208 -93716352 83 3 206 .647058823529412 .619607843137255 .588235294117647
 79 14 202 SWEntUnchanged15 190 193 0 176 186 37 17 176 0 190 176 176 0 266 173
 0 0 +17 266 0 90 266 266 0 176 173 0 0 -15 90 239 0 266 84 200 82 1 189 -922090
24 15 95 235 0 172 91 185 82 1 167 -117636992 82 1 163 -85720960 82 1 156 -86114
176 82 1 147 -95158144 40 21 104 0 1 21 .0004349273070005445 .3834108663117405 ?
?.0127 0 .00635 .0125469512983484 -.00196570931647411 .00603808635936311 .012147
21950894024 -.00370608394422216 .00515630117413429 .0116082201254411 -.005151623
58090187 .00371258326245968 .01113045917884452 -.00611578927597048 .001708690004
63057 .0110062193807772 -.00633665013569509 -.0004115398617331835 .0112240141029
713 -.00594234864479534 -.0022385246444252 .0116621516481475 -.00502834156910712
 -.003877922261261735 .01221173589471726 -.00348762188857595 -.00530650483485372
 .0126186891891098 -.001434811189196618 -.00618577536379686 .01268382475570404 .
000640772632521965 -.00631758739024723 .01245398284486484 .00248763166481941 -.0
0584244714996959 .01201127428887794 .00412544421333507 -.00482733985158081 .0114
594548459963 .00547456798593024 -.003217391080895785 .01105529139176646 .0062506
4254642148 -.00111891365031697 .01103814551142544 .00628087125075801 .0009344283
44712163 .01132373140132844 .00575005279545919 .002694326047350605 .011807364710
99204 .00467719345137869 .004294922748825675 .01234875472336698 .002966185560972
515 .00561464542227541 .01267106628973856 .000856784150793657 .00629193300337415
 .0127 277226641882526e-33 .00635 41 1 105 H?.0127 277226641882526e-33 .00635 20
4 84 106 4 3.141592653589795 .020955 0 .014605 3.296997683804535 .02126691364063
69 5.96845448965909 .0147580487016516 3.43771928989152 .0221486988258657 5.65998
693947566 .01515778049105975 3.55927118841871 .0235924167375403 5.3368483812317
 .0156967798745589 3.64402443819586 .02559630999536945 4.98483188632763 .0161745
4082115545 3.663978066844495 .0277165398617332 4.64753409794437 .016298780619222
8 3.62850744086572 .0295435246444252 4.35212255648488 .0160809858970287 3.548675
66724382 .03118292226126175 4.05544922024009 .0156428483518525 3.419782872248265
 .0326115048348537 3.72303734332364 .01509326410528275 3.25481164127062 .0334907
7536379685 3.369515437846395 .0146863108108902 3.09111668434975 .033622587390247
25 3.040511534604035 .01462117524429594 2.94444145940009 .0331474471499696 2.739
056523352255 .01485101715513516 2.810752085283745 .0321323398515808 2.4344341576
5602 .01529372571112205 2.695916211796055 .0305223910808958 2.102120914210205 .0
158455451540037 2.627004272409025 .02842391365031695 1.74792801875412 .016249708
60823355 2.62426783211628 .02637057165528785 1.423105927016 .01626685448857455 2
.67173422233811 .0246106739526494 1.132603956000066 .01598126859867155 2.7644311
6992799 .0230100772511743 .827978936048857 .01549763528900795 2.90585745037787 .
0216903545777246 .486026051990238 .01495624527663302 3.074078055241645 .02101306
699662585 .1353394229694886 .01463393371026144 3.141592653589795 .020955 4365773
887913795e-32 .014605 141 75 23 267 267 24 141 267 7 75 75 24 40 21 26 0 1 21 .0
004349273070005445 .3834108663117405 ??-.00635 0 .0127 -.00603808635936311 .0019
6570931647411 .0125469512983484 -.00515630117413429 .003706083944222165 .0121472
1950894024 -.00371258326245968 .00515162358090187 .0116082201254411 -.0017086900
0463057 .00611578927597048 .01113045917884452 .000411539861733183 .0063366501356
9509 .0110062193807772 .0022385246444252 .00594234864479534 .0112240141029713 .0
03877922261261735 .00502834156910712 .0116621516481475 .00530650483485372 .00348
7621888575955 .01221173589471726 .00618577536379686 .001434811189196618 .0126186
891891098 .00631758739024724 -.000640772632521963 .01268382475570404 .0058424471
4996959 -.002487631664819405 .01245398284486484 .00482733985158081 -.00412544421
333507 .01201127428887794 .00321739108089579 -.00547456798593024 .01145945484599
63 .001118913650316974 -.00625064254642148 .01105529139176646 -.0009344283447121
61 -.00628087125075801 .01103814551142544 -.002694326047350605 -.005750052795459
19 .01132373140132844 -.004294922748825675 -.00467719345137869 .0118073647109920
4 -.00561464542227541 -.002966185560972515 .01234875472336698 -.0062919330033741
5 -.000856784150793659 .01267106628973856 -.00635 -136616277506119e-33 .0127 41
 1 27 H?-.00635 -136616277506119e-33 .0127 204 84 28 4 0 .014605 0 .033655 .3147
30817520497 .0147580487016516 .1554050302147435 .0333430863593631 .6231983677039
25 .01515778049105975 .2961266363017275 .0324613011741343 .94633692594789 .01569
67798745589 .417678534828916 .0310175832624597 1.298353420851958 .01617454082115
545 .502431784606065 .02901369000463055 1.635651209235215 .0162987806192228 .522
385413254702 .0268934601382668 1.931062750694705 .0160809858970287 .486914787275
926 .0250664753555748 2.227736086939495 .0156428483518525 .407083013654027 .0234
2707773873825 2.560147963855945 .01509326410528275 .2781902186584735 .0219984951
651463 2.913669869333195 .01468631081089022 .1132189876808244 .02111922463620315
 3.24267377257555 .01462117524429594 6.23270933793954 .02098741260975275 3.54412
8783827335 .01485101715513516 6.08603411298989 .0214625528500304 3.8487511495235
7 .01529372571112205 5.95234473887354 .0224776601484192 4.18106439296938 .015845
5451540037 5.83750886538585 .0240876089191042 4.53525728842546 .0162497086082335
5 5.76859692599882 .02618608634968305 4.86007938016359 .01626685448857455 5.7658
6048570607 .02823942834471215 5.15058135117952 .01598126859867155 5.813326875927
9 .0299993260473506 5.45520637113073 .01549763528900795 5.90602382351778 .031599
92274882565 5.79715925518935 .01495624527663302 6.04745010396766 .03291964542227
54 6.1478458842101 .01463393371026144 6.21567070883144 .03359693300337415 0 .014
605 0 .033655 141 21 99 268 268 6 141 268 103 21 21 6 74 4 CI16 index_map_offset
0 0 1 dCCZ20 15 9 0 0 221 269 270 271 272 273 13 207 2 0 0 0 0 0 0 0 0 0 0 0 81
 2 269 349 274 1 0 270 0 0 0 275 81 2 270 361 276 1 269 271 0 0 0 277 81 1 271 3
80 278 1 270 272 0 0 279 81 2 272 403 280 1 271 273 0 0 281 0 81 2 273 464 282 1
 272 13 0 0 0 283 81 2 13 508 284 1 273 2 0 0 0 0 80 2 284 285 286 9000 0 0 0 0
 3 5 0 0 0 FFTFFFFFFFFFFF9 1 79 16 286 BODY_RECIPE_200180 2 282 287 288 9000 0 0
 0 0 3 5 0 0 0 FFTFFFFFFFFFFF9 1 82 1 283 1 79 24 288 BODY_IN_LIGHTWEIGHT_PERM80
 2 280 289 290 8004 0 0 0 0 3 5 0 0 0 FFTFFFFFFFFFFF2 3 83 1 281 1 79 16 290 SDL
/TYSA_DENSITY80 1 278 291 292 9000 1 1 1 1 1 1 1 1 0 FFTFFFFFFFFFFF1 82 1 279 63
709 79 10 292 BODY_MATCH80 2 276 293 294 9000 0 0 0 0 3 5 0 0 0 FFTFFFFFFFFFFF9
 1 82 1 277 53 79 30 294 LAST_BODY_MODIFYING_FEATURE_ID80 2 274 295 296 9000 0 0
 0 0 3 5 0 0 0 FFTFFFFFFFFFFT9 1 82 1 275 113 79 19 296 ENT_TIME_STAMP_200180 2
 12 297 298 9000 0 0 0 0 3 5 0 0 0 FFTFFFFFFFFFFF9 1 82 1 14 102 79 12 298 ATOM_
ID_20011 0 
