**ABCDEFGHIJKLMNOPQRSTUVWXYZabcdefghijklmnopqrstuvwxyz**************************
**PARASOLID !"#$%&'()*+,-./:;<=>?@[\]^_`{|}~0123456789**************************
**PART1;
MC=AMD64;
MC_MODEL=Intel64 Family 6 Model 142 Stepping 12, GenuineIntel;
MC_ID=unknown;
OS=Windows_NT;
OS_RELEASE=unknown;
FRU=Parasolid Version 33.1, build 247,  8- 6-2021;
APPL=SOLIDWORKS 2022-2022009;
SITE=;
USER=unknown;
FORMAT=text;
GUISE=transmit;
KEY=FILEInner ring.x_t;
DATE=Thu Jun 15 06:06:47 2023;
**PART2;
SCH=SCH_3301247_33103;
USFLD_SIZE=0;
**PART3;
**END_OF_HEADER*****************************************************************
T51 : TRANSMIT FILE created by modeller version 330124723 SCH_3301247_33103_1300
6230 0 12 35 CCCI7 lattice222 0 CCCI4 mesh1006 0 I8 polyline1008 0 CCCCCCCDI5 ow
ner1040 0 CCCCCCI13 boundary_mesh1006 0 I17 boundary_polyline1008 0 CCCA16 index
_map_offset0 0 1 dA9 index_map82 0 A17 node_id_index_map82 0 A20 schema_embeddin
g_map82 0 A5 child12 0 A14 lowest_node_id0 0 1 dA16 mesh_offset_data206 0 Z1 261
 2 3 0 0 0 0 0 0 0 1e3 1e-8 0 4 0 1 0 1 1 5 6 7 0 0 0 8 9 0 0 0 0 0 0 0 0 81 255
 2 2 253 10 1 11 0 0 0 0 12 70 11 CI9 list_type0 0 1 uI10 notransmit0 0 1 lCCCDC
CDI12 finger_index0 0 1 dI12 finger_block1012 0 CZ3 0 4 T1 0 0 9 20 1 13 13 13 2
55 5 62 0 1 0 14 0 0 15 0 50 255 6 115 0 14 16 0 0 +-.0155 .037 0 1 0 0 0 0 -1 3
1 255 7 123 0 9 17 0 0 +-.0155 0 0 -1 0 0 0 0 1 .0271 19 8 CCCCCCCA5 owner12 0 Z
8 66 0 1 15 0 18 V0 16 255 9 100 0 ?19 0 20 7 0 0 1 17 255 19 0 21 19 19 0 22 9
 0 0 +16 20 95 0 ?23 9 24 17 0 0 1 17 23 0 25 23 23 0 26 20 0 0 +16 24 90 0 ?27
 20 28 29 0 0 1 31 17 122 0 20 29 7 0 +-.0134 0 0 -1 0 0 0 0 1 .025 31 29 121 0
 24 30 17 0 +.0134 0 0 -1 0 0 0 0 1 .025 31 30 120 0 28 31 29 0 +.0155 0 0 -1 0
 0 0 0 1 .0271 16 28 85 0 ?32 24 33 30 0 0 1 31 31 119 0 33 34 30 0 +.0155 0 0 -
1 0 0 0 0 1 .037 16 33 80 0 ?35 28 36 31 0 0 1 31 34 118 0 36 37 31 0 +.00894427
190999916 0 0 -1 0 0 0 0 1 .037 16 36 75 0 ?38 33 39 34 0 0 1 31 37 117 0 39 40
 34 0 +-.00894427190999916 0 0 -1 0 0 0 0 1 .037 16 39 70 0 ?41 36 42 37 0 0 1 3
1 40 116 0 42 0 37 0 +-.0155 0 0 -1 0 0 0 0 1 .037 16 42 68 0 ?43 39 0 40 0 0 1
 17 43 0 44 43 43 0 45 42 0 0 +15 255 44 105 0 43 14 0 17 45 0 46 45 45 0 43 42
 0 0 -15 46 156 0 45 47 48 14 255 47 73 49 ?0 50 46 5 51 -0 0 0 50 18 15 48 72 0
 41 47 0 17 41 0 48 41 41 0 52 39 0 0 +17 52 0 53 52 52 0 41 39 0 0 -15 53 157 0
 52 50 54 14 50 78 55 ?47 56 53 5 57 -0 0 47 56 18 15 54 77 0 38 50 0 17 38 0 54
 38 38 0 58 36 0 0 +17 58 0 59 58 58 0 38 36 0 0 -15 59 158 0 58 56 60 14 56 83
 61 ?50 62 59 5 63 -0 0 50 62 18 15 60 82 0 35 56 0 17 35 0 60 35 35 0 64 33 0 0
 +17 64 0 65 64 64 0 35 33 0 0 -15 65 159 0 64 62 66 14 62 88 67 ?56 68 65 5 69
 -0 0 56 68 18 15 66 87 0 32 62 0 17 32 0 66 32 32 0 70 28 0 0 +17 70 0 71 70 70
 0 32 28 0 0 -15 71 160 0 70 68 72 14 68 93 73 ?62 74 71 5 75 -0 0 62 74 18 15 7
2 92 0 27 68 0 17 27 0 72 27 27 0 76 24 0 0 +17 76 0 77 76 76 0 27 24 0 0 -15 77
 161 0 76 74 25 14 74 98 78 ?68 79 77 5 80 -0 0 68 79 18 15 25 97 0 23 74 0 81 1
 78 259 81 74 82 0 73 83 84 14 79 103 83 ?74 14 85 5 16 -0 0 74 14 18 51 255 80
 113 0 74 75 16 0 +-.01226189495365602 0 0 -1 0 0 .025 0 0 1 13 18 65 0 0 0 0 0
 0 8 14 14 14 106 86 ?79 0 87 5 6 -0 0 79 0 18 81 1 86 261 81 14 88 0 83 0 89 15
 87 163 0 22 14 44 17 22 0 87 22 22 0 19 9 0 0 -80 255 1 81 90 91 9000 1 1 1 1 1
 1 1 1 0 FFFFTFTFFFFFFF1 81 1 88 228 92 14 0 86 0 93 94 81 1 83 260 81 79 93 0 7
8 86 95 82 255 1 89 534511719 81 1 93 229 92 79 0 83 88 82 96 82 1 95 534184039
 80 1 92 0 97 8001 0 0 0 0 3 5 0 0 0 FFFFTFTFFFFFFF2 81 1 82 230 92 74 0 78 93 9
8 99 83 255 3 96 .792156862745098 .819607843137255 .933333333333333 81 1 98 231
 92 68 0 73 82 100 101 83 3 99 .792156862745098 .819607843137255 .93333333333333
3 81 1 73 258 81 68 98 0 67 78 102 81 1 100 232 92 62 0 67 98 103 104 83 3 101 .
792156862745098 .819607843137255 .933333333333333 81 1 67 257 81 62 100 0 61 73
 105 81 1 103 233 92 56 0 61 100 106 107 83 3 104 .792156862745098 .819607843137
255 .933333333333333 81 1 61 256 81 56 103 0 55 67 108 81 1 106 234 92 50 0 55 1
03 109 110 83 3 107 .792156862745098 .819607843137255 .933333333333333 81 1 55 2
55 81 50 106 0 49 61 111 81 1 109 235 92 47 0 49 106 0 112 83 3 110 .79215686274
5098 .819607843137255 .933333333333333 81 1 49 254 81 47 109 0 0 55 113 83 3 112
 .792156862745098 .819607843137255 .933333333333333 82 1 113 530645095 82 1 111
 531234919 82 1 108 531824743 82 1 105 532414567 82 1 102 533004391 79 255 15 97
 SDL/TYSA_COLOUR83 3 94 .792156862745098 .819607843137255 .933333333333333 79 14
 91 SWEntUnchanged54 255 75 112 0 68 69 80 0 -.0134 0 0 -1 0 0 .0271 .0021 0 0 1
 54 16 114 0 79 80 6 0 --.0134 0 0 -1 0 0 .0271 .0021 0 0 1 50 69 111 0 62 63 75
 0 +.0155 .037 0 -1 0 0 0 0 1 51 63 110 0 56 57 69 0 --.01226189495365602 0 0 -1
 0 0 .037 0 0 1 54 57 109 0 50 51 63 0 +0 0 0 -1 0 0 .045 .012 0 0 1 51 51 108 0
 47 0 57 0 --.01226189495365602 0 0 -1 0 0 .037 0 0 1 15 85 162 0 26 79 21 17 26
 0 85 26 26 0 23 20 0 0 -15 21 102 0 19 79 0 82 1 84 533594215 19 15 61 0 1 0 8
 5 S0 74 4 CI16 index_map_offset0 0 1 dCCZ20 13 9 0 0 114 115 86 116 117 118 11
 109 2 0 0 0 0 0 0 0 0 0 0 0 81 2 114 172 119 1 0 115 0 0 0 120 81 2 115 176 121
 1 114 116 0 0 0 122 81 1 116 185 123 1 115 117 0 0 124 81 2 117 196 125 1 116 1
18 0 0 126 0 81 2 118 222 127 1 117 11 0 0 0 128 81 2 11 225 129 1 118 2 0 0 0 0
 80 2 129 130 131 9000 0 0 0 0 3 5 0 0 0 FFTFFFFFFFFFFF9 1 79 16 131 BODY_RECIPE
_200180 2 127 132 133 9000 0 0 0 0 3 5 0 0 0 FFTFFFFFFFFFFF9 1 82 1 128 1 79 24
 133 BODY_IN_LIGHTWEIGHT_PERM80 2 125 134 135 8004 0 0 0 0 3 5 0 0 0 FFTFFFFFFFF
FFF2 3 83 1 126 1 79 16 135 SDL/TYSA_DENSITY80 1 123 136 137 9000 1 1 1 1 1 1 1
 1 0 FFTFFFFFFFFFFF1 82 1 124 401235 79 10 137 BODY_MATCH80 2 121 138 139 9000 0
 0 0 0 3 5 0 0 0 FFTFFFFFFFFFFF9 1 82 1 122 44 79 30 139 LAST_BODY_MODIFYING_FEA
TURE_ID80 2 119 140 141 9000 0 0 0 0 3 5 0 0 0 FFTFFFFFFFFFFT9 1 82 1 120 103 79
 19 141 ENT_TIME_STAMP_200180 2 10 142 143 9000 0 0 0 0 3 5 0 0 0 FFTFFFFFFFFFFF
9 1 82 1 12 101 79 12 143 ATOM_ID_20011 0 
