**ABCDEFGHIJKLMNOPQRSTUVWXYZabcdefghijklmnopqrstuvwxyz**************************
**PARASOLID !"#$%&'()*+,-./:;<=>?@[\]^_`{|}~0123456789**************************
**PART1;
MC=AMD64;
MC_MODEL=Intel64 Family 6 Model 142 Stepping 12, GenuineIntel;
MC_ID=unknown;
OS=Windows_NT;
OS_RELEASE=unknown;
FRU=Parasolid Version 33.1, build 247,  8- 6-2021;
APPL=SOLIDWORKS 2022-2022009;
SITE=;
USER=unknown;
FORMAT=text;
GUISE=transmit;
KEY=FILEOuter Ring.x_t;
DATE=Thu Jun 15 06:06:51 2023;
**PART2;
SCH=SCH_3301247_33103;
USFLD_SIZE=0;
**PART3;
**END_OF_HEADER*****************************************************************
T51 : TRANSMIT FILE created by modeller version 330124723 SCH_3301247_33103_1300
6230 0 12 35 CCCI7 lattice222 0 CCCI4 mesh1006 0 I8 polyline1008 0 CCCCCCCDI5 ow
ner1040 0 CCCCCCI13 boundary_mesh1006 0 I17 boundary_polyline1008 0 CCCA16 index
_map_offset0 0 1 dA9 index_map82 0 A17 node_id_index_map82 0 A20 schema_embeddin
g_map82 0 A5 child12 0 A14 lowest_node_id0 0 1 dA16 mesh_offset_data206 0 Z1 282
 2 3 0 0 0 0 0 0 0 1e3 1e-8 0 4 0 1 0 1 1 5 6 7 0 0 0 8 9 0 0 0 0 0 0 0 0 81 255
 2 2 274 10 1 11 0 0 0 0 12 70 11 CI9 list_type0 0 1 uI10 notransmit0 0 1 lCCCDC
CDI12 finger_index0 0 1 dI12 finger_block1012 0 CZ3 0 4 T1 0 0 9 20 1 13 13 13 2
55 5 48 0 1 0 14 0 0 15 0 54 255 6 198 0 16 17 0 0 +.0134 0 0 1 0 0 .0629 .0021
 0 0 -1 31 255 7 168 0 9 18 0 0 +.0155 0 0 1 0 0 0 0 -1 .0629 19 8 CCCCCCCA5 own
er12 0 Z8 52 0 1 15 0 19 V0 16 255 9 165 0 ?20 0 21 7 0 0 1 17 255 20 0 22 20 20
 0 23 9 0 0 +16 21 159 0 ?24 9 25 18 0 0 1 17 24 0 26 24 24 0 27 21 0 0 +16 25 1
53 0 ?28 21 29 30 0 0 1 31 18 162 0 21 30 7 0 +-.0134 0 0 1 0 0 0 0 -1 .065 31 3
0 156 0 25 31 18 0 -.0134 0 0 1 0 0 0 0 -1 .065 31 31 150 0 29 32 30 0 --.0155 0
 0 1 0 0 0 0 -1 .0629 16 29 147 0 ?33 25 34 31 0 0 1 31 32 94 0 34 35 31 0 +.015
5 0 0 -1 0 0 0 0 1 .053 16 34 71 0 ?36 29 37 32 0 0 1 31 35 93 0 37 38 32 0 +.00
894427190999915 0 0 -1 0 0 0 0 1 .053 16 37 66 0 ?39 34 40 35 0 0 1 31 38 92 0 4
0 41 35 0 +-.00894427190999915 0 0 -1 0 0 0 0 1 .053 16 40 61 0 ?42 37 43 38 0 0
 1 31 41 91 0 43 0 38 0 +-.0155 0 0 -1 0 0 0 0 1 .053 16 43 56 0 ?44 40 0 41 0 0
 1 17 44 0 45 44 44 0 46 43 0 0 +15 255 45 63 0 44 47 0 17 46 0 48 46 46 0 44 43
 0 0 -15 48 120 0 46 49 0 14 255 49 59 50 ?51 47 52 5 53 -0 0 51 47 19 81 1 50 2
75 54 49 55 0 0 56 57 14 51 178 56 ?16 49 58 5 17 +0 0 16 49 19 14 47 64 59 ?49
 60 61 5 62 -0 0 49 60 19 15 52 148 0 33 49 48 50 255 53 84 0 49 0 62 0 +-.0155
 .065 0 1 0 0 0 0 -1 13 19 51 0 0 0 0 0 0 8 14 14 14 82 63 ?64 0 26 5 65 +0 0 64
 0 19 81 1 63 278 54 14 66 0 59 67 68 14 64 79 67 ?69 14 22 5 70 +0 0 69 14 19 1
5 26 160 0 24 14 71 51 255 65 89 0 14 70 17 0 +-.0202526196060867 0 0 -1 0 0 .06
5 0 0 1 50 70 88 0 64 72 65 0 +.0155 .065 0 1 0 0 0 0 -1 54 17 185 0 51 65 6 0 +
-.0134 0 0 1 0 0 .0629 .0021 0 0 -1 51 72 87 0 69 73 70 0 +-.0202526196060867 0
 0 -1 0 0 .053 0 0 1 14 69 74 74 ?60 64 75 5 72 -0 0 60 64 19 54 73 86 0 60 62 7
2 0 +1734723475976805e-33 0 0 -1 0 0 .045 .012 0 0 1 14 60 69 76 ?47 69 77 5 73
 -0 0 47 69 19 51 62 85 0 47 53 73 0 +-.0202526196060867 0 0 -1 0 0 .053 0 0 1 8
1 1 76 281 54 60 78 0 74 79 80 15 77 122 0 81 60 82 17 81 0 77 81 81 0 39 37 0 0
 -15 82 68 0 42 60 0 17 42 0 82 42 42 0 83 40 0 0 +17 83 0 61 83 83 0 42 40 0 0
 -15 61 121 0 83 47 45 17 39 0 84 39 39 0 81 37 0 0 +15 84 73 0 39 69 0 80 255 1
 54 85 86 9000 1 1 1 1 1 1 1 1 0 FFFFTFTFFFFFFF1 81 1 78 252 87 60 0 76 88 89 90
 81 1 74 280 54 69 88 0 67 76 91 81 1 79 282 54 16 92 0 76 0 93 82 255 1 80 1844
052071 14 16 191 79 ?0 51 94 5 6 +0 0 0 51 19 81 1 92 256 87 16 0 79 95 0 96 82
 1 93 -1076756375 80 1 87 0 97 8001 0 0 0 0 3 5 0 0 0 FFFFTFTFFFFFFF2 81 1 95 25
5 87 51 0 56 55 92 98 83 255 3 96 .792156862745098 .819607843137255 .93333333333
3333 81 1 56 276 54 51 95 0 50 59 99 81 1 55 254 87 49 0 50 89 95 100 83 3 98 .7
92156862745098 .819607843137255 .933333333333333 81 1 89 253 87 47 0 59 78 55 10
1 83 3 100 .792156862745098 .819607843137255 .933333333333333 81 1 59 277 54 47
 89 0 56 63 102 83 3 101 .792156862745098 .819607843137255 .933333333333333 82 1
 102 1843462247 82 1 99 -1078001559 79 255 15 97 SDL/TYSA_COLOUR15 94 192 0 23 1
6 103 17 23 0 94 23 23 0 20 9 0 0 -15 103 193 0 104 16 0 17 104 0 103 104 104 0
 28 25 0 0 -17 28 0 71 28 28 0 104 25 0 0 +15 71 154 0 28 14 0 81 1 88 251 87 69
 0 74 105 78 106 81 1 67 279 54 64 105 0 63 74 107 82 1 91 1844641895 81 1 105 2
50 87 64 0 67 66 88 108 82 1 107 1845231721 81 1 66 249 87 14 0 63 0 105 109 83
 3 108 .792156862745098 .819607843137255 .933333333333333 83 3 109 .792156862745
098 .819607843137255 .933333333333333 83 3 106 .792156862745098 .819607843137255
 .933333333333333 83 3 90 .792156862745098 .819607843137255 .933333333333333 79
 14 86 SWEntUnchanged15 75 123 0 110 69 84 17 110 0 75 110 110 0 36 34 0 0 -17 3
6 0 111 36 36 0 110 34 0 0 +15 111 124 0 36 64 0 15 22 166 0 20 64 111 82 1 68 1
845559401 17 33 0 52 33 33 0 112 29 0 0 +17 112 0 113 112 112 0 33 29 0 0 -15 11
3 180 0 112 51 0 15 58 179 0 27 51 113 17 27 0 58 27 27 0 24 21 0 0 -82 1 57 184
2872425 19 15 47 0 1 0 8 5 S0 74 4 CI16 index_map_offset0 0 1 dCCZ20 13 9 0 0 11
4 115 79 116 117 118 11 92 2 0 0 0 0 0 0 0 0 0 0 0 81 2 114 132 119 1 0 115 0 0
 0 120 81 2 115 136 121 1 114 116 0 0 0 122 81 1 116 208 123 1 115 117 0 0 124 8
1 2 117 218 125 1 116 118 0 0 126 0 81 2 118 243 127 1 117 11 0 0 0 128 81 2 11
 246 129 1 118 2 0 0 0 0 80 2 129 130 131 9000 0 0 0 0 3 5 0 0 0 FFTFFFFFFFFFFF9
 1 79 16 131 BODY_RECIPE_200180 2 127 132 133 9000 0 0 0 0 3 5 0 0 0 FFTFFFFFFFF
FFF9 1 82 1 128 1 79 24 133 BODY_IN_LIGHTWEIGHT_PERM80 2 125 134 135 8004 0 0 0
 0 3 5 0 0 0 FFTFFFFFFFFFFF2 3 83 1 126 1 79 16 135 SDL/TYSA_DENSITY80 1 123 136
 137 9000 1 1 1 1 1 1 1 1 0 FFTFFFFFFFFFFF1 82 1 124 159128 79 10 137 BODY_MATCH
80 2 121 138 139 9000 0 0 0 0 3 5 0 0 0 FFTFFFFFFFFFFF9 1 82 1 122 46 79 30 139
 LAST_BODY_MODIFYING_FEATURE_ID80 2 119 140 141 9000 0 0 0 0 3 5 0 0 0 FFTFFFFFF
FFFFT9 1 82 1 120 105 79 19 141 ENT_TIME_STAMP_200180 2 10 142 143 9000 0 0 0 0
 3 5 0 0 0 FFTFFFFFFFFFFF9 1 82 1 12 101 79 12 143 ATOM_ID_20011 0 
