**ABCDEFGHIJKLMNOPQRSTUVWXYZabcdefghijklmnopqrstuvwxyz**************************
**PARASOLID !"#$%&'()*+,-./:;<=>?@[\]^_`{|}~0123456789**************************
**PART1;
MC=AMD64;
MC_MODEL=Intel64 Family 6 Model 142 Stepping 12, GenuineIntel;
MC_ID=unknown;
OS=Windows_NT;
OS_RELEASE=unknown;
FRU=Parasolid Version 33.1, build 247,  8- 6-2021;
APPL=SOLIDWORKS 2022-2022009;
SITE=;
USER=unknown;
FORMAT=text;
GUISE=transmit;
KEY=FILEGrip.x_t;
DATE=Thu Jun 15 06:19:06 2023;
**PART2;
SCH=SCH_3301247_33103;
USFLD_SIZE=0;
**PART3;
**END_OF_HEADER*****************************************************************
T51 : TRANSMIT FILE created by modeller version 330124723 SCH_3301247_33103_1300
6230 0 12 35 CCCI7 lattice222 0 CCCI4 mesh1006 0 I8 polyline1008 0 CCCCCCCDI5 ow
ner1040 0 CCCCCCI13 boundary_mesh1006 0 I17 boundary_polyline1008 0 CCCA16 index
_map_offset0 0 1 dA9 index_map82 0 A17 node_id_index_map82 0 A20 schema_embeddin
g_map82 0 A5 child12 0 A14 lowest_node_id0 0 1 dA16 mesh_offset_data206 0 Z1 251
 2 3 0 0 0 0 0 0 0 1e3 1e-8 0 4 0 1 0 1 1 5 6 7 8 0 0 9 10 11 0 0 0 0 0 0 0 81 2
55 2 2 244 12 1 13 0 0 0 0 14 70 11 CI9 list_type0 0 1 uI10 notransmit0 0 1 lCCC
DCCDI12 finger_index0 0 1 dI12 finger_block1012 0 CZ3 0 4 T1 0 0 9 20 1 15 15 13
 255 5 99 0 1 0 16 0 0 17 0 50 255 6 94 0 18 19 0 0 +-.009525 .009525 .00635 1 9
10615997888088e-31 0 -910615997888088e-31 1 0 30 255 7 98 0 10 20 0 0 +-.009525
 -.009525 .00635 0 0 -1 29 255 8 75 0 21 22 0 -.009525 .009525 0 19 8 CCCCCCCA5
 owner12 0 Z9 33 0 1 17 0 23 V0 16 255 10 82 0 ?24 0 25 7 0 0 1 18 255 11 30 0 2
6 0 27 28 ?1 17 255 26 0 29 30 31 11 32 33 0 34 +18 27 27 0 31 11 35 36 ?1 29 28
 32 0 11 36 37 -.009525 .009525 .00635 29 36 29 0 27 38 28 .0254 .009525 .00635
 29 37 78 0 39 28 40 -.009525 -.009525 0 18 39 69 0 41 42 0 37 ?1 29 40 77 0 42
 37 22 .0254 -.009525 0 18 42 68 0 43 44 39 40 ?1 29 22 76 0 44 40 8 .0254 .0095
25 0 18 44 67 0 45 21 42 22 ?1 17 45 0 46 47 48 44 49 50 0 51 +18 21 66 0 52 53
 44 8 ?1 17 52 0 54 34 51 21 55 56 0 57 +18 53 21 0 58 35 21 59 ?1 17 58 0 60 24
 61 53 62 63 0 30 -18 35 24 0 62 27 53 38 ?1 29 59 23 0 53 0 38 -.009525 -.00952
5 .00635 29 38 26 0 35 59 36 .0254 -.009525 .00635 17 62 0 29 31 30 35 58 63 0 6
1 +15 255 29 4 0 30 16 64 17 31 0 29 26 62 27 65 66 0 47 +17 30 0 29 62 26 53 67
 68 0 69 +16 63 9 0 ?62 66 68 70 0 0 1 17 61 0 60 58 43 35 48 25 0 65 -15 60 87
 0 43 71 0 17 43 0 60 61 24 42 41 72 0 48 +17 48 0 46 45 65 42 61 25 0 49 +16 25
 81 0 ?48 10 73 20 0 0 1 17 65 0 46 48 47 35 31 66 0 0 -15 46 85 0 45 74 0 17 47
 0 46 65 45 27 51 73 0 32 -16 66 13 0 ?31 33 63 75 0 0 1 16 33 17 0 ?26 76 66 77
 0 0 1 30 75 15 0 66 70 77 0 +.0254 .009525 .00635 -364246399155235e-30 1 0 30 7
0 11 0 63 78 75 0 +-.009525 -.009525 .00635 1 0 0 30 77 19 0 33 75 79 0 +-.00952
5 .009525 .00635 -1 0 0 30 79 74 0 80 77 81 0 +-.009525 .009525 0 91061599788808
8e-31 -1 0 16 80 62 0 ?82 72 83 79 0 0 1 30 81 73 0 72 79 84 0 +-.009525 -.00952
5 0 1 0 0 16 72 58 0 ?43 50 80 81 0 0 1 30 84 72 0 50 81 85 0 +.0254 .009525 0 -
364246399155235e-30 1 0 16 50 54 0 ?45 56 72 84 0 0 1 30 85 71 0 56 84 86 0 +-.0
09525 .009525 0 -1 0 0 16 56 50 0 ?52 68 50 85 0 0 1 30 86 95 0 76 85 87 0 +-.00
9525 .009525 .00635 0 0 -1 16 76 79 0 ?57 73 33 86 0 0 1 30 87 96 0 73 86 20 0 +
.0254 .009525 .00635 0 0 -1 16 73 80 0 ?51 25 76 87 0 0 1 30 20 97 0 25 87 7 0 +
.0254 -.009525 .00635 0 0 -1 17 51 0 54 52 32 44 47 73 0 55 +15 54 83 0 52 88 0
 17 32 0 54 51 34 27 26 33 0 0 -17 55 0 89 49 90 44 52 56 0 0 -15 89 49 0 90 91
 92 17 49 0 89 41 55 42 45 50 0 0 -17 90 0 89 55 41 21 82 80 0 0 -17 41 0 89 90
 49 39 43 72 0 24 -17 82 0 93 69 57 39 90 80 0 0 +15 93 89 0 82 18 0 17 69 0 93
 67 82 53 24 10 0 0 -17 57 0 93 82 67 21 34 76 0 90 +17 67 0 93 57 69 11 30 68 0
 0 -17 34 0 54 32 52 11 57 76 0 67 -16 68 5 0 ?30 63 56 78 0 0 1 30 78 7 0 68 94
 70 0 +-.009525 .009525 .00635 910615997888088e-31 -1 0 31 255 94 147 0 95 96 78
 0 +0 0 0 0 0 1 1 0 0 .0039624 16 95 125 0 ?97 83 0 94 0 0 1 31 96 148 0 83 0 94
 0 +0 0 .00635 0 0 1 1 0 0 .0039624 16 83 128 0 ?98 80 95 96 0 0 1 17 98 0 99 98
 98 0 100 83 0 0 +15 99 134 0 98 101 102 17 100 0 64 100 100 0 98 83 0 0 -15 64
 119 0 100 16 0 14 255 16 122 103 ?91 0 29 5 104 +0 0 91 0 23 81 1 103 245 105 1
6 106 0 0 107 108 14 91 116 107 ?18 16 89 5 109 -0 0 18 16 23 50 104 3 0 16 110
 109 0 +0 0 .00635 0 0 1 1 0 0 13 23 34 0 0 0 0 0 0 9 16 51 255 110 144 0 101 0
 104 0 -0 0 .00635 0 0 -1 .0039624 -1 0 0 50 109 70 0 91 104 111 0 +0 0 0 0 0 1
 1 0 0 50 111 91 0 88 109 112 0 +-.009525 .009525 .00635 0 -1 0 0 0 -1 14 88 84
 113 ?101 74 54 5 111 -0 0 101 74 23 50 112 92 0 74 111 19 0 +.0254 .009525 .006
35 -1 -364246399155235e-30 0 364246399155235e-30 -1 0 14 74 86 114 ?88 71 46 5 1
12 -0 0 88 71 23 50 19 93 0 71 112 6 0 +-.009525 -.009525 .00635 0 1 0 0 0 1 14
 71 88 115 ?74 18 60 5 19 -0 0 74 18 23 81 1 115 249 105 71 116 0 114 117 118 14
 18 90 117 ?71 91 93 5 6 -0 0 71 91 23 81 1 117 250 105 18 119 0 115 120 121 80
 255 1 105 122 123 9000 1 1 1 1 1 1 1 1 0 FFFFTFTFFFFFFF1 81 1 119 224 124 18 0
 117 125 116 126 81 1 120 251 105 101 127 0 117 0 128 82 255 1 121 169214067 14
 101 131 120 ?0 88 99 5 110 +0 0 0 88 23 81 1 127 228 124 101 0 120 129 0 130 82
 1 128 158204019 80 1 124 0 131 8001 0 0 0 0 3 5 0 0 0 FFFFTFTFFFFFFF2 81 1 129
 227 124 88 0 113 132 127 133 83 255 3 130 .792156862745098 .819607843137255 .93
3333333333333 81 1 113 247 105 88 129 0 107 114 134 81 1 132 226 124 74 0 114 11
6 129 135 83 3 133 .792156862745098 .819607843137255 .933333333333333 81 1 114 2
48 105 74 132 0 113 115 136 81 1 116 225 124 71 0 115 119 132 137 83 3 135 .7921
56862745098 .819607843137255 .933333333333333 83 3 137 .792156862745098 .8196078
43137255 .933333333333333 82 1 136 168689779 81 1 107 246 105 91 125 0 103 113 1
38 82 1 134 168427635 81 1 125 223 124 91 0 107 106 119 139 82 1 138 171638899 8
1 1 106 222 124 16 0 103 0 125 140 83 3 139 .792156862745098 .819607843137255 .9
33333333333333 83 3 140 .792156862745098 .819607843137255 .933333333333333 79 25
5 15 131 SDL/TYSA_COLOUR83 3 126 .792156862745098 .819607843137255 .933333333333
333 79 14 123 SWEntUnchanged82 1 118 168951923 82 1 108 172163187 15 102 135 0 1
41 101 0 17 141 0 102 141 141 0 97 95 0 0 -17 97 0 92 97 97 0 141 95 0 0 +15 92
 114 0 97 91 0 17 24 0 60 43 58 39 69 10 0 82 +19 17 100 0 1 0 9 5 S0 74 4 CI16
 index_map_offset0 0 1 dCCZ20 15 9 0 0 142 143 120 144 145 146 13 127 2 0 0 0 0
 0 0 0 0 0 0 0 81 2 142 111 147 1 0 143 0 0 0 148 81 2 143 168 149 1 142 144 0 0
 0 150 81 1 144 176 151 1 143 145 0 0 152 81 2 145 186 153 1 144 146 0 0 154 0 8
1 2 146 216 155 1 145 13 0 0 0 156 81 2 13 219 157 1 146 2 0 0 0 0 80 2 157 158
 159 9000 0 0 0 0 3 5 0 0 0 FFTFFFFFFFFFFF9 1 79 16 159 BODY_RECIPE_200180 2 155
 160 161 9000 0 0 0 0 3 5 0 0 0 FFTFFFFFFFFFFF9 1 82 1 156 1 79 24 161 BODY_IN_L
IGHTWEIGHT_PERM80 2 153 162 163 8004 0 0 0 0 3 5 0 0 0 FFTFFFFFFFFFFF2 3 83 1 15
4 1 79 16 163 SDL/TYSA_DENSITY80 1 151 164 165 9000 1 1 1 1 1 1 1 1 0 FFTFFFFFFF
FFFF1 82 1 152 68004 79 10 165 BODY_MATCH80 2 149 166 167 9000 0 0 0 0 3 5 0 0 0
 FFTFFFFFFFFFFF9 1 82 1 150 45 79 30 167 LAST_BODY_MODIFYING_FEATURE_ID80 2 147
 168 169 9000 0 0 0 0 3 5 0 0 0 FFTFFFFFFFFFFT9 1 82 1 148 103 79 19 169 ENT_TIM
E_STAMP_200180 2 12 170 171 9000 0 0 0 0 3 5 0 0 0 FFTFFFFFFFFFFF9 1 82 1 14 101
 79 12 171 ATOM_ID_20011 0 
