**ABCDEFGHIJKLMNOPQRSTUVWXYZabcdefghijklmnopqrstuvwxyz**************************
**PARASOLID !"#$%&'()*+,-./:;<=>?@[\]^_`{|}~0123456789**************************
**PART1;
MC=AMD64;
MC_MODEL=Intel64 Family 6 Model 142 Stepping 12, GenuineIntel;
MC_ID=unknown;
OS=Windows_NT;
OS_RELEASE=unknown;
FRU=Parasolid Version 33.1, build 247,  8- 6-2021;
APPL=SOLIDWORKS 2022-2022009;
SITE=;
USER=unknown;
FORMAT=text;
GUISE=transmit;
KEY=FILEHingeB.x_t;
DATE=Thu Jun 15 06:19:11 2023;
**PART2;
SCH=SCH_3301247_33103;
USFLD_SIZE=0;
**PART3;
**END_OF_HEADER*****************************************************************
T51 : TRANSMIT FILE created by modeller version 330124723 SCH_3301247_33103_1300
6230 0 12 35 CCCI7 lattice222 0 CCCI4 mesh1006 0 I8 polyline1008 0 CCCCCCCDI5 ow
ner1040 0 CCCCCCI13 boundary_mesh1006 0 I17 boundary_polyline1008 0 CCCA16 index
_map_offset0 0 1 dA9 index_map82 0 A17 node_id_index_map82 0 A20 schema_embeddin
g_map82 0 A5 child12 0 A14 lowest_node_id0 0 1 dA16 mesh_offset_data206 0 Z1 304
 2 3 0 0 0 0 0 0 0 1e3 1e-8 0 4 0 1 0 1 1 5 6 7 0 0 0 8 9 0 0 0 0 0 0 0 0 81 255
 2 2 296 10 1 11 0 0 0 0 12 70 11 CI9 list_type0 0 1 uI10 notransmit0 0 1 lCCCDC
CDI12 finger_index0 0 1 dI12 finger_block1012 0 CZ3 0 4 T1 0 0 9 20 1 13 13 13 2
55 5 31 0 1 0 14 0 0 15 0 51 255 6 30 0 14 16 0 17 -0 0 .009525 0 0 -1 .009525 -
1 0 0 38 12 CCCCCCCCCCCA17 intersection_data204 0 Z7 148 0 9 18 0 0 +6 19 20 21
 21 22 19 8 CCCCCCCA5 owner12 0 Z8 9 0 1 15 0 23 V0 16 255 9 146 0 ?24 0 25 7 0
 0 1 17 255 24 0 26 24 24 0 27 9 0 0 +16 25 130 0 ?28 9 29 18 0 0 1 17 28 0 30 2
8 28 0 31 25 0 0 +16 29 54 0 ?32 25 33 34 0 0 1 38 18 132 0 25 34 7 0 +6 19 35 3
6 36 37 31 255 34 57 0 29 38 18 0 -0 0 -.009525 0 0 1 1 0 0 .003175 51 19 213 0
 39 0 40 41 +-.009525 0 0 1 0 0 .0047625 0 0 -1 40 255 21 35 0 1 21 .00032619548
0250408 .3834108663117405 ??.009525 0 -.0047625 .00941021347376131 -.00147428198
7355584 -.00452856476952233 .00911041463170519 -.002779562958166625 -.0038672258
8060072 .00870616509408082 -.00386371768567641 -.002784437446844755 .00834784438
41334 -.00458684195697787 -.001281517503472924 .00825466453558289 -.004752487601
77132 .0003086548962998905 .00841801057722849 -.004456761483596505 .001678893483
3189 .00874661373611062 -.00377125617683034 .0029084416959463 .00915880192103794
 -.00261571641643196 .00397987862614029 .00946401689183234 -.00107610839189746 .
00463933152284765 .00951286856677804 .000480579474391476 .00473819054268543 .009
34048713364863 .00186572374861456 .004381835362477195 .00900845571665845 .003094
083160001305 .0036205048886856 .00859459113449721 .00410592598944768 .0024130433
10671835 .00829146854382485 .00468798190981611 .000839185237737723 .008278609133
56908 .00471065343806851 -.000700821258534127 .00849279855099634 .00431253959659
439 -.00202074453551296 .00885552353324404 .003507895088534015 -.003221192061619
26 .00926156604252523 .002224639170729385 -.004210984066706555 .0095032997173039
2 .000642588113095241 -.00471894975253061 .009525 605165978897652e-33 -.0047625
 41 3 CI8 term_use0 0 1 cCZ1 36 H?.009525 605165978897652e-33 -.0047625 204 2 17
 INTERSECTION_DATA17 Intersection data7 uv_type0 0 1 u6 values0 1 1 fT84 37 4 3.
141592653589795 .0142875 0 .01905 3.296997683804535 .01405356476952234 5.9684544
8965909 .0189352134737613 3.43771928989152 .01339222588060072 5.65998693947566 .
0186354146317052 3.55927118841871 .01230943744684474 5.3368483812317 .0182311650
940808 3.64402443819586 .01080651750347292 4.98483188632763 .0178728443841334 3.
663978066844495 .00921634510370011 4.64753409794437 .0177796645355829 3.62850744
086572 .0078461065166811 4.35212255648488 .0179430105772285 3.54867566724382 .00
66165583040537 4.05544922024009 .0182716137361106 3.419782872248265 .00554512137
385971 3.72303734332364 .01868380192103795 3.254811641270615 .00488566847715235
 3.36951543784639 .01898901689183235 3.09111668434975 .00478680945731457 3.04051
1534604035 .01903786856677805 2.94444145940009 .00514316463752281 2.739056523352
255 .01886548713364865 2.810752085283745 .0059044951113144 2.434434157656015 .01
853345571665845 2.695916211796055 .00711195668932816 2.102120914210205 .01811959
11344972 2.627004272409025 .00868581476226228 1.74792801875412 .0178164685438248
5 2.62426783211628 .01022582125853412 1.423105927016 .0178036091335691 2.6717342
2233811 .01154574453551296 1.132603956000064 .01801779855099635 2.76443116992799
 .01274619206161926 .827978936048856 .01838052353324405 2.90585745037787 .013735
98406670656 .486026051990238 .01878656604252525 3.074078055241645 .0142439497525
306 .1353394229694882 .0190282997173039 3.141592653589795 .0142875 1270689719470
134e-31 .01905 14 255 39 178 42 ?0 43 44 5 19 -0 0 0 43 23 50 255 40 99 0 43 19
 45 0 +0 0 .0127 0 0 1 1 0 0 141 255 41 18 46 46 19 141 46 7 41 41 19 14 43 89 4
7 ?39 48 49 5 40 +0 0 39 48 23 50 45 98 0 50 40 51 0 +0 0 -.0127 0 0 1 1 0 0 14
 50 92 52 ?53 54 55 5 45 -0 0 53 54 23 51 51 97 0 48 45 56 0 -0 0 .0127 0 0 -1 .
003175 -1 0 0 14 48 84 57 ?43 53 58 5 51 -53 53 43 53 23 50 56 3 0 59 51 16 0 +0
 0 .009525 0 0 1 1 0 0 14 59 1 60 ?54 14 61 5 56 +0 0 54 14 23 50 16 24 0 54 56
 6 0 +0 0 -.009525 0 0 1 1 0 0 14 54 18 62 ?50 59 63 5 16 -0 0 50 59 23 81 1 62
 302 64 54 65 0 60 66 67 15 255 63 56 0 68 54 69 13 23 10 0 0 0 0 0 0 8 14 14 14
 27 66 ?59 0 26 5 6 -0 0 59 0 23 81 1 66 303 64 14 70 0 62 71 72 15 26 140 0 24
 14 30 15 30 124 0 28 14 73 15 73 26 0 74 14 75 17 74 0 73 74 74 0 76 33 0 0 -15
 75 28 0 77 14 0 17 77 0 75 77 77 0 78 79 0 0 +17 78 0 69 78 78 0 77 79 0 0 -16
 79 20 0 ?77 33 80 38 0 0 1 16 33 5 0 ?76 29 79 81 0 0 1 16 80 66 0 ?82 79 83 84
 0 0 1 31 38 25 0 79 81 34 0 +0 0 -.009525 0 0 1 1 0 0 .009525 31 81 7 0 33 84 3
8 0 +0 0 .009525 0 0 1 1 0 0 .009525 31 84 100 0 80 85 81 0 -0 0 .009525 0 0 1 1
 0 0 .003175 31 85 101 0 86 87 84 0 +0 0 -.0127 0 0 1 1 0 0 .003175 16 86 67 0 ?
88 83 0 85 0 0 1 31 87 102 0 83 0 85 0 +0 0 .0127 0 0 1 1 0 0 .003175 16 83 71 0
 ?89 80 86 87 0 0 1 17 89 0 49 89 89 0 90 83 0 0 +15 49 91 0 89 43 0 17 90 0 91
 90 90 0 89 83 0 0 -15 91 88 0 90 48 0 17 88 0 92 88 88 0 93 86 0 0 +15 92 82 0
 88 53 94 17 93 0 55 93 93 0 88 86 0 0 -15 55 94 0 93 50 0 14 53 79 71 ?48 50 92
 5 51 -48 48 48 50 23 15 94 83 0 32 53 0 17 32 0 94 32 32 0 68 29 0 0 +17 68 0 6
3 68 68 0 32 29 0 0 -81 1 71 304 64 53 95 0 66 0 96 80 255 1 64 97 98 9000 1 1 1
 1 1 1 1 1 0 FFFFTFTFFFFFFF1 81 1 95 275 99 53 0 71 100 101 102 82 255 1 96 2045
575286 80 1 99 0 103 8001 0 0 0 0 3 5 0 0 0 FFFFTFTFFFFFFF2 81 1 100 274 99 50 0
 52 65 95 104 81 1 101 276 99 48 0 57 95 105 106 83 255 3 102 .792156862745098 .
819607843137255 .933333333333333 81 1 57 300 64 48 101 0 52 60 107 81 1 105 277
 99 43 0 47 101 108 109 83 3 106 .792156862745098 .819607843137255 .933333333333
333 81 1 47 298 64 43 105 0 42 52 110 81 1 108 278 99 39 0 42 105 0 111 83 3 109
 .792156862745098 .819607843137255 .933333333333333 81 1 42 297 64 39 108 0 0 47
 112 83 3 111 .792156862745098 .819607843137255 .933333333333333 82 1 112 -12780
17415 81 1 52 299 64 50 100 0 47 57 113 82 1 110 2040725622 82 1 113 2042429558
 81 1 60 301 64 59 114 0 57 62 115 82 1 107 2042691702 81 1 114 272 99 59 0 60 7
0 65 116 82 1 115 1028653174 81 1 70 271 99 14 0 66 0 114 117 81 1 65 273 99 54
 0 62 114 100 118 83 3 116 .792156862745098 .819607843137255 .933333333333333 83
 3 118 .792156862745098 .819607843137255 .933333333333333 83 3 117 .792156862745
098 .819607843137255 .933333333333333 83 3 104 .792156862745098 .819607843137255
 .933333333333333 79 255 15 103 SDL/TYSA_COLOUR79 14 98 SWEntUnchanged17 82 0 61
 82 82 0 119 80 0 0 +15 61 61 0 82 59 120 17 119 0 58 119 119 0 82 80 0 0 -15 58
 87 0 119 48 91 15 120 4 0 76 59 0 17 76 0 120 76 76 0 74 33 0 0 +15 69 19 0 78
 54 0 82 1 72 1030619257 82 1 67 1030357110 15 44 181 0 31 39 121 17 31 0 44 31
 31 0 28 25 0 0 -15 121 182 0 27 39 0 17 27 0 121 27 27 0 24 9 0 0 -19 15 32 0 1
 0 8 5 S0 40 21 20 0 1 21 .000326195480250408 .3834108663117405 ??-.009525 0 -.0
047625 -.00941021347376131 .001474281987355582 -.00452856476952234 -.00911041463
170519 .00277956295816662 -.00386722588060072 -.00870616509408083 .0038637176856
76405 -.00278443744684476 -.0083478443841334 .00458684195697786 -.00128151750347
2928 -.00825466453558289 .00475248760177132 .000308654896299888 -.00841801057722
849 .004456761483596505 .0016788934833189 -.00874661373611062 .00377125617683034
 .0029084416959463 -.00915880192103794 .00261571641643196 .00397987862614029 -.0
0946401689183234 .00107610839189746 .00463933152284765 -.00951286856677804 -.000
480579474391475 .00473819054268543 -.00934048713364863 -.001865723748614555 .004
381835362477195 -.00900845571665845 -.003094083160001305 .003620504888685605 -.0
0859459113449721 -.00410592598944768 .00241304331067184 -.00829146854382485 -.00
468798190981611 .000839185237737728 -.00827860913356908 -.00471065343806851 -.00
0700821258534124 -.00849279855099634 -.004312539596594395 -.00202074453551296 -.
00885552353324404 -.003507895088534015 -.00322119206161926 -.00926156604252523 -
.002224639170729385 -.004210984066706555 -.00950329971730392 -.00064258811309524
2 -.00471894975253061 -.009525 868630409364609e-34 -.0047625 41 1 21 H?-.009525
 868630409364609e-34 -.0047625 204 84 22 4 0 .0142875 0 0 .1554050302147435 .014
05356476952234 .314730817520497 .0001147865262386902 .2961266363017275 .01339222
588060072 .623198367703925 .00041458536829481 .417678534828916 .0123094374468447
6 .94633692594789 .000818834905919176 .502431784606065 .01080651750347292 1.2983
53420851958 .001177155615866602 .522385413254702 .00921634510370011 1.6356512092
35215 .00127033546441711 .486914787275926 .0078461065166811 1.931062750694705 .0
01106989422771514 .407083013654027 .0066165583040537 2.2277360869395 .0007783862
63889378 .278190218658473 .00554512137385971 2.560147963855945 .0003661980789620
555 .113218987680824 .00488566847715235 2.913669869333195 609831081676594e-19 6.
23270933793954 .00478680945731457 3.24267377257555 121314332219638e-19 6.0860341
1298989 .00514316463752281 3.544128783827335 .0001845128663513685 5.952344738873
54 .0059044951113144 3.84875114952357 .000516544283341547 5.83750886538585 .0071
1195668932816 4.18106439296938 .000930408865502786 5.76859692599882 .00868581476
226227 4.53525728842547 .001233531456175154 5.76586048570607 .01022582125853412
 4.86007938016359 .001246390866430922 5.8133268759279 .01154574453551296 5.15058
135117952 .001032201449003664 5.90602382351778 .01274619206161926 5.455206371130
73 .000669476466755964 6.04745010396766 .01373598406670656 5.79715925518935 .000
26343395747477 6.21567070883144 .0142439497525306 6.1478458842101 21700282696083
05e-20 911947936340796e-32 .0142875 1823895872681595e-32 0 141 17 18 122 122 6 1
41 122 7 17 17 6 74 4 CI16 index_map_offset0 0 1 dCCZ20 13 9 0 0 71 123 124 125
 126 127 11 108 2 0 0 0 0 0 0 0 0 0 0 0 81 2 123 108 128 1 0 124 0 0 0 129 81 2
 124 114 130 1 123 125 0 0 0 131 81 1 125 230 132 1 124 126 0 0 133 81 2 126 240
 134 1 125 127 0 0 135 0 81 2 127 265 136 1 126 11 0 0 0 137 81 2 11 268 138 1 1
27 2 0 0 0 0 80 2 138 139 140 9000 0 0 0 0 3 5 0 0 0 FFTFFFFFFFFFFF9 1 79 16 140
 BODY_RECIPE_200180 2 136 141 142 9000 0 0 0 0 3 5 0 0 0 FFTFFFFFFFFFFF9 1 82 1
 137 1 79 24 142 BODY_IN_LIGHTWEIGHT_PERM80 2 134 143 144 8004 0 0 0 0 3 5 0 0 0
 FFTFFFFFFFFFFF2 3 83 1 135 1 79 16 144 SDL/TYSA_DENSITY80 1 132 145 146 9000 1
 1 1 1 1 1 1 1 0 FFTFFFFFFFFFFF1 82 1 133 146766 79 10 146 BODY_MATCH80 2 130 14
7 148 9000 0 0 0 0 3 5 0 0 0 FFTFFFFFFFFFFF9 1 82 1 131 53 79 30 148 LAST_BODY_M
ODIFYING_FEATURE_ID80 2 128 149 150 9000 0 0 0 0 3 5 0 0 0 FFTFFFFFFFFFFT9 1 82
 1 129 107 79 19 150 ENT_TIME_STAMP_200180 2 10 151 152 9000 0 0 0 0 3 5 0 0 0 F
FTFFFFFFFFFFF9 1 82 1 12 103 79 12 152 ATOM_ID_20011 0 
