**ABCDEFGHIJKLMNOPQRSTUVWXYZabcdefghijklmnopqrstuvwxyz**************************
**PARASOLID !"#$%&'()*+,-./:;<=>?@[\]^_`{|}~0123456789**************************
**PART1;
MC=AMD64;
MC_MODEL=Intel64 Family 6 Model 142 Stepping 12, GenuineIntel;
MC_ID=unknown;
OS=Windows_NT;
OS_RELEASE=unknown;
FRU=Parasolid Version 33.1, build 247,  8- 6-2021;
APPL=SOLIDWORKS 2022-2022009;
SITE=;
USER=unknown;
FORMAT=text;
GUISE=transmit;
KEY=FILEPinc.x_t;
DATE=Thu Jun 15 06:19:29 2023;
**PART2;
SCH=SCH_3301247_33103;
USFLD_SIZE=0;
**PART3;
**END_OF_HEADER*****************************************************************
T51 : TRANSMIT FILE created by modeller version 330124723 SCH_3301247_33103_1300
6230 0 12 35 CCCI7 lattice222 0 CCCI4 mesh1006 0 I8 polyline1008 0 CCCCCCCDI5 ow
ner1040 0 CCCCCCI13 boundary_mesh1006 0 I17 boundary_polyline1008 0 CCCA16 index
_map_offset0 0 1 dA9 index_map82 0 A17 node_id_index_map82 0 A20 schema_embeddin
g_map82 0 A5 child12 0 A14 lowest_node_id0 0 1 dA16 mesh_offset_data206 0 Z1 186
 2 3 0 0 0 0 0 0 0 1e3 1e-8 0 4 0 1 0 1 1 5 6 7 0 0 0 8 9 0 0 0 0 0 0 0 0 81 255
 2 2 179 10 1 11 0 0 0 0 12 70 11 CI9 list_type0 0 1 uI10 notransmit0 0 1 lCCCDC
CDI12 finger_index0 0 1 dI12 finger_block1012 0 CZ3 0 4 T1 0 0 9 20 1 13 13 13 2
55 5 31 0 1 0 14 0 0 15 0 51 255 6 30 0 14 16 0 0 -0 0 .0047625 0 0 -1 .0039624
 -1 0 0 31 255 7 57 0 9 17 0 0 -0 0 -.0047625 0 0 1 1 0 0 .003175 19 8 CCCCCCCA5
 owner12 0 Z8 9 0 1 15 0 18 V0 16 255 9 54 0 ?19 0 20 7 0 0 1 17 255 19 0 21 19
 19 0 22 9 0 0 +16 20 5 0 ?23 9 24 25 0 0 1 17 23 0 26 23 23 0 27 20 0 0 +16 24
 20 0 ?28 20 29 17 0 0 1 31 25 7 0 20 30 17 0 +0 0 .0047625 0 0 1 1 0 0 .0039624
 31 30 100 0 29 31 25 0 -0 0 .0047625 0 0 1 1 0 0 .003175 31 17 25 0 24 25 7 0 +
0 0 -.0047625 0 0 1 1 0 0 .0039624 16 29 66 0 ?32 24 33 30 0 0 1 31 31 101 0 34
 35 30 0 +0 0 -.0142875 0 0 1 1 0 0 .003175 16 34 67 0 ?36 33 0 31 0 0 1 31 35 1
02 0 33 0 31 0 +0 0 .0142875 0 0 1 1 0 0 .003175 16 33 71 0 ?37 29 34 35 0 0 1 1
7 37 0 38 37 37 0 39 33 0 0 +15 255 38 91 0 37 40 0 17 39 0 41 39 39 0 37 33 0 0
 -15 41 88 0 39 42 0 14 255 42 84 43 ?40 44 45 5 46 -44 44 40 44 18 81 1 43 180
 47 42 48 0 0 49 50 14 40 89 49 ?0 42 38 5 51 +0 0 0 42 18 14 44 79 52 ?42 53 54
 5 46 -42 42 42 53 18 15 45 87 0 55 42 41 51 46 97 0 42 56 57 0 -0 0 .0142875 0
 0 -1 .003175 -1 0 0 13 18 10 0 0 0 0 0 0 8 14 14 14 27 58 ?59 0 60 5 6 -0 0 59
 0 18 81 1 58 183 47 14 61 0 52 62 63 14 59 1 62 ?64 14 65 5 57 +0 0 64 14 18 15
 60 26 0 27 14 66 17 27 0 60 27 27 0 23 20 0 0 -15 66 28 0 28 14 0 17 28 0 66 28
 28 0 67 24 0 0 +17 67 0 68 67 67 0 28 24 0 0 -15 68 19 0 67 64 0 14 64 18 69 ?5
3 59 70 5 16 -0 0 53 59 18 81 1 69 185 47 64 71 0 62 72 73 14 53 92 72 ?44 64 74
 5 56 -0 0 44 64 18 15 70 56 0 22 64 68 50 255 16 24 0 64 57 6 0 +0 0 -.0047625
 0 0 1 1 0 0 50 57 3 0 59 46 16 0 +0 0 .0047625 0 0 1 1 0 0 17 22 0 70 22 22 0 1
9 9 0 0 -81 1 72 186 47 53 75 0 69 0 76 15 74 94 0 77 53 0 50 56 98 0 53 51 46 0
 +0 0 -.0142875 0 0 1 1 0 0 50 51 99 0 40 0 56 0 +0 0 .0142875 0 0 1 1 0 0 17 77
 0 74 77 77 0 36 34 0 0 -17 36 0 54 36 36 0 77 34 0 0 +15 54 82 0 36 44 21 15 21
 83 0 19 44 0 80 255 1 47 78 79 9000 1 1 1 1 1 1 1 1 0 FFFFTFTFFFFFFF1 81 1 75 1
60 80 53 0 72 71 81 82 82 255 1 76 863830134 80 1 80 0 83 8001 0 0 0 0 3 5 0 0 0
 FFFFTFTFFFFFFF2 81 1 71 159 80 64 0 69 84 75 85 81 1 81 161 80 44 0 52 75 48 86
 83 255 3 82 .792156862745098 .819607843137255 .933333333333333 81 1 52 182 47 4
4 81 0 49 58 87 81 1 48 162 80 42 0 43 81 88 89 83 3 86 .792156862745098 .819607
843137255 .933333333333333 81 1 88 163 80 40 0 49 48 0 90 83 3 89 .7921568627450
98 .819607843137255 .933333333333333 81 1 49 181 47 40 88 0 43 52 91 83 3 90 .79
2156862745098 .819607843137255 .933333333333333 82 1 91 862126198 82 1 87 866975
862 81 1 84 158 80 59 0 62 61 71 92 83 3 85 .792156862745098 .819607843137255 .9
33333333333333 81 1 62 184 47 59 84 0 58 69 93 81 1 61 157 80 14 0 58 0 84 94 83
 3 92 .792156862745098 .819607843137255 .933333333333333 83 3 94 .79215686274509
8 .819607843137255 .933333333333333 82 1 93 -93912970 79 255 15 83 SDL/TYSA_COLO
UR79 14 79 SWEntUnchanged82 1 73 -92209034 15 65 61 0 32 59 26 17 32 0 65 32 32
 0 55 29 0 0 +15 26 4 0 23 59 0 17 55 0 45 55 55 0 32 29 0 0 -82 1 63 -91946893
 82 1 50 864092278 19 15 32 0 1 0 8 5 S0 74 4 CI16 index_map_offset0 0 1 dCCZ20
 13 9 0 0 72 95 96 97 98 99 11 88 2 0 0 0 0 0 0 0 0 0 0 0 81 2 95 108 100 1 0 96
 0 0 0 101 81 2 96 114 102 1 95 97 0 0 0 103 81 1 97 121 104 1 96 98 0 0 105 81
 2 98 130 106 1 97 99 0 0 107 0 81 2 99 151 108 1 98 11 0 0 0 109 81 2 11 154 11
0 1 99 2 0 0 0 0 80 2 110 111 112 9000 0 0 0 0 3 5 0 0 0 FFTFFFFFFFFFFF9 1 79 16
 112 BODY_RECIPE_200180 2 108 113 114 9000 0 0 0 0 3 5 0 0 0 FFTFFFFFFFFFFF9 1 8
2 1 109 1 79 24 114 BODY_IN_LIGHTWEIGHT_PERM80 2 106 115 116 8004 0 0 0 0 3 5 0
 0 0 FFTFFFFFFFFFFF2 3 83 1 107 1 79 16 116 SDL/TYSA_DENSITY80 1 104 117 118 900
0 1 1 1 1 1 1 1 1 0 FFTFFFFFFFFFFF1 82 1 105 129637 79 10 118 BODY_MATCH80 2 102
 119 120 9000 0 0 0 0 3 5 0 0 0 FFTFFFFFFFFFFF9 1 82 1 103 44 79 30 120 LAST_BOD
Y_MODIFYING_FEATURE_ID80 2 100 121 122 9000 0 0 0 0 3 5 0 0 0 FFTFFFFFFFFFFT9 1
 82 1 101 105 79 19 122 ENT_TIME_STAMP_200180 2 10 123 124 9000 0 0 0 0 3 5 0 0
 0 FFTFFFFFFFFFFF9 1 82 1 12 102 79 12 124 ATOM_ID_20011 0 
