**ABCDEFGHIJKLMNOPQRSTUVWXYZabcdefghijklmnopqrstuvwxyz**************************
**PARASOLID !"#$%&'()*+,-./:;<=>?@[\]^_`{|}~0123456789**************************
**PART1;
MC=AMD64;
MC_MODEL=Intel64 Family 6 Model 142 Stepping 12, GenuineIntel;
MC_ID=unknown;
OS=Windows_NT;
OS_RELEASE=unknown;
FRU=Parasolid Version 33.1, build 247,  8- 6-2021;
APPL=SOLIDWORKS 2022-2022009;
SITE=;
USER=unknown;
FORMAT=text;
GUISE=transmit;
KEY=FILEPart 3.x_t;
DATE=Thu Jun 15 06:01:00 2023;
**PART2;
SCH=SCH_3301247_33103;
USFLD_SIZE=0;
**PART3;
**END_OF_HEADER*****************************************************************
T51 : TRANSMIT FILE created by modeller version 330124723 SCH_3301247_33103_1300
6230 0 12 35 CCCI7 lattice222 0 CCCI4 mesh1006 0 I8 polyline1008 0 CCCCCCCDI5 ow
ner1040 0 CCCCCCI13 boundary_mesh1006 0 I17 boundary_polyline1008 0 CCCA16 index
_map_offset0 0 1 dA9 index_map82 0 A17 node_id_index_map82 0 A20 schema_embeddin
g_map82 0 A5 child12 0 A14 lowest_node_id0 0 1 dA16 mesh_offset_data206 0 Z1 963
 2 3 0 0 0 0 0 0 0 1e3 1e-8 0 4 0 1 0 1 1 5 6 7 8 0 0 9 10 11 0 0 0 0 0 0 0 81 2
55 2 2 943 12 1 13 0 0 0 0 14 70 11 CI9 list_type0 0 1 uI10 notransmit0 0 1 lCCC
DCCDI12 finger_index0 0 1 dI12 finger_block1012 0 CZ3 0 4 T1 0 0 10 20 1 15 15 1
3 255 5 141 0 1 0 16 0 0 17 0 50 255 6 447 18 19 20 0 0 --.005 .025 .027 -.70710
6781186549 -.707106781186547 0 0 0 -1 30 255 7 529 0 10 21 0 0 +-.034 0 .027 231
2964634635745e-31 0 1 29 255 8 473 0 11 22 0 0 .02 -.015 19 8 CCCCCCCA5 owner12
 0 Z9 47 0 1 17 0 23 V0 16 255 10 527 0 ?24 0 25 7 0 0 1 18 255 11 471 0 26 0 27
 8 ?1 17 255 26 0 28 29 30 11 31 32 0 33 -18 27 386 0 34 11 35 22 ?1 17 34 0 36
 37 38 27 39 40 0 41 +18 35 378 0 42 27 43 44 ?1 29 22 388 0 27 44 8 -.005 .025
 .027 29 44 380 0 35 45 22 -.005 0 .027 29 45 367 0 43 46 44 -.005 0 -.027 18 43
 365 0 47 35 48 45 ?1 29 46 364 0 48 49 45 -.005 .025 -.027 18 48 362 0 50 43 51
 46 ?1 29 49 351 0 51 52 46 0 .02 .027 18 51 349 0 53 48 54 49 ?1 29 52 348 0 54
 55 49 0 .005 .027 18 54 346 0 56 51 57 52 ?1 29 55 345 0 57 58 52 0 .02 -.027 1
8 57 343 0 59 54 60 55 ?1 29 58 342 0 60 61 55 0 .005 -.027 18 60 340 0 62 57 63
 58 ?1 29 61 293 0 63 64 58 -.14 .025 .027 18 63 291 0 37 60 65 61 ?1 29 64 285
 0 65 66 61 -.14 .025 -.027 18 65 283 0 67 63 68 64 ?1 29 66 277 0 68 69 64 -.15
 .015 .027 18 68 275 0 70 65 71 66 ?1 29 69 274 0 71 72 66 -.15 .015 -.027 18 71
 272 0 73 68 74 69 ?1 29 72 106 0 75 76 69 -.10627718676731 0 -.027 18 75 93 0 7
7 78 79 72 ?1 29 76 107 0 79 80 72 -.1226902229002756 -.00857142857142858 -.027
 18 79 94 0 81 75 82 76 ?1 29 80 108 0 82 83 76 -.15 -1373085294266364e-33 -.027
 18 82 95 0 84 79 85 80 ?1 29 83 43 0 74 86 80 -.10627718676731 0 .027 18 74 41
 0 87 71 88 83 ?1 29 86 40 0 88 89 83 -.1226902229002756 -.00857142857142858 .02
7 18 88 38 0 90 74 78 86 ?1 29 89 37 0 78 91 86 -.15 -1373085294266364e-33 .027
 18 78 35 0 92 88 75 89 ?1 29 91 698 0 85 93 89 -.005 0 .015 18 85 606 0 94 82 9
5 91 ?1 29 93 699 0 95 96 91 0 .005 .015 18 95 607 0 97 85 98 93 ?1 29 96 700 0
 98 99 93 0 .02 .015 18 98 608 0 100 95 101 96 ?1 29 99 701 0 101 102 96 -.034 0
 .015 18 101 604 0 103 98 104 99 ?1 29 102 702 0 104 105 99 -.005 0 -.015 18 104
 617 0 106 101 107 102 ?1 29 105 703 0 107 108 102 0 .005 -.015 18 107 618 0 30
 104 109 105 ?1 29 108 705 0 109 110 105 -.034 0 -.015 18 109 615 0 111 107 112
 108 ?1 29 110 706 0 112 113 108 -.005 .025 .015 18 112 609 0 114 109 115 110 ?1
 29 113 707 0 115 116 110 -.005 .025 -.015 18 115 620 0 29 112 117 113 ?1 29 116
 709 0 117 118 113 -.034 .025 .015 18 117 605 0 119 115 120 116 ?1 29 118 710 0
 120 0 116 -.034 .025 -.015 18 120 610 0 121 117 0 118 ?1 17 121 0 122 123 111 1
20 124 125 0 126 +15 255 122 625 0 121 127 0 17 123 0 122 128 121 117 129 130 0
 131 +17 111 0 122 121 128 109 24 10 0 124 -17 124 0 28 106 126 109 121 125 0 13
2 -16 125 563 0 ?121 133 134 135 0 0 1 17 126 0 28 124 29 120 136 137 0 129 +15
 28 643 0 30 138 0 17 29 0 28 126 26 115 33 139 0 136 +17 136 0 140 50 129 115 1
26 137 0 141 -16 137 598 0 ?126 130 0 142 0 0 1 17 129 0 140 136 131 120 123 130
 0 0 -15 140 125 0 143 144 0 17 131 0 140 129 143 117 114 134 0 0 -16 130 601 0
 ?123 134 137 145 0 0 1 16 134 594 0 ?114 125 130 146 0 0 1 30 145 691 0 130 142
 146 0 +-.034 .025 -.015 2312964634635745e-31 0 1 30 142 692 0 137 0 145 0 +.016
11054503540075 .025 -.015 -1 -1384717308304114e-31 1384717308304114e-31 30 146 6
90 0 134 145 147 0 +.01611054503540075 .025 .015 1 1384717308304114e-31 -1384717
308304114e-31 30 147 688 0 133 146 135 0 +-.034 -.015 .015 -1156482317317872e-31
 1 0 16 133 557 0 ?119 32 125 147 0 0 1 30 135 687 0 125 147 148 0 +-.034 -.015
 -.015 -1156482317317872e-31 1 0 30 148 684 0 32 135 149 0 +0 -672588454245837e-
48 -.015 0 -1 160140108153771e-46 16 32 564 0 ?31 150 133 148 0 0 1 30 149 683 0
 150 148 151 0 --290790634743865e-32 .005 -.015 -.707106781186549 -.707106781186
547 979142998728225e-31 16 150 588 0 ?30 152 32 149 0 0 1 30 151 682 0 152 149 1
53 0 +-581581269487728e-32 0 -.015 -1 0 1384717308304114e-31 16 152 562 0 ?132 1
54 150 151 0 0 1 31 255 153 681 0 154 151 155 0 +-.012 .0125 -.015 -138471730830
4114e-31 -160140108153771e-46 -1 -1 0 1384717308304114e-31 .003 16 154 561 0 ?15
6 157 152 153 0 0 1 30 155 680 0 157 153 158 0 +0 -192168129784525e-48 .015 0 1
 -160140108153771e-46 16 157 560 0 ?159 160 154 155 0 0 1 30 158 679 0 160 155 1
61 0 --830830384982471e-33 .005 .015 .707106781186549 .707106781186547 -97914299
8728225e-31 16 160 583 0 ?94 162 157 158 0 0 1 30 161 678 0 162 158 163 0 +-1661
66076996494e-32 0 .015 1 0 -1384717308304114e-31 16 162 559 0 ?164 165 160 161 0
 0 1 31 163 677 0 165 161 166 0 +-.012 .0125 .015 1384717308304114e-31 160140108
153771e-46 1 1 0 -1384717308304114e-31 .003 16 165 558 0 ?167 168 162 163 0 0 1
 31 166 232 0 169 163 170 0 +-.0575 .0125 .027 0 0 1 1 0 0 .004 16 169 212 0 ?17
1 172 168 166 0 0 1 31 170 231 0 168 166 173 0 +-.0575 .0125 -.027 0 0 1 1 0 0 .
004 16 168 209 0 ?174 169 165 170 0 0 1 31 173 194 0 175 170 176 0 +-.012 .0125
 .027 0 0 1 1 0 0 .003 16 175 174 0 ?177 178 172 173 0 0 1 31 176 193 0 172 173
 179 0 +-.012 .0125 -.027 0 0 1 1 0 0 .003 16 172 171 0 ?180 175 169 176 0 0 1 3
0 179 7 0 181 176 182 0 +0 0 .027 0 1 0 16 181 347 0 ?38 183 184 179 0 0 1 30 18
2 11 0 183 179 185 0 +0 .025 .027 -1 -1156482317317872e-31 0 16 183 387 0 ?37 18
6 181 182 0 0 1 30 185 15 0 186 182 187 0 +-.15 0 .027 0 -1 0 16 186 276 0 ?92 1
88 183 185 0 0 1 31 187 19 0 188 185 189 0 +-.135 -1653273178848925e-32 .027 0 0
 1 1 0 0 .015 16 188 17 0 ?90 190 186 187 0 0 1 31 189 23 0 190 187 191 0 +-.106
27718676731 -.02 .027 0 0 -1 -1 0 0 .02 16 190 21 0 ?87 192 188 189 0 0 1 30 191
 27 0 192 189 193 0 +0 0 .027 1 0 0 16 192 25 0 ?194 195 190 191 0 0 1 30 193 10
4 0 178 191 196 0 +0 0 -.027 0 1 0 16 178 341 0 ?197 198 175 193 0 0 1 30 196 10
3 0 198 193 199 0 +0 .025 -.027 -1 -1156482317317872e-31 0 16 198 363 0 ?67 200
 178 196 0 0 1 30 199 102 0 200 196 201 0 +-.15 0 -.027 0 -1 0 16 200 273 0 ?84
 202 198 199 0 0 1 31 201 101 0 202 199 203 0 +-.135 -1653273178848925e-32 -.027
 0 0 1 1 0 0 .015 16 202 76 0 ?81 204 200 201 0 0 1 31 203 100 0 204 201 205 0 +
-.10627718676731 -.02 -.027 0 0 -1 -1 0 0 .02 16 204 72 0 ?77 184 202 203 0 0 1
 30 205 99 0 184 203 206 0 +0 0 -.027 1 0 0 16 184 68 0 ?207 181 204 205 0 0 1 3
0 206 136 0 195 205 208 0 +-.10627718676731 0 .027 0 0 -1 16 195 112 0 ?209 210
 192 206 0 0 1 30 208 137 0 210 206 211 0 +-.1226902229002756 -.0085714285714285
8 .027 0 0 -1 16 210 113 0 ?212 213 195 208 0 0 1 30 211 138 0 213 208 214 0 +-.
15 -1373085294266364e-33 .027 0 0 -1 16 213 114 0 ?215 216 210 211 0 0 1 30 214
 280 0 216 211 217 0 +-.15 .015 .027 0 0 -1 16 216 278 0 ?218 219 213 214 0 0 1
 30 217 288 0 219 214 220 0 --.15 .015 -.027 -.707106781186548 -.707106781186547
 0 16 219 286 0 ?221 222 216 217 0 0 1 30 220 296 0 222 217 223 0 +-.14 .025 .02
7 0 0 1 16 222 294 0 ?224 225 219 220 0 0 1 30 223 301 0 225 220 226 0 --.15 .01
5 .027 .707106781186548 .707106781186547 0 16 225 299 0 ?70 227 222 223 0 0 1 30
 226 354 0 228 223 229 0 +0 .02 .027 0 0 1 16 228 352 0 ?230 231 227 226 227 227
 1 30 229 359 0 232 226 233 0 +0 .005 .027 0 0 -1 16 232 357 0 ?234 235 231 229
 231 231 1 30 233 370 0 235 229 236 0 --.005 .025 -.027 -.707106781186547 .70710
6781186549 0 16 235 368 0 ?59 237 232 233 0 0 1 30 236 375 0 237 233 238 0 -0 .0
05 -.027 .707106781186549 .707106781186547 0 16 237 373 0 ?47 239 235 236 0 0 1
 30 238 383 0 240 236 241 0 +-.005 0 .027 0 0 1 16 240 381 0 ?242 40 239 238 239
 239 1 30 241 391 0 40 238 243 0 --.0575 .0775 .027 .707106781186547 -.707106781
186549 0 16 40 389 0 ?34 244 240 241 0 0 1 30 243 396 0 244 241 245 0 --.07 -.06
5 .027 -.707106781186549 -.707106781186547 0 16 244 394 0 ?56 246 40 243 0 0 1 3
0 245 401 0 247 243 248 0 +-.005 .025 .027 0 0 -1 16 247 399 0 ?143 139 246 245
 246 246 1 30 248 485 0 139 245 21 0 --.005 .025 -.015 .707106781186547 -.707106
781186549 -979142998728222e-31 16 139 483 0 ?29 25 247 248 0 0 1 30 21 490 0 25
 248 7 0 --.005 .025 .015 -.707106781186547 .707106781186549 979142998728222e-31
 16 25 488 0 ?100 10 139 21 0 0 1 17 100 0 249 97 114 98 250 25 0 159 +15 249 63
4 0 119 251 0 17 97 0 249 94 100 95 159 157 0 252 -17 114 0 249 100 119 112 131
 134 0 250 +17 250 0 253 254 255 112 100 25 0 143 -17 159 0 256 53 234 98 97 157
 0 255 +15 256 548 0 234 16 0 17 53 0 256 257 159 51 255 227 0 38 +17 234 0 256
 159 257 95 258 232 0 0 +17 255 0 253 250 39 98 53 227 0 0 -15 253 489 0 250 259
 0 17 39 0 253 255 254 51 34 40 0 0 -16 227 475 0 ?53 228 225 226 228 228 1 17 2
54 0 253 39 250 27 143 247 0 0 -17 143 0 140 131 41 112 254 247 0 0 +17 41 0 140
 143 224 27 37 183 0 254 -17 224 0 140 41 67 63 260 222 0 261 +17 37 0 36 70 34
 63 41 183 0 224 +15 36 4 0 194 262 263 17 70 0 36 92 37 68 261 225 0 264 +17 92
 0 36 90 70 78 264 186 0 265 +17 261 0 266 260 267 63 70 225 0 0 -17 264 0 268 2
18 265 68 92 186 0 267 -15 268 123 0 264 269 0 17 218 0 268 84 264 71 267 216 0
 270 +17 265 0 268 264 84 78 215 213 0 271 -17 267 0 266 261 73 68 218 216 0 0 -
15 266 311 0 261 272 0 17 73 0 266 267 260 71 221 219 0 218 -17 260 0 266 73 261
 65 224 222 0 0 -17 221 0 273 274 270 65 73 219 0 260 +15 273 67 0 275 276 277 1
7 274 0 273 59 221 48 67 198 0 0 -17 270 0 273 221 278 71 84 200 0 0 -17 278 0 2
73 270 279 82 81 202 0 0 -17 84 0 268 265 218 82 270 200 0 215 +17 215 0 280 81
 271 82 265 213 0 278 +15 280 121 0 81 281 0 17 81 0 280 282 215 79 278 202 0 21
2 +17 271 0 280 215 282 78 90 188 0 0 -17 282 0 280 271 81 88 212 210 0 283 -17
 90 0 36 87 92 88 271 188 0 282 +17 87 0 36 194 90 74 283 190 0 284 +17 194 0 36
 56 87 35 285 192 0 286 +17 283 0 287 212 284 88 87 190 0 0 -17 284 0 287 283 77
 74 209 195 0 285 -15 287 119 0 77 288 0 17 77 0 287 284 212 75 279 204 0 209 +1
7 209 0 289 207 285 75 284 195 0 290 +17 285 0 289 209 42 74 194 192 0 0 -15 289
 117 0 24 291 0 17 42 0 289 285 164 35 292 239 0 194 +17 164 0 289 42 24 85 103
 162 0 292 +17 292 0 293 252 286 85 42 239 0 0 -16 239 497 0 ?42 240 237 238 240
 240 1 15 293 510 0 252 294 0 17 252 0 293 258 292 95 94 160 0 234 -17 286 0 293
 292 258 35 56 244 0 0 -17 258 0 293 286 252 54 234 232 0 0 -17 56 0 36 38 194 5
4 286 244 0 257 +17 38 0 36 34 56 51 257 181 0 39 +17 257 0 256 234 53 54 38 181
 0 258 -17 94 0 249 103 97 85 252 160 0 164 +17 103 0 249 119 94 101 164 162 0 1
28 -17 119 0 249 114 103 117 128 133 0 123 +17 128 0 122 111 123 101 119 133 0 2
4 -17 24 0 289 164 132 101 111 10 0 0 +17 132 0 289 24 242 109 106 152 0 0 +17 2
42 0 289 132 207 104 295 240 0 0 +17 106 0 28 30 124 104 132 152 0 296 -17 30 0
 28 26 106 107 296 150 0 31 +17 296 0 297 295 298 104 30 150 0 242 -15 297 506 0
 296 299 0 17 295 0 297 300 296 43 242 240 0 0 -17 298 0 297 296 300 107 62 231
 0 0 -17 300 0 297 298 295 60 47 237 0 275 -17 62 0 301 197 31 60 298 231 0 300
 +16 231 503 0 ?62 232 228 229 232 232 1 15 301 127 0 230 302 0 17 197 0 301 230
 62 57 275 178 0 303 +17 31 0 301 62 230 107 26 32 0 298 +17 230 0 301 31 197 11
 303 228 0 0 +17 303 0 304 305 33 57 230 228 0 0 -15 304 484 0 33 19 0 17 305 0
 304 141 303 48 59 235 0 274 -17 33 0 304 303 141 11 29 139 0 230 -17 141 0 304
 33 305 115 50 246 0 0 -17 50 0 140 67 136 48 141 246 0 305 +16 246 481 0 ?50 24
7 244 245 247 247 1 17 67 0 140 224 50 65 274 198 0 221 +17 59 0 273 275 274 57
 305 235 0 197 +17 275 0 273 47 59 60 197 178 0 0 -17 47 0 273 290 275 43 300 23
7 0 207 +17 290 0 273 279 47 75 207 184 0 0 -17 207 0 289 242 209 43 290 184 0 2
95 +17 279 0 273 278 290 79 77 204 0 0 -14 255 19 435 306 ?127 299 304 5 6 +259
 259 127 299 23 81 1 306 944 307 19 308 0 0 309 310 14 127 622 309 ?251 19 122 5
 311 -0 0 251 19 23 14 299 413 312 ?19 272 297 5 20 +294 294 19 272 23 14 259 48
6 313 ?262 294 253 5 6 +19 19 262 294 23 13 23 48 0 0 0 0 0 0 9 16 14 16 549 314
 ?315 0 256 5 316 -302 302 315 0 23 81 1 314 948 307 16 317 0 313 318 319 14 315
 516 318 ?294 16 320 5 321 +322 322 294 16 23 50 316 134 0 302 323 324 0 +0 0 .0
27 -1 0 0 0 0 1 14 302 128 325 ?144 276 301 5 316 -16 16 144 276 23 81 1 325 950
 307 302 326 0 318 327 328 14 144 126 327 ?269 302 140 5 323 -0 0 269 302 23 14
 276 200 329 ?302 262 273 5 330 -0 0 302 262 23 81 1 329 952 307 276 331 0 327 3
32 333 14 262 206 332 ?276 259 334 5 335 +0 0 276 259 23 50 330 98 0 276 335 336
 0 +-.135 -1653273178848925e-32 -.027 0 0 1 1 0 0 50 335 3 0 262 321 330 0 +-.13
5 -1653273178848925e-32 .027 0 0 1 1 0 0 50 336 129 0 291 330 337 0 +0 0 .027 0
 1 0 0 0 1 14 291 118 338 ?322 288 289 5 336 -0 0 322 288 23 51 255 337 130 0 28
8 336 339 0 +-.10627718676731 -.02 .027 0 0 -1 .02 -1 0 0 14 288 120 340 ?291 28
1 287 5 337 -0 0 291 281 23 51 339 131 0 281 337 341 0 --.135 -1653273178848925e
-32 .027 0 0 -1 .015 -1 0 0 14 281 122 342 ?288 269 280 5 339 -0 0 288 269 23 50
 341 132 0 269 339 323 0 +-.15 0 .027 1 0 0 0 0 -1 14 269 124 343 ?281 144 268 5
 341 -0 0 281 144 23 50 323 133 0 144 341 316 0 +0 .025 .027 1156482317317872e-3
1 -1 0 1 1156482317317872e-31 0 81 1 343 957 307 269 344 0 342 345 346 80 255 1
 307 347 348 9000 1 1 1 1 1 1 1 1 0 FFFFTFTFFFFFFF1 81 1 344 890 349 269 0 343 3
50 351 352 81 1 342 956 307 281 351 0 340 343 353 81 1 345 958 307 322 354 0 343
 355 356 82 255 1 346 -1115946903 14 322 177 345 ?357 291 358 5 321 +315 315 357
 291 23 81 1 354 894 349 322 0 345 359 360 361 81 1 355 959 307 357 360 0 345 36
2 363 82 1 356 -1110048658 14 357 215 355 ?272 322 364 5 365 +0 0 272 322 23 81
 1 360 895 349 357 0 355 354 366 367 81 1 362 960 307 272 366 0 355 368 369 82 1
 363 -1105985433 14 272 310 362 ?299 357 266 5 324 +0 0 299 357 23 81 1 366 896
 349 272 0 362 360 370 371 81 1 368 961 307 251 372 0 362 373 374 82 1 369 -7149
32119 14 251 630 368 ?138 127 375 5 376 -0 0 138 127 23 81 1 372 900 349 251 0 3
68 377 378 379 81 1 373 962 307 138 378 0 368 380 381 82 1 374 -1278082962 14 13
8 639 373 ?0 251 382 5 383 -0 0 0 251 23 81 1 378 901 349 138 0 373 372 0 384 81
 1 380 963 307 294 385 0 373 0 386 82 1 381 -1280638866 14 294 507 380 ?259 315
 293 5 20 +299 299 259 315 23 81 1 385 884 349 294 0 380 387 388 389 82 1 386 -1
275723666 80 1 349 0 390 8001 0 0 0 0 3 5 0 0 0 FFFFTFTFFFFFFF2 81 1 387 883 349
 315 0 318 317 385 391 81 1 388 885 349 259 0 313 385 392 393 83 255 3 389 0 1 1
 81 1 313 947 307 259 388 0 312 314 394 81 1 392 886 349 262 0 332 388 331 395 8
3 3 393 0 1 1 81 1 332 953 307 262 392 0 329 338 396 81 1 331 887 349 276 0 329
 392 326 397 83 3 395 0 1 1 81 1 326 888 349 302 0 325 331 350 398 83 3 397 0 1
 1 81 1 350 889 349 144 0 327 326 344 399 83 3 398 0 1 1 81 1 327 951 307 144 35
0 0 325 329 400 83 3 399 0 1 1 82 1 400 -1115684754 81 1 338 954 307 291 359 0 3
32 340 401 82 1 396 -1102446485 81 1 359 893 349 291 0 338 402 354 403 81 1 340
 955 307 288 402 0 338 342 404 82 1 401 -1116733330 81 1 402 892 349 288 0 340 3
51 359 405 82 1 404 -1116471193 81 1 351 891 349 281 0 342 344 402 406 83 3 405
 0 1 1 83 3 406 0 1 1 83 3 403 0 1 1 81 1 312 946 307 299 370 0 309 313 407 82 1
 394 -1284374418 81 1 370 897 349 299 0 312 366 308 408 81 1 309 945 307 127 377
 0 306 312 409 82 1 407 -259719058 81 1 377 899 349 127 0 309 308 372 410 82 1 4
09 -1272905618 81 1 308 898 349 19 0 306 370 377 411 83 3 410 0 1 1 83 3 411 0 1
 1 83 3 408 0 1 1 81 1 318 949 307 315 387 0 314 325 412 81 1 317 882 349 16 0 3
14 0 387 413 83 3 391 0 1 1 83 3 413 0 1 1 82 1 412 -1274871698 79 255 15 390 SD
L/TYSA_COLOUR50 20 425 414 299 324 6 0 -0 .005 .027 -.707106781186547 .707106781
186549 0 0 0 -1 81 2 414 426 415 20 0 0 416 18 417 418 50 324 322 416 272 316 20
 0 --.15 .015 .027 .707106781186547 -.707106781186548 0 0 0 -1 81 2 416 323 415
 324 0 0 0 414 419 420 80 2 415 421 422 8044 0 0 0 0 3 5 0 0 0 FFFFTFFFTTFFFF3 2
 84 255 6 419 BAAAAB83 3 420 0 .014142135623731 .01 79 17 422 SDL/TYSA_BLEND_ID8
1 2 18 448 415 6 0 0 414 0 423 424 84 6 417 BAAAAB83 3 418 0 .00707106781186551
 .005 84 6 423 BAAAAB83 3 424 0 .00707106781186551 .005 83 3 384 0 1 1 15 382 64
2 0 156 138 28 50 383 672 0 138 311 365 0 +.01611054503540075 -.015 -.015 -13847
17308304114e-31 -160140108153771e-46 -1 -1 0 1384717308304114e-31 50 311 673 0 1
27 376 383 0 +-.034 -.015 -.015 -1 -1156482317317872e-31 2312964634635745e-31 23
12964634635745e-31 0 1 51 365 228 0 357 383 321 0 --.0575 .0125 .027 0 0 -1 .004
 -1 0 0 51 321 190 0 322 365 335 0 --.012 .0125 .027 0 0 -1 .003 -1 0 0 50 376 6
74 0 251 0 311 0 +.0161105450354008 -.015 .015 1384717308304114e-31 160140108153
771e-46 1 1 0 -1384717308304114e-31 17 156 0 382 156 156 0 425 154 0 0 +17 425 0
 358 425 425 0 156 154 0 0 -15 358 515 0 425 322 426 15 426 181 0 427 322 0 17 4
27 0 426 427 427 0 180 172 0 0 -17 180 0 277 180 180 0 427 172 0 0 +15 277 160 0
 180 276 428 15 428 198 0 174 276 0 17 174 0 428 174 174 0 429 168 0 0 +17 429 0
 430 429 429 0 174 168 0 0 -15 430 219 0 429 357 0 83 3 379 0 1 1 15 375 633 0 1
67 251 249 17 167 0 375 167 167 0 431 165 0 0 +17 431 0 320 431 431 0 167 165 0
 0 -15 320 520 0 431 315 432 15 432 180 0 177 315 0 17 177 0 432 177 177 0 433 1
75 0 0 +17 433 0 334 433 433 0 177 175 0 0 -15 334 165 0 433 262 36 83 3 371 0 1
 1 83 3 367 0 1 1 15 364 218 0 171 357 430 17 171 0 364 171 171 0 434 169 0 0 +1
7 434 0 263 434 434 0 171 169 0 0 -15 263 203 0 434 262 0 83 3 361 0 1 1 82 1 35
3 -1116209049 83 3 352 0 1 1 79 14 348 SWEntUnchanged82 1 333 -1102970773 82 1 3
28 -1115422610 82 1 319 -1271201682 82 1 310 -257621906 17 212 0 287 77 283 79 2
82 210 0 279 +19 17 142 0 1 0 9 5 S0 74 4 CI16 index_map_offset0 0 1 dCCZ20 15 1
0 0 0 435 436 380 18 437 438 439 13 378 2 0 0 0 0 0 0 0 0 0 0 81 2 435 157 440 1
 0 436 0 0 0 441 81 2 436 258 442 1 435 437 0 0 0 443 81 1 437 742 444 1 436 438
 0 0 445 81 2 438 764 446 1 437 439 0 0 447 0 81 2 439 856 448 1 438 13 0 0 0 44
9 81 2 13 879 450 1 439 2 0 0 0 0 80 2 450 451 452 9000 0 0 0 0 3 5 0 0 0 FFTFFF
FFFFFFFF9 1 79 16 452 BODY_RECIPE_200180 2 448 453 454 9000 0 0 0 0 3 5 0 0 0 FF
TFFFFFFFFFFF9 1 82 1 449 1 79 24 454 BODY_IN_LIGHTWEIGHT_PERM80 2 446 455 456 80
04 0 0 0 0 3 5 0 0 0 FFTFFFFFFFFFFF2 3 83 1 447 1 79 16 456 SDL/TYSA_DENSITY80 1
 444 457 458 9000 1 1 1 1 1 1 1 1 0 FFTFFFFFFFFFFF1 82 1 445 834784 79 10 458 BO
DY_MATCH80 2 442 459 460 9000 0 0 0 0 3 5 0 0 0 FFTFFFFFFFFFFF9 1 82 1 443 71 79
 30 460 LAST_BODY_MODIFYING_FEATURE_ID80 2 440 461 462 9000 0 0 0 0 3 5 0 0 0 FF
TFFFFFFFFFFT9 1 82 1 441 109 79 19 462 ENT_TIME_STAMP_200180 2 12 463 464 9000 0
 0 0 0 3 5 0 0 0 FFTFFFFFFFFFFF9 1 82 1 14 102 79 12 464 ATOM_ID_20011 0 
