**ABCDEFGHIJKLMNOPQRSTUVWXYZabcdefghijklmnopqrstuvwxyz**************************
**PARASOLID !"#$%&'()*+,-./:;<=>?@[\]^_`{|}~0123456789**************************
**PART1;
MC=AMD64;
MC_MODEL=Intel64 Family 6 Model 142 Stepping 12, GenuineIntel;
MC_ID=unknown;
OS=Windows_NT;
OS_RELEASE=unknown;
FRU=Parasolid Version 33.1, build 247,  8- 6-2021;
APPL=SOLIDWORKS 2022-2022009;
SITE=;
USER=unknown;
FORMAT=text;
GUISE=transmit;
KEY=FILEPart 4.x_t;
DATE=Thu Jun 15 06:01:04 2023;
**PART2;
SCH=SCH_3301247_33103;
USFLD_SIZE=0;
**PART3;
**END_OF_HEADER*****************************************************************
T51 : TRANSMIT FILE created by modeller version 330124723 SCH_3301247_33103_1300
6230 0 12 35 CCCI7 lattice222 0 CCCI4 mesh1006 0 I8 polyline1008 0 CCCCCCCDI5 ow
ner1040 0 CCCCCCI13 boundary_mesh1006 0 I17 boundary_polyline1008 0 CCCA16 index
_map_offset0 0 1 dA9 index_map82 0 A17 node_id_index_map82 0 A20 schema_embeddin
g_map82 0 A5 child12 0 A14 lowest_node_id0 0 1 dA16 mesh_offset_data206 0 Z1 136
7 2 3 0 0 0 0 0 0 0 1e3 1e-8 0 4 0 1 0 1 1 5 6 7 8 0 0 9 10 11 0 0 0 0 0 0 0 81
 255 2 2 1295 12 1 13 0 0 0 0 14 70 11 CI9 list_type0 0 1 uI10 notransmit0 0 1 l
CCCDCCDI12 finger_index0 0 1 dI12 finger_block1012 0 CZ3 0 4 T1 0 0 12 20 1 15 1
5 13 255 5 209 0 1 0 16 0 0 17 0 51 255 6 420 18 19 20 0 0 +.027 .045 0 -1 0 0 .
0125 0 987330466373388e-47 1 31 255 7 613 0 21 22 0 0 --.017 .003 0 -12849803525
75412e-31 1 957872133064428e-48 -1 -1284980352575412e-31 0 .003 29 255 8 373 0 1
1 23 0 .027 .045 .0125 19 8 CCCCCCCA5 owner12 0 Z9 75 0 1 17 0 24 V0 16 255 10 3
97 25 ?26 0 27 28 0 0 1 18 255 11 371 0 29 0 30 8 ?1 17 255 29 0 31 32 33 11 34
 27 0 35 -18 30 368 0 26 11 36 23 ?1 17 26 0 37 38 39 30 40 10 0 32 +18 36 358 0
 40 30 41 42 ?1 29 23 370 0 30 42 8 .035 .045 .0125 29 42 360 0 36 43 23 .035 .0
45 -.0125 29 43 357 0 41 44 42 .027 .045 -.0125 18 41 355 0 34 36 45 43 ?1 29 44
 295 0 45 46 43 -.027 .045 -.0125 18 45 293 0 47 41 48 44 ?1 29 46 292 0 48 49 4
4 -.035 .045 -.0125 18 48 290 0 50 45 51 46 ?1 29 49 282 0 51 52 46 -.035 .045 .
0125 18 51 280 0 53 48 54 49 ?1 29 52 279 0 54 55 49 -.027 .045 .0125 18 54 277
 0 56 51 57 52 ?1 29 55 161 0 58 59 52 -.035 -4163336342344335e-31 -.0125 18 58
 144 0 60 61 62 55 ?1 29 59 164 0 62 63 55 -.027 .00799999999999961 -.0125 18 62
 147 0 64 58 65 59 ?1 29 63 165 0 65 66 59 .0269999999999996 .008 -.0125 18 65 1
48 0 67 62 68 63 ?1 29 66 168 0 68 69 63 .035 0 -.0125 18 68 151 0 70 65 0 66 ?1
 29 69 72 0 57 71 66 -.035 -4024558464266195e-31 .0125 18 57 70 0 72 54 73 69 ?1
 29 71 63 0 73 74 69 -.027 .00799999999999961 .0125 18 73 61 0 75 57 76 71 ?1 29
 74 60 0 76 77 71 .027 .008 .0124999999999998 18 76 58 0 78 73 61 74 ?1 29 77 51
 0 61 0 74 .035 1387778780781446e-32 .0125 18 61 49 0 79 76 58 77 ?1 17 79 0 80
 81 82 61 70 83 0 38 -15 255 80 191 0 82 84 85 17 81 0 80 60 79 57 86 87 0 88 +1
7 82 0 80 79 60 68 89 90 0 0 -17 70 0 37 39 38 68 79 83 0 91 +16 83 176 92 ?70 9
3 94 95 0 0 1 17 38 0 37 70 26 61 96 97 0 86 -15 37 189 0 39 98 0 17 96 0 99 35
 86 30 38 97 0 0 +16 97 12 100 ?96 101 87 102 0 0 1 17 86 0 99 96 88 61 81 87 0
 0 -15 99 4 0 96 103 0 17 88 0 99 86 104 57 105 106 0 0 -16 87 5 107 ?81 97 108
 109 0 0 1 81 3 107 1299 110 87 0 0 100 111 112 0 0 16 108 100 111 ?113 87 114 1
15 0 0 1 30 255 109 7 0 87 116 102 0 +0 0 .0125 -1 -3071273017798055e-31 0 31 11
6 492 0 117 118 109 0 +.027 .045 0 1 2803593496528175e-31 714905195356542e-45 -2
803593496528175e-31 1 709808811460298e-45 .004 30 102 14 0 97 109 119 0 +.035 0
 .0125 -1206764157201258e-31 1 0 30 119 24 0 101 102 120 0 +.027 0 .0125 2803593
496528175e-31 -1 -709808811460298e-45 16 101 372 121 ?78 122 97 119 0 0 1 30 120
 29 0 122 119 123 0 +0 .008 .0125 1 1284980352575412e-31 0 16 122 27 124 ?125 12
6 101 120 0 0 1 30 123 35 0 126 120 127 0 +-.027 -4163336342344335e-31 .0125 433
680868994202e-30 -1 -703933378962325e-45 16 126 278 128 ?75 106 122 123 0 0 1 30
 127 46 0 106 123 129 0 +-.035 -388578058618805e-30 .0125 1206764157201258e-31 1
 709999901395853e-45 16 106 44 130 ?105 131 126 127 0 0 1 30 129 160 0 90 127 13
2 0 +0 0 -.0125 -1 -3071273017798055e-31 0 16 90 137 133 ?89 134 117 129 0 0 1 3
0 132 159 0 134 129 135 0 +.035 0 -.0125 -1206764157201258e-31 1 0 16 134 132 13
6 ?39 137 90 132 0 0 1 30 135 157 0 137 132 138 0 +.027 0 -.0125 280359349652817
5e-31 -1 -709808811460298e-45 16 137 356 139 ?67 140 134 135 0 0 1 30 138 156 0
 140 135 141 0 +0 .008 -.0125 1 1284980352575412e-31 0 16 140 116 142 ?143 114 1
37 138 0 0 1 30 141 155 0 114 138 115 0 +-.027 -4163336342344335e-31 -.0125 4336
80868994202e-30 -1 -703933378962325e-45 16 114 294 144 ?64 108 140 141 0 0 1 30
 115 153 0 108 141 145 0 +-.035 -388578058618805e-30 -.0125 1206764157201258e-31
 1 709999901395853e-45 30 145 201 0 131 115 146 0 +-.035 -4024558464266195e-31 .
0125 0 -987330466373388e-47 -1 16 131 169 147 ?60 148 106 145 0 0 1 30 146 204 0
 148 145 149 0 +-.027 .00799999999999961 .0125 0 -987330466373388e-47 -1 16 148
 172 150 ?151 94 131 146 0 0 1 30 149 205 0 94 146 95 0 +.027 .008 .012499999999
9998 0 -987330466373388e-47 -1 16 94 173 152 ?153 83 148 149 0 0 1 30 95 208 0 8
3 149 154 0 +.035 1387778780781446e-32 .0125 0 -987330466373388e-47 -1 30 154 28
5 0 93 95 155 0 -0 .045 .0125 1 0 0 16 93 283 156 ?104 157 83 154 0 0 1 30 155 2
98 0 157 154 158 0 --.027 .045 -.0125 -1 0 0 16 157 296 159 ?160 161 93 155 0 0
 1 31 158 308 0 161 155 162 0 +-.027 .045 0 1 433680868994202e-30 71490519535654
2e-45 -433680868994202e-30 1 703933378962325e-45 .0125 16 161 306 163 ?56 164 15
7 158 0 0 1 31 162 323 0 164 158 165 0 +-.035 .045 0 -1 1206764157201256e-31 -71
4905195356542e-45 -1206764157201258e-31 -1 -709999901395853e-45 .0125 16 164 321
 166 ?50 167 161 162 0 0 1 30 165 363 0 167 162 168 0 -0 .045 -.0125 -1 0 0 16 1
67 361 169 ?170 171 164 165 0 0 1 30 168 376 0 171 165 172 0 -.027 .045 .0125 1
 0 0 16 171 374 173 ?35 27 167 168 0 0 1 31 172 386 0 27 168 28 0 -.027 .045 0 1
 2803593496528175e-31 714905195356542e-45 -2803593496528175e-31 1 70980881146029
8e-45 .0125 16 27 384 174 ?34 10 171 172 0 0 1 31 28 399 0 10 172 22 0 -.035 .04
5 0 -1 -1206764157201258e-31 0 1206764157201258e-31 -1 0 .0125 31 22 607 0 175 2
8 7 0 +.017 .003 -2012279232133095e-31 1284980352575412e-31 -1 -957872133064428e
-48 1 1284980352575412e-31 0 .003 16 175 629 176 ?177 21 178 22 0 0 1 81 3 176 1
320 110 175 0 0 174 179 180 0 0 17 177 0 181 177 177 0 182 175 0 0 +16 21 664 17
9 ?183 184 175 7 0 0 1 16 178 633 185 ?186 175 187 188 0 0 1 81 3 185 1322 110 1
78 0 0 179 189 190 0 0 17 186 0 191 186 186 0 192 178 0 0 +16 187 630 189 ?193 1
78 194 195 0 0 1 31 188 699 0 178 0 195 0 +.017 .003 -2012279232133095e-31 12849
80352575412e-31 -1 -957872133064428e-48 1 1284980352575412e-31 0 .005 31 195 698
 0 187 188 196 0 +.017 .008 -2012279232133095e-31 1284980352575412e-31 -1 -95787
2133064428e-48 1 1284980352575412e-31 0 .005 31 196 697 0 194 195 197 0 +-.017 .
008 0 -1284980352575412e-31 1 957872133064428e-48 -1 -1284980352575412e-31 0 .00
5 16 194 657 198 ?199 187 200 196 0 0 1 31 197 696 0 200 196 201 0 +-.017 .003 0
 -1284980352575412e-31 1 957872133064428e-48 -1 -1284980352575412e-31 0 .005 16
 200 661 202 ?203 194 0 197 0 0 1 31 201 589 0 204 197 205 0 +.017 -138777878078
1446e-32 -2012279232133095e-31 1284980352575412e-31 -1 -957872133064428e-48 1 12
84980352575412e-31 0 .003 16 204 544 206 ?207 208 184 201 0 0 1 31 205 586 0 184
 201 209 0 +-.017 -1387778780781446e-32 0 -1284980352575412e-31 1 95787213306442
8e-48 -1 -1284980352575412e-31 0 .003 16 184 559 210 ?211 204 21 205 0 0 1 31 20
9 495 0 212 205 213 0 +.035 .045 0 -1 1206764157201256e-31 -714905195356542e-45
 -1206764157201258e-31 -1 -709999901395853e-45 .004 16 212 458 214 ?215 216 208
 209 0 0 1 31 213 494 0 208 209 118 0 +-.035 .045 0 -1 1206764157201256e-31 -714
905195356542e-45 -1206764157201258e-31 -1 -709999901395853e-45 .004 16 208 463 2
17 ?218 212 204 213 0 0 1 31 118 493 0 216 213 116 0 +-.027 .045 0 1 43368086899
4202e-30 714905195356542e-45 -433680868994202e-30 1 703933378962325e-45 .004 16
 216 462 219 ?220 117 212 118 0 0 1 81 3 219 1330 110 216 0 0 217 221 222 0 0 17
 220 0 223 220 220 0 224 216 0 0 +16 117 461 221 ?225 90 216 116 0 0 1 81 3 221
 1331 110 117 0 0 219 0 226 0 0 17 225 0 227 225 225 0 228 117 0 0 +15 227 447 0
 225 229 230 17 228 0 231 228 228 0 225 117 0 0 -15 231 470 0 228 232 0 14 255 2
32 466 233 ?234 235 236 5 237 -235 235 234 235 24 81 1 233 1333 238 232 239 0 0
 240 241 14 234 547 240 ?242 232 243 5 244 +0 0 242 232 24 14 235 476 245 ?232 2
46 223 5 237 -232 232 232 246 24 15 236 469 0 247 232 231 51 237 489 0 235 248 2
49 0 +.035 .045 0 -1 1206764157201256e-31 -714905195356542e-45 .004 -12067641572
01258e-31 -1 -709999901395853e-45 13 24 76 0 0 0 0 0 0 9 16 14 16 626 250 ?251 0
 252 5 253 +0 0 251 0 24 81 1 250 1339 238 16 254 0 245 255 256 14 251 614 255 ?
84 16 257 5 248 -0 0 84 16 24 15 252 183 0 258 16 259 50 255 253 196 0 16 260 26
1 0 +0 .008 .0125 -1284980352575412e-31 1 957872133064428e-48 -1 -12849803525754
12e-31 0 50 260 195 0 262 263 253 0 +-.027 -4163336342344335e-31 .0125 1 4336808
68994202e-30 714905195356542e-45 -433680868994202e-30 1 703933378962325e-45 50 2
61 197 0 229 253 264 0 +.027 0 .0125 1 2803593496528175e-31 714905195356542e-45
 -2803593496528175e-31 1 709808811460298e-45 14 229 186 265 ?262 98 227 5 261 -0
 0 262 98 24 50 264 199 0 98 261 266 0 +.035 0 .0125 -1 -1206764157201258e-31 0
 1206764157201258e-31 -1 0 14 98 190 267 ?229 268 269 5 264 -0 0 229 268 24 50 2
66 200 0 84 264 20 0 +0 0 .0125 3071273017798055e-31 -1 1818255207039165e-48 1 3
071273017798055e-31 0 14 84 538 270 ?19 251 80 5 266 +0 0 19 251 24 51 20 345 27
1 268 266 6 0 +-.027 .045 0 1 0 0 .0125 0 -987330466373388e-47 -1 81 2 271 989 2
72 20 0 0 18 0 273 274 14 268 342 275 ?98 19 276 5 20 +0 0 98 19 24 81 1 275 134
9 238 268 277 0 270 278 279 14 19 417 278 ?268 84 31 5 6 +0 0 268 84 24 15 276 2
84 0 280 268 0 17 280 0 276 47 53 54 104 93 0 281 -17 47 0 276 282 280 45 56 161
 0 160 -17 53 0 276 280 282 51 50 164 0 104 -17 104 0 99 88 281 51 280 93 0 105
 +17 281 0 99 104 283 54 75 126 0 0 -17 283 0 99 281 78 73 125 122 0 0 -17 75 0
 284 151 56 73 281 126 0 285 +15 284 181 0 286 262 0 17 151 0 284 286 75 62 285
 148 0 258 +17 56 0 284 75 286 54 47 161 0 280 +17 285 0 252 125 258 73 151 148
 0 283 -17 125 0 252 153 285 76 283 122 0 0 +17 258 0 252 285 153 62 143 140 0 0
 -17 153 0 252 258 125 65 287 94 0 143 +17 143 0 288 289 64 65 258 140 0 0 +15 2
88 99 0 289 246 0 17 289 0 288 170 143 41 67 137 0 0 -17 64 0 288 143 160 62 286
 114 0 151 +17 160 0 288 64 113 45 282 157 0 286 +17 286 0 284 56 151 45 64 114
 0 0 -17 113 0 288 160 89 48 290 108 0 0 +17 282 0 276 53 47 48 160 157 0 113 -1
7 89 0 288 113 91 58 82 90 0 290 +17 290 0 291 72 50 58 113 108 0 0 -15 291 177
 0 105 292 0 17 72 0 291 105 290 57 60 131 0 81 -17 50 0 291 290 105 48 53 164 0
 282 +17 105 0 291 50 72 51 88 106 0 0 +17 60 0 80 82 81 58 72 131 0 89 +14 292
 178 293 ?103 262 294 5 263 +0 0 103 262 24 81 1 293 1353 238 292 295 0 278 296
 297 14 103 1 296 ?246 292 99 5 249 +0 0 246 292 24 14 262 182 298 ?292 229 299
 5 260 +0 0 292 229 24 15 294 436 0 300 292 291 50 263 193 0 292 301 260 0 +-.03
5 -388578058618805e-30 .0125 -1 1206764157201256e-31 -714905195356542e-45 -12067
64157201258e-31 -1 -709999901395853e-45 50 301 152 0 246 249 263 0 +0 0 -.0125 0
 987330466373388e-47 1 1 0 0 14 246 98 302 ?235 103 288 5 301 -0 0 235 103 24 50
 249 3 0 103 237 301 0 +0 0 .0125 0 987330466373388e-47 1 1 0 0 81 1 302 1359 23
8 246 303 0 298 304 305 80 255 1 238 306 307 9000 1 1 1 1 1 1 1 1 0 FFFFTFTFFFFF
FF1 81 3 303 1358 308 246 309 302 310 311 312 0 0 81 1 298 1357 238 262 310 0 29
6 302 313 81 1 304 1361 238 242 311 0 302 314 315 82 255 1 305 -1776549781 14 24
2 643 304 ?316 234 191 5 317 +0 0 316 234 24 81 3 311 1360 308 242 318 304 303 3
19 320 0 0 81 1 314 1363 238 316 319 0 304 321 322 82 1 315 -889913228 14 316 64
8 314 ?323 242 181 5 324 -0 0 323 242 24 81 3 319 1362 308 316 325 314 311 326 3
27 0 0 81 1 321 1365 238 323 326 0 314 328 329 82 1 322 -891879308 14 323 665 32
1 ?330 316 331 5 332 +0 0 330 316 24 81 3 326 1364 308 323 333 321 319 334 335 0
 0 81 1 328 1367 238 330 334 0 321 0 336 82 1 329 -879951756 14 330 673 328 ?0 3
23 337 5 338 -0 0 0 323 24 81 3 334 1366 308 330 339 328 326 0 340 0 0 82 1 336
 -885784460 80 3 308 341 342 9000 0 0 0 0 3 5 0 0 0 FFFFTFFFFFFFFF1 1 1 81 1 339
 1198 343 330 0 334 333 0 344 82 6 340 18 1699541544 31037663 0 150541786 690131
81 80 1 343 0 345 8001 0 0 0 0 3 5 0 0 0 FFFFTFTFFFFFFF2 81 1 333 1197 343 323 0
 326 325 339 346 83 255 3 344 .0431372549019608 .984313725490196 1 81 1 325 1196
 343 316 0 319 318 333 347 83 3 346 .0431372549019608 .984313725490196 1 81 1 31
8 1195 343 242 0 311 348 325 349 83 3 347 .0431372549019608 .984313725490196 1 8
1 1 348 1194 343 234 0 350 351 318 352 83 3 349 .0431372549019608 .9843137254901
96 1 81 3 350 1334 308 234 348 240 239 353 354 0 0 81 1 351 1193 343 232 0 239 3
55 348 356 83 3 352 .0431372549019608 .984313725490196 1 81 3 239 1332 308 232 3
51 233 0 350 357 0 0 81 1 355 1192 343 235 0 353 309 351 358 83 3 356 .043137254
9019608 .984313725490196 1 81 3 353 1336 308 235 355 245 350 254 359 0 0 81 1 30
9 1191 343 246 0 303 360 355 361 83 3 358 .0431372549019608 .984313725490196 1 8
1 1 360 1190 343 103 0 362 363 309 364 83 3 361 .0431372549019608 .9843137254901
96 1 81 3 362 1354 308 103 360 296 295 310 365 0 0 81 1 363 1189 343 292 0 295 3
66 360 367 83 3 364 .0431372549019608 .984313725490196 1 81 3 295 1352 308 292 3
63 293 368 362 369 0 0 81 1 366 1188 343 262 0 310 370 363 371 83 3 367 .0431372
549019608 .984313725490196 1 81 3 310 1356 308 262 366 298 362 303 372 0 0 81 1
 370 1187 343 229 0 373 374 366 375 83 3 371 .0431372549019608 .984313725490196
 1 81 3 373 1342 308 229 370 265 376 377 378 0 0 81 1 374 1186 343 98 0 377 379
 370 380 83 3 375 .0431372549019608 .984313725490196 1 81 3 377 1344 308 98 374
 267 373 381 382 0 0 81 1 379 1185 343 268 0 277 383 374 384 83 3 380 .043137254
9019608 .984313725490196 1 81 3 277 1348 308 268 379 275 381 368 385 0 0 81 1 38
3 1184 343 19 0 368 386 379 387 83 3 384 .0431372549019608 .984313725490196 1 81
 3 368 1350 308 19 383 278 277 295 388 0 0 81 1 386 1183 343 84 0 381 389 383 39
0 83 3 387 .0431372549019608 .984313725490196 1 81 3 381 1346 308 84 386 270 377
 277 391 0 0 81 1 389 1182 343 251 0 376 392 386 393 83 3 390 .0431372549019608
 .984313725490196 1 81 3 376 1340 308 251 389 255 254 373 394 0 0 81 1 392 1181
 343 16 0 254 0 389 395 83 3 393 .0431372549019608 .984313725490196 1 81 3 254 1
338 308 16 392 250 353 376 396 0 0 83 3 395 .0431372549019608 .984313725490196 1
 82 6 396 1 1699541544 31037663 0 150541786 69013181 81 1 255 1341 238 251 376 0
 250 265 397 82 6 394 2 1699541544 31037663 0 150541786 69013181 81 1 265 1343 2
38 229 373 0 255 267 398 82 1 397 -880934796 81 1 267 1345 238 98 377 0 265 270
 399 82 1 398 -1774256018 81 1 270 1347 238 84 381 0 267 275 400 82 1 399 -17736
66194 82 1 400 -1741422478 82 6 391 3 1699541544 31037663 0 150541786 69013181 8
1 1 278 1351 238 19 368 0 275 293 401 82 6 388 4 1699541544 31037663 0 150541786
 69013181 82 1 401 -1101922197 82 6 385 5 1699541544 31037663 0 150541786 690131
81 82 6 382 6 1699541544 31037663 0 150541786 69013181 82 6 378 7 1699541544 310
37663 0 150541786 69013181 82 6 372 8 1699541544 31037663 0 150541786 69013181 8
2 6 369 9 1699541544 31037663 0 150541786 69013181 81 1 296 1355 238 103 362 0 2
93 298 402 82 6 365 10 1699541544 31037663 0 150541786 69013181 82 1 402 -178867
3941 81 1 245 1337 238 235 353 0 240 250 403 82 6 359 12 1699541544 31037663 0 1
50541786 69013181 81 1 240 1335 238 234 350 0 233 245 404 82 1 403 324599918 82
 1 404 -1750597516 82 6 357 13 1699541544 31037663 0 150541786 69013181 82 6 354
 14 1699541544 31037663 0 150541786 69013181 79 255 15 345 SDL/TYSA_COLOUR79 18
 342 DOWNSTREAM_FACE_ID15 337 676 0 405 330 406 51 338 690 0 330 317 332 0 +-.01
7 .003 0 -1284980352575412e-31 1 957872133064431e-48 .005 -1 -1284980352575412e-
31 0 51 317 691 0 242 324 338 0 -.017 .003 -2012279232133095e-31 -12849803525754
12e-31 1 957872133064431e-48 .005 -1 -1284980352575412e-31 0 50 332 688 0 323 33
8 244 0 +-.017 .003 0 -1284980352575412e-31 1 957872133064428e-48 -1 -1284980352
575412e-31 0 51 244 583 0 234 332 248 0 -.017 -1387778780781446e-32 -20122792321
33095e-31 -1284980352575412e-31 1 957872133064428e-48 .003 -1 -1284980352575412e
-31 0 51 248 582 0 251 244 237 0 +-.017 -1387778780781446e-32 0 -128498035257541
2e-31 1 957872133064428e-48 .003 -1 -1284980352575412e-31 0 50 324 693 0 316 0 3
17 0 +.017 .003 -2012279232133095e-31 1284980352575412e-31 -1 -957872133064428e-
48 1 1284980352575412e-31 0 17 405 0 337 405 405 0 203 200 0 0 -15 406 677 0 199
 330 0 17 199 0 406 199 199 0 407 194 0 0 +17 407 0 259 407 407 0 199 194 0 0 -1
5 259 618 0 407 16 408 15 408 623 0 193 16 0 17 193 0 408 193 193 0 409 187 0 0
 +17 409 0 410 409 409 0 193 187 0 0 -15 410 647 0 409 242 0 17 203 0 331 203 20
3 0 405 200 0 0 +15 331 667 0 203 323 411 15 411 668 0 183 323 0 17 183 0 411 18
3 183 0 412 21 0 0 +17 412 0 413 412 412 0 183 21 0 0 -15 413 612 0 412 251 0 82
 6 335 17 1699541544 31037663 0 150541786 69013181 82 6 327 16 1699541544 310376
63 0 150541786 69013181 15 181 650 0 177 316 414 15 414 651 0 192 316 0 17 192 0
 414 192 192 0 186 178 0 0 -82 6 320 15 1699541544 31037663 0 150541786 69013181
 15 191 646 0 186 242 410 82 1 313 -1774518162 82 6 312 11 1699541544 31037663 0
 150541786 69013181 79 14 307 SWEntUnchanged17 300 0 294 300 300 0 218 208 0 0 -
17 218 0 415 218 218 0 300 208 0 0 +15 415 480 0 218 235 0 15 299 442 0 224 262
 284 17 224 0 299 224 224 0 220 216 0 0 -82 1 297 -1774780306 17 91 0 288 89 170
 68 39 134 0 82 -17 170 0 288 91 289 36 33 167 0 39 +17 39 0 37 26 70 36 91 134
 0 0 +17 33 0 31 29 40 41 170 167 0 289 -15 31 362 0 33 19 0 17 40 0 31 33 32 36
 26 10 0 170 -17 32 0 31 40 29 30 35 171 0 96 -17 35 0 99 78 96 11 32 171 0 416
 +17 78 0 99 283 35 76 416 101 0 287 +17 416 0 230 34 287 11 78 101 0 0 -15 230
 185 0 416 229 0 17 34 0 230 67 416 41 29 27 0 33 +17 287 0 230 416 67 76 153 94
 0 125 -17 67 0 230 287 34 65 289 137 0 153 +82 1 279 -1345847191 80 2 272 417 4
18 8044 0 0 0 0 3 5 0 0 0 FFFFTFFFTTFFFF3 2 81 2 18 988 272 6 0 0 0 271 419 420
 84 255 6 273 EAKBCC83 2 274 0 3.141592653589795 84 6 419 EAKBCC83 2 420 0 3.141
592653589795 79 17 418 SDL/TYSA_BLEND_ID15 269 452 0 215 98 37 17 215 0 269 215
 215 0 247 212 0 0 +17 247 0 236 247 247 0 215 212 0 0 -15 257 568 0 421 251 413
 17 421 0 257 421 421 0 211 184 0 0 -17 211 0 85 211 211 0 421 184 0 0 +15 85 53
0 0 211 84 422 15 422 535 0 423 84 0 17 423 0 422 423 423 0 207 204 0 0 -17 207
 0 424 207 207 0 423 204 0 0 +15 424 550 0 207 234 0 82 1 256 -878903180 15 223
 479 0 220 235 415 15 243 606 0 182 234 424 17 182 0 243 182 182 0 177 175 0 0 -
82 1 241 327745646 80 3 110 308 425 9000 0 0 0 0 3 5 0 0 0 FFFFFFTFFFFFFF1 1 1 8
2 6 226 43 1699541544 31037663 0 150541786 69013181 79 18 425 DOWNSTREAM_EDGE_ID
81 3 217 1329 110 208 0 0 214 219 426 0 0 82 6 222 44 1699541544 31037663 0 1505
41786 69013181 81 3 214 1328 110 212 0 0 210 217 427 0 0 82 6 426 46 1699541544
 31037663 0 150541786 69013181 81 3 210 1327 110 184 0 0 206 214 428 0 0 82 6 42
7 45 1699541544 31037663 0 150541786 69013181 81 3 206 1326 110 204 0 0 202 210
 429 0 0 82 6 428 48 1699541544 31037663 0 150541786 69013181 81 3 202 1325 110
 200 0 0 198 206 430 0 0 82 6 429 47 1699541544 31037663 0 150541786 69013181 81
 3 198 1324 110 194 0 0 189 202 431 0 0 82 6 430 54 1699541544 31037663 0 150541
786 69013181 81 3 189 1323 110 187 0 0 185 198 432 0 0 82 6 431 53 1699541544 31
037663 0 150541786 69013181 82 6 432 52 1699541544 31037663 0 150541786 69013181
 81 3 179 1321 110 21 0 0 176 185 433 0 0 82 6 190 51 1699541544 31037663 0 1505
41786 69013181 82 6 433 49 1699541544 31037663 0 150541786 69013181 81 3 174 131
9 110 27 0 0 173 176 434 0 0 82 6 180 50 1699541544 31037663 0 150541786 6901318
1 81 3 173 1318 110 171 0 0 169 174 435 0 0 82 6 434 20 1699541544 31037663 0 15
0541786 69013181 81 3 169 1317 110 167 0 0 166 173 436 0 0 82 6 435 21 169954154
4 31037663 0 150541786 69013181 81 3 166 1316 110 164 0 0 163 169 437 0 0 82 6 4
36 22 1699541544 31037663 0 150541786 69013181 81 3 163 1315 110 161 0 0 159 166
 438 0 0 82 6 437 23 1699541544 31037663 0 150541786 69013181 81 3 159 1314 110
 157 0 0 156 163 439 0 0 82 6 438 24 1699541544 31037663 0 150541786 69013181 81
 3 156 1313 110 93 0 0 152 159 440 0 0 82 6 439 25 1699541544 31037663 0 1505417
86 69013181 81 3 152 1312 110 94 0 0 150 156 441 0 0 82 6 440 26 1699541544 3103
7663 0 150541786 69013181 81 3 150 1311 110 148 0 0 147 152 442 0 0 82 6 441 28
 1699541544 31037663 0 150541786 69013181 81 3 147 1310 110 131 0 0 144 150 443
 0 0 82 6 442 29 1699541544 31037663 0 150541786 69013181 81 3 144 1309 110 114
 0 0 142 147 444 0 0 82 6 443 30 1699541544 31037663 0 150541786 69013181 81 3 1
42 1308 110 140 0 0 139 144 445 0 0 82 6 444 38 1699541544 31037663 0 150541786
 69013181 81 3 139 1307 110 137 0 0 136 142 446 0 0 82 6 445 39 1699541544 31037
663 0 150541786 69013181 81 3 136 1306 110 134 0 0 133 139 447 0 0 82 6 446 40 1
699541544 31037663 0 150541786 69013181 81 3 133 1305 110 90 0 0 130 136 448 0 0
 82 6 447 41 1699541544 31037663 0 150541786 69013181 81 3 130 1304 110 106 0 0
 128 133 449 0 0 82 6 448 42 1699541544 31037663 0 150541786 69013181 81 3 128 1
303 110 126 0 0 124 130 450 0 0 82 6 449 31 1699541544 31037663 0 150541786 6901
3181 81 3 124 1302 110 122 0 0 121 128 451 0 0 82 6 450 32 1699541544 31037663 0
 150541786 69013181 81 3 121 1301 110 101 0 0 111 124 452 0 0 82 6 451 33 169954
1544 31037663 0 150541786 69013181 81 3 111 1300 110 108 0 0 107 121 453 0 0 82
 6 452 34 1699541544 31037663 0 150541786 69013181 82 6 453 37 1699541544 310376
63 0 150541786 69013181 81 3 100 1298 110 97 0 0 92 107 454 0 0 82 6 112 36 1699
541544 31037663 0 150541786 69013181 81 3 92 1297 110 83 0 0 25 100 455 0 0 82 6
 454 35 1699541544 31037663 0 150541786 69013181 81 3 25 1296 110 10 0 0 0 92 45
6 0 0 82 6 455 27 1699541544 31037663 0 150541786 69013181 82 6 456 19 169954154
4 31037663 0 150541786 69013181 19 17 210 0 1 0 9 5 S0 74 4 CI16 index_map_offse
t0 0 1 dCCZ20 15 12 0 0 457 458 459 271 460 461 334 221 13 328 339 2 0 0 0 0 0 0
 0 0 81 2 457 73 462 1 0 458 0 0 0 463 81 5 458 74 464 1 457 459 0 0 465 0 0 0 0
 81 2 459 264 466 1 458 460 0 0 0 467 81 2 460 741 468 1 459 461 0 0 469 0 81 2
 461 814 470 1 460 13 0 0 0 471 81 2 13 1160 472 1 461 2 0 0 0 0 80 2 472 473 47
4 9000 0 0 0 0 3 5 0 0 0 FFTFFFFFFFFFFF9 1 79 16 474 BODY_RECIPE_200180 2 470 47
5 476 9000 0 0 0 0 3 5 0 0 0 FFTFFFFFFFFFFF9 1 82 1 471 1 79 24 476 BODY_IN_LIGH
TWEIGHT_PERM80 2 468 477 478 8004 0 0 0 0 3 5 0 0 0 FFTFFFFFFFFFFF2 3 83 1 469 1
 79 16 478 SDL/TYSA_DENSITY80 2 466 479 480 9000 0 0 0 0 3 5 0 0 0 FFTFFFFFFFFFF
F9 1 82 1 467 71 79 30 480 LAST_BODY_MODIFYING_FEATURE_ID80 5 464 481 482 9000 0
 0 0 0 3 6 0 0 0 FFTTTTTTFTTFTT2 2 2 2 2 83 1 465 1 79 19 482 BODY_SCALING_FACTO
R80 2 462 483 484 9000 0 0 0 0 3 5 0 0 0 FFTFFFFFFFFFFT9 1 82 1 463 113 79 19 48
4 ENT_TIME_STAMP_200180 2 12 485 486 9000 0 0 0 0 3 5 0 0 0 FFTFFFFFFFFFFF9 1 82
 1 14 104 79 12 486 ATOM_ID_20011 0 
