**ABCDEFGHIJKLMNOPQRSTUVWXYZabcdefghijklmnopqrstuvwxyz**************************
**PARASOLID !"#$%&'()*+,-./:;<=>?@[\]^_`{|}~0123456789**************************
**PART1;
MC=AMD64;
MC_MODEL=Intel64 Family 6 Model 142 Stepping 12, GenuineIntel;
MC_ID=unknown;
OS=Windows_NT;
OS_RELEASE=unknown;
FRU=Parasolid Version 33.1, build 247,  8- 6-2021;
APPL=SOLIDWORKS 2022-2022009;
SITE=;
USER=unknown;
FORMAT=text;
GUISE=transmit;
KEY=FILEPart 7.x_t;
DATE=Thu Jun 15 06:01:18 2023;
**PART2;
SCH=SCH_3301247_33103;
USFLD_SIZE=0;
**PART3;
**END_OF_HEADER*****************************************************************
T51 : TRANSMIT FILE created by modeller version 330124723 SCH_3301247_33103_1300
6230 0 12 35 CCCI7 lattice222 0 CCCI4 mesh1006 0 I8 polyline1008 0 CCCCCCCDI5 ow
ner1040 0 CCCCCCI13 boundary_mesh1006 0 I17 boundary_polyline1008 0 CCCA16 index
_map_offset0 0 1 dA9 index_map82 0 A17 node_id_index_map82 0 A20 schema_embeddin
g_map82 0 A5 child12 0 A14 lowest_node_id0 0 1 dA16 mesh_offset_data206 0 Z1 200
 2 3 0 0 0 0 0 0 0 1e3 1e-8 0 4 0 1 0 1 1 5 6 7 0 0 0 8 9 0 0 0 0 0 0 0 0 81 255
 2 2 193 10 1 11 0 0 0 0 12 70 11 CI9 list_type0 0 1 uI10 notransmit0 0 1 lCCCDC
CDI12 finger_index0 0 1 dI12 finger_block1012 0 CZ3 0 4 T1 0 0 9 20 1 13 13 13 2
55 5 31 0 1 0 14 0 0 15 0 51 255 6 30 0 14 16 0 0 -0 0 .0425 0 0 -1 .003 -1 0 0
 31 255 7 25 0 17 18 0 0 +0 0 -.0425 0 0 1 1 0 0 .003 19 8 CCCCCCCA5 owner12 0 Z
8 9 0 1 15 0 19 V0 16 255 9 5 0 ?20 0 21 18 0 0 1 17 255 20 0 22 20 20 0 23 9 0
 0 +16 21 59 0 ?24 9 25 26 0 0 1 31 18 7 0 9 27 7 0 +0 0 .0425 0 0 1 1 0 0 .003
 31 27 83 0 25 26 18 0 +0 0 .0425 0 0 1 1 0 0 .005 16 25 56 0 ?28 21 17 27 0 0 1
 31 26 84 0 21 29 27 0 +0 0 .0475 0 0 1 1 0 0 .005 31 29 124 0 30 31 26 0 +0 0 -
.0425 0 0 1 1 0 0 .005 16 30 101 0 ?32 33 0 29 0 0 1 31 31 125 0 33 0 29 0 +0 0
 -.0475 0 0 1 1 0 0 .005 16 33 98 0 ?34 17 30 31 0 0 1 17 34 0 35 34 34 0 36 33
 0 0 +16 17 97 0 ?37 25 33 7 0 0 1 17 37 0 38 37 37 0 39 17 0 0 +15 255 38 28 0
 37 14 0 17 39 0 40 39 39 0 37 17 0 0 -15 40 117 0 39 41 42 14 255 41 115 43 ?0
 44 40 5 45 -0 0 0 44 19 15 42 118 0 32 41 0 17 32 0 42 32 32 0 46 30 0 0 +17 46
 0 47 46 46 0 32 30 0 0 -15 47 111 0 46 48 0 14 48 107 49 ?44 50 35 5 51 +0 0 44
 50 19 81 1 49 195 52 48 53 0 43 54 55 14 44 112 54 ?41 48 56 5 57 +0 0 41 48 19
 14 50 74 58 ?48 59 22 5 60 -0 0 48 59 19 15 35 110 0 34 48 47 51 51 121 0 48 45
 61 0 +0 0 -.0475 0 0 1 .005 1 0 0 13 19 10 0 0 0 0 0 0 8 14 14 14 27 62 ?63 0 6
4 5 6 -0 0 63 0 19 81 1 62 198 52 14 65 0 58 66 67 14 63 66 66 ?59 14 68 5 16 -0
 0 59 14 19 15 64 26 0 23 14 38 17 23 0 64 23 23 0 20 9 0 0 -81 1 66 199 52 63 6
9 0 62 70 71 14 59 71 70 ?50 63 72 5 61 +0 0 50 63 19 15 68 69 0 73 63 74 51 16
 80 0 63 60 6 0 -0 0 .0475 0 0 -1 .005 -1 0 0 50 255 60 81 0 50 61 16 0 +0 0 .04
25 0 0 1 1 0 0 50 61 82 0 59 51 60 0 +0 0 .0475 0 0 1 1 0 0 17 73 0 68 73 73 0 2
4 21 0 0 -15 74 70 0 28 63 0 17 28 0 74 28 28 0 75 25 0 0 +17 75 0 76 75 75 0 28
 25 0 0 -15 76 77 0 75 50 0 17 24 0 72 24 24 0 73 21 0 0 +15 72 73 0 24 59 0 81
 1 70 200 52 59 77 0 66 0 78 80 255 1 52 79 80 9000 1 1 1 1 1 1 1 1 0 FFFFTFTFFF
FFFF1 81 1 77 173 81 59 0 70 69 82 83 82 255 1 78 -1750990742 80 1 81 0 84 8001
 0 0 0 0 3 5 0 0 0 FFFFTFTFFFFFFF2 81 1 69 172 81 63 0 66 65 77 85 81 1 82 174 8
1 50 0 58 77 53 86 83 255 3 83 0 1 1 81 1 58 197 52 50 82 0 54 62 87 81 1 53 175
 81 48 0 49 82 88 89 83 3 86 0 1 1 81 1 88 176 81 44 0 54 53 90 91 83 3 89 0 1 1
 81 1 54 196 52 44 88 0 49 58 92 81 1 90 177 81 41 0 43 88 0 93 83 3 91 0 1 1 81
 1 43 194 52 41 90 0 0 49 94 83 3 93 0 1 1 82 1 94 -1586888596 82 1 92 -15885925
32 82 1 87 -1749286806 81 1 65 171 81 14 0 62 0 69 95 83 3 85 0 1 1 83 3 95 0 1
 1 79 255 15 84 SDL/TYSA_COLOUR79 14 80 SWEntUnchanged82 1 71 -1749024662 82 1 6
7 1197539431 50 45 122 0 41 57 51 0 +0 0 -.0425 0 0 -1 1 0 0 50 57 123 0 44 0 45
 0 +0 0 -.0475 0 0 -1 1 0 0 15 22 76 0 20 50 76 15 56 114 0 36 44 0 17 36 0 56 3
6 36 0 34 33 0 0 -82 1 55 -1586626452 19 15 32 0 1 0 8 5 S0 74 4 CI16 index_map_
offset0 0 1 dCCZ20 13 9 0 0 70 96 97 98 99 100 11 90 2 0 0 0 0 0 0 0 0 0 0 0 81
 2 96 126 101 1 0 97 0 0 0 102 81 2 97 128 103 1 96 98 0 0 0 104 81 1 98 135 105
 1 97 99 0 0 106 81 2 99 144 107 1 98 100 0 0 108 0 81 2 100 165 109 1 99 11 0 0
 0 110 81 2 11 168 111 1 100 2 0 0 0 0 80 2 111 112 113 9000 0 0 0 0 3 5 0 0 0 F
FTFFFFFFFFFFF9 1 79 16 113 BODY_RECIPE_200180 2 109 114 115 9000 0 0 0 0 3 5 0 0
 0 FFTFFFFFFFFFFF9 1 82 1 110 1 79 24 115 BODY_IN_LIGHTWEIGHT_PERM80 2 107 116 1
17 8004 0 0 0 0 3 5 0 0 0 FFTFFFFFFFFFFF2 3 83 1 108 1 79 16 117 SDL/TYSA_DENSIT
Y80 1 105 118 119 9000 1 1 1 1 1 1 1 1 0 FFTFFFFFFFFFFF1 82 1 106 1328961 79 10
 119 BODY_MATCH80 2 103 120 121 9000 0 0 0 0 3 5 0 0 0 FFTFFFFFFFFFFF9 1 82 1 10
4 45 79 30 121 LAST_BODY_MODIFYING_FEATURE_ID80 2 101 122 123 9000 0 0 0 0 3 5 0
 0 0 FFTFFFFFFFFFFT9 1 82 1 102 107 79 19 123 ENT_TIME_STAMP_200180 2 10 124 125
 9000 0 0 0 0 3 5 0 0 0 FFTFFFFFFFFFFF9 1 82 1 12 103 79 12 125 ATOM_ID_20011 0
 
