**ABCDEFGHIJKLMNOPQRSTUVWXYZabcdefghijklmnopqrstuvwxyz**************************
**PARASOLID !"#$%&'()*+,-./:;<=>?@[\]^_`{|}~0123456789**************************
**PART1;
MC=AMD64;
MC_MODEL=Intel64 Family 6 Model 142 Stepping 12, GenuineIntel;
MC_ID=unknown;
OS=Windows_NT;
OS_RELEASE=unknown;
FRU=Parasolid Version 33.1, build 247,  8- 6-2021;
APPL=SOLIDWORKS 2022-2022009;
SITE=;
USER=unknown;
FORMAT=text;
GUISE=transmit;
KEY=FILEPart 2.x_t;
DATE=Thu Jun 15 06:00:55 2023;
**PART2;
SCH=SCH_3301247_33103;
USFLD_SIZE=0;
**PART3;
**END_OF_HEADER*****************************************************************
T51 : TRANSMIT FILE created by modeller version 330124723 SCH_3301247_33103_1300
6230 0 12 35 CCCI7 lattice222 0 CCCI4 mesh1006 0 I8 polyline1008 0 CCCCCCCDI5 ow
ner1040 0 CCCCCCI13 boundary_mesh1006 0 I17 boundary_polyline1008 0 CCCA16 index
_map_offset0 0 1 dA9 index_map82 0 A17 node_id_index_map82 0 A20 schema_embeddin
g_map82 0 A5 child12 0 A14 lowest_node_id0 0 1 dA16 mesh_offset_data206 0 Z1 691
 2 3 0 0 0 0 0 0 0 1e3 1e-8 0 4 0 1 0 1 1 5 6 7 0 0 0 8 9 0 0 0 0 0 0 0 0 81 255
 2 2 668 10 1 11 0 0 0 0 12 70 11 CI9 list_type0 0 1 uI10 notransmit0 0 1 lCCCDC
CDI12 finger_index0 0 1 dI12 finger_block1012 0 CZ3 0 4 T1 0 0 11 20 1 13 13 13
 255 5 104 0 1 0 14 0 0 15 0 52 255 6 403 16 17 18 0 0 +1083650622635468e-35 0 0
 1 0 0 .007 .707106781186545 .707106781186551 0 0 -1 38 12 CCCCCCCCCCCA17 inters
ection_data204 0 Z7 439 0 9 19 0 0 +20 21 22 23 23 24 19 8 CCCCCCCA5 owner12 0 Z
8 108 0 1 15 0 25 V0 16 255 9 437 0 ?26 0 27 7 0 0 1 17 255 26 0 28 26 26 0 29 9
 0 0 +16 27 421 0 ?30 9 31 19 0 0 1 17 30 0 32 30 30 0 33 27 0 0 +16 31 380 0 ?3
4 27 35 36 0 0 1 38 19 423 0 27 36 7 0 +20 21 37 38 38 39 31 255 36 383 0 31 40
 19 0 +.002 0 0 1 0 0 0 0 -1 .009 51 255 20 192 0 41 42 43 44 -0 0 0 -1 0 0 .016
 0 0 1 51 21 504 0 45 0 46 47 +.145 0 -.016 0 0 1 .003 1 0 0 40 255 20 37 0 1 20
 .0001732082623216945 .342901198010175 ??.148 0 .016 .1478342899904756 -.0009832
60011334471 .01596975891333715 .147357338768417 -.00185551985462797 .01589204348
31107 .1466135067389234 -.00252914926476245 .01579884185617895 .14567938446807 -
.00292206035949728 .01573091107518745 .1446774602616982 -.00298261095639647 .015
71954299217325 .1437246795527378 -.002715429571319225 .01576789276483085 .142908
1332348098 -.002150370534743415 .0158548385852177 .1423137311706474 -.0013356495
7097636 .01594415379452765 .1420224391688546 -.000366239671293374 .0159958078415
3055 .1420671712805702 .000631281001209191 .0159875415338792 .1424317619339656 .
001550533210277015 .01592469298805565 .143082193406109 .002306949905920895 .0158
3281346228685 .1439580917164504 .002813259164860375 .01575073245507425 .14495007
27160034 .00299958451561424 .0157163129497248 .145932497989983 .0028513939571159
75 .01574387349102255 .1468092130525388 .002393062500337795 .01582002692379115 .
1474968324454696 .001663077791099925 .01591333315998725 .1479080792926972 .00073
6936108075213 .0159830199015272 .148 1511532718797295e-33 .016 41 3 CI8 term_use
0 0 1 cCZ1 38 H?.148 1511532718797295e-33 .016 204 2 17 INTERSECTION_DATA17 Inte
rsection data7 uv_type0 0 1 u6 values0 1 1 fT80 39 4 0 -.148 0 .032 6.2216928099
2197 -.1478342899904756 5.94926073258582 .03196975891333715 6.16695378285055 -.1
47357338768417 5.61634453855331 .0318920434831107 6.12444768209022 -.14661350673
89234 5.28025661131298 .03179884185617895 6.09952577680847 -.14567938446807 4.94
083222691247 .03173091107518745 6.09567524276174 -.1446774602616982 4.6046675234
0072 .03171954299217325 6.11264550194603 -.1437246795527378 4.27330908825892 .03
176789276483085 6.14837922159927 -.1429081332348098 3.94078072476016 .0318548385
852177 6.1996099495444 -.1423137311706474 3.60300871149663 .03194415379452765 6.
26029332838043 -.1420224391688546 3.263977832191005 .03199580784153055 .03946530
638203985 -.1420671712805702 2.92958093425205 .0319875415338792 .097060651553588
 -.1424317619339656 2.59843192488852 .03192469298805565 .1446886793787916 -.1430
82193406109 2.26434343437697 .03183281346228685 .1767475175749055 -.143958091716
4504 1.925489614498505 .03175073245507425 .188589949603714 -.1449500727160034 1.
58743952313283 .0317163129497248 .1791691877290975 -.145932497989983 1.254727360
475594 .03174387349102255 .1501297318037335 -.1468092130525388 .923450894589718
 .03182002692379115 .1041304436024194 -.1474968324454696 .587592909585395 .03191
333315998725 .0460748069656446 -.1479080792926972 .248185405098085 .031983019901
5272 94470794924831e-30 -.148 503844239599098e-30 .032 14 255 45 469 48 ?0 17 49
 5 21 -0 0 0 17 25 50 255 46 181 0 50 21 51 0 +1083650622635468e-35 .009 0 1 0 0
 0 0 -1 141 255 47 19 52 52 21 141 52 7 47 47 21 14 50 115 53 ?54 55 56 5 46 -0
 0 54 55 25 51 51 182 0 55 46 57 0 -0 0 0 -1 0 0 .009 0 0 1 14 55 120 58 ?50 59
 60 5 51 -0 0 50 59 25 50 57 183 0 59 51 61 0 +.058 .007 0 -1 0 0 0 0 1 14 59 12
5 62 ?55 63 64 5 57 -0 0 55 63 25 51 61 184 0 63 57 65 0 -0 0 0 -1 0 0 .007 0 0
 1 14 63 130 66 ?59 67 68 5 61 -0 0 59 67 25 50 65 185 0 67 61 69 0 +.06 .009 0
 1 0 0 0 0 -1 14 67 135 70 ?63 71 72 5 65 -0 0 63 71 25 51 69 186 0 71 65 73 0 -
0 0 0 -1 0 0 .009 0 0 1 14 71 140 74 ?67 75 76 5 69 -0 0 67 75 25 50 73 187 0 75
 69 77 0 +.08 .007 0 -1 0 0 0 0 1 14 75 145 78 ?71 79 80 5 73 -0 0 71 79 25 51 7
7 188 0 79 73 81 0 -0 0 0 -1 0 0 .007 0 0 1 14 79 150 82 ?75 83 84 5 77 -0 0 75
 83 25 50 81 189 0 83 77 85 0 +.082 .009 0 1 0 0 0 0 -1 14 83 155 86 ?79 87 88 5
 81 -0 0 79 87 25 51 85 190 0 87 81 42 0 -0 0 0 -1 0 0 .009 0 0 1 14 87 160 89 ?
83 90 91 5 85 -0 0 83 90 25 50 42 191 0 90 85 20 0 +.135 .016 0 1 0 0 0 0 -1 14
 90 165 92 ?87 41 93 5 42 -0 0 87 41 25 81 1 92 685 94 90 95 0 89 96 97 14 41 17
0 96 ?90 14 28 5 20 -0 0 90 14 25 15 255 93 309 0 98 90 99 13 25 107 0 0 0 0 0 0
 8 14 14 14 175 100 ?41 0 101 5 43 -0 0 41 0 25 81 1 100 687 94 14 102 0 96 103
 104 15 101 327 0 105 14 0 50 43 193 0 14 20 106 0 +.155 0 0 -1 0 0 0 0 1 52 106
 346 107 54 43 18 0 +.135 0 0 1 0 0 .013 .707106781186549 .707106781186546 0 0 -
1 81 2 107 347 108 106 0 0 0 109 110 111 14 54 339 103 ?112 50 113 5 106 +0 0 11
2 50 25 52 18 360 109 112 106 6 0 +.152 0 0 -1 0 0 .016 .707106781186544 .707106
781186551 0 0 1 81 2 109 361 108 18 0 0 107 16 114 115 14 112 353 116 ?17 54 117
 5 18 +0 0 17 54 25 81 1 116 689 94 112 118 0 103 119 120 14 17 396 121 ?45 112
 122 5 6 +0 0 45 112 25 15 117 354 0 123 112 124 17 123 0 117 123 123 0 105 125
 0 0 -15 124 355 0 126 112 0 17 126 0 124 126 126 0 127 128 0 0 -17 127 0 129 12
7 127 0 126 128 0 0 +16 128 314 0 ?127 130 131 132 0 0 1 16 130 320 0 ?133 125 1
28 134 0 0 1 16 131 308 0 ?98 128 135 136 0 0 1 31 132 317 0 128 136 134 0 +.152
 0 0 -1 0 0 0 0 1 .016 31 136 311 0 131 137 132 0 -.135 0 0 1 0 0 0 0 -1 .013 31
 134 323 0 130 132 138 0 +.138 0 0 1 0 0 0 0 -1 .016 31 138 329 0 125 134 40 0 -
.155 0 0 -1 0 0 0 0 1 .013 16 125 326 0 ?105 35 130 138 0 0 1 31 40 377 0 35 138
 36 0 -1083650622635468e-35 0 0 1 0 0 0 0 -1 .007 16 35 374 0 ?139 31 125 40 0 0
 1 17 139 0 56 139 139 0 140 35 0 0 +15 56 375 0 139 50 0 17 140 0 141 140 140 0
 139 35 0 0 -15 141 398 0 140 17 0 17 105 0 101 105 105 0 123 125 0 0 +31 137 20
3 0 135 142 136 0 +.135 0 0 -1 0 0 0 0 1 .009 16 135 157 0 ?143 131 144 137 0 0
 1 31 142 202 0 144 145 137 0 +.082 0 0 -1 0 0 0 0 1 .009 16 144 152 0 ?146 135
 147 142 0 0 1 31 145 201 0 147 148 142 0 +.082 0 0 -1 0 0 0 0 1 .007 16 147 147
 0 ?149 144 150 145 0 0 1 31 148 200 0 150 151 145 0 +.08 0 0 -1 0 0 0 0 1 .007
 16 150 142 0 ?152 147 153 148 0 0 1 31 151 199 0 153 154 148 0 +.08 0 0 -1 0 0
 0 0 1 .009 16 153 137 0 ?155 150 156 151 0 0 1 31 154 198 0 156 157 151 0 +.06
 0 0 -1 0 0 0 0 1 .009 16 156 132 0 ?158 153 159 154 0 0 1 31 157 197 0 159 160
 154 0 +.06 0 0 -1 0 0 0 0 1 .007 16 159 127 0 ?161 156 162 157 0 0 1 31 160 196
 0 162 163 157 0 +.058 0 0 -1 0 0 0 0 1 .007 16 162 122 0 ?164 159 165 160 0 0 1
 31 163 195 0 165 0 160 0 +.058 0 0 -1 0 0 0 0 1 .009 16 165 117 0 ?166 162 0 16
3 0 0 1 17 166 0 167 166 166 0 168 165 0 0 +15 167 119 0 166 55 0 17 168 0 64 16
8 168 0 166 165 0 0 -15 64 260 0 168 59 169 15 169 124 0 164 59 0 17 164 0 169 1
64 164 0 170 162 0 0 +17 170 0 68 170 170 0 164 162 0 0 -15 68 261 0 170 63 171
 15 171 129 0 161 63 0 17 161 0 171 161 161 0 172 159 0 0 +17 172 0 72 172 172 0
 161 159 0 0 -15 72 262 0 172 67 173 15 173 134 0 158 67 0 17 158 0 173 158 158
 0 174 156 0 0 +17 174 0 76 174 174 0 158 156 0 0 -15 76 263 0 174 71 175 15 175
 139 0 155 71 0 17 155 0 175 155 155 0 176 153 0 0 +17 176 0 80 176 176 0 155 15
3 0 0 -15 80 264 0 176 75 177 15 177 144 0 152 75 0 17 152 0 177 152 152 0 178 1
50 0 0 +17 178 0 84 178 178 0 152 150 0 0 -15 84 265 0 178 79 179 15 179 149 0 1
49 79 0 17 149 0 179 149 149 0 180 147 0 0 +17 180 0 88 180 180 0 149 147 0 0 -1
5 88 266 0 180 83 181 15 181 154 0 146 83 0 17 146 0 181 146 146 0 182 144 0 0 +
17 182 0 91 182 182 0 146 144 0 0 -15 91 267 0 182 87 183 15 183 159 0 143 87 0
 17 143 0 183 143 143 0 184 135 0 0 +17 184 0 99 184 184 0 143 135 0 0 -15 99 26
8 0 184 90 0 17 98 0 93 98 98 0 185 131 0 0 +17 185 0 186 185 185 0 98 131 0 0 -
15 186 341 0 185 54 0 17 133 0 187 133 133 0 188 130 0 0 +15 187 321 0 133 41 12
9 17 188 0 113 188 188 0 133 130 0 0 -15 113 340 0 188 54 186 15 129 315 0 127 4
1 0 81 3 121 691 189 17 119 0 62 0 190 0 0 15 122 397 0 191 17 141 17 191 0 122
 191 191 0 34 31 0 0 -17 34 0 60 34 34 0 191 31 0 0 +15 60 381 0 34 55 167 80 25
5 3 189 192 193 9000 0 0 0 0 3 6 0 0 0 FFTTTTTTFFFFTT1 1 1 81 1 119 690 94 17 19
4 121 116 0 195 81 3 62 677 189 59 196 0 58 121 197 0 0 82 255 3 190 739022 97 2
 81 1 196 676 94 59 198 62 199 66 200 81 3 58 675 189 55 201 0 201 62 202 0 0 82
 3 197 739025 100 2 81 3 201 674 189 55 203 58 203 58 204 0 0 82 3 202 739023 97
 1 81 3 203 673 189 55 205 201 205 201 206 0 0 82 3 204 739023 97 2 81 3 205 672
 189 55 199 203 0 203 207 0 0 82 3 206 739026 100 1 81 1 199 671 94 55 208 205 5
3 196 209 82 3 207 739026 100 2 80 1 94 210 211 9000 1 1 1 1 1 1 1 1 0 FFFFTFTFF
FFFFF1 81 1 208 621 212 55 0 199 198 213 214 81 1 53 670 94 50 213 0 48 199 215
 82 1 209 106823798 81 1 213 622 212 50 0 53 208 216 217 81 1 48 669 94 45 218 0
 0 53 219 82 1 215 106233974 81 1 218 626 212 45 0 48 194 0 220 82 1 219 1593836
72 80 1 212 0 221 8001 0 0 0 0 3 5 0 0 0 FFFFTFTFFFFFFF2 81 1 194 625 212 17 0 1
19 118 218 222 83 255 3 220 0 .752941176470588 .752941176470588 81 1 118 624 212
 112 0 116 216 194 223 83 3 222 0 .752941176470588 .752941176470588 81 1 216 623
 212 54 0 103 213 118 224 83 3 223 0 .752941176470588 .752941176470588 81 1 103
 688 94 54 216 0 100 116 225 83 3 224 0 .752941176470588 .752941176470588 82 1 2
25 126484597 79 255 15 221 SDL/TYSA_COLOUR83 3 217 0 .752941176470588 .752941176
470588 81 1 198 620 212 59 0 196 226 208 227 83 3 214 .568627450980392 .54901960
7843137 .509803921568627 81 1 226 619 212 63 0 66 228 198 229 83 3 227 0 .752941
176470588 .752941176470588 81 1 66 678 94 63 226 0 196 70 230 81 1 228 618 212 6
7 0 70 231 226 232 83 3 229 0 .752941176470588 .752941176470588 81 1 70 679 94 6
7 228 0 66 74 233 81 1 231 617 212 71 0 74 234 228 235 83 3 232 0 .7529411764705
88 .752941176470588 81 1 74 680 94 71 231 0 70 78 236 81 1 234 616 212 75 0 78 2
37 231 238 83 3 235 0 .752941176470588 .752941176470588 81 1 78 681 94 75 234 0
 74 82 239 81 1 237 615 212 79 0 82 240 234 241 83 3 238 0 .752941176470588 .752
941176470588 81 1 82 682 94 79 237 0 78 86 242 81 1 240 614 212 83 0 86 243 237
 244 83 3 241 0 .752941176470588 .752941176470588 81 1 86 683 94 83 240 0 82 89
 245 81 1 243 613 212 87 0 89 95 240 246 83 3 244 0 .752941176470588 .7529411764
70588 81 1 89 684 94 87 243 0 86 92 247 81 1 95 612 212 90 0 92 248 243 249 83 3
 246 0 .752941176470588 .752941176470588 81 1 248 611 212 41 0 96 102 95 250 83
 3 249 0 .752941176470588 .752941176470588 81 1 96 686 94 41 248 0 92 100 251 81
 1 102 610 212 14 0 100 0 248 252 83 3 250 0 .752941176470588 .752941176470588 8
3 3 252 0 .752941176470588 .752941176470588 82 1 251 112722040 82 1 247 11154238
8 82 1 245 110952564 82 1 242 110362740 82 1 239 109772916 82 1 236 109183092 82
 1 233 108593268 82 1 230 108003444 79 14 211 SWEntUnchanged82 1 200 107413620 8
2 1 195 134742134 79 12 193 GENERIC_PERM82 1 120 127860853 80 2 108 253 254 8044
 0 0 0 0 3 5 0 0 0 FFFFTFFFTTFFFF3 2 81 2 16 404 108 6 0 0 109 0 255 256 84 255
 6 114 BAAAAB83 3 115 -.003 0 .003 84 6 255 BAAAAB83 3 256 0 .002 .002 79 17 254
 SDL/TYSA_BLEND_ID84 6 110 BAAAAB83 3 111 0 .003 .003 82 1 104 113311861 15 28 4
31 0 26 41 32 15 32 415 0 30 41 187 82 1 97 112132213 15 49 472 0 33 45 257 17 3
3 0 49 33 33 0 30 27 0 0 -15 257 473 0 29 45 0 17 29 0 257 29 29 0 26 9 0 0 -141
 44 19 258 258 20 141 258 7 44 44 20 19 15 103 0 1 0 8 5 S0 40 20 22 0 1 20 .000
1732082623216945 .342901198010175 ??.148 0 -.016 .1478342899904756 .000983260011
334471 -.01596975891333715 .147357338768417 .00185551985462797 -.015892043483110
7 .1466135067389234 .00252914926476245 -.01579884185617895 .14567938446807 .0029
2206035949728 -.01573091107518745 .1446774602616982 .00298261095639647 -.0157195
4299217325 .1437246795527378 .002715429571319225 -.01576789276483085 .1429081332
348098 .002150370534743415 -.0158548385852177 .1423137311706474 .001335649570976
36 -.01594415379452765 .1420224391688546 .000366239671293374 -.01599580784153055
 .1420671712805702 -.000631281001209191 -.0159875415338792 .1424317619339656 -.0
01550533210277015 -.01592469298805565 .143082193406109 -.002306949905920895 -.01
583281346228685 .1439580917164504 -.002813259164860375 -.01575073245507425 .1449
500727160034 -.00299958451561424 -.0157163129497248 .145932497989983 -.002851393
957115975 -.01574387349102255 .1468092130525388 -.002393062500337795 -.015820026
92379115 .1474968324454696 -.001663077791099925 -.01591333315998725 .14790807929
26972 -.000736936108075213 -.0159830199015272 .148 -1511532718797295e-33 -.016 4
1 1 23 H?.148 -1511532718797295e-33 -.016 204 80 24 4 3.141592653589795 -.148 0
 0 3.080100156332175 -.1478342899904756 .333924574593767 302410866628751e-19 3.0
25361129260755 -.147357338768417 .66684076862628 .0001079565168892946 2.98285502
850043 -.1466135067389234 1.002928695866606 .0002011581438210625 2.9579331232186
75 -.14567938446807 1.342353080267114 .0002690889248125675 2.954082589171945 -.1
446774602616982 1.67851778377887 .0002804570078267335 2.97105284835624 -.1437246
795527378 2.009876218920665 .0002321072351691505 3.006786568009475 -.14290813323
48098 2.342404582419425 .0001451614147823244 3.05801729595461 -.1423137311706474
 2.68017659568296 558462054723423e-19 3.11870067479064 -.1420224391688546 3.0192
0747498858 4192158469428635e-21 3.181057959971835 -.1420671712805702 3.353604372
927535 1245846612080852e-20 3.23865330514338 -.1424317619339656 3.68475338229106
5 753070119443762e-19 3.286281332968585 -.143082193406109 4.018841872802615 .000
1671865377131515 3.3183401711647 -.1439580917164504 4.357695692681085 .000249267
544925755 3.330182603193505 -.1449500727160034 4.69574578404676 .000283687050275
2055 3.32076184131889 -.145932497989983 5.02845794670399 .000256126508977453 3.2
91722385393525 -.1468092130525388 5.35973441258987 .0001799730762088415 3.245723
097192215 -.1474968324454696 5.69559239759419 866668400127356e-19 3.187667460555
44 -.1479080792926972 6.0349999020815 1698009847278875e-20 3.141592653589795 -.1
48 6.28318530717959 0 74 4 CI16 index_map_offset0 0 1 dCCZ20 13 11 0 0 259 260 1
19 121 16 261 262 263 11 218 2 0 0 0 0 0 0 0 0 0 81 2 259 284 264 1 0 260 0 0 0
 265 81 2 260 288 266 1 259 261 0 0 0 267 81 1 261 523 268 1 260 262 0 0 269 81
 2 262 543 270 1 261 263 0 0 271 0 81 2 263 562 272 1 262 11 0 0 0 273 81 2 11 6
07 274 1 263 2 0 0 0 0 80 2 274 275 276 9000 0 0 0 0 3 5 0 0 0 FFTFFFFFFFFFFF9 1
 79 16 276 BODY_RECIPE_200180 2 272 277 278 9000 0 0 0 0 3 5 0 0 0 FFTFFFFFFFFFF
F9 1 82 1 273 1 79 24 278 BODY_IN_LIGHTWEIGHT_PERM80 2 270 279 280 8004 0 0 0 0
 3 5 0 0 0 FFTFFFFFFFFFFF2 3 83 1 271 1 79 16 280 SDL/TYSA_DENSITY80 1 268 281 2
82 9000 1 1 1 1 1 1 1 1 0 FFTFFFFFFFFFFF1 82 1 269 591325 79 10 282 BODY_MATCH80
 2 266 283 284 9000 0 0 0 0 3 5 0 0 0 FFTFFFFFFFFFFF9 1 82 1 267 72 79 30 284 LA
ST_BODY_MODIFYING_FEATURE_ID80 2 264 285 286 9000 0 0 0 0 3 5 0 0 0 FFTFFFFFFFFF
FT9 1 82 1 265 121 79 19 286 ENT_TIME_STAMP_200180 2 10 287 288 9000 0 0 0 0 3 5
 0 0 0 FFTFFFFFFFFFFF9 1 82 1 12 102 79 12 288 ATOM_ID_20011 0 
