**ABCDEFGHIJKLMNOPQRSTUVWXYZabcdefghijklmnopqrstuvwxyz**************************
**PARASOLID !"#$%&'()*+,-./:;<=>?@[\]^_`{|}~0123456789**************************
**PART1;
MC=AMD64;
MC_MODEL=Intel64 Family 6 Model 142 Stepping 12, GenuineIntel;
MC_ID=unknown;
OS=Windows_NT;
OS_RELEASE=unknown;
FRU=Parasolid Version 33.1, build 247,  8- 6-2021;
APPL=SOLIDWORKS 2022-2022009;
SITE=;
USER=unknown;
FORMAT=text;
GUISE=transmit;
KEY=FILEPart 6.x_t;
DATE=Thu Jun 15 06:01:13 2023;
**PART2;
SCH=SCH_3301247_33103;
USFLD_SIZE=0;
**PART3;
**END_OF_HEADER*****************************************************************
T51 : TRANSMIT FILE created by modeller version 330124723 SCH_3301247_33103_1300
6230 0 12 35 CCCI7 lattice222 0 CCCI4 mesh1006 0 I8 polyline1008 0 CCCCCCCDI5 ow
ner1040 0 CCCCCCI13 boundary_mesh1006 0 I17 boundary_polyline1008 0 CCCA16 index
_map_offset0 0 1 dA9 index_map82 0 A17 node_id_index_map82 0 A20 schema_embeddin
g_map82 0 A5 child12 0 A14 lowest_node_id0 0 1 dA16 mesh_offset_data206 0 Z1 459
 2 3 0 0 0 0 0 0 0 1e3 1e-8 0 4 0 1 0 1 1 5 6 7 8 0 0 9 10 11 0 0 0 0 0 0 0 81 2
55 2 2 424 12 1 13 0 0 0 0 14 70 11 CI9 list_type0 0 1 uI10 notransmit0 0 1 lCCC
DCCDI12 finger_index0 0 1 dI12 finger_block1012 0 CZ3 0 4 T1 0 0 10 20 1 15 15 1
3 255 5 120 0 1 0 16 0 0 17 0 50 255 6 114 0 16 18 0 0 +-620494247325668e-33 .05
 .021 -1 -1240988494651334e-32 0 1240988494651336e-32 -1 0 30 255 7 119 0 10 19
 0 0 +-620494247325668e-33 .05 .021 0 0 -1 29 255 8 90 0 20 21 0 0 0 -.021 19 8
 CCCCCCCA5 owner12 0 Z9 40 0 1 17 0 22 V0 16 255 10 99 23 ?24 0 25 7 0 0 1 18 25
5 11 37 0 26 0 27 28 ?1 17 255 26 0 29 30 31 11 32 33 0 34 +18 27 34 0 31 11 35
 36 ?1 29 28 39 0 11 36 37 0 0 .021 29 36 36 0 27 38 28 -.06 0 .021 29 37 94 0 3
9 28 40 -620494247325668e-33 .05 -.021 18 39 83 0 41 42 0 37 ?1 29 40 93 0 42 37
 43 -.015 .05 -.021 18 42 82 0 44 45 39 40 ?1 29 43 92 0 45 40 21 -.06 .03 -.021
 18 45 81 0 46 47 42 43 ?1 29 21 91 0 47 43 8 -.06 0 -.021 18 47 80 0 48 20 45 2
1 ?1 17 48 0 49 50 51 47 52 53 0 54 +18 20 79 0 55 56 47 8 ?1 17 55 0 57 34 54 2
0 58 59 0 60 +18 56 25 0 61 62 20 63 ?1 17 61 0 64 24 65 56 66 67 0 30 -18 62 28
 0 66 35 56 68 ?1 29 63 27 0 56 0 68 -620494247325668e-33 .05 .021 29 68 30 0 62
 63 38 -.015 .05 .021 29 38 33 0 35 68 36 -.06 .03 .021 18 35 31 0 69 27 62 38 ?
1 17 69 0 29 31 66 35 70 71 0 72 +15 255 29 4 0 30 73 0 17 31 0 29 26 69 27 74 7
5 0 50 +17 66 0 29 69 30 62 61 67 0 65 +17 70 0 76 77 72 62 69 71 0 0 -16 71 13
 78 ?69 75 67 79 0 0 1 17 72 0 76 70 46 35 51 80 0 74 -15 76 104 0 46 81 0 17 46
 0 76 72 77 45 82 83 0 51 +17 51 0 49 48 74 45 72 80 0 52 +16 80 97 84 ?51 25 85
 86 0 0 1 17 74 0 49 51 50 35 31 75 0 0 -15 49 102 0 48 87 0 17 50 0 49 74 48 27
 54 85 0 32 -16 75 17 88 ?31 33 71 89 0 0 1 81 3 88 428 90 75 0 0 84 91 92 0 0 1
6 33 21 91 ?26 93 75 94 0 0 1 30 89 19 0 75 79 94 0 +-.06 0 .021 0 -1 0 30 79 15
 0 71 95 89 0 +-.06 .03 .021 -.913811548620257 -.406138466053448 0 30 94 23 0 33
 89 96 0 +0 0 .021 1 0 0 30 96 89 0 97 94 98 0 +-620494247325668e-33 .05 -.021 -
1240988494651334e-32 1 0 16 97 75 99 ?100 101 102 96 0 0 1 30 98 88 0 101 96 103
 0 +-.015 .05 -.021 -1 0 0 16 101 71 104 ?44 83 97 98 0 0 1 30 103 87 0 83 98 10
5 0 +-.06 .03 -.021 -.913811548620257 -.406138466053448 0 16 83 67 106 ?46 53 10
1 103 0 0 1 30 105 86 0 53 103 107 0 +-.06 0 -.021 0 -1 0 16 53 63 108 ?48 59 83
 105 0 0 1 30 107 85 0 59 105 109 0 +0 0 -.021 1 0 0 16 59 59 110 ?55 111 53 107
 0 0 1 30 109 115 0 93 107 112 0 +0 0 .021 0 0 -1 16 93 95 113 ?60 85 33 109 0 0
 1 30 112 116 0 85 109 86 0 +-.06 0 .021 0 0 -1 16 85 96 114 ?54 80 93 112 0 0 1
 30 86 117 0 80 112 19 0 +-.06 .03 .021 0 0 -1 30 19 118 0 25 86 7 0 +-.015 .05
 .021 0 0 -1 16 25 98 115 ?77 10 80 19 0 0 1 81 3 115 437 90 25 0 0 114 116 117
 0 0 17 77 0 76 46 70 42 65 25 0 82 +17 65 0 64 61 44 62 77 25 0 70 -17 82 0 118
 41 52 42 46 83 0 0 -15 118 58 0 119 120 0 17 41 0 118 119 82 39 44 101 0 24 -17
 52 0 118 82 58 45 48 53 0 0 -17 58 0 118 52 119 47 55 59 0 0 -17 119 0 118 58 4
1 20 100 97 0 0 -17 100 0 121 122 60 39 119 97 0 0 +15 121 108 0 100 16 0 17 122
 0 121 123 100 56 24 10 0 0 -17 60 0 121 100 123 20 34 93 0 119 +17 123 0 121 60
 122 11 30 111 0 0 -17 34 0 57 32 55 11 60 93 0 123 -15 57 100 0 55 124 0 17 32
 0 57 54 34 27 26 33 0 0 -17 54 0 57 55 32 47 50 85 0 58 +14 255 124 101 125 ?73
 87 57 5 126 -0 0 73 87 22 81 3 125 439 127 124 128 0 0 129 130 0 0 14 73 1 129
 ?120 124 29 5 131 -0 0 120 124 22 14 87 103 132 ?124 81 49 5 133 -0 0 124 81 22
 50 126 110 0 124 134 133 0 +0 0 .021 0 1 0 0 0 1 13 22 41 0 0 0 0 0 0 9 16 14 1
6 109 135 ?136 0 137 5 6 -0 0 136 0 22 81 3 135 445 127 16 138 0 132 139 140 0 0
 14 136 107 139 ?81 16 64 5 18 -0 0 81 16 22 15 137 168 0 141 16 121 17 141 0 13
7 141 141 0 142 143 0 0 -17 142 0 144 142 142 0 141 143 0 0 +16 143 177 116 ?142
 102 0 145 0 0 1 81 3 116 448 90 143 0 0 115 146 147 0 0 16 102 174 146 ?148 97
 143 149 0 0 1 31 255 145 196 0 143 149 150 0 +-310247123662834e-33 .025 0 1 124
0988494651336e-32 0 -1240988494651336e-32 1 0 .009 31 149 197 0 102 0 145 0 +-.0
4 .025 0 1 1240988494651336e-32 0 -1240988494651336e-32 1 0 .009 30 150 7 0 111
 145 95 0 +-620494247325668e-33 .05 .021 -1240988494651334e-32 1 0 16 111 5 151
 ?30 67 59 150 0 0 1 30 95 11 0 67 150 79 0 +-.015 .05 .021 -1 0 0 16 67 9 152 ?
66 71 111 95 0 0 1 81 3 152 451 90 67 0 0 151 0 153 0 0 80 255 3 90 127 154 9000
 0 0 0 0 3 5 0 0 0 FFFFFFTFFFFFFF1 1 1 81 3 151 450 90 111 0 0 146 152 155 0 0 8
2 255 6 153 18 1394923801 31037662 0 983176170 955684247 81 3 146 449 90 102 0 0
 116 151 156 0 0 82 6 155 19 1394923801 31037662 0 983176170 955684247 82 6 156
 25 1394923801 31037662 0 983176170 955684247 79 255 18 154 DOWNSTREAM_EDGE_ID17
 30 0 29 66 26 56 123 111 0 122 +17 148 0 157 148 148 0 158 102 0 0 +15 157 187
 0 148 159 0 17 158 0 160 158 158 0 148 102 0 0 -15 160 183 0 158 161 144 14 161
 180 162 ?159 120 160 5 163 -0 0 159 120 22 15 144 184 0 142 161 0 81 3 162 453
 127 161 164 0 139 165 166 0 0 14 159 185 165 ?0 161 157 5 167 +0 0 0 161 22 14
 120 57 168 ?161 73 118 5 134 +0 0 161 73 22 51 255 163 193 0 161 167 131 0 +-.0
4 .025 0 1 1240988494651336e-32 0 .009 -1240988494651336e-32 1 0 50 167 195 0 15
9 0 163 0 +-.04 .025 0 1 1240988494651336e-32 0 -1240988494651336e-32 1 0 50 131
 3 0 73 163 134 0 +0 0 .021 0 0 -1 -1 0 0 50 134 84 0 120 131 126 0 +0 0 -.021 0
 0 -1 -1 0 0 81 3 168 457 127 120 169 0 165 170 171 0 0 80 3 127 172 173 9000 0
 0 0 0 3 5 0 0 0 FFFFTFFFFFFFFF1 1 1 81 1 169 456 174 120 175 168 176 177 178 81
 3 165 455 127 159 176 0 162 168 179 0 0 81 3 170 459 127 81 177 0 168 0 180 0 0
 82 6 171 7 1394923801 31037662 0 983176170 955684247 14 81 105 170 ?87 136 76 5
 181 -0 0 87 136 22 81 1 177 458 174 81 182 170 169 0 183 82 6 180 3 1394923801
 31037662 0 983176170 955684247 80 1 174 184 185 9000 1 1 1 1 1 1 1 1 0 FFFFTFTF
FFFFFF1 81 1 182 372 186 81 0 177 187 188 189 82 1 183 -1981480857 80 1 186 0 19
0 8001 0 0 0 0 3 5 0 0 0 FFFFTFTFFFFFFF2 81 1 187 371 186 136 0 191 192 182 193
 81 1 188 373 186 87 0 194 182 195 196 83 255 3 189 .815686274509804 .4941176470
58824 1 81 1 194 442 174 87 188 132 197 138 198 81 1 195 374 186 124 0 128 188 1
99 200 83 3 196 .815686274509804 .494117647058824 1 81 1 128 438 174 124 195 125
 0 197 201 81 1 199 375 186 73 0 197 195 175 202 83 3 200 .815686274509804 .4941
17647058824 1 81 1 197 440 174 73 199 129 128 194 203 81 1 175 376 186 120 0 169
 199 204 205 83 3 202 .815686274509804 .494117647058824 1 81 1 204 377 186 161 0
 164 175 206 207 83 3 205 .815686274509804 .494117647058824 1 81 1 164 452 174 1
61 204 162 191 176 208 81 1 206 378 186 159 0 176 204 0 209 83 3 207 .8156862745
09804 .494117647058824 1 81 1 176 454 174 159 206 165 164 169 210 83 3 209 .8156
86274509804 .494117647058824 1 82 1 210 345243754 81 1 191 446 174 136 187 139 1
38 164 211 82 1 208 347209834 81 3 139 447 127 136 191 0 135 162 212 0 0 81 1 13
8 444 174 16 192 135 194 191 213 82 1 211 -1981218713 81 1 192 370 186 16 0 138
 0 187 214 82 1 213 -1980956566 83 3 214 .815686274509804 .494117647058824 1 82
 6 212 2 1394923801 31037662 0 983176170 955684247 81 3 129 441 127 73 197 0 125
 132 215 0 0 82 1 203 -1989935001 81 3 132 443 127 87 194 0 129 135 216 0 0 82 6
 215 6 1394923801 31037662 0 983176170 955684247 82 6 216 4 1394923801 31037662
 0 983176170 955684247 82 1 201 -1982005145 82 1 198 -1981743001 83 3 193 .81568
6274509804 .494117647058824 1 79 15 190 SDL/TYSA_COLOUR79 14 185 SWEntUnchanged5
0 181 112 0 81 133 18 0 +-.06 .03 .021 .406138466053448 -.913811548620257 0 .913
811548620257 .406138466053448 0 50 133 111 0 87 126 181 0 +-.06 0 .021 1 0 0 0 0
 -1 50 18 113 0 136 181 6 0 +-.015 .05 .021 0 -1 0 0 0 -1 82 6 179 9 1394923801
 31037662 0 983176170 955684247 82 1 178 -1983119257 79 18 173 DOWNSTREAM_FACE_I
D82 6 166 8 1394923801 31037662 0 983176170 955684247 82 6 147 26 1394923801 310
37662 0 983176170 955684247 15 64 106 0 44 136 0 17 44 0 64 65 24 42 41 101 0 77
 +17 24 0 64 44 61 39 122 10 0 100 +82 6 140 1 1394923801 31037662 0 983176170 9
55684247 82 6 130 5 1394923801 31037662 0 983176170 955684247 81 3 114 436 90 85
 0 0 113 115 217 0 0 82 6 117 11 1394923801 31037662 0 983176170 955684247 81 3
 113 435 90 93 0 0 110 114 218 0 0 82 6 217 13 1394923801 31037662 0 983176170 9
55684247 81 3 110 434 90 59 0 0 108 113 219 0 0 82 6 218 14 1394923801 31037662
 0 983176170 955684247 81 3 108 433 90 53 0 0 106 110 220 0 0 82 6 219 20 139492
3801 31037662 0 983176170 955684247 81 3 106 432 90 83 0 0 104 108 221 0 0 82 6
 220 21 1394923801 31037662 0 983176170 955684247 81 3 104 431 90 101 0 0 99 106
 222 0 0 82 6 221 22 1394923801 31037662 0 983176170 955684247 81 3 99 430 90 97
 0 0 91 104 223 0 0 82 6 222 23 1394923801 31037662 0 983176170 955684247 81 3 9
1 429 90 33 0 0 88 99 224 0 0 82 6 223 24 1394923801 31037662 0 983176170 955684
247 82 6 224 15 1394923801 31037662 0 983176170 955684247 81 3 84 427 90 80 0 0
 78 88 225 0 0 82 6 92 16 1394923801 31037662 0 983176170 955684247 81 3 78 426
 90 71 0 0 23 84 226 0 0 82 6 225 12 1394923801 31037662 0 983176170 955684247 8
1 3 23 425 90 10 0 0 0 78 227 0 0 82 6 226 17 1394923801 31037662 0 983176170 95
5684247 82 6 227 10 1394923801 31037662 0 983176170 955684247 19 17 121 0 1 0 9
 5 S0 74 4 CI16 index_map_offset0 0 1 dCCZ20 15 10 0 0 228 229 177 230 231 170 1
52 13 206 2 0 0 0 0 0 0 0 0 0 0 81 2 228 149 232 1 0 229 0 0 0 233 81 2 229 153
 234 1 228 230 0 0 0 235 81 2 230 217 236 1 229 231 0 0 237 0 81 2 231 253 238 1
 230 13 0 0 0 239 81 2 13 367 240 1 231 2 0 0 0 0 80 2 240 241 242 9000 0 0 0 0
 3 5 0 0 0 FFTFFFFFFFFFFF9 1 79 16 242 BODY_RECIPE_200180 2 238 243 244 9000 0 0
 0 0 3 5 0 0 0 FFTFFFFFFFFFFF9 1 82 1 239 1 79 24 244 BODY_IN_LIGHTWEIGHT_PERM80
 2 236 245 246 8004 0 0 0 0 3 5 0 0 0 FFTFFFFFFFFFFF2 3 83 1 237 1 79 16 246 SDL
/TYSA_DENSITY80 2 234 247 248 9000 0 0 0 0 3 5 0 0 0 FFTFFFFFFFFFFF9 1 82 1 235
 52 79 30 248 LAST_BODY_MODIFYING_FEATURE_ID80 2 232 249 250 9000 0 0 0 0 3 5 0
 0 0 FFTFFFFFFFFFFT9 1 82 1 233 105 79 19 250 ENT_TIME_STAMP_200180 2 12 251 252
 9000 0 0 0 0 3 5 0 0 0 FFTFFFFFFFFFFF9 1 82 1 14 102 79 12 252 ATOM_ID_20011 0
 
