**ABCDEFGHIJKLMNOPQRSTUVWXYZabcdefghijklmnopqrstuvwxyz**************************
**PARASOLID !"#$%&'()*+,-./:;<=>?@[\]^_`{|}~0123456789**************************
**PART1;
MC=AMD64;
MC_MODEL=Intel64 Family 6 Model 142 Stepping 12, GenuineIntel;
MC_ID=unknown;
OS=Windows_NT;
OS_RELEASE=unknown;
FRU=Parasolid Version 33.1, build 247,  8- 6-2021;
APPL=SOLIDWORKS 2022-2022009;
SITE=;
USER=unknown;
FORMAT=text;
GUISE=transmit;
KEY=FILEPart 1.x_t;
DATE=Thu Jun 15 06:00:51 2023;
**PART2;
SCH=SCH_3301247_33103;
USFLD_SIZE=0;
**PART3;
**END_OF_HEADER*****************************************************************
T51 : TRANSMIT FILE created by modeller version 330124723 SCH_3301247_33103_1300
6230 0 12 35 CCCI7 lattice222 0 CCCI4 mesh1006 0 I8 polyline1008 0 CCCCCCCDI5 ow
ner1040 0 CCCCCCI13 boundary_mesh1006 0 I17 boundary_polyline1008 0 CCCA16 index
_map_offset0 0 1 dA9 index_map82 0 A17 node_id_index_map82 0 A20 schema_embeddin
g_map82 0 A5 child12 0 A14 lowest_node_id0 0 1 dA16 mesh_offset_data206 0 Z1 180
9 2 3 0 0 0 0 0 0 0 1e3 1e-8 0 4 0 1 0 1 1 5 6 7 8 0 0 9 10 11 0 0 0 0 0 0 0 81
 255 2 2 1695 12 1 13 0 0 0 0 14 70 11 CI9 list_type0 0 1 uI10 notransmit0 0 1 l
CCCDCCDI12 finger_index0 0 1 dI12 finger_block1012 0 CZ3 0 4 T1 0 0 10 20 1 15 1
5 13 255 5 225 0 1 0 16 0 0 17 0 50 255 6 214 0 18 19 0 0 +-.205 0 .05 0 1 0 0 0
 1 31 255 7 784 0 20 21 0 0 +-.123 .015 .035 1040834085586084e-31 -1 0 1 1040834
085586084e-31 0 .004 29 255 8 364 0 11 22 0 -.105 .02 -.021 19 8 CCCCCCCA5 owner
12 0 Z9 75 0 1 17 0 23 V0 16 255 10 184 24 ?25 0 26 27 0 0 1 18 255 11 362 0 28
 0 29 8 ?1 17 255 28 0 30 31 32 11 33 34 0 35 +18 29 72 0 36 11 37 38 ?1 17 36 0
 39 40 41 29 42 43 0 44 +18 37 69 0 41 29 45 46 ?1 29 38 74 0 29 46 47 -.205 0 .
05 29 46 71 0 37 48 38 -.205 .02 .05 29 47 174 0 49 38 50 0 0 -.05 18 49 153 0 5
1 52 53 47 ?1 29 50 173 0 52 47 54 0 .015 -.05 18 52 152 0 55 56 49 50 ?1 29 54
 172 0 56 50 57 -.025 .015 -.05 18 56 151 0 58 59 52 54 ?1 29 57 171 0 59 54 60
 -.025 .085 -.05 18 59 150 0 61 62 56 57 ?1 29 60 170 0 62 57 63 -.045 .085 -.05
 18 62 149 0 64 65 59 60 ?1 29 63 169 0 65 60 66 -.045 .035 -.05 18 65 148 0 67
 68 62 63 ?1 29 66 168 0 68 63 69 -.105 .035 -.05 18 68 147 0 70 71 65 66 ?1 29
 69 167 0 71 66 72 -.105 .02 -.05 18 71 146 0 31 73 68 69 ?1 29 72 166 0 73 69 2
2 -.205 .02 -.05 18 73 145 0 74 75 71 72 ?1 29 22 165 0 75 72 8 -.205 0 -.05 18
 75 144 0 76 77 73 22 ?1 17 76 0 78 44 79 75 80 81 0 82 +18 77 45 0 83 84 75 85
 ?1 17 83 0 86 25 87 77 88 89 0 40 -18 84 48 0 88 90 77 91 ?1 29 85 47 0 77 92 9
1 0 0 .05 29 92 470 0 93 94 85 -.105 .02 .021 29 91 50 0 84 85 95 0 .015 .05 29
 95 53 0 90 91 96 -.025 .015 .05 18 90 51 0 97 98 84 95 ?1 29 96 56 0 98 95 99 -
.025 .085 .05 18 98 54 0 100 101 90 96 ?1 29 99 59 0 101 96 102 -.045 .085 .05 1
8 101 57 0 103 104 98 99 ?1 29 102 62 0 104 99 105 -.045 .035 .05 18 104 60 0 10
6 107 101 102 ?1 29 105 65 0 107 102 48 -.105 .035 .05 18 107 63 0 108 45 104 10
5 ?1 29 48 68 0 45 105 46 -.105 .02 .05 18 45 66 0 109 37 107 48 ?1 17 109 0 39
 41 108 45 110 111 0 112 +15 255 39 4 0 40 113 0 17 41 0 39 36 109 37 114 115 0
 116 +17 108 0 39 109 106 107 117 118 0 119 +17 110 0 120 121 112 107 109 111 0
 0 -16 111 33 122 ?109 115 118 123 0 0 1 17 112 0 120 110 124 45 125 126 0 114 -
15 120 372 0 121 127 0 17 124 0 120 112 121 93 128 129 0 125 -17 125 0 30 130 11
4 93 112 126 0 0 +16 126 177 131 ?125 132 133 134 133 133 1 17 114 0 30 125 116
 45 41 115 0 0 -15 30 187 0 74 16 135 17 116 0 30 114 74 37 79 136 0 42 -16 115
 37 137 ?41 43 111 138 0 0 1 81 3 137 1699 139 115 0 0 131 140 141 0 0 16 43 41
 140 ?36 142 115 143 0 0 1 30 255 138 39 0 115 123 143 0 +-.105 .02 .05 -1 -1040
834085586084e-31 0 30 123 35 0 111 144 138 0 +-.105 .035 .05 0 -1 0 30 143 43 0
 43 138 145 0 +-.205 .02 .05 0 -1 0 30 145 164 0 146 143 147 0 +-.205 0 -.05 1 0
 0 16 146 140 148 ?149 150 151 145 0 0 1 30 147 163 0 150 145 152 0 +0 0 -.05 0
 1 0 16 150 136 153 ?55 154 146 147 0 0 1 30 152 162 0 154 147 155 0 +0 .015 -.0
5 -1 -1387778780781446e-31 0 16 154 132 156 ?58 157 150 152 0 0 1 30 155 161 0 1
57 152 158 0 +-.025 .015 -.05 0 1 0 16 157 128 159 ?61 160 154 155 0 0 1 30 158
 160 0 160 155 161 0 +-.025 .085 -.05 -1 0 0 16 160 124 162 ?64 163 157 158 0 0
 1 30 161 159 0 163 158 164 0 +-.045 .085 -.05 277555756156289e-30 -1 0 16 163 1
20 165 ?166 167 160 161 0 0 1 30 164 158 0 167 161 168 0 +-.045 .035 -.05 -1 -11
56482317317872e-31 0 16 167 116 169 ?170 171 163 164 0 0 1 30 168 157 0 171 164
 172 0 +-.105 .035 -.05 0 -1 0 16 171 112 173 ?174 175 167 168 0 0 1 30 172 156
 0 175 168 176 0 +-.105 .02 -.05 -1 -1040834085586084e-31 0 16 175 108 177 ?74 8
1 171 172 0 0 1 30 176 155 0 81 172 178 0 +-.205 .02 -.05 0 -1 0 16 81 104 179 ?
76 180 175 176 0 0 1 30 178 215 0 142 176 181 0 +-.205 0 .05 0 0 -1 16 142 175 1
82 ?82 136 43 178 0 0 1 30 181 216 0 136 178 134 0 +-.205 .02 .05 0 0 -1 16 136
 176 183 ?79 133 142 181 0 0 1 30 134 217 0 126 181 184 0 +-.105 .02 .05 0 0 -1
 30 184 218 0 185 134 186 0 +-.105 .035 .05 0 0 -1 16 185 178 187 ?121 188 132 1
84 132 132 1 30 186 219 0 189 184 190 0 +-.045 .035 .05 0 0 -1 16 189 179 191 ?1
92 193 188 186 188 188 1 30 190 220 0 193 186 194 0 +-.045 .085 .05 0 0 -1 16 19
3 180 195 ?196 197 189 190 0 0 1 30 194 221 0 197 190 198 0 +-.025 .085 .05 0 0
 -1 16 197 181 199 ?200 201 193 194 0 0 1 30 198 222 0 201 194 202 0 +-.025 .015
 .05 0 0 -1 16 201 182 203 ?204 26 197 198 0 0 1 30 202 223 0 26 198 27 0 +0 .01
5 .05 0 0 -1 16 26 183 205 ?206 10 201 202 0 0 1 30 27 224 0 10 202 207 0 +0 0 .
05 0 0 -1 31 207 300 0 208 27 209 0 +-.045 .045 0 1 277555756156289e-30 0 -27755
5756156289e-30 1 0 .009 16 208 309 210 ?211 151 129 207 0 0 1 31 209 533 0 212 2
07 213 0 +-.0125 .015 -.035 1387778780781446e-31 -1 0 1 1387778780781446e-31 0 .
004 16 212 678 214 ?215 216 217 209 0 0 1 31 213 539 0 216 209 21 0 --.0125 .015
 .035 1387778780781446e-31 -1 0 1 1387778780781446e-31 0 .004 16 216 615 218 ?21
9 220 212 213 0 0 1 31 21 778 0 221 213 7 0 --.123 .015 -.035 -1040834085586084e
-31 1 0 -1 -1040834085586084e-31 0 .004 16 221 895 222 ?223 20 224 21 0 0 1 81 3
 222 1722 139 221 0 0 218 225 226 0 0 17 223 0 227 223 223 0 228 221 0 0 +16 20
 814 225 ?229 230 221 7 0 0 1 16 224 892 231 ?232 221 233 234 0 0 1 81 3 231 172
4 139 224 0 0 225 235 236 0 0 17 232 0 237 232 232 0 238 224 0 0 +16 233 888 235
 ?239 224 240 241 0 0 1 31 234 940 0 224 242 241 0 +-.123 .015 -.035 -1040834085
586084e-31 1 0 -1 -1040834085586084e-31 0 .0075 31 242 941 0 243 244 234 0 +-.12
3 .015 .035 1040834085586084e-31 -1 0 1 1040834085586084e-31 0 .0075 31 241 939
 0 233 234 245 0 +-.123 .02 -.035 -1040834085586084e-31 1 0 -1 -1040834085586084
e-31 0 .0075 31 245 739 0 246 241 247 0 +-.1825 .02 .017 1040834085586084e-31 -1
 0 1 1040834085586084e-31 0 .003 16 246 657 248 ?249 250 230 245 0 0 1 31 247 73
8 0 230 245 251 0 +-.1825 -1387778780781446e-32 .017 1040834085586084e-31 -1 0 1
 1040834085586084e-31 0 .003 16 230 660 252 ?253 246 20 247 0 0 1 31 251 736 0 2
54 247 255 0 +-.123 -1387778780781446e-32 -.035 -1040834085586084e-31 1 0 -1 -10
40834085586084e-31 0 .004 16 254 579 256 ?257 217 258 251 0 0 1 31 255 735 0 258
 251 259 0 +-.1825 .02 -.017 -1040834085586084e-31 1 0 -1 -1040834085586084e-31
 0 .003 16 258 600 260 ?261 254 262 255 0 0 1 31 259 734 0 262 255 263 0 +-.1825
 -1387778780781446e-32 -.017 -1040834085586084e-31 1 0 -1 -1040834085586084e-31
 0 .003 16 262 597 264 ?265 258 266 259 0 0 1 31 263 732 0 266 259 267 0 +-.0125
 0 .035 1040834085586084e-31 -1 0 1 1040834085586084e-31 0 .004 16 266 619 268 ?
269 262 250 263 0 0 1 31 267 730 0 250 263 270 0 +-.123 -1387778780781446e-32 .0
35 1040834085586084e-31 -1 0 1 1040834085586084e-31 0 .004 16 250 642 271 ?272 2
66 246 267 0 0 1 31 270 729 0 217 267 273 0 +-.0125 0 -.035 -1040834085586084e-3
1 1 0 -1 -1040834085586084e-31 0 .004 16 217 675 274 ?275 212 254 270 0 0 1 30 2
73 469 0 276 270 277 0 +-.105 .035 -.021 -1 -1156482317317872e-31 0 16 276 407 2
78 ?279 280 220 273 0 0 1 30 277 467 0 220 273 281 0 +-.105 .035 .021 1 11564823
17317872e-31 0 16 220 401 282 ?283 276 216 277 0 0 1 30 281 465 0 280 277 284 0
 +-.105 .02 .021 1 1040834085586084e-31 0 16 280 410 285 ?130 286 276 281 0 0 1
 30 284 463 0 34 281 287 0 +-.105 .02 -.021 -1 -1040834085586084e-31 0 16 34 414
 288 ?28 289 290 284 0 0 1 30 287 462 0 291 284 292 0 +-.045 .02 -.021 0 0 -1 16
 291 412 293 ?32 290 286 287 0 0 1 30 292 461 0 289 287 294 0 +-.105 -.053239333
6944022 -.021 -1156482317317872e-31 1 0 16 289 415 295 ?296 129 34 292 0 0 1 30
 294 460 0 290 292 297 0 +-.045 -.0532393336944022 -.021 -1156482317317872e-31 1
 0 16 290 413 298 ?299 34 291 294 0 0 1 30 297 459 0 286 294 300 0 +-.045 -.0532
393336944022 .021 -1156482317317872e-31 1 0 16 286 411 301 ?302 291 280 297 0 0
 1 30 300 458 0 129 297 303 0 +-.105 -.0532393336944022 .021 -1156482317317872e-
31 1 0 16 129 417 304 ?128 208 289 300 0 0 1 31 303 343 0 151 300 305 0 +-.025 .
045 0 -1 0 0 0 0 1 .009 16 151 310 306 ?307 146 208 303 0 0 1 30 305 7 0 180 303
 308 0 +-.205 0 .05 1 0 0 16 180 5 309 ?40 89 81 305 0 0 1 30 308 11 0 89 305 31
0 0 +0 0 .05 0 1 0 16 89 9 311 ?88 312 180 308 0 0 1 30 310 15 0 312 308 313 0 +
0 .015 .05 -1 -1387778780781446e-31 0 16 312 13 314 ?97 315 89 310 0 0 1 30 313
 19 0 315 310 316 0 +-.025 .015 .05 0 1 0 16 315 17 317 ?100 318 312 313 0 0 1 3
0 316 23 0 318 313 319 0 +-.025 .085 .05 -1 0 0 16 318 21 320 ?103 321 315 316 0
 0 1 30 319 27 0 321 316 144 0 +-.045 .085 .05 277555756156289e-30 -1 0 16 321 2
5 322 ?106 118 318 319 0 0 1 30 144 31 0 118 319 123 0 +-.045 .035 .05 -1 -11564
82317317872e-31 0 16 118 29 323 ?108 111 321 144 0 0 1 81 3 323 1750 139 118 0 0
 322 324 325 0 0 80 255 3 139 326 327 9000 0 0 0 0 3 5 0 0 0 FFFFFFTFFFFFFF1 1 1
 81 3 322 1749 139 321 0 0 320 323 328 0 0 81 3 324 1751 139 188 0 0 323 329 330
 0 0 82 255 6 325 44 1699431555 31037663 0 149933196 684029649 16 188 385 324 ?6
7 189 185 186 189 189 1 81 3 329 1752 139 132 0 0 324 331 332 0 0 82 6 330 34 16
99431555 31037663 0 149933196 684029649 16 132 369 329 ?70 185 126 184 185 185 1
 81 3 331 1753 139 133 0 0 329 333 334 0 0 82 6 332 36 1699431555 31037663 0 149
933196 684029649 16 133 363 331 ?31 126 136 134 126 126 1 81 3 333 1754 139 240
 0 0 331 335 336 0 0 82 6 334 38 1699431555 31037663 0 149933196 684029649 16 24
0 815 333 ?337 233 243 244 0 0 1 81 3 335 1755 139 243 0 0 333 0 338 0 0 82 6 33
6 86 1699431555 31037663 0 149933196 684029649 16 243 818 335 ?339 240 0 242 0 0
 1 82 6 338 87 1699431555 31037663 0 149933196 684029649 17 339 0 340 339 339 0
 341 243 0 0 +15 340 831 0 339 342 343 17 341 0 344 341 341 0 339 243 0 0 -15 34
4 836 0 341 345 0 14 255 345 833 346 ?0 342 347 5 348 -0 0 0 342 23 81 1 346 175
7 349 345 350 0 0 351 352 14 342 828 351 ?345 353 340 5 354 +0 0 345 353 23 15 3
47 835 0 229 345 344 50 348 926 0 345 354 355 0 +-.123 .015 .035 104083408558608
4e-31 -1 0 1 1040834085586084e-31 0 13 23 76 0 0 0 0 0 0 9 16 14 16 798 356 ?357
 0 30 5 358 -0 0 357 0 23 81 1 356 1761 349 16 359 0 351 360 361 14 357 779 360
 ?18 16 362 5 363 -0 0 18 16 23 50 358 206 0 16 364 365 0 +-.105 .02 .05 1040834
085586084e-31 -1 0 1 1040834085586084e-31 0 50 364 205 0 366 367 358 0 +-.205 .0
2 .05 1 0 0 0 0 -1 50 365 207 0 368 358 369 0 +-.105 .035 .05 1 0 0 0 0 -1 14 36
8 190 370 ?366 371 372 5 365 -127 127 366 371 23 50 369 208 0 371 365 373 0 +-.0
45 .035 .05 1156482317317872e-31 -1 0 1 1156482317317872e-31 0 14 371 192 374 ?3
68 375 376 5 369 -377 377 368 375 23 50 373 209 0 375 369 378 0 +-.045 .085 .05
 1 277555756156289e-30 0 -277555756156289e-30 1 0 14 375 194 379 ?371 380 381 5
 373 -0 0 371 380 23 50 378 210 0 380 373 382 0 +-.025 .085 .05 0 -1 0 0 0 -1 14
 380 196 383 ?375 384 385 5 378 -0 0 375 384 23 50 382 211 0 384 378 386 0 +-.02
5 .015 .05 -1 0 0 0 0 1 14 384 198 387 ?380 388 389 5 382 -0 0 380 388 23 50 386
 212 0 390 382 19 0 +0 .015 .05 1387778780781446e-31 -1 0 1 1387778780781446e-31
 0 14 390 540 391 ?377 18 392 5 386 -0 0 377 18 23 50 19 213 0 388 386 6 0 +0 0
 .05 -1 0 0 0 0 1 14 388 202 393 ?384 127 86 5 19 -0 0 384 127 23 81 1 393 1777
 349 388 394 0 391 395 396 14 127 374 395 ?388 377 120 5 365 -368 368 388 377 23
 15 86 201 0 55 388 0 17 55 0 86 87 25 52 51 150 0 206 +17 87 0 86 83 55 84 206
 26 0 397 -17 25 0 86 55 83 49 398 10 0 149 +17 51 0 399 400 401 49 55 150 0 25
 -17 206 0 402 58 397 52 87 26 0 401 +15 402 199 0 58 390 0 17 58 0 402 403 206
 56 401 154 0 204 +17 397 0 402 206 403 84 97 312 0 0 -17 401 0 399 51 404 52 58
 154 0 0 -15 399 103 0 400 405 0 17 404 0 399 401 406 56 61 157 0 0 -17 406 0 39
9 404 407 59 64 160 0 0 -17 61 0 408 409 204 59 404 157 0 200 +15 408 197 0 61 3
84 0 17 409 0 408 410 61 98 200 197 0 411 -17 204 0 408 61 410 56 403 201 0 404
 +17 200 0 385 64 411 59 409 197 0 406 +15 385 195 0 64 380 0 17 64 0 385 412 20
0 62 406 160 0 196 +17 411 0 385 200 412 98 103 318 0 0 -17 412 0 385 411 64 101
 196 193 0 413 -17 103 0 39 106 100 101 411 318 0 412 +17 106 0 39 108 103 104 4
13 321 0 414 +17 100 0 39 103 97 98 410 315 0 409 +17 97 0 39 100 88 90 397 312
 0 403 +17 410 0 408 204 409 90 100 315 0 0 -17 88 0 39 97 40 84 83 89 0 87 +17
 403 0 402 397 58 90 204 201 0 410 -17 40 0 39 88 36 77 415 180 0 398 +17 415 0
 416 82 398 29 40 180 0 0 -17 398 0 416 415 149 77 25 10 0 0 -15 416 203 0 149 1
8 417 17 149 0 416 398 82 49 400 146 0 0 +17 82 0 416 149 415 75 44 142 0 400 +1
7 400 0 399 80 51 75 149 146 0 0 -17 80 0 399 418 400 73 76 81 0 0 -17 418 0 399
 419 80 71 74 175 0 0 -17 419 0 399 420 418 68 174 171 0 0 -17 74 0 30 116 31 73
 418 175 0 79 +17 31 0 30 74 28 71 421 133 0 174 +17 79 0 78 76 42 73 116 136 0
 80 +15 78 185 0 76 366 0 17 42 0 78 79 44 37 36 43 0 0 -17 44 0 78 42 76 29 82
 142 0 415 -14 366 186 422 ?113 368 78 5 364 -0 0 113 368 23 81 1 422 1781 349 3
66 423 0 395 424 425 14 113 1 424 ?405 366 39 5 426 +0 0 405 366 23 81 1 424 178
3 349 113 427 0 422 428 429 14 405 102 428 ?430 113 399 5 367 -0 0 430 113 23 50
 426 3 0 113 431 367 0 +0 0 .05 0 0 1 1 0 0 51 255 431 340 0 430 432 426 0 +-.20
5 .045 0 1 0 0 .009 0 0 -1 50 367 154 0 405 426 364 0 +0 0 -.05 0 0 1 1 0 0 14 4
30 317 433 ?434 405 435 5 431 -0 0 434 405 23 50 432 453 0 434 436 431 0 +-.105
 -.0532393336944022 .021 0 0 1 1 0 0 14 434 434 437 ?438 430 439 5 432 -0 0 438
 430 23 50 436 455 0 438 440 432 0 +-.105 -.0532393336944022 -.021 0 0 -1 -1 0 0
 14 438 442 441 ?442 434 443 5 436 -0 0 442 434 23 51 440 710 0 444 445 436 0 +-
.0125 0 -.035 -1040834085586084e-31 1 0 .004 -1 -1040834085586084e-31 0 14 444 6
82 446 ?447 448 449 5 440 -0 0 447 448 23 51 445 715 0 450 451 440 0 --.123 -138
7778780781446e-32 .035 -1040834085586084e-31 1 0 .004 -1 -1040834085586084e-31 0
 14 450 645 452 ?448 442 453 5 445 +0 0 448 442 23 51 451 718 0 447 454 445 0 --
.0125 0 .035 -1040834085586084e-31 1 0 .004 -1 -1040834085586084e-31 0 14 447 62
2 455 ?456 444 457 5 451 +0 0 456 444 23 51 454 721 0 448 363 451 0 +-.1825 -138
7778780781446e-32 -.017 -1040834085586084e-31 1 0 .003 -1 -1040834085586084e-31
 0 14 448 603 458 ?444 450 459 5 454 -0 0 444 450 23 51 363 724 0 357 460 454 0
 +-.123 -1387778780781446e-32 -.035 -1040834085586084e-31 1 0 .004 -1 -104083408
5586084e-31 0 51 460 727 0 442 461 363 0 --.1825 -1387778780781446e-32 .017 -104
0834085586084e-31 1 0 .003 -1 -1040834085586084e-31 0 14 442 663 462 ?450 438 46
3 5 460 +0 0 450 438 23 51 461 923 0 353 355 460 0 +-.123 .015 -.035 -1040834085
586084e-31 1 0 .0075 -1 -1040834085586084e-31 0 14 353 904 464 ?342 456 465 5 46
1 -0 0 342 456 23 50 355 925 0 456 348 461 0 +-.123 .015 -.035 -1040834085586084
e-31 1 0 -1 -1040834085586084e-31 0 14 456 896 466 ?353 447 237 5 355 +0 0 353 4
47 23 81 1 466 1805 349 456 467 0 464 468 469 15 237 898 0 232 456 227 15 227 89
9 0 223 456 0 80 1 349 470 471 9000 1 1 1 1 1 1 1 1 0 FFFFTFTFFFFFFF1 81 3 467 1
804 326 456 472 466 473 474 475 0 0 81 1 464 1803 349 353 473 0 462 466 476 81 1
 468 1807 349 377 474 0 466 477 478 82 1 469 -1072496523 14 377 390 468 ?127 390
 479 5 369 -371 371 127 390 23 81 3 474 1806 326 377 480 468 467 481 482 0 0 81
 1 477 1809 349 18 481 0 468 0 483 82 1 478 -1099169681 14 18 564 477 ?390 357 4
84 5 6 -0 0 390 357 23 81 3 481 1808 326 18 485 477 474 0 486 0 0 82 1 483 10310
78003 80 3 326 487 488 9000 0 0 0 0 3 5 0 0 0 FFFFTFFFFFFFFF1 1 1 81 1 485 1526
 489 18 0 481 490 491 492 82 6 486 3 1699431555 31037663 0 149933196 684029649 8
0 1 489 0 493 8001 0 0 0 0 3 5 0 0 0 FFFFTFTFFFFFFF2 81 1 490 1525 489 357 0 494
 495 485 496 81 1 491 1527 489 390 0 497 485 480 498 83 255 3 492 1 .16862745098
0392 .168627450980392 81 3 497 1774 326 390 491 391 499 394 500 0 0 81 1 480 152
8 489 377 0 474 491 501 502 83 3 498 1 .168627450980392 .168627450980392 81 1 50
1 1529 489 127 0 503 480 504 505 83 3 502 1 .168627450980392 .168627450980392 81
 3 503 1778 326 127 501 395 394 423 506 0 0 81 1 504 1530 489 388 0 394 501 507
 508 83 3 505 1 .168627450980392 .168627450980392 81 3 394 1776 326 388 504 393
 497 503 509 0 0 81 1 507 1531 489 384 0 499 504 510 511 83 3 508 1 .16862745098
0392 .168627450980392 81 3 499 1772 326 384 507 387 512 497 513 0 0 81 1 510 153
2 489 380 0 512 507 514 515 83 3 511 1 .168627450980392 .168627450980392 81 3 51
2 1770 326 380 510 383 516 499 517 0 0 81 1 514 1533 489 375 0 516 510 518 519 8
3 3 515 1 .168627450980392 .168627450980392 81 3 516 1768 326 375 514 379 520 51
2 521 0 0 81 1 518 1534 489 371 0 520 514 522 523 83 3 519 1 .168627450980392 .1
68627450980392 81 3 520 1766 326 371 518 374 524 516 525 0 0 81 1 522 1535 489 3
68 0 524 518 526 527 83 3 523 1 .168627450980392 .168627450980392 81 3 524 1764
 326 368 522 370 494 520 528 0 0 81 1 526 1536 489 366 0 423 522 529 530 83 3 52
7 1 .168627450980392 .168627450980392 81 3 423 1780 326 366 526 422 503 427 531
 0 0 81 1 529 1537 489 113 0 427 526 532 533 83 3 530 1 .168627450980392 .168627
450980392 81 3 427 1782 326 113 529 424 423 534 535 0 0 81 1 532 1538 489 405 0
 534 529 536 537 83 3 533 1 .168627450980392 .168627450980392 81 3 534 1784 326
 405 532 428 427 538 539 0 0 81 1 536 1539 489 430 0 538 532 540 541 83 3 537 1
 .168627450980392 .168627450980392 81 3 538 1786 326 430 536 433 534 542 543 0 0
 81 1 540 1540 489 434 0 542 536 544 545 83 3 541 1 .168627450980392 .1686274509
80392 81 3 542 1788 326 434 540 437 538 546 547 0 0 81 1 544 1541 489 438 0 546
 540 548 549 83 3 545 1 .168627450980392 .168627450980392 81 3 546 1790 326 438
 544 441 542 550 551 0 0 81 1 548 1542 489 442 0 552 544 553 554 83 3 549 1 .168
627450980392 .168627450980392 81 3 552 1800 326 442 548 462 555 473 556 0 0 81 1
 553 1543 489 450 0 557 548 558 559 83 3 554 1 .168627450980392 .168627450980392
 81 3 557 1794 326 450 553 452 550 560 561 0 0 81 1 558 1544 489 448 0 555 553 5
62 563 83 3 559 1 .168627450980392 .168627450980392 81 3 555 1798 326 448 558 45
8 560 552 564 0 0 81 1 562 1545 489 444 0 550 558 565 566 83 3 563 1 .1686274509
80392 .168627450980392 81 3 550 1792 326 444 562 446 546 557 567 0 0 81 1 565 15
46 489 447 0 560 562 472 568 83 3 566 1 .168627450980392 .168627450980392 81 3 5
60 1796 326 447 565 455 557 555 569 0 0 81 1 472 1547 489 456 0 467 565 570 571
 83 3 568 1 .168627450980392 .168627450980392 81 1 570 1548 489 353 0 473 472 57
2 573 83 3 571 1 .168627450980392 .168627450980392 81 3 473 1802 326 353 570 464
 552 467 574 0 0 81 1 572 1549 489 342 0 575 570 576 577 83 3 573 1 .16862745098
0392 .168627450980392 81 3 575 1758 326 342 572 351 350 359 578 0 0 81 1 576 155
0 489 345 0 350 572 0 579 83 3 577 1 .168627450980392 .168627450980392 81 3 350
 1756 326 345 576 346 0 575 580 0 0 83 3 579 1 .168627450980392 .168627450980392
 82 6 580 27 1699431555 31037663 0 149933196 684029649 81 1 351 1759 349 342 575
 0 346 356 581 81 3 359 1760 326 16 495 356 575 494 582 0 0 82 6 578 26 16994315
55 31037663 0 149933196 684029649 81 1 495 1524 489 16 0 359 0 490 583 81 3 494
 1762 326 357 490 360 359 524 584 0 0 82 6 582 1 1699431555 31037663 0 149933196
 684029649 81 1 360 1763 349 357 494 0 356 370 585 82 6 584 2 1699431555 3103766
3 0 149933196 684029649 81 1 370 1765 349 368 524 0 360 374 586 82 1 585 -107347
9563 81 1 374 1767 349 371 520 0 370 379 587 82 1 586 1677131887 81 1 379 1769 3
49 375 516 0 374 383 588 82 1 587 1677394031 81 1 383 1771 349 380 512 0 379 387
 589 82 1 588 1677656175 81 1 387 1773 349 384 499 0 383 391 590 82 1 589 167791
8311 81 1 391 1775 349 390 497 0 387 393 591 82 1 590 1678180460 82 1 591 102793
2277 83 3 583 1 .168627450980392 .168627450980392 82 1 581 -1081868171 82 6 574
 25 1699431555 31037663 0 149933196 684029649 81 1 455 1797 349 447 560 0 452 45
8 592 82 6 569 23 1699431555 31037663 0 149933196 684029649 81 1 452 1795 349 45
0 557 0 446 455 593 81 1 458 1799 349 448 555 0 455 462 594 82 1 592 1028915315
 81 1 462 1801 349 442 552 0 458 464 595 82 1 594 1000210547 82 1 595 1012269171
 81 1 446 1793 349 444 550 0 441 452 596 82 1 593 1008205941 81 1 441 1791 349 4
38 546 0 437 446 597 82 1 596 1028391027 81 1 437 1789 349 434 542 0 433 441 598
 82 1 597 -1110441873 81 1 433 1787 349 430 538 0 428 437 599 82 1 598 -11137186
73 81 1 428 1785 349 405 534 0 424 433 600 82 1 599 75825260 82 1 600 1674510439
 82 6 567 22 1699431555 31037663 0 149933196 684029649 82 6 564 21 1699431555 31
037663 0 149933196 684029649 82 6 561 20 1699431555 31037663 0 149933196 6840296
49 82 6 556 19 1699431555 31037663 0 149933196 684029649 82 6 551 18 1699431555
 31037663 0 149933196 684029649 82 6 547 17 1699431555 31037663 0 149933196 6840
29649 82 6 543 16 1699431555 31037663 0 149933196 684029649 82 6 539 15 16994315
55 31037663 0 149933196 684029649 82 6 535 14 1699431555 31037663 0 149933196 68
4029649 82 6 531 13 1699431555 31037663 0 149933196 684029649 82 6 528 12 169943
1555 31037663 0 149933196 684029649 82 6 525 11 1699431555 31037663 0 149933196
 684029649 82 6 521 10 1699431555 31037663 0 149933196 684029649 82 6 517 9 1699
431555 31037663 0 149933196 684029649 82 6 513 8 1699431555 31037663 0 149933196
 684029649 82 6 509 7 1699431555 31037663 0 149933196 684029649 81 1 395 1779 34
9 127 503 0 393 422 601 82 6 506 6 1699431555 31037663 0 149933196 684029649 82
 1 601 -1100742545 82 6 500 4 1699431555 31037663 0 149933196 684029649 83 3 496
 1 .168627450980392 .168627450980392 79 255 15 493 SDL/TYSA_COLOUR79 18 488 DOWN
STREAM_FACE_ID15 484 573 0 257 18 602 17 257 0 484 257 257 0 603 254 0 0 +15 602
 567 0 265 18 604 17 265 0 602 265 265 0 605 262 0 0 +15 604 543 0 275 18 416 17
 275 0 604 275 275 0 606 217 0 0 +17 606 0 449 606 606 0 275 217 0 0 -15 449 685
 0 606 444 607 15 607 686 0 608 444 0 17 608 0 607 608 608 0 215 212 0 0 -17 215
 0 609 215 215 0 608 212 0 0 +15 609 531 0 215 390 402 17 605 0 459 605 605 0 26
5 262 0 0 -15 459 606 0 605 448 610 15 610 607 0 261 448 0 17 261 0 610 261 261
 0 611 258 0 0 +17 611 0 612 611 611 0 261 258 0 0 -15 612 517 0 611 16 613 15 6
13 788 0 614 16 615 17 614 0 613 614 614 0 239 233 0 0 -15 615 796 0 337 16 0 17
 337 0 615 337 337 0 616 240 0 0 +17 616 0 343 616 616 0 337 240 0 0 -15 343 832
 0 616 342 0 17 239 0 617 239 239 0 614 233 0 0 +15 617 908 0 239 353 0 17 603 0
 362 603 603 0 257 254 0 0 -15 362 588 0 603 357 618 15 618 777 0 228 357 0 17 2
28 0 618 228 228 0 223 221 0 0 -82 6 482 5 1699431555 31037663 0 149933196 68402
9649 15 479 388 0 192 377 0 17 192 0 479 619 117 620 414 189 0 0 +17 619 0 479 1
19 192 53 283 220 0 121 -17 117 0 479 192 119 104 108 118 0 0 -18 620 422 0 302
 621 93 622 ?1 17 414 0 623 413 302 104 192 189 0 117 -15 623 193 0 166 375 0 17
 413 0 623 196 414 101 106 321 0 0 -17 302 0 623 414 624 620 625 286 0 283 +17 6
24 0 623 302 626 627 32 291 0 625 -17 625 0 439 628 283 627 302 286 0 130 -17 28
3 0 439 625 128 620 619 220 0 192 +15 439 437 0 128 434 0 17 128 0 439 283 628 5
3 124 129 0 619 +17 628 0 439 128 625 93 130 280 0 124 -18 53 425 0 128 49 629 6
30 ?1 18 629 424 0 279 53 621 631 ?1 29 630 473 0 53 622 94 -.105 .035 .021 29 6
22 474 0 620 632 630 -.045 .035 .021 29 94 471 0 633 630 92 -.045 .02 -.021 18 6
33 419 0 33 627 0 94 ?1 17 33 0 443 299 35 633 28 34 0 626 -18 627 420 0 624 93
 633 634 ?1 18 93 421 0 628 620 627 92 ?1 29 634 477 0 627 0 631 -.045 .02 .021
 29 631 476 0 629 634 632 -.105 .035 -.021 29 632 475 0 621 631 622 -.045 .035 -
.021 18 621 423 0 299 629 620 632 ?1 17 299 0 443 279 33 621 626 290 0 635 +15 4
43 445 0 299 438 0 17 279 0 443 35 299 629 635 276 0 296 +17 626 0 623 624 636 6
33 299 290 0 32 -17 635 0 376 67 637 621 279 276 0 636 -15 376 191 0 637 371 0 1
7 67 0 376 170 635 65 636 188 0 166 +17 637 0 376 635 170 629 70 132 0 0 -17 636
 0 623 626 166 621 67 188 0 0 -17 166 0 623 636 196 65 407 163 0 420 +17 196 0 6
23 166 413 62 412 193 0 407 +17 407 0 399 406 420 62 166 163 0 0 -17 420 0 399 4
07 419 65 170 167 0 0 -17 170 0 376 637 67 68 420 167 0 419 +17 70 0 372 174 296
 68 637 132 0 170 +15 372 189 0 421 368 0 17 174 0 372 421 70 71 419 171 0 418 +
17 296 0 372 70 421 629 35 289 0 637 +17 421 0 372 296 174 11 31 133 0 0 -17 35
 0 443 33 279 11 296 289 0 421 -17 32 0 30 28 130 633 624 291 0 0 +17 130 0 30 3
2 125 627 628 280 0 0 +17 119 0 479 117 619 107 121 185 0 110 -17 121 0 120 124
 110 53 119 185 0 0 +82 1 476 -1093861259 82 6 475 24 1699431555 31037663 0 1499
33196 684029649 79 14 471 SWEntUnchanged15 465 907 0 238 353 617 17 238 0 465 23
8 238 0 232 224 0 0 -15 463 666 0 253 442 638 17 253 0 463 253 253 0 639 230 0 0
 +15 638 667 0 640 442 0 17 640 0 638 640 640 0 249 246 0 0 -17 249 0 135 249 24
9 0 640 246 0 0 +15 135 504 0 249 16 612 17 639 0 417 639 639 0 253 230 0 0 -15
 417 550 0 639 18 641 15 641 556 0 642 18 643 17 642 0 641 642 642 0 272 250 0 0
 -15 643 562 0 644 18 0 17 644 0 643 644 644 0 269 266 0 0 -17 269 0 457 269 269
 0 644 266 0 0 +15 457 625 0 269 447 645 15 645 626 0 219 447 0 17 219 0 645 219
 219 0 646 216 0 0 +17 646 0 392 646 646 0 219 216 0 0 -15 392 538 0 646 390 609
 17 272 0 647 272 272 0 642 250 0 0 +15 647 648 0 272 450 0 15 453 783 0 648 450
 647 17 648 0 453 648 648 0 229 20 0 0 -17 229 0 347 229 229 0 648 20 0 0 +15 43
5 320 0 649 430 650 17 649 0 435 649 649 0 211 208 0 0 -15 650 321 0 651 430 0 1
7 651 0 650 651 651 0 307 151 0 0 -17 307 0 389 307 307 0 651 151 0 0 +15 389 30
4 0 307 384 408 17 211 0 381 211 211 0 649 208 0 0 +15 381 298 0 211 375 623 82
 1 429 1661796455 82 1 425 1676607591 82 1 396 1678704743 82 1 361 -1069875083 5
1 354 928 0 342 0 348 0 --.123 .015 .035 -1040834085586084e-31 1 0 .0075 -1 -104
0834085586084e-31 0 82 1 352 -1083834251 31 244 942 0 240 0 242 0 +-.123 .02 .03
5 1040834085586084e-31 -1 0 1 1040834085586084e-31 0 .0075 81 3 320 1748 139 318
 0 0 317 322 652 0 0 82 6 328 45 1699431555 31037663 0 149933196 684029649 81 3
 317 1747 139 315 0 0 314 320 653 0 0 82 6 652 46 1699431555 31037663 0 14993319
6 684029649 81 3 314 1746 139 312 0 0 311 317 654 0 0 82 6 653 47 1699431555 310
37663 0 149933196 684029649 81 3 311 1745 139 89 0 0 309 314 655 0 0 82 6 654 48
 1699431555 31037663 0 149933196 684029649 81 3 309 1744 139 180 0 0 306 311 656
 0 0 82 6 655 49 1699431555 31037663 0 149933196 684029649 81 3 306 1743 139 151
 0 0 304 309 657 0 0 82 6 656 50 1699431555 31037663 0 149933196 684029649 81 3
 304 1742 139 129 0 0 301 306 658 0 0 82 6 657 61 1699431555 31037663 0 14993319
6 684029649 81 3 301 1741 139 286 0 0 298 304 659 0 0 82 6 658 63 1699431555 310
37663 0 149933196 684029649 81 3 298 1740 139 290 0 0 295 301 660 0 0 82 6 659 6
8 1699431555 31037663 0 149933196 684029649 81 3 295 1739 139 289 0 0 293 298 66
1 0 0 82 6 660 66 1699431555 31037663 0 149933196 684029649 81 3 293 1738 139 29
1 0 0 288 295 662 0 0 82 6 661 64 1699431555 31037663 0 149933196 684029649 81 3
 288 1737 139 34 0 0 285 293 663 0 0 82 6 662 67 1699431555 31037663 0 149933196
 684029649 81 3 285 1736 139 280 0 0 282 288 664 0 0 82 6 663 65 1699431555 3103
7663 0 149933196 684029649 81 3 282 1735 139 220 0 0 278 285 665 0 0 82 6 664 69
 1699431555 31037663 0 149933196 684029649 81 3 278 1734 139 276 0 0 274 282 666
 0 0 82 6 665 71 1699431555 31037663 0 149933196 684029649 81 3 274 1733 139 217
 0 0 271 278 667 0 0 82 6 666 70 1699431555 31037663 0 149933196 684029649 81 3
 271 1732 139 250 0 0 268 274 668 0 0 82 6 667 74 1699431555 31037663 0 14993319
6 684029649 81 3 268 1731 139 266 0 0 264 271 669 0 0 82 6 668 79 1699431555 310
37663 0 149933196 684029649 81 3 264 1730 139 262 0 0 260 268 670 0 0 82 6 669 7
8 1699431555 31037663 0 149933196 684029649 81 3 260 1729 139 258 0 0 256 264 67
1 0 0 82 6 670 77 1699431555 31037663 0 149933196 684029649 81 3 256 1728 139 25
4 0 0 252 260 672 0 0 82 6 671 76 1699431555 31037663 0 149933196 684029649 81 3
 252 1727 139 230 0 0 248 256 673 0 0 82 6 672 75 1699431555 31037663 0 14993319
6 684029649 81 3 248 1726 139 246 0 0 235 252 674 0 0 82 6 673 81 1699431555 310
37663 0 149933196 684029649 81 3 235 1725 139 233 0 0 231 248 675 0 0 82 6 674 8
0 1699431555 31037663 0 149933196 684029649 82 6 675 85 1699431555 31037663 0 14
9933196 684029649 79 18 327 DOWNSTREAM_EDGE_ID81 3 225 1723 139 20 0 0 222 231 6
76 0 0 82 6 236 84 1699431555 31037663 0 149933196 684029649 82 6 676 82 1699431
555 31037663 0 149933196 684029649 81 3 218 1721 139 216 0 0 214 222 677 0 0 82
 6 226 83 1699431555 31037663 0 149933196 684029649 81 3 214 1720 139 212 0 0 21
0 218 678 0 0 82 6 677 72 1699431555 31037663 0 149933196 684029649 81 3 210 171
9 139 208 0 0 205 214 679 0 0 82 6 678 73 1699431555 31037663 0 149933196 684029
649 81 3 205 1718 139 26 0 0 203 210 680 0 0 82 6 679 62 1699431555 31037663 0 1
49933196 684029649 81 3 203 1717 139 201 0 0 199 205 681 0 0 82 6 680 29 1699431
555 31037663 0 149933196 684029649 81 3 199 1716 139 197 0 0 195 203 682 0 0 82
 6 681 30 1699431555 31037663 0 149933196 684029649 81 3 195 1715 139 193 0 0 19
1 199 683 0 0 82 6 682 31 1699431555 31037663 0 149933196 684029649 81 3 191 171
4 139 189 0 0 187 195 684 0 0 82 6 683 32 1699431555 31037663 0 149933196 684029
649 81 3 187 1713 139 185 0 0 183 191 685 0 0 82 6 684 33 1699431555 31037663 0
 149933196 684029649 81 3 183 1712 139 136 0 0 182 187 686 0 0 82 6 685 35 16994
31555 31037663 0 149933196 684029649 81 3 182 1711 139 142 0 0 179 183 687 0 0 8
2 6 686 39 1699431555 31037663 0 149933196 684029649 81 3 179 1710 139 81 0 0 17
7 182 688 0 0 82 6 687 40 1699431555 31037663 0 149933196 684029649 81 3 177 170
9 139 175 0 0 173 179 689 0 0 82 6 688 51 1699431555 31037663 0 149933196 684029
649 81 3 173 1708 139 171 0 0 169 177 690 0 0 82 6 689 52 1699431555 31037663 0
 149933196 684029649 81 3 169 1707 139 167 0 0 165 173 691 0 0 82 6 690 53 16994
31555 31037663 0 149933196 684029649 81 3 165 1706 139 163 0 0 162 169 692 0 0 8
2 6 691 54 1699431555 31037663 0 149933196 684029649 81 3 162 1705 139 160 0 0 1
59 165 693 0 0 82 6 692 55 1699431555 31037663 0 149933196 684029649 81 3 159 17
04 139 157 0 0 156 162 694 0 0 82 6 693 56 1699431555 31037663 0 149933196 68402
9649 81 3 156 1703 139 154 0 0 153 159 695 0 0 82 6 694 57 1699431555 31037663 0
 149933196 684029649 81 3 153 1702 139 150 0 0 148 156 696 0 0 82 6 695 58 16994
31555 31037663 0 149933196 684029649 81 3 148 1701 139 146 0 0 140 153 697 0 0 8
2 6 696 59 1699431555 31037663 0 149933196 684029649 81 3 140 1700 139 43 0 0 13
7 148 698 0 0 82 6 697 60 1699431555 31037663 0 149933196 684029649 82 6 698 41
 1699431555 31037663 0 149933196 684029649 81 3 131 1698 139 126 0 0 122 137 699
 0 0 82 6 141 42 1699431555 31037663 0 149933196 684029649 81 3 122 1697 139 111
 0 0 24 131 700 0 0 82 6 699 37 1699431555 31037663 0 149933196 684029649 81 3 2
4 1696 139 10 0 0 0 122 701 0 0 82 6 700 43 1699431555 31037663 0 149933196 6840
29649 82 6 701 28 1699431555 31037663 0 149933196 684029649 19 17 226 0 1 0 9 5
 S0 74 4 CI16 index_map_offset0 0 1 dCCZ20 15 10 0 0 702 703 704 705 481 335 13
 477 576 2 0 0 0 0 0 0 0 0 0 0 81 2 702 274 706 1 0 703 0 0 0 707 81 2 703 278 7
08 1 702 704 0 0 0 709 81 2 704 998 710 1 703 705 0 0 711 0 81 2 705 1114 712 1
 704 13 0 0 0 713 81 2 13 1494 714 1 705 2 0 0 0 0 80 2 714 715 716 9000 0 0 0 0
 3 5 0 0 0 FFTFFFFFFFFFFF9 1 79 16 716 BODY_RECIPE_200180 2 712 717 718 9000 0 0
 0 0 3 5 0 0 0 FFTFFFFFFFFFFF9 1 82 1 713 1 79 24 718 BODY_IN_LIGHTWEIGHT_PERM80
 2 710 719 720 8004 0 0 0 0 3 5 0 0 0 FFTFFFFFFFFFFF2 3 83 1 711 1 79 16 720 SDL
/TYSA_DENSITY80 2 708 721 722 9000 0 0 0 0 3 5 0 0 0 FFTFFFFFFFFFFF9 1 82 1 709
 113 79 30 722 LAST_BODY_MODIFYING_FEATURE_ID80 2 706 723 724 9000 0 0 0 0 3 5 0
 0 0 FFTFFFFFFFFFFT9 1 82 1 707 112 79 19 724 ENT_TIME_STAMP_200180 2 12 725 726
 9000 0 0 0 0 3 5 0 0 0 FFTFFFFFFFFFFF9 1 82 1 14 105 79 12 726 ATOM_ID_20011 0
 
