**ABCDEFGHIJKLMNOPQRSTUVWXYZabcdefghijklmnopqrstuvwxyz**************************
**PARASOLID !"#$%&'()*+,-./:;<=>?@[\]^_`{|}~0123456789**************************
**PART1;
MC=AMD64;
MC_MODEL=Intel64 Family 6 Model 142 Stepping 12, GenuineIntel;
MC_ID=unknown;
OS=Windows_NT;
OS_RELEASE=unknown;
FRU=Parasolid Version 33.1, build 247,  8- 6-2021;
APPL=SOLIDWORKS 2022-2022009;
SITE=;
USER=unknown;
FORMAT=text;
GUISE=transmit;
KEY=FILEY joint.x_t;
DATE=Thu Jun 15 05:26:20 2023;
**PART2;
SCH=SCH_3301247_33103;
USFLD_SIZE=0;
**PART3;
**END_OF_HEADER*****************************************************************
T51 : TRANSMIT FILE created by modeller version 330124723 SCH_3301247_33103_1300
6230 0 10 21 CCCCI7 lattice222 0 CCCI4 mesh1006 0 I8 polyline1008 0 CCCCCCCCCCA1
6 mesh_offset_data206 0 Z1 7 2 3 0 0 0 0 0 0 0 0 1e3 1e-8 0 0 0 1 0 1 4 0 81 255
 2 2 7 5 1 0 0 0 0 0 0 70 11 CI9 list_type0 0 1 uI10 notransmit0 0 1 lCCCDCCDI12
 finger_index0 0 1 dI12 finger_block1012 0 CZ3 0 4 T1 0 0 1 20 1 6 6 11 255 4 5
 0 1 7 8 1 9 0 0 0 12 35 CCCI7 lattice222 0 CCCI4 mesh1006 0 I8 polyline1008 0 C
CCCCCCDI5 owner1040 0 CCCCCCI13 boundary_mesh1006 0 I17 boundary_polyline1008 0
 CCCA16 index_map_offset0 0 1 dA9 index_map82 0 A17 node_id_index_map82 0 A20 sc
hema_embedding_map82 0 A5 child12 0 A14 lowest_node_id0 0 1 dA16 mesh_offset_dat
a206 0 Z7 860 10 11 0 0 0 0 0 0 0 1e3 1e-8 4 12 0 1 0 1 1 13 14 15 16 0 0 17 18
 19 0 0 0 0 0 0 0 100 10 CCCCCCCCCA9 precision229 0 Z8 6 4 0 0 1 0 0 0 1 0 0 0 1
 0 0 0 1 0 ?0 11 9 3 0 1 12 20 1 21 4 0 0 12 12 944 22 23 0 0 0 0 0 0 0 1e3 1e-8
 9 24 7 1 0 1 1 25 26 27 28 0 0 29 30 31 0 0 0 0 0 0 0 100 20 4 9 0 0 1 0 0 0 1
 0 0 0 1 0 0 0 1 0 ?0 11 21 1 0 1 24 32 1 0 9 0 0 12 24 945 33 34 0 0 0 0 0 0 0
 1e3 1e-8 21 35 12 1 0 1 1 36 37 38 39 0 0 40 41 42 0 0 0 0 0 0 0 100 32 2 21 0
 0 1 0 0 0 1 0 0 0 1 0 0 0 1 0 ?0 81 1 33 945 43 24 44 0 0 0 0 70 34 0 4 T24 0 0
 4 20 1 45 45 13 255 36 87 0 24 0 46 0 0 47 0 51 255 37 82 0 46 48 0 0 +0 0 0 .7
07106781186547 .707106781186549 0 .2 -.707106781186549 .707106781186547 0 30 255
 38 147 0 41 49 0 0 +0 0 0 0 0 1 29 255 39 63 0 42 50 0 .2121338021229165 .49497
2979063631 .000999996874995142 19 8 CCCCCCCA5 owner12 0 Z40 33 0 24 47 0 51 V0 1
6 255 41 145 0 ?52 0 53 38 0 0 24 18 255 42 54 0 54 0 55 39 ?24 17 255 54 0 56 5
7 58 42 59 53 0 60 +18 55 55 0 61 42 62 50 ?24 17 61 0 63 64 65 55 66 67 0 57 +1
8 62 56 0 68 55 69 70 ?24 29 50 64 0 55 70 39 .219204781546434 .487901999640113
 .000949997031245317 29 70 65 0 62 71 50 .219204781546434 .487901999640113 -.000
949997031245279 29 71 66 0 69 72 70 .2121338021229165 .494972979063631 -.0009999
96874995055 18 69 57 0 73 62 74 71 ?24 29 72 286 0 74 75 71 0 0 .19 18 74 216 0
 76 69 77 72 ?24 29 75 289 0 77 78 72 0 0 -.2 18 77 207 0 79 74 80 75 ?24 29 78
 509 0 80 81 75 0 .268697218093678 .000949997031245317 18 80 418 0 82 77 83 78 ?
24 29 81 510 0 83 84 78 0 .268697218093678 -.000949997031245279 18 83 420 0 85 8
0 86 81 ?24 29 84 511 0 86 87 81 -277555756156289e-31 .2828391769407135 .0009999
96874995135 18 86 421 0 88 83 89 84 ?24 29 87 512 0 89 90 84 -277555756156289e-3
1 .2828391769407135 -.000999996874995052 18 89 411 0 91 86 92 87 ?24 29 90 518 0
 92 93 87 0 0 -.19 18 92 415 0 94 89 95 90 ?24 29 93 522 0 95 0 90 0 0 .2 18 95
 413 0 52 92 0 93 ?24 17 52 0 96 88 76 95 97 41 0 98 +15 255 96 440 0 82 99 0 17
 88 0 96 82 52 86 98 100 0 58 -17 76 0 96 52 82 74 65 101 0 97 +17 97 0 102 103
 104 74 52 41 0 105 -17 98 0 106 107 59 95 88 100 0 104 +15 106 165 0 59 46 0 17
 107 0 106 108 98 77 104 109 0 110 -17 59 0 106 98 111 86 54 53 0 0 -16 100 377
 0 ?98 112 113 114 115 115 24 17 104 0 102 97 110 95 107 109 0 0 +15 102 244 0 1
04 116 0 17 110 0 102 104 103 77 94 112 0 0 -16 109 188 0 ?104 117 118 119 0 0 2
4 16 117 52 0 ?120 121 109 122 0 0 24 16 118 194 0 ?105 109 112 123 0 0 24 32 25
5 119 273 0 109 123 122 0 -0 0 0 .3826834323650945 .923879532511285 0 .923879532
511285 -.3826834323650945 0 .2164784400584785 .2 32 123 274 0 118 124 119 0 --11
7096540618744e-45 493038065763132e-46 0 .3826834323650945 .923879532511285 0 .92
3879532511285 -.3826834323650945 0 .2056545180555545 .19 31 255 122 62 0 117 119
 125 0 +.3535533905932735 .3535533905932745 0 .707106781186547 .707106781186549
 0 -.707106781186549 .707106781186547 0 .2 30 125 61 0 121 122 126 0 +.219204781
546434 .487901999640113 -.000949997031245279 -.707097942351784 .707097942351782
 -.00499998437497761 16 121 50 0 ?127 128 117 125 0 0 24 31 126 60 0 128 125 129
 0 +.353553390593273 .3535533905932745 0 .707106781186547 .707106781186549 0 .70
7106781186549 -.707106781186547 0 .19 16 128 46 0 ?64 130 121 126 0 0 24 30 129
 59 0 130 126 131 0 +.2121338021229165 .494972979063631 .000999996874995142 .707
097942351784 -.707097942351782 -.00499998437498249 16 130 44 0 ?57 132 128 129 0
 0 24 30 131 83 0 53 129 133 0 +-.141419588470357 .1414195884703562 .00099999687
4995142 .707106781186547 .707106781186549 0 16 53 350 0 ?54 41 67 131 0 0 24 30
 133 84 0 67 131 134 0 +-.134348609046839 .1343486090468384 .000949997031245317
 .707106781186547 .707106781186549 0 16 67 337 0 ?61 53 135 133 0 0 24 30 134 85
 0 135 133 49 0 +-.134348609046839 .1343486090468384 -.000949997031245279 .70710
6781186547 .707106781186549 0 16 135 329 0 ?68 67 132 134 0 0 24 30 49 86 0 132
 134 38 0 +-.141419588470357 .1414195884703562 -.000999996874995055 .70710678118
6547 .707106781186549 0 16 132 326 0 ?73 135 130 49 0 0 24 17 73 0 106 111 108 6
9 136 132 0 127 +17 111 0 106 59 73 42 120 117 0 0 -17 108 0 106 73 107 89 79 11
5 0 136 +17 136 0 137 138 127 89 73 132 0 0 -17 127 0 137 136 68 69 139 121 0 12
0 +15 137 332 0 138 140 0 17 68 0 137 127 138 62 141 135 0 64 +17 139 0 142 143
 120 62 127 121 0 0 -17 120 0 142 139 60 69 111 117 0 0 +15 142 43 0 120 144 0 1
7 60 0 142 120 143 42 57 130 0 111 -17 143 0 142 60 139 55 64 128 0 0 -17 57 0 5
6 66 54 55 60 130 0 143 +15 56 353 0 58 145 0 17 66 0 56 58 57 80 61 67 0 0 -17
 58 0 56 54 66 86 82 113 0 59 -17 82 0 96 76 88 80 58 113 0 65 +16 113 388 0 ?82
 100 101 146 0 0 24 16 101 389 0 ?76 113 115 147 148 148 24 30 146 492 0 113 114
 124 0 +0 .1414213562262606 .000500004687516422 0 -.999993749941406 -.0035355449
5446381 32 114 493 0 115 147 146 0 -0 0 0 -1 0 0 0 1 0 .2828427124746195 .2 30 1
24 276 0 112 146 123 0 +0 0 -.2 0 0 1 16 112 193 0 ?94 118 100 124 0 0 24 17 94
 0 149 85 79 92 110 112 0 150 +15 149 448 0 94 151 0 17 85 0 149 91 94 83 150 14
8 0 138 +17 79 0 149 94 91 77 108 115 0 107 -17 150 0 63 105 141 92 85 148 0 103
 -15 63 345 0 65 152 0 17 105 0 63 65 150 74 103 118 0 0 +17 141 0 63 150 64 83
 68 135 0 0 -16 148 390 0 ?85 115 153 147 101 101 24 17 103 0 102 110 97 92 105
 118 0 0 -16 115 379 0 ?108 101 148 114 100 100 24 16 153 391 0 ?91 148 0 154 0
 0 24 32 147 494 0 148 154 114 0 -0 160237371373018e-45 0 -1 0 0 0 1 0 .26870057
68508885 .19 30 154 495 0 153 0 147 0 +0 .1343502884149476 -.000475004453140959
 0 .999993749941406 -.00353554495446036 17 91 0 149 79 85 89 138 153 0 108 +17 1
38 0 137 68 136 83 91 153 0 141 -17 64 0 63 141 61 62 143 128 0 139 +17 65 0 63
 61 105 80 76 101 0 66 -14 255 152 346 155 ?140 145 63 36 156 -0 0 140 145 51 81
 1 155 933 157 152 158 0 0 159 160 14 140 333 159 ?144 152 137 36 48 -0 0 144 15
2 51 14 145 354 161 ?152 46 56 36 162 -0 0 152 46 51 51 156 80 0 152 162 48 0 +-
555111512312578e-31 -555111512312578e-31 0 .707106781186547 .707106781186549 0 .
19 -.707106781186549 .707106781186547 0 13 51 34 0 0 0 0 0 0 40 46 14 46 364 163
 ?145 0 106 36 37 +0 0 145 0 51 81 1 163 939 157 46 164 0 161 165 166 80 255 1 1
57 167 168 9000 1 1 1 1 1 1 1 1 0 FFFFTFTFFFFFFF1 81 1 164 901 169 46 0 163 0 17
0 171 81 1 161 937 157 145 170 0 159 163 172 81 1 165 941 157 144 173 0 163 174
 175 82 255 1 166 868941989 14 144 42 165 ?116 140 142 36 176 +0 0 116 140 51 81
 1 173 905 169 144 0 165 177 178 179 81 1 174 942 157 99 180 0 165 181 182 82 1
 175 706805923 14 99 437 174 ?0 151 96 36 183 +151 151 0 151 51 81 1 180 908 169
 99 0 174 184 0 185 81 1 181 943 157 151 184 0 174 186 187 82 1 182 863371429 14
 151 445 181 ?99 116 149 36 183 +99 99 99 116 51 81 1 184 907 169 151 0 181 178
 180 188 81 1 186 944 157 116 178 0 181 0 189 82 1 187 861995173 14 116 241 186
 ?151 144 102 36 190 -0 0 151 144 51 81 1 178 906 169 116 0 186 173 184 191 82 1
 189 847839397 80 1 169 0 192 8001 0 0 0 0 3 5 0 0 0 FFFFTFTFFFFFFF2 83 255 3 19
1 0 .501960784313726 1 79 255 15 192 SDL/TYSA_COLOUR50 255 190 266 0 116 183 176
 0 +0 0 -.2 .3826834323650945 .923879532511285 0 -.923879532511285 .382683432365
0945 0 50 183 485 0 99 0 190 0 +0 0 -.2 -1 0 0 0 0 1 50 176 58 0 144 190 162 0 +
.3535533905932735 .3535533905932745 0 .707106781186547 .707106781186549 0 .70710
6781186549 -.707106781186547 0 50 162 79 0 145 176 156 0 +-.141419588470357 .141
4195884703562 .000999996874995142 .003535522857376905 -.003535522857376895 .9999
875 .999993749941406 0 -.00353554495446382 83 3 188 0 .501960784313726 1 83 3 18
5 0 .501960784313726 1 81 1 177 904 169 140 0 159 158 173 193 83 3 179 0 .501960
784313726 1 81 1 159 935 157 140 177 0 155 161 194 81 1 158 903 169 152 0 155 17
0 177 195 83 3 193 0 .501960784313726 1 81 1 170 902 169 145 0 161 164 158 196 8
3 3 195 0 .501960784313726 1 83 3 196 0 .501960784313726 1 82 1 194 865992869 82
 1 172 868024485 83 3 171 0 .501960784313726 1 79 14 168 SWEntUnchanged50 48 81
 0 140 156 37 0 +-.134348609046839 .1343486090468384 -.000949997031245279 .00353
5522857373455 -.003535522857373445 -.9999875 -.999993749941406 0 -.0035355449544
6037 82 1 160 867238053 19 47 88 0 24 0 40 36 S0 74 4 CI16 index_map_offset0 0 1
 dCCZ20 45 4 0 0 186 44 180 33 0 0 0 0 0 0 0 0 0 0 0 0 0 0 0 0 81 2 44 886 197 2
4 0 33 0 0 198 0 80 2 197 199 200 8004 0 0 0 0 3 5 0 0 0 FFTFFFFFFFFFFF2 3 83 1
 198 1 79 16 200 SDL/TYSA_DENSITY80 1 43 201 202 8017 0 0 0 0 0 0 0 0 0 TTTTTTTT
TTTTTF3 79 13 202 SDL/TYSA_NAME81 1 22 944 43 12 203 0 0 0 0 70 23 0 4 T12 0 0 4
 20 1 204 204 13 25 87 0 12 0 205 0 0 206 0 51 26 82 0 205 207 0 0 +-11102230246
25156e-31 555111512312578e-31 0 -.707106781186549 .707106781186546 0 .2 -.707106
781186546 -.707106781186549 0 30 27 146 0 30 208 0 0 +-1110223024625156e-31 5551
11512312578e-31 0 0 0 1 29 28 63 0 31 209 0 -.212133802122918 .49497297906363 -.
00099999687499507 19 29 33 0 12 206 0 210 V0 16 30 144 0 ?211 0 212 27 0 0 12 18
 31 54 0 213 0 214 28 ?12 17 213 0 215 216 217 31 218 212 0 219 +18 214 55 0 220
 31 221 209 ?12 17 220 0 222 223 224 214 225 226 0 216 +18 221 56 0 227 214 228
 229 ?12 29 209 64 0 214 229 28 -.219204781546436 .487901999640112 -.00094999703
1245328 29 229 65 0 221 230 209 -.219204781546436 .487901999640112 .000949997031
245436 29 230 66 0 228 231 229 -.212133802122918 .49497297906363 .00099999687499
5208 18 228 57 0 232 221 233 230 ?12 29 231 285 0 233 234 230 0 0 -.19 18 233 21
4 0 235 228 236 231 ?12 29 234 291 0 236 237 231 0 0 .2 18 236 207 0 238 233 239
 234 ?12 29 237 512 0 239 240 234 0 .268697218093677 -.000949997031245328 18 239
 418 0 241 236 242 237 ?12 29 240 513 0 242 243 237 277555756156289e-31 .2686972
18093677 .000949997031245436 18 242 423 0 244 239 245 240 ?12 29 243 514 0 245 2
46 240 555111512312578e-31 .282839176940713 .0009999968749952 18 245 410 0 247 2
42 248 243 ?12 29 246 515 0 248 249 243 4163336342344335e-32 .282839176940713 -.
000999996874995076 18 248 419 0 250 245 251 246 ?12 29 249 516 0 251 252 246 0 0
 .19 18 251 422 0 253 248 254 249 ?12 29 252 519 0 254 0 249 0 0 -.2 18 254 412
 0 255 251 0 252 ?12 17 255 0 256 250 235 254 257 258 0 259 -15 256 455 0 250 26
0 0 17 250 0 256 241 255 248 259 261 0 217 +17 235 0 256 255 241 233 224 262 0 2
57 -17 257 0 263 264 265 233 255 258 0 266 +16 258 179 0 ?257 267 261 268 0 0 12
 17 259 0 269 270 218 254 250 261 0 265 -15 269 362 0 271 205 0 17 270 0 269 271
 259 236 265 272 0 211 +17 218 0 269 259 273 248 213 212 0 0 -16 261 388 0 ?250
 258 262 274 275 275 12 17 265 0 263 257 211 254 270 272 0 0 -15 263 243 0 265 2
76 0 17 211 0 263 265 264 236 253 30 0 0 +16 272 187 0 ?270 277 267 278 0 0 12 1
6 277 52 0 ?279 280 272 281 0 0 12 16 267 194 0 ?264 272 258 282 0 0 12 32 278 2
72 0 272 282 281 0 --3925231146709395e-32 -162588397641636e-31 0 .38268343236509
55 -.923879532511284 0 -.923879532511284 -.3826834323650955 0 .2164784400584785
 .2 32 282 273 0 267 268 278 0 -0 0 0 .3826834323650955 -.923879532511284 0 -.92
3879532511284 -.3826834323650955 0 .2056545180555545 .19 31 281 62 0 277 278 283
 0 +-.3535533905932745 .353553390593273 0 -.707106781186549 .707106781186546 0 -
.707106781186546 -.707106781186549 0 .2 30 283 61 0 280 281 284 0 +-.21920478154
6436 .487901999640112 .000949997031245436 .707097942351781 .707097942351784 .004
9999843749772 16 280 50 0 ?285 286 277 283 0 0 12 31 284 60 0 286 283 287 0 +-.3
535533905932745 .353553390593273 0 -.707106781186549 .707106781186546 0 0 0 1 .1
9 16 286 46 0 ?223 288 280 284 0 0 12 30 287 59 0 288 284 289 0 +-.2121338021229
18 .49497297906363 -.00099999687499507 -.707097942351781 -.707097942351784 .0049
999843749742 16 288 44 0 ?216 290 286 287 0 0 12 30 289 83 0 212 287 291 0 +.141
4195884703562 .1414195884703568 -.00099999687499507 -.707106781186549 .707106781
186546 0 16 212 339 0 ?213 30 226 289 0 0 12 30 291 84 0 226 289 292 0 +.1343486
090468384 .134348609046839 -.000949997031245328 -.707106781186549 .7071067811865
46 0 16 226 336 0 ?220 212 293 291 0 0 12 30 292 85 0 293 291 208 0 +.1343486090
468384 .134348609046839 .000949997031245436 -.707106781186549 .707106781186546 0
 16 293 328 0 ?227 226 290 292 0 0 12 30 208 86 0 290 292 27 0 +.141419588470356
2 .1414195884703568 .000999996874995208 -.707106781186549 .707106781186546 0 16
 290 325 0 ?232 293 288 208 0 0 12 17 232 0 269 273 271 228 294 290 0 285 +17 27
3 0 269 218 232 31 279 277 0 0 -17 271 0 269 232 270 245 238 275 0 294 -17 294 0
 295 296 285 245 232 290 0 0 -17 285 0 295 294 227 228 297 280 0 279 +15 295 75
 0 294 298 0 17 227 0 295 285 296 221 299 293 0 223 +17 297 0 300 301 279 221 28
5 280 0 0 -17 279 0 300 297 219 228 273 277 0 0 +15 300 43 0 279 302 0 17 219 0
 300 279 301 31 216 288 0 273 -17 301 0 300 219 297 214 223 286 0 0 -17 216 0 21
5 225 213 214 219 288 0 301 +15 215 71 0 225 303 0 17 225 0 215 217 216 239 220
 226 0 0 -17 217 0 215 213 225 248 241 304 0 218 +17 241 0 256 235 250 239 217 3
04 0 224 -16 304 391 0 ?217 262 275 305 0 0 12 16 262 390 0 ?224 261 304 306 307
 307 12 16 275 392 0 ?238 304 307 274 261 261 12 30 305 495 0 304 274 268 0 +0 .
141421356226261 -.000500004687517184 0 .999993749941406 -.003535544954457955 32
 274 496 0 275 306 305 0 -0 -555111512312574e-31 0 -1 0 0 0 1 0 .282842712474618
5 .2 30 268 275 0 258 305 282 0 +0 0 -.2 0 0 1 32 306 497 0 307 308 274 0 -0 0 0
 -1 0 0 0 1 0 .2687005768508875 .19 16 307 394 0 ?309 275 310 306 262 262 12 30
 308 498 0 310 0 306 0 +277555756156289e-31 .134350288414948 .000475004453141158
 0 -.999993749941406 -.00353554495446008 16 310 393 0 ?296 307 0 308 0 0 12 17 2
96 0 295 227 294 242 247 310 0 299 +17 247 0 311 238 244 245 296 310 0 271 -17 2
99 0 222 309 223 242 227 293 0 0 -15 222 156 0 299 312 0 17 309 0 222 266 299 25
1 244 307 0 264 +17 223 0 222 299 220 221 301 286 0 297 +17 266 0 222 224 309 23
3 264 267 0 0 -17 244 0 311 247 253 242 309 307 0 296 -17 264 0 263 211 257 251
 266 267 0 0 +15 311 463 0 238 313 0 17 253 0 311 244 238 251 211 30 0 309 -17 2
38 0 311 253 247 236 271 275 0 270 +14 313 460 314 ?0 260 311 25 315 -260 260 0
 260 210 81 1 314 931 157 313 316 0 0 317 318 14 260 452 317 ?313 276 256 25 315
 -313 313 313 276 210 50 315 485 0 260 0 319 0 +0 0 -.2 -1 0 0 0 0 1 13 210 34 0
 0 0 0 0 0 29 205 14 205 165 320 ?312 0 269 25 26 +0 0 312 0 210 81 1 320 934 15
7 205 321 0 317 322 323 14 312 157 322 ?303 205 222 25 324 -0 0 303 205 210 81 1
 322 936 157 312 325 0 320 326 327 14 303 72 326 ?298 312 215 25 328 -0 0 298 31
2 210 51 324 80 0 312 328 207 0 +0 0 0 -.707106781186549 .707106781186546 0 .19
 -.707106781186546 -.707106781186549 0 50 328 79 0 303 329 324 0 +.1414195884703
562 .1414195884703568 -.00099999687499507 -.00353552285737103 -.0035355228573710
45 -.9999875 0 .999993749941406 -.003535544954457955 50 207 81 0 298 324 26 0 +.
1343486090468384 .134348609046839 .000949997031245436 -.003535522857373155 -.003
535522857373165 .9999875 0 -.999993749941406 -.00353554495446008 14 298 76 330 ?
302 303 295 25 207 -0 0 302 303 210 81 1 330 940 157 298 331 0 326 332 333 14 30
2 42 332 ?276 298 300 25 329 +0 0 276 298 210 81 1 332 942 157 302 334 0 330 335
 336 14 276 240 335 ?260 302 263 25 319 +0 0 260 302 210 50 329 58 0 302 319 328
 0 +-.3535533905932745 .353553390593273 0 -.707106781186549 .707106781186546 0 0
 0 1 50 319 266 0 276 315 329 0 +0 0 -.2 .3826834323650955 -.923879532511284 0 .
923879532511284 .3826834323650955 0 81 1 335 943 157 276 337 0 332 0 338 81 1 33
7 905 169 276 0 335 334 339 340 82 1 338 1816395951 81 1 334 904 169 302 0 332 3
31 337 341 81 1 339 906 169 260 0 317 337 316 342 83 3 340 0 .501960784313726 1
 81 1 317 932 157 260 339 0 314 320 343 81 1 316 907 169 313 0 314 339 0 344 83
 3 342 0 .501960784313726 1 83 3 344 0 .501960784313726 1 82 1 343 1828520111 81
 1 331 903 169 298 0 330 345 334 346 83 3 341 0 .501960784313726 1 81 1 345 902
 169 303 0 326 325 331 347 83 3 346 0 .501960784313726 1 81 1 326 938 157 303 34
5 0 322 330 348 81 1 325 901 169 312 0 322 321 345 349 83 3 347 0 .5019607843137
26 1 81 1 321 900 169 205 0 320 0 325 350 83 3 349 0 .501960784313726 1 83 3 350
 0 .501960784313726 1 82 1 348 1684996271 82 1 336 1684078765 82 1 333 168552055
9 82 1 327 1818689711 82 1 323 1820983471 82 1 318 1827143855 17 224 0 222 220 2
66 239 235 262 0 225 +19 206 88 0 12 0 29 25 S0 74 20 204 4 0 0 335 203 316 22 0
 0 0 0 0 0 0 0 0 0 0 0 0 0 0 0 81 2 203 887 197 12 0 22 0 0 351 0 83 1 351 1 81
 1 10 860 43 7 352 0 0 0 0 70 11 0 4 T7 0 0 4 20 1 353 353 13 13 87 0 7 0 354 0
 0 355 0 51 14 82 0 354 356 0 0 -0 0 0 183697019872103e-30 -1 0 .2 1 18369701987
2103e-30 0 30 15 141 0 18 357 0 0 +0 0 0 0 0 -1 29 16 63 0 19 358 0 -.0009999968
74995055 -.5 -.1999975 19 17 33 0 7 355 0 359 V0 16 18 139 0 ?360 0 361 15 0 0 7
 18 19 54 0 362 0 363 16 ?7 17 362 0 364 365 366 19 367 368 0 369 +18 363 55 0 3
70 19 371 358 ?7 17 370 0 372 373 374 363 375 376 0 377 +18 371 56 0 378 363 379
 380 ?7 29 358 64 0 363 380 16 -.000992496898432571 -.5 -.19849751875 29 380 65
 0 371 381 358 .000992496898432515 -.5 -.19849751875 29 381 66 0 379 382 380 .00
0999996874994957 -.5 -.1999975 18 379 57 0 383 371 384 381 ?7 29 382 285 0 384 3
85 381 -.000999996874995147 -.000414212267953695 -.1999975 18 384 214 0 366 379
 386 382 ?7 29 385 286 0 386 387 382 -.000992496898432663 -.0004111056759440345
 -.19849751875 18 386 220 0 388 384 389 385 ?7 29 387 288 0 389 390 385 0 0 .198
5 18 389 217 0 391 386 392 387 ?7 29 390 467 0 392 393 387 .000999996874994865 -
.000414212267953578 -.1999975 18 392 399 0 394 389 395 390 ?7 29 393 468 0 395 3
96 390 .000992496898432423 -.0004111056759439345 -.19849751875 18 395 400 0 397
 392 398 393 ?7 29 396 477 0 398 0 393 0 0 .2 18 398 395 0 399 395 0 396 ?7 17 3
99 0 364 366 400 398 394 401 0 402 +15 364 77 0 399 354 0 17 366 0 364 362 399 3
84 403 404 0 405 +17 400 0 364 399 365 392 383 361 0 0 -17 394 0 406 397 402 392
 399 401 0 407 -16 401 365 0 ?399 408 409 410 0 0 7 17 402 0 406 394 391 398 360
 18 0 403 -15 406 413 0 394 411 0 17 391 0 406 402 397 389 412 413 0 360 +17 360
 0 414 388 403 389 402 18 0 415 +17 403 0 414 360 405 398 366 404 0 0 -15 414 23
6 0 360 416 0 17 405 0 414 403 388 384 374 408 0 367 +16 404 181 0 ?366 417 418
 419 0 0 7 16 417 52 0 ?365 420 404 421 0 0 7 16 418 197 0 ?388 404 408 422 0 0
 7 32 419 270 0 404 422 421 0 +0 0 0 .3826834323650845 -.923879532511289 0 -.923
879532511289 -.3826834323650845 0 .2164784400584785 .2 32 422 271 0 418 423 419
 0 +0 0 0 .3826834323650845 -.923879532511289 0 -.923879532511289 -.382683432365
0845 0 .2148548517580395 .1985 31 421 62 0 417 419 424 0 +918485099360515e-31 -.
5 0 -183697019872103e-30 1 0 -1 -183697019872103e-30 0 .2 30 424 61 0 420 421 42
5 0 +.000992496898432515 -.5 -.19849751875 .00499998437496119 918482229087451e-3
3 -.9999875 16 420 50 0 ?426 427 417 424 0 0 7 31 425 60 0 427 424 428 0 +918485
099360515e-31 -.5 0 -183697019872103e-30 1 0 1 183697019872103e-30 0 .1985 16 42
7 46 0 ?429 430 420 425 0 0 7 30 428 59 0 430 425 431 0 +-.000999996874995055 -.
5 -.1999975 .0049999843749888 918482229092522e-33 .9999875 16 430 44 0 ?432 368
 427 428 0 0 7 30 431 83 0 368 428 433 0 +-.000999996874995147 0 -.1999975 18369
7019872103e-30 -1 0 16 368 146 0 ?362 376 430 431 0 0 7 30 433 84 0 376 431 434
 0 +-.000992496898432663 0 -.19849751875 183697019872103e-30 -1 0 16 376 149 0 ?
370 435 368 433 0 0 7 30 434 85 0 435 433 357 0 +.000992496898432423 0 -.1984975
1875 183697019872103e-30 -1 0 16 435 331 0 ?378 361 376 434 0 0 7 30 357 86 0 36
1 434 15 0 +.000999996874994865 0 -.1999975 183697019872103e-30 -1 0 16 361 339
 0 ?383 18 435 357 0 0 7 17 383 0 436 437 407 379 400 361 0 365 +15 436 342 0 40
7 438 0 17 437 0 436 439 383 371 426 420 0 429 -17 407 0 436 383 439 392 397 409
 0 400 -17 365 0 364 400 362 379 369 417 0 426 +17 369 0 440 432 426 19 365 417
 0 373 -17 426 0 440 369 429 379 437 420 0 0 +15 440 43 0 369 441 0 17 429 0 440
 426 432 371 377 427 0 0 +17 432 0 440 429 369 363 373 430 0 0 +17 377 0 442 375
 378 363 429 427 0 432 -15 442 334 0 412 443 0 17 375 0 442 415 377 386 370 376
 0 0 -17 378 0 442 377 412 371 439 435 0 437 +17 412 0 442 378 415 395 391 413 0
 439 -17 439 0 436 407 437 395 378 435 0 0 -17 415 0 442 412 375 389 388 418 0 0
 -16 413 372 0 ?391 409 0 444 0 0 7 16 409 371 0 ?397 401 413 445 0 0 7 32 444 4
54 0 413 0 445 0 +0 0 0 -.382683432365084 -.923879532511289 0 .923879532511289 -
.382683432365084 0 .2148548517580395 .1985 30 445 453 0 409 444 410 0 +.00099249
2641338627 -.0004111039125979475 -.198496667339223 -.00499997365179152 .00207105
689808014 .999985355386171 32 410 452 0 401 445 423 0 +0 0 0 -.382683432365084 -
.923879532511289 0 .923879532511289 -.382683432365084 0 .2164784400584785 .2 30
 423 272 0 408 410 422 0 +-.000999992585731875 -.0004142104912826755 -.199996642
155388 -.00499997365181913 -.00207105689809158 -.999985355386171 16 408 198 0 ?4
05 418 401 423 0 0 7 17 397 0 406 391 394 395 407 409 0 412 +17 388 0 414 405 36
0 386 415 418 0 374 +17 374 0 372 370 367 386 405 408 0 375 -15 372 152 0 374 44
6 0 17 367 0 372 374 373 384 362 368 0 0 -17 373 0 372 367 370 19 432 430 0 0 -1
4 446 72 447 ?441 443 372 13 448 +0 0 441 443 359 81 1 447 849 157 446 449 0 0 4
50 451 14 441 42 450 ?416 446 440 13 452 -0 0 416 446 359 14 443 74 453 ?446 438
 442 13 454 +0 0 446 438 359 50 448 79 0 446 452 454 0 +-.000999996874995147 0 -
.1999975 .9999875 1836947236593545e-31 -.0049999843749888 -.0049999843749888 0 -
.9999875 13 359 34 0 0 0 0 0 0 17 354 14 354 78 455 ?438 0 364 13 14 -0 0 438 0
 359 81 1 455 855 157 354 456 0 453 457 458 14 438 76 457 ?443 354 436 13 356 +0
 0 443 354 359 81 1 457 857 157 438 459 0 455 460 461 50 356 81 0 438 454 14 0 +
.000992496898432423 0 -.19849751875 -.9999875 -1836947236593545e-31 -.0049999843
7496119 -.00499998437496119 0 .9999875 51 454 80 0 443 448 356 0 -0 0 0 18369701
9872103e-30 -1 0 .1985 1 183697019872103e-30 0 81 1 459 821 169 438 0 457 456 46
2 463 81 1 460 858 157 416 464 0 457 465 466 82 1 461 208732345 14 416 233 460 ?
411 441 414 13 467 -0 0 411 441 359 81 1 464 825 169 416 0 460 468 469 470 81 1
 465 859 157 411 469 0 460 0 471 82 1 466 -1647968071 14 411 410 465 ?0 416 406
 13 472 -0 0 0 416 359 81 1 469 826 169 411 0 465 464 0 473 82 1 471 -1634402119
 83 3 473 0 .501960784313726 1 50 472 446 0 411 0 467 0 +0 0 -.2 -.3826834323650
84 -.923879532511289 0 .923879532511289 -.382683432365084 0 50 467 262 0 416 472
 452 0 +0 0 -.2 .3826834323650845 -.923879532511289 0 .923879532511289 .38268343
23650845 0 50 452 58 0 441 467 448 0 +918485099360515e-31 -.5 0 -183697019872103
e-30 1 0 1 183697019872103e-30 0 81 1 468 824 169 441 0 450 449 464 474 83 3 470
 0 .501960784313726 1 81 1 450 851 157 441 468 0 447 453 475 81 1 449 823 169 44
6 0 447 462 468 476 83 3 474 0 .501960784313726 1 81 1 462 822 169 443 0 453 459
 449 477 83 3 476 0 .501960784313726 1 81 1 453 853 157 443 462 0 450 455 478 83
 3 477 0 .501960784313726 1 82 1 478 208601273 82 1 475 207552693 81 1 456 820 1
69 354 0 455 0 459 479 83 3 463 0 .501960784313726 1 83 3 479 0 .501960784313726
 1 82 1 458 208863417 82 1 451 208470201 19 355 88 0 7 0 17 13 S0 74 20 353 4 0
 0 465 352 469 10 0 0 0 0 0 0 0 0 0 0 0 0 0 0 0 0 81 2 352 808 197 7 0 10 0 0 48
0 0 83 1 480 1 74 20 6 1 0 0 2 0 0 0 0 0 0 0 0 0 0 0 0 0 0 0 0 0 0 0 80 2 5 481
 482 9000 0 0 0 0 3 5 0 0 0 TFFFFFFFFFFFFF9 1 79 18 482 MULTI_BODY_ID_20011 0 
