**ABCDEFGHIJKLMNOPQRSTUVWXYZabcdefghijklmnopqrstuvwxyz**************************
**PARASOLID !"#$%&'()*+,-./:;<=>?@[\]^_`{|}~0123456789**************************
**PART1;
MC=AMD64;
MC_MODEL=Intel64 Family 6 Model 142 Stepping 12, GenuineIntel;
MC_ID=unknown;
OS=Windows_NT;
OS_RELEASE=unknown;
FRU=Parasolid Version 33.1, build 247,  8- 6-2021;
APPL=SOLIDWORKS 2022-2022009;
SITE=;
USER=unknown;
FORMAT=text;
GUISE=transmit;
KEY=FILEConnecting rod cap.x_t;
DATE=Thu Jun 15 06:14:45 2023;
**PART2;
SCH=SCH_3301247_33103;
USFLD_SIZE=0;
**PART3;
**END_OF_HEADER*****************************************************************
T51 : TRANSMIT FILE created by modeller version 330124723 SCH_3301247_33103_1300
6230 0 12 35 CCCI7 lattice222 0 CCCI4 mesh1006 0 I8 polyline1008 0 CCCCCCCDI5 ow
ner1040 0 CCCCCCI13 boundary_mesh1006 0 I17 boundary_polyline1008 0 CCCA16 index
_map_offset0 0 1 dA9 index_map82 0 A17 node_id_index_map82 0 A20 schema_embeddin
g_map82 0 A5 child12 0 A14 lowest_node_id0 0 1 dA16 mesh_offset_data206 0 Z1 224
9 2 3 0 0 0 0 0 0 0 1e3 1e-8 0 4 0 1 0 1 1 5 6 7 8 0 0 9 10 11 0 0 0 0 0 0 0 81
 255 2 2 2213 12 1 13 0 0 0 0 14 70 11 CI9 list_type0 0 1 uI10 notransmit0 0 1 l
CCCDCCDI12 finger_index0 0 1 dI12 finger_block1012 0 CZ3 0 4 T1 0 0 11 20 1 15 1
5 13 255 5 99 0 1 0 16 0 0 17 0 51 255 6 1817 0 1 18 0 19 -.038 -.09570788891204
32 232682891837997e-32 0 1 0 .012 0 0 1 38 12 CCCCCCCCCCCA17 intersection_data20
4 0 Z7 1824 0 1 20 0 21 -18 6 22 23 24 25 29 255 8 1528 0 11 26 0 .0350769230769
231 .0080999671268235 .012 19 8 CCCCCCCA5 owner12 0 Z9 33 0 1 17 0 27 V0 16 255
 10 1558 0 ?28 0 29 30 0 0 1 18 255 11 1526 0 31 0 32 8 ?1 17 255 31 0 33 34 35
 11 36 37 0 38 +18 32 1521 0 34 11 39 26 ?1 17 34 0 33 40 31 32 41 42 0 43 +18 3
9 1518 0 44 32 45 46 ?1 29 26 1523 0 32 46 8 -.0350769230769231 .008099967126823
5 .012 29 46 1520 0 39 47 26 .036 0 .0119582607431014 29 47 1517 0 45 48 46 -.03
6 0 .0119582607431014 18 45 1515 0 40 39 49 47 ?1 29 48 1506 0 49 50 47 -.035076
9230769231 .0080999671268235 -.012 18 49 1504 0 51 45 52 48 ?1 29 50 1501 0 52 5
3 48 .0350769230769231 .0080999671268235 -.012 18 52 1499 0 54 49 55 50 ?1 29 53
 1498 0 55 56 50 -.036 0 -.0119582607431014 18 55 1496 0 57 52 58 53 ?1 29 56 14
95 0 58 59 53 .036 0 -.0119582607431014 18 58 1493 0 60 55 61 56 ?1 29 59 1472 0
 61 62 56 -.03875 0 .00896869555732605 18 61 1470 0 28 58 63 59 ?1 29 62 1469 0
 63 64 59 -.03875 0 -.00896869555732605 18 63 1467 0 65 61 66 62 ?1 29 64 1460 0
 66 67 62 -.03987408514266325 .0457007318858694 -.006 18 66 1458 0 68 63 69 64 ?
1 29 67 1456 0 69 70 64 -.0398740851426633 .0457007318858694 .006 18 69 1454 0 7
1 66 72 67 ?1 29 70 1443 0 72 73 67 -.0247391398819621 .0578086880944303 -.006 1
8 72 1441 0 74 69 75 70 ?1 29 73 1440 0 75 76 70 -.0247391398819621 .05780868809
44303 .006 18 75 1438 0 77 72 78 73 ?1 29 76 1425 0 78 79 73 -.0184921894064179
 .06 .006 18 78 1423 0 80 75 81 76 ?1 29 79 1422 0 81 82 76 -.0184921894064179 .
06 -.006 18 81 1420 0 83 78 84 79 ?1 29 82 1412 0 84 85 79 .02286505473929885 .0
554660816661012 -.009 18 84 1410 0 86 81 87 82 ?1 29 85 1408 0 87 88 82 .0184921
894064179 .057 -.009 18 87 1406 0 89 84 90 85 ?1 29 88 1404 0 90 91 85 -.0184921
894064179 .057 -.009 18 90 1402 0 92 87 93 88 ?1 29 91 1400 0 93 94 88 -.0228650
5473929885 .0554660816661012 -.009 18 93 1398 0 95 90 96 91 ?1 29 94 1391 0 96 9
7 91 -.038 .0433581254575403 -.009 18 96 1389 0 98 93 99 94 ?1 29 97 1388 0 99 1
00 94 -.038 .00877496438739213 -.009 18 99 1386 0 101 96 102 97 ?1 29 100 1365 0
 102 103 97 .03875 0 -.00896869555732604 18 102 1363 0 104 99 105 100 ?1 29 103
 1362 0 105 106 100 .03875 0 .00896869555732605 18 105 1360 0 107 102 108 103 ?1
 29 106 1359 0 108 109 103 .038 .0433581254575403 -.009 18 108 1357 0 110 105 11
1 106 ?1 29 109 1356 0 111 112 106 .038 .00877496438739213 -.009 18 111 1354 0 1
13 108 114 109 ?1 29 112 1347 0 114 115 109 .0398740851426633 .0457007318858694
 .006 18 114 1345 0 116 111 117 112 ?1 29 115 1343 0 117 118 112 .03987408514266
33 .0457007318858694 -.006 18 117 1341 0 119 114 120 115 ?1 29 118 1330 0 120 12
1 115 .02473913988196215 .0578086880944303 .006 18 120 1328 0 122 117 123 118 ?1
 29 121 1327 0 123 124 118 .02473913988196215 .0578086880944303 -.006 18 123 132
5 0 125 120 126 121 ?1 29 124 1324 0 126 127 121 .0184921894064179 .06 -.006 18
 126 1322 0 128 123 129 124 ?1 29 127 1321 0 129 130 124 .0184921894064179 .06 .
006 18 129 1319 0 131 126 132 127 ?1 29 130 1311 0 132 133 127 .0228650547392988
5 .0554660816661012 .009 18 132 1309 0 134 129 135 130 ?1 29 133 1305 0 135 136
 130 -.02286505473929885 .0554660816661012 .009 18 135 1303 0 137 132 138 133 ?1
 29 136 1301 0 138 139 133 -.0184921894064179 .057 .009 18 138 1299 0 140 135 14
1 136 ?1 29 139 1298 0 141 142 136 .0184921894064179 .057 .009 18 141 1296 0 143
 138 144 139 ?1 29 142 1289 0 144 145 139 .038 .0433581254575403 .009 18 144 128
7 0 146 141 147 142 ?1 29 145 1286 0 147 148 142 .038 .00877496438739213 .009 18
 147 1284 0 149 144 150 145 ?1 29 148 1283 0 150 151 145 -.038 .0433581254575403
 .009 18 150 1281 0 152 147 153 148 ?1 29 151 1280 0 153 154 148 -.038 .00877496
438739213 .009 18 153 1278 0 155 150 156 151 ?1 29 154 75 0 157 158 151 -.027 0
 -.019 18 157 66 0 159 160 161 154 ?1 29 158 76 0 161 162 154 -.036 0 -.019 18 1
61 67 0 163 157 164 158 ?1 29 162 77 0 164 165 158 .036 0 -.019 18 164 68 0 166
 161 167 162 ?1 29 165 78 0 167 168 162 .027 0 -.019 18 167 69 0 169 164 0 165 ?
1 29 168 32 0 156 170 165 -.027 0 .019 18 156 30 0 171 153 172 168 ?1 29 170 29
 0 172 173 168 -.036 0 .019 18 172 27 0 174 156 175 170 ?1 29 173 26 0 175 176 1
70 .036 0 .019 18 175 24 0 177 172 160 173 ?1 29 176 23 0 160 0 173 .027 0 .019
 18 160 21 0 178 175 157 176 ?1 17 178 0 179 169 180 160 177 181 0 182 -15 255 1
79 83 0 169 183 0 17 169 0 179 184 178 167 185 186 0 187 +17 180 0 179 178 44 17
5 35 188 0 189 -17 177 0 190 174 182 175 178 181 0 180 +16 181 9 0 ?177 191 192
 193 0 0 1 17 182 0 190 177 171 160 194 192 0 185 +15 190 4 0 182 195 0 17 171 0
 190 182 174 156 196 197 0 198 +17 194 0 199 159 185 156 182 192 0 0 -16 192 5 0
 ?182 181 200 201 0 0 1 17 185 0 199 194 202 160 169 186 0 0 -15 199 190 0 159 2
03 0 17 202 0 199 185 159 167 204 205 0 0 +16 186 82 0 ?169 206 188 207 0 0 1 16
 206 1326 0 ?208 209 186 210 0 0 1 16 188 81 0 ?35 186 211 212 211 211 1 30 255
 207 98 0 186 212 213 0 +.027 0 .019 0 0 -1 30 212 97 0 188 214 207 0 +.036 0 .0
19 0 0 -1 32 255 213 673 0 215 207 216 0 --.038 .0472 232682891837997e-32 .62469
5047554424 -.78086880944303 0 -.780868809443031 -.624695047554424 0 .00576281181
368956 .0045 16 215 778 0 ?217 218 219 213 0 0 1 32 216 680 0 218 213 210 0 -.03
8 .0472 232682891837997e-32 -.624695047554425 -.78086880944303 0 .78086880944303
 -.624695047554425 0 .00576281181368956 .0045 16 218 885 0 ?220 221 215 216 0 0
 1 30 210 1141 0 206 216 222 0 +.02473913988196215 .0578086880944303 -.019 0 0 1
 30 222 1173 0 209 210 223 0 +-.0184921894064179 .06 232682891837997e-32 0 0 1 1
6 209 1421 0 ?224 225 206 222 0 0 1 30 223 1179 0 225 222 226 0 -.01849218940641
79 .06 232682891837997e-32 0 0 1 16 225 1320 0 ?227 228 209 223 0 0 1 30 226 120
0 0 228 223 229 0 --.0247391398819621 .0578086880944303 -.019 0 0 1 16 228 1439
 0 ?230 231 225 226 0 0 1 31 255 229 1292 0 231 226 232 0 +54780741346636e-32 0
 .009 1826024711554535e-31 0 -1 -1 0 -1826024711554535e-31 .039 16 231 1290 0 ?1
49 233 228 229 0 0 1 30 232 1302 0 233 229 234 0 +.038 .057 .009 -1 0 -182602471
1554535e-31 16 233 1300 0 ?140 235 231 232 0 0 1 31 234 1306 0 235 232 236 0 --.
0184921894064179 .05 .009 1826024711554535e-31 0 -1 -1 0 -1826024711554535e-31 .
007 16 235 1304 0 ?137 237 233 234 0 0 1 30 236 1308 0 237 234 238 0 +-.05949561
67656505 .0261616320450199 .009 -.780868809443031 -.624695047554424 -14258857425
25142e-31 16 237 1307 0 ?152 239 235 236 0 0 1 31 238 1312 0 239 236 240 0 -.018
4921894064179 .05 .009 1826024711554535e-31 0 -1 -1 0 -1826024711554535e-31 .007
 16 239 1310 0 ?241 242 237 238 0 0 1 30 240 1315 0 242 238 243 0 +.105837080180
2846 -.01091153868668744 .009 -.78086880944303 .624695047554425 -142588574252514
e-30 16 242 1313 0 ?134 244 239 240 0 0 1 31 243 1333 0 244 240 245 0 +.01849218
94064179 .05 -.006 -1826024711554535e-31 0 1 1 0 1826024711554535e-31 .01 16 244
 1331 0 ?128 246 242 243 0 0 1 31 245 1338 0 246 243 247 0 +.0184921894064179 .0
5 .006 1826024711554535e-31 0 -1 -1 0 -1826024711554535e-31 .01 16 246 1336 0 ?2
48 249 244 245 0 0 1 30 247 1344 0 249 245 250 0 -.022 .06 -.006 .78086880944303
 -.624695047554425 142588574252514e-30 16 249 1342 0 ?125 251 246 247 0 0 1 32 2
50 1348 0 251 247 252 0 -.0398740851426633 .0457007318858694 232682891837997e-32
 -.624695047554425 -.78086880944303 0 -.78086880944303 .624695047554425 0 .00768
374908491942 .006 16 251 1346 0 ?119 253 249 250 0 0 1 30 252 1351 0 253 250 254
 0 -.022 .06 .006 -.78086880944303 .624695047554425 -142588574252514e-30 16 253
 1349 0 ?116 255 251 252 0 0 1 38 254 1368 0 255 252 256 0 +257 258 259 260 261
 262 16 255 1366 0 ?107 263 253 254 0 0 1 38 256 1375 0 263 254 264 0 +265 258 2
66 267 268 269 59 255 257 1369 0 1 270 265 271 +1 272 51 258 312 0 273 274 275 2
76 -.038 -.0957078889120432 232682891837997e-32 0 1 0 .009 0 0 1 40 255 2 259 0
 1 2 .000759091921096875 .171635926957571 ??.038 .00877496438739212 .009 .03875
 -260330274110883e-31 .00896869555732694 41 3 CI8 term_use0 0 1 cCZ1 260 L?.038
 .00877496438739212 .009 41 1 261 L?.03875 -260330274110883e-31 .008968695557326
94 204 2 17 INTERSECTION_DATA17 Intersection data7 uv_type0 0 1 u6 values0 1 1 f
T4 262 3 0 .1044828532994352 .0834300866105915 .0957078889120432 14 255 273 301
 277 ?278 279 280 5 258 -0 0 278 279 27 50 255 274 313 0 281 282 258 0 +.038 -.0
957078889120432 .009 1826024711554535e-31 0 -1 -1 0 -1826024711554535e-31 50 275
 3 0 195 258 283 0 +0 0 .019 0 0 1 1 0 0 141 255 276 284 285 286 258 56 255 284
 1694 0 287 288 289 0 +R258 290 291 .003 .003 1 1 0 0 0 0 141 285 256 292 276 25
8 141 286 293 276 294 258 56 293 1774 0 295 296 297 298 +R258 299 300 -.003 -.00
3 1 1 0 0 0 0 141 294 272 286 292 258 56 272 1819 0 301 302 18 303 +R258 299 7 -
.003 -.003 1 1 0 0 0 0 141 292 254 294 285 258 14 301 1791 304 ?305 295 306 5 27
2 -0 0 305 295 27 54 255 302 1820 0 305 307 272 0 +0 0 .012 1826024711554535e-31
 0 -1 .039 .003 -1 0 -1826024711554535e-31 51 18 1818 0 1 272 6 308 -0 0 .019 0
 0 -1 .039 -1 0 0 141 303 257 309 309 272 51 299 92 0 310 311 312 313 -0 0 .019
 0 0 -1 .036 -1 0 0 14 310 171 314 ?315 203 316 5 299 -315 315 315 203 27 50 311
 91 0 183 283 299 0 +-.036 0 .019 0 1 0 0 0 1 51 312 94 0 203 299 317 0 +0 0 .01
9 0 0 -1 .027 -1 0 0 141 313 293 318 319 299 141 318 320 321 313 299 141 319 322
 313 323 299 56 322 1770 0 324 325 326 327 +R282 299 328 -.003 -.003 1 1 0 0 0 0
 141 323 329 319 330 299 56 329 1823 0 331 332 333 334 +R282 299 335 -.003 -.003
 1 1 0 0 0 0 141 330 272 323 336 299 141 336 337 330 338 299 38 337 1502 0 339 3
40 341 0 +342 299 343 344 345 346 141 338 347 336 321 299 38 347 1510 0 348 341
 349 0 +350 299 351 352 353 354 141 321 349 338 318 299 38 349 1524 0 355 347 35
6 0 +357 299 358 359 360 361 16 355 1522 0 ?40 42 348 349 0 0 1 31 356 1529 0 42
 349 320 0 -0 0 .012 1826024711554535e-31 0 -1 -1 0 -1826024711554535e-31 .036 5
9 357 1525 0 1 350 362 363 +0 329 40 2 358 0 1 2 .000924020114220253 .2271719979
00012 ??-.0350769230769231 .0080999671268235 .012 -.036 528508424822565e-33 .011
9582607431014 41 1 359 L?-.0350769230769231 .0080999671268235 .012 41 1 360 L?-.
036 528508424822565e-33 .0119582607431014 204 4 361 3 .226942099004527 .007 1468
078957840456e-32 .0070417392568986 59 350 1511 0 1 342 357 364 +0 322 59 362 153
3 0 1 357 365 366 +0 272 141 363 349 363 363 357 54 365 1698 0 367 362 368 0 +.0
184921894064179 .05 .006 1826024711554535e-31 0 -1 .007 .003 -1 0 -1826024711554
535e-31 141 366 320 366 366 362 38 320 1532 0 37 356 369 0 +362 299 370 371 372
 373 16 37 1530 0 ?31 374 42 320 0 0 1 31 369 1565 0 374 320 375 0 +-.039 -85764
9576156284e-40 -.0119582607431014 0 1 0 0 0 1 .003 40 2 370 0 1 2 .0009240201142
20253 .227171997900012 ??.036 0 .0119582607431014 .0350769230769231 .00809996712
68235 .012 41 1 371 L?.036 0 .0119582607431014 41 1 372 L?.0350769230769231 .008
0999671268235 .012 204 4 373 3 3.141592653589795 .0070417392568986 2.91465055458
5265 .007 16 374 1537 0 ?57 376 37 369 0 0 1 31 375 1566 0 376 369 377 0 +.039 1
291850614124398e-35 -.0119582607431014 0 1 0 0 0 1 .003 16 376 1544 0 ?104 29 37
4 375 0 0 1 31 377 1567 0 29 375 30 0 +.039 -857523358411449e-40 .01195826074310
14 0 1 0 0 0 1 .003 16 29 1551 0 ?44 10 376 377 0 0 1 31 30 1568 0 10 377 378 0
 +-.039 1291850614124398e-35 .0119582607431014 0 1 0 0 0 1 .003 31 378 1712 0 37
9 30 380 0 +.0184921894064179 .057 .006 1 0 0 0 0 -1 .003 16 379 1662 0 ?143 381
 382 378 0 0 1 31 380 1711 0 381 378 383 0 +.02286505473929885 .0554660816661012
 .006 -.780868809443031 .624695047554424 0 -.624695047554424 -.780868809443031 0
 .003 16 381 1660 0 ?122 384 379 380 0 0 1 31 383 1710 0 384 380 385 0 +-.018492
1894064179 .057 .006 1 0 0 0 0 -1 .003 16 384 1657 0 ?386 387 381 383 0 0 1 31 3
85 1709 0 387 383 388 0 +.038 .0433581254575403 .006 -.78086880944303 .624695047
554425 0 -.624695047554425 -.78086880944303 0 .003 16 387 1654 0 ?389 390 384 38
5 0 0 1 31 388 1708 0 390 385 391 0 +-.02286505473929885 .0554660816661012 .006
 .78086880944303 .624695047554425 -1806121940531865e-31 -.624695047554425 .78086
880944303 0 .003 16 390 1651 0 ?392 393 387 388 0 0 1 31 391 1707 0 393 388 291
 0 +.038 .0433581254575403 -.006 .78086880944303 -.624695047554425 0 .6246950475
54425 .78086880944303 0 .003 16 393 1648 0 ?394 395 390 391 0 0 1 32 291 1706 0
 1 391 396 397 +.038 .0433581254575403 232682891837997e-32 -.624695047554425 -.7
8086880944303 0 -.78086880944303 .624695047554425 0 .00768374908491942 .006 31 3
96 1705 0 395 291 398 0 +-.038 .0433581254575403 .006 .78086880944303 .624695047
554425 0 -.624695047554425 .78086880944303 0 .003 141 397 284 397 397 291 16 395
 1645 0 ?399 400 393 396 0 0 1 31 398 1704 0 400 396 401 0 +.02286505473929885 .
0554660816661012 -.006 .780868809443031 -.624695047554424 0 .624695047554424 .78
0868809443031 0 .003 16 400 1642 0 ?402 403 395 398 0 0 1 31 401 1703 0 403 398
 404 0 +-.038 .0433581254575403 -.006 -.78086880944303 -.624695047554425 7224487
76212736e-30 .624695047554425 -.78086880944303 0 .003 16 403 1639 0 ?405 406 400
 401 0 0 1 32 404 1702 0 1 401 407 408 +-.038 .0433581254575403 232682891837997e
-32 .624695047554424 -.78086880944303 0 .780868809443031 .624695047554424 0 .007
68374908491942 .006 31 407 1701 0 406 404 409 0 +.0184921894064179 .057 -.006 1
 0 0 0 0 -1 .003 141 408 410 408 408 404 56 410 1691 0 411 412 413 0 +R282 414 4
04 .003 .003 1 1 0 0 0 0 14 411 1609 415 ?416 417 418 5 410 +0 0 416 417 27 51 4
12 1692 0 416 289 410 0 +.1058370801802846 -.01091153868668744 -.006 .7808688094
4303 -.624695047554425 142588574252514e-30 .003 .624695047554425 .78086880944303
 0 54 413 1690 0 417 410 419 0 +.0184921894064179 .05 -.006 -1826024711554535e-3
1 0 1 .007 .003 1 0 1826024711554535e-31 51 282 314 0 278 420 274 421 --.038 -.0
957078889120432 232682891837997e-32 0 1 0 .009 0 0 1 50 414 979 0 422 0 290 423
 +-.022 .06 -.019 .624695047554424 -.78086880944303 0 .780868809443031 .62469504
7554424 0 14 422 827 424 ?425 426 427 5 414 -0 0 425 426 27 50 290 975 0 425 414
 428 429 +.022 .06 -.019 -.624695047554425 -.78086880944303 0 .78086880944303 -.
624695047554425 0 141 423 410 423 423 414 14 425 939 430 ?431 422 432 5 290 -0 0
 431 422 27 51 428 569 0 426 290 433 0 +-.038 .06 232682891837997e-32 0 -1 0 .00
45 0 0 -1 141 429 284 429 429 290 14 426 533 434 ?422 435 436 5 428 -0 0 422 435
 27 51 433 566 0 435 428 437 0 +.038 .06 232682891837997e-32 0 -1 0 .0045 0 0 -1
 14 435 551 438 ?426 439 440 5 433 -0 0 426 439 27 50 437 316 0 441 433 420 0 +.
038 .06 232682891837997e-32 0 -1 0 0 0 -1 14 441 286 442 ?281 278 443 5 437 -0 0
 281 278 27 50 420 315 0 439 437 282 0 +.038 -.0957078889120432 -.009 -182602471
1554535e-31 0 1 1 0 1826024711554535e-31 14 439 274 444 ?435 281 445 5 420 -0 0
 435 281 27 81 1 444 2223 446 439 447 0 442 448 449 14 281 282 448 ?439 441 450
 5 274 -0 0 439 441 27 15 445 277 0 86 439 0 13 27 34 0 0 0 0 0 0 9 16 14 16 399
 451 ?203 0 452 5 311 -183 183 203 0 27 81 1 451 2225 446 16 453 0 448 454 455 1
4 203 191 454 ?310 16 199 5 312 -0 0 310 16 27 15 452 519 0 456 16 457 14 183 84
 458 ?195 315 459 5 311 -16 16 195 315 27 81 1 458 2227 446 183 460 0 454 461 46
2 14 195 1 461 ?279 183 190 5 275 +0 0 279 183 27 14 315 167 463 ?183 310 33 5 2
99 -310 310 183 310 27 15 459 511 0 464 183 179 17 464 0 459 464 464 0 465 221 0
 0 -17 465 0 466 465 465 0 464 221 0 0 +16 221 548 0 ?465 467 218 468 0 0 1 16 4
67 530 0 ?469 470 221 471 0 0 1 31 468 572 0 221 471 472 0 +.038 0 2326828918379
97e-32 0 -1 0 0 0 -1 .0045 31 471 574 0 467 0 468 0 +-.038 0 232682891837997e-32
 0 -1 0 0 0 -1 .0045 31 472 337 0 473 468 474 0 +-.038 0 232682891837997e-32 0 1
 0 0 0 1 .009 16 473 1468 0 ?475 476 477 472 0 0 1 31 474 335 0 476 472 478 0 +.
038 0 232682891837997e-32 0 1 0 0 0 1 .009 16 476 1361 0 ?479 205 473 474 0 0 1
 30 478 330 0 470 474 480 0 +.038 -.0957078889120432 -.009 0 1 0 16 470 1355 0 ?
481 482 467 478 0 0 1 30 480 329 0 482 478 483 0 +-.038 -.0957078889120432 -.009
 0 1 0 16 482 1387 0 ?484 485 470 480 0 0 1 30 483 328 0 485 480 486 0 +-.038 -.
0957078889120432 .009 0 1 0 16 485 1279 0 ?487 477 482 483 0 0 1 30 486 327 0 47
7 483 201 0 +.038 -.0957078889120432 .009 0 1 0 16 477 1285 0 ?488 473 485 486 0
 0 1 31 201 7 0 192 486 193 0 +0 0 .019 0 0 -1 1 0 0 .027 30 193 11 0 181 201 48
9 0 +.027 0 .019 1 0 0 31 489 15 0 191 193 490 0 +0 0 .019 0 0 1 1 0 0 .036 16 1
91 13 0 ?174 197 181 489 0 0 1 30 490 19 0 197 489 491 0 +-.036 0 .019 1 0 0 16
 197 17 0 ?171 492 191 490 0 0 1 31 491 74 0 205 490 493 0 +0 0 -.019 0 0 -1 1 0
 0 .027 16 205 62 0 ?202 494 476 491 0 0 1 30 493 73 0 494 491 495 0 +.027 0 -.0
19 1 0 0 16 494 58 0 ?184 496 205 493 0 0 1 31 495 72 0 496 493 497 0 +0 0 -.019
 0 0 1 1 0 0 .036 16 496 54 0 ?498 200 494 495 0 0 1 30 497 71 0 200 495 499 0 +
-.036 0 -.019 1 0 0 16 200 50 0 ?500 192 496 497 0 0 1 30 499 95 0 492 497 214 0
 +-.027 0 .019 0 0 -1 16 492 79 0 ?159 501 197 499 0 0 1 30 214 96 0 502 499 212
 0 +-.036 0 .019 0 0 -1 16 502 80 0 ?503 211 501 214 501 501 1 17 503 0 457 28 1
96 45 504 502 0 505 +16 211 1494 0 ?166 188 502 212 188 188 1 16 501 1497 0 ?163
 502 492 214 502 502 1 17 163 0 457 500 57 161 506 501 0 498 +15 457 397 0 500 1
6 0 17 500 0 457 198 163 157 507 200 0 204 +17 57 0 457 163 508 55 509 374 0 506
 +17 506 0 316 51 498 55 163 501 0 510 -17 498 0 316 506 166 161 511 496 0 507 +
15 316 170 0 506 310 0 17 166 0 316 498 60 164 512 211 0 184 +17 511 0 513 187 5
07 164 498 496 0 0 -17 507 0 513 511 204 161 500 200 0 0 -15 513 49 0 204 279 0
 17 204 0 513 507 187 157 202 205 0 0 -17 187 0 513 204 511 167 184 494 0 202 -1
7 184 0 179 512 169 164 187 494 0 511 +17 512 0 179 104 184 58 166 211 0 514 -17
 104 0 179 515 512 102 514 376 0 479 +17 514 0 516 517 518 58 104 376 0 0 -15 51
6 1747 0 514 295 0 17 517 0 516 113 514 52 60 339 0 519 -17 518 0 516 514 113 10
2 520 263 0 0 -17 113 0 516 518 517 111 519 521 0 522 +17 520 0 280 481 479 111
 518 263 0 523 +16 263 1373 0 ?520 524 255 256 0 0 1 16 524 1380 0 ?146 525 263
 264 0 0 1 17 146 0 280 526 481 144 527 524 0 488 +16 525 1392 0 ?101 528 524 52
9 0 0 1 32 264 1382 0 524 256 529 0 -.038 .0433581254575403 232682891837997e-32
 .470588235294118 .882352941176471 0 -.882352941176471 .470588235294118 0 .0102
 .009 31 529 1394 0 525 264 530 0 +-54780741346636e-32 0 -.009 -1826024711554535
e-31 0 1 1 0 1826024711554535e-31 .039 30 530 1401 0 528 529 531 0 +-.0594956167
656505 .0261616320450199 -.009 .780868809443031 .624695047554424 142588574252514
2e-31 16 528 1399 0 ?95 532 525 530 0 0 1 31 531 1405 0 532 530 533 0 --.0184921
894064179 .05 -.009 -1826024711554535e-31 0 1 1 0 1826024711554535e-31 .007 16 5
32 1403 0 ?92 534 528 531 0 0 1 30 533 1409 0 534 531 535 0 +.038 .057 -.009 1 0
 1826024711554535e-31 16 534 1407 0 ?89 536 532 533 0 0 1 31 535 1413 0 536 533
 537 0 -.0184921894064179 .05 -.009 -1826024711554535e-31 0 1 1 0 18260247115545
35e-31 .007 16 536 1411 0 ?86 538 534 535 0 0 1 30 537 1416 0 538 535 539 0 +.10
58370801802846 -.01091153868668744 -.009 .78086880944303 -.624695047554425 14258
8574252514e-30 16 538 1414 0 ?110 540 536 537 0 0 1 30 539 1428 0 540 537 541 0
 -.038 .06 .006 -1 0 -1826024711554535e-31 16 540 1426 0 ?131 542 538 539 0 0 1
 30 541 1434 0 542 539 543 0 -.038 .06 -.006 1 0 1826024711554535e-31 16 542 143
2 0 ?83 544 540 541 0 0 1 31 543 1446 0 544 541 545 0 +-.0184921894064179 .05 .0
06 1826024711554535e-31 0 -1 -1 0 -1826024711554535e-31 .01 16 544 1444 0 ?80 54
6 542 543 0 0 1 31 545 1451 0 546 543 547 0 +-.0184921894064179 .05 -.006 -18260
24711554535e-31 0 1 1 0 1826024711554535e-31 .01 16 546 1449 0 ?74 548 544 545 0
 0 1 30 547 1457 0 548 545 549 0 --.022 .06 .006 -.780868809443031 -.62469504755
4424 -1425885742525142e-31 16 548 1455 0 ?77 550 546 547 0 0 1 32 549 1461 0 550
 547 551 0 --.0398740851426633 .0457007318858694 232682891837997e-32 .6246950475
54424 -.78086880944303 0 .780868809443031 .624695047554424 0 .00768374908491942
 .006 16 550 1459 0 ?71 552 548 549 0 0 1 30 551 1464 0 552 549 553 0 --.022 .06
 -.006 .780868809443031 .624695047554424 1425885742525142e-31 16 552 1462 0 ?68
 554 550 551 0 0 1 38 553 1475 0 554 551 555 0 +556 282 557 558 559 560 16 554 1
473 0 ?561 562 552 553 0 0 1 38 555 1482 0 562 553 340 0 +563 282 564 565 566 56
7 59 556 1476 0 1 265 563 568 +1 329 40 2 557 0 1 2 .000759091921096771 .1716359
269575785 ??-.03875 0 .00896869555732605 -.038 .00877496438739212 .009 41 1 558
 L?-.03875 0 .00896869555732605 41 1 559 L?-.038 .00877496438739212 .009 204 4 5
60 3 6.19975522056897 .0957078889120432 0 .1044828532994352 59 265 1376 0 1 257
 556 569 +1 293 59 563 1483 0 1 556 342 570 +1 322 141 568 553 568 568 556 59 34
2 1503 0 1 563 350 571 +0 293 141 570 555 570 570 563 141 571 337 571 571 342 14
1 569 256 569 569 265 16 562 1480 0 ?65 572 554 555 0 0 1 32 340 1489 0 572 555
 337 0 --.038 .0433581254575403 232682891837997e-32 -.470588235294118 .882352941
176471 0 .882352941176471 .470588235294118 0 .0102 .009 40 2 564 0 1 2 .00075909
1921096875 .1716359269575705 ??-.038 .00877496438739212 -.009 -.03875 -242983039
3511145e-32 -.00896869555732693 41 1 565 L?-.038 .00877496438739212 -.009 41 1 5
66 L?-.03875 -2429830393511145e-32 -.00896869555732693 204 4 567 3 3.14159265358
9795 .1044828532994352 3.225022740200385 .0957078889120432 16 572 1487 0 ?98 339
 562 340 0 0 1 17 98 0 573 574 487 96 575 572 0 484 +16 339 1500 0 ?60 576 572 3
37 0 0 1 17 60 0 316 166 54 58 517 339 0 512 +16 576 1505 0 ?54 348 339 341 0 0
 1 17 54 0 316 60 51 52 577 576 0 517 +16 348 1508 0 ?51 355 576 347 0 0 1 31 34
1 1507 0 576 337 347 0 -0 0 -.012 -1826024711554535e-31 0 1 1 0 1826024711554535
e-31 .036 17 51 0 316 54 506 49 510 348 0 578 +17 510 0 579 509 578 55 51 348 0
 0 -17 578 0 579 510 580 49 581 382 0 577 -15 579 1743 0 509 324 0 17 580 0 579
 578 509 99 65 562 0 581 -17 581 0 582 522 577 99 578 382 0 0 +16 382 1754 0 ?58
1 379 521 583 0 0 1 17 577 0 582 581 519 49 54 576 0 0 -15 582 1745 0 581 584 0
 17 519 0 582 577 522 52 113 521 0 0 -17 522 0 582 519 581 111 101 525 0 520 -16
 521 1759 0 ?113 382 585 586 0 0 1 16 585 1803 0 ?587 521 588 20 0 0 1 31 586 17
78 0 521 589 300 0 +.038 .00877496438739212 -.012 -.224999086856208 .97435897435
8974 -563414462283066e-30 -.974358974358974 -.224999086856208 0 .003 31 589 1699
 0 219 409 586 0 +-.0184921894064179 .057 -.006 1 0 0 0 0 -1 .003 38 300 1777 0
 1 586 583 590 +297 591 592 593 594 595 31 583 1776 0 382 300 328 0 +-.038 .0087
7496438739212 -.012 -.224999086856208 -.974358974358974 563414462283065e-30 .974
358974358974 -.224999086856208 0 .003 141 590 293 590 590 300 51 297 1773 0 1 29
3 591 596 -.038 -.0957078889120432 232682891837997e-32 0 1 0 .012 0 0 1 51 591 1
772 0 1 297 325 597 -0 0 .019 0 0 -1 .039 -1 0 0 40 3 592 -.002647620869312805 .
988404321578943 3 .002363559586393565 .351696866352825 ??.0373080434531938 .0113
6265346187258 -.01198003322772238 .038 .00877496438739212 -.012 .038856453759229
35 -.00334305268532667 -.01196939793633338 41 1 593 L?.0373080434531938 .0113626
5346187258 -.01198003322772238 41 1 594 L?.03885645375922935 -.00334305268532667
 -.01196939793633338 204 12 595 4 3.199287702260715 .1070705423739158 2.84595480
193672 .0309800332277224 3.141592653589795 .1044828532994352 2.914650554585265 .
031 3.070160775466605 .0923648362267165 3.22741727652681 .0309693979363334 54 32
5 1771 0 584 591 322 0 +0 0 -.012 -1826024711554535e-31 0 1 .039 .003 1 0 182602
4711554535e-31 141 597 300 597 597 591 14 584 1744 598 ?295 324 582 5 325 -0 0 2
95 324 27 81 1 598 2230 446 584 599 0 463 600 601 14 295 1746 600 ?301 584 516 5
 293 -0 0 301 584 27 14 324 1742 602 ?584 367 579 5 322 -0 0 584 367 27 81 1 602
 2232 446 324 603 0 600 604 605 14 367 1623 604 ?324 606 607 5 365 +0 0 324 606
 27 81 1 604 2233 446 367 608 0 602 609 610 14 606 1621 609 ?367 611 612 5 368 +
0 0 367 611 27 15 607 1624 0 122 367 0 17 122 0 607 613 614 120 615 381 0 616 +1
7 613 0 607 143 122 129 248 246 0 617 -17 614 0 607 122 143 132 241 239 0 0 -17
 615 0 618 619 616 132 122 381 0 614 -17 616 0 618 615 389 120 116 253 0 248 -15
 618 1620 0 389 611 0 17 389 0 618 616 619 114 620 387 0 0 +17 116 0 621 119 208
 114 616 253 0 622 +17 248 0 623 624 625 120 613 246 0 208 +15 623 1213 0 625 43
1 0 17 624 0 623 128 248 123 208 206 0 626 -17 625 0 623 248 128 129 227 225 0 6
13 -17 208 0 621 116 125 120 624 206 0 0 +15 621 943 0 208 425 0 17 125 0 621 20
8 119 123 627 249 0 624 +17 119 0 621 125 116 117 622 251 0 627 +17 627 0 628 62
9 402 117 125 249 0 394 -15 628 1612 0 402 416 0 17 629 0 628 630 627 108 394 39
3 0 527 -17 402 0 628 627 630 123 631 400 0 0 +17 394 0 632 622 527 117 629 393
 0 0 +15 632 1616 0 394 287 0 17 622 0 632 620 394 114 119 251 0 389 -17 527 0 6
32 394 620 108 146 524 0 0 -17 620 0 632 527 622 144 389 387 0 619 -17 619 0 618
 389 615 144 134 242 0 0 -17 134 0 450 241 488 132 619 242 0 615 +15 450 1297 0
 488 281 0 17 241 0 450 140 134 141 614 239 0 0 +17 488 0 450 134 149 144 526 47
7 0 620 +17 149 0 450 488 633 147 634 231 0 526 +17 526 0 280 107 146 147 488 47
7 0 635 -15 280 304 0 481 273 0 17 107 0 280 479 526 105 635 255 0 515 +17 635 0
 306 38 636 147 107 255 0 587 -15 306 1792 0 636 301 0 17 38 0 306 36 635 11 587
 585 0 41 -17 636 0 306 635 36 105 44 29 0 0 -17 587 0 637 634 41 147 38 585 0 0
 +15 637 1794 0 587 305 0 17 634 0 637 638 587 153 149 231 0 561 -17 41 0 637 58
7 638 11 34 42 0 0 -17 638 0 637 41 634 32 155 588 0 0 -16 42 1527 0 ?34 37 355
 356 0 0 1 17 155 0 639 640 43 153 638 588 0 634 +16 588 1808 0 ?155 585 0 641 0
 0 1 31 641 1827 0 588 328 335 0 +-.038 .00877496438739212 .012 .224999086856208
 .974358974358974 563414462283066e-30 -.974358974358974 .224999086856208 0 .003
 38 328 1775 0 1 583 641 642 -326 332 643 644 645 646 38 335 1826 0 1 641 20 647
 +333 307 648 649 650 651 31 20 1825 0 585 335 7 0 +.038 .00877496438739212 .012
 .224999086856208 -.974358974358974 -563414462283065e-30 .974358974358974 .22499
9086856208 0 .003 141 647 329 647 647 335 51 333 1822 0 1 329 307 652 --.038 -.0
957078889120432 232682891837997e-32 0 1 0 .012 0 0 1 51 307 1821 0 1 333 302 653
 -0 0 .019 0 0 -1 .039 -1 0 0 40 3 648 -.002647620869312805 .988404321578943 3 .
002363559586393565 .351696866352825 ??-.0373080434531938 .01136265346187258 .011
98003322772238 -.038 .00877496438739212 .012 -.03885645375922935 -.0033430526853
2667 .0119693979363334 41 1 649 L?-.0373080434531938 .01136265346187258 .0119800
3322772238 41 1 650 L?-.03885645375922935 -.00334305268532667 .0119693979363334
 204 12 651 4 .0576950486709228 .1070705423739158 .295637851653074 .007019966772
27762 0 .1044828532994352 .226942099004527 .007 6.2117534290564 .092364836226716
5 6.19736068424257 .00703060206366662 141 653 335 653 653 307 141 652 335 652 65
2 333 141 642 322 642 642 328 51 326 1769 0 1 322 332 654 -0 0 .019 0 0 -1 .039
 -1 0 0 51 332 1768 0 1 326 329 655 --.038 -.0957078889120432 232682891837997e-3
2 0 1 0 .012 0 0 1 40 3 643 -.002647620869312805 .988404321578943 3 .00236355958
6393565 .351696866352825 ??-.0373080434531938 .01136265346187258 -.0119800332277
2238 -.038 .00877496438739212 -.012 -.03885645375922935 -.00334305268532667 -.01
196939793633338 41 1 644 L?-.0373080434531938 .01136265346187258 -.0119800332277
2238 41 1 645 L?-.03885645375922935 -.00334305268532667 -.01196939793633338 204
 12 646 4 .295637851653074 .0309800332277224 3.08389760491887 .1070705423739158
 .226942099004527 .031 3.141592653589795 .1044828532994352 6.19736068424257 .030
9693979363334 3.213024531712985 .0923648362267165 141 655 328 655 655 332 141 65
4 328 654 654 326 15 639 1796 0 505 331 0 17 640 0 639 505 155 61 561 554 0 0 -1
7 43 0 639 155 505 32 40 355 0 638 -17 505 0 639 43 640 45 28 10 0 0 -17 40 0 33
 504 34 45 43 355 0 503 +15 33 166 0 35 315 0 17 504 0 33 189 40 172 503 502 0 1
96 -17 189 0 33 35 504 175 174 191 0 0 -17 196 0 457 503 198 172 171 197 0 0 -17
 198 0 457 196 500 156 159 492 0 194 -17 159 0 199 202 194 157 198 492 0 500 +17
 35 0 33 31 189 39 180 188 0 36 +17 174 0 190 171 177 172 189 191 0 504 +17 36 0
 306 636 38 39 31 37 0 0 -17 28 0 457 508 503 61 505 10 0 475 +17 508 0 457 57 2
8 63 475 473 0 509 -17 475 0 573 561 65 61 508 473 0 640 +15 573 296 0 487 278 0
 17 561 0 573 487 475 153 640 554 0 633 +17 65 0 573 475 574 63 580 562 0 508 +1
7 574 0 573 65 98 99 484 482 0 580 -17 484 0 445 95 101 96 574 482 0 656 +17 95
 0 445 92 484 93 656 528 0 657 +17 101 0 445 484 523 99 522 525 0 574 +17 656 0
 658 659 660 96 95 528 0 405 -15 658 1606 0 660 661 0 17 659 0 658 662 656 66 40
5 403 0 663 -17 660 0 658 656 662 93 664 665 0 0 +17 405 0 418 575 663 96 659 40
3 0 0 +15 418 1610 0 405 411 0 17 575 0 418 666 405 150 98 572 0 399 -17 663 0 4
18 405 666 66 71 550 0 0 -17 666 0 418 663 575 69 399 395 0 667 -17 71 0 668 77
 68 69 663 550 0 666 +15 668 831 0 230 422 0 17 77 0 668 230 71 75 667 548 0 669
 +17 68 0 668 71 230 66 662 552 0 659 +17 230 0 668 68 77 72 669 228 0 664 +17 6
62 0 658 660 659 72 68 552 0 0 -17 669 0 670 80 74 75 230 228 0 671 -17 664 0 67
2 673 657 72 660 665 0 662 -15 672 1602 0 664 674 0 17 673 0 672 675 664 81 74 5
46 0 676 -17 657 0 672 664 675 93 92 532 0 660 -16 665 1633 0 ?660 219 406 409 0
 0 1 16 219 1630 0 ?676 215 665 589 0 0 1 16 406 1636 0 ?677 665 403 407 0 0 1 3
1 409 1700 0 665 407 589 0 +-.02286505473929885 .0554660816661012 -.006 -.780868
80944303 -.624695047554425 0 .624695047554425 -.78086880944303 0 .003 17 677 0 6
78 626 679 126 680 406 0 0 +15 678 1608 0 677 417 0 17 626 0 678 631 677 123 128
 244 0 402 -17 679 0 678 677 631 87 86 536 0 0 -17 680 0 681 682 683 87 677 406
 0 679 -15 681 1604 0 676 684 0 17 682 0 681 676 680 90 89 534 0 0 -17 683 0 681
 680 676 126 83 542 0 677 -17 676 0 681 683 682 81 675 219 0 0 +17 83 0 443 224
 227 81 683 542 0 685 +15 443 288 0 227 441 0 17 224 0 443 131 83 78 685 209 0 6
86 +17 227 0 443 83 131 126 625 225 0 683 +17 685 0 670 74 80 81 224 209 0 673 -
15 670 1234 0 685 687 0 17 74 0 670 669 685 72 673 546 0 230 +17 80 0 670 685 66
9 78 688 544 0 224 +17 688 0 689 392 686 75 80 544 0 0 -15 689 1618 0 392 690 0
 17 392 0 689 691 688 135 671 390 0 0 +17 686 0 689 688 691 78 386 384 0 692 -17
 691 0 689 686 392 138 137 235 0 386 -17 386 0 612 693 692 138 686 384 0 0 +17 6
92 0 612 386 617 78 131 540 0 0 -15 612 1622 0 386 606 0 17 617 0 612 692 693 12
9 143 379 0 0 -17 131 0 443 227 224 129 692 540 0 625 +17 693 0 612 617 386 141
 140 233 0 241 -17 143 0 607 614 613 141 617 379 0 693 +17 140 0 450 137 241 138
 693 233 0 691 +17 137 0 450 152 140 135 691 235 0 694 +17 152 0 450 633 137 150
 694 237 0 487 +17 694 0 695 671 399 135 152 237 0 392 -15 695 1614 0 399 696 0
 17 671 0 695 667 694 75 392 390 0 688 -17 399 0 695 694 667 150 666 395 0 0 +17
 667 0 695 399 671 69 77 548 0 0 -14 696 1613 697 ?287 416 695 5 289 +0 0 287 41
6 27 81 1 697 2235 446 696 698 0 609 699 700 14 287 1615 699 ?690 696 632 5 284
 +0 0 690 696 27 14 416 1611 701 ?696 411 628 5 412 +0 0 696 411 27 51 289 1693
 0 696 284 412 0 +-.0594956167656505 .0261616320450199 .006 -.780868809443031 -.
624695047554424 -1425885742525142e-31 .003 .624695047554424 -.78086880944303 0 8
1 1 701 2237 446 416 702 0 699 703 704 80 255 1 446 705 706 9000 1 1 1 1 1 1 1 1
 0 FFFFTFTFFFFFFF1 81 1 702 2122 707 416 0 701 708 698 709 81 1 699 2236 446 287
 710 0 697 701 711 81 1 703 2238 446 417 712 0 701 713 714 82 255 1 704 -1263730
564 14 417 1607 703 ?411 661 678 5 413 +0 0 411 661 27 81 1 712 2120 707 417 715
 703 716 708 717 81 1 713 2239 446 661 716 0 703 718 719 82 1 714 -1261502340 14
 661 1605 713 ?417 684 658 5 419 +0 0 417 684 27 81 1 716 2119 707 661 0 713 720
 712 721 81 1 718 2240 446 684 720 0 713 722 723 82 1 719 -1260322692 14 684 160
3 718 ?661 674 681 5 724 +0 0 661 674 27 81 1 720 2118 707 684 0 718 725 716 726
 81 1 722 2241 446 674 725 0 718 727 728 82 1 723 -1259208580 14 674 1601 722 ?6
84 687 672 5 296 +0 0 684 687 27 81 1 725 2117 707 674 729 722 730 720 731 81 1
 727 2242 446 687 730 0 722 732 733 82 1 728 -1258094468 14 687 1233 727 ?674 43
1 670 5 270 +0 0 674 431 27 81 1 730 2116 707 687 0 727 734 725 735 81 1 732 224
3 446 431 734 0 727 736 737 82 1 733 1415708796 14 431 1212 732 ?687 425 623 5 3
17 +0 0 687 425 27 81 1 734 2115 707 431 0 732 738 730 739 81 1 736 2244 446 279
 740 0 732 741 742 82 1 737 1413742716 14 279 48 736 ?273 195 513 5 283 -0 0 273
 195 27 81 1 740 2105 707 279 0 736 743 744 745 81 1 741 2245 446 278 746 0 736
 747 748 82 1 742 77529191 14 278 293 741 ?441 273 573 5 282 -0 0 441 273 27 81
 1 746 2107 707 278 0 741 744 749 750 81 1 747 2246 446 690 751 0 741 752 753 82
 1 748 40304764 14 690 1617 747 ?611 287 689 5 288 +0 0 611 287 27 81 1 751 2125
 707 690 754 747 710 755 756 81 1 752 2247 446 611 755 0 747 757 758 82 1 753 -1
267138436 14 611 1619 752 ?606 690 618 5 759 +0 0 606 690 27 81 1 755 2126 707 6
11 0 752 751 760 761 81 1 757 2248 446 305 762 0 752 763 764 82 1 758 -126825254
8 14 305 1793 757 ?331 301 637 5 302 -0 0 331 301 27 81 1 762 2133 707 305 765 7
57 766 767 768 81 1 763 2249 446 331 767 0 757 0 769 82 1 764 -1250819972 14 331
 1795 763 ?0 305 639 5 329 -0 0 0 305 27 81 1 767 2134 707 331 770 763 762 0 771
 82 1 769 -1252327300 80 1 707 0 772 8001 0 0 0 0 3 5 0 0 0 FFFFTFTFFFFFFF2 81 1
 770 1859 773 331 0 767 0 765 774 83 255 3 771 1 .807843137254902 .4980392156862
75 80 1 773 775 776 9000 0 0 0 0 3 5 0 0 0 FFFFTFFFFFFFFF1 81 1 765 1860 773 305
 0 762 770 777 778 82 1 774 465 81 1 777 1861 773 301 0 766 765 779 780 82 1 778
 465 81 1 766 2132 707 301 777 304 781 762 782 81 1 779 1862 773 295 0 781 777 7
83 784 82 1 780 465 81 1 781 2131 707 295 779 600 599 766 785 81 1 783 1863 773
 584 0 599 779 786 787 82 1 784 467 81 1 599 2130 707 584 783 598 603 781 788 81
 1 786 1864 773 324 0 603 783 0 789 82 1 787 467 81 1 603 2129 707 324 786 602 6
08 599 790 82 1 789 467 81 1 608 2128 707 367 791 604 760 603 792 83 3 790 1 .80
7843137254902 .498039215686275 81 1 791 1855 775 367 0 608 0 715 793 81 1 760 21
27 707 606 0 609 755 608 794 83 3 792 1 .807843137254902 .498039215686275 81 1 6
09 2234 446 606 760 0 604 697 795 83 3 794 1 .807843137254902 .498039215686275 8
2 1 795 -1269432196 80 1 775 796 797 9000 0 0 0 0 3 5 0 0 0 FFFFTFFFFFFFFF1 81 1
 715 1856 775 417 0 712 791 729 798 82 1 793 1 81 1 729 1857 775 674 0 725 715 7
54 799 82 1 798 1 81 1 754 1858 775 690 0 751 729 0 800 82 1 799 1 82 1 800 1 79
 255 18 797 FILLET_CORNER_FACE83 3 788 1 .807843137254902 .498039215686275 81 1
 600 2231 446 295 781 0 598 602 801 83 3 785 1 .807843137254902 .498039215686275
 82 1 801 -1256914820 81 1 304 2215 446 301 766 0 277 314 802 83 3 782 1 .807843
137254902 .498039215686275 81 1 277 2214 446 273 744 0 0 304 803 81 1 314 2216 4
46 310 804 0 304 415 805 82 1 802 -1249443716 81 1 804 2101 707 310 0 314 806 80
7 808 81 1 415 2217 446 411 708 0 314 424 809 82 1 805 37814396 81 1 708 2121 70
7 411 0 415 712 702 810 81 1 424 2218 446 422 811 0 415 430 812 82 1 809 -126261
6452 81 1 811 2113 707 422 0 424 813 738 814 81 1 430 2219 446 425 738 0 424 434
 815 82 1 812 934215804 81 1 738 2114 707 425 0 430 811 734 816 81 1 434 2220 44
6 426 813 0 430 438 817 82 1 815 938082428 81 1 813 2112 707 426 0 434 818 811 8
19 81 1 438 2221 446 435 818 0 434 442 820 82 1 817 39583864 81 1 818 2111 707 4
35 0 438 447 813 821 81 1 442 2222 446 441 749 0 438 444 822 82 1 820 39714936 8
1 1 749 2108 707 441 0 442 746 823 824 82 1 822 40042620 81 1 823 2109 707 281 0
 448 749 447 825 83 3 824 1 .807843137254902 .498039215686275 81 1 448 2224 446
 281 823 0 444 451 826 81 1 447 2110 707 439 0 444 823 818 827 83 3 825 1 .80784
3137254902 .498039215686275 83 3 827 1 .807843137254902 .498039215686275 82 1 82
6 40435836 83 3 821 1 .807843137254902 .498039215686275 83 3 819 1 .807843137254
902 .498039215686275 83 3 816 1 .807843137254902 .498039215686275 83 3 814 1 .80
7843137254902 .498039215686275 83 3 810 1 .807843137254902 .498039215686275 81 1
 806 2100 707 203 0 454 453 804 828 81 1 807 2102 707 315 0 463 804 460 829 83 3
 808 1 .807843137254902 .498039215686275 81 1 463 2229 446 315 807 0 461 598 830
 81 1 460 2103 707 183 0 458 807 743 831 83 3 829 1 .807843137254902 .4980392156
86275 81 1 743 2104 707 195 0 461 460 740 832 83 3 831 1 .807843137254902 .49803
9215686275 81 1 461 2228 446 195 743 0 458 463 833 83 3 832 1 .807843137254902 .
498039215686275 82 1 833 71893095 82 1 830 38404220 81 1 454 2226 446 203 806 0
 451 458 834 81 1 453 2099 707 16 0 451 0 806 835 83 3 828 1 .807843137254902 .4
98039215686275 83 3 835 1 .807843137254902 .498039215686275 82 1 834 804192369 8
1 1 744 2106 707 273 0 277 740 746 836 82 1 803 40566908 83 3 836 1 .80784313725
4902 .498039215686275 79 18 776 FILLET_MUTUAL_FACE79 15 772 SDL/TYSA_COLOUR83 3
 768 1 .807843137254902 .498039215686275 83 3 761 1 .807843137254902 .4980392156
86275 51 759 1696 0 611 368 288 0 +.1058370801802846 -.01091153868668744 .006 -.
78086880944303 .624695047554425 -142588574252514e-30 .003 -.624695047554425 -.78
086880944303 0 51 368 1697 0 606 365 759 0 +.038 .057 .006 -1 0 -182602471155453
5e-31 .003 -1826024711554535e-31 0 1 54 288 1695 0 690 759 284 0 +-.018492189406
4179 .05 .006 1826024711554535e-31 0 -1 .007 .003 -1 0 -1826024711554535e-31 81
 1 710 2124 707 287 0 699 698 751 837 83 3 756 1 .807843137254902 .4980392156862
75 81 1 698 2123 707 696 0 697 702 710 838 83 3 837 1 .807843137254902 .49803921
5686275 83 3 838 1 .807843137254902 .498039215686275 83 3 750 1 .807843137254902
 .498039215686275 83 3 745 1 .807843137254902 .498039215686275 50 283 70 0 279 2
75 311 0 +0 0 -.019 0 0 1 1 0 0 83 3 739 1 .807843137254902 .498039215686275 51
 317 1224 0 431 312 270 0 +.0184921894064179 .05 -.019 0 0 1 .01 1 0 0 51 270 12
45 0 687 317 257 0 +-.0184921894064179 .05 232682891837997e-32 0 0 1 .01 1 0 0 8
3 3 735 1 .807843137254902 .498039215686275 83 3 731 1 .807843137254902 .4980392
15686275 54 296 1687 0 674 724 293 0 +-.0184921894064179 .05 -.006 -182602471155
4535e-31 0 1 .007 .003 1 0 1826024711554535e-31 51 724 1688 0 684 419 296 0 +.03
8 .057 -.006 1 0 1826024711554535e-31 .003 1826024711554535e-31 0 -1 51 419 1689
 0 661 413 724 0 +-.0594956167656505 .0261616320450199 -.006 .780868809443031 .6
24695047554424 1425885742525142e-31 .003 -.624695047554424 .78086880944303 0 83
 3 726 1 .807843137254902 .498039215686275 83 3 721 1 .807843137254902 .49803921
5686275 83 3 717 1 .807843137254902 .498039215686275 82 1 711 -1266024324 83 3 7
09 1 .807843137254902 .498039215686275 79 14 706 SWEntUnchanged82 1 700 -1264910
212 17 633 0 450 149 152 153 487 485 0 0 -17 487 0 573 98 561 150 633 485 0 575
 +17 675 0 672 657 673 90 676 219 0 682 -17 89 0 445 86 92 87 682 534 0 680 +17
 86 0 445 110 89 84 679 536 0 631 +17 92 0 445 89 95 90 657 532 0 675 +17 110 0
 445 523 86 108 630 538 0 481 +17 631 0 678 679 626 84 402 400 0 630 -17 630 0 6
28 402 629 84 110 538 0 0 -17 523 0 445 101 110 111 481 470 0 0 -17 481 0 280 14
6 520 108 523 470 0 629 +17 128 0 623 625 624 126 626 244 0 227 +17 509 0 579 58
0 510 63 57 374 0 0 -17 44 0 179 180 515 39 636 29 0 35 +17 515 0 179 44 104 105
 479 476 0 636 -17 479 0 280 520 107 102 515 476 0 518 +82 1 610 -1271005060 82
 1 605 -1254031236 82 1 601 -1255407492 141 596 300 596 596 297 17 469 0 839 469
 469 0 456 467 0 0 +15 839 537 0 469 426 0 17 456 0 452 456 456 0 469 467 0 0 -1
5 466 555 0 465 435 0 82 1 462 38207612 82 1 455 37879932 82 1 449 40173692 15 4
40 678 0 220 435 466 17 220 0 440 220 220 0 840 218 0 0 +17 840 0 432 840 840 0
 220 218 0 0 -15 432 942 0 840 425 621 15 436 671 0 217 426 839 17 217 0 436 217
 217 0 841 215 0 0 +17 841 0 427 841 841 0 217 215 0 0 -15 427 830 0 841 422 668
 141 421 410 842 843 282 141 842 555 844 421 282 141 843 322 421 845 282 141 845
 329 843 844 282 141 844 553 845 842 282 141 364 347 364 364 350 40 2 351 0 1 2
 .000924020114220253 .227171997900012 ??-.036 0 -.0119582607431014 -.03507692307
69231 .0080999671268235 -.012 41 1 352 L?-.036 0 -.0119582607431014 41 1 353 L?-
.0350769230769231 .0080999671268235 -.012 204 4 354 3 0 .0309582607431014 .22694
2099004527 .031 40 2 343 0 1 2 .000924020114220253 .227171997900012 ??.035076923
0769231 .0080999671268235 -.012 .036 528508424822565e-33 -.0119582607431014 41 1
 344 L?.0350769230769231 .0080999671268235 -.012 41 1 345 L?.036 528508424822565
e-33 -.0119582607431014 204 4 346 3 2.914650554585265 .031 3.141592653589795 .03
09582607431014 141 334 556 846 846 329 141 846 357 334 334 329 141 327 563 847 8
47 322 141 847 350 327 327 322 141 309 362 303 303 272 141 308 7 308 308 18 141
 298 265 848 848 293 141 848 342 298 298 293 141 271 254 271 271 257 40 2 266 0
 1 2 .000759091921096771 .1716359269575785 ??.03875 0 -.00896869555732604 .038 .
00877496438739212 -.009 41 1 267 L?.03875 0 -.00896869555732604 41 1 268 L?.038
 .00877496438739212 -.009 204 4 269 3 3.05816256697918 .0957078889120432 3.14159
2653589795 .1044828532994352 19 17 100 0 1 0 9 5 S0 141 21 272 21 21 7 40 3 22 -
.002647620869312805 .988404321578943 3 .002363559586393565 .351696866352825 ??.0
373080434531938 .01136265346187258 .01198003322772238 .038 .00877496438739212 .0
12 .03885645375922935 -.00334305268532667 .0119693979363334 41 1 23 L?.037308043
4531938 .01136265346187258 .01198003322772238 41 1 24 L?.03885645375922935 -.003
34305268532667 .0119693979363334 204 12 25 4 2.84595480193672 .00701996677227762
 6.22549025850866 .1070705423739158 2.914650554585265 .007 0 .1044828532994352 3
.22741727652681 .00703060206366662 .0714318781231899 .0923648362267165 141 19 7
 19 19 6 74 4 CI16 index_map_offset0 0 1 dCCZ20 15 11 0 0 763 849 850 851 852 75
4 786 853 13 767 2 0 0 0 0 0 0 0 0 0 81 2 849 369 854 1 0 850 0 0 0 855 81 2 850
 379 856 1 849 851 0 0 0 857 81 2 851 605 858 1 850 852 0 0 859 0 81 2 852 668 8
60 1 851 853 0 0 0 861 81 1 853 1914 862 1 852 13 0 0 863 81 2 13 2096 864 1 853
 2 0 0 0 0 80 2 864 865 866 9000 0 0 0 0 3 5 0 0 0 FFTFFFFFFFFFFF9 1 79 16 866 B
ODY_RECIPE_200180 1 862 867 868 9000 1 1 1 1 1 1 1 1 0 FFTFFFFFFFFFFF1 82 1 863
 367 79 10 868 BODY_MATCH80 2 860 869 870 9000 0 0 0 0 3 5 0 0 0 FFTFFFFFFFFFFF9
 1 82 1 861 1 79 24 870 BODY_IN_LIGHTWEIGHT_PERM80 2 858 871 872 8004 0 0 0 0 3
 5 0 0 0 FFTFFFFFFFFFFF2 3 83 1 859 1 79 16 872 SDL/TYSA_DENSITY80 2 856 873 874
 9000 0 0 0 0 3 5 0 0 0 FFTFFFFFFFFFFF9 1 82 1 857 84 79 30 874 LAST_BODY_MODIFY
ING_FEATURE_ID80 2 854 875 876 9000 0 0 0 0 3 5 0 0 0 FFTFFFFFFFFFFF9 1 82 1 855
 115 79 19 876 ENT_TIME_STAMP_200180 2 12 877 878 9000 0 0 0 0 3 5 0 0 0 FFTFFFF
FFFFFFF9 1 82 1 14 105 79 12 878 ATOM_ID_20011 0 
