**ABCDEFGHIJKLMNOPQRSTUVWXYZabcdefghijklmnopqrstuvwxyz**************************
**PARASOLID !"#$%&'()*+,-./:;<=>?@[\]^_`{|}~0123456789**************************
**PART1;
MC=AMD64;
MC_MODEL=Intel64 Family 6 Model 142 Stepping 12, GenuineIntel;
MC_ID=unknown;
OS=Windows_NT;
OS_RELEASE=unknown;
FRU=Parasolid Version 33.1, build 247,  8- 6-2021;
APPL=SOLIDWORKS 2022-2022009;
SITE=;
USER=unknown;
FORMAT=text;
GUISE=transmit;
KEY=FILEPiston.x_t;
DATE=Thu Jun 15 06:15:14 2023;
**PART2;
SCH=SCH_3301247_33103;
USFLD_SIZE=0;
**PART3;
**END_OF_HEADER*****************************************************************
T51 : TRANSMIT FILE created by modeller version 330124723 SCH_3301247_33103_1300
6230 0 12 35 CCCI7 lattice222 0 CCCI4 mesh1006 0 I8 polyline1008 0 CCCCCCCDI5 ow
ner1040 0 CCCCCCI13 boundary_mesh1006 0 I17 boundary_polyline1008 0 CCCA16 index
_map_offset0 0 1 dA9 index_map82 0 A17 node_id_index_map82 0 A20 schema_embeddin
g_map82 0 A5 child12 0 A14 lowest_node_id0 0 1 dA16 mesh_offset_data206 0 Z1 195
7 2 3 0 0 0 0 0 0 0 1e3 1e-8 0 4 0 1 0 1 1 5 6 7 8 0 0 9 10 11 0 0 0 0 0 0 0 81
 255 2 2 1923 12 1 13 0 0 0 0 14 70 11 CI9 list_type0 0 1 uI10 notransmit0 0 1 l
CCCDCCDI12 finger_index0 0 1 dI12 finger_block1012 0 CZ3 0 4 T1 0 0 9 20 1 15 15
 13 255 5 31 0 1 0 16 0 0 17 0 51 255 6 1472 0 18 19 0 20 +-.0425 .0067557721215
4117 -.015 1 0 0 .01 0 0 -1 38 12 CCCCCCCCCCCA17 intersection_data204 0 Z7 1506
 0 10 21 0 0 +22 23 24 25 25 26 29 255 8 1328 0 11 27 0 -.0343693177121688 .0067
557721215412 -.025 19 8 CCCCCCCA5 owner12 0 Z9 9 0 1 17 0 28 V0 16 255 10 1503 0
 ?29 0 30 7 0 0 1 18 255 11 1326 0 31 0 32 8 ?1 17 255 31 0 33 34 35 11 36 37 0
 38 +18 32 1323 0 39 11 40 27 ?1 17 39 0 41 42 43 32 44 45 0 35 +18 40 1310 0 46
 32 47 48 ?1 29 27 1325 0 32 48 8 -.02861817604250835 .00675577212154117 -.025 2
9 48 1312 0 40 49 27 -.0375 .01541602615938555 .02 29 49 1309 0 47 50 48 -.0375
 .01541602615938555 -.02 18 47 1307 0 51 40 52 49 ?1 29 50 1306 0 52 53 49 -.032
31098884280705 .01541602615938555 -.02 18 52 1304 0 44 47 54 50 ?1 29 53 1303 0
 54 55 50 -.032310988842807 .01541602615938555 .02 18 54 1301 0 56 52 57 53 ?1 2
9 55 1295 0 57 58 53 -.0343693177121688 .0067557721215412 .025 18 57 1293 0 59 5
4 60 55 ?1 29 58 1292 0 60 61 55 -.02861817604250835 .00675577212154117 .025 18
 60 1290 0 62 57 63 58 ?1 29 61 1284 0 63 64 58 .0343693177121688 .0067557721215
412 -.025 18 63 1282 0 65 60 66 61 ?1 29 64 1281 0 66 67 61 .02861817604250835 .
00675577212154117 -.025 18 66 1279 0 68 63 69 64 ?1 29 67 1268 0 69 70 64 .0375
 .01541602615938555 -.02 18 69 1266 0 71 66 72 67 ?1 29 70 1265 0 72 73 67 .0375
 .01541602615938555 .02 18 72 1263 0 74 69 75 70 ?1 29 73 1262 0 75 76 70 .03231
098884280705 .01541602615938555 .02 18 75 1260 0 77 72 78 73 ?1 29 76 1259 0 78
 79 73 .032310988842807 .01541602615938555 -.02 18 78 1257 0 80 75 81 76 ?1 29 7
9 1251 0 81 82 76 .0343693177121688 .0067557721215412 .025 18 81 1249 0 83 78 84
 79 ?1 29 82 1248 0 84 85 79 .02861817604250835 .00675577212154117 .025 18 84 12
46 0 86 81 87 82 ?1 29 85 832 0 87 88 82 -.02861817604250835 0 -.025 18 87 830 0
 42 84 89 85 ?1 29 88 1181 0 89 90 85 .0343693177121688 0 .025 18 89 1018 0 91 8
7 92 88 ?1 29 90 1182 0 92 93 88 .02861817604250835 0 .025 18 92 1037 0 94 89 95
 90 ?1 29 93 1183 0 95 96 90 -.02861817604250835 0 .025 18 95 1022 0 97 92 98 93
 ?1 29 96 1184 0 98 99 93 -.0343693177121688 0 .025 18 98 1023 0 100 95 101 96 ?
1 29 99 1191 0 101 102 96 .0343693177121688 0 -.025 18 101 1020 0 103 98 104 99
 ?1 29 102 1192 0 104 105 99 .02861817604250835 0 -.025 18 104 1019 0 106 101 10
7 102 ?1 29 105 1194 0 107 0 102 -.0343693177121688 0 -.025 18 107 1021 0 34 104
 0 105 ?1 17 34 0 33 108 31 107 38 109 0 110 -15 255 33 1120 0 35 111 0 17 108 0
 33 35 34 87 110 112 0 113 +17 38 0 114 51 115 11 34 109 0 116 +16 109 993 0 ?38
 117 118 119 0 0 1 17 110 0 120 121 113 107 108 112 0 115 -15 120 554 0 121 122
 0 17 121 0 120 123 110 101 115 124 0 0 -17 113 0 120 110 123 87 125 126 0 0 -16
 112 954 0 ?108 127 128 129 128 128 1 17 115 0 114 38 103 107 121 124 0 0 +15 11
4 28 0 130 131 132 17 103 0 114 115 65 101 133 117 0 134 +16 124 867 0 ?115 135
 136 137 136 136 1 16 135 5 0 ?138 139 124 140 0 0 1 16 136 876 0 ?130 124 141 1
37 124 124 1 31 255 137 25 0 136 142 143 0 +0 0 0 0 1 0 0 0 1 .0425 31 142 178 0
 144 145 137 0 +0 .0827 0 0 1 0 0 0 1 .0395 31 143 58 0 146 137 147 0 +0 .0827 0
 0 1 0 0 0 1 .0425 16 146 71 0 ?148 141 149 143 0 0 1 31 147 64 0 141 143 150 0
 +0 .0784 0 0 1 0 0 0 1 .0425 16 141 92 0 ?151 136 146 147 0 0 1 31 150 227 0 15
2 147 153 0 +0 .0595 0 0 1 0 0 0 1 .0425 16 152 342 0 ?154 155 156 150 0 0 1 31
 153 233 0 155 150 157 0 +0 .0552 0 0 1 0 0 0 1 .0425 16 155 363 0 ?158 159 152
 153 0 0 1 31 157 239 0 159 153 160 0 +0 .0711 0 0 1 0 0 0 1 .0425 16 159 252 0
 ?161 162 155 157 0 0 1 31 160 245 0 162 157 140 0 +0 .0668 0 0 1 0 0 0 1 .0425
 16 162 273 0 ?163 144 159 160 0 0 1 31 140 595 0 135 160 164 0 +0 .09 0 0 1 0 0
 0 1 .0425 30 255 164 836 0 139 140 165 0 +-.02861817604250835 .085 -.025 0 -1 0
 16 139 1324 0 ?42 166 135 164 0 0 1 38 165 840 0 166 164 167 0 +22 168 169 170
 171 172 16 166 1302 0 ?43 173 139 165 0 0 1 30 167 843 0 173 165 174 0 --.02861
817604250835 .085 .025 0 -1 0 51 22 579 0 16 175 176 177 +0 .085 0 0 -1 0 .038 0
 0 -1 51 168 1155 0 178 179 180 181 +-.0425 -.019224989991992 0 1 0 0 .04 0 0 -1
 40 255 7 169 0 1 7 .001971882928481115 .3735133153576135 ??-.02861817604250835
 .012 .025 -.03455018983020875 .0175134859876055 .0158203787153323 -.03746624632
66799 .0202682956881265 .00634668308556098 -.03779126733645265 .0205767673422669
 -.00397745057854508 -.03575105199200385 .01864502081517525 -.01287875310210726
 -.03164100043417685 .01479196031922166 -.02104393241588705 -.02861817604250835
 .012 -.025 41 3 CI8 term_use0 0 1 cCZ1 170 L?-.02861817604250835 .012 .025 41 1
 171 L?-.02861817604250835 .012 -.025 204 2 17 INTERSECTION_DATA17 Intersection
 data7 uv_type0 0 1 u6 values0 1 1 fT28 172 4 3.9943690709862 .073 2.24592785973
193 .01388182395749162 4.28298853198582 .0674865140123945 1.977418808455235 .007
94981016979123 4.5445845977998 .0647317043118735 1.73013680807568 .0050337536733
2011 4.81725080362303 .0644232326577331 1.471195465065174 .00470873266354736 5.0
5815191237356 .0663549791848248 1.242988009071006 .00674894800799615 5.299295294
53014 .0702080396807784 1.01679024282283 .01085899956582316 5.43040888978318 .07
3 .895664793857865 .01388182395749162 14 255 178 1089 182 ?183 184 185 5 168 -18
6 186 183 184 28 50 255 179 1156 0 187 23 168 0 +-.0425 0 .025 0 0 1 1 0 0 50 18
0 1154 0 183 168 188 0 +-.0425 0 -.025 0 0 -1 -1 0 0 141 255 181 165 189 190 168
 141 189 191 192 181 168 141 190 193 181 192 168 38 193 854 0 194 174 195 0 +22
 168 196 197 198 199 141 192 200 190 189 168 38 200 1164 0 201 202 191 0 +203 16
8 204 205 206 207 16 201 1308 0 ?208 209 117 200 0 0 1 30 202 1165 0 117 119 200
 0 +.0343693177121688 .09 -.025 0 -1 0 38 191 1163 0 209 200 210 0 +203 168 211
 212 213 214 51 203 30 0 215 216 217 218 -0 .09 0 0 -1 0 .0425 0 0 -1 40 6 204 0
 1 6 .0025312972432999 .39604684288349 ??-.0343693177121688 .012 -.025 -.0396322
259100309 .01771365279010985 -.0153472039608613 -.04235451104936265 .02062039375
858295 -.003513601253616865 -.04189229630364075 .02012871999311655 .007161390256
6449 -.03927050892147295 .0173252886793326 .0162504501183356 -.0343693177121688
 .012 .025 41 1 205 L?-.0343693177121688 .012 -.025 41 1 206 L?-.034369317712168
8 .012 .025 204 24 207 4 5.34126390587974 .078 .895664793857865 .008130682287831
2 5.08184764951391 .0722863472098902 1.177018219537956 .00286777408996912 4.7951
5641770892 .069379606241417 1.482842941035788 .0001454889506373526 4.54307792043
017 .0698712800068834 1.750801594900815 .000607703696359263 4.32003613131329 .07
26747113206674 1.989155028249895 .003229491078527055 4.08351405488964 .078 2.245
92785973193 .0081306822878312 14 215 27 219 ?220 221 222 5 203 -223 224 220 221
 28 50 216 24 0 122 225 203 0 +0 0 0 0 1 0 0 0 1 53 255 217 596 0 221 203 226 0
 +0 -.088125 0 .183125 0 0 1 1 0 0 141 218 227 228 229 203 38 227 795 0 230 231
 232 0 +203 188 233 234 234 235 141 228 21 236 218 203 141 229 232 218 237 203 3
8 232 794 0 238 227 239 0 +203 188 240 241 241 242 141 237 200 229 243 203 141 2
43 191 237 244 203 141 244 245 243 246 203 38 245 1374 0 247 248 249 0 +203 226
 250 251 252 253 141 246 254 244 236 203 38 254 1376 0 255 249 256 0 +203 257 25
8 259 260 261 141 236 262 246 228 203 38 262 1379 0 263 264 265 0 +203 19 266 26
7 268 269 16 263 1359 0 ?59 45 270 262 0 0 1 38 264 1378 0 270 256 262 0 +22 19
 271 272 273 274 38 265 1380 0 45 262 21 0 +22 6 275 276 277 278 51 19 1451 0 27
9 257 6 280 +-.0425 .00675577212154117 .015 1 0 0 .01 0 0 -1 40 4 266 0 1 4 .000
784454566731581 .391554843799293 ??-.0375 .01541602615938555 .02 -.0359280237998
2195 .01313256494451862 .0227030197515535 -.0347312101928073 .00989418275037779
 .0244947553272744 -.0343693177121688 .00675577212154117 .025 41 1 267 L?-.0375
 .01541602615938555 .02 41 1 268 L?-.0343693177121688 .00675577212154117 .025 20
4 16 269 4 4.22243165413096 .0745839738406144 2.094395102393195 .005 4.148841228
026985 .0768674350554814 2.45011089645462 .00657197620017806 4.09813726211041 .0
801058172496222 2.82235685384559 .00776878980719269 4.08351405488964 .0832442278
784588 3.141592653589795 .0081306822878312 14 279 1439 281 ?18 282 283 5 19 -0 0
 18 282 28 51 257 1430 0 282 226 19 284 +-.0425 .00675577212154117 -.015 1 0 0 .
01 0 0 -1 141 280 264 285 285 19 141 285 262 280 280 19 14 282 1418 286 ?279 287
 288 5 257 -0 0 279 287 28 51 226 1409 0 287 217 257 289 +-.0425 .00675577212154
117 .015 1 0 0 .01 0 0 -1 141 284 254 290 290 257 141 290 256 284 284 257 38 256
 1377 0 291 254 264 0 +22 257 292 293 294 295 16 291 1349 0 ?80 270 255 256 0 0
 1 40 5 292 0 1 5 .000662802169921712 .3638410456082965 ??.02861817604250835 .00
675577212154117 -.025 .02895951036908565 .00954272558061824 -.02460379562552945
 .0298466294557582 .01199159436414424 -.0235197514895602 .0315416681498178 .0146
0769024474976 -.02119252628467805 .032310988842807 .01541602615938555 -.02 41 1
 293 L?.02861817604250835 .00675577212154117 -.025 41 1 294 L?.032310988842807 .
01541602615938555 -.02 204 20 295 4 .852776417396408 .0782442278784588 0 .071118
1760425084 .866538627925134 .0754572744193818 .282435363346819 .0714595103690856
 .903402852342336 .0730084056358558 .551050155963789 .0723466294557582 .97918639
3819694 .0703923097552502 .903005814332988 .0740416681498178 1.016534492342568 .
0695839738406145 1.047197551196596 .074810988842807 17 80 0 41 296 297 78 298 29
1 0 299 +16 270 1354 0 ?56 263 291 264 0 0 1 16 255 1344 0 ?65 291 300 254 0 0 1
 17 65 0 114 103 301 63 71 255 0 133 +16 300 1339 0 ?86 255 247 249 0 0 1 17 86
 0 41 94 296 84 302 300 0 303 +16 247 1334 0 ?74 300 37 245 0 0 1 38 249 1375 0
 300 245 254 0 +22 226 304 305 306 307 40 5 304 0 1 5 .000685085061376572 .33029
87808539895 ??.03231098884280705 .01541602615938555 .02 .03042585382285145 .0130
563438858066 .0227654874569045 .02919338226524415 .01036530550084384 .0243258387
710543 .02866511887312335 .00779205240991116 .0249461612275257 .0286181760425083
5 .00675577212154117 .025 41 1 305 L?.03231098884280705 .01541602615938555 .02 4
1 1 306 L?.02861817604250835 .00675577212154117 .025 204 20 307 4 2.125058161247
225 .0695839738406145 2.094395102393195 .074810988842807 2.21316263723443 .07194
36561141934 2.45996581533012 .0729258538228514 2.265494579000215 .07463469449915
62 2.772302707772335 .0716933822652441 2.28693649946732 .0772079475900889 3.0377
7824979412 .0711651188731234 2.288816236193385 .0782442278784588 3.1415926535897
95 .0711181760425084 17 74 0 114 301 308 72 83 247 0 309 +16 37 1329 0 ?31 247 3
10 248 0 0 1 16 310 1318 0 ?46 37 311 312 0 0 1 30 248 1331 0 37 312 245 0 +-.03
43693177121688 .00675577212154117 -.025 -1 0 0 30 312 1320 0 310 313 248 0 --.04
25 .01541602615938555 .02 1 0 0 30 313 1315 0 311 314 312 0 +-.0425 .01541602615
938555 -.02 1 0 0 16 311 1313 0 ?315 310 316 313 0 0 1 30 314 1298 0 316 317 313
 0 --.02861817604250835 .00675577212154117 .025 -1 0 0 16 316 1296 0 ?318 311 31
9 314 0 0 1 30 317 1287 0 319 320 314 0 +.02861817604250835 .00675577212154117 -
.025 -1 0 0 16 319 1285 0 ?68 316 321 317 0 0 1 30 320 1276 0 321 322 317 0 --.0
425 .01541602615938555 .02 1 0 0 16 321 1274 0 ?77 319 323 320 0 0 1 30 322 1271
 0 323 324 320 0 +-.0425 .01541602615938555 -.02 1 0 0 16 323 1269 0 ?325 321 32
6 322 0 0 1 30 324 1254 0 326 195 322 0 -.0343693177121688 .00675577212154117 .0
25 -1 0 0 16 326 1252 0 ?327 323 328 324 0 0 1 30 195 857 0 328 193 324 0 +.0286
1817604250835 .085 .025 0 -1 0 16 328 1247 0 ?94 326 194 195 0 0 1 17 94 0 41 32
9 86 92 303 328 0 330 +16 194 1258 0 ?296 328 331 193 0 0 1 17 296 0 41 86 80 75
 299 194 0 302 +16 331 848 0 ?297 194 173 174 0 0 1 17 297 0 41 80 125 66 106 33
1 0 298 +16 173 841 0 ?332 331 166 167 0 0 1 30 174 850 0 331 167 193 0 -.028618
17604250835 .085 -.025 0 -1 0 17 332 0 41 56 329 60 97 173 0 0 +15 41 570 0 297
 16 333 17 56 0 41 43 332 54 62 270 0 334 +17 329 0 41 332 94 95 335 336 0 0 +17
 97 0 337 338 318 95 332 173 0 339 -15 337 1076 0 340 187 0 17 338 0 337 340 97
 98 339 118 0 341 -17 318 0 337 97 340 60 342 316 0 332 +17 339 0 343 335 341 95
 338 118 0 329 +15 343 921 0 341 344 0 17 335 0 343 345 339 92 329 336 0 0 -17 3
41 0 343 339 345 98 130 136 0 0 -16 118 964 0 ?339 109 127 346 127 127 1 16 127
 966 0 ?345 118 112 346 118 118 1 30 346 1170 0 127 347 129 0 +-.0425 0 .025 1 0
 0 31 347 1549 0 348 349 346 0 +0 .02597016273145505 .019 0 0 1 1 0 0 .0169 30 1
29 1167 0 128 346 119 0 +-.0425 0 -.025 1 0 0 16 128 947 0 ?134 112 350 129 112
 112 1 30 119 1166 0 109 129 202 0 --.0343693177121688 .09 -.025 0 -1 0 17 134 0
 351 133 106 101 123 128 0 121 +16 350 1515 0 ?352 128 348 349 0 0 1 17 352 0 35
3 352 352 0 354 350 0 0 +16 348 1512 0 ?355 350 356 347 0 0 1 31 349 1550 0 350
 357 347 0 +0 .02597016273145505 .019 0 0 1 1 0 0 .0225 38 357 1616 0 356 358 34
9 0 +359 360 361 362 362 363 16 356 1583 0 ?364 348 365 357 0 0 1 31 358 1617 0
 366 367 357 0 +0 .02597016273145505 -.019 0 0 1 1 0 0 .0225 51 359 1612 0 368 3
69 360 370 +0 .02597016273145505 -.042502 0 0 1 .0225 1 0 0 51 360 1611 0 1 359
 371 372 +0 .085 0 0 -1 0 .038 0 0 -1 40 21 361 0 1 21 .001592227411382755 .3879
61428228548 ??.0225 .02597016273145505 -.0306227039955651 .02148984896431865 .03
26362253992352 -.0313398530866176 .0186791720093722 .0385136284823664 -.03309212
19181286 .0137734971075505 .0437617556176555 -.03541596783130875 .00660102619927
271 .047480077959473 -.03742227215331155 -.000851467717650017 .0484540459086511
 -.037990459364501 -.00733277801417279 .0472417486289584 -.0372857930932797 -.01
309422263362666 .0442674667301599 -.035672697313506 -.01815259221659935 .0392642
7405255725 -.03338387928054285 -.0216583639817404 .03206649520552915 -.031223633
1908132 -.02249980383693985 .0258762090235641 -.03062284812520265 -.021605943962
1038 .0196905779118647 -.0312599293906181 -.0191199738035578 .01410944598451 -.0
328394062332324 -.01449754117689484 .0087634402130834 -.0351257925152478 -.00752
025555535872 .00476413159920176 -.0372484329386096 971174216618303e-20 .00347016
4827409295 -.0379999987589745 .00660399423589202 .00446115856733103 -.0374217484
911155 .01243661237384094 .00721967813337531 -.0359072509761305 .017604189681154
8 .01195793572537486 -.03367628996296835 .0213702594186681 .01893013344324695 -.
03142152148414885 .0225 .02597016273145505 -.0306227039955651 41 1 362 H?.0225 .
02597016273145505 -.0306227039955651 204 84 363 4 0 .01187929600443488 .63366878
2020231 .0590298372685449 .300784368892514 .01116214691338242 .601066461955242 .
0523637746007648 .591356120550499 .00940987808187142 .513876952002887 .046486371
5176336 .912012758493282 .00708603216869123 .3709065130772895 .0412382443823445
 1.273036924207962 .00507972784668847 .174596936128477 .03751992204052705 1.6086
48374748035 .00451154063549902 6.26077638654913 .0365459540913489 1.902761189575
31 .0052162069067203 6.08899936381902 .03775825137104155 2.191939826686965 .0068
2930268649399 5.93138883928819 .04073253326984015 2.50948140319729 .009118120719
45717 5.78515072745488 .0457357259474428 2.867214805298995 .01127836680918682 5.
67673184971221 .0529335047944708 3.145768386075685 .01187915187479736 5.64952293
094895 .0591237909764359 3.424441745653805 .0112420706093819 5.67840973122769 .0
653094220881353 3.69682759978293 .0096625937667676 5.75593705198135 .07089055401
549 4.012235375128215 .0073762074847522 5.89175141737646 .0762365597869166 4.371
59705351804 .0052535670613904 6.08396873142936 .0802358684007982 4.7128206133832
6 .00450200124102549 .0002555721650501815 .0815298351725907 5.01028637047371 .00
508025150888451 .174676248719976 .080538841432669 5.2980355595458 .0065947490238
6948 .333422837422044 .0777803218666247 5.61091277146906 .00882571003703164 .481
679407432392 .0730420642746252 5.96495081299009 .01108047851585114 .597255538382
143 .066069866556753 0 .01187929600443488 .633668782020231 .0590298372685449 50
 371 1545 0 373 360 23 0 +0 .02597016273145505 .019 0 0 1 1 0 0 141 372 357 372
 372 360 14 373 1525 374 ?375 18 376 5 371 -0 0 368 375 28 51 23 1544 0 375 371
 179 377 -0 .02597016273145505 .042502 0 0 -1 .0225 -1 0 0 14 375 1531 378 ?379
 373 353 5 23 -0 0 373 18 28 141 377 7 377 377 23 81 1 378 1929 380 375 381 0 37
4 382 383 14 379 1593 382 ?368 375 384 5 369 -0 0 0 368 28 15 353 1534 0 352 375
 385 14 18 1460 386 ?373 279 387 5 6 -0 0 375 279 28 13 28 10 0 0 0 0 0 0 9 16 1
4 16 1507 388 ?344 0 389 5 22 -0 0 344 0 28 81 1 388 1932 380 16 390 0 386 391 3
92 14 344 922 391 ?224 16 343 5 216 -122 122 224 16 28 15 389 1572 0 393 16 41 1
7 393 0 389 393 393 0 364 356 0 0 -17 364 0 394 364 364 0 393 356 0 0 +15 394 16
03 0 364 368 0 14 368 1599 395 ?0 379 396 5 359 +0 0 379 373 28 81 1 395 1934 38
0 368 397 0 391 398 399 15 396 1602 0 400 368 394 17 400 0 396 400 400 0 401 366
 0 0 -17 401 0 402 401 401 0 400 366 0 0 +16 366 1580 0 ?401 365 0 358 0 0 1 16
 365 1584 0 ?403 356 366 367 0 0 1 17 403 0 404 403 403 0 405 365 0 0 +31 367 16
18 0 365 0 358 0 +0 .02597016273145505 -.019 0 0 1 1 0 0 .0169 15 404 1607 0 403
 406 0 17 405 0 384 405 405 0 403 365 0 0 -15 384 1597 0 405 379 402 15 402 1598
 0 401 379 0 14 406 752 398 ?111 407 408 5 188 -407 407 111 407 28 81 1 398 1935
 380 406 409 0 395 410 411 14 111 1117 410 ?186 406 33 5 180 -183 183 186 406 28
 14 407 761 412 ?406 413 414 5 188 -406 406 406 413 28 15 408 756 0 415 406 404
 51 188 791 0 406 180 175 416 +0 .02597016273145505 -.0425 0 0 1 .0169 1 0 0 50
 175 581 0 413 188 22 0 +0 .085 0 0 -1 0 0 0 -1 141 416 232 417 417 188 141 417
 227 416 416 188 14 413 571 418 ?407 131 419 5 175 +0 0 407 131 28 81 1 418 1938
 380 413 420 0 412 421 422 14 131 234 421 ?413 122 423 5 203 -224 223 413 122 28
 15 419 573 0 424 413 0 17 424 0 419 424 424 0 425 426 0 0 +17 425 0 333 425 425
 0 424 426 0 0 -16 426 560 0 ?424 427 336 239 0 0 1 16 427 380 0 ?428 429 426 43
0 0 0 1 16 336 825 0 ?329 426 126 431 126 126 1 31 239 583 0 426 232 431 0 +0 .0
85 0 0 -1 0 0 0 -1 .038 31 431 582 0 126 239 432 0 +0 0 0 0 -1 0 0 0 -1 .038 16
 126 831 0 ?125 336 238 431 336 336 1 31 432 473 0 156 431 433 0 +0 .0668 0 0 1
 0 0 0 1 .0395 16 156 249 0 ?434 152 435 432 0 0 1 31 433 472 0 435 432 436 0 +0
 .0711 0 0 1 0 0 0 1 .0395 16 435 290 0 ?437 156 429 433 0 0 1 31 436 459 0 429
 433 430 0 +0 .0552 0 0 1 0 0 0 1 .0395 16 429 339 0 ?438 435 427 436 0 0 1 31 4
30 458 0 427 436 145 0 +0 .0595 0 0 1 0 0 0 1 .0395 31 145 179 0 149 430 142 0 +
0 .0784 0 0 1 0 0 0 1 .0395 16 149 68 0 ?439 146 144 145 0 0 1 17 439 0 440 439
 439 0 441 149 0 0 +16 144 109 0 ?442 149 162 142 0 0 1 17 442 0 443 442 442 0 4
44 144 0 0 +15 443 126 0 442 445 446 17 444 0 447 444 444 0 442 144 0 0 -15 447
 156 0 444 448 0 14 448 152 449 ?221 445 440 5 450 +0 0 221 445 28 81 1 449 1940
 380 448 451 0 421 452 453 14 221 1 452 ?215 448 454 5 217 +0 0 215 448 28 14 44
5 124 455 ?448 456 443 5 225 -0 0 448 456 28 15 440 155 0 439 448 447 51 450 165
 0 448 457 458 0 +0 .0784 0 0 1 0 .0395 0 0 1 50 457 436 0 459 460 450 0 +0 .059
5 0 0 1 0 0 0 1 50 458 164 0 456 450 225 0 +0 .0784 0 0 1 0 0 0 1 14 456 120 461
 ?445 224 462 5 458 +0 0 445 224 28 50 225 163 0 445 458 216 0 +0 .0827 0 0 1 0
 0 0 1 81 1 461 1943 380 456 463 0 455 464 465 14 224 65 464 ?456 344 466 5 203
 -215 131 456 344 28 15 462 122 0 441 456 467 17 441 0 462 441 441 0 439 149 0 0
 -15 467 123 0 151 456 0 17 151 0 467 151 151 0 468 141 0 0 +17 468 0 469 468 46
8 0 151 141 0 0 -15 469 63 0 468 224 0 81 1 464 1944 380 224 470 0 461 471 472 1
5 466 237 0 161 224 469 17 161 0 466 161 161 0 473 159 0 0 +17 473 0 474 473 473
 0 161 159 0 0 -15 474 308 0 473 475 0 14 475 305 471 ?476 220 477 5 478 -0 0 47
6 220 28 81 1 471 1945 380 475 479 0 464 480 481 14 476 333 480 ?223 475 482 5 1
76 +0 0 223 475 28 14 220 301 483 ?475 215 484 5 485 +0 0 475 215 28 15 477 307
 0 437 475 474 50 478 443 0 475 485 486 0 +0 .0711 0 0 1 0 0 0 1 50 485 444 0 22
0 176 478 0 +0 .0668 0 0 1 0 0 0 1 51 486 438 0 487 478 460 0 +0 .0552 0 0 1 0 .
0395 0 0 1 14 487 423 488 ?122 459 489 5 486 +0 0 122 459 28 50 460 437 0 490 48
6 457 0 +0 .0552 0 0 1 0 0 0 1 14 490 391 491 ?459 223 492 5 460 +0 0 459 223 28
 81 1 491 1949 380 490 493 0 488 494 495 14 459 395 494 ?487 490 496 5 457 -0 0
 487 490 28 14 223 246 497 ?490 476 498 5 203 -131 215 490 476 28 15 492 393 0 4
99 490 500 17 499 0 492 499 499 0 438 429 0 0 -15 500 394 0 158 490 0 17 158 0 5
00 158 158 0 501 155 0 0 +17 501 0 132 501 501 0 158 155 0 0 -15 132 232 0 501 1
31 0 17 438 0 489 438 438 0 499 429 0 0 +15 489 426 0 438 487 502 15 502 427 0 5
03 487 0 17 503 0 502 503 503 0 428 427 0 0 -17 428 0 496 428 428 0 503 427 0 0
 +15 496 397 0 428 459 504 15 504 398 0 505 459 0 17 505 0 504 505 505 0 154 152
 0 0 -17 154 0 498 154 154 0 505 152 0 0 +15 498 225 0 154 223 506 15 506 244 0
 507 223 0 17 507 0 506 507 507 0 163 162 0 0 -17 163 0 508 163 163 0 507 162 0
 0 +15 508 304 0 163 220 0 81 1 497 1951 380 223 509 0 494 510 511 80 255 1 380
 512 513 9000 1 1 1 1 1 1 1 1 0 FFFFTFTFFFFFFF1 81 1 509 1829 514 223 0 497 515
 493 516 81 1 494 1950 380 459 517 0 491 497 518 81 1 510 1952 380 186 519 0 497
 520 521 82 255 1 511 -1861353361 14 186 1097 510 ?187 111 522 5 168 -178 178 18
7 111 28 81 1 519 1839 514 186 0 510 523 524 525 81 1 520 1953 380 187 524 0 510
 526 527 82 1 521 1290207359 14 187 1073 520 ?184 186 337 5 179 -184 184 184 186
 28 81 1 524 1840 514 187 0 520 519 528 529 81 1 526 1954 380 184 528 0 520 530
 531 82 1 527 1294467199 14 184 1077 526 ?178 187 532 5 179 -187 187 178 187 28
 81 1 528 1841 514 184 0 526 524 533 534 81 1 530 1955 380 183 535 0 526 536 537
 82 1 531 1293942911 14 183 1113 530 ?287 178 351 5 180 -111 111 287 178 28 81 1
 535 1843 514 183 0 530 533 538 539 81 1 536 1956 380 287 538 0 530 540 541 82 1
 537 1286078591 14 287 1397 536 ?282 183 542 5 226 -0 0 282 183 28 81 1 538 1844
 514 287 0 536 535 543 544 81 1 540 1957 380 122 545 0 536 0 546 82 1 541 -16244
40705 14 122 18 540 ?131 487 120 5 216 -344 344 131 487 28 81 1 545 1833 514 122
 0 540 547 548 549 82 1 546 24969338 80 1 514 0 550 8001 0 0 0 0 3 5 0 0 0 FFFFT
FTFFFFFFF2 81 1 547 1832 514 487 0 488 517 545 551 81 1 548 1834 514 131 0 421 5
45 420 552 83 255 3 549 1 .949019607843137 .909803921568627 81 1 421 1939 380 13
1 548 0 418 449 553 81 1 420 1835 514 413 0 418 548 554 555 83 3 552 1 .94901960
7843137 .909803921568627 81 1 554 1836 514 407 0 412 420 409 556 83 3 555 1 .949
019607843137 .909803921568627 81 1 412 1937 380 407 554 0 410 418 557 81 1 409 1
837 514 406 0 398 554 523 558 83 3 556 1 .949019607843137 .909803921568627 81 1
 523 1838 514 111 0 410 409 519 559 83 3 558 1 .949019607843137 .909803921568627
 81 1 410 1936 380 111 523 0 398 412 560 83 3 559 1 .949019607843137 .9098039215
68627 82 1 560 1285554303 82 1 557 -1422524286 82 1 553 25231487 81 1 488 1948 3
80 487 547 0 483 491 561 81 1 517 1831 514 459 0 494 493 547 562 83 3 551 1 .949
019607843137 .909803921568627 81 1 493 1830 514 490 0 491 509 517 563 83 3 562 1
 .949019607843137 .909803921568627 83 3 563 1 .949019607843137 .909803921568627
 81 1 483 1947 380 220 564 0 480 488 565 82 1 561 -1879637905 81 1 564 1826 514
 220 0 483 566 479 567 81 1 480 1946 380 476 515 0 471 483 568 82 1 565 -1859518
353 81 1 515 1828 514 476 0 480 479 509 569 82 1 568 -1904738193 81 1 479 1827 5
14 475 0 471 564 515 570 83 3 569 1 .949019607843137 .909803921568627 83 3 570 1
 .949019607843137 .909803921568627 81 1 566 1825 514 215 0 219 571 564 572 83 3
 567 1 .949019607843137 .909803921568627 81 1 219 1925 380 215 566 0 182 281 573
 81 1 571 1824 514 221 0 452 451 566 574 83 3 572 1 .949019607843137 .9098039215
68627 81 1 452 1941 380 221 571 0 449 455 575 81 1 451 1823 514 448 0 449 576 57
1 577 83 3 574 1 .949019607843137 .909803921568627 81 1 576 1822 514 445 0 455 4
63 451 578 83 3 577 1 .949019607843137 .909803921568627 81 1 455 1942 380 445 57
6 0 452 461 579 81 1 463 1821 514 456 0 461 470 576 580 83 3 578 1 .949019607843
137 .909803921568627 81 1 470 1820 514 224 0 464 581 463 582 83 3 580 1 .9490196
07843137 .909803921568627 81 1 581 1819 514 344 0 391 390 470 583 83 3 582 1 .94
9019607843137 .909803921568627 81 1 391 1933 380 344 581 0 388 395 584 81 1 390
 1818 514 16 0 388 0 581 585 83 3 583 1 .949019607843137 .909803921568627 83 3 5
85 1 .949019607843137 .909803921568627 82 1 584 1305477242 82 1 579 1589182570 8
2 1 575 87425140 81 1 182 1924 380 178 533 0 0 219 586 81 1 281 1926 380 279 587
 0 219 286 588 82 1 573 89391220 81 1 587 1846 514 279 0 281 543 589 590 81 1 28
6 1927 380 282 543 0 281 374 591 82 1 588 -1620508545 81 1 543 1845 514 282 0 28
6 538 587 592 81 1 374 1928 380 373 593 0 286 378 594 82 1 591 -1622474625 81 1
 593 1848 514 373 0 374 589 381 595 82 1 594 1512702082 81 1 589 1847 514 18 0 3
86 587 593 596 81 1 381 1849 514 375 0 378 593 597 598 83 3 595 1 .9490196078431
37 .909803921568627 81 1 597 1850 514 379 0 382 381 397 599 83 3 598 1 .94901960
7843137 .909803921568627 81 1 382 1930 380 379 597 0 378 386 600 81 1 397 1851 5
14 368 0 395 597 0 601 83 3 599 1 .949019607843137 .909803921568627 83 3 601 1 .
949019607843137 .909803921568627 81 1 386 1931 380 18 589 0 382 388 602 82 1 600
 1789919364 82 1 602 -1618542465 83 3 596 1 .949019607843137 .909803921568627 83
 3 592 1 .949019607843137 .909803921568627 83 3 590 1 .949019607843137 .90980392
1568627 81 1 533 1842 514 178 0 182 528 535 603 82 1 586 1291190399 83 3 603 1 .
949019607843137 .909803921568627 79 255 15 550 SDL/TYSA_COLOUR83 3 544 1 .949019
607843137 .909803921568627 15 542 1398 0 302 287 0 17 302 0 542 604 605 75 86 30
0 0 0 -17 604 0 542 83 302 72 77 321 0 0 -17 605 0 542 302 83 84 327 326 0 0 -17
 83 0 542 605 604 81 74 247 0 327 -17 327 0 532 91 303 81 605 326 0 308 +15 532
 1080 0 303 184 0 17 91 0 532 330 327 89 308 606 0 345 -17 303 0 532 327 330 84
 94 328 0 605 -17 308 0 114 74 130 81 91 606 0 0 +17 130 0 114 308 100 89 341 13
6 0 0 +16 606 967 0 ?308 607 209 210 0 0 1 16 607 1294 0 ?100 230 606 231 0 0 1
 16 209 1264 0 ?301 606 201 191 0 0 1 30 210 1162 0 606 191 231 0 -.034369317712
1688 .09 .025 0 -1 0 30 231 1161 0 607 210 227 0 +-.0343693177121688 .09 .025 0
 -1 0 17 301 0 114 65 74 69 309 209 0 0 +17 309 0 185 77 325 72 301 209 0 604 -1
5 185 1092 0 309 178 0 17 77 0 185 299 309 75 604 321 0 296 +17 325 0 185 309 29
9 69 608 323 0 301 +17 299 0 185 325 77 78 296 194 0 608 -17 608 0 288 298 71 78
 325 323 0 0 -15 288 1419 0 298 282 0 17 298 0 288 609 608 66 80 291 0 0 -17 71
 0 288 608 609 69 65 255 0 325 -17 609 0 288 71 298 63 68 319 0 0 -17 68 0 351 1
06 133 66 609 319 0 297 +15 351 1116 0 133 183 0 17 106 0 351 134 68 104 297 331
 0 123 -17 133 0 351 68 134 63 103 117 0 609 -16 117 1283 0 ?103 201 109 202 0 0
 1 17 123 0 120 113 121 104 134 128 0 125 -17 125 0 41 297 42 104 113 126 0 0 +1
7 42 0 41 125 39 87 35 139 0 108 +17 35 0 33 31 108 32 42 139 0 36 -17 36 0 387
 44 116 32 31 37 0 0 -15 387 1461 0 116 18 0 17 44 0 387 610 36 52 39 45 0 315 -
17 116 0 387 36 610 11 51 30 0 0 -17 610 0 387 116 44 47 315 311 0 0 -17 51 0 11
4 208 38 47 116 30 0 611 +16 30 1369 0 ?51 10 45 21 0 0 1 16 45 1364 0 ?39 30 26
3 265 0 0 1 38 21 1381 0 30 265 7 0 +203 6 612 613 614 615 40 5 612 0 1 5 .00052
8813191647667 .3555303591860455 ??-.0343693177121688 .00675577212154117 -.025 -.
03467771774885755 .00965524166308732 -.02457042717843075 -.0354913297384572 .012
2127662727897 -.02337980995209555 -.036712914775194 .014430716917128 -.021410555
54415485 -.0375 .01541602615938555 -.02 41 1 613 L?-.0343693177121688 .006755772
12154117 -.025 41 1 614 L?-.0375 .01541602615938555 -.02 204 20 615 4 5.34126390
587974 .0832442278784588 0 .00813068228783121 5.32882116227998 .0803447583369127
 .2941714104521555 .00782228225114244 5.2948887369127 .0777872337272103 .5772235
31313797 .00700867026154282 5.24035547864142 .075569283082872 .874923524690818 .
00578708522480598 5.20234630663842 .0745839738406144 1.047197551196598 .005 17 2
08 0 114 59 51 40 611 201 0 616 +17 611 0 522 315 46 47 208 201 0 610 -15 522 11
00 0 334 186 0 17 315 0 522 334 611 52 610 311 0 43 +17 46 0 522 611 334 40 617
 310 0 208 +17 334 0 522 46 315 54 43 166 0 617 -17 617 0 283 62 616 54 46 310 0
 0 -15 283 1440 0 616 279 0 17 62 0 283 342 617 60 56 270 0 318 -17 616 0 283 61
7 342 40 59 263 0 0 -17 342 0 283 616 62 57 318 316 0 0 -17 59 0 114 100 208 57
 616 263 0 340 +17 100 0 114 130 59 98 340 607 0 338 +17 340 0 337 318 338 57 10
0 607 0 342 -17 43 0 41 39 56 52 334 166 0 0 +16 230 733 0 ?618 238 607 227 0 0
 1 17 618 0 619 618 618 0 620 230 0 0 +16 238 727 0 ?621 126 230 232 0 0 1 17 62
1 0 423 621 621 0 415 238 0 0 +15 423 705 0 621 131 619 17 415 0 408 415 415 0 6
21 238 0 0 -15 619 688 0 618 131 114 17 620 0 414 620 620 0 618 230 0 0 -15 414
 765 0 620 407 622 15 622 1539 0 623 407 0 17 623 0 622 623 623 0 355 348 0 0 -1
7 355 0 376 355 355 0 623 348 0 0 +15 376 1529 0 355 373 624 15 624 1530 0 354 3
73 0 17 354 0 624 354 354 0 352 350 0 0 -17 330 0 532 303 91 92 345 127 0 335 -1
7 345 0 343 341 335 89 330 127 0 130 +83 3 539 1 .949019607843137 .9098039215686
27 83 3 534 1 .949019607843137 .909803921568627 83 3 529 1 .949019607843137 .909
803921568627 83 3 525 1 .949019607843137 .909803921568627 82 1 518 -1860894609 8
3 3 516 1 .949019607843137 .909803921568627 79 14 513 SWEntUnchanged82 1 495 -18
60435857 51 176 445 0 476 22 485 0 +0 .0668 0 0 1 0 .0395 0 0 1 17 437 0 477 437
 437 0 625 435 0 0 +17 625 0 626 625 625 0 437 435 0 0 -15 626 337 0 625 476 0 1
5 484 303 0 627 220 508 17 627 0 484 627 627 0 434 156 0 0 -17 434 0 482 434 434
 0 627 156 0 0 +15 482 336 0 434 476 626 82 1 481 -1859977105 82 1 472 158872382
3 82 1 465 1589641322 15 454 4 0 138 221 0 17 138 0 454 138 138 0 628 135 0 0 +1
7 628 0 629 628 628 0 138 135 0 0 -15 629 26 0 628 215 0 82 1 453 1572077674 15
 446 127 0 630 445 0 17 630 0 446 630 630 0 148 146 0 0 -17 148 0 222 148 148 0
 630 146 0 0 +15 222 56 0 148 215 629 15 333 569 0 425 16 631 15 631 1505 0 632
 16 0 17 632 0 631 632 632 0 29 10 0 0 -17 29 0 385 29 29 0 632 10 0 0 +15 385 1
535 0 29 375 0 82 1 422 -577830798 82 1 411 -1421541244 82 1 399 1805910148 82 1
 392 1538982020 50 369 1614 0 379 0 359 0 +0 .02597016273145505 -.019 0 0 -1 1 0
 0 82 1 383 1529282690 141 370 357 370 370 359 141 289 245 633 633 226 141 633 2
49 289 289 226 40 5 275 0 1 5 .000685085061376572 .3302987808539895 ??-.03231098
884280705 .01541602615938555 -.02 -.03042585382285145 .0130563438858066 -.022765
4874569045 -.02919338226524415 .01036530550084384 -.0243258387710543 -.028665118
87312335 .00779205240991116 -.0249461612275257 -.02861817604250835 .006755772121
54117 -.025 41 1 276 L?-.03231098884280705 .01541602615938555 -.02 41 1 277 L?-.
02861817604250835 .00675577212154117 -.025 204 20 278 4 5.26665081483702 .069583
9738406145 1.047197551196598 .01018901115719296 5.35475529082422 .07194365611419
34 .681626838259672 .01207414617714856 5.40708723259001 .0746346944991562 .36928
9945817458 .01330661773475586 5.42852915305712 .0772079475900889 .10381440379567
14 .01383488112687664 5.43040888978318 .0782442278784588 867361737988404e-31 .01
388182395749162 40 5 271 0 1 5 .000662802169921712 .3638410456082965 ??-.0286181
7604250835 .00675577212154117 .025 -.02895951036908565 .00954272558061824 .02460
379562552945 -.0298466294557582 .01199159436414424 .0235197514895602 -.031541668
1498178 .01460769024474976 .02119252628467805 -.032310988842807 .015416026159385
55 .02 41 1 272 L?-.02861817604250835 .00675577212154117 .025 41 1 273 L?-.03231
0988842807 .01541602615938555 .02 204 20 274 4 3.9943690709862 .0782442278784588
 3.141592653589795 .01388182395749162 4.00813128151493 .0754572744193818 2.85915
7290242975 .01354048963091436 4.04499550593213 .0730084056358558 2.5905424976260
05 .01265337054424182 4.120779047409485 .0703923097552502 2.238586839256805 .010
9583318501822 4.15812714593236 .0695839738406145 2.094395102393195 .010189011157
19298 40 4 258 0 1 4 .000784454566731581 .391554843799293 ??.0375 .0154160261593
8555 -.02 .03592802379982195 .01313256494451862 -.0227030197515535 .034731210192
8073 .00989418275037779 -.0244947553272744 .0343693177121688 .00675577212154117
 -.025 41 1 259 L?.0375 .01541602615938555 -.02 41 1 260 L?.0343693177121688 .00
675577212154117 -.025 204 16 261 4 1.080839000541168 .0745839738406144 1.0471975
51196598 .08 1.007248574437192 .0768674350554814 .691481757135174 .0784280237998
219 .956544608520619 .0801058172496222 .319235799744201 .0772312101928073 .94192
1401299845 .0832442278784588 867361737988404e-31 .0768693177121688 40 5 250 0 1
 5 .000528813191647667 .3555303591860455 ??.0343693177121688 .00675577212154117
 .025 .03467771774885755 .00965524166308732 .02457042717843075 .0354913297384572
 .0122127662727897 .02337980995209555 .036712914775194 .014430716917128 .0214105
5554415485 .0375 .01541602615938555 .02 41 1 251 L?.0343693177121688 .0067557721
2154117 .025 41 1 252 L?.0375 .01541602615938555 .02 204 20 253 4 2.199671252289
95 .0832442278784588 3.141592653589795 .0768693177121688 2.187228508690185 .0803
447583369127 2.84742124313764 .0771777177488576 2.1532960833229 .077787233727210
3 2.564369122275995 .0779913297384572 2.098762825051625 .075569283082872 2.26666
9128898975 .079212914775194 2.060753653048625 .0745839738406144 2.09439510239319
5 .08 40 21 240 0 1 21 .001074713563059806 .3641865376631025 ??0 .04287016273145
51 -.0425 -.00535748563718432 .04199849226535735 -.0421609694818248 -.0101055861
5643892 .0395159048091262 -.0412810747005791 -.0139464971189499 .035515068079918
3 -.0401465467769162 -.01636076994559115 .0302051605812114 -.03922467599340295 -
.01684383551796115 .02459349826838835 -.03901967715196875 -.0156172416681821 .01
951169831043385 -.0395265956373376 -.01286725997750154 .01501372076011295 -.0405
0535298786305 -.00852882627316597 .01138012769372628 -.04163543109422735 -.00306
44312677094 .00935031733489723 -.04238937674707525 .002466359930395335 .00925109
969868495 -.0424283757489459 .0074837274832851 .0108174790432128 -.0418359154669
2775 .01185010727031306 .0139208906504506 -.0408145189568868 .01518182308858685
 .0185457268803718 -.03969587192274345 .01680008919001995 .02413522316640795 -.0
3903853228807885 .0165133588231943 .02956446104634645 -.0391606815616944 .014648
86243537416 .0343975484084894 -.0398956241879919 .01122637292200304 .03860260315
348425 -.04099046902654465 .00630348355055934 .0416505994322561 -.04202994283993
055 .000688553149767897 .04285613011742215 -.04249442192288235 -380649608964114e
-33 .04287016273145505 -.0425 41 1 241 H?-380649608964114e-33 .04287016273145505
 -.0425 204 84 242 4 0 .0471298372685449 1.570796326794895 0 6.15679055091515 .0
480015077346427 1.893372579631795 .0003390305181751805 6.04310719626596 .0504840
951908738 2.211754455246695 .00121892529942092 5.94883780592594 .054484931920081
7 2.541417168583685 .00235345322308378 5.88802159130816 .0597948394187886 2.8883
01359981595 .00327532400659706 5.87567413323359 .0654065017316117 3.223142448595
17 .003480322848031265 5.90690398317625 .0704883016895661 3.53372270829798 .0029
73404362662385 5.9755990535732 .074986279239887 3.84695555375955 .00199464701213
694 6.08113508584467 .0786198723062737 4.18339593613114 .000864568905772647 6.21
101841678368 .0806496826651028 4.53005302897212 .000110623252924741 .05806462034
17314 .080748900301315 4.85885050025676 716242510541004e-19 .177010630443017 .07
91825209567872 5.17113498380489 .000664084533072269 .2825714658818855 .076079109
3495494 5.4894538645992 .00168548104311318 .365289134318813 .0714542731196282 5.
82834848594136 .002804128077256565 .406390309819729 .065864776833592 6.174394530
85492 .003461467711921145 .399057011497555 .0604355389536535 .2143172762694385 .
003339318438305615 .3518969325474365 .0556024515915106 .522054329192216 .0026043
75812008115 .267322462682518 .0513973968465157 .844262913666439 .001509530973455
34 .1488664952647392 .0483494005677439 1.18856985674942 .000470057160069468 .016
2019594186164 .0471438698825778 1.530042256437765 557807711764474e-20 0 .0471298
372685449 1.570796326794895 0 40 21 233 0 1 21 .001071409094199114 .361392448871
7475 ??.0169 .02597016273145505 .03899538434225265 .01603500119288815 .020632678
6102538 .03935897276027505 .01357492433962222 .01590381139775265 .04027370642458
34 .00956468384480406 .01203722251953482 .0414097430920423 .00425431618642712 .0
0961440552532413 .04228653206147205 -.00133805079277914 .00912321582479144 .0424
789314846306 -.00647732216358791 .01036073296643504 .04200350339661075 -.0109977
9518234866 .01313822986352326 .04105238727683335 -.01460089722056494 .0174599453
220995 .03991320333366515 -.01662569134107185 .0229376081266032 .03911312295677
 -.01671378192406785 .0284720607698857 .0390755613369111 -.0151658586723978 .033
4271548012414 .03970197388957955 -.01208136199345166 .03778755213788415 .0407466
648007316 -.00743555951119127 .0411465409145241 .04184450328006695 -.00186980967
56978 .04276640670969815 .04245884845090205 .00357443828068717 .0424878317854577
5 .04234942019647445 .00846628803772949 .0405965760601628 .0416481928402926 .012
66127152143812 .03716400940989495 .04057021325381985 .0156866441855921 .03225818
26260347 .03949910371381395 .01686356549198045 .0270792880163921 .03901115428819
925 .0169 .02597016273145505 .0389953843422526 41 1 234 H?.0169 .025970162731455
05 .0389953843422526 204 84 235 4 2.732641642995325 .0640298372685449 0 .0814953
843422526 2.75471989625124 .0693673213897462 5.96185667977244 .0818589727602751
 2.81648586274079 .0740961886022473 5.64512052911687 .0827737064245834 2.9145968
80269205 .0779627774804652 5.31398332422844 .0839097430920423 3.04132316294977 .
0803855944746759 4.96686122662493 .0847865320614721 3.173081405131055 .080876784
1752085 4.63313142382563 .0849789314846306 3.29459651017521 .0796392670335649 4.
319051128661405 .0845035033966108 3.403342976087725 .0768617701364767 4.00380783
3201215 .0835523872768333 3.49228758353868 .0725400546779005 3.669310722373225 .
0824132033336651 3.54351990862411 .0670623918733968 3.322010954922555 .081613122
95677 3.545773189812305 .0615279392301143 2.993005194707965 .0815755613369111 3.
50647965065134 .0565728451987586 2.684610284202585 .0822019738895796 3.429834809
689365 .0522124478621159 2.367239496198035 .0832466648007316 3.31745204775806 .0
488534590854759 2.02636597535123 .0843445032800669 3.18560238074646 .04723359329
03018 1.681662930737695 .084958848450902 3.057388753619395 .0475121682145422 1.3
57681558172804 .0848494201964744 2.94104424547404 .0494034239398372 1.0460843052
81672 .0841481928402926 2.839087783250535 .052835990590105 .723961530780237 .083
0702132538198 2.7635548756699 .0577418173739653 .381240490203555 .08199910371381
39 2.733575782774115 .0629207119836079 .065675918514494 .0815111542881992 2.7326
41642995325 .0640298372685449 0 .0814953843422526 40 6 211 0 1 6 .00253129724329
9905 .39604684288349 ??.0343693177121688 .012 .025 .0396322259100309 .0177136527
9010985 .0153472039608613 .04235451104936265 .02062039375858295 .003513601253616
865 .04189229630364075 .02012871999311655 -.0071613902566449 .03927050892147295
 .0173252886793326 -.0162504501183356 .0343693177121688 .012 -.025 41 1 212 L?.0
343693177121688 .012 .025 41 1 213 L?.0343693177121688 .012 -.025 204 24 214 4 2
.19967125228995 .078 2.24592785973193 .0768693177121688 1.940254995924115 .07228
63472098902 1.964574434051835 .0821322259100309 1.653563764119125 .0693796062414
17 1.658749712554005 .0848545110493627 1.40148526684038 .0698712800068834 1.3907
91058688976 .0843922963036407 1.178443477723496 .0726747113206674 1.152437625339
896 .081770508921473 .941921401299845 .078 .895664793857865 .0768693177121688 40
 7 196 0 1 7 .001971882928481115 .3735133153576135 ??.02861817604250835 .012 -.0
25 .03455018983020875 .0175134859876055 -.0158203787153323 .0374662463266799 .02
02682956881265 -.00634668308556098 .03779126733645265 .0205767673422669 .0039774
5057854508 .03575105199200385 .01864502081517525 .01287875310210726 .03164100043
417685 .01479196031922166 .02104393241588705 .02861817604250835 .012 .025 41 1 1
97 L?.02861817604250835 .012 -.025 41 1 198 L?.02861817604250835 .012 .025 204 2
8 199 4 .852776417396408 .073 .895664793857865 .0711181760425084 1.1413958783960
3 .0674865140123945 1.164173845134556 .0770501898302088 1.402991944210002 .06473
17043118735 1.411455845514112 .0799662463266799 1.67565815003324 .06442323265773
31 1.67039718852462 .0802912673364526 1.91655925878376 .0663549791848248 1.89860
464451879 .0782510519920038 2.157702640940345 .0702080396807784 2.12480241076696
 .0741410004341768 2.288816236193385 .073 2.24592785973193 .0711181760425084 141
 177 7 634 635 22 141 634 265 636 177 22 141 635 165 177 637 22 141 637 193 635
 638 22 141 638 249 637 639 22 141 639 256 638 636 22 141 636 264 639 634 22 19
 17 32 0 1 0 9 5 S0 40 21 24 0 1 21 .001592227411382755 .387961428228548 ??-.022
5 .02597016273145505 .0306227039955651 -.02148984896431865 .0326362253992352 .03
13398530866176 -.0186791720093722 .0385136284823664 .0330921219181286 -.01377349
71075505 .0437617556176555 .03541596783130875 -.00660102619927271 .0474800779594
73 .03742227215331155 .000851467717650017 .0484540459086511 .037990459364501 .00
733277801417279 .0472417486289584 .0372857930932797 .01309422263362666 .04426746
67301599 .035672697313506 .01815259221659935 .03926427405255725 .033383879280542
85 .0216583639817404 .03206649520552915 .0312236331908132 .02249980383693985 .02
58762090235641 .03062284812520265 .0216059439621038 .0196905779118647 .031259929
3906181 .0191199738035578 .01410944598451 .0328394062332324 .01449754117689484 .
0087634402130834 .0351257925152478 .00752025555535872 .00476413159920176 .037248
4329386096 -971174216618303e-20 .003470164827409295 .0379999987589745 -.00660399
423589202 .00446115856733103 .0374217484911155 -.01243661237384094 .007219678133
37531 .0359072509761305 -.0176041896811548 .01195793572537486 .03367628996296835
 -.0213702594186681 .01893013344324695 .03142152148414885 -.0225 .02597016273145
505 .0306227039955651 41 1 25 H?-.0225 .02597016273145505 .0306227039955651 204
 84 26 4 3.775261435610025 .0590298372685449 0 .01187929600443488 3.742659115545
035 .0523637746007648 .300784368892514 .01116214691338242 3.65546960559268 .0464
863715176336 .591356120550499 .00940987808187142 3.512499166667085 .041238244382
3445 .912012758493282 .00708603216869123 3.31618958971827 .03751992204052705 1.2
73036924207962 .00507972784668847 3.119183732959335 .0365459540913489 1.60864837
4748035 .00451154063549902 2.94740671022923 .03775825137104155 1.90276118957531
 .0052162069067203 2.78979618569839 .04073253326984015 2.191939826686965 .006829
30268649399 2.64355807386509 .0457357259474428 2.50948140319729 .009118120719457
17 2.53513919612242 .0529335047944708 2.867214805298995 .01127836680918682 2.507
930277359155 .0591237909764359 3.145768386075685 .01187915187479736 2.5368170776
379 .0653094220881353 3.424441745653805 .0112420706093819 2.614344398391555 .070
89055401549 3.69682759978293 .0096625937667676 2.750158763786665 .07623655978691
66 4.012235375128215 .0073762074847522 2.94237607783957 .0802358684007982 4.3715
9705351804 .0052535670613904 3.141848225754845 .0815298351725907 4.7128206133832
6 .00450200124102549 3.31626890230977 .080538841432669 5.01028637047371 .0050802
5150888451 3.475015491011835 .0777803218666247 5.2980355595458 .0065947490238694
8 3.623272061022185 .0730420642746252 5.61091277146906 .00882571003703164 3.7388
48191971935 .066069866556753 5.96495081299009 .01108047851585114 3.7752614356100
25 .0590298372685449 0 .01187929600443488 141 20 265 640 640 6 141 640 21 20 20
 6 74 4 CI16 index_map_offset0 0 1 dCCZ20 15 9 0 0 540 641 642 643 644 645 13 39
7 2 0 0 0 0 0 0 0 0 0 0 0 81 2 641 1623 646 1 0 642 0 0 0 647 81 2 642 1625 648
 1 641 643 0 0 0 649 81 1 643 1633 650 1 642 644 0 0 651 81 2 644 1669 652 1 643
 645 0 0 653 0 81 2 645 1778 654 1 644 13 0 0 0 655 81 2 13 1815 656 1 645 2 0 0
 0 0 80 2 656 657 658 9000 0 0 0 0 3 5 0 0 0 FFTFFFFFFFFFFF9 1 79 16 658 BODY_RE
CIPE_200180 2 654 659 660 9000 0 0 0 0 3 5 0 0 0 FFTFFFFFFFFFFF9 1 82 1 655 1 79
 24 660 BODY_IN_LIGHTWEIGHT_PERM80 2 652 661 662 8004 0 0 0 0 3 5 0 0 0 FFTFFFFF
FFFFFF2 3 83 1 653 1 79 16 662 SDL/TYSA_DENSITY80 1 650 663 664 9000 1 1 1 1 1 1
 1 1 0 FFTFFFFFFFFFFF1 82 1 651 308 79 10 664 BODY_MATCH80 2 648 665 666 9000 0
 0 0 0 3 5 0 0 0 FFTFFFFFFFFFFF9 1 82 1 649 96 79 30 666 LAST_BODY_MODIFYING_FEA
TURE_ID80 2 646 667 668 9000 0 0 0 0 3 5 0 0 0 FFTFFFFFFFFFFF9 1 82 1 647 131 79
 19 668 ENT_TIME_STAMP_200180 2 12 669 670 9000 0 0 0 0 3 5 0 0 0 FFTFFFFFFFFFFF
9 1 82 1 14 108 79 12 670 ATOM_ID_20011 0 
