**ABCDEFGHIJKLMNOPQRSTUVWXYZabcdefghijklmnopqrstuvwxyz**************************
**PARASOLID !"#$%&'()*+,-./:;<=>?@[\]^_`{|}~0123456789**************************
**PART1;
MC=AMD64;
MC_MODEL=Intel64 Family 6 Model 142 Stepping 12, GenuineIntel;
MC_ID=unknown;
OS=Windows_NT;
OS_RELEASE=unknown;
FRU=Parasolid Version 33.1, build 247,  8- 6-2021;
APPL=SOLIDWORKS 2022-2022009;
SITE=;
USER=unknown;
FORMAT=text;
GUISE=transmit;
KEY=FILEPiston Pin.x_t;
DATE=Thu Jun 15 06:15:03 2023;
**PART2;
SCH=SCH_3301247_33103;
USFLD_SIZE=0;
**PART3;
**END_OF_HEADER*****************************************************************
T51 : TRANSMIT FILE created by modeller version 330124723 SCH_3301247_33103_1300
6230 0 12 35 CCCI7 lattice222 0 CCCI4 mesh1006 0 I8 polyline1008 0 CCCCCCCDI5 ow
ner1040 0 CCCCCCI13 boundary_mesh1006 0 I17 boundary_polyline1008 0 CCCA16 index
_map_offset0 0 1 dA9 index_map82 0 A17 node_id_index_map82 0 A20 schema_embeddin
g_map82 0 A5 child12 0 A14 lowest_node_id0 0 1 dA16 mesh_offset_data206 0 Z1 168
 2 3 0 0 0 0 0 0 0 1e3 1e-8 0 4 0 1 0 1 1 5 6 7 0 0 0 8 9 0 0 0 0 0 0 0 0 81 255
 2 2 163 10 1 11 0 0 0 0 12 70 11 CI9 list_type0 0 1 uI10 notransmit0 0 1 lCCCDC
CDI12 finger_index0 0 1 dI12 finger_block1012 0 CZ3 0 4 T1 0 0 10 20 1 13 13 13
 255 5 31 0 1 0 14 0 0 15 0 52 255 6 108 16 17 18 0 0 +0 0 .041 0 0 -1 .0149 .70
7106781186546 .70710678118655 -1 0 0 31 255 7 77 0 9 19 0 0 +0 0 .041 0 0 1 1 0
 0 .0149 19 8 CCCCCCCA5 owner12 0 Z8 9 0 1 15 0 20 V0 16 255 9 74 0 ?21 0 22 7 0
 0 1 17 255 21 0 23 21 21 0 24 9 0 0 +16 22 68 0 ?25 9 26 19 0 0 1 17 25 0 27 25
 25 0 28 22 0 0 +16 26 62 0 ?29 22 30 31 0 0 1 31 19 71 0 22 31 7 0 -0 0 -.041 0
 0 1 1 0 0 .0149 31 31 65 0 26 32 19 0 +0 0 -.039 0 0 1 1 0 0 .0169 31 32 59 0 3
0 0 31 0 -0 0 .039 0 0 1 1 0 0 .0169 16 30 56 0 ?33 26 0 32 0 0 1 17 33 0 34 33
 33 0 35 30 0 0 +15 255 34 57 0 33 14 0 17 35 0 36 35 35 0 33 30 0 0 -15 36 102
 0 35 17 37 14 255 17 101 38 ?0 39 36 5 6 +0 0 0 39 20 15 37 103 0 24 17 0 17 24
 0 37 24 24 0 21 9 0 0 -81 1 38 164 40 17 41 0 0 42 43 14 39 87 42 ?17 44 45 5 1
8 +0 0 17 44 20 13 20 10 0 0 0 0 0 0 8 14 14 14 27 46 ?47 0 48 5 49 -0 0 47 0 20
 81 1 46 166 40 14 50 0 42 51 52 14 47 1 51 ?44 14 23 5 53 +0 0 44 14 20 15 48 6
3 0 29 14 34 51 255 49 30 0 14 54 18 0 -0 0 .041 0 0 -1 .0169 -1 0 0 50 255 54 2
4 0 44 53 49 0 +0 0 -.041 0 0 1 1 0 0 52 18 94 55 39 49 6 0 +0 0 -.039 0 0 1 .01
69 .707106781186549 .707106781186546 1 0 0 81 2 55 95 56 18 0 0 0 16 57 58 80 25
5 2 56 59 60 8044 0 0 0 0 3 5 0 0 0 FFFFTFFFTTFFFF3 2 81 2 16 109 56 6 0 0 55 0
 61 62 84 255 6 57 BAAAAB83 255 3 58 -.002 0 .002000000000000025 84 6 61 BAAAAB8
3 3 62 0 .002000000000000035 .002000000000000035 79 255 17 60 SDL/TYSA_BLEND_ID1
4 44 18 63 ?39 47 27 5 54 -0 0 39 47 20 50 53 3 0 47 0 54 0 +0 0 .041 0 0 1 1 0
 0 81 1 63 168 40 44 64 0 51 0 65 15 27 69 0 25 44 0 80 1 40 66 67 9000 1 1 1 1
 1 1 1 1 0 FFFFTFTFFFFFFF1 81 1 64 149 68 44 0 63 69 70 71 81 1 51 167 40 47 69
 0 46 63 72 82 255 1 65 -816906127 81 1 69 148 68 47 0 51 50 64 73 82 1 72 -8186
10063 80 1 68 0 74 8001 0 0 0 0 3 5 0 0 0 FFFFTFTFFFFFFF2 81 1 50 147 68 14 0 46
 0 69 75 83 3 73 .2 .2 .2 83 3 75 .2 .2 .2 79 15 74 SDL/TYSA_COLOUR81 1 70 150 6
8 39 0 42 64 41 76 83 3 71 .2 .2 .2 81 1 42 165 40 39 70 0 38 46 77 81 1 41 151
 68 17 0 38 70 0 78 83 3 76 .2 .2 .2 83 3 78 .2 .2 .2 82 1 77 354615409 79 14 67
 SWEntUnchanged17 29 0 48 29 29 0 79 26 0 0 +17 79 0 80 79 79 0 29 26 0 0 -15 80
 89 0 79 39 0 15 23 75 0 21 47 0 82 1 52 -816643983 15 45 88 0 28 39 80 17 28 0
 45 28 28 0 25 22 0 0 -82 1 43 355991665 19 15 32 0 1 0 8 5 S0 74 4 CI16 index_m
ap_offset0 0 1 dCCZ20 13 10 0 0 81 82 16 63 83 84 85 11 41 2 0 0 0 0 0 0 0 0 0 0
 81 2 81 44 86 1 0 82 0 0 0 87 81 2 82 48 88 1 81 83 0 0 0 89 81 1 83 119 90 1 8
2 84 0 0 91 81 2 84 126 92 1 83 85 0 0 93 0 81 2 85 141 94 1 84 11 0 0 0 95 81 2
 11 144 96 1 85 2 0 0 0 0 80 2 96 97 98 9000 0 0 0 0 3 5 0 0 0 FFTFFFFFFFFFFF9 1
 79 16 98 BODY_RECIPE_200180 2 94 99 100 9000 0 0 0 0 3 5 0 0 0 FFTFFFFFFFFFFF9
 1 82 1 95 1 79 24 100 BODY_IN_LIGHTWEIGHT_PERM80 2 92 101 102 8004 0 0 0 0 3 5
 0 0 0 FFTFFFFFFFFFFF2 3 83 1 93 1 79 16 102 SDL/TYSA_DENSITY80 1 90 103 104 900
0 1 1 1 1 1 1 1 1 0 FFTFFFFFFFFFFF1 82 1 91 118579 79 10 104 BODY_MATCH80 2 88 1
05 106 9000 0 0 0 0 3 5 0 0 0 FFTFFFFFFFFFFF9 1 82 1 89 37 79 30 106 LAST_BODY_M
ODIFYING_FEATURE_ID80 2 86 107 108 9000 0 0 0 0 3 5 0 0 0 FFTFFFFFFFFFFF9 1 82 1
 87 112 79 19 108 ENT_TIME_STAMP_200180 2 10 109 110 9000 0 0 0 0 3 5 0 0 0 FFTF
FFFFFFFFFF9 1 82 1 12 101 79 12 110 ATOM_ID_20011 0 
