**ABCDEFGHIJKLMNOPQRSTUVWXYZabcdefghijklmnopqrstuvwxyz**************************
**PARASOLID !"#$%&'()*+,-./:;<=>?@[\]^_`{|}~0123456789**************************
**PART1;
MC=AMD64;
MC_MODEL=Intel64 Family 6 Model 142 Stepping 12, GenuineIntel;
MC_ID=unknown;
OS=Windows_NT;
OS_RELEASE=unknown;
FRU=Parasolid Version 33.1, build 247,  8- 6-2021;
APPL=SOLIDWORKS 2022-2022009;
SITE=;
USER=unknown;
FORMAT=text;
GUISE=transmit;
KEY=FILEHinge.x_t;
DATE=Thu Jun 15 06:24:20 2023;
**PART2;
SCH=SCH_3301247_33103;
USFLD_SIZE=0;
**PART3;
**END_OF_HEADER*****************************************************************
T51 : TRANSMIT FILE created by modeller version 330124723 SCH_3301247_33103_1300
6230 0 12 35 CCCI7 lattice222 0 CCCI4 mesh1006 0 I8 polyline1008 0 CCCCCCCDI5 ow
ner1040 0 CCCCCCI13 boundary_mesh1006 0 I17 boundary_polyline1008 0 CCCA16 index
_map_offset0 0 1 dA9 index_map82 0 A17 node_id_index_map82 0 A20 schema_embeddin
g_map82 0 A5 child12 0 A14 lowest_node_id0 0 1 dA16 mesh_offset_data206 0 Z1 288
 2 3 0 0 0 0 0 0 0 1e3 1e-8 0 4 0 1 0 1 1 5 6 7 0 0 0 8 9 0 0 0 0 0 0 0 0 81 255
 2 2 279 10 1 11 0 0 0 0 12 70 11 CI9 list_type0 0 1 uI10 notransmit0 0 1 lCCCDC
CDI12 finger_index0 0 1 dI12 finger_block1012 0 CZ3 0 4 T1 0 0 8 20 1 13 13 13 2
55 5 31 0 1 0 14 0 0 15 0 51 255 6 30 0 14 16 0 17 -0 0 .0047625 0 0 -1 .009525
 -1 0 0 38 12 CCCCCCCCCCCA17 intersection_data204 0 Z7 132 0 9 18 0 0 +6 19 20 2
1 21 22 19 8 CCCCCCCA5 owner12 0 Z8 9 0 1 15 0 23 V0 16 255 9 130 0 ?24 0 25 7 0
 0 1 17 255 24 0 26 24 24 0 27 9 0 0 +16 25 54 0 ?28 9 29 18 0 0 1 17 28 0 30 28
 28 0 31 25 0 0 +16 29 5 0 ?32 25 33 34 0 0 1 31 255 18 57 0 25 35 7 0 -0 0 -.00
47625 0 0 1 1 0 0 .003175 31 35 25 0 33 34 18 0 +0 0 -.0047625 0 0 1 1 0 0 .0095
25 16 33 20 0 ?36 29 37 35 0 0 1 31 34 7 0 29 38 35 0 +0 0 .0047625 0 0 1 1 0 0
 .009525 31 38 100 0 37 39 34 0 -0 0 .0047625 0 0 1 1 0 0 .003175 16 37 66 0 ?40
 33 41 38 0 0 1 31 39 101 0 42 43 38 0 +0 0 -.009525 0 0 1 1 0 0 .003175 16 42 6
7 0 ?44 41 45 39 0 0 1 31 43 102 0 41 46 39 0 +0 0 .009525 0 0 1 1 0 0 .003175 1
6 41 71 0 ?47 37 42 43 0 0 1 31 46 181 0 45 0 43 0 +0 0 0 1 0 0 0 0 -1 .003175 1
6 45 149 0 ?48 42 0 46 0 0 1 17 48 0 49 48 48 0 50 45 0 0 +15 255 49 157 0 48 51
 52 17 50 0 53 50 50 0 48 45 0 0 -15 53 175 0 50 54 0 14 255 54 173 55 ?0 51 53
 5 56 -0 0 0 51 23 81 1 55 280 57 54 58 0 0 59 60 14 51 154 59 ?54 61 49 5 19 -0
 0 54 61 23 50 255 56 179 0 54 0 19 0 +0 0 0 1 0 0 0 0 -1 13 23 10 0 0 0 0 0 0 8
 14 14 14 27 62 ?63 0 26 5 6 -0 0 63 0 23 81 1 62 282 57 14 64 0 59 65 66 14 63
 1 65 ?67 14 68 5 69 +0 0 67 14 23 15 26 124 0 24 14 70 15 70 26 0 71 14 72 17 7
1 0 70 71 71 0 32 29 0 0 -15 72 28 0 36 14 0 17 36 0 72 36 36 0 73 33 0 0 +17 73
 0 74 73 73 0 36 33 0 0 -15 74 19 0 73 67 0 14 67 18 75 ?76 63 77 5 16 -0 0 76 6
3 23 81 1 75 284 57 67 78 0 65 79 80 14 76 92 79 ?81 67 82 5 83 -0 0 81 67 23 15
 77 56 0 31 67 74 50 16 24 0 67 69 6 0 +0 0 -.0047625 0 0 1 1 0 0 50 69 3 0 63 8
4 16 0 +0 0 .0047625 0 0 1 1 0 0 51 84 97 0 85 83 69 0 -0 0 .009525 0 0 -1 .0031
75 -1 0 0 14 85 84 86 ?61 81 87 5 84 -81 81 61 81 23 50 83 98 0 76 88 84 0 +0 0
 -.009525 0 0 1 1 0 0 50 88 99 0 61 19 83 0 +0 0 .009525 0 0 1 1 0 0 14 61 89 89
 ?51 85 90 5 88 +0 0 51 85 23 51 19 178 0 51 56 88 91 +-.009525 0 0 1 0 0 .00317
5 0 0 -1 141 255 91 7 91 91 19 81 1 89 287 57 61 92 0 86 93 94 15 90 91 0 47 61
 0 17 47 0 90 47 47 0 95 41 0 0 +17 95 0 96 95 95 0 47 41 0 0 -15 96 88 0 95 85
 0 80 255 1 57 97 98 9000 1 1 1 1 1 1 1 1 0 FFFFTFTFFFFFFF1 81 1 92 257 99 61 0
 89 100 101 102 81 1 86 286 57 85 100 0 79 89 103 81 1 93 288 57 81 104 0 89 0 1
05 82 255 1 94 1786183798 14 81 79 93 ?85 76 106 5 84 -85 85 85 76 23 81 1 104 2
55 99 81 0 93 107 100 108 82 1 105 1791033462 80 1 99 0 109 8001 0 0 0 0 3 5 0 0
 0 FFFFTFTFFFFFFF2 81 1 107 254 99 76 0 79 78 104 110 81 1 100 256 99 85 0 86 10
4 92 111 83 255 3 108 .2 .2 .2 83 3 111 .2 .2 .2 81 1 79 285 57 76 107 0 75 86 1
12 81 1 78 253 99 67 0 75 113 107 114 83 3 110 .2 .2 .2 81 1 113 252 99 63 0 65
 64 78 115 83 3 114 .2 .2 .2 81 1 65 283 57 63 113 0 62 75 116 81 1 64 251 99 14
 0 62 0 113 117 83 3 115 .2 .2 .2 83 3 117 .2 .2 .2 82 1 116 920387702 82 1 112
 1787887734 79 255 15 109 SDL/TYSA_COLOUR15 106 82 0 44 81 30 17 44 0 106 44 44
 0 118 42 0 0 +15 30 83 0 28 81 0 17 118 0 82 118 118 0 44 42 0 0 -15 82 94 0 11
8 76 0 82 1 103 1788149878 81 1 101 258 99 51 0 59 92 58 119 83 3 102 .2 .2 .2 8
1 1 59 281 57 51 101 0 55 62 120 81 1 58 259 99 54 0 55 101 0 121 83 3 119 .2 .2
 .2 83 3 121 .2 .2 .2 82 1 120 -1444609927 79 14 98 SWEntUnchanged15 87 87 0 122
 85 96 17 122 0 87 122 122 0 40 37 0 0 -17 40 0 68 40 40 0 122 37 0 0 +15 68 61
 0 40 63 123 15 123 4 0 32 63 0 17 32 0 123 32 32 0 71 29 0 0 +17 31 0 77 31 31
 0 28 25 0 0 -82 1 80 922091638 82 1 66 922353785 82 1 60 -1449656199 15 52 158
 0 27 51 0 17 27 0 52 27 27 0 24 9 0 0 -19 15 32 0 1 0 8 5 S0 40 255 20 20 0 1 2
0 .0001937281550590295 .3561419780779515 ??-.009525 0 -.003175 -.009470314637461
55 .00101919854173828 -.00300696846217558 -.00932889315036059 .00192285662210036
5 -.002526508937416365 -.00915121502105174 .00264213713468414 -.0017606068162775
85 -.00901288963621787 .00308114352235601 -.000766276447924377 -.008984892679324
01 .003161855237203285 .000288611259257451 -.00906879311732123 .0029124931579708
55 .001264123650903244 -.00922676590451116 .002364828945896575 .0021185393686806
2 -.00940132019210325 .001529968511294185 .002782053442054675 -.0095116695526403
6 .000503753234604317 .00313478191883035 -.00950970614243958 -.00053954989060034
2 .003128819412422705 -.00940720314543453 -.001493370007910538 .0028018692009930
25 -.00924072271679135 -.00230969016783125 .00217852159241621 -.0090715174014330
2 -.002903996734760185 .001283521703946674 -.00898332273519968 -.003166312940194
72 .0002347069763672735 -.00901491749049847 -.00307520530038317 -.00078977044797
5398 -.00914139388557909 -.002675919062433905 -.001708824792453235 -.00931682545
537242 -.001980502066175255 -.00248157944984148 -.0094691457241532 -.00103000206
5411096 -.003003284992345695 -.009525 -260944121886934e-33 -.003175 41 3 CI8 ter
m_use0 0 1 cCZ1 21 H?-.009525 -260944121886934e-33 -.003175 204 2 17 INTERSECTIO
N_DATA17 Intersection data7 uv_type0 0 1 u6 values0 1 1 fT80 22 4 0 .0079375 0 0
 .1072077188172186 .00776946846217558 .3267930055816975 546853625384459e-19 .203
271664635535 .00728900893741637 .65054996566296 .000196106849639407 .28107614716
3998 .00652310681627758 .983008075175357 .0003737849789482545 .329404533962524 .
00552877644792438 1.327042772960138 .000512110363782124 .3383735471856485 .00447
388874074255 1.661823165067165 .000540107320675991 .3107507973241225 .0034983763
49096755 1.98029465193931 .000456206882678768 .250900128731461 .0026439606313193
8 2.301315599859 .0002982340954888385 .161325479048806 .001980446557945325 2.638
793841787625 .000123679807896751 .0529121649159583 .00162771808116965 2.98225687
289681 1333044735963954e-20 6.22650931210637 .001633680587577295 3.3123583655270
85 152938575604146e-19 6.1257515166526 .00196063079900698 3.631283125013375 .000
1177968545654704 6.03825660372975 .00258397840758379 3.956207631498425 .00028427
7283208652 5.97337125485557 .003478978296053325 4.296220659595235 .0004534825985
66975 5.94431558351818 .00452779302363273 4.63839802917838 .00054167726480032 5.
95443955791742 .0055522704479754 4.96377494319315 .000510082509501528 5.99841565
850163 .00647132479245324 5.28070380580453 .000383606114420905 6.07373042572796
 .00724407944984148 5.60961542094498 .0002081745446275775 6.17483674038732 .0077
6578499234569 5.9527972744933 558542758467978e-19 0 .0079375 0 0 141 17 7 17 17
 6 74 4 CI16 index_map_offset0 0 1 dCCZ20 13 8 0 0 93 124 125 126 127 11 58 2 0
 0 0 0 0 0 0 0 0 0 0 0 81 2 124 108 128 1 0 125 0 0 0 129 81 2 125 114 130 1 124
 126 0 0 0 131 81 1 126 194 132 1 125 127 0 0 133 81 2 127 205 134 1 126 11 0 0
 0 135 81 2 11 248 136 1 127 2 0 0 0 0 80 2 136 137 138 9000 0 0 0 0 3 5 0 0 0 F
FTFFFFFFFFFFF9 1 79 16 138 BODY_RECIPE_200180 2 134 139 140 9000 0 0 0 0 3 5 0 0
 0 FFTFFFFFFFFFFF9 1 82 1 135 1 79 24 140 BODY_IN_LIGHTWEIGHT_PERM80 1 132 141 1
42 9000 1 1 1 1 1 1 1 1 0 FFTFFFFFFFFFFF1 82 1 133 14042 79 10 142 BODY_MATCH80
 2 130 143 144 9000 0 0 0 0 3 5 0 0 0 FFTFFFFFFFFFFF9 1 82 1 131 53 79 30 144 LA
ST_BODY_MODIFYING_FEATURE_ID80 2 128 145 146 9000 0 0 0 0 3 5 0 0 0 FFTFFFFFFFFF
FT9 1 82 1 129 107 79 19 146 ENT_TIME_STAMP_200180 2 10 147 148 9000 0 0 0 0 3 5
 0 0 0 FFTFFFFFFFFFFF9 1 82 1 12 103 79 12 148 ATOM_ID_20011 0 
