**ABCDEFGHIJKLMNOPQRSTUVWXYZabcdefghijklmnopqrstuvwxyz**************************
**PARASOLID !"#$%&'()*+,-./:;<=>?@[\]^_`{|}~0123456789**************************
**PART1;
MC=AMD64;
MC_MODEL=Intel64 Family 6 Model 142 Stepping 12, GenuineIntel;
MC_ID=unknown;
OS=Windows_NT;
OS_RELEASE=unknown;
FRU=Parasolid Version 33.1, build 247,  8- 6-2021;
APPL=SOLIDWORKS 2022-2022009;
SITE=;
USER=unknown;
FORMAT=text;
GUISE=transmit;
KEY=FILEUniversal Joint.x_t;
DATE=Thu Jun 15 06:22:47 2023;
**PART2;
SCH=SCH_3301247_33103;
USFLD_SIZE=0;
**PART3;
**END_OF_HEADER*****************************************************************
T51 : TRANSMIT FILE created by modeller version 330124723 SCH_3301247_33103_1300
6230 0 10 21 CCCCI7 lattice222 0 CCCI4 mesh1006 0 I8 polyline1008 0 CCCCCCCCCCA1
6 mesh_offset_data206 0 Z1 23 2 3 0 0 0 0 0 0 0 0 1e3 1e-8 0 0 0 1 0 1 4 0 81 25
5 1 2 23 5 1 0 0 0 0 0 70 11 CI9 list_type0 0 1 uI10 notransmit0 0 1 lCCCDCCDI12
 finger_index0 0 1 dI12 finger_block1012 0 CZ3 0 4 T1 0 0 1 20 1 6 6 11 255 4 21
 0 1 7 8 1 9 0 9 0 12 35 CCCI7 lattice222 0 CCCI4 mesh1006 0 I8 polyline1008 0 C
CCCCCCDI5 owner1040 0 CCCCCCI13 boundary_mesh1006 0 I17 boundary_polyline1008 0
 CCCA16 index_map_offset0 0 1 dA9 index_map82 0 A17 node_id_index_map82 0 A20 sc
hema_embedding_map82 0 A5 child12 0 A14 lowest_node_id0 0 1 dA16 mesh_offset_dat
a206 0 Z7 790 10 11 0 0 0 0 0 0 0 1e3 1e-8 4 12 0 1 0 1 1 13 14 15 16 0 0 17 18
 19 0 0 0 0 0 0 0 100 10 CCCCCCCCCA9 precision229 0 Z8 22 4 0 0 1 0 0 0 .8633801
87198213 -.504553914218866 0 .504553914218866 .863380187198213 0 .03289478513225
19 .0192235041317388 1 3 ?0 11 9 19 0 1 7 20 1 21 4 0 4 100 20 20 9 0 0 0 .22794
5208626504 .973673960761106 0 -.973673960761106 .227945208626504 1 0 0 .00868471
244866981 -.03709697790499815 0 1 3 ?0 11 21 17 0 1 12 22 1 23 9 23 0 12 12 91 2
4 25 0 0 0 0 0 0 0 1e3 1e-8 21 26 7 1 0 1 1 27 28 29 0 0 0 30 31 0 0 0 0 0 0 0 0
 100 22 18 21 0 0 232532614505222e-30 769348717932259e-31 1 -.314110451465643 .9
49386446227273 -554667823983524e-46 -.949386446227273 -.314110451465643 24492935
98294705e-31 -.04445 1925929944387235e-49 -260208521396522e-32 1 3 ?0 11 23 15 0
 1 12 32 1 33 21 33 21 100 32 16 23 0 0 .328176373404761 .944616466053233 0 -.94
4616466053233 .328176373404761 0 0 0 1 0 0 -.04445 1 3 ?0 11 33 13 0 1 12 34 1 3
5 23 35 23 100 34 14 33 0 0 -.982483154484037 .1863514184413325 0 .1863514184413
325 .982483154484037 0 0 0 -1 154074395550979e-47 -962964972193618e-49 .04445 1
 3 ?0 11 35 11 0 1 12 36 1 37 33 0 33 100 36 12 35 0 0 1224646799147352e-31 0 -1
 0 1 0 1 0 1224646799147352e-31 .04445 0 607153216591882e-32 1 3 ?0 11 37 9 0 1
 26 38 1 39 35 39 0 12 26 151 40 41 0 0 0 0 0 0 0 1e3 1e-8 37 42 12 1 0 1 1 43 4
4 45 0 0 0 46 47 0 0 0 0 0 0 0 0 100 38 10 37 0 0 -.923728021347068 -.3830490080
63238 0 -.383049008063238 .923728021347068 0 0 0 -1 0 -1734723475976805e-33 .042
545 1 3 ?0 11 39 7 0 1 26 48 1 49 37 49 37 100 48 8 39 0 0 0 0 -1 0 1 0 1 0 0 .0
42545 0 0 1 3 ?0 11 49 5 0 1 26 50 1 51 39 51 39 100 50 6 49 0 0 122464679914735
2e-31 0 1 0 1 0 -1 0 1224646799147352e-31 -.042545 0 0 1 3 ?0 11 51 3 0 1 26 52
 1 53 49 0 49 100 52 4 51 0 0 1 0 0 0 1 0 0 0 1 0 0 -.042545 1 1 ?0 11 53 1 0 1
 42 54 1 0 51 0 0 12 42 570 55 56 0 0 0 0 0 0 0 1e3 1e-8 53 57 26 1 0 1 1 58 59
 60 61 0 0 62 63 64 0 0 0 0 0 0 0 100 54 2 53 0 0 1 0 0 0 1 0 0 0 1 0 0 0 1 0 ?0
 81 1 55 570 5 42 65 0 0 0 66 70 56 0 4 T42 0 0 4 20 1 67 67 13 255 58 31 0 42 6
8 69 0 0 70 0 51 255 59 30 0 71 72 0 73 -0 0 .027305 0 0 -1 .0127 -1 0 0 38 12 C
CCCCCCCCCCA17 intersection_data204 0 Z60 125 0 74 75 0 0 +76 77 78 79 79 80 29 2
55 61 289 0 64 81 0 0 -.0127 0 19 8 CCCCCCCA5 owner12 0 Z62 9 0 42 82 0 83 V0 16
 255 63 111 0 ?84 0 85 86 0 0 42 18 255 64 286 0 87 0 88 61 ?42 17 255 87 0 89 9
0 90 64 91 92 0 93 +18 88 272 0 94 64 95 81 ?42 17 94 0 96 84 84 88 97 98 0 99 +
18 95 138 0 100 88 101 102 ?42 29 81 275 0 88 102 61 0 -.00635 0 29 102 140 0 95
 103 81 0 .0127 0 29 103 96 0 101 0 102 0 .00635 0 18 101 94 0 104 95 0 103 ?42
 17 104 0 105 106 106 101 107 108 0 97 -15 255 105 112 0 106 109 0 17 106 0 105
 104 104 88 84 63 0 107 -17 107 0 110 111 111 88 104 108 0 0 +16 108 101 0 ?107
 85 98 112 0 0 42 17 97 0 113 99 99 101 94 98 0 84 -15 113 107 0 99 114 0 17 99
 0 113 97 97 88 111 85 0 106 -16 98 98 0 ?94 108 115 116 0 0 42 17 84 0 96 94 94
 101 106 63 0 111 +15 96 232 0 94 117 0 17 111 0 110 107 107 101 99 85 0 0 +15 1
10 248 0 107 118 0 16 85 106 0 ?111 63 108 119 0 0 42 32 255 119 108 0 85 112 86
 0 +0 0 0 -.707106781186548 0 -.707106781186548 .707106781186548 0 -.70710678118
6548 .00898025612106915 .00635 32 112 103 0 108 116 119 0 +0 0 0 .70710678118654
8 0 -.707106781186548 -.707106781186548 0 -.707106781186548 .00898025612106915 .
00635 32 86 113 0 63 119 75 0 -0 0 0 -.707106781186548 0 -.707106781186548 .7071
06781186548 0 -.707106781186548 .00898025612106915 .00635 38 75 119 0 120 86 60
 0 +76 77 121 122 122 123 16 120 164 0 ?124 74 125 75 0 0 42 51 76 70 0 109 77 1
26 127 -0 0 .027305 0 0 -1 .00635 -1 0 0 51 77 251 0 128 129 76 130 -.027305 0 0
 -1 0 0 .0127 0 0 1 40 255 21 121 0 1 21 .0004349273070005445 .3834108663117405
 ??-.00635 0 -.0127 -.00603808635936311 -.00196570931647411 -.0125469512983484 -
.00515630117413429 -.003706083944222165 -.01214721950894024 -.00371258326245968
 -.00515162358090187 -.0116082201254411 -.00170869000463057 -.00611578927597048
 -.01113045917884452 .000411539861733183 -.00633665013569509 -.0110062193807772
 .0022385246444252 -.00594234864479534 -.0112240141029713 .003877922261261735 -.
00502834156910712 -.0116621516481475 .00530650483485372 -.003487621888575955 -.0
1221173589471726 .00618577536379686 -.001434811189196618 -.0126186891891098 .006
31758739024724 .000640772632521963 -.01268382475570404 .00584244714996959 .00248
7631664819405 -.01245398284486484 .00482733985158081 .00412544421333507 -.012011
27428887794 .00321739108089579 .00547456798593024 -.0114594548459963 .0011189136
50316974 .00625064254642148 -.01105529139176646 -.000934428344712161 .0062808712
5075801 -.01103814551142544 -.002694326047350605 .00575005279545919 -.0113237314
0132844 -.004294922748825675 .00467719345137869 -.01180736471099204 -.0056146454
2227541 .002966185560972515 -.01234875472336698 -.00629193300337415 .00085678415
0793659 -.01267106628973856 -.00635 136616277506119e-33 -.0127 41 3 CI8 term_use
0 0 1 cCZ1 122 H?-.00635 136616277506119e-33 -.0127 204 2 17 INTERSECTION_DATA17
 Intersection data7 uv_type0 0 1 u6 values0 1 1 fT84 123 4 0 .040005 3.141592653
589795 .033655 5.96845448965909 .0398519512983484 3.296997683804535 .03334308635
93631 5.65998693947566 .03945221950894025 3.43771928989152 .0324613011741343 5.3
368483812317 .0389132201254411 3.55927118841871 .0310175832624597 4.984831886327
63 .03843545917884455 3.64402443819586 .02901369000463055 4.64753409794437 .0383
112193807772 3.663978066844495 .0268934601382668 4.35212255648488 .0385290141029
713 3.62850744086572 .0250664753555748 4.05544922024009 .0389671516481475 3.5486
7566724382 .02342707773873825 3.723037343323645 .03951673589471725 3.41978287224
8265 .0219984951651463 3.369515437846395 .0399236891891098 3.25481164127062 .021
11922463620315 3.040511534604035 .03998882475570405 3.09111668434975 .0209874126
0975275 2.739056523352255 .03975898284486485 2.944441459400095 .0214625528500304
 2.43443415765602 .03931627428887795 2.810752085283745 .0224776601484192 2.10212
0914210205 .0387644548459963 2.695916211796055 .0240876089191042 1.7479280187541
2 .03836029139176645 2.627004272409025 .02618608634968305 1.423105927016002 .038
34314551142545 2.62426783211628 .02823942834471215 1.132603956000066 .0386287314
0132845 2.67173422233811 .0299993260473506 .827978936048857 .03911236471099205 2
.76443116992799 .03159992274882565 .486026051990239 .039653754723367 2.905857450
37787 .0329196454222754 .135339422969489 .03997606628973855 3.07407805524164 .03
359693300337415 2151437441041245e-32 .040005 3.141592653589795 .033655 14 255 12
8 241 131 ?71 132 133 58 77 -134 135 71 132 83 50 255 129 252 0 136 137 77 0 +-.
027305 0 0 1 0 0 0 0 -1 141 255 130 75 138 138 77 141 138 60 130 130 77 14 136 2
37 139 ?140 141 142 58 129 -0 0 140 141 83 50 137 253 0 143 144 129 0 +.027305 0
 0 1 0 0 0 0 -1 14 143 233 145 ?146 134 147 58 137 +0 0 146 134 83 51 144 254 0
 118 0 137 148 -.027305 0 0 -1 0 0 .00635 0 0 1 14 118 245 149 ?114 0 110 68 144
 +141 117 114 0 150 141 148 151 152 152 144 38 151 260 0 153 154 155 0 +59 144 1
56 157 157 158 141 152 155 148 148 144 38 155 259 0 125 151 159 0 +59 144 160 16
1 161 162 16 125 170 0 ?163 120 153 155 0 0 42 32 159 258 0 92 155 164 0 -0 0 0
 .707106781186548 0 -.707106781186548 -.707106781186548 0 -.707106781186548 .017
9605122421383 .0127 40 21 160 0 1 21 .0004349273070005445 .3834108663117405 ??-.
0127 0 .00635 -.0125469512983484 .00196570931647411 .00603808635936311 -.0121472
1950894024 .00370608394422216 .00515630117413429 -.0116082201254411 .00515162358
090187 .00371258326245968 -.01113045917884452 .00611578927597048 .00170869000463
057 -.0110062193807772 .00633665013569509 -.0004115398617331835 -.01122401410297
13 .00594234864479534 -.0022385246444252 -.0116621516481475 .00502834156910712 -
.003877922261261735 -.01221173589471726 .00348762188857595 -.00530650483485372 -
.0126186891891098 .001434811189196618 -.00618577536379686 -.01268382475570404 -.
000640772632521965 -.00631758739024723 -.01245398284486484 -.00248763166481941 -
.00584244714996959 -.01201127428887794 -.00412544421333507 -.00482733985158081 -
.0114594548459963 -.00547456798593024 -.003217391080895785 -.01105529139176646 -
.00625064254642148 -.00111891365031697 -.01103814551142544 -.00628087125075801 .
000934428344712163 -.01132373140132844 -.00575005279545919 .002694326047350605 -
.01180736471099204 -.00467719345137869 .004294922748825675 -.01234875472336698 -
.002966185560972515 .00561464542227541 -.01267106628973856 -.000856784150793657
 .00629193300337415 -.0127 -277226641882526e-33 .00635 41 1 161 H?-.0127 -277226
641882526e-33 .00635 204 84 162 4 0 .020955 0 .040005 .1554050302147435 .0212669
136406369 .314730817520497 .0398519512983484 .2961266363017275 .0221486988258657
 .623198367703925 .03945221950894025 .417678534828916 .0235924167375403 .9463369
2594789 .0389132201254411 .502431784606065 .02559630999536945 1.298353420851958
 .03843545917884455 .522385413254702 .0277165398617332 1.635651209235215 .038311
2193807772 .486914787275926 .0295435246444252 1.931062750694705 .038529014102971
3 .407083013654027 .03118292226126175 2.2277360869395 .0389671516481475 .2781902
18658473 .0326115048348537 2.560147963855945 .03951673589471725 .113218987680824
4 .03349077536379685 2.913669869333195 .0399236891891098 6.23270933793954 .03362
258739024725 3.24267377257555 .03998882475570405 6.08603411298989 .0331474471499
696 3.544128783827335 .03975898284486485 5.95234473887354 .0321323398515808 3.84
875114952357 .03931627428887795 5.83750886538585 .0305223910808958 4.18106439296
938 .0387644548459963 5.76859692599882 .02842391365031695 4.53525728842546 .0383
6029139176645 5.76586048570607 .02637057165528785 4.86007938016359 .038343145511
42545 5.8133268759279 .0246106739526494 5.15058135117952 .03862873140132845 5.90
602382351778 .0230100772511743 5.45520637113073 .03911236471099205 6.04745010396
766 .0216903545777246 5.79715925518935 .039653754723367 6.21567070883144 .021013
06699662585 6.1478458842101 .03997606628973855 0 .020955 0 .040005 16 92 162 0 ?
87 165 74 159 0 0 42 32 164 257 0 165 159 166 0 +0 0 0 .707106781186548 0 -.7071
06781186548 -.707106781186548 0 -.707106781186548 .0179605122421383 .0127 16 165
 157 0 ?167 168 92 164 0 0 42 32 166 256 0 168 164 169 0 +0 0 0 -.70710678118654
8 0 -.707106781186548 .707106781186548 0 -.707106781186548 .0179605122421383 .01
27 16 168 163 0 ?90 170 165 166 0 0 42 32 169 255 0 170 166 171 0 -0 0 0 -.70710
6781186548 0 -.707106781186548 .707106781186548 0 -.707106781186548 .01796051224
21383 .0127 16 170 158 0 ?172 173 168 169 0 0 42 31 255 171 74 0 174 169 175 0 +
0 0 .027305 0 0 1 1 0 0 .00635 16 174 54 0 ?176 177 173 171 0 0 42 31 175 73 0 1
73 171 178 0 +0 0 -.027305 0 0 1 1 0 0 .00635 16 173 51 0 ?179 174 170 175 0 0 4
2 31 178 7 0 115 175 180 0 +0 0 .027305 0 0 1 1 0 0 .0127 16 115 5 0 ?181 98 177
 178 0 0 42 31 180 25 0 177 178 116 0 +0 0 -.027305 0 0 1 1 0 0 .0127 16 177 20
 0 ?182 115 174 180 0 0 42 32 116 100 0 98 180 112 0 -0 0 0 .707106781186548 0 -
.707106781186548 -.707106781186548 0 -.707106781186548 .00898025612106915 .00635
 17 182 0 183 182 182 0 184 177 0 0 +15 183 28 0 182 140 185 17 184 0 186 184 18
4 0 182 177 0 0 -15 186 19 0 184 187 188 14 187 42 189 ?132 140 186 58 72 -0 0 1
32 140 83 15 188 40 0 179 187 0 17 179 0 188 179 179 0 190 173 0 0 +17 190 0 191
 190 190 0 179 173 0 0 -15 191 61 0 190 132 192 14 132 120 193 ?128 187 191 58 7
6 +114 194 128 187 83 15 192 117 0 124 132 0 17 124 0 192 124 124 0 195 120 0 0
 +17 195 0 133 195 195 0 124 120 0 0 -15 133 244 0 195 128 0 81 1 193 562 196 13
2 197 0 189 131 198 14 114 104 199 ?109 118 113 68 76 +109 132 109 118 150 14 19
4 126 200 ?201 69 202 58 76 +132 109 201 69 83 13 83 10 0 0 0 0 0 0 62 69 14 69
 150 203 ?194 0 204 58 59 -205 140 194 0 83 81 1 203 550 196 69 206 0 0 200 207
 15 204 26 0 208 69 209 14 205 131 210 ?0 71 211 58 59 -71 69 0 71 83 14 140 154
 212 ?187 136 183 58 59 -69 71 187 136 83 81 1 212 560 196 140 213 0 139 189 214
 14 71 27 215 ?205 128 216 58 59 -140 205 205 128 83 81 1 215 564 196 71 217 0 1
31 210 218 15 216 129 0 219 71 0 17 219 0 216 219 219 0 220 153 0 0 +17 220 0 22
1 220 220 0 219 153 0 0 -16 153 169 0 ?219 125 222 151 0 0 42 16 222 173 0 ?223
 153 224 225 0 0 42 17 223 0 147 223 223 0 226 222 0 0 +16 224 159 0 ?227 222 22
8 154 0 0 42 31 225 262 0 222 229 154 0 +.027305 0 0 1 0 0 0 0 -1 .0127 31 229 2
63 0 230 231 225 0 +-.027305 0 0 1 0 0 0 0 -1 .00635 31 154 261 0 224 225 151 0
 +-.027305 0 0 1 0 0 0 0 -1 .0127 16 230 176 0 ?232 228 0 229 0 0 42 31 231 264
 0 228 0 229 0 +.027305 0 0 1 0 0 0 0 -1 .00635 16 228 166 0 ?233 224 230 231 0
 0 42 17 233 0 234 233 233 0 235 228 0 0 +15 234 217 0 233 146 221 17 235 0 236
 235 235 0 233 228 0 0 -15 236 236 0 235 143 0 14 146 214 237 ?238 143 234 58 14
4 +117 141 238 143 83 15 221 218 0 220 146 0 81 1 237 556 196 146 239 0 145 240
 241 14 238 190 240 ?141 146 242 58 77 -135 134 141 146 83 14 117 229 243 ?0 109
 96 68 144 +118 146 0 109 150 14 141 209 244 ?136 238 245 58 144 +146 118 136 23
8 83 81 1 244 558 196 141 246 0 240 139 247 15 245 212 0 248 141 249 17 248 0 24
5 248 248 0 232 230 0 0 -15 249 213 0 250 141 0 17 250 0 249 250 250 0 163 125 0
 0 -17 163 0 211 163 163 0 250 125 0 0 +15 211 134 0 163 205 0 17 232 0 251 232
 232 0 248 230 0 0 +15 251 240 0 232 136 0 80 255 1 196 0 252 8001 0 0 0 0 3 5 0
 0 0 FFFFTFTFFFFFFF2 81 1 246 540 253 141 0 244 254 255 256 81 1 240 557 196 238
 257 0 237 244 258 81 1 139 559 196 136 259 0 244 212 260 83 255 3 247 .77647058
8235294 .756862745098039 .737254901960784 81 1 259 512 253 136 0 139 261 262 263
 83 3 260 .776470588235294 .756862745098039 .737254901960784 80 1 253 264 265 90
00 1 1 1 1 1 1 1 1 0 FFFFTFTFFFFFFF1 81 1 261 510 253 128 0 131 0 259 266 81 1 2
62 514 253 143 0 145 259 267 268 82 255 1 263 -99221376 81 1 145 555 196 143 262
 0 269 237 270 81 1 267 516 253 118 0 149 262 271 272 82 1 268 -98697088 81 1 14
9 566 196 118 267 0 210 199 273 81 1 271 518 253 187 0 189 267 197 274 82 1 272
 -105054080 81 1 189 561 196 187 271 0 212 193 275 81 1 197 520 253 132 0 193 27
1 276 277 82 1 274 -115933057 81 1 276 522 253 114 0 199 197 278 279 82 1 277 -9
5158144 81 1 199 567 196 114 276 0 149 280 281 81 1 278 524 253 194 0 200 276 20
6 282 82 1 279 -96599936 81 1 200 551 196 194 278 0 203 283 284 81 1 206 526 253
 69 0 203 278 285 286 82 1 282 -94633856 81 1 285 528 253 205 0 210 206 213 287
 82 1 286 -86114176 81 1 210 565 196 205 285 0 215 149 288 81 1 213 530 253 140
 0 212 285 217 289 82 1 287 -87883648 81 1 217 532 253 71 0 215 213 239 290 82 1
 289 -85720960 81 1 239 534 253 146 0 237 217 257 291 82 1 290 -117636992 81 1 2
57 536 253 238 0 240 239 254 292 82 1 291 -92209024 81 1 254 538 253 117 0 243 2
57 246 293 82 1 292 -88932224 81 1 243 569 196 117 254 0 280 0 294 82 1 293 -937
16352 81 1 280 568 196 109 255 0 199 243 295 83 3 294 .776470588235294 .75686274
5098039 .737254901960784 14 109 57 280 ?117 114 105 68 76 +194 114 117 114 150 8
1 1 255 542 253 109 0 280 246 296 297 83 3 295 .776470588235294 .756862745098039
 .737254901960784 81 1 296 544 253 135 0 298 255 299 300 82 1 297 -121765760 14
 135 205 298 ?134 201 301 58 77 -128 238 134 201 83 81 1 298 553 196 135 296 0 2
83 269 302 81 1 299 546 253 134 0 269 296 303 304 82 1 300 -91094912 14 134 185
 269 ?143 135 305 58 77 -238 128 143 135 83 81 1 269 554 196 134 299 0 298 145 3
06 81 1 303 548 253 201 0 283 299 0 307 82 1 304 -88407936 14 201 48 283 ?135 19
4 308 58 126 +0 0 135 194 83 81 1 283 552 196 201 303 0 200 298 309 82 1 307 -11
5408769 83 3 309 .776470588235294 .756862745098039 .737254901960784 15 308 4 0 1
81 201 310 50 126 3 0 201 76 72 0 +0 0 .027305 0 0 1 1 0 0 50 72 24 0 187 126 59
 0 +0 0 -.027305 0 0 1 1 0 0 17 181 0 308 181 181 0 208 115 0 0 +15 310 45 0 311
 201 0 17 311 0 310 311 311 0 176 174 0 0 -17 176 0 202 176 176 0 311 174 0 0 +1
5 202 60 0 176 194 312 15 312 123 0 313 194 0 17 313 0 312 313 313 0 314 74 0 0
 +17 314 0 301 314 314 0 313 74 0 0 -16 74 165 0 ?313 92 120 60 0 0 42 15 301 20
8 0 314 135 0 17 208 0 204 208 208 0 181 115 0 0 -83 3 306 .776470588235294 .756
862745098039 .737254901960784 15 305 188 0 226 134 315 17 226 0 305 226 226 0 22
3 222 0 0 -15 315 189 0 167 134 0 17 167 0 315 172 172 64 100 165 0 0 +17 172 0
 315 167 167 95 93 170 0 0 +17 100 0 209 316 316 95 167 165 0 91 -15 209 149 0 3
16 69 0 17 316 0 209 100 100 64 90 168 0 167 -17 91 0 185 93 93 95 87 92 0 90 -1
5 185 153 0 93 140 0 17 93 0 185 91 91 64 172 170 0 316 -17 90 0 89 87 87 95 316
 168 0 172 +15 89 194 0 87 238 0 83 3 302 .776470588235294 .756862745098039 .737
254901960784 13 68 315 0 42 0 118 0 0 70 0 13 150 316 0 0 0 0 0 0 82 118 19 82 3
17 0 42 70 62 150 V0 19 70 32 0 42 0 82 58 S0 83 3 288 .776470588235294 .7568627
45098039 .737254901960784 83 3 284 .776470588235294 .756862745098039 .7372549019
60784 83 3 281 .776470588235294 .756862745098039 .737254901960784 83 3 275 .7764
70588235294 .756862745098039 .737254901960784 83 3 273 .776470588235294 .7568627
45098039 .737254901960784 83 3 270 .776470588235294 .756862745098039 .7372549019
60784 81 1 131 563 196 128 261 0 193 215 317 82 1 266 -100925312 83 3 317 .77647
0588235294 .756862745098039 .737254901960784 79 255 14 265 SWEntUnchanged83 3 25
8 .776470588235294 .756862745098039 .737254901960784 82 1 256 -91619200 79 15 25
2 SDL/TYSA_COLOUR15 242 193 0 227 238 89 17 227 0 242 227 227 0 318 224 0 0 +17
 318 0 142 318 318 0 227 224 0 0 -15 142 239 0 318 136 251 83 3 241 .77647058823
5294 .756862745098039 .737254901960784 15 147 235 0 223 143 236 83 3 218 .776470
588235294 .756862745098039 .737254901960784 83 3 214 .776470588235294 .756862745
098039 .737254901960784 83 3 207 .776470588235294 .756862745098039 .737254901960
784 83 3 198 .776470588235294 .756862745098039 .737254901960784 40 21 156 0 1 21
 .0004349273070005445 .3834108663117405 ??.0127 0 .00635 .0125469512983484 -.001
96570931647411 .00603808635936311 .01214721950894024 -.00370608394422216 .005156
30117413429 .0116082201254411 -.00515162358090187 .00371258326245968 .0111304591
7884452 -.00611578927597048 .00170869000463057 .0110062193807772 -.0063366501356
9509 -.0004115398617331835 .0112240141029713 -.00594234864479534 -.0022385246444
252 .0116621516481475 -.00502834156910712 -.003877922261261735 .0122117358947172
6 -.00348762188857595 -.00530650483485372 .0126186891891098 -.001434811189196618
 -.00618577536379686 .01268382475570404 .000640772632521965 -.00631758739024723
 .01245398284486484 .00248763166481941 -.00584244714996959 .01201127428887794 .0
0412544421333507 -.00482733985158081 .0114594548459963 .00547456798593024 -.0032
17391080895785 .01105529139176646 .00625064254642148 -.00111891365031697 .011038
14551142544 .00628087125075801 .000934428344712163 .01132373140132844 .005750052
79545919 .002694326047350605 .01180736471099204 .00467719345137869 .004294922748
825675 .01234875472336698 .002966185560972515 .00561464542227541 .01267106628973
856 .000856784150793657 .00629193300337415 .0127 277226641882526e-33 .00635 41 1
 157 H?.0127 277226641882526e-33 .00635 204 84 158 4 3.141592653589795 .020955 0
 .014605 3.296997683804535 .0212669136406369 5.96845448965909 .0147580487016516
 3.43771928989152 .0221486988258657 5.65998693947566 .01515778049105975 3.559271
18841871 .0235924167375403 5.3368483812317 .0156967798745589 3.64402443819586 .0
2559630999536945 4.98483188632763 .01617454082115545 3.663978066844495 .02771653
98617332 4.64753409794437 .0162987806192228 3.62850744086572 .0295435246444252 4
.35212255648488 .0160809858970287 3.54867566724382 .03118292226126175 4.05544922
024009 .0156428483518525 3.419782872248265 .0326115048348537 3.72303734332364 .0
1509326410528275 3.25481164127062 .03349077536379685 3.369515437846395 .01468631
08108902 3.09111668434975 .03362258739024725 3.040511534604035 .0146211752442959
4 2.94444145940009 .0331474471499696 2.739056523352255 .01485101715513516 2.8107
52085283745 .0321323398515808 2.43443415765602 .01529372571112205 2.695916211796
055 .0305223910808958 2.102120914210205 .0158455451540037 2.627004272409025 .028
42391365031695 1.74792801875412 .01624970860823355 2.62426783211628 .02637057165
528785 1.423105927016 .01626685448857455 2.67173422233811 .0246106739526494 1.13
2603956000066 .01598126859867155 2.76443116992799 .0230100772511743 .82797893604
8857 .01549763528900795 2.90585745037787 .0216903545777246 .486026051990238 .014
95624527663302 3.074078055241645 .02101306699662585 .1353394229694886 .014633933
71026144 3.141592653589795 .020955 4365773887913795e-32 .014605 141 127 75 319 3
19 76 141 319 60 127 127 76 40 21 78 0 1 21 .0004349273070005445 .38341086631174
05 ??-.00635 0 .0127 -.00603808635936311 .00196570931647411 .0125469512983484 -.
00515630117413429 .003706083944222165 .01214721950894024 -.00371258326245968 .00
515162358090187 .0116082201254411 -.00170869000463057 .00611578927597048 .011130
45917884452 .000411539861733183 .00633665013569509 .0110062193807772 .0022385246
444252 .00594234864479534 .0112240141029713 .003877922261261735 .005028341569107
12 .0116621516481475 .00530650483485372 .003487621888575955 .01221173589471726 .
00618577536379686 .001434811189196618 .0126186891891098 .00631758739024724 -.000
640772632521963 .01268382475570404 .00584244714996959 -.002487631664819405 .0124
5398284486484 .00482733985158081 -.00412544421333507 .01201127428887794 .0032173
9108089579 -.00547456798593024 .0114594548459963 .001118913650316974 -.006250642
54642148 .01105529139176646 -.000934428344712161 -.00628087125075801 .0110381455
1142544 -.002694326047350605 -.00575005279545919 .01132373140132844 -.0042949227
48825675 -.00467719345137869 .01180736471099204 -.00561464542227541 -.0029661855
60972515 .01234875472336698 -.00629193300337415 -.000856784150793659 .0126710662
8973856 -.00635 -136616277506119e-33 .0127 41 1 79 H?-.00635 -136616277506119e-3
3 .0127 204 84 80 4 0 .014605 0 .033655 .314730817520497 .0147580487016516 .1554
050302147435 .0333430863593631 .623198367703925 .01515778049105975 .296126636301
7275 .0324613011741343 .94633692594789 .0156967798745589 .417678534828916 .03101
75832624597 1.298353420851958 .01617454082115545 .502431784606065 .0290136900046
3055 1.635651209235215 .0162987806192228 .522385413254702 .0268934601382668 1.93
1062750694705 .0160809858970287 .486914787275926 .0250664753555748 2.22773608693
9495 .0156428483518525 .407083013654027 .02342707773873825 2.560147963855945 .01
509326410528275 .2781902186584735 .0219984951651463 2.913669869333195 .014686310
81089022 .1132189876808244 .02111922463620315 3.24267377257555 .0146211752442959
4 6.23270933793954 .02098741260975275 3.544128783827335 .01485101715513516 6.086
03411298989 .0214625528500304 3.84875114952357 .01529372571112205 5.952344738873
54 .0224776601484192 4.18106439296938 .0158455451540037 5.83750886538585 .024087
6089191042 4.53525728842546 .01624970860823355 5.76859692599882 .026186086349683
05 4.86007938016359 .01626685448857455 5.76586048570607 .02823942834471215 5.150
58135117952 .01598126859867155 5.8133268759279 .0299993260473506 5.4552063711307
3 .01549763528900795 5.90602382351778 .03159992274882565 5.79715925518935 .01495
624527663302 6.04745010396766 .0329196454222754 6.1478458842101 .014633933710261
44 6.21567070883144 .03359693300337415 0 .014605 0 .033655 141 73 151 320 320 59
 141 320 155 73 73 59 74 4 CI16 index_map_offset0 0 1 dCCZ20 67 4 0 0 303 65 243
 55 0 0 0 0 0 0 0 0 0 0 0 0 0 0 0 0 81 2 65 403 321 42 0 55 0 0 322 0 80 2 321 3
23 324 8004 0 0 0 0 3 5 0 0 0 FFTFFFFFFFFFFF2 3 83 1 322 1 79 16 324 SDL/TYSA_DE
NSITY80 1 5 325 326 8017 0 0 0 0 0 0 0 0 0 TTTTTTTTTTTTTF3 84 255 16 66 Swivel -
 200309179 13 326 SDL/TYSA_NAME81 1 40 151 5 26 327 0 0 0 328 70 41 0 4 T26 0 0
 4 20 1 329 329 13 43 31 0 26 0 330 0 0 331 0 51 44 30 0 332 333 0 0 -0 0 .01524
 0 0 -1 .009525 -1 0 0 31 45 25 0 334 335 0 0 +0 0 0 0 0 1 1 0 0 .009525 19 46 9
 0 26 331 0 336 V0 16 47 5 0 ?337 0 334 335 0 0 26 17 337 0 338 337 337 0 339 47
 0 0 +16 334 20 0 ?340 47 341 45 0 0 26 31 335 7 0 47 342 45 0 +0 0 .01524 0 0 1
 1 0 0 .009525 31 342 73 0 343 344 335 0 +0 0 0 0 0 1 1 0 0 .00635 16 343 51 0 ?
345 341 0 342 0 0 26 31 344 74 0 341 0 342 0 +0 0 .01524 0 0 1 1 0 0 .00635 16 3
41 54 0 ?346 334 343 344 0 0 26 17 346 0 347 346 346 0 348 341 0 0 +15 347 60 0
 346 349 350 17 348 0 351 348 348 0 346 341 0 0 -15 351 45 0 348 330 0 14 330 48
 352 ?353 0 338 43 354 +0 0 353 0 336 81 1 352 147 196 330 355 0 0 356 357 14 35
3 42 356 ?332 330 358 43 333 -0 0 332 330 336 15 338 4 0 337 330 351 50 354 3 0
 330 359 333 0 +0 0 .01524 0 0 1 1 0 0 13 336 10 0 0 0 0 0 0 46 330 51 359 70 0
 349 0 354 0 -0 0 .01524 0 0 -1 .00635 -1 0 0 50 333 24 0 353 354 44 0 +0 0 0 0
 0 1 1 0 0 14 349 57 360 ?0 332 347 43 359 +0 0 0 332 336 81 1 360 150 196 349 3
61 0 362 0 363 14 332 27 362 ?349 353 364 43 44 -0 0 349 353 336 81 1 362 149 19
6 332 365 0 356 360 366 15 364 26 0 339 332 367 17 339 0 364 339 339 0 337 47 0
 0 -15 367 28 0 340 332 0 17 340 0 367 340 340 0 368 334 0 0 +17 368 0 358 368 3
68 0 340 334 0 0 -15 358 19 0 368 353 369 15 369 40 0 345 353 0 17 345 0 369 345
 345 0 370 343 0 0 +17 370 0 350 370 370 0 345 343 0 0 -15 350 61 0 370 349 0 81
 1 365 145 253 332 0 362 361 0 371 81 1 356 148 196 353 372 0 352 362 373 83 3 3
66 .776470588235294 .756862745098039 .737254901960784 81 1 372 141 253 353 0 356
 355 361 374 83 3 373 .776470588235294 .756862745098039 .737254901960784 81 1 35
5 139 253 330 0 352 0 372 375 81 1 361 143 253 349 0 360 372 365 376 82 1 374 14
65254003 82 1 376 1459421299 82 1 375 1465778291 82 1 371 1463550067 83 3 363 .7
76470588235294 .756862745098039 .737254901960784 83 3 357 .776470588235294 .7568
62745098039 .737254901960784 19 331 32 0 26 0 46 43 S0 74 20 329 4 0 0 365 327 3
60 40 0 0 0 0 0 0 0 0 0 0 0 0 0 0 0 0 81 2 327 100 321 26 0 40 0 0 377 0 83 1 37
7 1 84 16 328 Blushing 200309181 1 24 91 5 12 378 0 0 0 379 70 25 0 4 T12 0 0 4
 20 1 380 380 13 27 31 0 12 0 381 0 0 382 0 51 28 30 0 381 383 0 0 -0 0 .03429 0
 0 -1 .00635 -1 0 0 31 29 25 0 384 385 0 0 +0 0 0 0 0 1 1 0 0 .00635 19 30 9 0 1
2 382 0 386 V0 16 31 5 0 ?387 0 384 385 0 0 12 17 387 0 388 387 387 0 389 31 0 0
 +16 384 20 0 ?390 31 0 29 0 0 12 31 385 7 0 31 0 29 0 +0 0 .03429 0 0 1 1 0 0 .
00635 17 390 0 391 390 390 0 392 384 0 0 +15 391 28 0 390 381 0 17 392 0 393 392
 392 0 390 384 0 0 -15 393 19 0 392 394 0 14 394 18 395 ?0 396 393 27 383 -0 0 0
 396 386 81 1 395 90 196 394 397 0 398 0 399 14 396 1 398 ?394 381 388 27 400 +0
 0 394 381 386 50 383 24 0 394 400 28 0 +0 0 0 0 0 1 1 0 0 13 386 10 0 0 0 0 0 0
 30 381 14 381 27 401 ?396 0 402 27 28 -0 0 396 0 386 81 1 401 88 196 381 403 0
 0 398 404 15 402 26 0 389 381 391 17 389 0 402 389 389 0 387 31 0 0 -81 1 403 8
6 253 381 0 401 405 0 406 81 1 398 89 196 396 405 0 401 395 407 83 3 404 .776470
588235294 .756862745098039 .737254901960784 81 1 405 84 253 396 0 398 397 403 40
8 83 3 407 .776470588235294 .756862745098039 .737254901960784 81 1 397 82 253 39
4 0 395 0 405 409 82 1 408 1798045811 82 1 409 1799749747 82 1 406 1800011891 50
 400 3 0 396 0 383 0 +0 0 .03429 0 0 1 1 0 0 15 388 4 0 387 396 0 83 3 399 .7764
70588235294 .756862745098039 .737254901960784 19 382 32 0 12 0 30 27 S0 74 20 38
0 4 0 0 403 378 395 24 0 0 0 0 0 0 0 0 0 0 0 0 0 0 0 0 81 2 378 58 321 12 0 24 0
 0 410 0 83 1 410 1 84 11 379 Pin 200309181 1 10 790 5 7 411 0 0 0 412 70 11 0 4
 T7 0 0 5 20 1 413 413 13 13 183 0 7 0 414 0 0 415 0 51 14 369 416 414 417 0 0 +
-.04445 -.0381 0 1 0 0 .0254 0 0 -1 31 15 394 0 418 419 0 0 +.0254 -.0381 0 1 0
 0 0 0 -1 .009525 29 16 326 0 19 420 0 -.04445 -.0381 -.0254 19 17 61 0 7 415 0
 421 V0 16 18 348 0 ?422 0 423 419 0 0 7 18 19 324 0 424 0 425 16 ?7 17 424 0 42
6 427 428 19 429 423 0 430 -18 425 321 0 422 19 431 420 ?7 17 422 0 432 433 434
 425 435 18 0 427 +18 431 313 0 435 425 436 437 ?7 29 420 323 0 425 437 16 -.025
4 -.0381 -.0254 29 437 315 0 431 438 420 -.0254 -.0381 .0254 29 438 312 0 436 43
9 437 -.04445 -.0381 .0254 18 436 310 0 429 431 440 438 ?7 29 439 257 0 440 441
 438 .0254 -.0381 -.0254 18 440 255 0 442 436 443 439 ?7 29 441 254 0 443 444 43
9 .04445 -.0381 -.0254 18 443 252 0 445 440 446 441 ?7 29 444 246 0 446 447 441
 .04445 -.0381 .0254 18 446 244 0 448 443 449 444 ?7 29 447 243 0 449 450 444 .0
254 -.0381 .0254 18 449 241 0 451 446 452 447 ?7 29 450 135 0 453 454 447 -.0254
 0 -.0254 18 453 118 0 433 455 456 450 ?7 29 454 138 0 456 457 450 -.04445 -5443
55502220999e-32 -.0254 18 456 121 0 458 453 459 454 ?7 29 457 139 0 459 460 454
 .04445 0 -.0254 18 459 122 0 461 456 462 457 ?7 29 460 142 0 462 463 457 .0254
 0 -.0254 18 462 125 0 464 459 0 460 ?7 29 463 60 0 452 465 460 -.0254 0 .0254 1
8 452 58 0 466 449 467 463 ?7 29 465 51 0 467 468 463 -.04445 -544355502220999e-
32 .0254 18 467 49 0 469 452 470 465 ?7 29 468 48 0 470 471 465 .04445 0 .0254 1
8 470 46 0 472 467 455 468 ?7 29 471 39 0 455 0 468 .0254 0 .0254 18 455 37 0 47
3 470 453 471 ?7 17 473 0 474 475 451 455 476 477 0 478 -15 474 163 0 479 480 0
 17 475 0 474 479 473 462 481 482 0 483 +17 451 0 474 473 479 449 442 484 0 485
 +17 476 0 486 487 478 449 473 477 0 0 +16 477 9 0 ?476 488 489 490 0 0 7 17 478
 0 486 476 466 455 491 489 0 481 +15 486 4 0 492 493 0 17 466 0 486 478 494 452
 434 495 0 496 +17 491 0 497 498 481 452 478 489 0 0 -16 489 5 0 ?478 477 499 50
0 0 0 7 17 481 0 497 491 483 455 475 482 0 0 -15 497 165 0 483 501 0 17 483 0 49
7 481 498 462 502 503 0 0 +16 482 150 0 ?475 504 505 506 0 0 7 16 504 247 0 ?487
 507 482 508 0 0 7 16 505 147 0 ?509 482 510 511 0 0 7 30 255 506 182 0 482 511
 508 0 +.0254 0 .0254 0 0 -1 30 511 179 0 505 512 506 0 +.04445 0 .0254 0 0 -1 3
0 508 249 0 504 506 513 0 -.0254 -.0381 .0254 -1 72849279831047e-29 0 30 513 260
 0 507 508 514 0 --277555756156289e-31 -.0381 -.0254 1 -72849279831047e-29 0 16
 507 258 0 ?515 484 504 513 0 0 7 31 514 268 0 484 513 516 0 -.0254 -.0381 0 1 0
 0 0 0 -1 .0254 16 484 266 0 ?451 517 507 514 0 0 7 31 516 281 0 517 514 518 0 -
.04445 -.0381 0 -1 -1092739197465704e-31 0 1092739197465704e-31 -1 0 .0254 16 51
7 279 0 ?445 519 484 516 0 0 7 30 518 318 0 519 516 520 0 --.04445 -.0381 .0254
 -1 0 0 16 519 316 0 ?494 521 517 518 0 0 7 30 520 329 0 521 518 522 0 -0 -.0381
 -.0254 1 0 0 16 521 327 0 ?430 423 519 520 0 0 7 31 522 337 0 423 520 419 0 --.
04445 -.0381 0 1 1092739197465704e-31 0 -1092739197465704e-31 1 0 .0254 16 423 3
35 0 ?429 18 521 522 0 0 7 31 419 350 0 18 522 15 0 --.0254 -.0381 0 -1 0 0 0 0
 1 .0254 17 429 0 523 524 525 436 424 423 0 428 +15 523 155 0 525 526 0 17 524 0
 523 527 429 467 492 528 0 0 -17 525 0 523 429 527 19 529 530 0 0 +17 428 0 426
 424 435 436 494 519 0 492 -15 426 317 0 428 414 0 17 435 0 426 428 427 431 422
 18 0 494 -17 494 0 486 466 492 431 428 519 0 434 +17 492 0 486 494 469 436 524
 528 0 0 +17 469 0 486 492 472 467 531 532 0 533 +16 528 25 0 ?492 495 532 534 0
 0 7 16 495 314 0 ?466 535 528 536 0 0 7 16 532 21 0 ?469 528 488 537 0 0 7 30 5
34 27 0 528 537 536 0 +-.04445 -544355502220999e-32 .0254 1092739197465704e-31 -
1 0 31 537 23 0 532 538 534 0 +0 0 .0254 0 0 1 1 0 0 .04445 30 536 35 0 495 534
 539 0 +-.0254 -.0635 .0254 0 1 0 31 539 134 0 503 536 540 0 +0 0 -.0254 0 0 -1
 1 0 0 .0254 16 503 114 0 ?483 541 542 539 0 0 7 30 540 133 0 541 539 543 0 +.02
54 -.0635 -.0254 0 -1 0 16 541 110 0 ?479 544 503 540 0 0 7 30 543 131 0 544 540
 545 0 +.04445 -544355502220999e-32 -.0254 -1092739197465704e-31 1 0 16 544 253
 0 ?461 546 541 543 0 0 7 31 545 130 0 546 543 547 0 +0 0 -.0254 0 0 1 1 0 0 .04
445 16 546 98 0 ?458 530 544 545 0 0 7 30 547 129 0 530 545 548 0 +-.04445 -5443
55502220999e-32 -.0254 1092739197465704e-31 -1 0 16 530 94 0 ?525 499 546 547 0
 0 7 30 548 127 0 499 547 549 0 +-.0254 -.0635 -.0254 0 1 0 16 499 322 0 ?433 48
9 530 548 0 0 7 30 549 175 0 535 548 512 0 +-.0254 0 .0254 0 0 -1 16 535 143 0 ?
498 510 495 549 0 0 7 30 512 178 0 510 549 511 0 +-.04445 -544355502220999e-32 .
0254 0 0 -1 16 510 146 0 ?527 505 535 512 0 0 7 17 527 0 523 525 524 456 533 510
 0 529 +17 533 0 550 531 458 467 527 510 0 524 -17 529 0 551 552 430 456 525 530
 0 0 -15 551 85 0 553 554 0 17 552 0 551 555 529 459 458 546 0 0 -17 430 0 551 5
29 553 19 427 521 0 525 +17 553 0 551 430 502 425 433 499 0 0 -17 427 0 426 435
 424 425 430 521 0 553 -17 502 0 551 553 464 453 483 503 0 0 -17 433 0 432 496 4
22 453 553 499 0 498 +15 432 151 0 434 556 0 17 496 0 432 434 433 452 498 535 0
 491 -17 498 0 497 483 491 453 496 535 0 502 +17 434 0 432 422 496 431 466 495 0
 0 -14 556 152 557 ?493 526 558 13 559 -0 0 493 526 421 81 1 557 783 196 556 560
 0 561 562 563 14 493 1 562 ?554 556 486 13 564 +0 0 554 556 421 14 526 156 561
 ?556 565 566 13 567 -0 0 556 565 421 15 558 408 0 568 556 432 50 559 167 0 556
 569 567 0 +-.0254 -.0635 .0254 -1 0 0 0 0 1 13 421 62 0 0 0 0 0 0 17 414 14 414
 366 570 ?571 0 426 13 14 +0 0 571 0 421 81 1 570 776 196 414 572 0 0 573 574 14
 571 297 573 ?501 414 575 13 417 +0 0 501 414 421 81 1 573 777 196 571 576 0 570
 577 578 14 501 166 577 ?480 571 497 13 579 -0 0 480 571 421 15 575 248 0 485 57
1 0 51 417 300 580 571 579 14 0 +.0254 -.0381 0 1 -72849279831047e-29 0 .0254 72
849279831047e-29 1 0 81 2 580 301 581 417 0 0 0 416 582 583 51 579 174 0 501 584
 417 0 +0 0 .0254 0 0 -1 .0254 -1 0 0 50 584 173 0 480 585 579 0 +.0254 -.0635 .
0254 1 0 0 0 0 -1 14 480 164 586 ?587 501 588 13 584 -0 0 587 501 421 50 585 171
 0 587 589 584 0 +.04445 -544355502220999e-32 .0254 -1 -1092739197465704e-31 0 1
092739197465704e-31 -1 0 14 587 160 590 ?565 480 591 13 585 -0 0 565 480 421 51
 589 170 0 565 567 585 0 -0 0 .0254 0 0 -1 .04445 -1 0 0 14 565 158 592 ?526 587
 593 13 589 -0 0 526 587 421 50 567 169 0 526 559 589 0 +-.04445 -54435550222099
9e-32 .0254 1 1092739197465704e-31 0 -1092739197465704e-31 1 0 81 1 592 781 196
 565 594 0 590 561 595 15 593 476 0 596 565 550 17 596 0 593 596 596 0 597 598 0
 0 -15 550 157 0 458 565 0 17 458 0 550 533 509 456 552 546 0 527 +17 509 0 550
 458 531 459 599 505 0 552 +17 531 0 550 509 533 470 469 532 0 0 -17 599 0 600 6
01 461 470 509 505 0 531 -15 600 159 0 601 587 0 17 601 0 600 445 599 446 472 48
8 0 0 -17 461 0 600 599 445 459 555 544 0 509 +17 445 0 600 461 601 443 448 517
 0 602 +17 555 0 551 515 552 443 461 544 0 0 -17 515 0 551 464 555 440 602 507 0
 479 +17 464 0 551 502 515 462 479 541 0 475 -17 602 0 575 448 442 443 515 507 0
 555 -17 479 0 474 451 475 440 464 541 0 0 +17 448 0 575 485 602 446 445 517 0 4
87 -17 442 0 575 602 485 440 451 484 0 515 -17 485 0 575 442 448 449 487 504 0 4
76 -17 487 0 486 472 476 446 485 504 0 601 +17 472 0 486 469 487 470 601 488 0 5
99 +16 488 245 0 ?472 532 477 538 0 0 7 30 538 19 0 488 490 537 0 +.04445 -54435
5502220999e-32 .0254 -1092739197465704e-31 1 0 30 490 11 0 477 500 538 0 +.0254
 -.0635 .0254 0 -1 0 31 500 7 0 489 603 490 0 +0 0 .0254 0 0 -1 1 0 0 .0254 31 6
03 455 0 542 604 500 0 +-.0254 -.0381 0 -1 0 0 0 0 1 .009525 16 542 424 0 ?568 5
03 418 603 0 0 7 31 604 456 0 605 606 603 0 +-.04445 -.0381 0 1 0 0 0 0 -1 .0095
25 16 605 423 0 ?607 418 608 604 0 0 7 31 606 457 0 608 609 604 0 +.04445 -.0381
 0 1 0 0 0 0 -1 .009525 16 608 426 0 ?610 605 598 606 0 0 7 38 609 502 0 598 611
 606 0 +612 613 614 615 615 616 16 598 485 0 ?597 608 617 609 0 0 7 31 611 503 0
 617 0 609 0 +0 .09017 0 0 1 0 0 0 1 .01524 51 612 499 0 618 619 620 621 +0 -.06
3501 0 0 1 0 .01524 0 0 1 51 613 501 0 7 0 619 622 -0 0 .0254 0 0 -1 .04445 -1 0
 0 40 20 614 0 1 20 .000935075116819087 .357279540190347 ??0 .04445 .01524 .0048
8369111840293 .04418090154195625 .01443631397067936 .0092135099047166 .043484637
9223248 .01213955663258296 .01266791975519006 .04260664630167535 .00847239098932
911 .014784691414489 .04191915313765695 .003697363895849975 .01517874275700445 .
04177808358836825 -.001365052495944482 .01399461945394384 .0421894907096459 -.00
60339229643157 .01138628985772306 .0429669047439528 -.01012965958341706 .0073913
6542316313 .0438311557819466 -.01332761483466822 .002465275888281765 .0443815830
5868165 -.0150392823896174 -.002539071525525645 .0443774223653004 -.015026999560
4001 -.00710984433112965 .04387770064152295 -.01347990035523644 -.01103192387874
196 .04305925168339135 -.01051447837667864 -.01390652638131088 .0422186099250781
 -.00623427012615786 -.0151927386411493 .0417729959732568 -.001199288364710346 -
.01478052368461124 .0419206228437585 .00371398971574321 -.01289715615699084 .042
53781685820505 .00811917256019313 -.00959284601398104 .04340253224585 .011842081
9686425 -.00504554240160191 .0441627105358541 .0143805459518628 3796105086570085
e-34 .04445 .01524 41 1 615 H?3796105086570085e-34 .04445 .01524 204 80 616 4 0
 .107951 1.570796326794895 .01016 .3262067948934475 .1076819015419562 1.68088789
635505 .01096368602932062 .649214653279779 .1069856379223248 1.779588098239925 .
01326044336741702 .981313549317916 .1061076463016754 1.85979500394317 .016927609
0106709 1.325741844725402 .105420153137657 1.90987034971147 .02170263610415 1.66
0486903324825 .1052790835883682 1.919286393692865 .0267650524959445 1.9778731295
81275 .105690490709646 1.891083963730025 .0314339229643157 2.297856169315005 .10
64679047439528 1.829843364265175 .03552965958341705 2.63523208028785 .1073321557
819466 1.737857273524715 .03872761483466825 2.9791152154334 .1078825830586816 1.
626286574470735 .0404392823896174 3.30897894540356 .1078784223653004 1.513643247
95308 .0404269995604001 3.626950851869455 .107378700641523 1.41015480306854 .038
87990035523645 3.951001603254525 .1065602516833914 1.319987806291254 .0359144783
7667865 4.290951210507055 .105719609925078 1.252596002333012 .03163427012615785
 4.6336140706366 .1052739959732568 1.221971234087872 .02659928836471035 4.958568
15023914 .1054216228437584 1.231821725181052 .0216860102842568 5.27424062880496
 .106038816858205 1.276413016532162 .01728082743980685 5.6023377464539 .10690353
224585 1.353272916410992 .0135579180313575 5.9457455339695 .107663710535854 1.45
70406303486 .0110194540481372 2490882602736275e-32 .107951 1.570796326794895 .01
016 50 619 500 0 623 613 612 0 +0 .09017 0 0 1 0 0 0 1 141 622 609 622 622 613 1
4 623 486 624 ?618 625 626 13 619 +0 0 618 625 421 81 1 624 788 196 623 627 0 62
8 629 630 14 618 489 629 ?0 623 631 13 612 +0 0 0 623 421 14 625 427 628 ?623 63
2 633 13 620 -632 632 623 632 421 15 626 488 0 634 623 0 17 634 0 626 634 634 0
 635 617 0 0 +17 635 0 631 635 635 0 634 617 0 0 -16 617 482 0 ?634 598 0 611 0
 0 7 15 631 492 0 635 618 636 15 636 493 0 597 618 0 17 597 0 636 597 597 0 596
 598 0 0 +81 1 628 787 196 625 637 0 638 624 639 14 632 432 638 ?625 554 640 13
 620 -625 625 625 554 421 15 633 430 0 641 625 642 51 620 454 0 625 612 564 0 +.
04445 -.0381 0 1 0 0 .009525 0 0 -1 50 564 3 0 493 620 569 0 +0 0 .0254 0 0 1 1
 0 0 50 569 126 0 554 564 559 0 +0 0 -.0254 0 0 1 1 0 0 14 554 84 643 ?632 493 5
51 13 569 -0 0 632 493 421 81 1 643 785 196 554 644 0 562 638 645 81 1 644 774 2
53 554 0 643 646 0 647 81 1 562 784 196 493 648 0 557 643 649 81 1 638 786 196 6
32 646 0 643 628 650 83 3 645 .776470588235294 .756862745098039 .737254901960784
 81 1 646 772 253 632 0 638 637 644 651 83 3 650 .776470588235294 .7568627450980
39 .737254901960784 81 1 637 770 253 625 0 628 652 646 653 82 1 651 442630268 81
 1 652 768 253 618 0 629 627 637 654 82 1 653 443220092 81 1 629 789 196 618 652
 0 624 0 655 81 1 627 766 253 623 0 624 594 652 656 82 1 654 -1665924989 81 1 59
4 764 253 565 0 592 657 627 658 82 1 656 -1667563389 81 1 657 762 253 587 0 590
 659 594 660 82 1 658 1058406531 81 1 590 780 196 587 657 0 586 592 661 81 1 659
 760 253 480 0 586 662 657 663 82 1 660 1058668668 81 1 586 779 196 480 659 0 57
7 590 664 81 1 662 758 253 501 0 577 576 659 665 82 1 663 1059192956 81 1 577 77
8 196 501 662 0 573 586 666 81 1 576 756 253 571 0 573 572 662 667 82 1 665 1059
455092 81 1 572 754 253 414 0 570 668 576 669 82 1 667 1730543734 81 1 668 752 2
53 526 0 561 648 572 670 82 1 669 2132082808 81 1 561 782 196 526 668 0 592 557
 671 81 1 648 750 253 493 0 562 560 668 672 82 1 670 1058144380 81 1 560 748 253
 556 0 557 0 648 673 82 1 672 1045561464 82 1 673 1057620092 83 3 671 .776470588
235294 .756862745098039 .737254901960784 83 3 666 .776470588235294 .756862745098
039 .737254901960784 83 3 664 .776470588235294 .756862745098039 .737254901960784
 83 3 661 .776470588235294 .756862745098039 .737254901960784 83 3 655 .776470588
235294 .756862745098039 .737254901960784 83 3 649 .776470588235294 .756862745098
039 .737254901960784 82 1 647 1055916152 17 641 0 633 641 641 0 607 605 0 0 -15
 642 431 0 674 625 0 17 674 0 642 674 674 0 568 542 0 0 -17 568 0 558 568 568 0
 674 542 0 0 +17 607 0 566 607 607 0 641 605 0 0 +15 566 400 0 607 526 523 15 64
0 435 0 610 632 675 17 610 0 640 610 610 0 676 608 0 0 +15 675 436 0 677 632 0 1
7 677 0 675 677 677 0 678 418 0 0 -17 678 0 588 678 678 0 677 418 0 0 +16 418 42
5 0 ?678 542 605 15 0 0 7 15 588 392 0 678 480 474 17 676 0 591 676 676 0 610 60
8 0 0 -15 591 415 0 676 587 600 83 3 639 .776470588235294 .756862745098039 .7372
54901960784 83 3 630 .776470588235294 .756862745098039 .737254901960784 141 621
 609 621 621 612 83 3 595 .776470588235294 .756862745098039 .737254901960784 80
 2 581 679 680 8044 0 0 0 0 3 5 0 0 0 FFFFTFFFTTFFFF3 2 81 2 416 370 581 14 0 0
 580 0 681 682 84 6 582 EAKBCC83 2 583 1.570796326794895 4.71238898038469 84 6 6
81 EAKBCC83 2 682 3.141592653589795 6.28318530717959 79 17 680 SDL/TYSA_BLEND_ID
83 3 578 .776470588235294 .756862745098039 .737254901960784 83 3 574 .7764705882
35294 .756862745098039 .737254901960784 83 3 563 .776470588235294 .7568627450980
39 .737254901960784 19 415 184 0 7 0 17 13 S0 74 20 413 5 0 0 644 416 411 629 10
 0 0 0 0 0 0 0 0 0 0 0 0 0 0 0 81 2 411 528 321 7 0 10 0 0 683 0 83 1 683 1 84 1
4 412 Yoke - 200309174 20 6 1 0 0 2 0 0 0 0 0 0 0 0 0 0 0 0 0 0 0 0 0 0 0 1 0 
