**ABCDEFGHIJKLMNOPQRSTUVWXYZabcdefghijklmnopqrstuvwxyz**************************
**PARASOLID !"#$%&'()*+,-./:;<=>?@[\]^_`{|}~0123456789**************************
**PART1;
MC=AMD64;
MC_MODEL=Intel64 Family 6 Model 142 Stepping 12, GenuineIntel;
MC_ID=unknown;
OS=Windows_NT;
OS_RELEASE=unknown;
FRU=Parasolid Version 33.1, build 247,  8- 6-2021;
APPL=SOLIDWORKS 2022-2022009;
SITE=;
USER=unknown;
FORMAT=text;
GUISE=transmit;
KEY=FILEGear 1.x_t;
DATE=Thu Jun 15 05:53:59 2023;
**PART2;
SCH=SCH_3301247_33103;
USFLD_SIZE=0;
**PART3;
**END_OF_HEADER*****************************************************************
T51 : TRANSMIT FILE created by modeller version 330124723 SCH_3301247_33103_1300
6230 0 12 35 CCCI7 lattice222 0 CCCI4 mesh1006 0 I8 polyline1008 0 CCCCCCCDI5 ow
ner1040 0 CCCCCCI13 boundary_mesh1006 0 I17 boundary_polyline1008 0 CCCA16 index
_map_offset0 0 1 dA9 index_map82 0 A17 node_id_index_map82 0 A20 schema_embeddin
g_map82 0 A5 child12 0 A14 lowest_node_id0 0 1 dA16 mesh_offset_data206 0 Z1 193
7 2 3 0 0 0 0 0 0 0 1e3 1e-8 0 4 0 1 0 1 1 5 6 7 8 0 0 9 10 11 0 0 0 0 0 0 0 81
 255 2 2 1886 12 1 13 0 0 0 0 14 70 11 CI9 list_type0 0 1 uI10 notransmit0 0 1 l
CCCDCCDI12 finger_index0 0 1 dI12 finger_block1012 0 CZ3 0 4 T1 0 0 9 20 1 15 15
 13 255 5 1023 0 1 0 16 0 0 17 0 51 255 6 974 0 18 19 0 0 -.00732029034396101 .0
04 -.01445267915186174 0 -1 0 .01 0 0 -1 30 255 7 1022 0 10 20 0 0 +-.002675 .00
4 -.01475955199184582 0 -1 0 29 255 8 735 0 21 22 0 -.001 -.004 -.02 19 8 CCCCCC
CA5 owner12 0 Z9 341 0 1 17 0 23 V0 16 255 10 830 0 ?24 0 25 7 0 0 1 18 255 11 3
38 0 26 0 27 28 ?1 17 255 26 0 29 30 31 11 32 33 0 34 +18 27 335 0 31 11 35 36 ?
1 29 28 340 0 11 36 37 -.001 .004 -.02 29 36 337 0 27 38 28 .001 .004 -.02 29 37
 782 0 39 28 40 -.002675 -.004 -.01475955199184582 18 39 685 0 41 42 0 37 ?1 29
 40 781 0 42 37 43 -.00506315804079936 -.004 -.01411964697341576 18 42 684 0 44
 45 39 40 ?1 29 43 780 0 45 40 46 -.00913397459621533 -.004 -.0178205080756889 1
8 45 683 0 47 48 42 43 ?1 29 46 779 0 48 43 49 -.01086602540378422 -.004 -.01682
05080756889 18 48 682 0 50 51 45 46 ?1 29 49 778 0 51 46 52 -.00969639395104613
 -.004 -.01144464697341582 18 51 681 0 53 54 48 49 ?1 29 52 777 0 54 49 55 -.011
4446469734157 -.004 -.00969639395104628 18 54 680 0 56 57 51 52 ?1 29 55 776 0 5
7 52 58 -.0168205080756888 -.004 -.01086602540378442 18 57 679 0 59 60 54 55 ?1
 29 58 775 0 60 55 61 -.0178205080756888 -.004 -.00913397459621555 18 60 678 0 6
2 63 57 58 ?1 29 61 774 0 63 58 64 -.0141196469734157 -.004 -.00506315804079953
 18 63 677 0 65 66 60 61 ?1 29 64 773 0 66 61 67 -.01475955199184582 -.004 -.002
675 18 66 676 0 68 69 63 64 ?1 29 67 772 0 69 64 70 -.02 -.004 -.001 18 69 675 0
 71 72 66 67 ?1 29 70 771 0 72 67 73 -.02 -.004 .001 18 72 674 0 74 75 69 70 ?1
 29 73 770 0 75 70 76 -.01475955199184582 -.004 .002675 18 75 673 0 77 78 72 73
 ?1 29 76 769 0 78 73 79 -.0141196469734157 -.004 .00506315804079955 18 78 672 0
 80 81 75 76 ?1 29 79 768 0 81 76 82 -.01782050807568875 -.004 .0091339745962155
7 18 81 671 0 83 84 78 79 ?1 29 82 767 0 84 79 85 -.01682050807568875 -.004 .010
86602540378444 18 84 670 0 86 87 81 82 ?1 29 85 766 0 87 82 88 -.011444646973415
7 -.004 .00969639395104629 18 87 669 0 89 90 84 85 ?1 29 88 765 0 90 85 91 -.009
69639395104628 -.004 .0114446469734157 18 90 668 0 92 93 87 88 ?1 29 91 764 0 93
 88 94 -.01086602540378442 -.004 .0168205080756888 18 93 667 0 95 96 90 91 ?1 29
 94 763 0 96 91 97 -.00913397459621556 -.004 .0178205080756888 18 96 666 0 98 99
 93 94 ?1 29 97 762 0 99 94 100 -.00506315804079954 -.004 .0141196469734157 18 9
9 665 0 101 102 96 97 ?1 29 100 761 0 102 97 103 -.002675 -.004 .014759551991845
82 18 102 664 0 104 105 99 100 ?1 29 103 760 0 105 100 106 -.001 -.004 .02 18 10
5 663 0 107 108 102 103 ?1 29 106 759 0 108 103 109 .001 -.004 .02 18 108 662 0
 110 111 105 106 ?1 29 109 758 0 111 106 112 .002675 -.004 .01475955199184582 18
 111 661 0 113 114 108 109 ?1 29 112 757 0 114 109 115 .00506315804079955 -.004
 .0141196469734157 18 114 660 0 116 117 111 112 ?1 29 115 756 0 117 112 118 .009
13397459621557 -.004 .01782050807568875 18 117 659 0 119 120 114 115 ?1 29 118 7
55 0 120 115 121 .01086602540378444 -.004 .01682050807568875 18 120 658 0 122 12
3 117 118 ?1 29 121 754 0 123 118 124 .00969639395104629 -.004 .0114446469734157
 18 123 657 0 125 126 120 121 ?1 29 124 753 0 126 121 127 .0114446469734157 -.00
4 .00969639395104628 18 126 656 0 128 129 123 124 ?1 29 127 752 0 129 124 130 .0
168205080756888 -.004 .01086602540378444 18 129 655 0 131 132 126 127 ?1 29 130
 751 0 132 127 133 .0178205080756888 -.004 .00913397459621556 18 132 654 0 134 1
35 129 130 ?1 29 133 750 0 135 130 136 .0141196469734157 -.004 .0050631580407995
4 18 135 653 0 137 138 132 133 ?1 29 136 749 0 138 133 139 .01475955199184582 -.
004 .002675 18 138 652 0 140 141 135 136 ?1 29 139 748 0 141 136 142 .02 -.004 .
001 18 141 651 0 143 144 138 139 ?1 29 142 747 0 144 139 145 .02 -.004 -.001 18
 144 650 0 146 147 141 142 ?1 29 145 746 0 147 142 148 .01475955199184582 -.004
 -.002675 18 147 649 0 149 150 144 145 ?1 29 148 745 0 150 145 151 .014119646973
4157 -.004 -.00506315804079954 18 150 648 0 152 153 147 148 ?1 29 151 744 0 153
 148 154 .01782050807568875 -.004 -.00913397459621556 18 153 647 0 155 156 150 1
51 ?1 29 154 743 0 156 151 157 .01682050807568875 -.004 -.01086602540378444 18 1
56 646 0 158 159 153 154 ?1 29 157 742 0 159 154 160 .0114446469734157 -.004 -.0
0969639395104629 18 159 645 0 161 162 156 157 ?1 29 160 741 0 162 157 163 .00969
63939510463 -.004 -.0114446469734157 18 162 644 0 164 165 159 160 ?1 29 163 740
 0 165 160 166 .01086602540378446 -.004 -.01682050807568875 18 165 643 0 167 168
 162 163 ?1 29 166 739 0 168 163 169 .00913397459621559 -.004 -.0178205080756887
5 18 168 642 0 170 171 165 166 ?1 29 169 738 0 171 166 172 .00506315804079956 -.
004 -.0141196469734157 18 171 641 0 173 174 168 169 ?1 29 172 737 0 174 169 22 .
002675 -.004 -.01475955199184582 18 174 640 0 175 176 171 172 ?1 29 22 736 0 176
 172 8 .001 -.004 -.02 18 176 639 0 177 21 174 22 ?1 17 177 0 178 179 180 176 18
1 182 0 183 +18 21 638 0 184 185 176 8 ?1 17 184 0 186 34 183 21 187 188 0 189 +
18 185 197 0 190 191 21 192 ?1 17 190 0 193 24 194 185 195 196 0 30 -18 191 200
 0 195 197 185 198 ?1 29 192 199 0 185 0 198 -.002675 .004 -.01475955199184582 2
9 198 202 0 191 192 199 -.00506315804079936 .004 -.01411964697341576 29 199 205
 0 197 198 200 -.00913397459621533 .004 -.0178205080756889 18 197 203 0 201 202
 191 199 ?1 29 200 208 0 202 199 203 -.01086602540378422 .004 -.0168205080756889
 18 202 206 0 204 205 197 200 ?1 29 203 211 0 205 200 206 -.00969639395104613 .0
04 -.01144464697341582 18 205 209 0 207 208 202 203 ?1 29 206 214 0 208 203 209
 -.0114446469734157 .004 -.00969639395104628 18 208 212 0 210 211 205 206 ?1 29
 209 217 0 211 206 212 -.0168205080756888 .004 -.01086602540378442 18 211 215 0
 213 214 208 209 ?1 29 212 220 0 214 209 215 -.0178205080756888 .004 -.009133974
59621555 18 214 218 0 216 217 211 212 ?1 29 215 223 0 217 212 218 -.014119646973
4157 .004 -.00506315804079953 18 217 221 0 219 220 214 215 ?1 29 218 226 0 220 2
15 221 -.01475955199184582 .004 -.002675 18 220 224 0 222 223 217 218 ?1 29 221
 229 0 223 218 224 -.02 .004 -.001 18 223 227 0 225 226 220 221 ?1 29 224 232 0
 226 221 227 -.02 .004 .001 18 226 230 0 228 229 223 224 ?1 29 227 235 0 229 224
 230 -.01475955199184582 .004 .002675 18 229 233 0 231 232 226 227 ?1 29 230 238
 0 232 227 233 -.0141196469734157 .004 .00506315804079955 18 232 236 0 234 235 2
29 230 ?1 29 233 241 0 235 230 236 -.01782050807568875 .004 .00913397459621557 1
8 235 239 0 237 238 232 233 ?1 29 236 244 0 238 233 239 -.01682050807568875 .004
 .01086602540378444 18 238 242 0 240 241 235 236 ?1 29 239 247 0 241 236 242 -.0
114446469734157 .004 .00969639395104629 18 241 245 0 243 244 238 239 ?1 29 242 2
50 0 244 239 245 -.00969639395104628 .004 .0114446469734157 18 244 248 0 246 247
 241 242 ?1 29 245 253 0 247 242 248 -.01086602540378442 .004 .0168205080756888
 18 247 251 0 249 250 244 245 ?1 29 248 256 0 250 245 251 -.00913397459621556 .0
04 .0178205080756888 18 250 254 0 252 253 247 248 ?1 29 251 259 0 253 248 254 -.
00506315804079954 .004 .0141196469734157 18 253 257 0 255 256 250 251 ?1 29 254
 262 0 256 251 257 -.002675 .004 .01475955199184582 18 256 260 0 258 259 253 254
 ?1 29 257 265 0 259 254 260 -.001 .004 .02 18 259 263 0 261 262 256 257 ?1 29 2
60 268 0 262 257 263 .001 .004 .02 18 262 266 0 264 265 259 260 ?1 29 263 271 0
 265 260 266 .002675 .004 .01475955199184582 18 265 269 0 267 268 262 263 ?1 29
 266 274 0 268 263 269 .00506315804079955 .004 .0141196469734157 18 268 272 0 27
0 271 265 266 ?1 29 269 277 0 271 266 272 .00913397459621557 .004 .0178205080756
8875 18 271 275 0 273 274 268 269 ?1 29 272 280 0 274 269 275 .01086602540378444
 .004 .01682050807568875 18 274 278 0 276 277 271 272 ?1 29 275 283 0 277 272 27
8 .00969639395104629 .004 .0114446469734157 18 277 281 0 279 280 274 275 ?1 29 2
78 286 0 280 275 281 .0114446469734157 .004 .00969639395104628 18 280 284 0 282
 283 277 278 ?1 29 281 289 0 283 278 284 .0168205080756888 .004 .010866025403784
44 18 283 287 0 285 286 280 281 ?1 29 284 292 0 286 281 287 .0178205080756888 .0
04 .00913397459621556 18 286 290 0 288 289 283 284 ?1 29 287 295 0 289 284 290 .
0141196469734157 .004 .00506315804079954 18 289 293 0 291 292 286 287 ?1 29 290
 298 0 292 287 293 .01475955199184582 .004 .002675 18 292 296 0 294 295 289 290
 ?1 29 293 301 0 295 290 296 .02 .004 .001 18 295 299 0 297 298 292 293 ?1 29 29
6 304 0 298 293 299 .02 .004 -.001 18 298 302 0 300 301 295 296 ?1 29 299 307 0
 301 296 302 .01475955199184582 .004 -.002675 18 301 305 0 303 304 298 299 ?1 29
 302 310 0 304 299 305 .0141196469734157 .004 -.00506315804079954 18 304 308 0 3
06 307 301 302 ?1 29 305 313 0 307 302 308 .01782050807568875 .004 -.00913397459
621556 18 307 311 0 309 310 304 305 ?1 29 308 316 0 310 305 311 .016820508075688
75 .004 -.01086602540378444 18 310 314 0 312 313 307 308 ?1 29 311 319 0 313 308
 314 .0114446469734157 .004 -.00969639395104629 18 313 317 0 315 316 310 311 ?1
 29 314 322 0 316 311 317 .0096963939510463 .004 -.0114446469734157 18 316 320 0
 318 319 313 314 ?1 29 317 325 0 319 314 320 .01086602540378446 .004 -.016820508
07568875 18 319 323 0 321 322 316 317 ?1 29 320 328 0 322 317 323 .0091339745962
1559 .004 -.01782050807568875 18 322 326 0 324 325 319 320 ?1 29 323 331 0 325 3
20 38 .00506315804079956 .004 -.0141196469734157 18 325 329 0 326 35 322 323 ?1
 29 38 334 0 35 323 36 .002675 .004 -.01475955199184582 18 35 332 0 327 27 325 3
8 ?1 17 327 0 29 31 326 35 328 329 0 330 +15 255 29 4 0 30 16 331 17 31 0 29 26
 327 27 332 333 0 179 +17 326 0 29 327 324 325 334 335 0 336 +17 328 0 337 338 3
30 325 327 329 0 0 -16 329 185 0 ?327 333 335 339 0 0 1 17 330 0 337 328 175 35
 180 340 0 332 -15 337 835 0 175 341 0 17 175 0 337 330 338 174 342 343 0 180 +1
7 180 0 178 177 332 174 330 340 0 181 +16 340 785 0 ?180 344 345 346 0 0 1 17 33
2 0 178 180 179 35 31 333 0 0 -15 178 833 0 177 347 0 17 179 0 178 332 177 27 18
3 345 0 32 -16 333 189 0 ?31 33 329 348 0 0 1 16 33 193 0 ?26 349 333 350 0 0 1
 31 255 348 191 0 333 339 350 0 +-.00732029034396101 .004 -.01445267915186174 0
 1 0 0 0 -1 .01 31 339 187 0 329 351 348 0 +0 .004 0 0 1 0 0 0 1 .015 30 350 195
 0 33 348 352 0 +-.001 .004 -.02 -1 0 0 31 352 734 0 353 350 354 0 +.00732029034
396101 -.004 -.01445267915186174 0 1 0 0 0 1 .01 16 353 634 0 ?355 356 357 352 0
 0 1 31 354 733 0 356 352 358 0 +0 -.004 0 0 1 0 0 0 1 .015 16 356 630 0 ?44 359
 353 354 0 0 1 31 358 732 0 359 354 360 0 +-.01356589697687892 -.004 -.008856242
12627769 0 1 0 0 0 -1 .01 16 359 626 0 ?47 361 356 358 0 0 1 30 360 731 0 361 35
8 362 0 +-.01086602540378422 -.004 -.0168205080756889 -.866025403784445 0 .49999
999999999 16 361 622 0 ?50 363 359 360 0 0 1 31 362 730 0 363 360 364 0 +-.00088
6782174982513 -.004 -.01617653247023855 0 1 0 0 0 1 .01 16 363 618 0 ?53 365 361
 362 0 0 1 31 364 729 0 365 362 366 0 +0 -.004 0 0 1 0 0 0 1 .015 16 365 614 0 ?
56 367 363 364 0 0 1 31 366 728 0 367 364 368 0 +-.0161765324702385 -.004 -.0008
86782174982708 0 1 0 0 0 -1 .01 16 367 610 0 ?59 369 365 366 0 0 1 30 368 727 0
 369 366 370 0 +-.0178205080756888 -.004 -.00913397459621555 -.5 0 .866025403784
439 16 369 606 0 ?62 371 367 368 0 0 1 31 370 726 0 371 368 372 0 +-.00885624212
627752 -.004 -.01356589697687902 0 1 0 0 0 1 .01 16 371 602 0 ?65 373 369 370 0
 0 1 31 372 725 0 373 370 374 0 +0 -.004 0 0 1 0 0 0 1 .015 16 373 598 0 ?68 375
 371 372 0 0 1 31 374 724 0 375 372 376 0 +-.01445267915186174 -.004 .0073202903
4396101 0 1 0 0 0 -1 .01 16 375 594 0 ?71 377 373 374 0 0 1 30 376 723 0 377 374
 378 0 +-.02 -.004 .001 0 0 1 16 377 590 0 ?74 379 375 376 0 0 1 31 378 722 0 37
9 376 380 0 +-.01445267915186176 -.004 -.007320290343961 0 1 0 0 0 1 .01 16 379
 586 0 ?77 381 377 378 0 0 1 31 380 721 0 381 378 382 0 +0 -.004 0 0 1 0 0 0 1 .
015 16 381 582 0 ?80 383 379 380 0 0 1 31 382 720 0 383 380 384 0 +-.00885624212
62775 -.004 .01356589697687904 0 1 0 0 0 -1 .01 16 383 578 0 ?83 385 381 382 0 0
 1 30 384 719 0 385 382 386 0 +-.01682050807568875 -.004 .01086602540378444 .5 0
 .866025403784439 16 385 574 0 ?86 387 383 384 0 0 1 31 386 718 0 387 384 388 0
 +-.0161765324702385 -.004 .000886782174982728 0 1 0 0 0 1 .01 16 387 570 0 ?89
 389 385 386 0 0 1 31 388 717 0 389 386 390 0 +0 -.004 0 0 1 0 0 0 1 .015 16 389
 566 0 ?92 391 387 388 0 0 1 31 390 716 0 391 388 392 0 +-.000886782174982715 -.
004 .0161765324702385 0 1 0 0 0 -1 .01 16 391 562 0 ?95 393 389 390 0 0 1 30 392
 715 0 393 390 394 0 +-.00913397459621556 -.004 .0178205080756888 .8660254037844
39 0 .5 16 393 558 0 ?98 395 391 392 0 0 1 31 394 714 0 395 392 396 0 +-.0135658
9697687902 -.004 .00885624212627752 0 1 0 0 0 1 .01 16 395 554 0 ?101 397 393 39
4 0 0 1 31 396 713 0 397 394 398 0 +0 -.004 0 0 1 0 0 0 1 .015 16 397 550 0 ?104
 399 395 396 0 0 1 31 398 712 0 399 396 400 0 +.00732029034396101 -.004 .0144526
7915186174 0 1 0 0 0 -1 .01 16 399 546 0 ?107 401 397 398 0 0 1 30 400 711 0 401
 398 402 0 +.001 -.004 .02 1 0 0 16 401 542 0 ?110 403 399 400 0 0 1 31 402 710
 0 403 400 404 0 +-.007320290343961 -.004 .01445267915186176 0 1 0 0 0 1 .01 16
 403 538 0 ?113 405 401 402 0 0 1 31 404 709 0 405 402 406 0 +0 -.004 0 0 1 0 0
 0 1 .015 16 405 534 0 ?116 407 403 404 0 0 1 31 406 708 0 407 404 408 0 +.01356
589697687904 -.004 .00885624212627751 0 1 0 0 0 -1 .01 16 407 530 0 ?119 409 405
 406 0 0 1 30 408 707 0 409 406 410 0 +.01086602540378444 -.004 .016820508075688
75 .866025403784438 0 -.5 16 409 526 0 ?122 411 407 408 0 0 1 31 410 706 0 411 4
08 412 0 +.000886782174982727 -.004 .0161765324702385 0 1 0 0 0 1 .01 16 411 522
 0 ?125 413 409 410 0 0 1 31 412 705 0 413 410 414 0 +0 -.004 0 0 1 0 0 0 1 .015
 16 413 518 0 ?128 415 411 412 0 0 1 31 414 704 0 415 412 416 0 +.01617653247023
85 -.004 .000886782174982717 0 1 0 0 0 -1 .01 16 415 514 0 ?131 417 413 414 0 0
 1 30 416 703 0 417 414 418 0 +.0178205080756888 -.004 .00913397459621556 .5 0 -
.866025403784439 16 417 510 0 ?134 419 415 416 0 0 1 31 418 702 0 419 416 420 0
 +.00885624212627752 -.004 .01356589697687902 0 1 0 0 0 1 .01 16 419 506 0 ?137
 421 417 418 0 0 1 31 420 701 0 421 418 422 0 +0 -.004 0 0 1 0 0 0 1 .015 16 421
 502 0 ?140 423 419 420 0 0 1 31 422 700 0 423 420 424 0 +.01445267915186174 -.0
04 -.00732029034396101 0 1 0 0 0 -1 .01 16 423 498 0 ?143 425 421 422 0 0 1 30 4
24 699 0 425 422 426 0 +.02 -.004 -.001 0 0 -1 16 425 494 0 ?146 427 423 424 0 0
 1 31 426 698 0 427 424 428 0 +.01445267915186174 -.004 .007320290343961 0 1 0 0
 0 1 .01 16 427 490 0 ?149 429 425 426 0 0 1 31 428 697 0 429 426 430 0 +0 -.004
 0 0 1 0 0 0 1 .015 16 429 486 0 ?152 431 427 428 0 0 1 31 430 696 0 431 428 432
 0 +.00885624212627751 -.004 -.01356589697687904 0 1 0 0 0 -1 .01 16 431 482 0 ?
155 433 429 430 0 0 1 30 432 695 0 433 430 434 0 +.01682050807568875 -.004 -.010
86602540378444 -.5 0 -.866025403784439 16 433 478 0 ?158 435 431 432 0 0 1 31 43
4 694 0 435 432 436 0 +.0161765324702385 -.004 -.000886782174982723 0 1 0 0 0 1
 .01 16 435 474 0 ?161 437 433 434 0 0 1 31 436 693 0 437 434 438 0 +0 -.004 0 0
 1 0 0 0 1 .015 16 437 470 0 ?164 439 435 436 0 0 1 31 438 692 0 439 436 440 0 +
.000886782174982739 -.004 -.0161765324702385 0 1 0 0 0 -1 .01 16 439 466 0 ?167
 441 437 438 0 0 1 30 440 691 0 441 438 442 0 +.00913397459621558 -.004 -.017820
50807568875 -.866025403784438 0 -.5 16 441 462 0 ?170 443 439 440 0 0 1 31 442 6
90 0 443 440 444 0 +.01356589697687904 -.004 -.0088562421262775 0 1 0 0 0 1 .01
 16 443 458 0 ?173 343 441 442 0 0 1 31 444 689 0 343 442 445 0 +0 -.004 0 0 1 0
 0 0 1 .015 16 343 454 0 ?175 182 443 444 0 0 1 31 445 688 0 182 444 446 0 +-.00
732029034396101 -.004 -.01445267915186174 0 1 0 0 0 -1 .01 16 182 450 0 ?177 188
 343 445 0 0 1 30 446 687 0 188 445 447 0 +-.001 -.004 -.02 -1 0 0 16 188 446 0
 ?184 448 182 446 0 0 1 30 447 975 0 349 446 449 0 +-.001 .004 -.02 0 -1 0 16 34
9 783 0 ?189 345 33 447 0 0 1 30 449 976 0 345 447 346 0 +.001 .004 -.02 0 -1 0
 16 345 784 0 ?183 340 349 449 0 0 1 30 346 977 0 340 449 450 0 +.002675 .004 -.
01475955199184582 0 -1 0 30 450 978 0 344 346 451 0 +.00506315804079956 .004 -.0
141196469734157 0 -1 0 16 344 786 0 ?338 452 340 450 0 0 1 30 451 979 0 452 450
 453 0 +.00913397459621559 .004 -.01782050807568875 0 -1 0 16 452 787 0 ?454 455
 344 451 0 0 1 30 453 980 0 455 451 456 0 +.01086602540378446 .004 -.01682050807
568875 0 -1 0 16 455 788 0 ?457 458 452 453 0 0 1 30 456 981 0 458 453 459 0 +.0
096963939510463 .004 -.0114446469734157 0 -1 0 16 458 789 0 ?460 461 455 456 0 0
 1 30 459 982 0 461 456 462 0 +.0114446469734157 .004 -.00969639395104629 0 -1 0
 16 461 790 0 ?463 464 458 459 0 0 1 30 462 983 0 464 459 465 0 +.01682050807568
875 .004 -.01086602540378444 0 -1 0 16 464 791 0 ?466 467 461 462 0 0 1 30 465 9
84 0 467 462 468 0 +.01782050807568875 .004 -.00913397459621556 0 -1 0 16 467 79
2 0 ?469 470 464 465 0 0 1 30 468 985 0 470 465 471 0 +.0141196469734157 .004 -.
00506315804079954 0 -1 0 16 470 793 0 ?472 473 467 468 0 0 1 30 471 986 0 473 46
8 474 0 +.01475955199184582 .004 -.002675 0 -1 0 16 473 794 0 ?475 476 470 471 0
 0 1 30 474 987 0 476 471 477 0 +.02 .004 -.001 0 -1 0 16 476 795 0 ?478 479 473
 474 0 0 1 30 477 988 0 479 474 480 0 +.02 .004 .001 0 -1 0 16 479 796 0 ?481 48
2 476 477 0 0 1 30 480 989 0 482 477 483 0 +.01475955199184582 .004 .002675 0 -1
 0 16 482 797 0 ?484 485 479 480 0 0 1 30 483 990 0 485 480 486 0 +.014119646973
4157 .004 .00506315804079954 0 -1 0 16 485 798 0 ?487 488 482 483 0 0 1 30 486 9
91 0 488 483 489 0 +.0178205080756888 .004 .00913397459621556 0 -1 0 16 488 799
 0 ?490 491 485 486 0 0 1 30 489 992 0 491 486 492 0 +.0168205080756888 .004 .01
086602540378444 0 -1 0 16 491 800 0 ?493 494 488 489 0 0 1 30 492 993 0 494 489
 495 0 +.0114446469734157 .004 .00969639395104628 0 -1 0 16 494 801 0 ?496 497 4
91 492 0 0 1 30 495 994 0 497 492 498 0 +.00969639395104629 .004 .01144464697341
57 0 -1 0 16 497 802 0 ?499 500 494 495 0 0 1 30 498 995 0 500 495 501 0 +.01086
602540378444 .004 .01682050807568875 0 -1 0 16 500 803 0 ?502 503 497 498 0 0 1
 30 501 996 0 503 498 504 0 +.00913397459621557 .004 .01782050807568875 0 -1 0 1
6 503 804 0 ?505 506 500 501 0 0 1 30 504 997 0 506 501 507 0 +.0050631580407995
5 .004 .0141196469734157 0 -1 0 16 506 805 0 ?508 509 503 504 0 0 1 30 507 998 0
 509 504 510 0 +.002675 .004 .01475955199184582 0 -1 0 16 509 806 0 ?511 512 506
 507 0 0 1 30 510 999 0 512 507 513 0 +.001 .004 .02 0 -1 0 16 512 807 0 ?514 51
5 509 510 0 0 1 30 513 1000 0 515 510 516 0 +-.001 .004 .02 0 -1 0 16 515 808 0
 ?517 518 512 513 0 0 1 30 516 1001 0 518 513 519 0 +-.002675 .004 .014759551991
84582 0 -1 0 16 518 809 0 ?520 521 515 516 0 0 1 30 519 1002 0 521 516 522 0 +-.
00506315804079954 .004 .0141196469734157 0 -1 0 16 521 810 0 ?523 524 518 519 0
 0 1 30 522 1003 0 524 519 525 0 +-.00913397459621556 .004 .0178205080756888 0 -
1 0 16 524 811 0 ?526 527 521 522 0 0 1 30 525 1004 0 527 522 528 0 +-.010866025
40378442 .004 .0168205080756888 0 -1 0 16 527 812 0 ?529 530 524 525 0 0 1 30 52
8 1005 0 530 525 531 0 +-.00969639395104628 .004 .0114446469734157 0 -1 0 16 530
 813 0 ?532 533 527 528 0 0 1 30 531 1006 0 533 528 534 0 +-.0114446469734157 .0
04 .00969639395104629 0 -1 0 16 533 814 0 ?535 536 530 531 0 0 1 30 534 1007 0 5
36 531 537 0 +-.01682050807568875 .004 .01086602540378444 0 -1 0 16 536 815 0 ?5
38 539 533 534 0 0 1 30 537 1008 0 539 534 540 0 +-.01782050807568875 .004 .0091
3397459621557 0 -1 0 16 539 816 0 ?541 542 536 537 0 0 1 30 540 1009 0 542 537 5
43 0 +-.0141196469734157 .004 .00506315804079955 0 -1 0 16 542 817 0 ?544 545 53
9 540 0 0 1 30 543 1010 0 545 540 546 0 +-.01475955199184582 .004 .002675 0 -1 0
 16 545 818 0 ?547 548 542 543 0 0 1 30 546 1011 0 548 543 549 0 +-.02 .004 .001
 0 -1 0 16 548 819 0 ?550 551 545 546 0 0 1 30 549 1012 0 551 546 552 0 +-.02 .0
04 -.001 0 -1 0 16 551 820 0 ?553 554 548 549 0 0 1 30 552 1013 0 554 549 555 0
 +-.01475955199184582 .004 -.002675 0 -1 0 16 554 821 0 ?556 557 551 552 0 0 1 3
0 555 1014 0 557 552 558 0 +-.0141196469734157 .004 -.00506315804079953 0 -1 0 1
6 557 822 0 ?559 560 554 555 0 0 1 30 558 1015 0 560 555 561 0 +-.01782050807568
88 .004 -.00913397459621555 0 -1 0 16 560 823 0 ?562 563 557 558 0 0 1 30 561 10
16 0 563 558 564 0 +-.0168205080756888 .004 -.01086602540378442 0 -1 0 16 563 82
4 0 ?565 566 560 561 0 0 1 30 564 1017 0 566 561 567 0 +-.0114446469734157 .004
 -.00969639395104628 0 -1 0 16 566 825 0 ?568 569 563 564 0 0 1 30 567 1018 0 56
9 564 570 0 +-.00969639395104613 .004 -.01144464697341582 0 -1 0 16 569 826 0 ?5
71 572 566 567 0 0 1 30 570 1019 0 572 567 573 0 +-.01086602540378422 .004 -.016
8205080756889 0 -1 0 16 572 827 0 ?574 575 569 570 0 0 1 30 573 1020 0 575 570 2
0 0 +-.00913397459621533 .004 -.0178205080756889 0 -1 0 16 575 828 0 ?576 25 572
 573 0 0 1 30 20 1021 0 25 573 7 0 +-.00506315804079936 .004 -.01411964697341576
 0 -1 0 16 25 829 0 ?577 10 575 20 0 0 1 17 577 0 578 47 579 42 194 25 0 580 +15
 578 921 0 47 581 0 17 47 0 578 582 577 45 580 359 0 576 +17 579 0 578 577 582 1
91 201 583 0 0 -17 194 0 193 190 44 191 577 25 0 579 -17 580 0 584 41 585 42 47
 359 0 0 -15 584 445 0 586 587 588 17 41 0 584 586 580 39 44 356 0 24 -17 585 0
 584 580 589 45 50 361 0 0 -17 589 0 584 585 590 48 53 363 0 0 -17 50 0 591 592
 576 48 585 361 0 574 +15 591 919 0 50 593 0 17 592 0 591 594 50 202 574 572 0 5
95 -17 576 0 591 50 594 45 582 575 0 585 +17 574 0 596 53 595 48 592 572 0 589 +
15 596 917 0 53 597 0 17 53 0 596 598 574 51 589 363 0 571 +17 595 0 596 574 598
 202 207 599 0 0 -17 598 0 596 595 53 205 571 569 0 600 -17 207 0 29 210 204 205
 595 599 0 598 +16 599 21 0 ?207 601 602 603 0 0 1 16 601 25 0 ?210 604 599 605
 0 0 1 16 602 17 0 ?204 599 583 606 0 0 1 31 603 23 0 599 606 605 0 +-.000886782
174982513 .004 -.01617653247023855 0 1 0 0 0 1 .01 30 606 19 0 602 607 603 0 +-.
01086602540378422 .004 -.0168205080756889 -.866025403784445 0 .49999999999999 31
 605 27 0 601 603 608 0 +0 .004 0 0 1 0 0 0 1 .015 31 608 31 0 604 605 609 0 +-.
0161765324702385 .004 -.000886782174982708 0 1 0 0 0 -1 .01 16 604 29 0 ?213 610
 601 608 0 0 1 30 609 35 0 610 608 611 0 +-.0178205080756888 .004 -.009133974596
21555 -.5 0 .866025403784439 16 610 33 0 ?216 612 604 609 0 0 1 31 611 39 0 612
 609 613 0 +-.00885624212627752 .004 -.01356589697687902 0 1 0 0 0 1 .01 16 612
 37 0 ?219 614 610 611 0 0 1 31 613 43 0 614 611 615 0 +0 .004 0 0 1 0 0 0 1 .01
5 16 614 41 0 ?222 616 612 613 0 0 1 31 615 47 0 616 613 617 0 +-.01445267915186
174 .004 .00732029034396101 0 1 0 0 0 -1 .01 16 616 45 0 ?225 618 614 615 0 0 1
 30 617 51 0 618 615 619 0 +-.02 .004 .001 0 0 1 16 618 49 0 ?228 620 616 617 0
 0 1 31 619 55 0 620 617 621 0 +-.01445267915186176 .004 -.007320290343961 0 1 0
 0 0 1 .01 16 620 53 0 ?231 622 618 619 0 0 1 31 621 59 0 622 619 623 0 +0 .004
 0 0 1 0 0 0 1 .015 16 622 57 0 ?234 624 620 621 0 0 1 31 623 63 0 624 621 625 0
 +-.0088562421262775 .004 .01356589697687904 0 1 0 0 0 -1 .01 16 624 61 0 ?237 6
26 622 623 0 0 1 30 625 67 0 626 623 627 0 +-.01682050807568875 .004 .0108660254
0378444 .5 0 .866025403784439 16 626 65 0 ?240 628 624 625 0 0 1 31 627 71 0 628
 625 629 0 +-.0161765324702385 .004 .000886782174982728 0 1 0 0 0 1 .01 16 628 6
9 0 ?243 630 626 627 0 0 1 31 629 75 0 630 627 631 0 +0 .004 0 0 1 0 0 0 1 .015
 16 630 73 0 ?246 632 628 629 0 0 1 31 631 79 0 632 629 633 0 +-.000886782174982
715 .004 .0161765324702385 0 1 0 0 0 -1 .01 16 632 77 0 ?249 634 630 631 0 0 1 3
0 633 83 0 634 631 635 0 +-.00913397459621556 .004 .0178205080756888 .8660254037
84439 0 .5 16 634 81 0 ?252 636 632 633 0 0 1 31 635 87 0 636 633 637 0 +-.01356
589697687902 .004 .00885624212627752 0 1 0 0 0 1 .01 16 636 85 0 ?255 638 634 63
5 0 0 1 31 637 91 0 638 635 639 0 +0 .004 0 0 1 0 0 0 1 .015 16 638 89 0 ?258 64
0 636 637 0 0 1 31 639 95 0 640 637 641 0 +.00732029034396101 .004 .014452679151
86174 0 1 0 0 0 -1 .01 16 640 93 0 ?261 642 638 639 0 0 1 30 641 99 0 642 639 64
3 0 +.001 .004 .02 1 0 0 16 642 97 0 ?264 644 640 641 0 0 1 31 643 103 0 644 641
 645 0 +-.007320290343961 .004 .01445267915186176 0 1 0 0 0 1 .01 16 644 101 0 ?
267 646 642 643 0 0 1 31 645 107 0 646 643 647 0 +0 .004 0 0 1 0 0 0 1 .015 16 6
46 105 0 ?270 648 644 645 0 0 1 31 647 111 0 648 645 649 0 +.01356589697687904 .
004 .00885624212627751 0 1 0 0 0 -1 .01 16 648 109 0 ?273 650 646 647 0 0 1 30 6
49 115 0 650 647 651 0 +.01086602540378444 .004 .01682050807568875 .866025403784
438 0 -.5 16 650 113 0 ?276 652 648 649 0 0 1 31 651 119 0 652 649 653 0 +.00088
6782174982727 .004 .0161765324702385 0 1 0 0 0 1 .01 16 652 117 0 ?279 654 650 6
51 0 0 1 31 653 123 0 654 651 655 0 +0 .004 0 0 1 0 0 0 1 .015 16 654 121 0 ?282
 656 652 653 0 0 1 31 655 127 0 656 653 657 0 +.0161765324702385 .004 .000886782
174982717 0 1 0 0 0 -1 .01 16 656 125 0 ?285 658 654 655 0 0 1 30 657 131 0 658
 655 659 0 +.0178205080756888 .004 .00913397459621556 .5 0 -.866025403784439 16
 658 129 0 ?288 660 656 657 0 0 1 31 659 135 0 660 657 661 0 +.00885624212627752
 .004 .01356589697687902 0 1 0 0 0 1 .01 16 660 133 0 ?291 662 658 659 0 0 1 31
 661 139 0 662 659 663 0 +0 .004 0 0 1 0 0 0 1 .015 16 662 137 0 ?294 664 660 66
1 0 0 1 31 663 143 0 664 661 665 0 +.01445267915186174 .004 -.00732029034396101
 0 1 0 0 0 -1 .01 16 664 141 0 ?297 666 662 663 0 0 1 30 665 147 0 666 663 667 0
 +.02 .004 -.001 0 0 -1 16 666 145 0 ?300 668 664 665 0 0 1 31 667 151 0 668 665
 669 0 +.01445267915186174 .004 .007320290343961 0 1 0 0 0 1 .01 16 668 149 0 ?3
03 670 666 667 0 0 1 31 669 155 0 670 667 671 0 +0 .004 0 0 1 0 0 0 1 .015 16 67
0 153 0 ?306 672 668 669 0 0 1 31 671 159 0 672 669 673 0 +.00885624212627751 .0
04 -.01356589697687904 0 1 0 0 0 -1 .01 16 672 157 0 ?309 674 670 671 0 0 1 30 6
73 163 0 674 671 675 0 +.01682050807568875 .004 -.01086602540378444 -.5 0 -.8660
25403784439 16 674 161 0 ?312 676 672 673 0 0 1 31 675 167 0 676 673 677 0 +.016
1765324702385 .004 -.000886782174982723 0 1 0 0 0 1 .01 16 676 165 0 ?315 678 67
4 675 0 0 1 31 677 171 0 678 675 679 0 +0 .004 0 0 1 0 0 0 1 .015 16 678 169 0 ?
318 680 676 677 0 0 1 31 679 175 0 680 677 681 0 +.000886782174982739 .004 -.016
1765324702385 0 1 0 0 0 -1 .01 16 680 173 0 ?321 682 678 679 0 0 1 30 681 179 0
 682 679 351 0 +.00913397459621558 .004 -.01782050807568875 -.866025403784438 0
 -.5 16 682 177 0 ?324 335 680 681 0 0 1 31 351 183 0 335 681 339 0 +.0135658969
7687904 .004 -.0088562421262775 0 1 0 0 0 1 .01 16 335 181 0 ?326 329 682 351 0
 0 1 17 324 0 29 326 321 322 683 682 0 684 +17 321 0 29 324 318 319 685 680 0 68
6 +17 683 0 687 457 684 319 324 682 0 0 -17 684 0 687 683 170 322 454 452 0 334
 -15 687 839 0 170 688 0 17 170 0 687 684 457 168 689 441 0 454 +17 454 0 690 17
3 334 168 684 452 0 691 +17 334 0 690 454 336 322 326 335 0 0 -15 690 837 0 173
 692 0 17 336 0 690 334 173 325 338 344 0 328 -17 173 0 690 336 454 171 691 443
 0 338 +17 338 0 337 175 328 171 336 344 0 342 +17 342 0 584 691 181 171 175 343
 0 0 -17 691 0 584 689 342 168 173 443 0 0 -17 181 0 584 342 187 174 177 182 0 0
 -17 187 0 584 181 586 176 184 188 0 0 -17 586 0 584 187 41 21 355 353 0 0 -17 3
55 0 693 694 189 39 586 353 0 0 +15 693 925 0 355 18 0 17 694 0 693 695 355 185
 24 10 0 0 -17 189 0 693 355 695 21 34 349 0 586 +17 695 0 693 189 694 11 30 448
 0 0 -17 34 0 186 32 184 11 189 349 0 695 -15 186 831 0 184 696 0 17 32 0 186 18
3 34 27 26 33 0 0 -17 183 0 186 184 32 176 179 345 0 187 +14 255 696 832 697 ?69
8 347 186 5 699 -0 0 698 347 23 81 1 697 1887 700 696 701 0 0 702 703 14 698 114
3 702 ?0 696 704 5 705 +0 0 0 696 23 14 347 834 706 ?696 341 178 5 707 -0 0 696
 341 23 50 255 699 927 0 696 708 707 0 +-.001 .004 -.02 0 0 1 1 0 0 13 23 342 0
 0 0 0 0 0 9 16 14 16 1134 709 ?587 0 29 5 710 +0 0 587 0 23 81 1 709 1890 700 1
6 711 0 706 712 713 14 587 1128 712 ?18 16 584 5 708 -0 0 18 16 23 50 710 3 0 16
 705 708 0 +.00732029034396101 .004 -.01445267915186174 0 1 0 0 0 1 51 705 1156
 0 698 0 710 0 -0 .004 0 0 -1 0 .012 0 0 -1 50 708 686 0 587 710 699 0 +.0073202
9034396101 -.004 -.01445267915186174 0 1 0 0 0 1 81 1 712 1891 700 587 714 0 709
 715 716 14 18 926 715 ?717 587 693 5 6 -0 0 717 587 23 81 1 715 1892 700 18 718
 0 712 719 720 14 717 924 719 ?581 18 193 5 19 -0 0 581 18 23 81 1 719 1893 700
 717 721 0 715 722 723 14 581 922 722 ?593 717 578 5 724 -0 0 593 717 23 15 193
 923 0 44 717 0 51 19 973 0 717 724 6 0 -0 .004 0 0 -1 0 .015 0 0 -1 51 724 972
 0 581 725 19 0 --.01356589697687892 .004 -.00885624212627769 0 -1 0 .01 0 0 -1
 50 725 971 0 593 726 724 0 +-.01086602540378422 .004 -.0168205080756889 .499999
99999999 0 .866025403784445 .866025403784445 0 -.49999999999999 14 593 920 727 ?
597 581 591 5 725 -0 0 597 581 23 51 726 970 0 597 728 725 0 --.0008867821749825
13 .004 -.01617653247023855 0 -1 0 .01 0 0 -1 14 597 918 729 ?730 593 596 5 726
 -0 0 730 593 23 51 728 969 0 730 731 726 0 -0 .004 0 0 -1 0 .015 0 0 -1 14 730
 916 732 ?733 597 734 5 728 -0 0 733 597 23 51 731 968 0 733 735 728 0 --.016176
5324702385 .004 -.000886782174982708 0 -1 0 .01 0 0 -1 14 733 914 736 ?737 730 7
38 5 731 -0 0 737 730 23 50 735 967 0 737 739 731 0 +-.0178205080756888 .004 -.0
0913397459621555 .866025403784439 0 .5 .5 0 -.866025403784439 14 737 912 740 ?74
1 733 742 5 735 -0 0 741 733 23 51 739 966 0 741 743 735 0 --.00885624212627752
 .004 -.01356589697687902 0 -1 0 .01 0 0 -1 14 741 910 744 ?745 737 746 5 739 -0
 0 745 737 23 51 743 965 0 745 747 739 0 -0 .004 0 0 -1 0 .015 0 0 -1 14 745 908
 748 ?749 741 750 5 743 -0 0 749 741 23 51 747 964 0 749 751 743 0 --.0144526791
5186174 .004 .00732029034396101 0 -1 0 .01 0 0 -1 14 749 906 752 ?753 745 754 5
 747 -0 0 753 745 23 50 751 963 0 753 755 747 0 +-.02 .004 .001 1 0 0 0 0 -1 14
 753 904 756 ?757 749 758 5 751 -0 0 757 749 23 51 755 962 0 757 759 751 0 --.01
445267915186176 .004 -.007320290343961 0 -1 0 .01 0 0 -1 14 757 902 760 ?761 753
 762 5 755 -0 0 761 753 23 51 759 961 0 761 763 755 0 -0 .004 0 0 -1 0 .015 0 0
 -1 14 761 900 764 ?765 757 766 5 759 -0 0 765 757 23 51 763 960 0 765 767 759 0
 --.0088562421262775 .004 .01356589697687904 0 -1 0 .01 0 0 -1 14 765 898 768 ?7
69 761 770 5 763 -0 0 769 761 23 50 767 959 0 769 771 763 0 +-.01682050807568875
 .004 .01086602540378444 .866025403784439 0 -.5 -.5 0 -.866025403784439 14 769 8
96 772 ?773 765 774 5 767 -0 0 773 765 23 51 771 958 0 773 775 767 0 --.01617653
24702385 .004 .000886782174982728 0 -1 0 .01 0 0 -1 14 773 894 776 ?777 769 778
 5 771 -0 0 777 769 23 51 775 957 0 777 779 771 0 -0 .004 0 0 -1 0 .015 0 0 -1 1
4 777 892 780 ?781 773 782 5 775 -0 0 781 773 23 51 779 956 0 781 783 775 0 --.0
00886782174982715 .004 .0161765324702385 0 -1 0 .01 0 0 -1 14 781 890 784 ?785 7
77 786 5 779 -0 0 785 777 23 50 783 955 0 785 787 779 0 +-.00913397459621556 .00
4 .0178205080756888 .5 0 -.866025403784439 -.866025403784439 0 -.5 14 785 888 78
8 ?789 781 790 5 783 -0 0 789 781 23 51 787 954 0 789 791 783 0 --.0135658969768
7902 .004 .00885624212627752 0 -1 0 .01 0 0 -1 14 789 886 792 ?793 785 794 5 787
 -0 0 793 785 23 51 791 953 0 793 795 787 0 -0 .004 0 0 -1 0 .015 0 0 -1 14 793
 884 796 ?797 789 798 5 791 -0 0 797 789 23 51 795 952 0 797 799 791 0 -.0073202
9034396101 .004 .01445267915186174 0 -1 0 .01 0 0 -1 14 797 882 800 ?801 793 802
 5 795 -0 0 801 793 23 50 799 951 0 801 803 795 0 +.001 .004 .02 0 0 -1 -1 0 0 1
4 801 880 804 ?805 797 806 5 799 -0 0 805 797 23 51 803 950 0 805 807 799 0 --.0
07320290343961 .004 .01445267915186176 0 -1 0 .01 0 0 -1 14 805 878 808 ?809 801
 810 5 803 -0 0 809 801 23 51 807 949 0 809 811 803 0 -0 .004 0 0 -1 0 .015 0 0
 -1 14 809 876 812 ?813 805 814 5 807 -0 0 813 805 23 51 811 948 0 813 815 807 0
 -.01356589697687904 .004 .00885624212627751 0 -1 0 .01 0 0 -1 14 813 874 816 ?8
17 809 818 5 811 -0 0 817 809 23 50 815 947 0 817 819 811 0 +.01086602540378444
 .004 .01682050807568875 -.5 0 -.866025403784438 -.866025403784438 0 .5 14 817 8
72 820 ?821 813 822 5 815 -0 0 821 813 23 51 819 946 0 821 823 815 0 -.000886782
174982727 .004 .0161765324702385 0 -1 0 .01 0 0 -1 14 821 870 824 ?825 817 826 5
 819 -0 0 825 817 23 51 823 945 0 825 827 819 0 -0 .004 0 0 -1 0 .015 0 0 -1 14
 825 868 828 ?829 821 830 5 823 -0 0 829 821 23 51 827 944 0 829 831 823 0 -.016
1765324702385 .004 .000886782174982717 0 -1 0 .01 0 0 -1 14 829 866 832 ?833 825
 834 5 827 -0 0 833 825 23 50 831 943 0 833 835 827 0 +.0178205080756888 .004 .0
0913397459621556 -.866025403784439 0 -.5 -.5 0 .866025403784439 14 833 864 836 ?
837 829 838 5 831 -0 0 837 829 23 51 835 942 0 837 839 831 0 -.00885624212627752
 .004 .01356589697687902 0 -1 0 .01 0 0 -1 14 837 862 840 ?841 833 842 5 835 -0
 0 841 833 23 51 839 941 0 841 843 835 0 -0 .004 0 0 -1 0 .015 0 0 -1 14 841 860
 844 ?845 837 846 5 839 -0 0 845 837 23 51 843 940 0 845 847 839 0 -.01445267915
186174 .004 -.00732029034396101 0 -1 0 .01 0 0 -1 14 845 858 848 ?849 841 850 5
 843 -0 0 849 841 23 50 847 939 0 849 851 843 0 +.02 .004 -.001 -1 0 0 0 0 1 14
 849 856 852 ?853 845 854 5 847 -0 0 853 845 23 51 851 938 0 853 855 847 0 -.014
45267915186174 .004 .007320290343961 0 -1 0 .01 0 0 -1 14 853 854 856 ?857 849 8
58 5 851 -0 0 857 849 23 51 855 937 0 857 859 851 0 -0 .004 0 0 -1 0 .015 0 0 -1
 14 857 852 860 ?861 853 862 5 855 -0 0 861 853 23 51 859 936 0 861 863 855 0 -.
00885624212627751 .004 -.01356589697687904 0 -1 0 .01 0 0 -1 14 861 850 864 ?865
 857 866 5 859 -0 0 865 857 23 50 863 935 0 865 867 859 0 +.01682050807568875 .0
04 -.01086602540378444 -.866025403784439 0 .5 .5 0 .866025403784439 14 865 848 8
68 ?869 861 870 5 863 -0 0 869 861 23 51 867 934 0 869 871 863 0 -.0161765324702
385 .004 -.000886782174982723 0 -1 0 .01 0 0 -1 14 869 846 872 ?873 865 874 5 86
7 -0 0 873 865 23 51 871 933 0 873 875 867 0 -0 .004 0 0 -1 0 .015 0 0 -1 14 873
 844 876 ?877 869 878 5 871 -0 0 877 869 23 51 875 932 0 877 879 871 0 -.0008867
82174982739 .004 -.0161765324702385 0 -1 0 .01 0 0 -1 14 877 842 880 ?688 873 88
1 5 875 -0 0 688 873 23 50 879 931 0 688 882 875 0 +.00913397459621558 .004 -.01
782050807568875 -.5 0 .866025403784438 .866025403784438 0 .5 14 688 840 883 ?692
 877 687 5 879 -0 0 692 877 23 51 882 930 0 692 884 879 0 -.01356589697687904 .0
04 -.0088562421262775 0 -1 0 .01 0 0 -1 14 692 838 885 ?341 688 690 5 882 -0 0 3
41 688 23 51 884 929 0 341 707 882 0 -0 .004 0 0 -1 0 .015 0 0 -1 14 341 836 886
 ?347 692 337 5 884 -0 0 347 692 23 51 707 928 0 347 699 884 0 --.00732029034396
101 .004 -.01445267915186174 0 -1 0 .01 0 0 -1 81 1 886 1937 700 341 887 0 885 0
 888 80 255 1 700 889 890 9000 1 1 1 1 1 1 1 1 0 FFFFTFTFFFFFFF1 81 1 887 1779 8
91 341 0 886 892 893 894 81 1 885 1936 700 692 892 0 883 886 895 82 255 1 888 64
0614503 81 1 892 1778 891 692 0 885 896 887 897 81 1 883 1935 700 688 896 0 880
 885 898 82 1 895 640876647 81 1 896 1777 891 688 0 883 899 892 900 81 1 880 193
4 700 877 899 0 876 883 901 82 1 898 641138791 81 1 899 1776 891 877 0 880 902 8
96 903 81 1 876 1933 700 873 902 0 872 880 904 82 1 901 641400935 81 1 902 1775
 891 873 0 876 905 899 906 81 1 872 1932 700 869 905 0 868 876 907 82 1 904 6416
63079 81 1 905 1774 891 869 0 872 908 902 909 81 1 868 1931 700 865 908 0 864 87
2 910 82 1 907 641925223 81 1 908 1773 891 865 0 868 911 905 912 81 1 864 1930 7
00 861 911 0 860 868 913 82 1 910 642187367 81 1 911 1772 891 861 0 864 914 908
 915 81 1 860 1929 700 857 914 0 856 864 916 82 1 913 642449511 81 1 914 1771 89
1 857 0 860 917 911 918 81 1 856 1928 700 853 917 0 852 860 919 82 1 916 6427116
55 81 1 917 1770 891 853 0 856 920 914 921 81 1 852 1927 700 849 920 0 848 856 9
22 82 1 919 642973799 81 1 920 1769 891 849 0 852 923 917 924 81 1 848 1926 700
 845 923 0 844 852 925 82 1 922 643235943 81 1 923 1768 891 845 0 848 926 920 92
7 81 1 844 1925 700 841 926 0 840 848 928 82 1 925 643498087 81 1 926 1767 891 8
41 0 844 929 923 930 81 1 840 1924 700 837 929 0 836 844 931 82 1 928 643760231
 81 1 929 1766 891 837 0 840 932 926 933 81 1 836 1923 700 833 932 0 832 840 934
 82 1 931 644022375 81 1 932 1765 891 833 0 836 935 929 936 81 1 832 1922 700 82
9 935 0 828 836 937 82 1 934 644284519 81 1 935 1764 891 829 0 832 938 932 939 8
1 1 828 1921 700 825 938 0 824 832 940 82 1 937 644546663 81 1 938 1763 891 825
 0 828 941 935 942 81 1 824 1920 700 821 941 0 820 828 943 82 1 940 644808807 81
 1 941 1762 891 821 0 824 944 938 945 81 1 820 1919 700 817 944 0 816 824 946 82
 1 943 645070951 81 1 944 1761 891 817 0 820 947 941 948 81 1 816 1918 700 813 9
47 0 812 820 949 82 1 946 645333095 81 1 947 1760 891 813 0 816 950 944 951 81 1
 812 1917 700 809 950 0 808 816 952 82 1 949 645595239 81 1 950 1759 891 809 0 8
12 953 947 954 81 1 808 1916 700 805 953 0 804 812 955 82 1 952 645857383 81 1 9
53 1758 891 805 0 808 956 950 957 81 1 804 1915 700 801 956 0 800 808 958 82 1 9
55 646119527 81 1 956 1757 891 801 0 804 959 953 960 81 1 800 1914 700 797 959 0
 796 804 961 82 1 958 646381671 81 1 959 1756 891 797 0 800 962 956 963 81 1 796
 1913 700 793 962 0 792 800 964 82 1 961 646643815 81 1 962 1755 891 793 0 796 9
65 959 966 81 1 792 1912 700 789 965 0 788 796 967 82 1 964 646905959 81 1 965 1
754 891 789 0 792 968 962 969 81 1 788 1911 700 785 968 0 784 792 970 82 1 967 6
47168103 81 1 968 1753 891 785 0 788 971 965 972 81 1 784 1910 700 781 971 0 780
 788 973 82 1 970 647430247 81 1 971 1752 891 781 0 784 974 968 975 81 1 780 190
9 700 777 974 0 776 784 976 82 1 973 647692391 81 1 974 1751 891 777 0 780 977 9
71 978 81 1 776 1908 700 773 977 0 772 780 979 82 1 976 647954535 81 1 977 1750
 891 773 0 776 980 974 981 81 1 772 1907 700 769 980 0 768 776 982 82 1 979 6482
16679 81 1 980 1749 891 769 0 772 983 977 984 81 1 768 1906 700 765 983 0 764 77
2 985 82 1 982 648478823 81 1 983 1748 891 765 0 768 986 980 987 81 1 764 1905 7
00 761 986 0 760 768 988 82 1 985 648740967 81 1 986 1747 891 761 0 764 989 983
 990 81 1 760 1904 700 757 989 0 756 764 991 82 1 988 649003111 81 1 989 1746 89
1 757 0 760 992 986 993 81 1 756 1903 700 753 992 0 752 760 994 82 1 991 6492652
55 81 1 992 1745 891 753 0 756 995 989 996 81 1 752 1902 700 749 995 0 748 756 9
97 82 1 994 649527399 81 1 995 1744 891 749 0 752 998 992 999 81 1 748 1901 700
 745 998 0 744 752 1000 82 1 997 649789543 81 1 998 1743 891 745 0 748 1001 995
 1002 81 1 744 1900 700 741 1001 0 740 748 1003 82 1 1000 650051687 81 1 1001 17
42 891 741 0 744 1004 998 1005 81 1 740 1899 700 737 1004 0 736 744 1006 82 1 10
03 650313831 81 1 1004 1741 891 737 0 740 1007 1001 1008 81 1 736 1898 700 733 1
007 0 732 740 1009 82 1 1006 650575975 81 1 1007 1740 891 733 0 736 1010 1004 10
11 81 1 732 1897 700 730 1010 0 729 736 1012 82 1 1009 650838119 81 1 1010 1739
 891 730 0 732 1013 1007 1014 81 1 729 1896 700 597 1013 0 727 732 1015 82 1 101
2 651100263 81 1 1013 1738 891 597 0 729 1016 1010 1017 81 1 727 1895 700 593 10
16 0 722 729 1018 82 1 1015 651362407 81 1 1016 1737 891 593 0 727 1019 1013 102
0 81 1 722 1894 700 581 1019 0 719 727 1021 82 1 1018 651624551 81 1 1019 1736 8
91 581 0 722 721 1016 1022 82 1 1021 651886695 80 1 891 0 1023 8001 0 0 0 0 3 5
 0 0 0 FFFFTFTFFFFFFF2 81 1 721 1735 891 717 0 719 718 1019 1024 83 255 3 1022 .
3411764705882355 .83921568627451 .411764705882353 81 1 718 1734 891 18 0 715 714
 721 1025 83 3 1024 .3411764705882355 .83921568627451 .411764705882353 81 1 714
 1733 891 587 0 712 711 718 1026 83 3 1025 .3411764705882355 .83921568627451 .41
1764705882353 81 1 711 1732 891 16 0 709 0 714 1027 83 3 1026 .3411764705882355
 .83921568627451 .411764705882353 83 3 1027 .3411764705882355 .83921568627451 .4
11764705882353 79 255 15 1023 SDL/TYSA_COLOUR83 3 1020 .3411764705882355 .839215
68627451 .411764705882353 83 3 1017 .3411764705882355 .83921568627451 .411764705
882353 83 3 1014 .3411764705882355 .83921568627451 .411764705882353 83 3 1011 .3
411764705882355 .83921568627451 .411764705882353 83 3 1008 .3411764705882355 .83
921568627451 .411764705882353 83 3 1005 .3411764705882355 .83921568627451 .41176
4705882353 83 3 1002 .3411764705882355 .83921568627451 .411764705882353 83 3 999
 .3411764705882355 .83921568627451 .411764705882353 83 3 996 .3411764705882355 .
83921568627451 .411764705882353 83 3 993 .3411764705882355 .83921568627451 .4117
64705882353 83 3 990 .3411764705882355 .83921568627451 .411764705882353 83 3 987
 .3411764705882355 .83921568627451 .411764705882353 83 3 984 .3411764705882355 .
83921568627451 .411764705882353 83 3 981 .3411764705882355 .83921568627451 .4117
64705882353 83 3 978 .3411764705882355 .83921568627451 .411764705882353 83 3 975
 .3411764705882355 .83921568627451 .411764705882353 83 3 972 .3411764705882355 .
83921568627451 .411764705882353 83 3 969 .3411764705882355 .83921568627451 .4117
64705882353 83 3 966 .3411764705882355 .83921568627451 .411764705882353 83 3 963
 .3411764705882355 .83921568627451 .411764705882353 83 3 960 .3411764705882355 .
83921568627451 .411764705882353 83 3 957 .3411764705882355 .83921568627451 .4117
64705882353 83 3 954 .3411764705882355 .83921568627451 .411764705882353 83 3 951
 .3411764705882355 .83921568627451 .411764705882353 83 3 948 .3411764705882355 .
83921568627451 .411764705882353 83 3 945 .3411764705882355 .83921568627451 .4117
64705882353 83 3 942 .3411764705882355 .83921568627451 .411764705882353 83 3 939
 .3411764705882355 .83921568627451 .411764705882353 83 3 936 .3411764705882355 .
83921568627451 .411764705882353 83 3 933 .3411764705882355 .83921568627451 .4117
64705882353 83 3 930 .3411764705882355 .83921568627451 .411764705882353 83 3 927
 .3411764705882355 .83921568627451 .411764705882353 83 3 924 .3411764705882355 .
83921568627451 .411764705882353 83 3 921 .3411764705882355 .83921568627451 .4117
64705882353 83 3 918 .3411764705882355 .83921568627451 .411764705882353 83 3 915
 .3411764705882355 .83921568627451 .411764705882353 83 3 912 .3411764705882355 .
83921568627451 .411764705882353 83 3 909 .3411764705882355 .83921568627451 .4117
64705882353 83 3 906 .3411764705882355 .83921568627451 .411764705882353 83 3 903
 .3411764705882355 .83921568627451 .411764705882353 83 3 900 .3411764705882355 .
83921568627451 .411764705882353 83 3 897 .3411764705882355 .83921568627451 .4117
64705882353 81 1 893 1780 891 347 0 706 887 701 1028 83 3 894 .3411764705882355
 .83921568627451 .411764705882353 81 1 706 1889 700 347 893 0 702 709 1029 81 1
 701 1781 891 696 0 697 893 1030 1031 83 3 1028 .3411764705882355 .8392156862745
1 .411764705882353 81 1 1030 1782 891 698 0 702 701 0 1032 83 3 1031 .3411764705
882355 .83921568627451 .411764705882353 81 1 702 1888 700 698 1030 0 697 706 103
3 83 3 1032 .3411764705882355 .83921568627451 .411764705882353 82 1 1033 5491262
47 82 1 1029 640352359 79 14 890 SWEntUnchanged15 881 841 0 167 877 0 17 167 0 8
81 686 460 165 1034 439 0 457 +17 686 0 881 685 167 319 457 455 0 683 -17 460 0
 881 167 685 162 1035 458 0 1034 +17 1034 0 584 1036 689 162 167 439 0 0 -17 457
 0 687 170 683 165 686 455 0 689 +17 689 0 584 1034 691 165 170 441 0 0 -17 1036
 0 584 1037 1034 159 164 437 0 0 -17 1037 0 584 1038 1036 156 161 435 0 0 -17 16
4 0 878 1035 463 162 1036 437 0 460 +15 878 843 0 164 873 0 17 1035 0 878 1039 1
64 316 460 458 0 685 -17 463 0 878 164 1039 159 1040 461 0 1036 +17 1039 0 878 4
63 1035 313 318 678 0 0 -17 1040 0 874 1041 161 313 463 461 0 1039 -15 874 845 0
 161 869 0 17 1041 0 874 466 1040 310 315 676 0 0 -17 161 0 874 1040 466 159 103
7 435 0 463 +17 466 0 874 161 1041 156 1042 464 0 1037 +17 1042 0 870 1043 158 3
10 466 464 0 1041 -15 870 847 0 158 865 0 17 1043 0 870 469 1042 307 312 674 0 0
 -17 158 0 870 1042 469 156 1038 433 0 466 +17 469 0 870 158 1043 153 1044 467 0
 1038 +17 1038 0 584 1045 1037 153 158 433 0 0 -17 1045 0 584 1046 1038 150 155
 431 0 0 -17 1046 0 584 1047 1045 147 152 429 0 0 -17 155 0 866 1044 472 153 104
5 431 0 469 +15 866 849 0 155 861 0 17 1044 0 866 1048 155 307 469 467 0 1043 -1
7 472 0 866 155 1048 150 1049 470 0 1045 +17 1048 0 866 472 1044 304 309 672 0 0
 -17 1049 0 862 1050 152 304 472 470 0 1048 -15 862 851 0 152 857 0 17 1050 0 86
2 475 1049 301 306 670 0 0 -17 152 0 862 1049 475 150 1046 429 0 472 +17 475 0 8
62 152 1050 147 1051 473 0 1046 +17 1051 0 858 1052 149 301 475 473 0 1050 -15 8
58 853 0 149 853 0 17 1052 0 858 478 1051 298 303 668 0 0 -17 149 0 858 1051 478
 147 1047 427 0 475 +17 478 0 858 149 1052 144 1053 476 0 1047 +17 1047 0 584 10
54 1046 144 149 427 0 0 -17 1054 0 584 1055 1047 141 146 425 0 0 -17 1055 0 584
 1056 1054 138 143 423 0 0 -17 146 0 854 1053 481 144 1054 425 0 478 +15 854 855
 0 146 849 0 17 1053 0 854 1057 146 298 478 476 0 1052 -17 481 0 854 146 1057 14
1 1058 479 0 1054 +17 1057 0 854 481 1053 295 300 666 0 0 -17 1058 0 850 1059 14
3 295 481 479 0 1057 -15 850 857 0 143 845 0 17 1059 0 850 484 1058 292 297 664
 0 0 -17 143 0 850 1058 484 141 1055 423 0 481 +17 484 0 850 143 1059 138 1060 4
82 0 1055 +17 1060 0 846 1061 140 292 484 482 0 1059 -15 846 859 0 140 841 0 17
 1061 0 846 487 1060 289 294 662 0 0 -17 140 0 846 1060 487 138 1056 421 0 484 +
17 487 0 846 140 1061 135 1062 485 0 1056 +17 1056 0 584 1063 1055 135 140 421 0
 0 -17 1063 0 584 1064 1056 132 137 419 0 0 -17 1064 0 584 1065 1063 129 134 417
 0 0 -17 137 0 842 1062 490 135 1063 419 0 487 +15 842 861 0 137 837 0 17 1062 0
 842 1066 137 289 487 485 0 1061 -17 490 0 842 137 1066 132 1067 488 0 1063 +17
 1066 0 842 490 1062 286 291 660 0 0 -17 1067 0 838 1068 134 286 490 488 0 1066
 -15 838 863 0 134 833 0 17 1068 0 838 493 1067 283 288 658 0 0 -17 134 0 838 10
67 493 132 1064 417 0 490 +17 493 0 838 134 1068 129 1069 491 0 1064 +17 1069 0
 834 1070 131 283 493 491 0 1068 -15 834 865 0 131 829 0 17 1070 0 834 496 1069
 280 285 656 0 0 -17 131 0 834 1069 496 129 1065 415 0 493 +17 496 0 834 131 107
0 126 1071 494 0 1065 +17 1065 0 584 1072 1064 126 131 415 0 0 -17 1072 0 584 10
73 1065 123 128 413 0 0 -17 1073 0 584 1074 1072 120 125 411 0 0 -17 128 0 830 1
071 499 126 1072 413 0 496 +15 830 867 0 128 825 0 17 1071 0 830 1075 128 280 49
6 494 0 1070 -17 499 0 830 128 1075 123 1076 497 0 1072 +17 1075 0 830 499 1071
 277 282 654 0 0 -17 1076 0 826 1077 125 277 499 497 0 1075 -15 826 869 0 125 82
1 0 17 1077 0 826 502 1076 274 279 652 0 0 -17 125 0 826 1076 502 123 1073 411 0
 499 +17 502 0 826 125 1077 120 1078 500 0 1073 +17 1078 0 822 1079 122 274 502
 500 0 1077 -15 822 871 0 122 817 0 17 1079 0 822 505 1078 271 276 650 0 0 -17 1
22 0 822 1078 505 120 1074 409 0 502 +17 505 0 822 122 1079 117 1080 503 0 1074
 +17 1074 0 584 1081 1073 117 122 409 0 0 -17 1081 0 584 1082 1074 114 119 407 0
 0 -17 1082 0 584 1083 1081 111 116 405 0 0 -17 119 0 818 1080 508 117 1081 407
 0 505 +15 818 873 0 119 813 0 17 1080 0 818 1084 119 271 505 503 0 1079 -17 508
 0 818 119 1084 114 1085 506 0 1081 +17 1084 0 818 508 1080 268 273 648 0 0 -17
 1085 0 814 1086 116 268 508 506 0 1084 -15 814 875 0 116 809 0 17 1086 0 814 51
1 1085 265 270 646 0 0 -17 116 0 814 1085 511 114 1082 405 0 508 +17 511 0 814 1
16 1086 111 1087 509 0 1082 +17 1087 0 810 1088 113 265 511 509 0 1086 -15 810 8
77 0 113 805 0 17 1088 0 810 514 1087 262 267 644 0 0 -17 113 0 810 1087 514 111
 1083 403 0 511 +17 514 0 810 113 1088 108 1089 512 0 1083 +17 1083 0 584 1090 1
082 108 113 403 0 0 -17 1090 0 584 1091 1083 105 110 401 0 0 -17 1091 0 584 1092
 1090 102 107 399 0 0 -17 110 0 806 1089 517 108 1090 401 0 514 +15 806 879 0 11
0 801 0 17 1089 0 806 1093 110 262 514 512 0 1088 -17 517 0 806 110 1093 105 109
4 515 0 1090 +17 1093 0 806 517 1089 259 264 642 0 0 -17 1094 0 802 1095 107 259
 517 515 0 1093 -15 802 881 0 107 797 0 17 1095 0 802 520 1094 256 261 640 0 0 -
17 107 0 802 1094 520 105 1091 399 0 517 +17 520 0 802 107 1095 102 1096 518 0 1
091 +17 1096 0 798 1097 104 256 520 518 0 1095 -15 798 883 0 104 793 0 17 1097 0
 798 523 1096 253 258 638 0 0 -17 104 0 798 1096 523 102 1092 397 0 520 +17 523
 0 798 104 1097 99 1098 521 0 1092 +17 1092 0 584 1099 1091 99 104 397 0 0 -17 1
099 0 584 1100 1092 96 101 395 0 0 -17 1100 0 584 1101 1099 93 98 393 0 0 -17 10
1 0 794 1098 526 99 1099 395 0 523 +15 794 885 0 101 789 0 17 1098 0 794 1102 10
1 253 523 521 0 1097 -17 526 0 794 101 1102 96 1103 524 0 1099 +17 1102 0 794 52
6 1098 250 255 636 0 0 -17 1103 0 790 1104 98 250 526 524 0 1102 -15 790 887 0 9
8 785 0 17 1104 0 790 529 1103 247 252 634 0 0 -17 98 0 790 1103 529 96 1100 393
 0 526 +17 529 0 790 98 1104 93 1105 527 0 1100 +17 1105 0 786 1106 95 247 529 5
27 0 1104 -15 786 889 0 95 781 0 17 1106 0 786 532 1105 244 249 632 0 0 -17 95 0
 786 1105 532 93 1101 391 0 529 +17 532 0 786 95 1106 90 1107 530 0 1101 +17 110
1 0 584 1108 1100 90 95 391 0 0 -17 1108 0 584 1109 1101 87 92 389 0 0 -17 1109
 0 584 1110 1108 84 89 387 0 0 -17 92 0 782 1107 535 90 1108 389 0 532 +15 782 8
91 0 92 777 0 17 1107 0 782 1111 92 244 532 530 0 1106 -17 535 0 782 92 1111 87
 1112 533 0 1108 +17 1111 0 782 535 1107 241 246 630 0 0 -17 1112 0 778 1113 89
 241 535 533 0 1111 -15 778 893 0 89 773 0 17 1113 0 778 538 1112 238 243 628 0
 0 -17 89 0 778 1112 538 87 1109 387 0 535 +17 538 0 778 89 1113 84 1114 536 0 1
109 +17 1114 0 774 1115 86 238 538 536 0 1113 -15 774 895 0 86 769 0 17 1115 0 7
74 541 1114 235 240 626 0 0 -17 86 0 774 1114 541 84 1110 385 0 538 +17 541 0 77
4 86 1115 81 1116 539 0 1110 +17 1110 0 584 1117 1109 81 86 385 0 0 -17 1117 0 5
84 1118 1110 78 83 383 0 0 -17 1118 0 584 1119 1117 75 80 381 0 0 -17 83 0 770 1
116 544 81 1117 383 0 541 +15 770 897 0 83 765 0 17 1116 0 770 1120 83 235 541 5
39 0 1115 -17 544 0 770 83 1120 78 1121 542 0 1117 +17 1120 0 770 544 1116 232 2
37 624 0 0 -17 1121 0 766 1122 80 232 544 542 0 1120 -15 766 899 0 80 761 0 17 1
122 0 766 547 1121 229 234 622 0 0 -17 80 0 766 1121 547 78 1118 381 0 544 +17 5
47 0 766 80 1122 75 1123 545 0 1118 +17 1123 0 762 1124 77 229 547 545 0 1122 -1
5 762 901 0 77 757 0 17 1124 0 762 550 1123 226 231 620 0 0 -17 77 0 762 1123 55
0 75 1119 379 0 547 +17 550 0 762 77 1124 72 1125 548 0 1119 +17 1119 0 584 1126
 1118 72 77 379 0 0 -17 1126 0 584 1127 1119 69 74 377 0 0 -17 1127 0 584 1128 1
126 66 71 375 0 0 -17 74 0 758 1125 553 72 1126 377 0 550 +15 758 903 0 74 753 0
 17 1125 0 758 1129 74 226 550 548 0 1124 -17 553 0 758 74 1129 69 1130 551 0 11
26 +17 1129 0 758 553 1125 223 228 618 0 0 -17 1130 0 754 1131 71 223 553 551 0
 1129 -15 754 905 0 71 749 0 17 1131 0 754 556 1130 220 225 616 0 0 -17 71 0 754
 1130 556 69 1127 375 0 553 +17 556 0 754 71 1131 66 1132 554 0 1127 +17 1132 0
 750 1133 68 220 556 554 0 1131 -15 750 907 0 68 745 0 17 1133 0 750 559 1132 21
7 222 614 0 0 -17 68 0 750 1132 559 66 1128 373 0 556 +17 559 0 750 68 1133 63 1
134 557 0 1128 +17 1128 0 584 1135 1127 63 68 373 0 0 -17 1135 0 584 1136 1128 6
0 65 371 0 0 -17 1136 0 584 1137 1135 57 62 369 0 0 -17 65 0 746 1134 562 63 113
5 371 0 559 +15 746 909 0 65 741 0 17 1134 0 746 1138 65 217 559 557 0 1133 -17
 562 0 746 65 1138 60 1139 560 0 1135 +17 1138 0 746 562 1134 214 219 612 0 0 -1
7 1139 0 742 1140 62 214 562 560 0 1138 -15 742 911 0 62 737 0 17 1140 0 742 565
 1139 211 216 610 0 0 -17 62 0 742 1139 565 60 1136 369 0 562 +17 565 0 742 62 1
140 57 1141 563 0 1136 +17 1141 0 738 1142 59 211 565 563 0 1140 -15 738 913 0 5
9 733 0 17 1142 0 738 568 1141 208 213 604 0 0 -17 59 0 738 1141 568 57 1137 367
 0 565 +17 568 0 738 59 1142 54 1143 566 0 1137 +17 1137 0 584 590 1136 54 59 36
7 0 0 -17 590 0 584 589 1137 51 56 365 0 0 -17 56 0 734 1143 571 54 590 365 0 56
8 +15 734 915 0 56 730 0 17 1143 0 734 600 56 208 568 566 0 1142 -17 571 0 734 5
6 600 51 598 569 0 590 +17 600 0 734 571 1143 205 210 601 0 0 -17 210 0 29 213 2
07 208 600 601 0 1143 +17 213 0 29 216 210 211 1142 604 0 1141 +17 216 0 29 219
 213 214 1140 610 0 1139 +17 219 0 29 222 216 217 1138 612 0 1134 +17 222 0 29 2
25 219 220 1133 614 0 1132 +17 225 0 29 228 222 223 1131 616 0 1130 +17 228 0 29
 231 225 226 1129 618 0 1125 +17 231 0 29 234 228 229 1124 620 0 1123 +17 234 0
 29 237 231 232 1122 622 0 1121 +17 237 0 29 240 234 235 1120 624 0 1116 +17 240
 0 29 243 237 238 1115 626 0 1114 +17 243 0 29 246 240 241 1113 628 0 1112 +17 2
46 0 29 249 243 244 1111 630 0 1107 +17 249 0 29 252 246 247 1106 632 0 1105 +17
 252 0 29 255 249 250 1104 634 0 1103 +17 255 0 29 258 252 253 1102 636 0 1098 +
17 258 0 29 261 255 256 1097 638 0 1096 +17 261 0 29 264 258 259 1095 640 0 1094
 +17 264 0 29 267 261 262 1093 642 0 1089 +17 267 0 29 270 264 265 1088 644 0 10
87 +17 270 0 29 273 267 268 1086 646 0 1085 +17 273 0 29 276 270 271 1084 648 0
 1080 +17 276 0 29 279 273 274 1079 650 0 1078 +17 279 0 29 282 276 277 1077 652
 0 1076 +17 282 0 29 285 279 280 1075 654 0 1071 +17 285 0 29 288 282 283 1070 6
56 0 1069 +17 288 0 29 291 285 286 1068 658 0 1067 +17 291 0 29 294 288 289 1066
 660 0 1062 +17 294 0 29 297 291 292 1061 662 0 1060 +17 297 0 29 300 294 295 10
59 664 0 1058 +17 300 0 29 303 297 298 1057 666 0 1053 +17 303 0 29 306 300 301
 1052 668 0 1051 +17 306 0 29 309 303 304 1050 670 0 1049 +17 309 0 29 312 306 3
07 1048 672 0 1044 +17 312 0 29 315 309 310 1043 674 0 1042 +17 315 0 29 318 312
 313 1041 676 0 1040 +17 318 0 29 321 315 316 1039 678 0 1035 +17 685 0 881 460
 686 316 321 680 0 0 -17 44 0 193 194 24 42 41 356 0 577 +17 24 0 193 44 190 39
 694 10 0 355 +82 1 723 652148839 82 1 720 652410983 82 1 716 666370151 82 1 713
 666894439 15 704 1146 0 1144 698 1145 17 1144 0 704 1144 1144 0 1146 357 0 0 +1
5 1145 1147 0 1147 698 0 17 1147 0 1145 1147 1147 0 1148 1149 0 0 -17 1148 0 588
 1148 1148 0 1147 1149 0 0 +16 1149 1137 0 ?1148 357 0 1150 0 0 1 16 357 1140 0
 ?1144 353 1149 1151 0 0 1 31 1150 1159 0 1149 1151 1152 0 +0 -.004 0 0 1 0 0 0
 1 .012 31 1151 1160 0 357 0 1150 0 +0 .004 0 0 1 0 0 0 1 .012 31 1152 7 0 448 1
150 1153 0 +.00732029034396101 .004 -.01445267915186174 0 1 0 0 0 1 .01 16 448 5
 0 ?30 196 188 1152 0 0 1 31 1153 11 0 196 1152 607 0 +0 .004 0 0 1 0 0 0 1 .015
 16 196 9 0 ?195 583 448 1153 0 0 1 31 607 15 0 583 1153 606 0 +-.01356589697687
892 .004 -.00885624212627769 0 1 0 0 0 -1 .01 16 583 13 0 ?201 602 196 607 0 0 1
 17 201 0 29 204 195 197 579 583 0 582 +17 204 0 29 207 201 202 594 602 0 592 +1
7 195 0 29 201 30 191 190 196 0 194 +17 582 0 578 579 47 197 576 575 0 594 -17 5
94 0 591 576 592 197 204 602 0 0 -17 30 0 29 195 26 185 695 448 0 694 +15 588 11
26 0 1148 587 0 17 1146 0 331 1146 1146 0 1144 357 0 0 -15 331 1131 0 1146 16 0
 82 1 703 640090215 19 17 1024 0 1 0 9 5 S0 74 4 CI16 index_map_offset0 0 1 dCCZ
20 15 9 0 0 1154 1155 886 1156 1157 1158 13 1030 2 0 0 0 0 0 0 0 0 0 0 0 81 2 11
54 1123 1159 1 0 1155 0 0 0 1160 81 2 1155 1268 1161 1 1154 1156 0 0 0 1162 81 1
 1156 1320 1163 1 1155 1157 0 0 1164 81 2 1157 1374 1165 1 1156 1158 0 0 1166 0
 81 2 1158 1624 1167 1 1157 13 0 0 0 1168 81 2 13 1729 1169 1 1158 2 0 0 0 0 80
 2 1169 1170 1171 9000 0 0 0 0 3 5 0 0 0 FFTFFFFFFFFFFF9 1 79 16 1171 BODY_RECIP
E_200180 2 1167 1172 1173 9000 0 0 0 0 3 5 0 0 0 FFTFFFFFFFFFFF9 1 82 1 1168 1 7
9 24 1173 BODY_IN_LIGHTWEIGHT_PERM80 2 1165 1174 1175 8004 0 0 0 0 3 5 0 0 0 FFT
FFFFFFFFFFF2 3 83 1 1166 1 79 16 1175 SDL/TYSA_DENSITY80 1 1163 1176 1177 9000 1
 1 1 1 1 1 1 1 0 FFTFFFFFFFFFFF1 82 1 1164 205349 79 10 1177 BODY_MATCH80 2 1161
 1178 1179 9000 0 0 0 0 3 5 0 0 0 FFTFFFFFFFFFFF9 1 82 1 1162 47 79 30 1179 LAST
_BODY_MODIFYING_FEATURE_ID80 2 1159 1180 1181 9000 0 0 0 0 3 5 0 0 0 FFTFFFFFFFF
FFT9 1 82 1 1160 103 79 19 1181 ENT_TIME_STAMP_200180 2 12 1182 1183 9000 0 0 0
 0 3 5 0 0 0 FFTFFFFFFFFFFF9 1 82 1 14 101 79 12 1183 ATOM_ID_20011 0 
