**ABCDEFGHIJKLMNOPQRSTUVWXYZabcdefghijklmnopqrstuvwxyz**************************
**PARASOLID !"#$%&'()*+,-./:;<=>?@[\]^_`{|}~0123456789**************************
**PART1;
MC=AMD64;
MC_MODEL=Intel64 Family 6 Model 142 Stepping 12, GenuineIntel;
MC_ID=unknown;
OS=Windows_NT;
OS_RELEASE=unknown;
FRU=Parasolid Version 33.1, build 247,  8- 6-2021;
APPL=SOLIDWORKS 2022-2022009;
SITE=;
USER=unknown;
FORMAT=text;
GUISE=transmit;
KEY=FILETop cover.x_t;
DATE=Thu Jun 15 05:53:55 2023;
**PART2;
SCH=SCH_3301247_33103;
USFLD_SIZE=0;
**PART3;
**END_OF_HEADER*****************************************************************
T51 : TRANSMIT FILE created by modeller version 330124723 SCH_3301247_33103_1300
6230 0 12 35 CCCI7 lattice222 0 CCCI4 mesh1006 0 I8 polyline1008 0 CCCCCCCDI5 ow
ner1040 0 CCCCCCI13 boundary_mesh1006 0 I17 boundary_polyline1008 0 CCCA16 index
_map_offset0 0 1 dA9 index_map82 0 A17 node_id_index_map82 0 A20 schema_embeddin
g_map82 0 A5 child12 0 A14 lowest_node_id0 0 1 dA16 mesh_offset_data206 0 Z1 148
2 2 3 0 0 0 0 0 0 0 1e3 1e-8 0 4 0 1 0 1 1 5 6 7 8 0 0 9 10 11 0 0 0 0 0 0 0 81
 255 2 2 1451 12 1 13 0 0 0 0 14 70 11 CI9 list_type0 0 1 uI10 notransmit0 0 1 l
CCCDCCDI12 finger_index0 0 1 dI12 finger_block1012 0 CZ3 0 4 T1 0 0 11 20 1 15 1
5 13 255 5 468 0 1 0 16 0 0 17 0 52 255 6 1132 18 19 20 0 0 --.037 .001499999999
999988 453119315684521e-32 0 1 0 .004 .707106781186548 .707106781186548 0 0 1 31
 255 7 1101 0 10 21 0 0 +-.037 .001499999999999988 453119315684521e-32 0 1 0 0 0
 1 .004 29 255 8 758 0 11 22 0 -.02657257279909 .0025 -.00350267925590136 19 8 C
CCCCCCA5 owner12 0 Z9 157 0 1 17 0 23 V0 16 255 10 1098 0 ?24 0 25 7 0 0 1 18 25
5 11 756 0 26 0 27 8 ?1 17 255 26 0 28 29 30 11 31 32 0 33 +18 27 753 0 34 11 35
 22 ?1 17 34 0 36 33 37 27 38 39 0 29 +18 35 750 0 40 27 41 42 ?1 29 22 755 0 27
 42 8 -.02657257279909 .0025 .00350267925590137 29 42 752 0 35 43 22 -.026572572
79909 -.0025 -.00350267925590136 29 43 749 0 41 44 42 -.02657257279909 -.0025 .0
0350267925590137 18 41 747 0 45 35 46 43 ?1 29 44 736 0 46 47 43 -.0221717805462
736 .0025 -.00896728205243284 18 46 734 0 48 41 49 44 ?1 29 47 733 0 49 50 44 -.
0235375378464249 .0025 -.00870414342503374 18 49 731 0 51 46 52 47 ?1 29 50 730
 0 52 53 47 -.0221717805462736 -.0025 -.00896728205243284 18 52 728 0 54 49 55 5
0 ?1 29 53 727 0 55 56 50 -.0235375378464249 -.0025 -.00870414342503374 18 55 72
5 0 57 52 58 53 ?1 29 56 714 0 58 59 53 -.01752138310051375 .0025 .0041232431707
3716 18 58 712 0 60 55 61 56 ?1 29 59 711 0 61 62 56 -.01752138310051375 .0025 -
.00412324317073715 18 61 709 0 63 58 64 59 ?1 29 62 708 0 64 65 59 -.01752138310
051375 -.0025 .00412324317073716 18 64 706 0 66 61 67 62 ?1 29 65 705 0 67 68 62
 -.01752138310051375 -.0025 -.00412324317073715 18 67 703 0 69 64 70 65 ?1 29 68
 692 0 70 71 65 -.0221717805462736 .0025 .00896728205243285 18 70 690 0 72 67 73
 68 ?1 29 71 689 0 73 74 68 -.0235375378464249 .0025 .00870414342503375 18 73 68
7 0 75 70 76 71 ?1 29 74 686 0 76 77 71 -.0221717805462736 -.0025 .0089672820524
3285 18 76 684 0 78 73 79 74 ?1 29 77 683 0 79 80 74 -.0235375378464249 -.0025 .
00870414342503375 18 79 681 0 81 76 82 77 ?1 29 80 670 0 82 83 77 .0221717805462
736 .0025 -.00896728205243284 18 82 668 0 84 79 85 80 ?1 29 83 667 0 85 86 80 .0
235375378464249 .0025 -.00870414342503374 18 85 665 0 87 82 88 83 ?1 29 86 664 0
 88 89 83 .0221717805462736 -.0025 -.00896728205243284 18 88 662 0 90 85 91 86 ?
1 29 89 661 0 91 92 86 .0235375378464249 -.0025 -.00870414342503374 18 91 659 0
 93 88 94 89 ?1 29 92 648 0 94 95 89 .02657257279909 .0025 -.00350267925590136 1
8 94 646 0 96 91 97 92 ?1 29 95 645 0 97 98 92 .02657257279909 .0025 .0035026792
5590137 18 97 643 0 99 94 100 95 ?1 29 98 642 0 100 101 95 .02657257279909 -.002
5 -.00350267925590136 18 100 640 0 102 97 103 98 ?1 29 101 639 0 103 104 98 .026
57257279909 -.0025 .00350267925590137 18 103 637 0 105 100 106 101 ?1 29 104 626
 0 106 107 101 .0221717805462736 .0025 .00896728205243285 18 106 624 0 108 103 1
09 104 ?1 29 107 623 0 109 110 104 .0235375378464249 .0025 .00870414342503375 18
 109 621 0 111 106 112 107 ?1 29 110 620 0 112 113 107 .0221717805462736 -.0025
 .00896728205243285 18 112 618 0 114 109 115 110 ?1 29 113 617 0 115 116 110 .02
35375378464249 -.0025 .00870414342503375 18 115 615 0 117 112 118 113 ?1 29 116
 602 0 118 119 113 .01752138310051375 .0025 .00412324317073716 18 118 600 0 120
 115 121 116 ?1 29 119 599 0 121 122 116 .01752138310051375 .0025 -.004123243170
73715 18 121 597 0 123 118 124 119 ?1 29 122 596 0 124 125 119 .0175213831005137
5 -.0025 .00412324317073716 18 124 594 0 126 121 127 122 ?1 29 125 593 0 127 128
 122 .01752138310051375 -.0025 -.00412324317073715 18 127 591 0 129 124 130 125
 ?1 29 128 357 0 131 132 125 .0390810810810811 -.0025 -.01080134720921266 18 131
 321 0 133 134 135 128 ?1 29 132 358 0 135 136 128 .0390810810810811 -.0025 .010
80134720921266 18 135 322 0 137 131 138 132 ?1 29 136 359 0 138 139 132 .0034054
05405405405 -.0025 .01767493179689345 18 138 323 0 140 135 141 136 ?1 29 139 360
 0 141 142 136 -.003405405405405405 -.0025 .01767493179689345 18 141 324 0 143 1
38 144 139 ?1 29 142 361 0 144 145 139 -.0390810810810811 -.0025 .01080134720921
266 18 144 325 0 146 141 147 142 ?1 29 145 362 0 147 148 142 -.0390810810810811
 -.0025 -.01080134720921266 18 147 326 0 149 144 150 145 ?1 29 148 363 0 150 151
 145 -.00340540540540541 -.0025 -.01767493179689345 18 150 327 0 152 147 153 148
 ?1 29 151 364 0 153 154 148 .00340540540540541 -.0025 -.01767493179689345 18 15
3 328 0 155 150 0 151 ?1 29 154 154 0 130 156 151 .0390810810810811 .0025 -.0108
0134720921266 18 130 152 0 157 127 158 154 ?1 29 156 151 0 158 159 154 .03908108
10810811 .0025 .01080134720921266 18 158 149 0 160 130 161 156 ?1 29 159 148 0 1
61 162 156 .003405405405405405 .0025 .01767493179689345 18 161 146 0 163 158 164
 159 ?1 29 162 145 0 164 165 159 -.003405405405405405 .0025 .01767493179689345 1
8 164 143 0 166 161 167 162 ?1 29 165 142 0 167 168 162 -.0390810810810811 .0025
 .01080134720921266 18 167 140 0 169 164 170 165 ?1 29 168 139 0 170 171 165 -.0
390810810810811 .0025 -.01080134720921266 18 170 137 0 172 167 173 168 ?1 29 171
 136 0 173 174 168 -.00340540540540541 .0025 -.01767493179689345 18 173 134 0 17
5 170 134 171 ?1 29 174 133 0 134 0 171 .00340540540540541 .0025 -.0176749317968
9345 18 134 131 0 176 173 131 174 ?1 17 176 0 177 178 179 134 175 180 0 181 -15
 255 177 401 0 182 183 0 17 178 0 177 182 176 153 184 185 0 186 +17 179 0 177 17
6 182 173 152 187 0 188 -17 175 0 189 190 181 173 176 180 0 179 +16 180 72 0 ?17
5 191 192 193 0 0 1 17 181 0 189 175 194 134 195 192 0 184 +15 189 10 0 181 196
 0 17 194 0 189 181 197 130 198 199 0 0 -17 195 0 200 133 184 130 181 192 0 194
 -16 192 67 0 ?181 180 201 202 0 0 1 17 184 0 200 195 186 134 178 185 0 0 -15 20
0 403 0 186 16 0 17 186 0 200 184 133 153 203 204 0 0 +16 185 380 0 ?178 205 187
 206 0 0 1 16 205 603 0 ?123 207 185 208 0 0 1 16 187 379 0 ?152 185 209 210 0 0
 1 30 255 206 459 0 185 210 208 0 +.00340540540540541 .0025 -.01767493179689345
 0 -1 0 30 210 458 0 187 211 206 0 +-.00340540540540541 .0025 -.0176749317968934
5 0 -1 0 30 208 605 0 205 206 212 0 -.01752138310051375 .0025 -.0041232431707371
5 0 -1 0 30 212 611 0 207 208 213 0 +.01752138310051375 .0025 .00412324317073716
 0 -1 0 16 207 609 0 ?214 215 205 212 0 0 1 30 213 629 0 215 212 216 0 +.0235375
378464249 .0025 .00870414342503375 0 -1 0 16 215 627 0 ?217 218 207 213 0 0 1 30
 216 634 0 218 213 219 0 -.0221717805462736 .0025 .00896728205243285 0 -1 0 16 2
18 632 0 ?108 220 215 216 0 0 1 30 219 651 0 220 216 221 0 +.02657257279909 .002
5 -.003502679255901365 0 -1 0 16 220 649 0 ?222 223 218 219 0 0 1 30 221 656 0 2
23 219 224 0 -.02657257279909 .0025 .00350267925590137 0 -1 0 16 223 654 0 ?99 2
25 220 221 0 0 1 30 224 673 0 225 221 226 0 -.0221717805462736 -.0025 -.00896728
205243284 0 1 0 16 225 671 0 ?227 228 223 224 0 0 1 30 226 678 0 228 224 229 0 +
.0235375378464249 .0025 -.00870414342503374 0 1 0 16 228 676 0 ?87 230 225 226 0
 0 1 30 229 695 0 230 226 231 0 --.0235375378464249 .0025 .00870414342503375 0 -
1 0 16 230 693 0 ?75 232 228 229 0 0 1 30 231 700 0 232 229 233 0 +-.02217178054
62736 .0025 .00896728205243285 0 -1 0 16 232 698 0 ?234 235 230 231 0 0 1 30 233
 717 0 235 231 236 0 +-.01752138310051375 .0025 -.00412324317073715 0 -1 0 16 23
5 715 0 ?237 238 232 233 0 0 1 30 236 722 0 238 233 239 0 --.01752138310051375 .
0025 .00412324317073716 0 -1 0 16 238 720 0 ?60 240 235 236 0 0 1 30 239 739 0 2
40 236 241 0 --.0235375378464249 -.0025 -.00870414342503374 0 1 0 16 240 737 0 ?
242 243 238 239 0 0 1 30 241 744 0 243 239 244 0 +-.0221717805462736 .0025 -.008
96728205243284 0 1 0 16 243 742 0 ?48 32 240 241 0 0 1 30 244 761 0 32 241 245 0
 --.02657257279909 .0025 -.003502679255901365 0 -1 0 16 32 759 0 ?26 246 243 244
 0 0 1 30 245 766 0 246 244 247 0 +-.02657257279909 .0025 .00350267925590137 0 -
1 0 16 246 764 0 ?248 249 32 245 0 0 1 31 247 833 0 249 245 250 0 +.021415023789
5168 -.0025 .00503951943090097 0 1 0 0 0 1 .004 16 249 769 0 ?114 251 246 247 0
 0 1 31 250 834 0 251 247 252 0 -.0214150237895168 .0025 .00503951943090097 0 1
 0 0 0 1 .004 16 251 773 0 ?120 253 249 250 0 0 1 31 252 835 0 253 250 254 0 +.0
2278078108966815 -.0025 .00477638080350187 0 1 0 0 0 1 .004 16 253 777 0 ?105 25
5 251 252 0 0 1 31 254 836 0 255 252 256 0 -.02278078108966815 .0025 .0047763808
0350187 0 1 0 0 0 1 .004 16 255 781 0 ?111 257 253 254 0 0 1 31 256 837 0 257 25
4 258 0 +.02278078108966815 -.0025 -.00477638080350186 0 1 0 0 0 1 .004 16 257 7
85 0 ?93 259 255 256 0 0 1 31 258 838 0 259 256 260 0 -.02278078108966815 .0025
 -.00477638080350186 0 1 0 0 0 1 .004 16 259 789 0 ?96 261 257 258 0 0 1 31 260
 839 0 261 258 262 0 +.02141502378951685 -.0025 -.00503951943090096 0 1 0 0 0 1
 .004 16 261 793 0 ?129 263 259 260 0 0 1 31 262 840 0 263 260 264 0 -.021415023
78951685 .0025 -.00503951943090096 0 1 0 0 0 1 .004 16 263 797 0 ?84 265 261 262
 0 0 1 31 264 841 0 265 262 266 0 +-.0214150237895168 -.0025 .00503951943090097
 0 1 0 0 0 1 .004 16 265 801 0 ?66 267 263 264 0 0 1 31 266 842 0 267 264 268 0
 --.0214150237895168 .0025 .00503951943090097 0 1 0 0 0 1 .004 16 267 805 0 ?72
 269 265 266 0 0 1 31 268 843 0 269 266 270 0 +-.02141502378951685 -.0025 -.0050
3951943090096 0 1 0 0 0 1 .004 16 269 809 0 ?54 271 267 268 0 0 1 31 270 844 0 2
71 268 272 0 --.02141502378951685 .0025 -.00503951943090096 0 1 0 0 0 1 .004 16
 271 813 0 ?63 273 269 270 0 0 1 31 272 845 0 273 270 274 0 +-.02278078108966815
 -.0025 .00477638080350187 0 1 0 0 0 1 .004 16 273 817 0 ?81 39 271 272 0 0 1 31
 274 846 0 39 272 275 0 --.02278078108966815 .0025 .00477638080350187 0 1 0 0 0
 1 .004 16 39 821 0 ?34 276 273 274 0 0 1 31 275 847 0 276 274 277 0 +-.02278078
108966815 -.0025 -.00477638080350186 0 1 0 0 0 1 .004 16 276 825 0 ?40 278 39 27
5 0 0 1 31 277 848 0 278 275 279 0 --.02278078108966815 .0025 -.0047763808035018
6 0 1 0 0 0 1 .004 16 278 829 0 ?51 280 276 277 0 0 1 31 279 1083 0 280 277 281
 0 --.037 .0025 453119315684521e-32 0 1 0 0 0 1 .005 16 280 1080 0 ?282 283 278
 279 0 0 1 31 281 1089 0 283 279 21 0 -.037 .0025 453119315684521e-32 0 1 0 0 0
 1 .005 16 283 1086 0 ?284 25 280 281 0 0 1 31 21 1095 0 25 281 7 0 +.037 .0015
 453119315684521e-32 0 1 0 0 0 1 .004 16 25 1092 0 ?285 10 283 21 0 0 1 17 285 0
 286 285 285 0 287 25 0 0 +15 286 1093 0 285 288 289 17 287 0 290 287 287 0 285
 25 0 0 -15 290 1112 0 287 291 292 14 255 291 1111 293 ?19 294 290 5 20 +0 0 19
 294 23 15 292 1113 0 295 291 0 17 295 0 292 295 295 0 284 283 0 0 -17 284 0 296
 284 284 0 295 283 0 0 +15 296 1087 0 284 196 297 14 196 1 298 ?299 300 296 5 30
1 +0 0 299 300 23 15 297 1081 0 282 196 302 17 282 0 297 282 282 0 303 280 0 0 +
15 302 7 0 304 196 36 17 304 0 302 304 304 0 305 306 0 0 -15 36 8 0 37 196 307 1
7 37 0 36 34 72 73 308 309 0 38 -15 307 9 0 310 196 189 17 310 0 307 84 120 121
 311 312 0 313 -17 84 0 307 314 310 82 313 263 0 315 +17 120 0 307 310 316 118 3
17 251 0 311 +17 311 0 318 214 123 118 310 312 0 319 +16 312 598 0 ?311 320 321
 322 0 0 1 17 313 0 323 324 325 121 84 263 0 0 -15 323 941 0 313 326 0 17 324 0
 323 90 313 127 123 205 0 0 -17 325 0 323 313 90 82 227 225 0 0 -17 90 0 323 325
 324 88 129 261 0 227 -17 227 0 327 328 315 88 325 225 0 329 +15 327 409 0 328 3
30 0 17 328 0 327 87 227 91 329 331 0 332 -17 315 0 327 227 87 82 314 320 0 325
 +17 329 0 333 129 93 88 328 331 0 0 +15 333 223 0 329 299 334 17 129 0 333 335
 329 127 90 261 0 336 +17 93 0 333 329 337 91 102 257 0 328 +16 331 660 0 ?329 3
38 339 340 0 0 1 16 338 638 0 ?337 341 331 342 0 0 1 16 339 592 0 ?335 331 343 3
44 0 0 1 30 340 348 0 331 344 342 0 +.00245945945945946 -.0025 -.012765228519978
6 -.98194065538297 0 -.1891891891891895 31 344 349 0 339 345 340 0 -0 -.0025 0 0
 1 0 0 0 1 .018 31 342 347 0 338 340 346 0 -.037 -.0025 453119315684521e-32 0 1
 0 0 0 1 .011 30 346 346 0 341 342 347 0 +.00245945945945946 -.0025 .01276522851
99786 -.98194065538297 0 .1891891891891895 16 341 616 0 ?348 204 338 346 0 0 1 3
0 347 345 0 204 346 349 0 +.00340540540540541 -.0025 -.01767493179689345 -.98194
065538297 0 -.1891891891891895 16 204 260 0 ?186 350 341 347 0 0 1 31 349 344 0
 350 347 351 0 +0 -.0025 0 0 1 0 0 0 1 .018 16 350 255 0 ?182 352 204 349 0 0 1
 30 351 343 0 352 349 353 0 +-.00340540540540541 -.0025 -.01767493179689345 .981
94065538297 0 -.1891891891891895 16 352 250 0 ?354 355 350 351 0 0 1 31 353 342
 0 355 351 356 0 +-.037 -.0025 453119315684521e-32 0 1 0 0 0 1 .011 16 355 245 0
 ?146 357 352 353 0 0 1 30 356 341 0 357 353 358 0 +-.003405405405405405 -.0025
 .01767493179689345 .98194065538297 0 .189189189189189 16 357 240 0 ?143 359 355
 356 0 0 1 31 358 340 0 359 356 360 0 +0 -.0025 0 0 1 0 0 0 1 .018 16 359 235 0
 ?361 362 357 358 0 0 1 30 360 339 0 362 358 363 0 +.003405405405405405 -.0025 .
01767493179689345 -.98194065538297 0 .189189189189189 16 362 230 0 ?364 365 359
 360 0 0 1 31 363 338 0 365 360 366 0 -.037 -.0025 453119315684521e-32 0 1 0 0 0
 1 .011 16 365 225 0 ?367 306 362 363 0 0 1 30 366 452 0 368 363 369 0 +.0390810
810810811 .0025 -.01080134720921266 0 -1 0 16 368 373 0 ?133 370 199 366 0 0 1 3
0 369 453 0 370 366 371 0 +.0390810810810811 .0025 .01080134720921266 0 -1 0 16
 370 374 0 ?137 372 368 369 0 0 1 30 371 454 0 372 369 373 0 +.00340540540540540
5 .0025 .01767493179689345 0 -1 0 16 372 375 0 ?140 374 370 371 0 0 1 30 373 455
 0 374 371 375 0 +-.003405405405405405 .0025 .01767493179689345 0 -1 0 16 374 37
6 0 ?376 377 372 373 0 0 1 30 375 456 0 377 373 211 0 +-.0390810810810811 .0025
 .01080134720921266 0 -1 0 16 377 377 0 ?378 209 374 375 0 0 1 30 211 457 0 209
 375 210 0 +-.0390810810810811 .0025 -.01080134720921266 0 -1 0 16 209 378 0 ?14
9 187 377 211 0 0 1 17 149 0 379 146 380 147 172 209 0 381 +15 379 397 0 146 382
 0 17 146 0 379 383 149 144 381 355 0 378 +17 380 0 379 149 383 170 169 384 0 19
0 -17 172 0 385 188 386 170 149 209 0 380 -17 381 0 334 354 387 147 146 355 0 38
6 -15 334 224 0 203 299 0 17 354 0 334 155 381 150 386 352 0 0 +17 387 0 334 381
 388 144 143 357 0 0 -17 386 0 385 172 152 147 354 352 0 0 -15 385 399 0 386 389
 0 17 152 0 385 386 188 150 179 187 0 182 +17 188 0 385 152 172 173 190 191 0 0
 +17 182 0 177 179 178 150 155 350 0 354 +17 155 0 334 203 354 153 182 350 0 178
 -17 203 0 334 367 155 131 186 204 0 390 -17 367 0 334 364 203 135 390 365 0 0 +
17 390 0 391 157 137 131 367 365 0 0 -15 391 389 0 390 300 0 17 157 0 391 198 39
0 130 133 368 0 195 -17 137 0 391 390 198 135 160 370 0 392 +17 198 0 391 137 15
7 158 194 199 0 0 +17 160 0 393 394 392 158 137 370 0 197 -17 392 0 393 160 140
 135 364 362 0 367 -15 393 391 0 392 395 0 17 140 0 393 392 394 138 396 372 0 36
1 +17 364 0 334 388 367 138 392 362 0 0 +17 388 0 334 387 364 141 361 359 0 0 -1
7 361 0 397 396 376 138 388 359 0 364 +15 397 393 0 361 398 0 17 396 0 397 399 3
61 161 140 372 0 394 -17 376 0 397 361 399 141 400 374 0 388 +17 399 0 397 376 3
96 164 163 401 0 0 -17 400 0 402 403 143 164 376 374 0 399 -15 402 395 0 143 404
 0 17 403 0 402 378 400 167 166 405 0 0 -17 143 0 402 400 378 141 387 357 0 376
 +17 378 0 402 143 403 144 383 377 0 387 +17 383 0 379 380 146 167 378 377 0 403
 -17 166 0 189 163 169 164 403 405 0 400 +16 405 87 0 ?166 401 384 406 0 0 1 16
 401 92 0 ?163 407 405 408 0 0 1 16 384 82 0 ?169 405 191 409 0 0 1 30 406 89 0
 405 409 408 0 +-.003405405405405405 .0025 .01767493179689345 .98194065538297 0
 .189189189189189 31 409 84 0 384 410 406 0 +-.037 .0025 453119315684521e-32 0 1
 0 0 0 1 .011 31 408 94 0 401 406 411 0 +0 .0025 0 0 1 0 0 0 1 .018 30 411 99 0
 407 408 412 0 +.003405405405405405 .0025 .01767493179689345 -.98194065538297 0
 .189189189189189 16 407 97 0 ?394 199 401 411 0 0 1 31 412 104 0 199 411 413 0
 -.037 .0025 453119315684521e-32 0 1 0 0 0 1 .011 16 199 102 0 ?198 368 407 412
 0 0 1 31 413 356 0 414 412 415 0 -.037 -.0025 453119315684521e-32 0 1 0 0 0 1 .
004 16 414 316 0 ?416 417 0 413 0 0 1 31 415 355 0 417 413 418 0 +-.037 -.0025 4
53119315684521e-32 0 1 0 0 0 1 .004 16 417 311 0 ?419 420 414 415 0 0 1 31 418 3
54 0 420 415 421 0 +0 -.0025 0 0 1 0 0 0 1 .012 16 420 306 0 ?422 423 417 418 0
 0 1 30 421 353 0 423 418 424 0 +-.00245945945945946 -.0025 .0127652285199786 .9
8194065538297 0 .1891891891891895 16 423 682 0 ?425 426 420 421 0 0 1 31 424 352
 0 426 421 427 0 +-.037 -.0025 453119315684521e-32 0 1 0 0 0 1 .011 16 426 748 0
 ?30 428 423 424 0 0 1 30 427 351 0 428 424 345 0 +-.00245945945945946 -.0025 -.
0127652285199786 .98194065538297 0 -.1891891891891895 16 428 726 0 ?429 343 426
 427 0 0 1 31 345 350 0 343 427 344 0 +0 -.0025 0 0 1 0 0 0 1 .018 16 343 704 0
 ?430 339 428 345 0 0 1 17 430 0 431 60 237 64 432 343 0 433 +15 431 413 0 430 4
34 0 17 60 0 431 435 430 58 433 238 0 436 +17 237 0 431 430 435 67 437 235 0 432
 +17 432 0 438 54 66 67 430 343 0 0 -17 433 0 439 78 440 64 60 238 0 0 -15 439 9
62 0 440 441 0 17 78 0 439 442 433 76 66 265 0 234 -17 440 0 439 433 442 58 72 2
67 0 0 -17 442 0 439 440 78 70 234 232 0 0 -17 72 0 36 37 436 70 440 267 0 308 +
17 436 0 36 72 63 58 435 321 0 440 +17 308 0 443 234 75 70 37 309 0 442 +15 443
 419 0 308 444 0 17 234 0 443 445 308 76 442 232 0 425 +17 75 0 443 308 445 73 4
46 230 0 37 +16 309 688 0 ?308 447 306 448 0 0 1 16 447 754 0 ?33 449 309 450 0
 0 1 16 306 21 0 ?305 309 365 451 0 0 1 30 448 28 0 309 451 450 0 +-.00245945945
945946 .0025 .0127652285199786 .98194065538297 0 .1891891891891895 31 451 23 0 3
06 0 448 0 +0 .0025 0 0 1 0 0 0 1 .012 31 450 33 0 447 448 452 0 +-.037 .0025 45
3119315684521e-32 0 1 0 0 0 1 .011 30 452 38 0 449 450 453 0 +-.0024594594594594
6 .0025 -.0127652285199786 .98194065538297 0 -.1891891891891895 16 449 732 0 ?45
4 321 447 452 0 0 1 31 453 43 0 321 452 322 0 +0 .0025 0 0 1 0 0 0 1 .018 16 321
 710 0 ?436 312 449 453 0 0 1 31 322 48 0 312 453 455 0 -0 .0025 0 0 1 0 0 0 1 .
018 30 455 54 0 320 322 456 0 +.00245945945945946 .0025 -.0127652285199786 -.981
94065538297 0 -.1891891891891895 16 320 666 0 ?315 457 312 455 0 0 1 31 456 59 0
 457 455 458 0 -.037 .0025 453119315684521e-32 0 1 0 0 0 1 .011 16 457 644 0 ?45
9 201 320 456 0 0 1 30 458 64 0 201 456 202 0 +.00245945945945946 .0025 .0127652
285199786 -.98194065538297 0 .1891891891891895 16 201 622 0 ?316 192 457 458 0 0
 1 30 202 69 0 192 458 193 0 +.00340540540540541 .0025 -.01767493179689345 -.981
94065538297 0 -.1891891891891895 31 193 74 0 180 202 410 0 +0 .0025 0 0 1 0 0 0
 1 .018 30 410 79 0 191 193 409 0 +-.00340540540540541 .0025 -.01767493179689345
 .98194065538297 0 -.1891891891891895 16 191 77 0 ?188 384 180 410 0 0 1 17 316
 0 307 120 111 106 460 201 0 317 +17 111 0 307 316 461 109 462 255 0 460 +17 460
 0 463 217 108 109 316 201 0 464 -17 317 0 465 466 319 106 120 251 0 0 -15 465 8
78 0 317 467 0 17 466 0 465 126 317 112 108 218 0 0 -17 319 0 465 317 126 118 21
4 207 0 0 -17 126 0 465 319 466 124 114 249 0 214 -17 214 0 318 336 311 124 319
 207 0 335 +15 318 411 0 311 468 0 17 336 0 318 123 214 127 335 339 0 324 -17 33
5 0 333 114 129 124 336 339 0 0 +17 114 0 333 469 335 112 126 249 0 348 +17 469
 0 333 105 114 115 348 341 0 0 -17 348 0 463 108 217 112 469 341 0 466 +15 463 4
05 0 348 470 0 17 108 0 463 460 348 106 466 218 0 316 +17 217 0 463 348 460 115
 464 215 0 469 +17 464 0 471 462 117 109 217 215 0 0 -15 471 899 0 462 472 0 17
 462 0 471 473 464 97 111 255 0 0 -17 117 0 471 464 473 115 105 253 0 217 -17 47
3 0 471 117 462 103 99 223 0 0 -17 105 0 333 337 469 103 117 253 0 474 +17 337 0
 333 93 105 100 474 338 0 0 +17 474 0 475 99 222 103 337 338 0 473 -15 475 407 0
 474 476 0 17 99 0 475 459 474 97 473 223 0 461 +17 222 0 475 474 459 100 477 22
0 0 337 +17 459 0 475 222 99 94 461 457 0 477 +17 477 0 478 479 102 94 222 220 0
 0 -15 478 920 0 479 480 0 17 479 0 478 332 477 85 96 259 0 0 -17 102 0 478 477
 332 100 93 257 0 222 -17 332 0 478 102 479 91 87 228 0 0 -17 87 0 327 315 328 8
5 332 228 0 314 +17 314 0 307 96 84 85 315 320 0 479 -17 96 0 307 461 314 94 479
 259 0 459 +17 461 0 307 111 96 97 459 457 0 462 -14 480 919 481 ?326 472 478 5
 482 -0 0 326 472 23 81 1 481 1454 483 480 484 0 298 485 486 14 326 940 485 ?441
 480 323 5 487 -0 0 441 480 23 14 472 898 488 ?480 467 471 5 489 -0 0 480 467 23
 51 255 482 931 0 480 489 487 0 +.02278078108966815 .0025 -.00477638080350186 0
 -1 0 .004 0 0 -1 13 23 158 0 0 0 0 0 0 9 16 14 16 404 490 ?183 0 200 5 491 -0 0
 183 0 23 81 1 490 1457 483 16 492 0 488 493 494 14 183 402 493 ?389 16 177 5 49
5 -0 0 389 16 23 50 255 491 440 0 16 495 496 0 +.00340540540540541 .0025 -.01767
493179689345 -.1891891891891895 0 .98194065538297 .98194065538297 0 .18918918918
91895 51 495 439 0 183 497 491 0 -0 .0025 0 0 -1 0 .018 0 0 -1 50 496 441 0 470
 491 498 0 +.00245945945945946 .0025 .0127652285199786 .1891891891891895 0 .9819
4065538297 .98194065538297 0 -.1891891891891895 14 470 406 499 ?434 500 463 5 49
6 -0 0 434 500 23 51 498 442 0 476 496 501 0 +.037 .0025 453119315684521e-32 0 -
1 0 .011 0 0 -1 14 476 408 502 ?444 330 475 5 498 +0 0 444 330 23 50 501 443 0 3
30 498 503 0 +.00245945945945946 .0025 -.0127652285199786 -.1891891891891895 0 .
98194065538297 .98194065538297 0 .1891891891891895 14 330 410 504 ?476 468 327 5
 501 +0 0 476 468 23 51 503 444 0 468 501 505 0 +0 .0025 0 0 -1 0 .018 0 0 -1 14
 468 412 506 ?330 395 318 5 503 +0 0 330 395 23 51 505 445 0 434 503 507 0 -0 .0
025 0 0 -1 0 .018 0 0 -1 14 434 414 508 ?509 470 431 5 505 -0 0 509 470 23 50 50
7 446 0 500 505 510 0 +-.00245945945945946 .0025 -.0127652285199786 -.1891891891
891895 0 -.98194065538297 -.98194065538297 0 .1891891891891895 14 500 416 511 ?4
70 512 513 5 507 -0 0 470 512 23 51 510 447 0 512 507 514 0 --.037 .0025 4531193
15684521e-32 0 -1 0 .011 0 0 -1 14 512 418 515 ?500 444 28 5 510 -0 0 500 444 23
 50 514 448 0 444 510 516 0 +-.00245945945945946 .0025 .0127652285199786 .189189
1891891895 0 -.98194065538297 -.98194065538297 0 -.1891891891891895 14 444 420 5
17 ?512 476 443 5 514 +0 0 512 476 23 51 516 449 0 509 514 518 0 -0 .0025 0 0 -1
 0 .012 0 0 -1 14 509 422 519 ?520 434 521 5 516 +0 0 520 434 23 51 518 450 0 52
0 516 522 0 --.037 .0025 453119315684521e-32 0 -1 0 .004 0 0 -1 14 520 426 523 ?
288 509 524 5 518 +0 0 288 509 23 51 522 451 0 288 518 525 0 +.037 .0025 4531193
15684521e-32 0 -1 0 .004 0 0 -1 14 288 430 526 ?300 520 286 5 522 -0 0 300 520 2
3 51 525 889 0 467 522 489 0 +.0214150237895168 .0025 .00503951943090097 0 -1 0
 .004 0 0 -1 14 467 877 527 ?472 299 465 5 525 -0 0 472 299 23 51 489 910 0 472
 525 482 0 +.02278078108966815 .0025 .00477638080350187 0 -1 0 .004 0 0 -1 81 1
 527 1470 483 467 528 0 526 529 530 14 299 217 529 ?467 196 531 5 532 -0 0 467 1
96 23 81 1 529 1471 483 299 533 0 527 534 535 15 531 219 0 536 299 537 50 532 33
7 0 299 301 538 0 +0 -.0025 0 0 1 0 0 0 1 50 301 3 0 196 0 532 0 +0 .0025 0 0 1
 0 0 0 1 51 538 433 0 300 532 539 0 +.037 .0025 453119315684521e-32 0 -1 0 .011
 0 0 -1 14 300 390 534 ?196 288 391 5 538 +0 0 196 288 23 50 539 434 0 395 538 5
40 0 +.003405405405405405 .0025 .01767493179689345 .189189189189189 0 .981940655
38297 .98194065538297 0 -.189189189189189 14 395 392 541 ?468 398 393 5 539 +0 0
 468 398 23 51 540 435 0 398 539 542 0 -0 .0025 0 0 -1 0 .018 0 0 -1 14 398 394
 543 ?395 404 397 5 540 -0 0 395 404 23 50 542 436 0 404 540 544 0 +-.0034054054
05405405 .0025 .01767493179689345 .189189189189189 0 -.98194065538297 -.98194065
538297 0 -.189189189189189 14 404 396 545 ?398 382 402 5 542 -0 0 398 382 23 51
 544 437 0 382 542 497 0 --.037 .0025 453119315684521e-32 0 -1 0 .011 0 0 -1 14
 382 398 546 ?404 389 379 5 544 -0 0 404 389 23 50 497 438 0 389 544 495 0 +-.00
340540540540541 .0025 -.01767493179689345 -.1891891891891895 0 -.98194065538297
 -.98194065538297 0 .1891891891891895 14 389 400 547 ?382 183 385 5 497 +0 0 382
 183 23 81 1 547 1477 483 389 548 0 546 549 550 80 255 1 483 551 552 9000 1 1 1
 1 1 1 1 1 0 FFFFTFTFFFFFFF1 81 1 548 1358 553 389 0 547 554 555 556 81 1 546 14
76 483 382 555 0 545 547 557 81 1 549 1478 483 19 558 0 547 559 560 82 255 1 550
 573898855 14 19 1125 549 ?0 291 561 5 6 +0 0 0 291 23 81 1 558 1386 553 19 0 54
9 562 0 563 81 1 559 1479 483 564 565 0 549 566 567 82 1 560 -1569652628 14 564
 982 559 ?568 441 569 5 570 -0 0 568 441 23 81 1 565 1382 553 564 0 559 571 572
 573 81 1 566 1480 483 568 572 0 559 574 575 82 1 567 2107441258 14 568 1003 566
 ?294 564 576 5 577 -0 0 294 564 23 81 1 572 1383 553 568 0 566 565 578 579 81 1
 574 1481 483 441 571 0 566 580 581 82 1 575 2109407338 14 441 961 574 ?564 326
 439 5 582 -0 0 564 326 23 81 1 571 1381 553 441 0 574 583 565 584 81 1 580 1482
 483 294 578 0 574 0 585 82 1 581 2105475178 14 294 1024 580 ?291 568 586 5 587
 -0 0 291 568 23 81 1 578 1384 553 294 0 580 572 562 588 82 1 585 2111373418 80
 1 553 0 589 8001 0 0 0 0 3 5 0 0 0 FFFFTFTFFFFFFF2 81 1 562 1385 553 291 0 293
 578 558 590 83 255 3 588 1 0 .501960784313726 81 1 293 1452 483 291 562 0 0 298
 591 83 3 590 1 0 .501960784313726 81 1 298 1453 483 196 592 0 293 481 593 82 1
 591 -1571028884 81 1 592 1375 553 196 0 298 594 533 595 82 1 593 542310508 81 1
 594 1374 553 300 0 534 596 592 597 81 1 533 1376 553 299 0 529 592 528 598 83 3
 595 1 0 .501960784313726 81 1 528 1377 553 467 0 527 533 599 600 83 3 598 1 0 .
501960784313726 81 1 599 1378 553 472 0 488 528 484 601 83 3 600 1 0 .5019607843
13726 81 1 488 1456 483 472 599 0 485 490 602 81 1 484 1379 553 480 0 481 599 58
3 603 83 3 601 1 0 .501960784313726 81 1 583 1380 553 326 0 485 484 571 604 83 3
 603 1 0 .501960784313726 81 1 485 1455 483 326 583 0 481 488 605 83 3 604 1 0 .
501960784313726 82 1 605 2103509098 82 1 602 2099576938 81 1 534 1472 483 300 59
4 0 529 541 606 81 1 596 1373 553 288 0 526 607 594 608 83 3 597 1 0 .5019607843
13726 81 1 526 1469 483 288 596 0 523 527 609 81 1 607 1372 553 520 0 523 610 59
6 611 83 3 608 1 0 .501960784313726 81 1 523 1468 483 520 607 0 519 526 612 81 1
 610 1371 553 509 0 519 613 607 614 83 3 611 1 0 .501960784313726 81 1 519 1467
 483 509 610 0 517 523 615 81 1 613 1370 553 434 0 508 616 610 617 83 3 614 1 0
 .501960784313726 81 1 508 1463 483 434 613 0 506 511 618 81 1 616 1369 553 470
 0 499 619 613 620 83 3 617 1 0 .501960784313726 81 1 499 1459 483 470 616 0 493
 502 621 81 1 619 1368 553 500 0 511 622 616 623 83 3 620 1 0 .501960784313726 8
1 1 511 1464 483 500 619 0 508 515 624 81 1 622 1367 553 512 0 515 625 619 626 8
3 3 623 1 0 .501960784313726 81 1 515 1465 483 512 622 0 511 517 627 81 1 625 13
66 553 444 0 517 628 622 629 83 3 626 1 0 .501960784313726 81 1 517 1466 483 444
 625 0 515 519 630 81 1 628 1365 553 476 0 502 631 625 632 83 3 629 1 0 .5019607
84313726 81 1 502 1460 483 476 628 0 499 504 633 81 1 631 1364 553 330 0 504 634
 628 635 83 3 632 1 0 .501960784313726 81 1 504 1461 483 330 631 0 502 506 636 8
1 1 634 1363 553 468 0 506 637 631 638 83 3 635 1 0 .501960784313726 81 1 506 14
62 483 468 634 0 504 508 639 81 1 637 1362 553 395 0 541 640 634 641 83 3 638 1
 0 .501960784313726 81 1 541 1473 483 395 637 0 534 543 642 81 1 640 1361 553 39
8 0 543 643 637 644 83 3 641 1 0 .501960784313726 81 1 543 1474 483 398 640 0 54
1 545 645 81 1 643 1360 553 404 0 545 555 640 646 83 3 644 1 0 .501960784313726
 81 1 545 1475 483 404 643 0 543 546 647 81 1 555 1359 553 382 0 546 548 643 648
 83 3 646 1 0 .501960784313726 83 3 648 1 0 .501960784313726 82 1 647 573374567
 82 1 645 573046887 82 1 642 572915815 82 1 639 575340650 82 1 636 575209578 82
 1 633 575012970 82 1 630 576323690 82 1 627 576061546 82 1 624 575799402 81 1 4
93 1458 483 183 554 0 490 499 649 82 1 621 574750826 81 1 554 1357 553 183 0 493
 492 548 650 82 1 649 574095463 81 1 492 1356 553 16 0 490 0 554 651 83 3 650 1
 0 .501960784313726 83 3 651 1 0 .501960784313726 82 1 618 575537258 82 1 615 57
6585831 82 1 612 576847980 82 1 609 577110124 82 1 606 572784743 79 255 15 589 S
DL/TYSA_COLOUR15 586 1025 0 652 294 0 51 587 1036 0 294 577 20 0 +-.022780781089
66815 .0025 -.00477638080350186 0 -1 0 .004 0 0 -1 51 577 1015 0 568 570 587 0 +
-.02278078108966815 .0025 .00477638080350187 0 -1 0 .004 0 0 -1 52 20 1118 653 2
91 587 6 0 -.037 .0025 453119315684521e-32 0 1 0 .005 .707106781186548 .70710678
1186548 0 0 1 81 2 653 1119 654 20 0 0 0 18 655 656 80 2 654 657 658 8044 0 0 0
 0 3 5 0 0 0 FFFFTFFFTTFFFF3 2 81 2 18 1133 654 6 0 0 653 0 659 660 84 255 6 655
 BAAAAB83 3 656 -.001 0 .001 84 6 659 BAAAAB83 3 660 0 .001000000000000012 .0010
00000000000012 79 17 658 SDL/TYSA_BLEND_ID51 570 994 0 564 582 577 0 +-.02141502
378951685 .0025 -.00503951943090096 0 -1 0 .004 0 0 -1 51 582 973 0 441 487 570
 0 +-.0214150237895168 .0025 .00503951943090097 0 -1 0 .004 0 0 -1 51 487 952 0
 326 482 582 0 +.02141502378951685 .0025 -.00503951943090096 0 -1 0 .004 0 0 -1
 17 652 0 586 31 661 11 51 278 0 0 -17 31 0 586 57 652 35 26 32 0 0 -17 661 0 58
6 652 57 49 242 240 0 0 -17 51 0 36 454 33 49 652 278 0 662 +17 454 0 36 63 51 4
6 662 449 0 663 +17 33 0 36 51 34 11 29 447 0 652 +17 662 0 513 242 48 49 454 44
9 0 661 -15 513 415 0 429 500 0 17 242 0 513 429 662 55 661 240 0 664 +17 48 0 5
13 662 429 46 665 243 0 454 +17 429 0 513 48 242 52 664 428 0 665 +17 665 0 569
 69 663 52 48 243 0 0 -15 569 983 0 663 564 0 17 69 0 569 437 665 67 54 269 0 23
7 -17 663 0 569 665 437 46 63 271 0 0 -17 437 0 569 663 69 61 237 235 0 0 -17 63
 0 36 436 454 61 663 271 0 435 +17 435 0 431 237 60 61 436 321 0 437 -17 54 0 43
8 664 432 52 69 269 0 429 +15 438 222 0 666 299 333 17 664 0 438 40 54 55 429 42
8 0 0 -17 40 0 438 666 664 35 57 276 0 30 +17 666 0 438 81 40 41 30 426 0 0 -17
 57 0 586 661 31 55 40 276 0 242 -17 30 0 28 26 248 35 666 426 0 31 +15 28 417 0
 29 512 0 17 248 0 28 30 29 41 667 246 0 666 +17 29 0 28 248 26 27 33 447 0 667
 -17 667 0 576 38 45 27 248 246 0 0 -15 576 1004 0 38 568 0 17 38 0 576 446 667
 73 34 39 0 0 -17 45 0 576 667 446 41 81 273 0 248 -17 446 0 576 45 38 79 75 230
 0 0 -17 81 0 438 425 666 79 45 273 0 445 +17 425 0 438 66 81 76 445 423 0 0 +17
 445 0 443 75 234 79 425 423 0 446 -17 66 0 438 432 425 64 78 265 0 430 +83 3 58
4 1 0 .501960784313726 83 3 579 1 0 .501960784313726 83 3 573 1 0 .5019607843137
26 83 3 563 1 0 .501960784313726 15 561 1126 0 303 19 668 17 303 0 561 303 303 0
 282 280 0 0 -15 668 1127 0 669 19 0 17 669 0 668 669 669 0 24 10 0 0 -17 24 0 5
24 24 24 0 669 10 0 0 +15 524 1099 0 24 520 670 15 670 427 0 671 520 0 17 671 0
 670 671 671 0 419 417 0 0 -17 419 0 537 419 419 0 671 417 0 0 +15 537 220 0 419
 299 672 15 672 221 0 422 299 438 17 422 0 672 422 422 0 673 420 0 0 +17 673 0 6
74 673 673 0 422 420 0 0 -15 674 423 0 673 509 0 82 1 557 573636711 83 3 556 1 0
 .501960784313726 79 14 552 SWEntUnchanged17 536 0 531 536 536 0 416 414 0 0 -17
 416 0 289 416 416 0 536 414 0 0 +15 289 431 0 416 288 0 82 1 535 567279722 82 1
 530 2097610858 15 521 421 0 305 509 674 17 305 0 521 305 305 0 304 306 0 0 +82
 1 494 574423143 82 1 486 2101543018 17 123 0 318 311 336 121 324 205 0 310 +17
 394 0 393 140 160 161 197 407 0 0 +17 197 0 189 194 163 158 394 407 0 198 -17 1
63 0 189 197 166 161 399 401 0 396 +17 169 0 189 166 190 167 380 384 0 383 +17 1
90 0 189 169 175 170 188 191 0 0 -17 133 0 200 186 195 131 157 368 0 203 +19 17
 469 0 1 0 9 5 S0 74 4 CI16 index_map_offset0 0 1 dCCZ20 15 11 0 0 675 676 677 5
80 18 678 679 680 13 558 2 0 0 0 0 0 0 0 0 0 81 2 675 155 681 1 0 676 0 0 0 682
 81 5 676 156 683 1 675 677 0 0 684 0 0 0 0 81 2 677 559 685 1 676 678 0 0 0 686
 81 1 678 1143 687 1 677 679 0 0 688 81 2 679 1176 689 1 678 680 0 0 690 0 81 2
 680 1319 691 1 679 13 0 0 0 692 81 2 13 1353 693 1 680 2 0 0 0 0 80 2 693 694 6
95 9000 0 0 0 0 3 5 0 0 0 FFTFFFFFFFFFFF9 1 79 16 695 BODY_RECIPE_200180 2 691 6
96 697 9000 0 0 0 0 3 5 0 0 0 FFTFFFFFFFFFFF9 1 82 1 692 1 79 24 697 BODY_IN_LIG
HTWEIGHT_PERM80 2 689 698 699 8004 0 0 0 0 3 5 0 0 0 FFTFFFFFFFFFFF2 3 83 1 690
 1 79 16 699 SDL/TYSA_DENSITY80 1 687 700 701 9000 1 1 1 1 1 1 1 1 0 FFTFFFFFFFF
FFF1 82 1 688 532561 79 10 701 BODY_MATCH80 2 685 702 703 9000 0 0 0 0 3 5 0 0 0
 FFTFFFFFFFFFFF9 1 82 1 686 52 79 30 703 LAST_BODY_MODIFYING_FEATURE_ID80 5 683
 704 705 9000 0 0 0 0 3 6 0 0 0 FFTTTTTTFTTFTT2 2 2 2 2 83 1 684 1 79 19 705 BOD
Y_SCALING_FACTOR80 2 681 706 707 9000 0 0 0 0 3 5 0 0 0 FFTFFFFFFFFFFT9 1 82 1 6
82 107 79 19 707 ENT_TIME_STAMP_200180 2 12 708 709 9000 0 0 0 0 3 5 0 0 0 FFTFF
FFFFFFFFF9 1 82 1 14 101 79 12 709 ATOM_ID_20011 0 
