**ABCDEFGHIJKLMNOPQRSTUVWXYZabcdefghijklmnopqrstuvwxyz**************************
**PARASOLID !"#$%&'()*+,-./:;<=>?@[\]^_`{|}~0123456789**************************
**PART1;
MC=AMD64;
MC_MODEL=Intel64 Family 6 Model 142 Stepping 12, GenuineIntel;
MC_ID=unknown;
OS=Windows_NT;
OS_RELEASE=unknown;
FRU=Parasolid Version 33.1, build 247,  8- 6-2021;
APPL=SOLIDWORKS 2022-2022009;
SITE=;
USER=unknown;
FORMAT=text;
GUISE=transmit;
KEY=FILETop seal.x_t;
DATE=Thu Jun 15 05:53:51 2023;
**PART2;
SCH=SCH_3301247_33103;
USFLD_SIZE=0;
**PART3;
**END_OF_HEADER*****************************************************************
T51 : TRANSMIT FILE created by modeller version 330124723 SCH_3301247_33103_1300
6230 0 12 35 CCCI7 lattice222 0 CCCI4 mesh1006 0 I8 polyline1008 0 CCCCCCCDI5 ow
ner1040 0 CCCCCCI13 boundary_mesh1006 0 I17 boundary_polyline1008 0 CCCA16 index
_map_offset0 0 1 dA9 index_map82 0 A17 node_id_index_map82 0 A20 schema_embeddin
g_map82 0 A5 child12 0 A14 lowest_node_id0 0 1 dA16 mesh_offset_data206 0 Z1 274
 2 3 0 0 0 0 0 0 0 1e3 1e-8 0 4 0 1 0 1 1 5 6 7 0 0 0 8 9 0 0 0 0 0 0 0 0 81 255
 2 2 267 10 1 11 0 0 0 0 12 70 11 CI9 list_type0 0 1 uI10 notransmit0 0 1 lCCCDC
CDI12 finger_index0 0 1 dI12 finger_block1012 0 CZ3 0 4 T1 0 0 10 20 1 13 13 13
 255 5 31 0 1 0 14 0 0 15 0 54 255 6 183 0 16 17 0 0 +0 .0045 0 0 1 0 .0125 5e-4
 0 0 1 31 255 7 153 0 9 18 0 0 +0 .005 0 0 1 0 0 0 1 .0125 19 8 CCCCCCCA5 owner1
2 0 Z8 9 0 1 15 0 19 V0 16 255 9 150 0 ?20 0 21 7 0 0 1 17 255 20 0 22 20 20 0 2
3 9 0 0 +16 21 144 0 ?24 9 25 18 0 0 1 17 24 0 26 24 24 0 27 21 0 0 +16 25 138 0
 ?28 21 29 30 0 0 1 31 18 147 0 21 30 7 0 -0 0 0 0 1 0 0 0 1 .0125 31 30 141 0 2
5 31 18 0 +0 5e-4 0 0 1 0 0 0 1 .013 31 31 135 0 29 32 30 0 -0 .0045 0 0 1 0 0 0
 1 .013 16 29 132 0 ?33 25 34 31 0 0 1 31 32 105 0 34 35 31 0 -0 .005 0 0 1 0 0
 0 1 .005 16 34 102 0 ?36 29 37 32 0 0 1 31 35 99 0 37 38 32 0 +0 .004 0 0 1 0 0
 0 1 .004 16 37 96 0 ?39 34 40 35 0 0 1 31 38 73 0 40 0 35 0 +0 0 0 0 1 0 0 0 1
 .004 16 40 51 0 ?41 37 0 38 0 0 1 17 41 0 42 41 41 0 43 40 0 0 +15 255 42 40 0
 41 44 0 17 43 0 45 43 43 0 41 40 0 0 -15 45 61 0 43 46 0 14 255 46 57 47 ?48 49
 50 5 51 +0 0 48 49 19 81 1 47 268 52 46 53 0 0 54 55 14 48 114 54 ?56 46 57 5 5
8 +0 0 56 46 19 14 49 27 59 ?46 44 60 5 61 -0 0 46 44 19 15 50 97 0 39 46 45 51
 255 51 70 0 46 0 62 0 -0 .005 0 0 -1 0 .004 0 0 -1 13 19 10 0 0 0 0 0 0 8 14 14
 14 48 63 ?44 0 22 5 62 +0 0 44 0 19 81 1 63 271 52 14 64 0 59 65 66 14 44 42 65
 ?49 14 26 5 67 -0 0 49 14 19 15 22 151 0 20 14 68 50 255 62 3 0 14 51 67 0 +0 .
005 0 0 1 0 0 0 1 50 67 24 0 44 62 61 0 +0 0 0 0 1 0 0 0 1 51 61 30 0 49 67 58 0
 -0 .005 0 0 -1 0 .013 0 0 -1 52 255 58 121 69 48 61 17 0 -0 .004 0 0 1 0 .004 .
707106781186549 .707106781186546 0 0 1 81 2 69 122 70 58 0 0 0 0 71 72 54 17 170
 0 56 58 6 0 +0 5e-4 0 0 1 0 .0125 5e-4 0 0 1 14 56 163 73 ?16 48 74 5 17 +0 0 1
6 48 19 81 1 73 273 52 56 75 0 65 76 77 14 16 176 76 ?0 56 78 5 6 +0 0 0 56 19 1
5 74 164 0 27 56 79 17 27 0 74 27 27 0 24 21 0 0 -15 79 165 0 80 56 0 17 80 0 79
 80 80 0 28 25 0 0 -17 28 0 60 28 28 0 80 25 0 0 +15 60 139 0 28 49 81 15 81 133
 0 33 49 0 17 33 0 81 33 33 0 82 29 0 0 +17 82 0 78 82 82 0 33 29 0 0 -15 78 177
 0 82 16 83 15 83 178 0 23 16 0 17 23 0 83 23 23 0 20 9 0 0 -81 1 76 274 52 16 8
4 0 73 0 85 80 255 1 52 86 87 9000 1 1 1 1 1 1 1 1 0 FFFFTFTFFFFFFF1 81 1 84 251
 88 16 0 76 75 0 89 82 255 1 85 -1628045203 80 1 88 0 90 8001 0 0 0 0 3 5 0 0 0
 FFFFTFTFFFFFFF2 81 1 75 250 88 56 0 73 91 84 92 83 255 3 89 1 1 0 81 1 91 249 8
8 48 0 54 53 75 93 83 3 92 1 1 0 81 1 54 269 52 48 91 0 47 59 94 81 1 53 248 88
 46 0 47 95 91 96 83 3 93 1 1 0 81 1 95 247 88 49 0 59 97 53 98 83 3 96 1 1 0 81
 1 59 270 52 49 95 0 54 63 99 81 1 97 246 88 44 0 65 64 95 100 83 3 98 1 1 0 81
 1 65 272 52 44 97 0 63 73 101 81 1 64 245 88 14 0 63 0 97 102 83 3 100 1 1 0 83
 3 102 1 1 0 82 1 101 1457389677 82 1 99 1451556973 82 1 94 2134048875 79 255 15
 90 SDL/TYSA_COLOUR79 14 87 SWEntUnchanged82 1 77 -1629290387 80 2 70 103 104 80
44 0 0 0 0 3 5 0 0 0 FFFFTFFFTTFFFF3 2 84 255 6 71 BAAAAB83 3 72 0 .001 .001 79
 17 104 SDL/TYSA_BLEND_ID15 68 103 0 36 14 0 17 36 0 68 36 36 0 105 34 0 0 +17 1
05 0 57 105 105 0 36 34 0 0 -15 57 115 0 105 48 106 15 106 116 0 107 48 0 17 107
 0 106 107 107 0 39 37 0 0 -17 39 0 50 39 39 0 107 37 0 0 +15 26 145 0 24 44 42
 82 1 66 1457913965 82 1 55 1455685739 19 15 32 0 1 0 8 5 S0 74 4 CI16 index_map
_offset0 0 1 dCCZ20 13 10 0 0 108 109 76 69 110 111 112 11 84 2 0 0 0 0 0 0 0 0
 0 0 81 2 108 37 113 1 0 109 0 0 0 114 81 2 109 88 115 1 108 110 0 0 0 116 81 1
 110 193 117 1 109 111 0 0 118 81 2 111 202 119 1 110 112 0 0 120 0 81 2 112 224
 121 1 111 11 0 0 0 122 81 2 11 242 123 1 112 2 0 0 0 0 80 2 123 124 125 9000 0
 0 0 0 3 5 0 0 0 FFTFFFFFFFFFFF9 1 79 16 125 BODY_RECIPE_200180 2 121 126 127 90
00 0 0 0 0 3 5 0 0 0 FFTFFFFFFFFFFF9 1 82 1 122 1 79 24 127 BODY_IN_LIGHTWEIGHT_
PERM80 2 119 128 129 8004 0 0 0 0 3 5 0 0 0 FFTFFFFFFFFFFF2 3 83 1 120 1 79 16 1
29 SDL/TYSA_DENSITY80 1 117 130 131 9000 1 1 1 1 1 1 1 1 0 FFTFFFFFFFFFFF1 82 1
 118 22117 79 10 131 BODY_MATCH80 2 115 132 133 9000 0 0 0 0 3 5 0 0 0 FFTFFFFFF
FFFFF9 1 82 1 116 42 79 30 133 LAST_BODY_MODIFYING_FEATURE_ID80 2 113 134 135 90
00 0 0 0 0 3 5 0 0 0 FFTFFFFFFFFFFT9 1 82 1 114 107 79 19 135 ENT_TIME_STAMP_200
180 2 10 136 137 9000 0 0 0 0 3 5 0 0 0 FFTFFFFFFFFFFF9 1 82 1 12 101 79 12 137
 ATOM_ID_20011 0 
