**ABCDEFGHIJKLMNOPQRSTUVWXYZabcdefghijklmnopqrstuvwxyz**************************
**PARASOLID !"#$%&'()*+,-./:;<=>?@[\]^_`{|}~0123456789**************************
**PART1;
MC=AMD64;
MC_MODEL=Intel64 Family 6 Model 142 Stepping 12, GenuineIntel;
MC_ID=unknown;
OS=Windows_NT;
OS_RELEASE=unknown;
FRU=Parasolid Version 33.1, build 247,  8- 6-2021;
APPL=SOLIDWORKS 2022-2022009;
SITE=;
USER=unknown;
FORMAT=text;
GUISE=transmit;
KEY=FILETop cover 2003091.x_t;
DATE=Tue Jun 13 19:10:38 2023;
**PART2;
SCH=SCH_3301247_33103;
USFLD_SIZE=0;
**PART3;
**END_OF_HEADER*****************************************************************
T51 : TRANSMIT FILE created by modeller version 330124723 SCH_3301247_33103_1300
6230 0 12 35 CCCI7 lattice222 0 CCCI4 mesh1006 0 I8 polyline1008 0 CCCCCCCDI5 ow
ner1040 0 CCCCCCI13 boundary_mesh1006 0 I17 boundary_polyline1008 0 CCCA16 index
_map_offset0 0 1 dA9 index_map82 0 A17 node_id_index_map82 0 A20 schema_embeddin
g_map82 0 A5 child12 0 A14 lowest_node_id0 0 1 dA16 mesh_offset_data206 0 Z1 199
7 2 3 0 0 0 0 0 0 0 1e3 1e-8 0 4 0 1 0 1 1 5 6 7 8 0 0 9 10 11 0 0 0 0 0 0 0 81
 255 2 2 1966 12 1 13 0 0 0 0 14 70 11 CI9 list_type0 0 1 uI10 notransmit0 0 1 l
CCCDCCDI12 finger_index0 0 1 dI12 finger_block1012 0 CZ3 0 4 T1 0 0 13 20 1 15 1
5 13 255 5 468 0 1 0 16 0 0 17 0 52 255 6 1132 18 19 20 0 0 --.037 .001499999999
999988 453119315684521e-32 0 1 0 .004 .707106781186548 .707106781186548 0 0 1 31
 255 7 1101 0 10 21 0 0 +-.037 .001499999999999988 453119315684521e-32 0 1 0 0 0
 1 .004 29 255 8 758 0 11 22 0 -.02657257279909 .0025 -.00350267925590136 19 8 C
CCCCCCA5 owner12 0 Z9 157 0 1 17 0 23 V0 16 255 10 1098 24 ?25 0 26 7 0 0 1 18 2
55 11 756 0 27 0 28 8 ?1 17 255 27 0 29 30 31 11 32 33 0 34 +18 28 753 0 35 11 3
6 22 ?1 17 35 0 37 34 38 28 39 40 0 30 +18 36 750 0 41 28 42 43 ?1 29 22 755 0 2
8 43 8 -.02657257279909 .0025 .00350267925590137 29 43 752 0 36 44 22 -.02657257
279909 -.0025 -.00350267925590136 29 44 749 0 42 45 43 -.02657257279909 -.0025 .
00350267925590137 18 42 747 0 46 36 47 44 ?1 29 45 736 0 47 48 44 -.022171780546
2736 .0025 -.00896728205243284 18 47 734 0 49 42 50 45 ?1 29 48 733 0 50 51 45 -
.0235375378464249 .0025 -.00870414342503374 18 50 731 0 52 47 53 48 ?1 29 51 730
 0 53 54 48 -.0221717805462736 -.0025 -.00896728205243284 18 53 728 0 55 50 56 5
1 ?1 29 54 727 0 56 57 51 -.0235375378464249 -.0025 -.00870414342503374 18 56 72
5 0 58 53 59 54 ?1 29 57 714 0 59 60 54 -.01752138310051375 .0025 .0041232431707
3716 18 59 712 0 61 56 62 57 ?1 29 60 711 0 62 63 57 -.01752138310051375 .0025 -
.00412324317073715 18 62 709 0 64 59 65 60 ?1 29 63 708 0 65 66 60 -.01752138310
051375 -.0025 .00412324317073716 18 65 706 0 67 62 68 63 ?1 29 66 705 0 68 69 63
 -.01752138310051375 -.0025 -.00412324317073715 18 68 703 0 70 65 71 66 ?1 29 69
 692 0 71 72 66 -.0221717805462736 .0025 .00896728205243285 18 71 690 0 73 68 74
 69 ?1 29 72 689 0 74 75 69 -.0235375378464249 .0025 .00870414342503375 18 74 68
7 0 76 71 77 72 ?1 29 75 686 0 77 78 72 -.0221717805462736 -.0025 .0089672820524
3285 18 77 684 0 79 74 80 75 ?1 29 78 683 0 80 81 75 -.0235375378464249 -.0025 .
00870414342503375 18 80 681 0 82 77 83 78 ?1 29 81 670 0 83 84 78 .0221717805462
736 .0025 -.00896728205243284 18 83 668 0 85 80 86 81 ?1 29 84 667 0 86 87 81 .0
235375378464249 .0025 -.00870414342503374 18 86 665 0 88 83 89 84 ?1 29 87 664 0
 89 90 84 .0221717805462736 -.0025 -.00896728205243284 18 89 662 0 91 86 92 87 ?
1 29 90 661 0 92 93 87 .0235375378464249 -.0025 -.00870414342503374 18 92 659 0
 94 89 95 90 ?1 29 93 648 0 95 96 90 .02657257279909 .0025 -.00350267925590136 1
8 95 646 0 97 92 98 93 ?1 29 96 645 0 98 99 93 .02657257279909 .0025 .0035026792
5590137 18 98 643 0 100 95 101 96 ?1 29 99 642 0 101 102 96 .02657257279909 -.00
25 -.00350267925590136 18 101 640 0 103 98 104 99 ?1 29 102 639 0 104 105 99 .02
657257279909 -.0025 .00350267925590137 18 104 637 0 106 101 107 102 ?1 29 105 62
6 0 107 108 102 .0221717805462736 .0025 .00896728205243285 18 107 624 0 109 104
 110 105 ?1 29 108 623 0 110 111 105 .0235375378464249 .0025 .00870414342503375
 18 110 621 0 112 107 113 108 ?1 29 111 620 0 113 114 108 .0221717805462736 -.00
25 .00896728205243285 18 113 618 0 115 110 116 111 ?1 29 114 617 0 116 117 111 .
0235375378464249 -.0025 .00870414342503375 18 116 615 0 118 113 119 114 ?1 29 11
7 602 0 119 120 114 .01752138310051375 .0025 .00412324317073716 18 119 600 0 121
 116 122 117 ?1 29 120 599 0 122 123 117 .01752138310051375 .0025 -.004123243170
73715 18 122 597 0 124 119 125 120 ?1 29 123 596 0 125 126 120 .0175213831005137
5 -.0025 .00412324317073716 18 125 594 0 127 122 128 123 ?1 29 126 593 0 128 129
 123 .01752138310051375 -.0025 -.00412324317073715 18 128 591 0 130 125 131 126
 ?1 29 129 357 0 132 133 126 .0390810810810811 -.0025 -.01080134720921266 18 132
 321 0 134 135 136 129 ?1 29 133 358 0 136 137 129 .0390810810810811 -.0025 .010
80134720921266 18 136 322 0 138 132 139 133 ?1 29 137 359 0 139 140 133 .0034054
05405405405 -.0025 .01767493179689345 18 139 323 0 141 136 142 137 ?1 29 140 360
 0 142 143 137 -.003405405405405405 -.0025 .01767493179689345 18 142 324 0 144 1
39 145 140 ?1 29 143 361 0 145 146 140 -.0390810810810811 -.0025 .01080134720921
266 18 145 325 0 147 142 148 143 ?1 29 146 362 0 148 149 143 -.0390810810810811
 -.0025 -.01080134720921266 18 148 326 0 150 145 151 146 ?1 29 149 363 0 151 152
 146 -.00340540540540541 -.0025 -.01767493179689345 18 151 327 0 153 148 154 149
 ?1 29 152 364 0 154 155 149 .00340540540540541 -.0025 -.01767493179689345 18 15
4 328 0 156 151 0 152 ?1 29 155 154 0 131 157 152 .0390810810810811 .0025 -.0108
0134720921266 18 131 152 0 158 128 159 155 ?1 29 157 151 0 159 160 155 .03908108
10810811 .0025 .01080134720921266 18 159 149 0 161 131 162 157 ?1 29 160 148 0 1
62 163 157 .003405405405405405 .0025 .01767493179689345 18 162 146 0 164 159 165
 160 ?1 29 163 145 0 165 166 160 -.003405405405405405 .0025 .01767493179689345 1
8 165 143 0 167 162 168 163 ?1 29 166 142 0 168 169 163 -.0390810810810811 .0025
 .01080134720921266 18 168 140 0 170 165 171 166 ?1 29 169 139 0 171 172 166 -.0
390810810810811 .0025 -.01080134720921266 18 171 137 0 173 168 174 169 ?1 29 172
 136 0 174 175 169 -.00340540540540541 .0025 -.01767493179689345 18 174 134 0 17
6 171 135 172 ?1 29 175 133 0 135 0 172 .00340540540540541 .0025 -.0176749317968
9345 18 135 131 0 177 174 132 175 ?1 17 177 0 178 179 180 135 176 181 0 182 -15
 255 178 401 0 183 184 0 17 179 0 178 183 177 154 185 186 0 187 +17 180 0 178 17
7 183 174 153 188 0 189 -17 176 0 190 191 182 174 177 181 0 180 +16 181 72 192 ?
176 193 194 195 0 0 1 17 182 0 190 176 196 135 197 194 0 185 +15 190 10 0 182 19
8 0 17 196 0 190 182 199 131 200 201 0 0 -17 197 0 202 134 185 131 182 194 0 196
 -16 194 67 203 ?182 181 204 205 0 0 1 17 185 0 202 197 187 135 179 186 0 0 -15
 202 403 0 187 16 0 17 187 0 202 185 134 154 206 207 0 0 +16 186 380 208 ?179 20
9 188 210 0 0 1 81 2 208 1856 211 186 0 0 212 213 0 0 16 209 603 214 ?124 215 18
6 216 0 0 1 16 188 379 217 ?153 186 218 219 0 0 1 30 255 210 459 0 186 219 216 0
 +.00340540540540541 .0025 -.01767493179689345 0 -1 0 30 219 458 0 188 220 210 0
 +-.00340540540540541 .0025 -.01767493179689345 0 -1 0 30 216 605 0 209 210 221
 0 -.01752138310051375 .0025 -.00412324317073715 0 -1 0 30 221 611 0 215 216 222
 0 +.01752138310051375 .0025 .00412324317073716 0 -1 0 16 215 609 223 ?224 225 2
09 221 0 0 1 30 222 629 0 225 221 226 0 +.0235375378464249 .0025 .00870414342503
375 0 -1 0 16 225 627 227 ?228 229 215 222 0 0 1 30 226 634 0 229 222 230 0 -.02
21717805462736 .0025 .00896728205243285 0 -1 0 16 229 632 231 ?109 232 225 226 0
 0 1 30 230 651 0 232 226 233 0 +.02657257279909 .0025 -.003502679255901365 0 -1
 0 16 232 649 234 ?235 236 229 230 0 0 1 30 233 656 0 236 230 237 0 -.0265725727
9909 .0025 .00350267925590137 0 -1 0 16 236 654 238 ?100 239 232 233 0 0 1 30 23
7 673 0 239 233 240 0 -.0221717805462736 -.0025 -.00896728205243284 0 1 0 16 239
 671 241 ?242 243 236 237 0 0 1 30 240 678 0 243 237 244 0 +.0235375378464249 .0
025 -.00870414342503374 0 1 0 16 243 676 245 ?88 246 239 240 0 0 1 30 244 695 0
 246 240 247 0 --.0235375378464249 .0025 .00870414342503375 0 -1 0 16 246 693 24
8 ?76 249 243 244 0 0 1 30 247 700 0 249 244 250 0 +-.0221717805462736 .0025 .00
896728205243285 0 -1 0 16 249 698 251 ?252 253 246 247 0 0 1 30 250 717 0 253 24
7 254 0 +-.01752138310051375 .0025 -.00412324317073715 0 -1 0 16 253 715 255 ?25
6 257 249 250 0 0 1 30 254 722 0 257 250 258 0 --.01752138310051375 .0025 .00412
324317073716 0 -1 0 16 257 720 259 ?61 260 253 254 0 0 1 30 258 739 0 260 254 26
1 0 --.0235375378464249 -.0025 -.00870414342503374 0 1 0 16 260 737 262 ?263 264
 257 258 0 0 1 30 261 744 0 264 258 265 0 +-.0221717805462736 .0025 -.0089672820
5243284 0 1 0 16 264 742 266 ?49 33 260 261 0 0 1 30 265 761 0 33 261 267 0 --.0
2657257279909 .0025 -.003502679255901365 0 -1 0 16 33 759 268 ?27 269 264 265 0
 0 1 30 267 766 0 269 265 270 0 +-.02657257279909 .0025 .00350267925590137 0 -1
 0 16 269 764 271 ?272 273 33 267 0 0 1 31 270 833 0 273 267 274 0 +.02141502378
95168 -.0025 .00503951943090097 0 1 0 0 0 1 .004 16 273 769 275 ?115 276 269 270
 0 0 1 31 274 834 0 276 270 277 0 -.0214150237895168 .0025 .00503951943090097 0
 1 0 0 0 1 .004 16 276 773 278 ?121 279 273 274 0 0 1 31 277 835 0 279 274 280 0
 +.02278078108966815 -.0025 .00477638080350187 0 1 0 0 0 1 .004 16 279 777 281 ?
106 282 276 277 0 0 1 31 280 836 0 282 277 283 0 -.02278078108966815 .0025 .0047
7638080350187 0 1 0 0 0 1 .004 16 282 781 284 ?112 285 279 280 0 0 1 31 283 837
 0 285 280 286 0 +.02278078108966815 -.0025 -.00477638080350186 0 1 0 0 0 1 .004
 16 285 785 213 ?94 287 282 283 0 0 1 31 286 838 0 287 283 288 0 -.0227807810896
6815 .0025 -.00477638080350186 0 1 0 0 0 1 .004 16 287 789 289 ?97 290 285 286 0
 0 1 31 288 839 0 290 286 291 0 +.02141502378951685 -.0025 -.00503951943090096 0
 1 0 0 0 1 .004 16 290 793 292 ?130 293 287 288 0 0 1 31 291 840 0 293 288 294 0
 -.02141502378951685 .0025 -.00503951943090096 0 1 0 0 0 1 .004 16 293 797 295 ?
85 296 290 291 0 0 1 31 294 841 0 296 291 297 0 +-.0214150237895168 -.0025 .0050
3951943090097 0 1 0 0 0 1 .004 16 296 801 298 ?67 299 293 294 0 0 1 31 297 842 0
 299 294 300 0 --.0214150237895168 .0025 .00503951943090097 0 1 0 0 0 1 .004 16
 299 805 301 ?73 302 296 297 0 0 1 31 300 843 0 302 297 303 0 +-.021415023789516
85 -.0025 -.00503951943090096 0 1 0 0 0 1 .004 16 302 809 304 ?55 305 299 300 0
 0 1 31 303 844 0 305 300 306 0 --.02141502378951685 .0025 -.00503951943090096 0
 1 0 0 0 1 .004 16 305 813 307 ?64 308 302 303 0 0 1 31 306 845 0 308 303 309 0
 +-.02278078108966815 -.0025 .00477638080350187 0 1 0 0 0 1 .004 16 308 817 310
 ?82 40 305 306 0 0 1 31 309 846 0 40 306 311 0 --.02278078108966815 .0025 .0047
7638080350187 0 1 0 0 0 1 .004 16 40 821 312 ?35 313 308 309 0 0 1 31 311 847 0
 313 309 314 0 +-.02278078108966815 -.0025 -.00477638080350186 0 1 0 0 0 1 .004
 16 313 825 315 ?41 316 40 311 0 0 1 31 314 848 0 316 311 317 0 --.0227807810896
6815 .0025 -.00477638080350186 0 1 0 0 0 1 .004 16 316 829 318 ?52 319 313 314 0
 0 1 31 317 1083 0 319 314 320 0 --.037 .0025 453119315684521e-32 0 1 0 0 0 1 .0
05 16 319 1080 321 ?322 323 316 317 0 0 1 31 320 1089 0 323 317 21 0 -.037 .0025
 453119315684521e-32 0 1 0 0 0 1 .005 16 323 1086 324 ?325 26 319 320 0 0 1 31 2
1 1095 0 26 320 7 0 +.037 .0015 453119315684521e-32 0 1 0 0 0 1 .004 16 26 1092
 326 ?327 10 323 21 0 0 1 81 2 326 1798 211 26 0 0 321 328 0 0 17 327 0 329 327
 327 0 330 26 0 0 +15 329 1093 0 327 331 332 17 330 0 333 330 330 0 327 26 0 0 -
15 333 1112 0 330 334 335 14 255 334 1111 336 ?19 337 333 5 20 +0 0 19 337 23 15
 335 1113 0 338 334 0 17 338 0 335 338 338 0 325 323 0 0 -17 325 0 339 325 325 0
 338 323 0 0 +15 339 1087 0 325 198 340 14 198 1 341 ?342 343 339 5 344 +0 0 342
 343 23 15 340 1081 0 322 198 345 17 322 0 340 322 322 0 346 319 0 0 +15 345 7 0
 347 198 37 17 347 0 345 347 347 0 348 349 0 0 -15 37 8 0 38 198 350 17 38 0 37
 35 73 74 351 352 0 39 -15 350 9 0 353 198 190 17 353 0 350 85 121 122 354 355 0
 356 -17 85 0 350 357 353 83 356 293 0 358 +17 121 0 350 353 359 119 360 276 0 3
54 +17 354 0 361 224 124 119 353 355 0 362 +16 355 598 363 ?354 364 365 366 0 0
 1 17 356 0 367 368 369 122 85 293 0 0 -15 367 941 0 356 370 0 17 368 0 367 91 3
56 128 124 209 0 0 -17 369 0 367 356 91 83 242 239 0 0 -17 91 0 367 369 368 89 1
30 290 0 242 -17 242 0 371 372 358 89 369 239 0 373 +15 371 409 0 372 374 0 17 3
72 0 371 88 242 92 373 375 0 376 -17 358 0 371 242 88 83 357 364 0 369 +17 373 0
 377 130 94 89 372 375 0 0 +15 377 223 0 373 342 378 17 130 0 377 379 373 128 91
 290 0 380 +17 94 0 377 373 381 92 103 285 0 372 +16 375 660 382 ?373 383 384 38
5 0 0 1 81 2 382 1820 211 375 0 0 386 387 0 0 16 383 638 388 ?381 389 375 390 0
 0 1 16 384 592 212 ?379 375 391 392 0 0 1 30 385 348 0 375 392 390 0 +.00245945
945945946 -.0025 -.0127652285199786 -.98194065538297 0 -.1891891891891895 31 392
 349 0 384 393 385 0 -0 -.0025 0 0 1 0 0 0 1 .018 31 390 347 0 383 385 394 0 -.0
37 -.0025 453119315684521e-32 0 1 0 0 0 1 .011 30 394 346 0 389 390 395 0 +.0024
5945945945946 -.0025 .0127652285199786 -.98194065538297 0 .1891891891891895 16 3
89 616 328 ?396 207 383 394 0 0 1 30 395 345 0 207 394 397 0 +.00340540540540541
 -.0025 -.01767493179689345 -.98194065538297 0 -.1891891891891895 16 207 260 398
 ?187 399 389 395 0 0 1 31 397 344 0 399 395 400 0 +0 -.0025 0 0 1 0 0 0 1 .018
 16 399 255 401 ?183 402 207 397 0 0 1 30 400 343 0 402 397 403 0 +-.00340540540
540541 -.0025 -.01767493179689345 .98194065538297 0 -.1891891891891895 16 402 25
0 404 ?405 406 399 400 0 0 1 31 403 342 0 406 400 407 0 +-.037 -.0025 4531193156
84521e-32 0 1 0 0 0 1 .011 16 406 245 408 ?147 409 402 403 0 0 1 30 407 341 0 40
9 403 410 0 +-.003405405405405405 -.0025 .01767493179689345 .98194065538297 0 .1
89189189189189 16 409 240 411 ?144 412 406 407 0 0 1 31 410 340 0 412 407 413 0
 +0 -.0025 0 0 1 0 0 0 1 .018 16 412 235 414 ?415 416 409 410 0 0 1 30 413 339 0
 416 410 417 0 +.003405405405405405 -.0025 .01767493179689345 -.98194065538297 0
 .189189189189189 16 416 230 418 ?419 420 412 413 0 0 1 31 417 338 0 420 413 421
 0 -.037 -.0025 453119315684521e-32 0 1 0 0 0 1 .011 16 420 225 422 ?423 349 416
 417 0 0 1 30 421 452 0 424 417 425 0 +.0390810810810811 .0025 -.010801347209212
66 0 -1 0 16 424 373 426 ?134 427 201 421 0 0 1 30 425 453 0 427 421 428 0 +.039
0810810810811 .0025 .01080134720921266 0 -1 0 16 427 374 429 ?138 430 424 425 0
 0 1 30 428 454 0 430 425 431 0 +.003405405405405405 .0025 .01767493179689345 0
 -1 0 16 430 375 432 ?141 433 427 428 0 0 1 30 431 455 0 433 428 434 0 +-.003405
405405405405 .0025 .01767493179689345 0 -1 0 16 433 376 435 ?436 437 430 431 0 0
 1 30 434 456 0 437 431 220 0 +-.0390810810810811 .0025 .01080134720921266 0 -1
 0 16 437 377 438 ?439 218 433 434 0 0 1 30 220 457 0 218 434 219 0 +-.039081081
0810811 .0025 -.01080134720921266 0 -1 0 16 218 378 440 ?150 188 437 220 0 0 1 8
1 2 440 1842 211 218 0 0 388 295 0 0 17 150 0 441 147 442 148 173 218 0 443 +15
 441 397 0 147 444 0 17 147 0 441 445 150 145 443 406 0 439 +17 442 0 441 150 44
5 171 170 446 0 191 -17 173 0 447 189 448 171 150 218 0 442 -17 443 0 378 405 44
9 148 147 406 0 448 -15 378 224 0 206 342 0 17 405 0 378 156 443 151 448 402 0 0
 +17 449 0 378 443 450 145 144 409 0 0 -17 448 0 447 173 153 148 405 402 0 0 -15
 447 399 0 448 451 0 17 153 0 447 448 189 151 180 188 0 183 +17 189 0 447 153 17
3 174 191 193 0 0 +17 183 0 178 180 179 151 156 399 0 405 +17 156 0 378 206 405
 154 183 399 0 179 -17 206 0 378 423 156 132 187 207 0 452 -17 423 0 378 419 206
 136 452 420 0 0 +17 452 0 453 158 138 132 423 420 0 0 -15 453 389 0 452 343 0 1
7 158 0 453 200 452 131 134 424 0 197 -17 138 0 453 452 200 136 161 427 0 454 +1
7 200 0 453 138 158 159 196 201 0 0 +17 161 0 455 456 454 159 138 427 0 199 -17
 454 0 455 161 141 136 419 416 0 423 -15 455 391 0 454 457 0 17 141 0 455 454 45
6 139 458 430 0 415 +17 419 0 378 450 423 139 454 416 0 0 +17 450 0 378 449 419
 142 415 412 0 0 -17 415 0 459 458 436 139 450 412 0 419 +15 459 393 0 415 460 0
 17 458 0 459 461 415 162 141 430 0 456 -17 436 0 459 415 461 142 462 433 0 450
 +17 461 0 459 436 458 165 164 463 0 0 -17 462 0 464 465 144 165 436 433 0 461 -
15 464 395 0 144 466 0 17 465 0 464 439 462 168 167 467 0 0 -17 144 0 464 462 43
9 142 449 409 0 436 +17 439 0 464 144 465 145 445 437 0 449 +17 445 0 441 442 14
7 168 439 437 0 465 -17 167 0 190 164 170 165 465 467 0 462 +16 467 87 468 ?167
 463 446 469 0 0 1 81 2 468 1861 211 467 0 0 238 192 0 0 16 463 92 387 ?164 470
 467 471 0 0 1 16 446 82 472 ?170 467 193 473 0 0 1 30 469 89 0 467 473 471 0 +-
.003405405405405405 .0025 .01767493179689345 .98194065538297 0 .189189189189189
 31 473 84 0 446 474 469 0 +-.037 .0025 453119315684521e-32 0 1 0 0 0 1 .011 31
 471 94 0 463 469 475 0 +0 .0025 0 0 1 0 0 0 1 .018 30 475 99 0 470 471 476 0 +.
003405405405405405 .0025 .01767493179689345 -.98194065538297 0 .189189189189189
 16 470 97 477 ?456 201 463 475 0 0 1 31 476 104 0 201 475 478 0 -.037 .0025 453
119315684521e-32 0 1 0 0 0 1 .011 16 201 102 479 ?200 424 470 476 0 0 1 31 478 3
56 0 480 476 481 0 -.037 -.0025 453119315684521e-32 0 1 0 0 0 1 .004 16 480 316
 482 ?483 484 0 478 0 0 1 31 481 355 0 484 478 485 0 +-.037 -.0025 4531193156845
21e-32 0 1 0 0 0 1 .004 16 484 311 486 ?487 488 480 481 0 0 1 31 485 354 0 488 4
81 489 0 +0 -.0025 0 0 1 0 0 0 1 .012 16 488 306 490 ?491 492 484 485 0 0 1 30 4
89 353 0 492 485 493 0 +-.00245945945945946 -.0025 .0127652285199786 .9819406553
8297 0 .1891891891891895 16 492 682 494 ?495 496 488 489 0 0 1 31 493 352 0 496
 489 497 0 +-.037 -.0025 453119315684521e-32 0 1 0 0 0 1 .011 16 496 748 386 ?31
 498 492 493 0 0 1 30 497 351 0 498 493 393 0 +-.00245945945945946 -.0025 -.0127
652285199786 .98194065538297 0 -.1891891891891895 16 498 726 499 ?500 391 496 49
7 0 0 1 31 393 350 0 391 497 392 0 +0 -.0025 0 0 1 0 0 0 1 .018 16 391 704 501 ?
502 384 498 393 0 0 1 81 2 501 1837 211 391 0 0 318 241 0 0 17 502 0 503 61 256
 65 504 391 0 505 +15 503 413 0 502 506 0 17 61 0 503 507 502 59 505 257 0 508 +
17 256 0 503 502 507 68 509 253 0 504 +17 504 0 510 55 67 68 502 391 0 0 -17 505
 0 511 79 512 65 61 257 0 0 -15 511 962 0 512 513 0 17 79 0 511 514 505 77 67 29
6 0 252 -17 512 0 511 505 514 59 73 299 0 0 -17 514 0 511 512 79 71 252 249 0 0
 -17 73 0 37 38 508 71 512 299 0 351 +17 508 0 37 73 64 59 507 365 0 512 +17 351
 0 515 252 76 71 38 352 0 514 +15 515 419 0 351 516 0 17 252 0 515 517 351 77 51
4 249 0 495 +17 76 0 515 351 517 74 518 246 0 38 +16 352 688 519 ?351 520 349 52
1 0 0 1 81 2 519 1805 211 352 0 0 522 418 0 0 16 520 754 523 ?34 524 352 525 0 0
 1 16 349 21 522 ?348 352 420 526 0 0 1 30 521 28 0 352 526 525 0 +-.00245945945
945946 .0025 .0127652285199786 .98194065538297 0 .1891891891891895 31 526 23 0 3
49 0 521 0 +0 .0025 0 0 1 0 0 0 1 .012 31 525 33 0 520 521 527 0 +-.037 .0025 45
3119315684521e-32 0 1 0 0 0 1 .011 30 527 38 0 524 525 528 0 +-.0024594594594594
6 .0025 -.0127652285199786 .98194065538297 0 -.1891891891891895 16 524 732 529 ?
530 365 520 527 0 0 1 31 528 43 0 365 527 366 0 +0 .0025 0 0 1 0 0 0 1 .018 16 3
65 710 531 ?508 355 524 528 0 0 1 31 366 48 0 355 528 532 0 -0 .0025 0 0 1 0 0 0
 1 .018 30 532 54 0 364 366 533 0 +.00245945945945946 .0025 -.0127652285199786 -
.98194065538297 0 -.1891891891891895 16 364 666 534 ?358 535 355 532 0 0 1 31 53
3 59 0 535 532 536 0 -.037 .0025 453119315684521e-32 0 1 0 0 0 1 .011 16 535 644
 537 ?538 204 364 533 0 0 1 30 536 64 0 204 533 205 0 +.00245945945945946 .0025
 .0127652285199786 -.98194065538297 0 .1891891891891895 16 204 622 539 ?359 194
 535 536 0 0 1 30 205 69 0 194 536 195 0 +.00340540540540541 .0025 -.01767493179
689345 -.98194065538297 0 -.1891891891891895 31 195 74 0 181 205 474 0 +0 .0025
 0 0 1 0 0 0 1 .018 30 474 79 0 193 195 473 0 +-.00340540540540541 .0025 -.01767
493179689345 .98194065538297 0 -.1891891891891895 16 193 77 540 ?189 446 181 474
 0 0 1 81 2 540 1867 211 193 0 0 408 310 0 0 80 255 2 211 541 542 9000 0 0 0 0 3
 6 0 0 0 FFFFFFTFFFFFFF9 1 81 2 408 1866 211 406 0 0 245 540 0 0 81 2 310 1868 2
11 308 0 0 540 266 0 0 81 2 266 1869 211 264 0 0 310 248 0 0 81 2 248 1870 211 2
46 0 0 266 0 0 0 81 2 245 1865 211 243 0 0 231 408 0 0 81 2 231 1864 211 229 0 0
 304 245 0 0 81 2 304 1863 211 302 0 0 192 231 0 0 81 2 192 1862 211 181 0 0 468
 304 0 0 79 255 19 542 EDGE_PERM_ID_2_200381 2 539 1849 211 204 0 0 301 529 0 0
 17 359 0 350 121 112 107 543 204 0 360 +17 112 0 350 359 544 110 545 282 0 543
 +17 543 0 546 228 109 110 359 204 0 547 -17 360 0 548 549 362 107 121 276 0 0 -
15 548 878 0 360 550 0 17 549 0 548 127 360 113 109 229 0 0 -17 362 0 548 360 12
7 119 224 215 0 0 -17 127 0 548 362 549 125 115 273 0 224 -17 224 0 361 380 354
 125 362 215 0 379 +15 361 411 0 354 551 0 17 380 0 361 124 224 128 379 384 0 36
8 -17 379 0 377 115 130 125 380 384 0 0 +17 115 0 377 552 379 113 127 273 0 396
 +17 552 0 377 106 115 116 396 389 0 0 -17 396 0 546 109 228 113 552 389 0 549 +
15 546 405 0 396 553 0 17 109 0 546 543 396 107 549 229 0 359 +17 228 0 546 396
 543 116 547 225 0 552 +17 547 0 554 545 118 110 228 225 0 0 -15 554 899 0 545 5
55 0 17 545 0 554 556 547 98 112 282 0 0 -17 118 0 554 547 556 116 106 279 0 228
 -17 556 0 554 118 545 104 100 236 0 0 -17 106 0 377 381 552 104 118 279 0 557 +
17 381 0 377 94 106 101 557 383 0 0 +17 557 0 558 100 235 104 381 383 0 556 -15
 558 407 0 557 559 0 17 100 0 558 538 557 98 556 236 0 544 +17 235 0 558 557 538
 101 560 232 0 381 +17 538 0 558 235 100 95 544 535 0 560 +17 560 0 561 562 103
 95 235 232 0 0 -15 561 920 0 562 563 0 17 562 0 561 376 560 86 97 287 0 0 -17 1
03 0 561 560 376 101 94 285 0 235 -17 376 0 561 103 562 92 88 243 0 0 -17 88 0 3
71 358 372 86 376 243 0 357 +17 357 0 350 97 85 86 358 364 0 562 -17 97 0 350 54
4 357 95 562 287 0 538 +17 544 0 350 112 97 98 538 535 0 545 -14 563 919 564 ?37
0 555 561 5 565 -0 0 370 555 23 81 1 564 1969 566 563 567 0 341 568 569 14 370 9
40 568 ?513 563 367 5 570 -0 0 513 563 23 14 555 898 571 ?563 550 554 5 572 -0 0
 563 550 23 51 255 565 931 0 563 572 570 0 +.02278078108966815 .0025 -.004776380
80350186 0 -1 0 .004 0 0 -1 13 23 158 0 0 0 0 0 0 9 16 14 16 404 573 ?184 0 202
 5 574 -0 0 184 0 23 81 1 573 1972 566 16 575 0 571 576 577 14 184 402 576 ?451
 16 178 5 578 -0 0 451 16 23 50 255 574 440 0 16 578 579 0 +.00340540540540541 .
0025 -.01767493179689345 -.1891891891891895 0 .98194065538297 .98194065538297 0
 .1891891891891895 51 578 439 0 184 580 574 0 -0 .0025 0 0 -1 0 .018 0 0 -1 50 5
79 441 0 553 574 581 0 +.00245945945945946 .0025 .0127652285199786 .189189189189
1895 0 .98194065538297 .98194065538297 0 -.1891891891891895 14 553 406 582 ?506
 583 546 5 579 -0 0 506 583 23 51 581 442 0 559 579 584 0 +.037 .0025 4531193156
84521e-32 0 -1 0 .011 0 0 -1 14 559 408 585 ?516 374 558 5 581 +0 0 516 374 23 5
0 584 443 0 374 581 586 0 +.00245945945945946 .0025 -.0127652285199786 -.1891891
891891895 0 .98194065538297 .98194065538297 0 .1891891891891895 14 374 410 587 ?
559 551 371 5 584 +0 0 559 551 23 51 586 444 0 551 584 588 0 +0 .0025 0 0 -1 0 .
018 0 0 -1 14 551 412 589 ?374 457 361 5 586 +0 0 374 457 23 51 588 445 0 506 58
6 590 0 -0 .0025 0 0 -1 0 .018 0 0 -1 14 506 414 591 ?592 553 503 5 588 -0 0 592
 553 23 50 590 446 0 583 588 593 0 +-.00245945945945946 .0025 -.0127652285199786
 -.1891891891891895 0 -.98194065538297 -.98194065538297 0 .1891891891891895 14 5
83 416 594 ?553 595 596 5 590 -0 0 553 595 23 51 593 447 0 595 590 597 0 --.037
 .0025 453119315684521e-32 0 -1 0 .011 0 0 -1 14 595 418 598 ?583 516 29 5 593 -
0 0 583 516 23 50 597 448 0 516 593 599 0 +-.00245945945945946 .0025 .0127652285
199786 .1891891891891895 0 -.98194065538297 -.98194065538297 0 -.189189189189189
5 14 516 420 600 ?595 559 515 5 597 +0 0 595 559 23 51 599 449 0 592 597 601 0 -
0 .0025 0 0 -1 0 .012 0 0 -1 14 592 422 602 ?603 506 604 5 599 +0 0 603 506 23 5
1 601 450 0 603 599 605 0 --.037 .0025 453119315684521e-32 0 -1 0 .004 0 0 -1 14
 603 426 606 ?331 592 607 5 601 +0 0 331 592 23 51 605 451 0 331 601 608 0 +.037
 .0025 453119315684521e-32 0 -1 0 .004 0 0 -1 14 331 430 609 ?343 603 329 5 605
 -0 0 343 603 23 51 608 889 0 550 605 572 0 +.0214150237895168 .0025 .0050395194
3090097 0 -1 0 .004 0 0 -1 14 550 877 610 ?555 342 548 5 608 -0 0 555 342 23 51
 572 910 0 555 608 565 0 +.02278078108966815 .0025 .00477638080350187 0 -1 0 .00
4 0 0 -1 81 1 610 1985 566 550 611 0 609 612 613 14 342 217 612 ?550 198 614 5 6
15 -0 0 550 198 23 81 1 612 1986 566 342 616 0 610 617 618 15 614 219 0 619 342
 620 50 615 337 0 342 344 621 0 +0 -.0025 0 0 1 0 0 0 1 50 344 3 0 198 0 615 0 +
0 .0025 0 0 1 0 0 0 1 51 621 433 0 343 615 622 0 +.037 .0025 453119315684521e-32
 0 -1 0 .011 0 0 -1 14 343 390 617 ?198 331 453 5 621 +0 0 198 331 23 50 622 434
 0 457 621 623 0 +.003405405405405405 .0025 .01767493179689345 .189189189189189
 0 .98194065538297 .98194065538297 0 -.189189189189189 14 457 392 624 ?551 460 4
55 5 622 +0 0 551 460 23 51 623 435 0 460 622 625 0 -0 .0025 0 0 -1 0 .018 0 0 -
1 14 460 394 626 ?457 466 459 5 623 -0 0 457 466 23 50 625 436 0 466 623 627 0 +
-.003405405405405405 .0025 .01767493179689345 .189189189189189 0 -.9819406553829
7 -.98194065538297 0 -.189189189189189 14 466 396 628 ?460 444 464 5 625 -0 0 46
0 444 23 51 627 437 0 444 625 580 0 --.037 .0025 453119315684521e-32 0 -1 0 .011
 0 0 -1 14 444 398 629 ?466 451 441 5 627 -0 0 466 451 23 50 580 438 0 451 627 5
78 0 +-.00340540540540541 .0025 -.01767493179689345 -.1891891891891895 0 -.98194
065538297 -.98194065538297 0 .1891891891891895 14 451 400 630 ?444 184 447 5 580
 +0 0 444 184 23 81 1 630 1992 566 451 631 0 629 632 633 80 1 566 634 635 9000 1
 1 1 1 1 1 1 1 0 FFFFTFTFFFFFFF1 81 1 631 1873 636 451 637 630 638 639 640 81 1
 629 1991 566 444 639 0 628 630 641 81 1 632 1993 566 513 642 0 630 643 644 82 2
55 1 633 573898855 14 513 961 632 ?645 370 511 5 646 -0 0 645 370 23 81 1 642 18
96 636 513 647 632 648 649 650 81 1 643 1994 566 645 649 0 632 651 652 82 1 644
 2105475178 14 645 982 643 ?653 513 654 5 655 -0 0 653 513 23 81 1 649 1897 636
 645 656 643 642 657 658 81 1 651 1995 566 653 657 0 643 659 660 82 1 652 210744
1258 14 653 1003 651 ?337 645 661 5 662 -0 0 337 645 23 81 1 657 1898 636 653 66
3 651 649 664 665 81 1 659 1996 566 337 664 0 651 666 667 82 1 660 2109407338 14
 337 1024 659 ?334 653 668 5 669 -0 0 334 653 23 81 1 664 1899 636 337 670 659 6
57 671 672 81 1 666 1997 566 19 673 0 659 0 674 82 1 667 2111373418 14 19 1125 6
66 ?0 334 675 5 6 +0 0 0 334 23 81 1 673 1901 636 19 676 666 671 0 677 82 1 674
 -1569652628 80 1 636 0 678 8001 0 0 0 0 3 5 0 0 0 FFFFTFTFFFFFFF2 81 2 676 1679
 679 19 0 673 680 0 0 0 81 1 671 1900 636 334 680 336 664 673 681 83 255 3 677 1
 0 .501960784313726 81 2 680 1677 679 334 0 671 670 676 0 0 81 1 336 1967 566 33
4 671 0 0 341 682 83 3 681 1 0 .501960784313726 81 1 341 1968 566 198 683 0 336
 564 684 82 1 682 -1571028884 81 1 683 1890 636 198 685 341 686 616 687 82 1 684
 542310508 81 2 685 1657 679 198 0 683 688 689 0 0 81 1 686 1889 636 343 688 617
 690 683 691 81 1 616 1891 636 342 689 612 683 611 692 83 3 687 1 0 .50196078431
3726 81 2 689 1659 679 342 0 616 685 693 0 0 81 1 611 1892 636 550 693 610 616 6
94 695 83 3 692 1 0 .501960784313726 81 2 693 1661 679 550 0 611 689 696 0 0 81
 1 694 1893 636 555 696 571 611 567 697 83 3 695 1 0 .501960784313726 81 2 696 1
663 679 555 0 694 693 698 0 0 81 1 571 1971 566 555 694 0 568 573 699 81 1 567 1
894 636 563 698 564 694 648 700 83 3 697 1 0 .501960784313726 81 2 698 1665 679
 563 0 567 696 701 0 0 81 1 648 1895 636 370 701 568 567 642 702 83 3 700 1 0 .5
01960784313726 81 2 701 1667 679 370 0 648 698 647 0 0 81 1 568 1970 566 370 648
 0 564 571 703 83 3 702 1 0 .501960784313726 82 1 703 2103509098 80 2 679 704 70
5 9000 0 0 0 0 3 6 0 0 0 FFFFTFFFFFFFFF9 1 81 2 647 1669 679 513 0 642 701 656 0
 0 81 2 656 1671 679 645 0 649 647 663 0 0 81 2 663 1673 679 653 0 657 656 670 0
 0 81 2 670 1675 679 337 0 664 663 680 0 0 79 14 705 FACE_ID_2_200182 1 699 2099
576938 81 2 688 1655 679 343 0 686 706 685 0 0 81 1 617 1987 566 343 686 0 612 6
24 707 81 1 690 1888 636 331 706 609 708 686 709 83 3 691 1 0 .501960784313726 8
1 2 706 1653 679 331 0 690 710 688 0 0 81 1 609 1984 566 331 690 0 606 610 711 8
1 1 708 1887 636 603 710 606 712 690 713 83 3 709 1 0 .501960784313726 81 2 710
 1651 679 603 0 708 714 706 0 0 81 1 606 1983 566 603 708 0 602 609 715 81 1 712
 1886 636 592 714 602 716 708 717 83 3 713 1 0 .501960784313726 81 2 714 1649 67
9 592 0 712 718 710 0 0 81 1 602 1982 566 592 712 0 600 606 719 81 1 716 1885 63
6 506 718 591 720 712 721 83 3 717 1 0 .501960784313726 81 2 718 1647 679 506 0
 716 722 714 0 0 81 1 591 1978 566 506 716 0 589 594 723 81 1 720 1884 636 553 7
22 582 724 716 725 83 3 721 1 0 .501960784313726 81 2 722 1645 679 553 0 720 726
 718 0 0 81 1 582 1974 566 553 720 0 576 585 727 81 1 724 1883 636 583 726 594 7
28 720 729 83 3 725 1 0 .501960784313726 81 2 726 1643 679 583 0 724 730 722 0 0
 81 1 594 1979 566 583 724 0 591 598 731 81 1 728 1882 636 595 730 598 732 724 7
33 83 3 729 1 0 .501960784313726 81 2 730 1641 679 595 0 728 734 726 0 0 81 1 59
8 1980 566 595 728 0 594 600 735 81 1 732 1881 636 516 734 600 736 728 737 83 3
 733 1 0 .501960784313726 81 2 734 1639 679 516 0 732 738 730 0 0 81 1 600 1981
 566 516 732 0 598 602 739 81 1 736 1880 636 559 738 585 740 732 741 83 3 737 1
 0 .501960784313726 81 2 738 1637 679 559 0 736 742 734 0 0 81 1 585 1975 566 55
9 736 0 582 587 743 81 1 740 1879 636 374 742 587 744 736 745 83 3 741 1 0 .5019
60784313726 81 2 742 1635 679 374 0 740 746 738 0 0 81 1 587 1976 566 374 740 0
 585 589 747 81 1 744 1878 636 551 746 589 748 740 749 83 3 745 1 0 .50196078431
3726 81 2 746 1633 679 551 0 744 750 742 0 0 81 1 589 1977 566 551 744 0 587 591
 751 81 1 748 1877 636 457 750 624 752 744 753 83 3 749 1 0 .501960784313726 81
 2 750 1631 679 457 0 748 754 746 0 0 81 1 624 1988 566 457 748 0 617 626 755 81
 1 752 1876 636 460 754 626 756 748 757 83 3 753 1 0 .501960784313726 81 2 754 1
629 679 460 0 752 758 750 0 0 81 1 626 1989 566 460 752 0 624 628 759 81 1 756 1
875 636 466 758 628 639 752 760 83 3 757 1 0 .501960784313726 81 2 758 1627 679
 466 0 756 761 754 0 0 81 1 628 1990 566 466 756 0 626 629 762 81 1 639 1874 636
 444 761 629 631 756 763 83 3 760 1 0 .501960784313726 81 2 761 1625 679 444 0 6
39 637 758 0 0 83 3 763 1 0 .501960784313726 81 2 637 1623 679 451 0 631 764 761
 0 0 81 2 764 1621 679 184 0 638 765 637 0 0 81 1 638 1872 636 184 764 576 575 6
31 766 81 2 765 1619 679 16 0 575 0 764 0 0 81 1 575 1871 636 16 765 573 0 638 7
67 83 3 767 1 0 .501960784313726 81 1 576 1973 566 184 638 0 573 582 768 83 3 76
6 1 0 .501960784313726 82 1 768 574095463 82 1 762 573374567 82 1 759 573046887
 82 1 755 572915815 82 1 751 575340650 82 1 747 575209578 82 1 743 575012970 82
 1 739 576323690 82 1 735 576061546 82 1 731 575799402 82 1 727 574750826 82 1 7
23 575537258 82 1 719 576585831 82 1 715 576847980 82 1 711 577110124 82 1 707 5
72784743 79 15 678 SDL/TYSA_COLOUR15 675 1126 0 346 19 769 17 346 0 675 346 346
 0 322 319 0 0 -15 769 1127 0 770 19 0 17 770 0 769 770 770 0 25 10 0 0 -17 25 0
 607 25 25 0 770 10 0 0 +15 607 1099 0 25 603 771 15 771 427 0 772 603 0 17 772
 0 771 772 772 0 487 484 0 0 -17 487 0 620 487 487 0 772 484 0 0 +15 620 220 0 4
87 342 773 15 773 221 0 491 342 510 17 491 0 773 491 491 0 774 488 0 0 +15 510 2
22 0 775 342 377 17 775 0 510 82 41 42 31 496 0 0 -17 82 0 510 495 775 80 46 308
 0 517 +17 41 0 510 775 776 36 58 313 0 31 +17 31 0 29 27 272 36 775 496 0 32 +1
5 29 417 0 30 595 0 17 272 0 29 31 30 42 777 269 0 775 +17 32 0 668 58 778 36 27
 33 0 0 -15 668 1025 0 778 337 0 17 58 0 668 779 32 56 41 313 0 263 -17 778 0 66
8 32 779 11 52 316 0 0 -17 779 0 668 778 58 50 263 260 0 0 -17 52 0 37 530 34 50
 778 316 0 780 +17 530 0 37 64 52 47 780 524 0 781 +17 34 0 37 52 35 11 30 520 0
 778 +17 780 0 596 263 49 50 530 524 0 779 -15 596 415 0 500 583 0 17 263 0 596
 500 780 56 779 260 0 776 +17 49 0 596 780 500 47 782 264 0 530 +17 500 0 596 49
 263 53 776 498 0 782 +17 782 0 654 70 781 53 49 264 0 0 -15 654 983 0 781 645 0
 17 70 0 654 509 782 68 55 302 0 256 -17 781 0 654 782 509 47 64 305 0 0 -17 509
 0 654 781 70 62 256 253 0 0 -17 64 0 37 508 530 62 781 305 0 507 +17 507 0 503
 256 61 62 508 365 0 509 -17 55 0 510 776 504 53 70 302 0 500 +17 776 0 510 41 5
5 56 500 498 0 0 -17 30 0 29 272 27 28 34 520 0 777 -17 777 0 661 39 46 28 272 2
69 0 0 -15 661 1004 0 39 653 0 17 39 0 661 518 777 74 35 40 0 0 -17 46 0 661 777
 518 42 82 308 0 272 -17 518 0 661 46 39 80 76 246 0 0 -17 495 0 510 67 82 77 51
7 492 0 0 +17 517 0 515 76 252 80 495 492 0 518 -17 67 0 510 504 495 65 79 296 0
 502 +17 774 0 783 774 774 0 491 488 0 0 -15 783 423 0 774 592 0 83 3 672 1 0 .5
01960784313726 51 669 1036 0 337 662 20 0 +-.02278078108966815 .0025 -.004776380
80350186 0 -1 0 .004 0 0 -1 51 662 1015 0 653 655 669 0 +-.02278078108966815 .00
25 .00477638080350187 0 -1 0 .004 0 0 -1 52 20 1118 784 334 669 6 0 -.037 .0025
 453119315684521e-32 0 1 0 .005 .707106781186548 .707106781186548 0 0 1 81 2 784
 1119 785 20 0 0 0 18 786 787 80 2 785 788 789 8044 0 0 0 0 3 5 0 0 0 FFFFTFFFTT
FFFF3 2 81 2 18 1133 785 6 0 0 784 0 790 791 84 255 6 786 BAAAAB83 3 787 -.001 0
 .001 84 6 790 BAAAAB83 3 791 0 .001000000000000012 .001000000000000012 79 17 78
9 SDL/TYSA_BLEND_ID51 655 994 0 645 646 662 0 +-.02141502378951685 .0025 -.00503
951943090096 0 -1 0 .004 0 0 -1 51 646 973 0 513 570 655 0 +-.0214150237895168 .
0025 .00503951943090097 0 -1 0 .004 0 0 -1 51 570 952 0 370 565 646 0 +.02141502
378951685 .0025 -.00503951943090096 0 -1 0 .004 0 0 -1 83 3 665 1 0 .50196078431
3726 83 3 658 1 0 .501960784313726 83 3 650 1 0 .501960784313726 82 1 641 573636
711 83 3 640 1 0 .501960784313726 79 14 635 SWEntUnchanged17 619 0 614 619 619 0
 483 480 0 0 -17 483 0 332 483 483 0 619 480 0 0 +15 332 431 0 483 331 0 82 1 61
8 567279722 82 1 613 2097610858 15 604 421 0 348 592 783 17 348 0 604 348 348 0
 347 349 0 0 +82 1 577 574423143 82 1 569 2101543018 17 124 0 361 354 380 122 36
8 209 0 353 +81 2 301 1848 211 299 0 0 438 539 0 0 81 2 529 1850 211 524 0 0 539
 429 0 0 81 2 429 1851 211 427 0 0 529 315 0 0 81 2 315 1852 211 313 0 0 429 24
 0 0 81 2 24 1853 211 10 0 0 315 268 0 0 81 2 268 1854 211 33 0 0 24 212 0 0 81
 2 212 1855 211 384 0 0 268 208 0 0 81 2 438 1847 211 437 0 0 477 301 0 0 81 2 4
77 1846 211 470 0 0 251 438 0 0 81 2 251 1845 211 249 0 0 531 477 0 0 81 2 531 1
844 211 365 0 0 295 251 0 0 81 2 295 1843 211 293 0 0 440 531 0 0 81 2 537 1825
 211 535 0 0 324 223 0 0 81 2 324 1824 211 323 0 0 426 537 0 0 81 2 223 1826 211
 215 0 0 537 398 0 0 81 2 398 1827 211 207 0 0 223 275 0 0 81 2 275 1828 211 273
 0 0 398 284 0 0 81 2 284 1829 211 282 0 0 275 472 0 0 81 2 472 1830 211 446 0 0
 284 312 0 0 81 2 312 1831 211 40 0 0 472 490 0 0 81 2 490 1832 211 488 0 0 312
 255 0 0 81 2 255 1833 211 253 0 0 490 214 0 0 81 2 214 1834 211 209 0 0 255 292
 0 0 81 2 292 1835 211 290 0 0 214 318 0 0 81 2 318 1836 211 316 0 0 292 501 0 0
 81 2 426 1823 211 424 0 0 401 324 0 0 81 2 401 1822 211 399 0 0 387 426 0 0 81
 2 387 1821 211 463 0 0 382 401 0 0 81 2 534 1794 211 364 0 0 486 435 0 0 81 2 4
86 1793 211 484 0 0 422 534 0 0 81 2 435 1795 211 433 0 0 534 281 0 0 81 2 281 1
796 211 279 0 0 435 321 0 0 81 2 321 1797 211 319 0 0 281 326 0 0 81 2 422 1792
 211 420 0 0 479 486 0 0 81 2 479 1791 211 201 0 0 0 422 0 0 81 2 522 1804 211 3
49 0 0 298 519 0 0 81 2 298 1803 211 296 0 0 411 522 0 0 81 2 411 1802 211 409 0
 0 414 298 0 0 81 2 414 1801 211 412 0 0 234 411 0 0 81 2 234 1800 211 232 0 0 3
28 414 0 0 81 2 328 1799 211 389 0 0 326 234 0 0 81 2 523 1814 211 520 0 0 289 3
63 0 0 81 2 289 1813 211 287 0 0 278 523 0 0 81 2 363 1815 211 355 0 0 523 203 0
 0 81 2 203 1816 211 194 0 0 363 482 0 0 81 2 482 1817 211 480 0 0 203 262 0 0 8
1 2 262 1818 211 260 0 0 482 386 0 0 81 2 386 1819 211 496 0 0 262 382 0 0 81 2
 278 1812 211 276 0 0 217 289 0 0 81 2 217 1811 211 188 0 0 432 278 0 0 81 2 432
 1810 211 430 0 0 494 217 0 0 81 2 494 1809 211 492 0 0 499 432 0 0 81 2 499 180
8 211 498 0 0 227 494 0 0 81 2 227 1807 211 225 0 0 418 499 0 0 81 2 418 1806 21
1 416 0 0 519 227 0 0 81 2 241 1838 211 239 0 0 501 404 0 0 81 2 404 1839 211 40
2 0 0 241 271 0 0 81 2 271 1840 211 269 0 0 404 388 0 0 81 2 388 1841 211 383 0
 0 271 440 0 0 17 456 0 455 141 161 162 199 470 0 0 +17 199 0 190 196 164 159 45
6 470 0 200 -17 164 0 190 199 167 162 461 463 0 458 +17 170 0 190 167 191 168 44
2 446 0 445 +17 191 0 190 170 176 171 189 193 0 0 -81 2 238 1860 211 236 0 0 259
 468 0 0 81 2 259 1859 211 257 0 0 307 238 0 0 81 2 307 1858 211 305 0 0 213 259
 0 0 81 2 213 1857 211 285 0 0 208 307 0 0 17 134 0 202 187 197 132 158 424 0 20
6 +19 17 469 0 1 0 9 5 S0 74 4 CI16 index_map_offset0 0 1 dCCZ20 15 13 0 0 792 7
93 794 666 18 795 796 797 13 676 248 673 2 0 0 0 0 0 0 0 81 2 792 155 798 1 0 79
3 0 0 0 799 81 5 793 156 800 1 792 794 0 0 801 0 0 0 0 81 2 794 559 802 1 793 79
5 0 0 0 803 81 1 795 1143 804 1 794 796 0 0 805 81 2 796 1176 806 1 795 797 0 0
 807 0 81 2 797 1319 808 1 796 13 0 0 0 809 81 2 13 1353 810 1 797 2 0 0 0 0 80
 2 810 811 812 9000 0 0 0 0 3 5 0 0 0 FFTFFFFFFFFFFF9 1 79 16 812 BODY_RECIPE_20
0180 2 808 813 814 9000 0 0 0 0 3 5 0 0 0 FFTFFFFFFFFFFF9 1 82 1 809 1 79 24 814
 BODY_IN_LIGHTWEIGHT_PERM80 2 806 815 816 8004 0 0 0 0 3 5 0 0 0 FFTFFFFFFFFFFF2
 3 83 1 807 1 79 16 816 SDL/TYSA_DENSITY80 1 804 817 818 9000 1 1 1 1 1 1 1 1 0
 FFTFFFFFFFFFFF1 82 1 805 532561 79 10 818 BODY_MATCH80 2 802 819 820 9000 0 0 0
 0 3 5 0 0 0 FFTFFFFFFFFFFF9 1 82 1 803 52 79 30 820 LAST_BODY_MODIFYING_FEATURE
_ID80 5 800 821 822 9000 0 0 0 0 3 6 0 0 0 FFTTTTTTFTTFTT2 2 2 2 2 83 1 801 1 79
 19 822 BODY_SCALING_FACTOR80 2 798 823 824 9000 0 0 0 0 3 5 0 0 0 FFTFFFFFFFFFF
T9 1 82 1 799 107 79 19 824 ENT_TIME_STAMP_200180 2 12 211 825 9000 0 0 0 0 3 5
 0 0 0 FFTFFFFFFFFFFF9 1 82 1 14 101 79 12 825 ATOM_ID_20011 0 
