**ABCDEFGHIJKLMNOPQRSTUVWXYZabcdefghijklmnopqrstuvwxyz**************************
**PARASOLID !"#$%&'()*+,-./:;<=>?@[\]^_`{|}~0123456789**************************
**PART1;
MC=AMD64;
MC_MODEL=Intel64 Family 6 Model 142 Stepping 12, GenuineIntel;
MC_ID=unknown;
OS=Windows_NT;
OS_RELEASE=unknown;
FRU=Parasolid Version 33.1, build 247,  8- 6-2021;
APPL=SOLIDWORKS 2022-2022009;
SITE=;
USER=unknown;
FORMAT=text;
GUISE=transmit;
KEY=FILEBolt.x_t;
DATE=Thu Jun 15 06:20:46 2023;
**PART2;
SCH=SCH_3301247_33103;
USFLD_SIZE=0;
**PART3;
**END_OF_HEADER*****************************************************************
T51 : TRANSMIT FILE created by modeller version 330124723 SCH_3301247_33103_1300
6230 0 12 35 CCCI7 lattice222 0 CCCI4 mesh1006 0 I8 polyline1008 0 CCCCCCCDI5 ow
ner1040 0 CCCCCCI13 boundary_mesh1006 0 I17 boundary_polyline1008 0 CCCA16 index
_map_offset0 0 1 dA9 index_map82 0 A17 node_id_index_map82 0 A20 schema_embeddin
g_map82 0 A5 child12 0 A14 lowest_node_id0 0 1 dA16 mesh_offset_data206 0 Z1 941
 2 3 0 0 0 0 0 0 0 1e3 1e-8 0 4 0 1 0 1 1 5 6 7 8 0 0 9 10 11 0 0 0 0 0 0 0 81 2
55 2 2 923 12 1 13 0 0 0 0 14 70 11 CI9 list_type0 0 1 uI10 notransmit0 0 1 lCCC
DCCDI12 finger_index0 0 1 dI12 finger_block1012 0 CZ3 0 4 T1 0 0 10 20 1 15 15 1
3 255 5 141 0 1 0 16 0 0 17 0 52 255 6 705 18 19 20 0 0 +0 -.075 0 0 1 0 .009 .7
07106781186549 .707106781186546 0 0 1 31 255 7 722 0 21 22 0 0 +0 -.04 0 0 1 0 0
 0 1 .01 29 255 8 721 0 11 23 0 .01 -.04 0 19 8 CCCCCCCA5 owner12 0 Z9 47 0 1 17
 0 24 V0 16 255 10 723 0 ?25 0 21 7 21 21 1 18 255 11 719 0 26 0 27 8 ?1 17 255
 26 0 28 29 29 11 25 10 0 30 -18 27 716 0 25 11 31 23 ?1 17 25 0 32 30 30 27 26
 10 0 29 +18 31 542 0 33 27 34 35 ?1 29 23 718 0 27 35 8 -.01 -.04 0 29 35 545 0
 31 36 23 .007 .012 .01212435565298214 29 36 538 0 34 37 35 -.014 .012 150231459
873716e-32 18 34 535 0 38 31 39 36 ?1 29 37 105 0 39 40 36 -.014 0 .008082903768
65476 18 39 92 0 41 34 42 37 ?1 29 40 106 0 42 43 37 -.014 0 -.00808290376865476
 18 42 93 0 44 39 45 40 ?1 29 43 107 0 45 46 40 3106358626868325e-33 0 -.0161658
0753730955 18 45 94 0 47 42 48 43 ?1 29 46 108 0 48 49 43 .014 0 -.0080829037686
5476 18 48 95 0 50 45 51 46 ?1 29 49 109 0 51 52 46 .014 0 .00808290376865476 18
 51 96 0 53 48 54 49 ?1 29 52 110 0 54 55 49 1035452875622774e-33 0 .01616580753
730955 18 54 97 0 56 51 57 52 ?1 29 55 499 0 57 58 52 1052838654171512e-33 .0107
4957043532144 .01616580753730955 18 57 379 0 59 54 60 55 ?1 29 58 500 0 60 61 55
 .014 .01074957043532144 .00808290376865476 18 60 380 0 62 57 63 58 ?1 29 61 501
 0 63 64 58 .014 .01074957043532144 -.00808290376865476 18 63 381 0 65 60 66 61
 ?1 29 64 502 0 66 67 61 3088972848334555e-33 .01074957043532144 -.0161658075373
0955 18 66 382 0 68 63 69 64 ?1 29 67 503 0 69 70 64 -.014 .01074957043532144 -.
00808290376865476 18 69 383 0 71 66 72 67 ?1 29 70 504 0 72 73 67 -.014 .0107495
7043532146 .0080829037686548 18 72 378 0 74 69 75 70 ?1 29 73 505 0 75 76 70 -.0
07 .012 .01212435565298214 18 75 367 0 77 72 78 73 ?1 29 76 507 0 78 79 73 -.007
 .012 -.01212435565298214 18 78 375 0 80 75 81 76 ?1 29 79 508 0 81 82 76 .007 .
012 -.01212435565298214 18 81 373 0 83 78 84 79 ?1 29 82 509 0 84 0 79 .014 .012
 0 18 84 371 0 85 81 0 82 ?1 17 85 0 86 33 62 84 87 88 0 89 +15 255 86 422 0 62
 90 0 17 33 0 86 62 85 31 91 92 0 93 -17 62 0 86 85 33 60 94 95 0 87 +17 87 0 96
 53 97 60 85 88 0 98 -16 88 340 0 ?85 95 99 100 99 99 1 17 89 0 101 65 83 84 102
 103 0 91 -15 101 426 0 65 104 0 17 65 0 101 83 89 63 97 99 0 105 +17 83 0 101 8
9 65 81 105 106 0 107 +17 102 0 108 109 91 81 89 103 0 110 +16 103 230 0 ?102 11
1 112 113 112 114 1 17 91 0 108 102 115 84 33 92 0 97 +15 108 4 0 115 116 0 17 1
15 0 108 91 117 31 118 114 0 94 +16 92 323 0 ?91 119 0 120 0 0 1 17 97 0 96 87 1
21 84 65 99 0 0 -15 96 282 0 87 122 0 17 121 0 96 97 123 63 50 124 0 0 -16 99 34
1 0 ?65 88 106 100 88 88 1 16 106 342 0 ?83 99 125 126 125 125 1 38 12 CCCCCCCCC
CCA17 intersection_data204 0 Z100 476 0 99 126 127 0 +128 129 130 131 132 133 38
 126 477 0 125 134 100 0 +135 129 136 137 138 139 38 127 475 0 95 100 140 0 +141
 129 142 143 144 145 50 255 128 132 0 122 135 141 146 +.014 .012 .00808290376865
476 -1 0 0 0 0 1 52 129 466 0 147 148 149 150 +0 .012 0 0 -1 0 .014 .86602540378
444 .5 0 0 1 40 255 5 130 0 1 5 .002311558492384285 .3619004130708945 ??.014 .00
2034883797126445 .02794983138908105 .014 .0095912647193859 .0115854853079373 .01
4 .01196357442266182 .001330611545909132 .014 .0104067954859613 -.00921310015658
288 .014 .00203488379712644 -.02794983138908105 41 3 CI8 term_use0 0 1 cCZ1 131
 L?.014 .002034883797126445 .02794983138908105 41 1 132 L?.014 .0020348837971264
4 -.02794983138908105 204 2 17 INTERSECTION_DATA17 Intersection data7 uv_type0 0
 1 u6 values0 1 1 fT20 133 4 .0198669276204263 -.00996511620287356 5.81881997508
384 .00996511620287356 .003502581539282535 -.002408735280614105 5.40369531779473
 .002408735280614105 -.00675229222274562 -364255773381821e-19 4.80714801734314 3
642557733818185e-20 -.01729600392523765 -.0015932045140387 4.130355563122565 .00
15932045140387 -.03603273515773585 -.00996511620287356 3.60595798568554 .0099651
1620287356 14 255 147 411 151 ?152 153 154 5 129 +153 152 152 153 24 51 255 148
 662 0 155 156 129 0 -0 -.075 0 0 1 0 .01 0 0 1 50 149 3 0 116 129 157 0 +0 .012
 0 0 1 0 0 0 1 141 255 150 140 158 159 129 38 140 474 0 160 127 161 0 +20 129 16
2 163 164 165 141 158 127 166 150 129 141 159 167 150 168 129 38 167 479 0 119 1
20 134 0 +169 129 170 171 172 173 141 168 134 159 174 129 38 134 478 0 175 167 1
26 0 +176 129 177 178 179 180 141 174 126 168 166 129 141 166 100 174 158 129 16
 175 345 0 ?71 181 182 134 181 181 1 50 176 130 0 183 169 135 184 +3106358626868
325e-33 .012 -.01616580753730955 .5 0 .866025403784438 .866025403784439 0 -.5 40
 3 177 0 1 3 .001448370893654324 .3047243637764985 ??2000000000031735e-22 .01074
95037679405 -.01616592300736335 -.00749787104377496 .0119931880594285 -.01183690
967183694 -.0140002 .0107495037679405 -.00808278829860092 41 1 178 L?20000000000
31735e-22 .0107495037679405 -.01616592300736335 41 1 179 L?-.0140002 .0107495037
679405 -.00808278829860092 204 12 180 4 230940107675972e-21 -.001250496232059512
 3.141605025292905 .001250496232059512 -.00865779573094516 -681194057149115e-20
 2.576953224007945 681194057149087e-20 -.0161660384774172 -.00125049623205951 2.
094382730690085 .00125049623205951 14 183 261 185 ?186 187 188 5 176 -0 0 186 18
7 24 50 169 129 0 186 157 176 189 +-.014 .012 -.00808290376865476 1 0 -107308185
6240828e-31 -1073081856240828e-31 0 -1 50 135 131 0 187 176 128 190 +.014 .012 -
.00808290376865476 -.5 0 .866025403784439 .866025403784439 0 .5 141 184 134 184
 184 176 14 187 272 191 ?183 122 192 5 135 -0 0 183 122 24 141 190 126 190 190 1
35 81 1 191 926 193 187 194 0 185 195 196 14 122 283 195 ?187 197 96 5 128 -0 0
 187 197 24 15 192 271 0 105 187 0 13 24 48 0 0 0 0 0 0 9 16 14 16 725 198 ?199
 0 200 5 148 -155 155 199 0 24 81 1 198 928 193 16 201 0 195 202 203 14 199 302
 202 ?197 16 204 5 20 -0 0 197 16 24 15 200 687 0 205 16 28 14 155 649 206 ?207
 116 32 5 148 -16 16 207 116 24 81 1 206 930 193 155 208 0 202 209 210 14 207 65
4 209 ?19 155 211 5 156 +0 0 19 155 24 14 116 236 212 ?155 90 108 5 149 +0 0 155
 90 24 15 32 717 0 30 155 213 17 30 0 32 25 25 11 29 21 0 0 +15 213 653 0 214 15
5 0 17 214 0 213 214 214 0 215 111 0 0 +17 215 0 216 215 215 0 214 111 0 0 -16 1
11 637 0 ?214 217 103 218 0 0 1 16 217 680 0 ?219 220 111 221 0 0 1 31 218 665 0
 111 0 120 0 +0 0 0 0 -1 0 0 0 -1 .01 31 120 492 0 92 218 167 0 +0 .012 0 0 1 0
 0 0 1 .014 17 219 0 211 219 219 0 222 217 0 0 +16 220 686 0 ?205 21 217 22 0 0
 1 31 221 683 0 217 113 22 0 +0 -.075 0 0 -1 0 0 0 -1 .009 31 113 215 0 114 223
 221 0 +0 .012 0 0 1 0 0 0 1 .014 31 22 689 0 220 221 7 0 -0 -.074 0 0 -1 0 0 0
 -1 .01 16 114 213 0 ?115 224 225 113 103 224 1 30 255 223 140 0 225 226 113 0 +
1035452875622774e-33 .012 .01616580753730955 0 -1 0 16 225 286 0 ?56 114 227 223
 0 0 1 30 226 139 0 227 228 223 0 +.014 .012 .00808290376865476 0 -1 0 16 227 27
5 0 ?53 225 124 226 0 0 1 30 228 138 0 124 229 226 0 +.014 .012 -.00808290376865
476 0 -1 0 16 124 264 0 ?50 227 230 228 0 0 1 30 229 137 0 230 231 228 0 +310635
8626868325e-33 .012 -.01616580753730955 0 -1 0 16 230 253 0 ?47 124 232 229 0 0
 1 30 231 136 0 232 233 229 0 +-.014 .012 -.00808290376865476 0 -1 0 16 232 242
 0 ?44 230 234 231 0 0 1 30 233 135 0 234 235 231 0 +-.014 .012 .008082903768654
76 0 -1 0 16 234 239 0 ?41 232 236 233 0 0 1 30 235 99 0 236 237 233 0 +-.014 0
 -.00808290376865476 1073081856240828e-31 0 1 16 236 68 0 ?238 234 239 235 0 0 1
 30 237 100 0 239 240 235 0 +3106358626868325e-33 0 -.01616580753730955 -.866025
403784439 0 .5 16 239 72 0 ?241 236 242 237 0 0 1 30 240 101 0 242 243 237 0 +.0
14 0 -.00808290376865476 -.866025403784439 0 -.5 16 242 76 0 ?244 239 245 240 0
 0 1 30 243 102 0 245 246 240 0 +.014 0 .00808290376865476 0 0 -1 16 245 80 0 ?1
23 242 247 243 0 0 1 30 246 103 0 247 161 243 0 +1035452875622774e-33 0 .0161658
0753730955 .866025403784439 0 -.5 16 247 84 0 ?248 245 249 246 0 0 1 30 161 104
 0 249 140 246 0 +-.014 0 .00808290376865476 .866025403784439 0 .5 16 249 88 0 ?
250 247 251 161 0 0 1 17 250 0 204 252 41 54 253 249 0 0 +16 251 336 0 ?77 249 1
60 140 160 160 1 17 77 0 154 254 74 75 255 251 0 118 +16 160 337 0 ?59 251 256 1
40 251 251 1 17 59 0 257 93 118 57 258 160 0 259 +16 256 338 0 ?93 160 95 127 95
 95 1 17 93 0 257 118 59 31 259 256 0 115 +16 95 339 0 ?62 256 88 127 256 256 1
 15 257 418 0 59 153 0 17 118 0 257 59 93 75 115 114 0 117 -17 259 0 260 56 94 5
7 93 256 0 252 -15 260 293 0 259 197 0 17 56 0 260 248 259 54 252 225 0 261 +17
 94 0 260 259 98 31 62 95 0 0 -17 252 0 204 258 250 57 56 225 0 0 -15 204 301 0
 255 199 0 17 258 0 204 255 252 75 59 160 0 0 -17 255 0 204 41 258 72 77 251 0 2
62 -17 41 0 204 250 255 39 262 234 0 238 +17 262 0 263 264 238 72 41 234 0 0 -15
 263 249 0 265 186 0 17 264 0 263 265 262 34 74 119 0 0 -17 238 0 263 262 44 39
 266 236 0 253 +17 44 0 263 238 265 42 267 232 0 241 +17 266 0 268 269 253 42 23
8 236 0 0 -17 253 0 268 266 261 39 250 249 0 0 -15 268 67 0 253 270 0 17 261 0 2
68 253 271 54 248 247 0 250 -17 271 0 268 261 272 51 123 245 0 0 -17 248 0 260 9
8 56 51 261 247 0 271 +17 98 0 260 94 248 60 53 227 0 0 -17 53 0 96 123 87 51 98
 227 0 248 +17 123 0 96 121 53 48 271 245 0 272 +17 272 0 268 271 269 48 244 242
 0 0 -17 269 0 268 272 266 45 241 239 0 0 -17 244 0 192 273 50 45 272 242 0 269
 +17 273 0 192 110 244 66 47 230 0 0 -17 50 0 192 244 105 48 121 124 0 123 +17 1
05 0 192 50 110 63 83 106 0 121 -17 110 0 192 105 273 81 68 125 0 0 -17 68 0 274
 80 107 66 110 125 0 275 +16 125 343 0 ?68 106 181 126 106 106 1 16 181 344 0 ?8
0 125 175 134 175 175 1 17 80 0 274 107 68 78 275 181 0 276 +15 274 430 0 68 277
 0 17 107 0 274 68 80 81 109 112 0 102 -17 275 0 188 47 278 66 80 181 0 273 -17
 276 0 279 71 280 78 38 281 0 109 -15 279 434 0 71 152 0 17 71 0 279 280 276 69
 278 175 0 265 +17 280 0 279 276 71 34 265 182 0 264 +17 38 0 108 117 109 34 276
 281 0 254 +16 281 222 0 ?38 112 224 113 224 112 1 17 109 0 108 38 102 78 107 11
2 0 278 +16 112 226 0 ?109 103 281 113 281 103 1 17 278 0 188 275 267 78 71 175
 0 0 -15 188 260 0 275 183 0 17 267 0 188 278 241 69 44 232 0 0 -17 241 0 188 26
7 47 42 269 239 0 266 +17 47 0 188 241 275 45 273 230 0 244 +16 224 218 0 ?117 2
81 114 113 114 281 1 17 117 0 108 115 38 75 254 224 0 258 +17 254 0 154 74 77 34
 117 224 0 280 -15 154 414 0 77 147 0 17 74 0 154 77 254 72 264 119 0 255 +16 11
9 335 0 ?74 182 92 167 182 182 1 16 182 346 0 ?280 175 119 167 119 119 1 17 265
 0 263 44 264 69 280 182 0 267 -14 152 431 282 ?277 147 279 5 129 +147 277 277 1
47 24 81 1 282 933 193 152 283 0 212 284 285 14 277 427 284 ?104 152 274 5 129 +
152 104 104 152 24 81 1 284 934 193 277 286 0 282 287 288 14 104 423 287 ?90 277
 101 5 129 +277 90 90 277 24 81 1 287 935 193 104 289 0 284 290 291 14 90 419 29
0 ?116 104 86 5 129 +104 153 116 104 24 81 1 290 936 193 90 292 0 287 293 294 14
 153 415 293 ?147 270 257 5 129 +90 147 147 270 24 81 1 293 937 193 153 295 0 29
0 296 297 14 270 66 296 ?153 186 216 5 157 -0 0 153 186 24 81 1 296 938 193 270
 298 0 293 299 300 14 186 250 299 ?270 183 263 5 169 -0 0 270 183 24 15 216 639
 0 215 270 268 50 157 98 0 270 149 169 0 +0 0 0 0 1 0 0 0 1 81 1 299 939 193 186
 301 0 296 302 303 80 255 1 193 304 305 9000 1 1 1 1 1 1 1 1 0 FFFFTFTFFFFFFF1 8
1 1 301 870 306 186 0 299 307 298 308 81 1 302 940 193 197 309 0 299 310 311 82
 255 1 303 -386989970 14 197 294 302 ?122 199 260 5 141 -0 0 122 199 24 81 1 309
 866 306 197 0 302 312 313 314 81 1 310 941 193 19 315 0 302 0 316 82 1 311 -377
814930 14 19 698 310 ?0 207 317 5 6 +0 0 0 207 24 81 1 315 881 306 19 0 310 318
 0 319 82 1 316 1516437619 80 1 306 0 320 8001 0 0 0 0 3 5 0 0 0 FFFFTFTFFFFFFF2
 81 1 318 880 306 207 0 209 208 315 321 83 255 3 319 1 .870588235294118 .5294117
64705882 81 1 209 931 193 207 318 0 206 212 322 81 1 208 879 306 155 0 206 323 3
18 324 83 3 321 1 .870588235294118 .529411764705882 81 1 323 878 306 116 0 212 2
92 208 325 83 3 324 1 .870588235294118 .529411764705882 81 1 212 932 193 116 323
 0 209 282 326 81 1 292 877 306 90 0 290 289 323 327 83 3 325 1 .870588235294118
 .529411764705882 81 1 289 876 306 104 0 287 286 292 328 83 3 327 1 .87058823529
4118 .529411764705882 81 1 286 875 306 277 0 284 283 289 329 83 3 328 1 .8705882
35294118 .529411764705882 81 1 283 874 306 152 0 282 330 286 331 83 3 329 1 .870
588235294118 .529411764705882 81 1 330 873 306 147 0 151 295 283 332 83 3 331 1
 .870588235294118 .529411764705882 81 1 151 924 193 147 330 0 0 185 333 81 1 295
 872 306 153 0 293 298 330 334 83 3 332 1 .870588235294118 .529411764705882 81 1
 298 871 306 270 0 296 301 295 335 83 3 334 1 .870588235294118 .529411764705882
 83 3 335 1 .870588235294118 .529411764705882 81 1 185 925 193 183 307 0 151 191
 336 82 1 333 -388497298 81 1 307 869 306 183 0 185 194 301 337 82 1 336 -381157
266 81 1 194 868 306 187 0 191 313 307 338 83 3 337 1 .870588235294118 .52941176
4705882 81 1 313 867 306 122 0 195 309 194 339 83 3 338 1 .870588235294118 .5294
11764705882 81 1 195 927 193 122 313 0 191 198 340 83 3 339 1 .870588235294118 .
529411764705882 82 1 340 -378929042 82 1 326 -395968402 82 1 322 1120141427 79 2
55 15 320 SDL/TYSA_COLOUR15 317 699 0 341 19 342 17 341 0 317 341 341 0 205 220
 0 0 -15 342 700 0 222 19 0 17 222 0 342 222 222 0 219 217 0 0 -17 205 0 200 205
 205 0 341 220 0 0 +81 1 312 865 306 199 0 202 201 309 343 83 3 314 1 .870588235
294118 .529411764705882 81 1 202 929 193 199 312 0 198 206 344 81 1 201 864 306
 16 0 198 0 312 345 83 3 343 1 .870588235294118 .529411764705882 83 3 345 1 1 1
 82 1 344 -377028498 50 141 133 0 197 128 20 346 +1035452875622774e-33 .012 .016
16580753730955 -.5 0 -.866025403784438 -.866025403784439 0 .5 50 20 134 0 199 14
1 6 347 +-.014 .012 .00808290376865476 .5 0 -.866025403784439 -.866025403784439
 0 -.5 141 346 127 346 346 141 141 347 140 347 347 20 83 3 308 1 .87058823529411
8 .529411764705882 79 14 305 SWEntUnchanged82 1 300 544276593 82 1 297 -38895605
0 82 1 294 -389808018 82 1 291 -390659986 82 1 288 -391511954 82 1 285 -39236392
2 16 21 720 0 ?30 10 220 7 10 10 1 15 211 681 0 219 207 0 17 29 0 28 26 26 27 30
 21 0 0 -15 28 724 0 26 16 0 50 156 664 0 207 0 148 0 +0 -.075 0 0 -1 0 0 0 -1 8
2 1 210 1122107511 82 1 203 -994508681 82 1 196 -380043154 141 189 167 189 189 1
69 40 5 170 0 1 5 .002311558492384285 .361900413070895 ??-.014 .0020348837971264
45 -.02794983138908105 -.014 .0095912647193859 -.0115854853079373 -.014 .0119635
7442266182 -.001330611545909134 -.014 .0104067954859613 .00921310015658288 -.014
 .00203488379712644 .02794983138908105 41 1 171 L?-.014 .002034883797126445 -.02
794983138908105 41 1 172 L?-.014 .00203488379712644 .02794983138908105 204 20 17
3 4 .0198669276204263 -.00996511620287356 2.677227321494045 .00996511620287356 .
003502581539282535 -.002408735280614105 2.26210266420493 .002408735280614105 -.0
0675229222274562 -364255773381804e-19 1.665555363753345 3642557733818085e-20 -.0
1729600392523765 -.001593204514038695 .988762909532769 .001593204514038695 -.036
03273515773585 -.00996511620287356 .464365332095748 .00996511620287356 40 3 162
 0 1 3 .001448370893654324 .3047243637764985 ??-.0140002 .0107495037679405 .0080
8278829860092 -.00650212895622503 .0119931880594285 .01241180163412734 200000000
0012555e-22 .0107495037679405 .01616592300736335 41 1 163 L?-.0140002 .010749503
7679405 .00808278829860092 41 1 164 L?2000000000012555e-22 .0107495037679405 .01
616592300736335 204 12 165 4 230940107676387e-21 -.00125049623205951 1.047209922
89971 .00125049623205951 -.00865779573094515 -681194057149115e-20 .4825581216147
48 681194057149187e-20 -.0161660384774172 -.001250496232059512 6.28317293547647
 .001250496232059512 141 146 100 146 146 128 40 3 142 0 1 3 .001448370893654324
 .3047243637764985 ??-199999999999032e-21 .0107495037679405 .01616592300736335 .
00749787104377497 .0119931880594285 .01183690967183694 .0140002 .010749503767940
5 .00808278829860092 41 1 143 L?-199999999999032e-21 .0107495037679405 .01616592
300736335 41 1 144 L?.0140002 .0107495037679405 .00808278829860092 204 12 145 4
 230940107675972e-21 -.001250496232059512 123717031126358e-19 .00125049623205951
2 -.00865779573094516 -681194057148941e-20 5.71854587759774 681194057148987e-20
 -.0161660384774172 -.00125049623205951 5.23597538427988 .00125049623205951 40 3
 136 0 1 3 .001448370893654322 .304724363776499 ??.0140002 .0107495037679405 -.0
0808278829860093 .00650212895622503 .0119931880594285 -.01241180163412734 -19999
9999998708e-21 .0107495037679405 -.01616592300736335 41 1 137 L?.0140002 .010749
5037679405 -.00808278829860093 41 1 138 L?-199999999998708e-21 .0107495037679405
 -.01616592300736335 204 12 139 4 230940107676387e-21 -.00125049623205951 4.1888
02576489505 .00125049623205951 -.00865779573094515 -681194057149462e-20 3.624150
77520454 681194057149287e-20 -.0161660384774172 -.001250496232059514 3.141580281
88668 .001250496232059514 19 17 142 0 1 0 9 5 S0 81 2 18 706 348 6 0 0 0 0 349 3
50 80 2 348 351 352 8044 0 0 0 0 3 5 0 0 0 FFFFTFFFTTFFFF3 2 84 255 6 349 BAAAAB
83 3 350 0 .001 .001 79 17 352 SDL/TYSA_BLEND_ID74 4 CI16 index_map_offset0 0 1
 dCCZ20 15 10 0 0 310 353 354 18 355 356 357 13 315 2 0 0 0 0 0 0 0 0 0 0 81 2 3
53 669 358 1 0 354 0 0 0 359 81 2 354 673 360 1 353 355 0 0 0 361 81 1 355 746 3
62 1 354 356 0 0 363 81 2 356 766 364 1 355 357 0 0 365 0 81 2 357 839 366 1 356
 13 0 0 0 367 81 2 13 861 368 1 357 2 0 0 0 0 80 2 368 369 370 9000 0 0 0 0 3 5
 0 0 0 FFTFFFFFFFFFFF9 1 79 16 370 BODY_RECIPE_200180 2 366 371 372 9000 0 0 0 0
 3 5 0 0 0 FFTFFFFFFFFFFF9 1 82 1 367 1 79 24 372 BODY_IN_LIGHTWEIGHT_PERM80 2 3
64 373 374 8004 0 0 0 0 3 5 0 0 0 FFTFFFFFFFFFFF2 3 83 1 365 1 79 16 374 SDL/TYS
A_DENSITY80 1 362 375 376 9000 1 1 1 1 1 1 1 1 0 FFTFFFFFFFFFFF1 82 1 363 204789
 79 10 376 BODY_MATCH80 2 360 377 378 9000 0 0 0 0 3 5 0 0 0 FFTFFFFFFFFFFF9 1 8
2 1 361 59 79 30 378 LAST_BODY_MODIFYING_FEATURE_ID80 2 358 379 380 9000 0 0 0 0
 3 5 0 0 0 FFTFFFFFFFFFFF9 1 82 1 359 114 79 19 380 ENT_TIME_STAMP_200180 2 12 3
81 382 9000 0 0 0 0 3 5 0 0 0 FFTFFFFFFFFFFF9 1 82 1 14 104 79 12 382 ATOM_ID_20
011 0 
