**ABCDEFGHIJKLMNOPQRSTUVWXYZabcdefghijklmnopqrstuvwxyz**************************
**PARASOLID !"#$%&'()*+,-./:;<=>?@[\]^_`{|}~0123456789**************************
**PART1;
MC=AMD64;
MC_MODEL=Intel64 Family 6 Model 142 Stepping 12, GenuineIntel;
MC_ID=unknown;
OS=Windows_NT;
OS_RELEASE=unknown;
FRU=Parasolid Version 33.1, build 247,  8- 6-2021;
APPL=SOLIDWORKS 2022-2022009;
SITE=;
USER=unknown;
FORMAT=text;
GUISE=transmit;
KEY=FILEFlange.x_t;
DATE=Thu Jun 15 06:20:52 2023;
**PART2;
SCH=SCH_3301247_33103;
USFLD_SIZE=0;
**PART3;
**END_OF_HEADER*****************************************************************
T51 : TRANSMIT FILE created by modeller version 330124723 SCH_3301247_33103_1300
6230 0 12 35 CCCI7 lattice222 0 CCCI4 mesh1006 0 I8 polyline1008 0 CCCCCCCDI5 ow
ner1040 0 CCCCCCI13 boundary_mesh1006 0 I17 boundary_polyline1008 0 CCCA16 index
_map_offset0 0 1 dA9 index_map82 0 A17 node_id_index_map82 0 A20 schema_embeddin
g_map82 0 A5 child12 0 A14 lowest_node_id0 0 1 dA16 mesh_offset_data206 0 Z1 568
 2 3 0 0 0 0 0 0 0 1e3 1e-8 0 4 0 1 0 1 1 5 6 7 0 0 0 8 9 0 0 0 0 0 0 0 0 81 255
 2 2 555 10 1 11 0 0 0 0 12 70 11 CI9 list_type0 0 1 uI10 notransmit0 0 1 lCCCDC
CDI12 finger_index0 0 1 dI12 finger_block1012 0 CZ3 0 4 T1 0 0 9 20 1 13 13 13 2
55 5 31 0 1 0 14 0 0 15 0 54 255 6 428 0 16 17 0 0 +0 0 .025 0 0 1 .063 .003 1 0
 0 31 255 7 412 0 9 18 0 0 -0 0 .022 0 0 1 1 0 0 .063 19 8 CCCCCCCA5 owner12 0 Z
8 9 0 1 15 0 19 V0 16 255 9 409 0 ?20 0 21 7 0 0 1 17 255 20 0 22 20 20 0 23 9 0
 0 +16 21 403 0 ?24 9 25 18 0 0 1 17 24 0 26 24 24 0 27 21 0 0 +16 25 5 0 ?28 21
 29 30 0 0 1 31 18 406 0 21 31 7 0 +0 0 .025 0 0 1 1 0 0 .06 31 31 25 0 29 30 18
 0 +0 0 0 0 0 1 1 0 0 .11 16 29 20 0 ?32 25 33 31 0 0 1 31 30 7 0 25 34 31 0 +0
 0 .022 0 0 1 1 0 0 .11 31 34 84 0 33 35 30 0 +0 0 .142 0 0 1 1 0 0 .06 16 33 64
 0 ?36 29 37 34 0 0 1 31 35 133 0 38 39 34 0 +0 0 .142 0 0 1 1 0 0 .05 16 38 114
 0 ?40 37 41 35 0 0 1 31 39 134 0 37 42 35 0 +0 0 0 0 0 1 1 0 0 .05 16 37 111 0
 ?43 33 38 39 0 0 1 31 42 356 0 44 45 39 0 +-.0736121593216701 -.042500000000004
2 .022 0 0 1 1 0 0 .0100000000000089 16 44 258 0 ?46 47 48 42 0 0 1 31 45 357 0
 47 49 42 0 +-.0736121593216701 -.0425000000000042 0 0 0 1 1 0 0 .01000000000000
89 16 47 255 0 ?50 51 44 45 0 0 1 31 49 358 0 51 52 45 0 +963215271295911e-29 -.
085 .022 0 0 1 1 0 0 .01000000000000978 16 51 276 0 ?53 54 47 49 0 0 1 31 52 359
 0 54 55 49 0 +963215271295911e-29 -.085 0 0 0 1 1 0 0 .01000000000000978 16 54
 273 0 ?56 57 51 52 0 0 1 31 55 360 0 57 58 52 0 +.0736121593216845 -.0424999999
9999585 .022 0 0 1 1 0 0 .01000000000000606 16 57 294 0 ?59 60 54 55 0 0 1 31 58
 361 0 60 61 55 0 +.0736121593216845 -.04249999999999585 0 0 0 1 1 0 0 .01000000
000000606 16 60 291 0 ?62 63 57 58 0 0 1 31 61 362 0 63 64 58 0 +.07361215932167
97 .0425000000000042 .022 0 0 1 1 0 0 .01000000000000128 16 63 312 0 ?65 66 60 6
1 0 0 1 31 64 363 0 66 67 61 0 +.0736121593216797 .0425000000000042 0 0 0 1 1 0
 0 .01000000000000128 16 66 309 0 ?68 69 63 64 0 0 1 31 67 364 0 70 71 64 0 +-.0
736121593216749 .0424999999999958 .022 0 0 1 1 0 0 .0100000000000045 16 70 240 0
 ?72 48 0 67 0 0 1 31 71 365 0 48 73 67 0 +-.0736121593216749 .0424999999999958
 0 0 0 1 1 0 0 .0100000000000045 16 48 237 0 ?74 44 70 71 0 0 1 31 73 366 0 69 7
5 71 0 +0 .085 .022 0 0 1 1 0 0 .01 16 69 222 0 ?76 41 66 73 0 0 1 31 75 367 0 4
1 0 73 0 +0 .085 0 0 0 1 1 0 0 .01 16 41 219 0 ?77 38 69 75 0 0 1 17 77 0 78 77
 77 0 79 41 0 0 +15 255 78 177 0 77 80 81 17 79 0 82 79 79 0 77 41 0 0 -15 82 22
8 0 79 83 84 14 255 83 225 85 ?16 86 82 5 87 -0 0 16 86 19 15 84 229 0 76 83 0 1
7 76 0 84 76 76 0 88 69 0 0 +17 88 0 89 88 88 0 76 69 0 0 -15 89 214 0 88 90 91
 14 90 1 92 ?80 14 22 5 93 +0 0 80 14 19 15 91 208 0 94 90 95 17 94 0 91 94 94 0
 72 70 0 0 -15 95 202 0 96 90 97 17 96 0 95 96 96 0 46 44 0 0 -15 97 196 0 98 90
 99 17 98 0 97 98 98 0 53 51 0 0 -15 99 190 0 100 90 101 17 100 0 99 100 100 0 5
9 57 0 0 -15 101 184 0 102 90 103 17 102 0 101 102 102 0 65 63 0 0 -15 103 4 0 2
8 90 0 17 28 0 103 28 28 0 104 25 0 0 +17 104 0 105 104 104 0 28 25 0 0 -15 105
 26 0 104 14 106 14 14 27 107 ?90 0 105 5 17 -0 0 90 0 19 15 106 28 0 32 14 0 17
 32 0 106 32 32 0 108 29 0 0 +17 108 0 109 108 108 0 32 29 0 0 -15 109 19 0 108
 80 0 14 80 18 110 ?111 90 78 5 112 -0 0 111 90 19 81 1 110 559 113 80 114 0 107
 115 116 14 111 67 115 ?117 80 26 5 118 -0 0 117 80 19 50 255 112 24 0 80 93 17
 0 +0 0 0 0 0 1 1 0 0 13 19 10 0 0 0 0 0 0 8 14 50 93 3 0 90 118 112 0 +0 0 .022
 0 0 1 1 0 0 51 255 17 30 0 14 112 6 0 -0 0 .022 0 0 -1 .11 -1 0 0 51 118 80 0 1
11 119 93 0 -0 0 .142 0 0 -1 .06 -1 0 0 50 119 82 0 117 120 118 0 +0 0 .142 0 0
 1 1 0 0 14 117 72 121 ?122 111 123 5 119 +0 0 122 111 19 51 120 130 0 122 124 1
19 0 +0 0 0 0 0 1 .05 1 0 0 14 122 117 125 ?126 117 127 5 120 -0 0 126 117 19 51
 124 338 0 128 129 120 0 +-.0736121593216701 -.0425000000000042 0 0 0 1 .0100000
000000089 1 0 0 14 128 261 130 ?86 131 132 5 124 -0 0 86 131 19 51 129 341 0 131
 133 124 0 +963215271295911e-29 -.085 0 0 0 1 .01000000000000978 1 0 0 14 131 27
9 134 ?128 135 136 5 129 -0 0 128 135 19 51 133 344 0 135 137 129 0 +.0736121593
216845 -.04249999999999585 0 0 0 1 .01000000000000606 1 0 0 14 135 297 138 ?131
 126 139 5 133 -0 0 131 126 19 51 137 347 0 126 140 133 0 +.0736121593216797 .04
25000000000042 0 0 0 1 .01000000000000128 1 0 0 14 126 315 141 ?135 122 142 5 13
7 -0 0 135 122 19 51 140 350 0 86 87 137 0 +-.0736121593216749 .0424999999999958
 0 0 0 1 .0100000000000045 1 0 0 14 86 243 143 ?83 128 144 5 140 -0 0 83 128 19
 51 87 353 0 83 0 140 0 +0 .085 0 0 0 1 .01 1 0 0 81 1 143 567 113 86 145 0 141
 146 147 15 144 246 0 148 86 149 17 148 0 144 148 148 0 74 48 0 0 -15 149 247 0
 72 86 0 17 72 0 149 72 72 0 94 70 0 0 +17 74 0 81 74 74 0 148 48 0 0 +15 81 171
 0 74 80 150 15 150 165 0 50 80 151 17 50 0 150 50 50 0 152 47 0 0 +15 151 159 0
 56 80 153 17 56 0 151 56 56 0 154 54 0 0 +15 153 153 0 62 80 155 17 62 0 153 62
 62 0 156 60 0 0 +15 155 147 0 68 80 157 17 68 0 155 68 68 0 158 66 0 0 +15 157
 105 0 43 80 109 17 43 0 157 43 43 0 159 37 0 0 +17 159 0 127 159 159 0 43 37 0
 0 -15 127 120 0 159 122 160 15 160 121 0 40 122 0 17 40 0 160 40 40 0 161 38 0
 0 +17 161 0 123 161 161 0 40 38 0 0 -15 123 100 0 161 117 162 15 162 74 0 36 11
7 0 17 36 0 162 36 36 0 163 33 0 0 +17 163 0 164 163 163 0 36 33 0 0 -15 164 70
 0 163 111 0 17 158 0 142 158 158 0 68 66 0 0 -15 142 318 0 158 126 165 15 165 3
19 0 65 126 0 17 65 0 165 65 65 0 102 63 0 0 +17 156 0 139 156 156 0 62 60 0 0 -
15 139 300 0 156 135 166 15 166 301 0 59 135 0 17 59 0 166 59 59 0 100 57 0 0 +1
7 154 0 136 154 154 0 56 54 0 0 -15 136 282 0 154 131 167 15 167 283 0 53 131 0
 17 53 0 167 53 53 0 98 51 0 0 +17 152 0 132 152 152 0 50 47 0 0 -15 132 264 0 1
52 128 168 15 168 265 0 46 128 0 17 46 0 168 46 46 0 96 44 0 0 +80 255 1 113 169
 170 9000 1 1 1 1 1 1 1 1 0 FFFFTFTFFFFFFF1 81 1 145 525 171 86 0 143 172 173 17
4 81 1 141 566 113 126 175 0 138 143 176 81 1 146 568 113 16 177 0 143 0 178 82
 255 1 147 -1027932048 14 16 421 146 ?0 83 179 5 6 -0 0 0 83 19 81 1 177 527 171
 16 0 146 173 0 180 82 1 178 -433848206 80 1 171 0 181 8001 0 0 0 0 3 5 0 0 0 FF
FFTFTFFFFFFF2 81 1 173 526 171 83 0 85 145 177 182 83 255 3 180 .776470588235294
 .756862745098039 .737254901960784 81 1 85 556 113 83 173 0 0 92 183 83 3 182 .7
76470588235294 .756862745098039 .737254901960784 81 1 92 557 113 90 184 0 85 107
 185 82 1 183 -1047658384 81 1 184 516 171 90 0 92 186 114 187 81 1 107 558 113
 14 186 0 92 110 188 82 1 185 179830898 81 1 186 515 171 14 0 107 0 184 189 82 1
 188 181796967 83 3 189 .776470588235294 .756862745098039 .737254901960784 81 1
 114 517 171 80 0 110 184 190 191 83 3 187 .776470588235294 .756862745098039 .73
7254901960784 81 1 190 518 171 111 0 115 114 192 193 83 3 191 .776470588235294 .
756862745098039 .737254901960784 81 1 115 560 113 111 190 0 110 121 194 81 1 192
 519 171 117 0 121 190 195 196 83 3 193 .776470588235294 .756862745098039 .73725
4901960784 81 1 121 561 113 117 192 0 115 125 197 81 1 195 520 171 122 0 125 192
 175 198 83 3 196 .776470588235294 .756862745098039 .737254901960784 81 1 125 56
2 113 122 195 0 121 130 199 81 1 175 521 171 126 0 141 195 200 201 83 3 198 .776
470588235294 .756862745098039 .737254901960784 81 1 200 522 171 135 0 138 175 20
2 203 83 3 201 .776470588235294 .756862745098039 .737254901960784 81 1 138 565 1
13 135 200 0 134 141 204 81 1 202 523 171 131 0 134 200 172 205 83 3 203 .776470
588235294 .756862745098039 .737254901960784 81 1 134 564 113 131 202 0 130 138 2
06 81 1 172 524 171 128 0 130 202 145 207 83 3 205 .776470588235294 .75686274509
8039 .737254901960784 81 1 130 563 113 128 172 0 125 134 208 83 3 207 .776470588
235294 .756862745098039 .737254901960784 82 1 208 -1031864208 82 1 206 -10357963
68 82 1 204 -1039728528 82 1 199 -1580138387 82 1 197 1283981421 82 1 194 128594
7506 79 255 15 181 SDL/TYSA_COLOUR15 179 422 0 23 16 209 17 23 0 179 23 23 0 20
 9 0 0 -15 209 423 0 27 16 0 17 27 0 209 27 27 0 24 21 0 0 -82 1 176 -1043660688
 83 3 174 .776470588235294 .756862745098039 .737254901960784 79 14 170 SWEntUnch
anged15 26 404 0 24 111 164 82 1 116 181534832 15 22 410 0 20 90 89 19 15 32 0 1
 0 8 5 S0 74 4 CI16 index_map_offset0 0 1 dCCZ20 13 9 0 0 146 210 211 212 213 21
4 11 177 2 0 0 0 0 0 0 0 0 0 0 0 81 2 210 87 215 1 0 211 0 0 0 216 81 2 211 91 2
17 1 210 212 0 0 0 218 81 1 212 434 219 1 211 213 0 0 220 81 2 213 449 221 1 212
 214 0 0 222 0 81 2 214 495 223 1 213 11 0 0 0 224 81 2 11 512 225 1 214 2 0 0 0
 0 80 2 225 226 227 9000 0 0 0 0 3 5 0 0 0 FFTFFFFFFFFFFF9 1 79 16 227 BODY_RECI
PE_200180 2 223 228 229 9000 0 0 0 0 3 5 0 0 0 FFTFFFFFFFFFFF9 1 82 1 224 1 79 2
4 229 BODY_IN_LIGHTWEIGHT_PERM80 2 221 230 231 8004 0 0 0 0 3 5 0 0 0 FFTFFFFFFF
FFFF2 3 83 1 222 1 79 16 231 SDL/TYSA_DENSITY80 1 219 232 233 9000 1 1 1 1 1 1 1
 1 0 FFTFFFFFFFFFFF1 82 1 220 2742 79 10 233 BODY_MATCH80 2 217 234 235 9000 0 0
 0 0 3 5 0 0 0 FFTFFFFFFFFFFF9 1 82 1 218 67 79 30 235 LAST_BODY_MODIFYING_FEATU
RE_ID80 2 215 236 237 9000 0 0 0 0 3 5 0 0 0 FFTFFFFFFFFFFF9 1 82 1 216 111 79 1
9 237 ENT_TIME_STAMP_200180 2 10 238 239 9000 0 0 0 0 3 5 0 0 0 FFTFFFFFFFFFFF9
 1 82 1 12 104 79 12 239 ATOM_ID_20011 0 
