**ABCDEFGHIJKLMNOPQRSTUVWXYZabcdefghijklmnopqrstuvwxyz**************************
**PARASOLID !"#$%&'()*+,-./:;<=>?@[\]^_`{|}~0123456789**************************
**PART1;
MC=AMD64;
MC_MODEL=Intel64 Family 6 Model 142 Stepping 12, GenuineIntel;
MC_ID=unknown;
OS=Windows_NT;
OS_RELEASE=unknown;
FRU=Parasolid Version 33.1, build 247,  8- 6-2021;
APPL=SOLIDWORKS 2022-2022009;
SITE=;
USER=unknown;
FORMAT=text;
GUISE=transmit;
KEY=FILEFlange Coupling.x_t;
DATE=Thu Jun 15 06:21:05 2023;
**PART2;
SCH=SCH_3301247_33103;
USFLD_SIZE=0;
**PART3;
**END_OF_HEADER*****************************************************************
T51 : TRANSMIT FILE created by modeller version 330124723 SCH_3301247_33103_1300
6230 0 10 21 CCCCI7 lattice222 0 CCCI4 mesh1006 0 I8 polyline1008 0 CCCCCCCCCCA1
6 mesh_offset_data206 0 Z1 29 2 3 0 0 0 0 0 0 0 0 1e3 1e-8 0 0 0 1 0 1 4 0 81 25
5 1 2 29 5 1 0 0 0 0 0 70 11 CI9 list_type0 0 1 uI10 notransmit0 0 1 lCCCDCCDI12
 finger_index0 0 1 dI12 finger_block1012 0 CZ3 0 4 T1 0 0 1 20 1 6 6 11 255 4 27
 0 1 7 8 1 9 0 9 0 12 35 CCCI7 lattice222 0 CCCI4 mesh1006 0 I8 polyline1008 0 C
CCCCCCDI5 owner1040 0 CCCCCCI13 boundary_mesh1006 0 I17 boundary_polyline1008 0
 CCCA16 index_map_offset0 0 1 dA9 index_map82 0 A17 node_id_index_map82 0 A20 sc
hema_embedding_map82 0 A5 child12 0 A14 lowest_node_id0 0 1 dA16 mesh_offset_dat
a206 0 Z7 1370 10 11 0 0 0 0 0 0 0 1e3 1e-8 4 12 0 1 0 1 1 13 14 15 16 0 0 17 18
 19 0 0 0 0 0 0 0 100 10 CCCCCCCCCA9 precision229 0 Z8 28 4 0 0 .095587003059317
2 0 -.995421079165063 .995421079165063 0 .0955870030593172 0 -1 0 -.029076904976
28365 .119823077328658 .115168562113026 1 3 ?0 11 9 25 0 1 7 20 1 21 4 21 4 100
 20 26 9 0 0 -.814266440489808 0 -.580491312503519 .580491312503519 0 -.81426644
0489808 0 -1 0 -.0290769049762845 .03482307732865785 .115168562113026 1 3 ?0 11
 21 23 0 1 7 22 1 23 9 23 9 100 22 24 21 0 0 -.909853443549122 0 .41492976666154
6 -.414929766661546 0 -.909853443549122 0 -1 0 .04453525434539255 -.007676922671
34279 .115168562113026 1 3 ?0 11 23 21 0 1 7 24 1 25 21 25 21 100 24 22 23 0 0 -
.0955870030593102 0 .995421079165063 -.995421079165063 0 -.0955870030593102 0 -1
 0 .1181474136670702 .03482307732865685 .115168562113026 1 3 ?0 11 25 19 0 1 7 2
6 1 27 23 28 23 100 26 20 25 0 0 .814266440489812 0 .580491312503513 -.580491312
503513 0 .814266440489812 0 -1 0 .1181474136670704 .119823077328657 .11516856211
3026 1 3 ?0 11 27 17 0 1 12 29 1 30 25 30 0 12 12 921 31 32 0 0 0 0 0 0 0 1e3 1e
-8 27 33 7 1 0 1 1 34 35 36 37 0 0 38 39 40 0 0 0 0 0 0 0 100 29 18 27 0 0 -.726
7164275932 0 .686937576396995 .686937576396995 0 .7267164275932 0 1 0 -.02907690
49762837 .119823077328658 .165168562113026 1 3 ?0 11 30 15 0 1 12 41 1 42 27 42
 27 100 41 16 30 0 0 -.958263605770511 0 -.285886099444691 -.285886099444691 0 .
958263605770511 0 1 0 -.02907690497628465 .0348230773286578 .165168562113026 1 3
 ?0 11 42 13 0 1 12 43 1 44 30 44 30 100 43 14 42 0 0 -.2315471781773065 0 -.972
823675841684 -.972823675841684 0 .2315471781773065 0 1 0 .0445352543453925 -.007
67692267134287 .165168562113026 1 3 ?0 11 44 11 0 1 12 45 1 46 42 46 42 100 45 1
2 44 0 0 .726716427593205 0 -.68693757639699 -.68693757639699 0 -.72671642759320
5 0 1 0 .1181474136670702 .0348230773286568 .165168562113026 1 3 ?0 11 46 9 0 1
 12 47 1 28 44 48 44 100 47 10 46 0 0 .958263605770509 0 .285886099444698 .28588
6099444698 0 -.958263605770509 0 1 0 .1181474136670704 .119823077328657 .1651685
62113026 1 3 ?0 11 28 7 0 1 7 49 1 48 46 0 25 100 49 8 28 0 0 .909853443549119 0
 -.4149297666615525 .4149297666615525 0 .909853443549119 0 -1 0 .044535254345393
1 .162323077328657 .115168562113026 1 3 ?0 11 48 5 0 1 12 50 1 51 28 0 46 100 50
 6 48 0 0 .2315471781772995 0 .972823675841686 .972823675841686 0 -.231547178177
2995 0 1 0 .0445352543453931 .162323077328657 .165168562113026 1 3 ?0 11 51 3 0
 1 33 52 1 53 48 53 0 12 33 553 54 55 0 0 0 0 0 0 0 1e3 1e-8 51 56 12 1 0 1 1 57
 58 59 0 0 0 60 61 0 0 0 0 0 0 0 0 100 52 4 51 0 0 -1 555111512312581e-31 0 5551
11512312578e-31 1 0 0 0 -1 .0445352543453931 .0773230773286571 .143168562113026
 1 3 ?0 11 53 1 0 1 33 62 1 0 51 0 51 100 62 2 53 0 0 1 0 0 0 1 0 0 0 1 .0445352
543453931 .0773230773286572 .143168562113026 1 1 ?0 81 1 54 553 5 33 63 0 0 0 64
 70 55 0 4 T33 0 0 4 20 1 65 65 13 255 57 31 0 33 0 66 0 0 67 0 54 255 58 428 0
 68 69 0 0 +0 0 .025 0 0 1 .063 .003 1 0 0 31 255 59 412 0 61 70 0 0 -0 0 .022 0
 0 1 1 0 0 .063 19 8 CCCCCCCA5 owner12 0 Z60 9 0 33 67 0 71 V0 16 255 61 409 0 ?
72 0 73 59 0 0 33 17 255 72 0 74 72 72 0 75 61 0 0 +16 73 403 0 ?76 61 77 70 0 0
 33 17 76 0 78 76 76 0 79 73 0 0 +16 77 5 0 ?80 73 81 82 0 0 33 31 70 406 0 73 8
3 59 0 +0 0 .025 0 0 1 1 0 0 .06 31 83 25 0 81 82 70 0 +0 0 0 0 0 1 1 0 0 .11 16
 81 20 0 ?84 77 85 83 0 0 33 31 82 7 0 77 86 83 0 +0 0 .022 0 0 1 1 0 0 .11 31 8
6 84 0 85 87 82 0 +0 0 .142 0 0 1 1 0 0 .06 16 85 64 0 ?88 81 89 86 0 0 33 31 87
 133 0 90 91 86 0 +0 0 .142 0 0 1 1 0 0 .05 16 90 114 0 ?92 89 93 87 0 0 33 31 9
1 134 0 89 94 87 0 +0 0 0 0 0 1 1 0 0 .05 16 89 111 0 ?95 85 90 91 0 0 33 31 94
 356 0 96 97 91 0 +-.0736121593216701 -.0425000000000042 .022 0 0 1 1 0 0 .01000
00000000089 16 96 258 0 ?98 99 100 94 0 0 33 31 97 357 0 99 101 94 0 +-.07361215
93216701 -.0425000000000042 0 0 0 1 1 0 0 .0100000000000089 16 99 255 0 ?102 103
 96 97 0 0 33 31 101 358 0 103 104 97 0 +963215271295911e-29 -.085 .022 0 0 1 1
 0 0 .01000000000000978 16 103 276 0 ?105 106 99 101 0 0 33 31 104 359 0 106 107
 101 0 +963215271295911e-29 -.085 0 0 0 1 1 0 0 .01000000000000978 16 106 273 0
 ?108 109 103 104 0 0 33 31 107 360 0 109 110 104 0 +.0736121593216845 -.0424999
9999999585 .022 0 0 1 1 0 0 .01000000000000606 16 109 294 0 ?111 112 106 107 0 0
 33 31 110 361 0 112 113 107 0 +.0736121593216845 -.04249999999999585 0 0 0 1 1
 0 0 .01000000000000606 16 112 291 0 ?114 115 109 110 0 0 33 31 113 362 0 115 11
6 110 0 +.0736121593216797 .0425000000000042 .022 0 0 1 1 0 0 .01000000000000128
 16 115 312 0 ?117 118 112 113 0 0 33 31 116 363 0 118 119 113 0 +.0736121593216
797 .0425000000000042 0 0 0 1 1 0 0 .01000000000000128 16 118 309 0 ?120 121 115
 116 0 0 33 31 119 364 0 122 123 116 0 +-.0736121593216749 .0424999999999958 .02
2 0 0 1 1 0 0 .0100000000000045 16 122 240 0 ?124 100 0 119 0 0 33 31 123 365 0
 100 125 119 0 +-.0736121593216749 .0424999999999958 0 0 0 1 1 0 0 .010000000000
0045 16 100 237 0 ?126 96 122 123 0 0 33 31 125 366 0 121 127 123 0 +0 .085 .022
 0 0 1 1 0 0 .01 16 121 222 0 ?128 93 118 125 0 0 33 31 127 367 0 93 0 125 0 +0
 .085 0 0 0 1 1 0 0 .01 16 93 219 0 ?129 90 121 127 0 0 33 17 129 0 130 129 129
 0 131 93 0 0 +15 255 130 177 0 129 132 133 17 131 0 134 131 131 0 129 93 0 0 -1
5 134 228 0 131 135 136 14 255 135 225 137 ?68 138 134 57 139 -0 0 68 138 71 15
 136 229 0 128 135 0 17 128 0 136 128 128 0 140 121 0 0 +17 140 0 141 140 140 0
 128 121 0 0 -15 141 214 0 140 142 143 14 142 1 144 ?132 66 74 57 145 +0 0 132 6
6 71 15 143 208 0 146 142 147 17 146 0 143 146 146 0 124 122 0 0 -15 147 202 0 1
48 142 149 17 148 0 147 148 148 0 98 96 0 0 -15 149 196 0 150 142 151 17 150 0 1
49 150 150 0 105 103 0 0 -15 151 190 0 152 142 153 17 152 0 151 152 152 0 111 10
9 0 0 -15 153 184 0 154 142 155 17 154 0 153 154 154 0 117 115 0 0 -15 155 4 0 8
0 142 0 17 80 0 155 80 80 0 156 77 0 0 +17 156 0 157 156 156 0 80 77 0 0 -15 157
 26 0 156 66 158 14 66 27 159 ?142 0 157 57 69 -0 0 142 0 71 15 158 28 0 84 66 0
 17 84 0 158 84 84 0 160 81 0 0 +17 160 0 161 160 160 0 84 81 0 0 -15 161 19 0 1
60 132 0 14 132 18 162 ?163 142 130 57 164 -0 0 163 142 71 81 1 162 542 165 132
 166 0 144 167 168 14 163 67 167 ?169 132 78 57 170 -0 0 169 132 71 50 255 164 2
4 0 132 145 69 0 +0 0 0 0 0 1 1 0 0 13 71 10 0 0 0 0 0 0 60 66 50 145 3 0 142 17
0 164 0 +0 0 .022 0 0 1 1 0 0 51 255 69 30 0 66 164 58 0 -0 0 .022 0 0 -1 .11 -1
 0 0 51 170 80 0 163 171 145 0 -0 0 .142 0 0 -1 .06 -1 0 0 50 171 82 0 169 172 1
70 0 +0 0 .142 0 0 1 1 0 0 14 169 72 173 ?174 163 175 57 171 +0 0 174 163 71 51
 172 130 0 174 176 171 0 +0 0 0 0 0 1 .05 1 0 0 14 174 117 177 ?178 169 179 57 1
72 -0 0 178 169 71 51 176 338 0 180 181 172 0 +-.0736121593216701 -.042500000000
0042 0 0 0 1 .0100000000000089 1 0 0 14 180 261 182 ?138 183 184 57 176 -0 0 138
 183 71 51 181 341 0 183 185 176 0 +963215271295911e-29 -.085 0 0 0 1 .010000000
00000978 1 0 0 14 183 279 186 ?180 187 188 57 181 -0 0 180 187 71 51 185 344 0 1
87 189 181 0 +.0736121593216845 -.04249999999999585 0 0 0 1 .01000000000000606 1
 0 0 14 187 297 190 ?183 178 191 57 185 -0 0 183 178 71 51 189 347 0 178 192 185
 0 +.0736121593216797 .0425000000000042 0 0 0 1 .01000000000000128 1 0 0 14 178
 315 193 ?187 174 194 57 189 -0 0 187 174 71 51 192 350 0 138 139 189 0 +-.07361
21593216749 .0424999999999958 0 0 0 1 .0100000000000045 1 0 0 14 138 243 195 ?13
5 180 196 57 192 -0 0 135 180 71 51 139 353 0 135 0 192 0 +0 .085 0 0 0 1 .01 1
 0 0 81 1 195 550 165 138 197 0 182 137 198 15 196 246 0 199 138 200 17 199 0 19
6 199 199 0 126 100 0 0 -15 200 247 0 124 138 0 17 124 0 200 124 124 0 146 122 0
 0 +17 126 0 133 126 126 0 199 100 0 0 +15 133 171 0 126 132 201 15 201 165 0 10
2 132 202 17 102 0 201 102 102 0 203 99 0 0 +15 202 159 0 108 132 204 17 108 0 2
02 108 108 0 205 106 0 0 +15 204 153 0 114 132 206 17 114 0 204 114 114 0 207 11
2 0 0 +15 206 147 0 120 132 208 17 120 0 206 120 120 0 209 118 0 0 +15 208 105 0
 95 132 161 17 95 0 208 95 95 0 210 89 0 0 +17 210 0 179 210 210 0 95 89 0 0 -15
 179 120 0 210 174 211 15 211 121 0 92 174 0 17 92 0 211 92 92 0 212 90 0 0 +17
 212 0 175 212 212 0 92 90 0 0 -15 175 100 0 212 169 213 15 213 74 0 88 169 0 17
 88 0 213 88 88 0 214 85 0 0 +17 214 0 215 214 214 0 88 85 0 0 -15 215 70 0 214
 163 0 17 209 0 194 209 209 0 120 118 0 0 -15 194 318 0 209 178 216 15 216 319 0
 117 178 0 17 117 0 216 117 117 0 154 115 0 0 +17 207 0 191 207 207 0 114 112 0
 0 -15 191 300 0 207 187 217 15 217 301 0 111 187 0 17 111 0 217 111 111 0 152 1
09 0 0 +17 205 0 188 205 205 0 108 106 0 0 -15 188 282 0 205 183 218 15 218 283
 0 105 183 0 17 105 0 218 105 105 0 150 103 0 0 +17 203 0 184 203 203 0 102 99 0
 0 -15 184 264 0 203 180 219 15 219 265 0 98 180 0 17 98 0 219 98 98 0 148 96 0
 0 +80 255 1 165 0 220 8001 0 0 0 0 3 5 0 0 0 FFFFTFTFFFFFFF2 81 1 197 536 221 1
38 0 195 222 223 224 81 1 182 549 165 180 225 0 186 195 226 81 1 137 551 165 135
 227 0 195 228 229 83 255 3 198 .647058823529412 .619607843137255 .5882352941176
47 81 1 227 514 221 135 0 137 0 230 231 81 1 228 552 165 68 223 0 137 0 232 83 3
 229 .647058823529412 .619607843137255 .588235294117647 14 68 421 228 ?0 135 233
 57 58 -0 0 0 135 71 81 1 223 538 221 68 0 228 197 0 234 83 3 232 .6470588235294
12 .619607843137255 .588235294117647 80 1 221 235 236 9000 1 1 1 1 1 1 1 1 0 FFF
FTFTFFFFFFF1 82 255 1 234 -433848206 79 255 14 236 SWEntUnchanged15 233 422 0 75
 68 237 17 75 0 233 75 75 0 72 61 0 0 -15 237 423 0 79 68 0 17 79 0 237 79 79 0
 76 73 0 0 -81 1 230 516 221 142 0 144 227 238 239 82 1 231 -1047658384 81 1 144
 541 165 142 230 0 159 162 240 81 1 238 518 221 66 0 159 230 166 241 82 1 239 17
9830898 81 1 159 540 165 66 238 0 0 144 242 81 1 166 520 221 132 0 162 238 243 2
44 82 1 241 181796967 81 1 243 522 221 163 0 167 166 245 246 82 1 244 181534832
 81 1 167 543 165 163 243 0 162 173 247 81 1 245 524 221 169 0 173 243 248 249 8
2 1 246 1285947506 81 1 173 544 165 169 245 0 167 177 250 81 1 248 526 221 174 0
 177 245 225 251 82 1 249 1283981421 81 1 177 545 165 174 248 0 173 193 252 81 1
 225 528 221 180 0 182 248 253 254 82 1 251 -1580138387 81 1 253 530 221 183 0 1
86 225 255 256 82 1 254 -1031864208 81 1 186 548 165 183 253 0 190 182 257 81 1
 255 532 221 187 0 190 253 222 258 82 1 256 -1035796368 81 1 190 547 165 187 255
 0 193 186 259 81 1 222 534 221 178 0 193 255 197 260 82 1 258 -1039728528 81 1
 193 546 165 178 222 0 177 190 261 82 1 260 -1043660688 83 3 261 .64705882352941
2 .619607843137255 .588235294117647 83 3 259 .647058823529412 .619607843137255 .
588235294117647 83 3 257 .647058823529412 .619607843137255 .588235294117647 83 3
 252 .647058823529412 .619607843137255 .588235294117647 83 3 250 .64705882352941
2 .619607843137255 .588235294117647 83 3 247 .647058823529412 .619607843137255 .
588235294117647 83 3 242 .647058823529412 .619607843137255 .588235294117647 83 3
 240 .647058823529412 .619607843137255 .588235294117647 83 3 226 .64705882352941
2 .619607843137255 .588235294117647 82 1 224 -1027932048 79 15 220 SDL/TYSA_COLO
UR15 78 404 0 76 163 215 83 3 168 .647058823529412 .619607843137255 .58823529411
7647 15 74 410 0 72 142 141 19 67 32 0 33 0 60 57 S0 74 4 CI16 index_map_offset0
 0 1 dCCZ20 65 4 0 0 223 63 228 54 0 0 0 0 0 0 0 0 0 0 0 0 0 0 0 0 81 2 63 449 2
62 33 0 54 0 0 263 0 80 2 262 264 265 8004 0 0 0 0 3 5 0 0 0 FFTFFFFFFFFFFF2 3 8
3 1 263 1 79 16 265 SDL/TYSA_DENSITY80 1 5 266 267 8017 0 0 0 0 0 0 0 0 0 TTTTTT
TTTTTTTF3 84 255 6 64 Flange79 13 267 SDL/TYSA_NAME81 1 31 921 5 12 268 0 0 0 26
9 70 32 0 4 T12 0 0 5 20 1 270 270 13 34 141 0 12 0 271 0 0 272 0 52 255 35 705
 273 274 275 0 0 +0 -.075 0 0 1 0 .009 .707106781186549 .707106781186546 0 0 1 3
1 36 722 0 276 277 0 0 +0 -.04 0 0 1 0 0 0 1 .01 29 255 37 721 0 40 278 0 .01 -.
04 0 19 38 47 0 12 272 0 279 V0 16 39 723 0 ?280 0 276 36 276 276 12 18 255 40 7
19 0 281 0 282 37 ?12 17 281 0 283 284 284 40 280 39 0 285 -18 282 716 0 280 40
 286 278 ?12 17 280 0 287 285 285 282 281 39 0 284 +18 286 542 0 288 282 289 290
 ?12 29 278 718 0 282 290 37 -.01 -.04 0 29 290 545 0 286 291 278 .007 .012 .012
12435565298214 29 291 538 0 289 292 290 -.014 .012 150231459873716e-32 18 289 53
5 0 293 286 294 291 ?12 29 292 105 0 294 295 291 -.014 0 .00808290376865476 18 2
94 92 0 296 289 297 292 ?12 29 295 106 0 297 298 292 -.014 0 -.00808290376865476
 18 297 93 0 299 294 300 295 ?12 29 298 107 0 300 301 295 3106358626868325e-33 0
 -.01616580753730955 18 300 94 0 302 297 303 298 ?12 29 301 108 0 303 304 298 .0
14 0 -.00808290376865476 18 303 95 0 305 300 306 301 ?12 29 304 109 0 306 307 30
1 .014 0 .00808290376865476 18 306 96 0 308 303 309 304 ?12 29 307 110 0 309 310
 304 1035452875622774e-33 0 .01616580753730955 18 309 97 0 311 306 312 307 ?12 2
9 310 499 0 312 313 307 1052838654171512e-33 .01074957043532144 .016165807537309
55 18 312 379 0 314 309 315 310 ?12 29 313 500 0 315 316 310 .014 .0107495704353
2144 .00808290376865476 18 315 380 0 317 312 318 313 ?12 29 316 501 0 318 319 31
3 .014 .01074957043532144 -.00808290376865476 18 318 381 0 320 315 321 316 ?12 2
9 319 502 0 321 322 316 3088972848334555e-33 .01074957043532144 -.01616580753730
955 18 321 382 0 323 318 324 319 ?12 29 322 503 0 324 325 319 -.014 .01074957043
532144 -.00808290376865476 18 324 383 0 326 321 327 322 ?12 29 325 504 0 327 328
 322 -.014 .01074957043532146 .0080829037686548 18 327 378 0 329 324 330 325 ?12
 29 328 505 0 330 331 325 -.007 .012 .01212435565298214 18 330 367 0 332 327 333
 328 ?12 29 331 507 0 333 334 328 -.007 .012 -.01212435565298214 18 333 375 0 33
5 330 336 331 ?12 29 334 508 0 336 337 331 .007 .012 -.01212435565298214 18 336
 373 0 338 333 339 334 ?12 29 337 509 0 339 0 334 .014 .012 0 18 339 371 0 340 3
36 0 337 ?12 17 340 0 341 288 317 339 342 343 0 344 +15 341 422 0 317 345 0 17 2
88 0 341 317 340 286 346 347 0 348 -17 317 0 341 340 288 315 349 350 0 342 +17 3
42 0 351 308 352 315 340 343 0 353 -16 343 340 0 ?340 350 354 355 354 354 12 17
 344 0 356 320 338 339 357 358 0 346 -15 356 426 0 320 359 0 17 320 0 356 338 34
4 318 352 354 0 360 +17 338 0 356 344 320 336 360 361 0 362 +17 357 0 363 364 34
6 336 344 358 0 365 +16 358 230 0 ?357 366 367 368 367 369 12 17 346 0 363 357 3
70 339 288 347 0 352 +15 363 4 0 370 371 0 17 370 0 363 346 372 286 373 369 0 34
9 +16 347 323 0 ?346 374 0 375 0 0 12 17 352 0 351 342 376 339 320 354 0 0 -15 3
51 282 0 342 377 0 17 376 0 351 352 378 318 305 379 0 0 -16 354 341 0 ?320 343 3
61 355 343 343 12 16 361 342 0 ?338 354 380 381 380 380 12 38 12 CCCCCCCCCCCA17
 intersection_data204 0 Z355 476 0 354 381 382 0 +383 384 385 386 387 388 38 381
 477 0 380 389 355 0 +390 384 391 392 393 394 38 382 475 0 350 355 395 0 +396 38
4 397 398 399 400 50 383 132 0 377 390 396 401 +.014 .012 .00808290376865476 -1
 0 0 0 0 1 52 384 466 0 402 403 404 405 +0 .012 0 0 -1 0 .014 .86602540378444 .5
 0 0 1 40 255 5 385 0 1 5 .002311558492384285 .3619004130708945 ??.014 .00203488
3797126445 .02794983138908105 .014 .0095912647193859 .0115854853079373 .014 .011
96357442266182 .001330611545909132 .014 .0104067954859613 -.00921310015658288 .0
14 .00203488379712644 -.02794983138908105 41 3 CI8 term_use0 0 1 cCZ1 386 L?.014
 .002034883797126445 .02794983138908105 41 1 387 L?.014 .00203488379712644 -.027
94983138908105 204 2 17 INTERSECTION_DATA17 Intersection data7 uv_type0 0 1 u6 v
alues0 1 1 fT20 388 4 .0198669276204263 -.00996511620287356 5.81881997508384 .00
996511620287356 .003502581539282535 -.002408735280614105 5.40369531779473 .00240
8735280614105 -.00675229222274562 -364255773381821e-19 4.80714801734314 36425577
33818185e-20 -.01729600392523765 -.0015932045140387 4.130355563122565 .001593204
5140387 -.03603273515773585 -.00996511620287356 3.60595798568554 .00996511620287
356 14 402 411 406 ?407 408 409 34 384 +408 407 407 408 279 51 403 662 0 410 411
 384 0 -0 -.075 0 0 1 0 .01 0 0 1 50 404 3 0 371 384 412 0 +0 .012 0 0 1 0 0 0 1
 141 255 405 395 413 414 384 38 395 474 0 415 382 416 0 +275 384 417 418 419 420
 141 413 382 421 405 384 141 414 422 405 423 384 38 422 479 0 374 375 389 0 +424
 384 425 426 427 428 141 423 389 414 429 384 38 389 478 0 430 422 381 0 +431 384
 432 433 434 435 141 429 381 423 421 384 141 421 355 429 413 384 16 430 345 0 ?3
26 436 437 389 436 436 12 50 431 130 0 438 424 390 439 +3106358626868325e-33 .01
2 -.01616580753730955 .5 0 .866025403784438 .866025403784439 0 -.5 40 3 432 0 1
 3 .001448370893654324 .3047243637764985 ??2000000000031735e-22 .010749503767940
5 -.01616592300736335 -.00749787104377496 .0119931880594285 -.01183690967183694
 -.0140002 .0107495037679405 -.00808278829860092 41 1 433 L?2000000000031735e-22
 .0107495037679405 -.01616592300736335 41 1 434 L?-.0140002 .0107495037679405 -.
00808278829860092 204 12 435 4 230940107675972e-21 -.001250496232059512 3.141605
025292905 .001250496232059512 -.00865779573094516 -681194057149115e-20 2.5769532
24007945 681194057149087e-20 -.0161660384774172 -.00125049623205951 2.0943827306
90085 .00125049623205951 14 438 261 440 ?441 442 443 34 431 -0 0 441 442 279 50
 424 129 0 441 412 431 444 +-.014 .012 -.00808290376865476 1 0 -1073081856240828
e-31 -1073081856240828e-31 0 -1 50 390 131 0 442 431 383 445 +.014 .012 -.008082
90376865476 -.5 0 .866025403784439 .866025403784439 0 .5 141 439 389 439 439 431
 14 442 272 446 ?438 377 447 34 390 -0 0 438 377 279 141 445 381 445 445 390 81
 1 446 907 165 442 448 0 449 440 450 14 377 283 449 ?442 451 351 34 383 -0 0 442
 451 279 15 447 271 0 360 442 0 13 279 48 0 0 0 0 0 0 38 271 14 271 725 452 ?453
 0 454 34 403 -410 410 453 0 279 81 1 452 903 165 271 455 0 0 456 457 14 453 302
 456 ?451 271 458 34 275 -0 0 451 271 279 15 454 687 0 459 271 283 14 410 649 46
0 ?461 371 287 34 403 -271 271 461 371 279 81 1 460 918 165 410 462 0 463 464 46
5 14 461 654 464 ?274 410 466 34 411 +0 0 274 410 279 14 371 236 463 ?410 345 36
3 34 404 +0 0 410 345 279 15 287 717 0 285 410 467 17 285 0 287 280 280 40 284 2
76 0 0 +15 467 653 0 468 410 0 17 468 0 467 468 468 0 469 366 0 0 +17 469 0 470
 469 469 0 468 366 0 0 -16 366 637 0 ?468 471 358 472 0 0 12 16 471 680 0 ?473 4
74 366 475 0 0 12 31 472 665 0 366 0 375 0 +0 0 0 0 -1 0 0 0 -1 .01 31 375 492 0
 347 472 422 0 +0 .012 0 0 1 0 0 0 1 .014 17 473 0 466 473 473 0 476 471 0 0 +16
 474 686 0 ?459 276 471 277 0 0 12 31 475 683 0 471 368 277 0 +0 -.075 0 0 -1 0
 0 0 -1 .009 31 368 215 0 369 477 475 0 +0 .012 0 0 1 0 0 0 1 .014 31 277 689 0
 474 475 36 0 -0 -.074 0 0 -1 0 0 0 -1 .01 16 369 213 0 ?370 478 479 368 358 478
 12 30 255 477 140 0 479 480 368 0 +1035452875622774e-33 .012 .01616580753730955
 0 -1 0 16 479 286 0 ?311 369 481 477 0 0 12 30 480 139 0 481 482 477 0 +.014 .0
12 .00808290376865476 0 -1 0 16 481 275 0 ?308 479 379 480 0 0 12 30 482 138 0 3
79 483 480 0 +.014 .012 -.00808290376865476 0 -1 0 16 379 264 0 ?305 481 484 482
 0 0 12 30 483 137 0 484 485 482 0 +3106358626868325e-33 .012 -.0161658075373095
5 0 -1 0 16 484 253 0 ?302 379 486 483 0 0 12 30 485 136 0 486 487 483 0 +-.014
 .012 -.00808290376865476 0 -1 0 16 486 242 0 ?299 484 488 485 0 0 12 30 487 135
 0 488 489 485 0 +-.014 .012 .00808290376865476 0 -1 0 16 488 239 0 ?296 486 490
 487 0 0 12 30 489 99 0 490 491 487 0 +-.014 0 -.00808290376865476 1073081856240
828e-31 0 1 16 490 68 0 ?492 488 493 489 0 0 12 30 491 100 0 493 494 489 0 +3106
358626868325e-33 0 -.01616580753730955 -.866025403784439 0 .5 16 493 72 0 ?495 4
90 496 491 0 0 12 30 494 101 0 496 497 491 0 +.014 0 -.00808290376865476 -.86602
5403784439 0 -.5 16 496 76 0 ?498 493 499 494 0 0 12 30 497 102 0 499 500 494 0
 +.014 0 .00808290376865476 0 0 -1 16 499 80 0 ?378 496 501 497 0 0 12 30 500 10
3 0 501 416 497 0 +1035452875622774e-33 0 .01616580753730955 .866025403784439 0
 -.5 16 501 84 0 ?502 499 503 500 0 0 12 30 416 104 0 503 395 500 0 +-.014 0 .00
808290376865476 .866025403784439 0 .5 16 503 88 0 ?504 501 505 416 0 0 12 17 504
 0 458 506 296 309 507 503 0 0 +16 505 336 0 ?332 503 415 395 415 415 12 17 332
 0 409 508 329 330 509 505 0 373 +16 415 337 0 ?314 505 510 395 505 505 12 17 31
4 0 511 348 373 312 512 415 0 513 +16 510 338 0 ?348 415 350 382 350 350 12 17 3
48 0 511 373 314 286 513 510 0 370 +16 350 339 0 ?317 510 343 382 510 510 12 15
 511 418 0 314 408 0 17 373 0 511 314 348 330 370 369 0 372 -17 513 0 514 311 34
9 312 348 510 0 506 -15 514 293 0 513 451 0 17 311 0 514 502 513 309 506 479 0 5
15 +17 349 0 514 513 353 286 317 350 0 0 -17 506 0 458 512 504 312 311 479 0 0 -
15 458 301 0 509 453 0 17 512 0 458 509 506 330 314 415 0 0 -17 509 0 458 296 51
2 327 332 505 0 516 -17 296 0 458 504 509 294 516 488 0 492 +17 516 0 517 518 49
2 327 296 488 0 0 -15 517 249 0 519 441 0 17 518 0 517 519 516 289 329 374 0 0 -
17 492 0 517 516 299 294 520 490 0 507 +17 299 0 517 492 519 297 521 486 0 495 +
17 520 0 522 523 507 297 492 490 0 0 -17 507 0 522 520 515 294 504 503 0 0 -15 5
22 67 0 507 524 0 17 515 0 522 507 525 309 502 501 0 504 -17 525 0 522 515 526 3
06 378 499 0 0 -17 502 0 514 353 311 306 515 501 0 525 +17 353 0 514 349 502 315
 308 481 0 0 -17 308 0 351 378 342 306 353 481 0 502 +17 378 0 351 376 308 303 5
25 499 0 526 +17 526 0 522 525 523 303 498 496 0 0 -17 523 0 522 526 520 300 495
 493 0 0 -17 498 0 447 527 305 300 526 496 0 523 +17 527 0 447 365 498 321 302 4
84 0 0 -17 305 0 447 498 360 303 376 379 0 378 +17 360 0 447 305 365 318 338 361
 0 376 -17 365 0 447 360 527 336 323 380 0 0 -17 323 0 528 335 362 321 365 380 0
 529 +16 380 343 0 ?323 361 436 381 361 361 12 16 436 344 0 ?335 380 430 389 430
 430 12 17 335 0 528 362 323 333 529 436 0 530 +15 528 430 0 323 531 0 17 362 0
 528 323 335 336 364 367 0 357 -17 529 0 443 302 532 321 335 436 0 527 -17 530 0
 533 326 534 333 293 535 0 364 -15 533 434 0 326 407 0 17 326 0 533 534 530 324
 532 430 0 519 +17 534 0 533 530 326 289 519 437 0 518 +17 293 0 363 372 364 289
 530 535 0 508 +16 535 222 0 ?293 367 478 368 478 367 12 17 364 0 363 293 357 33
3 362 367 0 532 +16 367 226 0 ?364 358 535 368 535 358 12 17 532 0 443 529 521 3
33 326 430 0 0 -15 443 260 0 529 438 0 17 521 0 443 532 495 324 299 486 0 0 -17
 495 0 443 521 302 297 523 493 0 520 +17 302 0 443 495 529 300 527 484 0 498 +16
 478 218 0 ?372 535 369 368 369 535 12 17 372 0 363 370 293 330 508 478 0 512 +1
7 508 0 409 329 332 289 372 478 0 534 -15 409 414 0 332 402 0 17 329 0 409 332 5
08 327 518 374 0 509 +16 374 335 0 ?329 437 347 422 437 437 12 16 437 346 0 ?534
 430 374 422 374 374 12 17 519 0 517 299 518 324 534 437 0 521 -14 407 431 536 ?
531 402 533 34 384 +402 531 531 402 279 81 1 536 913 165 407 537 0 406 538 539 1
4 531 427 538 ?359 407 528 34 384 +407 359 359 407 279 81 1 538 914 165 531 540
 0 536 541 542 14 359 423 541 ?345 531 356 34 384 +531 345 345 531 279 81 1 541
 915 165 359 543 0 538 544 545 14 345 419 544 ?371 359 341 34 384 +359 408 371 3
59 279 81 1 544 916 165 345 546 0 541 463 547 14 408 415 548 ?402 524 511 34 384
 +345 402 402 524 279 81 1 548 911 165 408 549 0 550 406 551 14 524 66 550 ?408
 441 470 34 412 -0 0 408 441 279 81 1 550 910 165 524 552 0 553 548 554 14 441 2
50 553 ?524 438 517 34 424 -0 0 524 438 279 15 470 639 0 469 524 522 50 412 98 0
 524 404 424 0 +0 0 0 0 1 0 0 0 1 81 1 553 909 165 441 555 0 440 550 556 81 1 55
5 896 221 441 0 553 552 557 558 81 1 440 908 165 438 559 0 446 553 560 83 3 556
 .831372549019608 .670588235294118 .1294117647058822 81 1 559 866 221 438 0 440
 561 448 562 83 3 560 .831372549019608 .670588235294118 .1294117647058822 81 1 5
61 864 221 402 0 406 0 559 563 81 1 448 868 221 442 0 446 559 564 565 82 1 562 -
381157266 81 1 564 870 221 377 0 449 448 455 566 82 1 565 -380043154 81 1 449 90
6 165 377 564 0 567 446 568 81 1 455 872 221 271 0 452 564 569 570 82 1 566 -378
929042 81 1 569 875 221 453 0 456 455 462 571 82 1 570 -994508681 81 1 456 904 1
65 453 569 0 452 567 572 81 1 462 877 221 410 0 460 569 573 574 82 1 571 -377028
498 81 1 573 880 221 461 0 464 462 575 576 82 1 574 1122107511 81 1 464 919 165
 461 573 0 460 577 578 81 1 575 882 221 371 0 463 573 537 579 82 1 576 112014142
7 81 1 463 917 165 371 575 0 544 460 580 81 1 537 884 221 407 0 536 575 540 581
 82 1 579 -395968402 81 1 540 886 221 531 0 538 537 543 582 82 1 581 -392363922
 81 1 543 888 221 359 0 541 540 546 583 82 1 582 -391511954 81 1 546 890 221 345
 0 544 543 549 584 82 1 583 -390659986 81 1 549 892 221 408 0 548 546 552 585 82
 1 584 -389808018 81 1 552 894 221 524 0 550 549 555 586 82 1 585 -388956050 82
 1 586 544276593 83 3 580 .831372549019608 .670588235294118 .1294117647058822 81
 1 577 920 165 274 587 0 464 0 588 83 3 578 .831372549019608 .670588235294118 .1
294117647058822 14 274 698 577 ?0 461 589 34 35 +0 0 0 461 279 81 1 587 900 221
 274 0 577 557 0 590 83 3 588 .831372549019608 .670588235294118 .129411764705882
2 81 1 557 898 221 451 0 567 555 587 591 82 1 590 1516437619 14 451 294 567 ?377
 453 514 34 396 -0 0 377 453 279 81 1 567 905 165 451 557 0 456 449 592 82 1 591
 -377814930 83 3 592 .831372549019608 .670588235294118 .1294117647058822 50 396
 133 0 451 383 275 593 +1035452875622774e-33 .012 .01616580753730955 -.5 0 -.866
025403784438 -.866025403784439 0 .5 50 275 134 0 453 396 35 594 +-.014 .012 .008
08290376865476 .5 0 -.866025403784439 -.866025403784439 0 -.5 141 593 382 593 59
3 396 141 594 395 594 594 275 15 589 699 0 595 274 596 17 595 0 589 595 595 0 45
9 474 0 0 -15 596 700 0 476 274 0 17 476 0 596 476 476 0 473 471 0 0 -17 459 0 4
54 459 459 0 595 474 0 0 +83 3 572 .831372549019608 .670588235294118 .1294117647
058822 83 3 568 .831372549019608 .670588235294118 .1294117647058822 81 1 406 912
 165 402 561 0 548 536 597 82 1 563 -388497298 83 3 597 .831372549019608 .670588
235294118 .1294117647058822 82 1 558 -386989970 83 3 554 .831372549019608 .67058
8235294118 .1294117647058822 83 3 551 .831372549019608 .670588235294118 .1294117
647058822 83 3 547 .831372549019608 .670588235294118 .1294117647058822 83 3 545
 .831372549019608 .670588235294118 .1294117647058822 83 3 542 .831372549019608 .
670588235294118 .1294117647058822 83 3 539 .831372549019608 .670588235294118 .12
94117647058822 16 276 720 0 ?285 39 474 36 39 39 12 15 466 681 0 473 461 0 17 28
4 0 283 281 281 282 285 276 0 0 -15 283 724 0 281 271 0 50 411 664 0 461 0 403 0
 +0 -.075 0 0 -1 0 0 0 -1 83 3 465 .831372549019608 .670588235294118 .1294117647
058822 83 3 457 1 1 1 83 3 450 .831372549019608 .670588235294118 .12941176470588
22 141 444 422 444 444 424 40 5 425 0 1 5 .002311558492384285 .361900413070895 ?
?-.014 .002034883797126445 -.02794983138908105 -.014 .0095912647193859 -.0115854
853079373 -.014 .01196357442266182 -.001330611545909134 -.014 .0104067954859613
 .00921310015658288 -.014 .00203488379712644 .02794983138908105 41 1 426 L?-.014
 .002034883797126445 -.02794983138908105 41 1 427 L?-.014 .00203488379712644 .02
794983138908105 204 20 428 4 .0198669276204263 -.00996511620287356 2.67722732149
4045 .00996511620287356 .003502581539282535 -.002408735280614105 2.2621026642049
3 .002408735280614105 -.00675229222274562 -364255773381804e-19 1.665555363753345
 3642557733818085e-20 -.01729600392523765 -.001593204514038695 .988762909532769
 .001593204514038695 -.03603273515773585 -.00996511620287356 .464365332095748 .0
0996511620287356 40 3 417 0 1 3 .001448370893654324 .3047243637764985 ??-.014000
2 .0107495037679405 .00808278829860092 -.00650212895622503 .0119931880594285 .01
241180163412734 2000000000012555e-22 .0107495037679405 .01616592300736335 41 1 4
18 L?-.0140002 .0107495037679405 .00808278829860092 41 1 419 L?2000000000012555e
-22 .0107495037679405 .01616592300736335 204 12 420 4 230940107676387e-21 -.0012
5049623205951 1.04720992289971 .00125049623205951 -.00865779573094515 -681194057
149115e-20 .482558121614748 681194057149187e-20 -.0161660384774172 -.00125049623
2059512 6.28317293547647 .001250496232059512 141 401 355 401 401 383 40 3 397 0
 1 3 .001448370893654324 .3047243637764985 ??-199999999999032e-21 .0107495037679
405 .01616592300736335 .00749787104377497 .0119931880594285 .01183690967183694 .
0140002 .0107495037679405 .00808278829860092 41 1 398 L?-199999999999032e-21 .01
07495037679405 .01616592300736335 41 1 399 L?.0140002 .0107495037679405 .0080827
8829860092 204 12 400 4 230940107675972e-21 -.001250496232059512 123717031126358
e-19 .001250496232059512 -.00865779573094516 -681194057148941e-20 5.718545877597
74 681194057148987e-20 -.0161660384774172 -.00125049623205951 5.23597538427988 .
00125049623205951 40 3 391 0 1 3 .001448370893654322 .304724363776499 ??.0140002
 .0107495037679405 -.00808278829860093 .00650212895622503 .0119931880594285 -.01
241180163412734 -199999999998708e-21 .0107495037679405 -.01616592300736335 41 1
 392 L?.0140002 .0107495037679405 -.00808278829860093 41 1 393 L?-19999999999870
8e-21 .0107495037679405 -.01616592300736335 204 12 394 4 230940107676387e-21 -.0
0125049623205951 4.188802576489505 .00125049623205951 -.00865779573094515 -68119
4057149462e-20 3.62415077520454 681194057149287e-20 -.0161660384774172 -.0012504
96232059514 3.14158028188668 .001250496232059514 19 272 142 0 12 0 38 34 S0 81 2
 273 706 598 35 0 0 0 0 599 600 80 2 598 601 602 8044 0 0 0 0 3 5 0 0 0 FFFFTFFF
TTFFFF3 2 84 6 599 BAAAAB83 3 600 0 .001 .001 79 17 602 SDL/TYSA_BLEND_ID74 20 2
70 5 0 0 587 273 268 577 31 0 0 0 0 0 0 0 0 0 0 0 0 0 0 0 81 2 268 766 262 12 0
 31 0 0 603 0 83 1 603 1 84 4 269 Bolt81 1 10 1370 5 7 604 0 0 0 605 70 11 0 4 T
7 0 0 5 20 1 606 606 13 13 141 0 7 0 607 0 0 608 0 52 14 1166 609 610 611 0 0 -0
 .005 0 0 1 0 .01 .70710678118655 .707106781186545 0 0 1 31 15 1135 0 18 612 0 0
 -0 .006 0 0 1 0 0 0 1 .011 29 16 981 0 19 613 0 -.007 -.006 .01212435565298214
 19 17 47 0 7 608 0 614 V0 16 18 1132 0 ?615 0 616 15 0 0 7 18 19 978 0 617 0 61
8 16 ?7 17 617 0 619 620 621 19 622 623 0 624 -18 618 677 0 620 19 625 613 ?7 17
 620 0 619 621 617 618 626 627 0 628 -18 625 542 0 629 618 630 631 ?7 29 613 679
 0 618 631 16 -.014 -.00474957043532143 .00808290376865476 29 631 545 0 625 632
 613 .007 .006 .01212435565298214 29 632 538 0 630 633 631 -.014 .006 -600925839
494864e-32 18 630 535 0 634 625 635 632 ?7 29 633 499 0 635 636 632 -33633149208
27865e-33 .00474957043532143 .01616580753730955 18 635 379 0 637 630 638 633 ?7
 29 636 500 0 638 639 633 .014 .00474957043532143 .00808290376865476 18 638 380
 0 640 635 641 636 ?7 29 639 501 0 641 642 636 .014 .00474957043532143 -.0080829
0376865476 18 641 381 0 643 638 644 639 ?7 29 642 502 0 644 645 639 509803839685
516e-32 .00474957043532143 -.01616580753730955 18 644 382 0 646 641 647 642 ?7 2
9 645 503 0 647 648 642 -.014 .00474957043532144 -.00808290376865477 18 647 383
 0 649 644 650 645 ?7 29 648 504 0 650 651 645 -.014 .00474957043532146 .0080829
037686548 18 650 378 0 652 647 653 648 ?7 29 651 505 0 653 654 648 -.007 .006 .0
1212435565298214 18 653 367 0 655 650 656 651 ?7 29 654 507 0 656 657 651 -.007
 .006 -.01212435565298214 18 656 375 0 658 653 659 654 ?7 29 657 508 0 659 660 6
54 .007 .006 -.01212435565298214 18 659 373 0 661 656 662 657 ?7 29 660 509 0 66
2 663 657 .014 .006 0 18 662 371 0 664 659 665 660 ?7 29 663 935 0 665 666 660 -
3363314920827865e-33 -.00474957043532143 .01616580753730955 18 665 810 0 667 662
 668 663 ?7 29 666 936 0 668 669 663 .014 -.00474957043532143 .00808290376865476
 18 668 811 0 670 665 671 666 ?7 29 669 937 0 671 672 666 .014 -.004749570435321
43 -.00808290376865476 18 671 812 0 673 668 674 669 ?7 29 672 938 0 674 675 669
 509803839685516e-32 -.00474957043532143 -.01616580753730955 18 674 813 0 676 67
1 677 672 ?7 29 675 939 0 677 678 672 -.014 -.00474957043532144 -.00808290376865
477 18 677 814 0 679 674 680 675 ?7 29 678 942 0 680 681 675 -.014 -.006 -600925
839494864e-32 18 680 809 0 621 677 682 678 ?7 29 681 943 0 682 683 678 -.007 -.0
06 -.01212435565298214 18 682 820 0 684 680 685 681 ?7 29 683 944 0 685 686 681
 .007 -.006 -.01212435565298214 18 685 818 0 687 682 688 683 ?7 29 686 945 0 688
 689 683 .014 -.006 0 18 688 803 0 690 685 691 686 ?7 29 689 946 0 691 0 686 .00
7 -.006 .01212435565298214 18 691 805 0 692 688 0 689 ?7 17 692 0 693 694 670 69
1 695 696 0 697 -15 693 858 0 694 698 0 17 694 0 693 670 692 688 699 700 0 701 +
17 670 0 693 692 694 668 702 703 0 695 -17 695 0 704 705 706 668 692 696 0 707 +
16 696 775 0 ?695 708 703 709 708 708 7 17 697 0 710 667 624 691 711 712 0 699 -
15 710 854 0 697 713 0 17 667 0 710 624 697 665 706 708 0 714 -17 624 0 710 697
 667 19 714 715 0 711 -17 711 0 716 622 699 19 697 712 0 626 +16 712 649 0 ?711
 717 718 719 623 717 7 17 699 0 716 711 701 691 694 700 0 706 -15 716 67 0 711 7
20 0 17 701 0 716 699 721 688 722 717 0 702 +16 700 746 0 ?694 723 0 724 0 0 7 1
7 706 0 704 695 725 691 667 708 0 0 +15 704 293 0 725 726 0 17 725 0 704 706 727
 665 728 729 0 0 +16 708 774 0 ?706 715 696 709 696 696 7 16 715 773 0 ?714 627
 708 730 627 627 7 38 709 911 0 696 731 730 0 +732 733 734 735 736 737 38 731 91
2 0 738 739 709 0 +740 733 741 742 743 744 38 730 910 0 715 709 745 0 +746 733 7
47 748 749 750 50 732 133 0 726 740 746 751 +-3469446951953615e-33 .006 .0161658
0753730955 -.5 0 -.866025403784439 -.866025403784439 0 .5 52 733 898 0 752 753 7
54 755 -0 -.006 0 0 1 0 .014 .86602540378444 .5 0 0 1 40 3 734 0 1 3 .0014483708
93654324 .3047243637764985 ??-200000000003479e-21 -.00474950376794049 .016165923
00736335 .00749787104377496 -.00599318805942851 .01183690967183694 .0140002 -.00
474950376794049 .00808278829860092 41 1 735 L?-200000000003479e-21 -.00474950376
794049 .01616592300736335 41 1 736 L?.0140002 -.00474950376794049 .0080827882986
0092 204 12 737 4 230940107675922e-21 -.0107495037679405 6.28317293547647 .00125
0496232059514 -.00865779573094516 -.0119931880594285 .564639429581849 6811940571
49287e-20 -.0161660384774172 -.0107495037679405 1.04720992289971 .00125049623205
9514 14 752 847 756 ?720 757 619 13 733 -713 757 720 757 614 51 753 1098 0 758 0
 733 0 +0 -.006 0 0 1 0 .01 0 0 1 52 754 466 0 759 733 760 761 +0 .006 0 0 -1 0
 .014 .86602540378444 .5 0 0 1 141 755 730 762 763 733 141 762 709 764 755 733 1
41 763 765 755 766 733 38 765 915 0 723 724 767 0 +768 733 769 770 771 772 141 7
66 767 763 773 733 38 767 914 0 774 765 739 0 +775 733 776 777 778 779 141 773 7
39 766 764 733 38 739 913 0 780 767 731 0 +781 733 782 783 784 785 141 764 731 7
73 762 733 16 780 779 0 ?786 787 788 739 787 787 7 50 781 131 0 789 775 740 790
 +.014 .006 -.00808290376865476 -.5 0 .866025403784438 .866025403784439 0 .5 40
 3 782 0 1 3 .001448370893654322 .3047243637764985 ??.0140002 -.0047495037679404
9 -.00808278829860093 .00650212895622504 -.00599318805942851 -.01241180163412734
 -1999999999954435e-22 -.00474950376794049 -.01616592300736335 41 1 783 L?.01400
02 -.00474950376794049 -.00808278829860093 41 1 784 L?-1999999999954435e-22 -.00
474950376794049 -.01616592300736335 204 12 785 4 230940107676387e-21 -.010749503
76794048 2.094382730690085 .001250496232059514 -.00865779573094516 -.01199318805
94285 2.659034531975045 681194057149388e-20 -.0161660384774172 -.010749503767940
48 3.141605025292905 .001250496232059514 14 789 272 791 ?792 793 794 13 781 -0 0
 792 793 614 50 775 130 0 792 768 781 795 +520417042793042e-32 .006 -.0161658075
3730955 .5 0 .866025403784439 .866025403784439 0 -.5 50 740 132 0 793 781 732 79
6 +.014 .006 .00808290376865476 -1 0 0 0 0 1 141 790 797 798 798 781 38 797 477
 0 799 800 801 0 +781 754 802 803 804 805 141 798 739 790 790 781 16 799 343 0 ?
646 806 807 797 806 806 7 38 800 478 0 808 809 797 0 +775 754 810 811 812 813 38
 801 476 0 814 797 815 0 +740 754 816 817 818 819 40 3 802 0 1 3 .00144837089365
4322 .3047243637764985 ??.0140002 .00474950376794049 -.00808278829860093 .006502
12895622504 .00599318805942851 -.01241180163412734 -1999999999954435e-22 .004749
50376794049 -.01616592300736335 41 1 803 L?.0140002 .00474950376794049 -.0080827
8829860093 41 1 804 L?-1999999999954435e-22 .00474950376794049 -.016165923007363
35 204 12 805 4 230940107676387e-21 -.001250496232059514 4.188802576489505 .0012
50496232059514 -.00865779573094516 -681194057149548e-20 3.62415077520454 6811940
57149388e-20 -.0161660384774172 -.001250496232059514 3.14158028188668 .001250496
232059514 16 814 341 0 ?643 820 806 801 820 820 7 38 815 475 0 821 801 822 0 +73
2 754 823 824 825 826 40 5 816 0 1 5 .002311558492384285 .361900413070895 ??.014
 -.00396511620287356 .02794983138908105 .014 .00359126471938589 .011585485307937
3 .014 .00596357442266182 .00133061154590913 .014 .004406795485961295 -.00921310
015658289 .014 -.00396511620287356 -.02794983138908105 41 1 817 L?.014 -.0039651
1620287356 .02794983138908105 41 1 818 L?.014 -.00396511620287356 -.027949831389
08105 204 20 819 4 .0198669276204263 -.00996511620287356 5.81881997508384 .00996
511620287356 .003502581539282535 -.00240873528061411 5.40369531779473 .002408735
28061411 -.00675229222274563 -364255773381856e-19 4.80714801734314 3642557733818
59e-19 -.01729600392523765 -.001593204514038705 4.13035556312256 .00159320451403
8705 -.03603273515773585 -.00996511620287356 3.60595798568554 .00996511620287356
 16 821 339 0 ?640 827 820 815 827 827 7 38 822 474 0 828 815 829 0 +746 754 830
 831 832 833 40 3 823 0 1 3 .001448370893654324 .3047243637764985 ??-20000000000
3479e-21 .00474950376794049 .01616592300736335 .00749787104377496 .0059931880594
2851 .01183690967183694 .0140002 .00474950376794049 .00808278829860092 41 1 824
 L?-200000000003479e-21 .00474950376794049 .01616592300736335 41 1 825 L?.014000
2 .00474950376794049 .00808278829860092 204 12 826 4 230940107675922e-21 -.00125
0496232059514 123717031129109e-19 .001250496232059514 -.00865779573094516 -68119
4057149289e-20 5.71854587759774 681194057149287e-20 -.0161660384774172 -.0012504
96232059514 5.23597538427988 .001250496232059514 16 828 337 0 ?637 834 827 822 8
34 834 7 30 829 135 0 835 822 836 0 +-.014 .006 .00808290376865476 0 -1 0 50 746
 134 0 607 732 611 837 +-.014 .006 .00808290376865476 .5 0 -.866025403784438 -.8
66025403784439 0 -.5 40 3 830 0 1 3 .001448370893654324 .3047243637764985 ??-.01
40002 .00474950376794049 .00808278829860092 -.00650212895622504 .005993188059428
51 .01241180163412734 1999999999967225e-22 .00474950376794049 .01616592300736335
 41 1 831 L?-.0140002 .00474950376794049 .00808278829860092 41 1 832 L?199999999
9967225e-22 .00474950376794049 .01616592300736335 204 12 833 4 230940107676387e-
21 -.001250496232059514 1.04720992289971 .001250496232059514 -.00865779573094516
 -681194057149462e-20 .482558121614748 681194057149388e-20 -.0161660384774172 -.
001250496232059514 6.28317293547647 .001250496232059514 14 607 302 838 ?726 0 83
9 13 746 -0 0 726 0 614 52 611 1152 840 841 746 14 0 -0 -.006 0 0 -1 0 .011 .707
106781186548 .707106781186548 0 0 -1 141 837 822 842 842 746 141 842 730 837 837
 746 81 2 840 1153 598 611 0 0 0 609 843 844 14 841 1145 845 ?610 758 846 13 611
 +0 0 610 758 614 81 1 845 1368 165 841 847 0 848 849 850 14 610 1159 849 ?0 841
 851 13 14 +0 0 0 841 614 14 758 1085 848 ?841 720 852 13 753 -0 0 841 720 614 1
5 846 1146 0 853 841 854 13 614 48 0 0 0 0 0 0 17 607 17 853 0 846 853 853 0 855
 616 0 0 -15 854 1147 0 856 841 0 17 856 0 854 856 856 0 857 858 0 0 -17 857 0 8
59 857 857 0 856 858 0 0 +16 858 1114 0 ?857 860 623 861 0 0 7 16 860 1120 0 ?86
2 616 858 863 0 0 7 16 623 670 0 ?622 858 864 719 864 712 7 31 861 1117 0 858 71
9 863 0 +0 -.006 0 0 1 0 0 0 1 .011 31 719 651 0 712 865 861 0 -0 -.006 0 0 1 0
 0 0 1 .014 31 863 1123 0 860 861 612 0 +0 .005 0 0 1 0 0 0 1 .01 31 612 1129 0
 616 863 15 0 -0 -.005 0 0 1 0 0 0 1 .01 16 616 1126 0 ?855 18 860 612 0 0 7 17
 855 0 852 855 855 0 853 616 0 0 +15 852 1127 0 855 758 866 15 866 1121 0 862 75
8 0 17 862 0 866 862 862 0 867 860 0 0 +17 867 0 868 867 867 0 862 860 0 0 -15 8
68 1161 0 867 610 0 31 865 215 0 869 870 719 0 +0 .006 0 0 1 0 0 0 1 .014 16 869
 213 0 ?871 872 729 865 718 872 7 30 870 140 0 729 873 865 0 +-3469446951953615e
-33 .006 .01616580753730955 0 -1 0 16 729 286 0 ?725 869 874 870 0 0 7 30 873 13
9 0 874 875 870 0 +.014 .006 .00808290376865476 0 -1 0 16 874 275 0 ?707 729 876
 873 0 0 7 30 875 138 0 876 877 873 0 +.014 .006 -.00808290376865476 0 -1 0 16 8
76 264 0 ?878 874 879 875 0 0 7 30 877 137 0 879 836 875 0 +520417042793042e-32
 .006 -.01616580753730955 0 -1 0 16 879 253 0 ?880 876 881 877 0 0 7 30 836 136
 0 881 829 877 0 +-.014 .006 -.00808290376865477 0 -1 0 16 881 242 0 ?882 879 83
5 836 0 0 7 17 882 0 883 884 885 677 886 881 0 0 +16 835 239 0 ?887 881 834 829
 0 0 7 17 887 0 839 626 888 618 889 835 0 0 +16 834 336 0 ?655 835 828 822 828 8
28 7 17 655 0 890 891 652 653 888 834 0 892 +15 890 414 0 655 759 0 17 891 0 890
 652 655 630 893 872 0 894 -17 652 0 890 655 891 650 895 896 0 888 +17 888 0 839
 887 897 650 655 834 0 889 -17 892 0 898 637 899 653 871 869 0 893 -15 898 418 0
 637 900 0 17 637 0 898 899 892 635 897 828 0 727 +17 899 0 898 892 637 625 727
 827 0 871 +17 871 0 901 902 893 625 892 869 0 903 +17 893 0 901 871 634 653 891
 872 0 897 +15 901 4 0 871 904 0 17 634 0 901 893 905 630 906 907 0 891 +16 872
 218 0 ?893 907 869 865 869 907 7 17 897 0 839 888 728 653 637 828 0 0 -15 839 3
01 0 887 607 0 17 728 0 839 897 714 635 725 729 0 0 -17 714 0 839 728 626 665 62
4 715 0 725 +17 626 0 839 714 887 19 620 627 0 0 +16 627 772 0 ?626 908 715 730
 715 715 7 16 908 323 0 ?902 896 627 745 0 0 7 17 902 0 901 909 871 662 629 908
 0 910 +16 896 335 0 ?652 911 908 809 911 911 7 31 745 492 0 908 730 809 0 +0 .0
06 0 0 1 0 0 0 1 .014 38 809 479 0 896 745 800 0 +768 754 912 913 914 915 50 768
 129 0 916 917 775 918 +-.014 .006 -.00808290376865477 1 0 429232742496331e-30 4
29232742496331e-30 0 -1 40 5 912 0 1 5 .00231155849238429 .361900413070895 ??-.0
14 -.003965116202873565 -.0279498313890811 -.014 .00359126471938589 -.0115854853
079373 -.014 .00596357442266182 -.00133061154590915 -.014 .0044067954859613 .009
21310015658287 -.014 -.003965116202873565 .0279498313890811 41 1 913 L?-.014 -.0
03965116202873565 -.0279498313890811 41 1 914 L?-.014 -.003965116202873565 .0279
498313890811 204 20 915 4 .0198669276204263 -.00996511620287356 2.67722732149404
5 .00996511620287356 .003502581539282545 -.00240873528061411 2.262102664204935 .
00240873528061411 -.00675229222274562 -3642557733818475e-20 1.665555363753345 36
4255773381849e-19 -.01729600392523765 -.0015932045140387 .98876290953277 .001593
2045140387 -.03603273515773585 -.00996511620287356 .464365332095748 .00996511620
287357 14 916 250 919 ?900 792 883 13 768 -0 0 900 792 614 50 917 98 0 720 760 7
68 0 +0 -.006 0 0 1 0 0 0 1 141 918 809 920 920 768 141 920 765 918 918 768 14 7
20 672 921 ?758 752 859 13 917 -0 0 758 752 614 50 760 3 0 904 754 917 0 +0 .006
 0 0 1 0 0 0 1 14 904 236 922 ?713 923 924 13 760 +0 0 713 923 614 81 1 922 1359
 165 904 925 0 926 927 928 14 713 851 927 ?698 904 710 13 733 -698 752 698 904 6
14 14 923 419 926 ?904 929 930 13 754 +929 900 904 929 614 15 924 1133 0 615 904
 901 17 615 0 924 615 615 0 931 18 0 0 +17 931 0 851 931 931 0 615 18 0 0 -15 85
1 1160 0 931 610 868 81 1 926 1358 165 923 932 0 933 922 934 14 929 423 933 ?923
 935 936 13 754 +935 923 923 935 614 15 930 422 0 640 923 0 14 900 415 937 ?759
 916 898 13 754 +923 759 759 916 614 81 1 937 1353 165 900 938 0 919 939 940 14
 759 411 939 ?941 900 890 13 754 +900 941 941 900 614 81 1 939 1354 165 759 942
 0 937 943 944 14 941 431 943 ?935 759 945 13 754 +759 935 935 759 614 81 1 943
 1355 165 941 946 0 939 947 948 14 935 427 947 ?929 941 949 13 754 +941 929 929
 941 614 15 945 434 0 649 941 0 17 649 0 945 894 906 647 950 808 0 885 +17 894 0
 945 906 649 630 885 911 0 895 +17 906 0 945 649 894 656 634 907 0 905 -17 950 0
 951 952 886 656 649 808 0 0 -16 808 345 0 ?649 807 911 800 807 807 7 17 885 0 8
83 882 895 647 894 911 0 886 -15 883 249 0 882 916 0 17 895 0 883 885 889 630 65
2 896 0 0 -16 911 346 0 ?894 808 896 809 896 896 7 17 886 0 951 950 953 647 882
 881 0 0 -15 951 260 0 880 792 0 17 953 0 951 886 954 677 684 774 0 882 +17 954
 0 951 953 880 682 676 788 0 0 +17 684 0 955 956 679 682 953 774 0 957 -16 774 7
81 0 ?953 788 958 767 788 788 7 16 788 780 0 ?954 780 774 767 774 774 7 16 958 7
82 0 ?884 774 723 765 723 723 7 17 884 0 883 628 882 680 679 958 0 0 +16 723 771
 0 ?628 958 700 765 958 958 7 17 628 0 883 889 884 618 621 723 0 887 +17 889 0 8
83 895 628 650 887 835 0 0 -17 621 0 619 617 620 680 628 723 0 956 -15 619 850 0
 621 752 0 17 956 0 955 679 684 680 959 864 0 622 -15 955 870 0 956 757 0 17 679
 0 955 684 956 677 884 958 0 953 -17 959 0 716 721 622 682 956 864 0 954 +16 864
 666 0 ?959 623 960 719 960 623 7 17 622 0 716 959 711 680 617 623 0 884 +16 960
 662 0 ?721 864 717 719 717 864 7 17 721 0 716 701 959 685 957 960 0 961 +16 717
 658 0 ?701 960 712 719 712 960 7 17 957 0 962 676 687 682 721 960 0 959 -17 961
 0 794 786 878 685 673 787 0 0 +15 794 271 0 878 789 0 17 786 0 794 963 961 674
 687 780 0 880 +17 878 0 794 961 964 671 965 876 0 0 +17 673 0 966 690 722 671 9
61 787 0 967 -16 787 778 0 ?961 738 780 739 780 780 7 16 738 777 0 ?967 703 787
 731 703 703 7 17 967 0 968 965 702 671 690 738 0 878 +16 703 776 0 ?702 696 738
 731 738 738 7 17 702 0 968 967 707 688 670 703 0 0 +15 968 282 0 707 793 0 17 7
07 0 968 702 969 668 705 874 0 0 +17 969 0 968 707 910 638 664 820 0 705 -17 705
 0 704 903 695 638 707 874 0 0 -17 903 0 704 727 705 625 640 821 0 0 -17 727 0 7
04 725 903 635 899 827 0 728 -17 640 0 930 664 629 638 903 821 0 969 +17 664 0 9
30 629 640 662 969 820 0 970 +17 629 0 930 640 664 625 902 908 0 899 -16 820 340
 0 ?664 821 814 801 814 814 7 17 970 0 936 643 661 662 909 718 0 902 -15 936 426
 0 643 929 0 17 643 0 936 661 970 641 910 814 0 964 +17 661 0 936 970 643 659 96
4 806 0 971 +17 909 0 901 905 902 659 970 718 0 972 +16 718 230 0 ?909 712 973 8
65 973 869 7 16 973 226 0 ?905 718 907 865 907 718 7 17 905 0 901 634 909 656 97
1 973 0 950 +16 907 222 0 ?634 973 872 865 872 973 7 17 971 0 949 646 658 659 90
5 973 0 909 -15 949 430 0 646 935 0 17 646 0 949 658 971 644 972 799 0 952 +17 6
58 0 949 971 646 656 952 807 0 906 +17 952 0 951 880 950 644 658 807 0 963 -16 8
07 344 0 ?658 799 808 800 808 808 7 17 880 0 951 954 952 674 963 879 0 0 +17 963
 0 794 972 786 644 880 879 0 0 -17 972 0 794 964 963 659 646 799 0 0 -17 964 0 7
94 878 972 641 661 806 0 965 -16 806 342 0 ?661 814 799 797 799 799 7 17 965 0 9
68 910 967 641 878 876 0 0 -17 910 0 968 969 965 662 643 814 0 0 -16 827 338 0 ?
899 828 821 815 821 821 7 14 793 283 974 ?789 726 968 13 740 -0 0 789 726 614 81
 1 974 1349 165 793 975 0 976 791 977 14 726 294 976 ?793 607 704 13 732 -0 0 79
3 607 614 81 1 976 1348 165 726 978 0 838 974 979 81 1 978 1335 221 726 0 976 97
5 980 981 81 1 838 1347 165 607 982 0 0 976 983 83 3 979 .831372549019608 .67058
8235294118 .1294117647058822 81 1 982 1305 221 607 0 838 984 847 985 83 3 983 .8
31372549019608 .670588235294118 .1294117647058822 81 1 984 1303 221 789 0 791 98
6 982 987 81 1 847 1307 221 841 0 845 982 988 989 82 1 985 498860146 81 1 988 13
09 221 610 0 849 847 990 991 82 1 989 -1758920585 81 1 849 1369 165 610 988 0 84
5 0 992 81 1 990 1311 221 758 0 848 988 993 994 82 1 991 -1757544329 81 1 848 13
67 165 758 990 0 921 845 995 81 1 993 1313 221 916 0 919 990 996 997 82 1 994 19
38620535 81 1 919 1352 165 916 993 0 998 937 999 81 1 996 1315 221 720 0 921 993
 925 1000 82 1 997 488898674 81 1 921 1366 165 720 996 0 756 848 1001 81 1 925 1
317 221 904 0 922 996 1002 1003 82 1 1000 795672695 81 1 1002 1319 221 713 0 927
 925 932 1004 82 1 1003 479920247 81 1 927 1360 165 713 1002 0 922 1005 1006 81
 1 932 1321 221 923 0 926 1002 1007 1008 82 1 1004 802685042 81 1 1007 1323 221
 929 0 933 932 938 1009 82 1 1008 486080624 81 1 933 1357 165 929 1007 0 947 926
 1010 81 1 938 1325 221 900 0 937 1007 942 1011 82 1 1009 485228656 81 1 942 132
7 221 759 0 939 938 946 1012 82 1 1011 486932592 81 1 946 1329 221 941 0 943 942
 1013 1014 82 1 1012 487391344 81 1 1013 1331 221 935 0 947 946 975 1015 82 1 10
14 483524720 81 1 947 1356 165 935 1013 0 943 933 1016 81 1 975 1333 221 793 0 9
74 1013 978 1017 82 1 1015 484376688 82 1 1017 496959602 83 3 1016 .831372549019
608 .670588235294118 .1294117647058822 83 3 1010 .831372549019608 .6705882352941
18 .1294117647058822 81 1 1005 1361 165 698 980 0 927 1018 1019 83 3 1006 .83137
2549019608 .670588235294118 .1294117647058822 14 698 855 1005 ?1020 713 693 13 7
33 -1020 713 1020 713 614 81 1 980 1337 221 698 0 1005 978 1021 1022 81 1 1018 1
362 165 1020 1021 0 1005 1023 1024 83 3 1019 .831372549019608 .670588235294118 .
1294117647058822 14 1020 859 1018 ?1025 698 966 13 733 -1025 698 1025 698 614 81
 1 1021 1339 221 1020 0 1018 980 1026 1027 81 1 1023 1363 165 1025 1026 0 1018 1
028 1029 83 3 1024 .831372549019608 .670588235294118 .1294117647058822 14 1025 8
63 1023 ?757 1020 962 13 733 -757 1020 757 1020 614 81 1 1026 1341 221 1025 0 10
23 1021 1030 1031 81 1 1028 1364 165 757 1030 0 1023 756 1032 83 3 1029 .8313725
49019608 .670588235294118 .1294117647058822 14 757 867 1028 ?752 1025 955 13 733
 -752 1025 752 1025 614 81 1 1030 1343 221 757 0 1028 1026 1033 1034 81 1 756 13
65 165 752 986 0 1028 921 1035 83 3 1032 .831372549019608 .670588235294118 .1294
117647058822 81 1 986 1301 221 752 0 756 0 984 1036 83 3 1035 .831372549019608 .
670588235294118 .1294117647058822 82 1 1036 803143794 81 1 1033 1345 221 792 0 9
98 1030 0 1037 82 1 1034 799277170 14 792 261 998 ?916 789 951 13 775 -0 0 916 7
89 614 81 1 998 1351 165 792 1033 0 791 919 1038 82 1 1037 494731378 81 1 791 13
50 165 789 984 0 974 998 1039 83 3 1038 .831372549019608 .670588235294118 .12941
17647058822 83 3 1039 .831372549019608 .670588235294118 .1294117647058822 82 1 1
031 800129138 15 962 866 0 957 1025 0 82 1 1027 800981106 15 966 862 0 722 1020
 0 17 722 0 966 673 690 685 701 717 0 721 -17 690 0 966 722 673 688 967 738 0 69
4 -82 1 1022 801833074 83 3 1001 .831372549019608 .670588235294118 .129411764705
8822 83 3 999 .831372549019608 .670588235294118 .1294117647058822 83 3 995 1 1 1
 83 3 992 .831372549019608 .670588235294118 .1294117647058822 82 1 987 495845490
 82 1 981 498073714 83 3 977 .831372549019608 .670588235294118 .1294117647058822
 17 687 0 962 957 676 685 786 780 0 722 -17 676 0 962 687 957 674 954 788 0 786
 -83 3 948 .831372549019608 .670588235294118 .1294117647058822 83 3 944 .8313725
49019608 .670588235294118 .1294117647058822 83 3 940 .831372549019608 .670588235
294118 .1294117647058822 83 3 934 .831372549019608 .670588235294118 .12941176470
58822 83 3 928 .831372549019608 .670588235294118 .1294117647058822 15 859 1115 0
 857 720 716 83 3 850 .831372549019608 .670588235294118 .1294117647058822 81 2 6
09 1167 598 14 0 0 840 0 1040 1041 84 6 843 BAAAAB83 3 844 -.001 0 .001 84 6 104
0 BAAAAB83 3 1041 0 .001 .001 40 3 810 0 1 3 .001448370893654324 .30472436377649
85 ??200000000005214e-21 .00474950376794049 -.01616592300736335 -.00749787104377
496 .00599318805942851 -.01183690967183694 -.0140002 .00474950376794049 -.008082
78829860093 41 1 811 L?200000000005214e-21 .00474950376794049 -.0161659230073633
5 41 1 812 L?-.0140002 .00474950376794049 -.00808278829860093 204 12 813 4 23094
0107675922e-21 -.001250496232059514 3.141605025292905 .001250496232059514 -.0086
5779573094516 -681194057149288e-20 2.576953224007945 681194057149287e-20 -.01616
60384774172 -.001250496232059512 2.094382730690085 .001250496232059512 141 796 8
01 1042 1042 740 141 1042 731 796 796 740 141 795 800 1043 1043 775 141 1043 767
 795 795 775 40 3 776 0 1 3 .001448370893654324 .3047243637764985 ??200000000005
214e-21 -.00474950376794049 -.01616592300736335 -.00749787104377496 -.0059931880
5942851 -.01183690967183694 -.0140002 -.00474950376794049 -.00808278829860093 41
 1 777 L?200000000005214e-21 -.00474950376794049 -.01616592300736335 41 1 778 L?
-.0140002 -.00474950376794049 -.00808278829860093 204 12 779 4 230940107675922e-
21 -.0107495037679405 3.14158028188668 .001250496232059514 -.00865779573094516 -
.0119931880594285 3.706232083171645 681194057149287e-20 -.0161660384774172 -.010
7495037679405 4.188802576489505 .001250496232059512 31 724 928 0 700 0 765 0 +0
 -.006 0 0 1 0 0 0 1 .014 40 5 769 0 1 5 .00231155849238429 .361900413070895 ??-
.014 .003965116202873565 -.0279498313890811 -.014 -.00359126471938589 -.01158548
53079373 -.014 -.00596357442266182 -.00133061154590915 -.014 -.0044067954859613
 .00921310015658287 -.014 .003965116202873565 .0279498313890811 41 1 770 L?-.014
 .003965116202873565 -.0279498313890811 41 1 771 L?-.014 .003965116202873565 .02
79498313890811 204 20 772 4 .0198669276204263 -.002034883797126435 3.60595798568
554 .00996511620287356 .003502581539282545 -.00959126471938589 4.021082642974655
 .00240873528061411 -.00675229222274562 -.01196357442266182 4.61762994342624 364
255773381849e-19 -.01729600392523765 -.0104067954859613 5.29442239764682 .001593
2045140387 -.03603273515773585 -.002034883797126435 5.81881997508384 .0099651162
0287357 141 761 822 1044 1045 754 141 1044 815 1046 761 754 141 1045 809 761 104
7 754 141 1047 800 1045 1048 754 141 1048 797 1047 1046 754 141 1046 801 1048 10
44 754 141 751 815 1049 1049 732 141 1049 709 751 751 732 40 3 747 0 1 3 .001448
370893654324 .3047243637764985 ??-.0140002 -.00474950376794049 .0080827882986009
2 -.00650212895622504 -.00599318805942851 .01241180163412734 1999999999967225e-2
2 -.00474950376794049 .01616592300736335 41 1 748 L?-.0140002 -.0047495037679404
9 .00808278829860092 41 1 749 L?1999999999967225e-22 -.00474950376794049 .016165
92300736335 204 12 750 4 230940107676387e-21 -.01074950376794048 5.2359753842798
8 .001250496232059514 -.00865779573094516 -.0119931880594285 5.80062718556484 68
1194057149388e-20 -.0161660384774172 -.01074950376794048 1237170311249292e-20 .0
01250496232059514 40 5 741 0 1 5 .002311558492384285 .361900413070895 ??.014 .00
396511620287356 .02794983138908105 .014 -.00359126471938589 .0115854853079373 .0
14 -.00596357442266182 .00133061154590913 .014 -.004406795485961295 -.0092131001
5658289 .014 .00396511620287356 -.02794983138908105 41 1 742 L?.014 .00396511620
287356 .02794983138908105 41 1 743 L?.014 .00396511620287356 -.02794983138908105
 204 20 744 4 .0198669276204263 -.00203488379712644 .464365332095748 .0099651162
0287356 .003502581539282535 -.00959126471938589 .879489989384862 .00240873528061
411 -.00675229222274563 -.01196357442266182 1.476037289836448 364255773381859e-1
9 -.01729600392523765 -.0104067954859613 2.152829744057025 .001593204514038705 -
.03603273515773585 -.00203488379712644 2.677227321494045 .00996511620287356 19 6
08 142 0 7 0 17 13 S0 74 20 606 5 0 0 1033 609 604 849 10 0 0 0 0 0 0 0 0 0 0 0
 0 0 0 0 81 2 604 1202 262 7 0 10 0 0 1050 0 83 1 1050 1 84 3 605 Nut74 20 6 1 0
 0 2 0 0 0 0 0 0 0 0 0 0 0 0 0 0 0 0 0 0 0 1 0 
