**ABCDEFGHIJKLMNOPQRSTUVWXYZabcdefghijklmnopqrstuvwxyz**************************
**PARASOLID !"#$%&'()*+,-./:;<=>?@[\]^_`{|}~0123456789**************************
**PART1;
MC=AMD64;
MC_MODEL=Intel64 Family 6 Model 142 Stepping 12, GenuineIntel;
MC_ID=unknown;
OS=Windows_NT;
OS_RELEASE=unknown;
FRU=Parasolid Version 33.1, build 247,  8- 6-2021;
APPL=SOLIDWORKS 2022-2022009;
SITE=;
USER=unknown;
FORMAT=text;
GUISE=transmit;
KEY=FILENut.x_t;
DATE=Thu Jun 15 06:20:58 2023;
**PART2;
SCH=SCH_3301247_33103;
USFLD_SIZE=0;
**PART3;
**END_OF_HEADER*****************************************************************
T51 : TRANSMIT FILE created by modeller version 330124723 SCH_3301247_33103_1300
6230 0 12 35 CCCI7 lattice222 0 CCCI4 mesh1006 0 I8 polyline1008 0 CCCCCCCDI5 ow
ner1040 0 CCCCCCI13 boundary_mesh1006 0 I17 boundary_polyline1008 0 CCCA16 index
_map_offset0 0 1 dA9 index_map82 0 A17 node_id_index_map82 0 A20 schema_embeddin
g_map82 0 A5 child12 0 A14 lowest_node_id0 0 1 dA16 mesh_offset_data206 0 Z1 139
5 2 3 0 0 0 0 0 0 0 1e3 1e-8 0 4 0 1 0 1 1 5 6 7 8 0 0 9 10 11 0 0 0 0 0 0 0 81
 255 2 2 1372 12 1 13 0 0 0 0 14 70 11 CI9 list_type0 0 1 uI10 notransmit0 0 1 l
CCCDCCDI12 finger_index0 0 1 dI12 finger_block1012 0 CZ3 0 4 T1 0 0 10 20 1 15 1
5 13 255 5 141 0 1 0 16 0 0 17 0 52 255 6 1166 18 19 20 0 0 -0 .005 0 0 1 0 .01
 .70710678118655 .707106781186545 0 0 1 31 255 7 1135 0 10 21 0 0 -0 .006 0 0 1
 0 0 0 1 .011 29 255 8 981 0 11 22 0 -.007 -.006 .01212435565298214 19 8 CCCCCCC
A5 owner12 0 Z9 47 0 1 17 0 23 V0 16 255 10 1132 0 ?24 0 25 7 0 0 1 18 255 11 97
8 0 26 0 27 8 ?1 17 255 26 0 28 29 30 11 31 32 0 33 -18 27 677 0 29 11 34 22 ?1
 17 29 0 28 30 26 27 35 36 0 37 -18 34 542 0 38 27 39 40 ?1 29 22 679 0 27 40 8
 -.014 -.00474957043532143 .00808290376865476 29 40 545 0 34 41 22 .007 .006 .01
212435565298214 29 41 538 0 39 42 40 -.014 .006 -600925839494864e-32 18 39 535 0
 43 34 44 41 ?1 29 42 499 0 44 45 41 -3363314920827865e-33 .00474957043532143 .0
1616580753730955 18 44 379 0 46 39 47 42 ?1 29 45 500 0 47 48 42 .014 .004749570
43532143 .00808290376865476 18 47 380 0 49 44 50 45 ?1 29 48 501 0 50 51 45 .014
 .00474957043532143 -.00808290376865476 18 50 381 0 52 47 53 48 ?1 29 51 502 0 5
3 54 48 509803839685516e-32 .00474957043532143 -.01616580753730955 18 53 382 0 5
5 50 56 51 ?1 29 54 503 0 56 57 51 -.014 .00474957043532144 -.00808290376865477
 18 56 383 0 58 53 59 54 ?1 29 57 504 0 59 60 54 -.014 .00474957043532146 .00808
29037686548 18 59 378 0 61 56 62 57 ?1 29 60 505 0 62 63 57 -.007 .006 .01212435
565298214 18 62 367 0 64 59 65 60 ?1 29 63 507 0 65 66 60 -.007 .006 -.012124355
65298214 18 65 375 0 67 62 68 63 ?1 29 66 508 0 68 69 63 .007 .006 -.01212435565
298214 18 68 373 0 70 65 71 66 ?1 29 69 509 0 71 72 66 .014 .006 0 18 71 371 0 7
3 68 74 69 ?1 29 72 935 0 74 75 69 -3363314920827865e-33 -.00474957043532143 .01
616580753730955 18 74 810 0 76 71 77 72 ?1 29 75 936 0 77 78 72 .014 -.004749570
43532143 .00808290376865476 18 77 811 0 79 74 80 75 ?1 29 78 937 0 80 81 75 .014
 -.00474957043532143 -.00808290376865476 18 80 812 0 82 77 83 78 ?1 29 81 938 0
 83 84 78 509803839685516e-32 -.00474957043532143 -.01616580753730955 18 83 813
 0 85 80 86 81 ?1 29 84 939 0 86 87 81 -.014 -.00474957043532144 -.0080829037686
5477 18 86 814 0 88 83 89 84 ?1 29 87 942 0 89 90 84 -.014 -.006 -60092583949486
4e-32 18 89 809 0 30 86 91 87 ?1 29 90 943 0 91 92 87 -.007 -.006 -.012124355652
98214 18 91 820 0 93 89 94 90 ?1 29 92 944 0 94 95 90 .007 -.006 -.0121243556529
8214 18 94 818 0 96 91 97 92 ?1 29 95 945 0 97 98 92 .014 -.006 0 18 97 803 0 99
 94 100 95 ?1 29 98 946 0 100 0 95 .007 -.006 .01212435565298214 18 100 805 0 10
1 97 0 98 ?1 17 101 0 102 103 79 100 104 105 0 106 -15 255 102 858 0 103 107 0 1
7 103 0 102 79 101 97 108 109 0 110 +17 79 0 102 101 103 77 111 112 0 104 -17 10
4 0 113 114 115 77 101 105 0 116 +16 105 775 0 ?104 117 112 118 117 117 1 17 106
 0 119 76 33 100 120 121 0 108 -15 119 854 0 106 122 0 17 76 0 119 33 106 74 115
 117 0 123 -17 33 0 119 106 76 11 123 124 0 120 -17 120 0 125 31 108 11 106 121
 0 35 +16 121 649 0 ?120 126 127 128 32 126 1 17 108 0 125 120 110 100 103 109 0
 115 -15 125 67 0 120 129 0 17 110 0 125 108 130 97 131 126 0 111 +16 109 746 0
 ?103 132 0 133 0 0 1 17 115 0 113 104 134 100 76 117 0 0 +15 113 293 0 134 135
 0 17 134 0 113 115 136 74 137 138 0 0 +16 117 774 0 ?115 124 105 118 105 105 1
 16 124 773 0 ?123 36 117 139 36 36 1 38 12 CCCCCCCCCCCA17 intersection_data204
 0 Z118 911 0 105 140 139 0 +141 142 143 144 145 146 38 140 912 0 147 148 118 0
 +149 142 150 151 152 153 38 139 910 0 124 118 154 0 +155 142 156 157 158 159 50
 255 141 133 0 135 149 155 160 +-3469446951953615e-33 .006 .01616580753730955 -.
5 0 -.866025403784439 -.866025403784439 0 .5 52 142 898 0 161 162 163 164 -0 -.0
06 0 0 1 0 .014 .86602540378444 .5 0 0 1 40 255 3 143 0 1 3 .001448370893654324
 .3047243637764985 ??-200000000003479e-21 -.00474950376794049 .01616592300736335
 .00749787104377496 -.00599318805942851 .01183690967183694 .0140002 -.0047495037
6794049 .00808278829860092 41 3 CI8 term_use0 0 1 cCZ1 144 L?-200000000003479e-2
1 -.00474950376794049 .01616592300736335 41 1 145 L?.0140002 -.00474950376794049
 .00808278829860092 204 2 17 INTERSECTION_DATA17 Intersection data7 uv_type0 0 1
 u6 values0 1 1 fT12 146 4 230940107675922e-21 -.0107495037679405 6.283172935476
47 .001250496232059514 -.00865779573094516 -.0119931880594285 .564639429581849 6
81194057149287e-20 -.0161660384774172 -.0107495037679405 1.04720992289971 .00125
0496232059514 14 255 161 847 165 ?129 166 28 5 142 -122 166 129 166 23 51 255 16
2 1098 0 167 0 142 0 +0 -.006 0 0 1 0 .01 0 0 1 52 163 466 0 168 142 169 170 +0
 .006 0 0 -1 0 .014 .86602540378444 .5 0 0 1 141 255 164 139 171 172 142 141 171
 118 173 164 142 141 172 174 164 175 142 38 174 915 0 132 133 176 0 +177 142 178
 179 180 181 141 175 176 172 182 142 38 176 914 0 183 174 148 0 +184 142 185 186
 187 188 141 182 148 175 173 142 38 148 913 0 189 176 140 0 +190 142 191 192 193
 194 141 173 140 182 171 142 16 189 779 0 ?195 196 197 148 196 196 1 50 190 131
 0 198 184 149 199 +.014 .006 -.00808290376865476 -.5 0 .866025403784438 .866025
403784439 0 .5 40 3 191 0 1 3 .001448370893654322 .3047243637764985 ??.0140002 -
.00474950376794049 -.00808278829860093 .00650212895622504 -.00599318805942851 -.
01241180163412734 -1999999999954435e-22 -.00474950376794049 -.01616592300736335
 41 1 192 L?.0140002 -.00474950376794049 -.00808278829860093 41 1 193 L?-1999999
999954435e-22 -.00474950376794049 -.01616592300736335 204 12 194 4 2309401076763
87e-21 -.01074950376794048 2.094382730690085 .001250496232059514 -.0086577957309
4516 -.0119931880594285 2.659034531975045 681194057149388e-20 -.0161660384774172
 -.01074950376794048 3.141605025292905 .001250496232059514 14 198 272 200 ?201 2
02 203 5 190 -0 0 201 202 23 50 184 130 0 201 177 190 204 +520417042793042e-32 .
006 -.01616580753730955 .5 0 .866025403784439 .866025403784439 0 -.5 50 149 132
 0 202 190 141 205 +.014 .006 .00808290376865476 -1 0 0 0 0 1 141 199 206 207 20
7 190 38 206 477 0 208 209 210 0 +190 163 211 212 213 214 141 207 148 199 199 19
0 16 208 343 0 ?55 215 216 206 215 215 1 38 209 478 0 217 218 206 0 +184 163 219
 220 221 222 38 210 476 0 223 206 224 0 +149 163 225 226 227 228 40 3 211 0 1 3
 .001448370893654322 .3047243637764985 ??.0140002 .00474950376794049 -.008082788
29860093 .00650212895622504 .00599318805942851 -.01241180163412734 -199999999995
4435e-22 .00474950376794049 -.01616592300736335 41 1 212 L?.0140002 .00474950376
794049 -.00808278829860093 41 1 213 L?-1999999999954435e-22 .00474950376794049 -
.01616592300736335 204 12 214 4 230940107676387e-21 -.001250496232059514 4.18880
2576489505 .001250496232059514 -.00865779573094516 -681194057149548e-20 3.624150
77520454 681194057149388e-20 -.0161660384774172 -.001250496232059514 3.141580281
88668 .001250496232059514 16 223 341 0 ?52 229 215 210 229 229 1 38 224 475 0 23
0 210 231 0 +141 163 232 233 234 235 40 5 225 0 1 5 .002311558492384285 .3619004
13070895 ??.014 -.00396511620287356 .02794983138908105 .014 .00359126471938589 .
0115854853079373 .014 .00596357442266182 .00133061154590913 .014 .00440679548596
1295 -.00921310015658289 .014 -.00396511620287356 -.02794983138908105 41 1 226 L
?.014 -.00396511620287356 .02794983138908105 41 1 227 L?.014 -.00396511620287356
 -.02794983138908105 204 20 228 4 .0198669276204263 -.00996511620287356 5.818819
97508384 .00996511620287356 .003502581539282535 -.00240873528061411 5.4036953177
9473 .00240873528061411 -.00675229222274563 -364255773381856e-19 4.8071480173431
4 364255773381859e-19 -.01729600392523765 -.001593204514038705 4.13035556312256
 .001593204514038705 -.03603273515773585 -.00996511620287356 3.60595798568554 .0
0996511620287356 16 230 339 0 ?49 236 229 224 236 236 1 38 231 474 0 237 224 238
 0 +155 163 239 240 241 242 40 3 232 0 1 3 .001448370893654324 .3047243637764985
 ??-200000000003479e-21 .00474950376794049 .01616592300736335 .00749787104377496
 .00599318805942851 .01183690967183694 .0140002 .00474950376794049 .008082788298
60092 41 1 233 L?-200000000003479e-21 .00474950376794049 .01616592300736335 41 1
 234 L?.0140002 .00474950376794049 .00808278829860092 204 12 235 4 2309401076759
22e-21 -.001250496232059514 123717031129109e-19 .001250496232059514 -.0086577957
3094516 -681194057149289e-20 5.71854587759774 681194057149287e-20 -.016166038477
4172 -.001250496232059514 5.23597538427988 .001250496232059514 16 237 337 0 ?46
 243 236 231 243 243 1 30 255 238 135 0 244 231 245 0 +-.014 .006 .0080829037686
5476 0 -1 0 50 155 134 0 16 141 20 246 +-.014 .006 .00808290376865476 .5 0 -.866
025403784438 -.866025403784439 0 -.5 40 3 239 0 1 3 .001448370893654324 .3047243
637764985 ??-.0140002 .00474950376794049 .00808278829860092 -.00650212895622504
 .00599318805942851 .01241180163412734 1999999999967225e-22 .00474950376794049 .
01616592300736335 41 1 240 L?-.0140002 .00474950376794049 .00808278829860092 41
 1 241 L?1999999999967225e-22 .00474950376794049 .01616592300736335 204 12 242 4
 230940107676387e-21 -.001250496232059514 1.04720992289971 .001250496232059514 -
.00865779573094516 -681194057149462e-20 .482558121614748 681194057149388e-20 -.0
161660384774172 -.001250496232059514 6.28317293547647 .001250496232059514 14 16
 302 247 ?135 0 248 5 155 -0 0 135 0 23 52 20 1152 249 250 155 6 0 -0 -.006 0 0
 -1 0 .011 .707106781186548 .707106781186548 0 0 -1 141 246 231 251 251 155 141
 251 139 246 246 155 81 2 249 1153 252 20 0 0 0 18 253 254 14 250 1145 255 ?19 1
67 256 5 20 +0 0 19 167 23 81 1 255 1376 257 250 258 0 247 259 260 14 19 1159 25
9 ?0 250 261 5 6 +0 0 0 250 23 14 167 1085 262 ?250 129 263 5 162 -0 0 250 129 2
3 15 256 1146 0 264 250 265 13 23 48 0 0 0 0 0 0 9 16 17 264 0 256 264 264 0 266
 25 0 0 -15 265 1147 0 267 250 0 17 267 0 265 267 267 0 268 269 0 0 -17 268 0 27
0 268 268 0 267 269 0 0 +16 269 1114 0 ?268 271 32 272 0 0 1 16 271 1120 0 ?273
 25 269 274 0 0 1 16 32 670 0 ?31 269 275 128 275 121 1 31 272 1117 0 269 128 27
4 0 +0 -.006 0 0 1 0 0 0 1 .011 31 128 651 0 121 276 272 0 -0 -.006 0 0 1 0 0 0
 1 .014 31 274 1123 0 271 272 21 0 +0 .005 0 0 1 0 0 0 1 .01 31 21 1129 0 25 274
 7 0 -0 -.005 0 0 1 0 0 0 1 .01 16 25 1126 0 ?266 10 271 21 0 0 1 17 266 0 263 2
66 266 0 264 25 0 0 +15 263 1127 0 266 167 277 15 277 1121 0 273 167 0 17 273 0
 277 273 273 0 278 271 0 0 +17 278 0 279 278 278 0 273 271 0 0 -15 279 1161 0 27
8 19 0 31 276 215 0 280 281 128 0 +0 .006 0 0 1 0 0 0 1 .014 16 280 213 0 ?282 2
83 138 276 127 283 1 30 281 140 0 138 284 276 0 +-3469446951953615e-33 .006 .016
16580753730955 0 -1 0 16 138 286 0 ?134 280 285 281 0 0 1 30 284 139 0 285 286 2
81 0 +.014 .006 .00808290376865476 0 -1 0 16 285 275 0 ?116 138 287 284 0 0 1 30
 286 138 0 287 288 284 0 +.014 .006 -.00808290376865476 0 -1 0 16 287 264 0 ?289
 285 290 286 0 0 1 30 288 137 0 290 245 286 0 +520417042793042e-32 .006 -.016165
80753730955 0 -1 0 16 290 253 0 ?291 287 292 288 0 0 1 30 245 136 0 292 238 288
 0 +-.014 .006 -.00808290376865477 0 -1 0 16 292 242 0 ?293 290 244 245 0 0 1 17
 293 0 294 295 296 86 297 292 0 0 +16 244 239 0 ?298 292 243 238 0 0 1 17 298 0
 248 35 299 27 300 244 0 0 +16 243 336 0 ?64 244 237 231 237 237 1 17 64 0 301 3
02 61 62 299 243 0 303 +15 301 414 0 64 168 0 17 302 0 301 61 64 39 304 283 0 30
5 -17 61 0 301 64 302 59 306 307 0 299 +17 299 0 248 298 308 59 64 243 0 300 -17
 303 0 309 46 310 62 282 280 0 304 -15 309 418 0 46 311 0 17 46 0 309 310 303 44
 308 237 0 136 +17 310 0 309 303 46 34 136 236 0 282 +17 282 0 312 313 304 34 30
3 280 0 314 +17 304 0 312 282 43 62 302 283 0 308 +15 312 4 0 282 315 0 17 43 0
 312 304 316 39 317 318 0 302 +16 283 218 0 ?304 318 280 276 280 318 1 17 308 0
 248 299 137 62 46 237 0 0 -15 248 301 0 298 16 0 17 137 0 248 308 123 44 134 13
8 0 0 -17 123 0 248 137 35 74 33 124 0 134 +17 35 0 248 123 298 11 29 36 0 0 +16
 36 772 0 ?35 319 124 139 124 124 1 16 319 323 0 ?313 307 36 154 0 0 1 17 313 0
 312 320 282 71 38 319 0 321 +16 307 335 0 ?61 322 319 218 322 322 1 31 154 492
 0 319 139 218 0 +0 .006 0 0 1 0 0 0 1 .014 38 218 479 0 307 154 209 0 +177 163
 323 324 325 326 50 177 129 0 327 328 184 329 +-.014 .006 -.00808290376865477 1
 0 429232742496331e-30 429232742496331e-30 0 -1 40 5 323 0 1 5 .0023115584923842
9 .361900413070895 ??-.014 -.003965116202873565 -.0279498313890811 -.014 .003591
26471938589 -.0115854853079373 -.014 .00596357442266182 -.00133061154590915 -.01
4 .0044067954859613 .00921310015658287 -.014 -.003965116202873565 .0279498313890
811 41 1 324 L?-.014 -.003965116202873565 -.0279498313890811 41 1 325 L?-.014 -.
003965116202873565 .0279498313890811 204 20 326 4 .0198669276204263 -.0099651162
0287356 2.677227321494045 .00996511620287356 .003502581539282545 -.0024087352806
1411 2.262102664204935 .00240873528061411 -.00675229222274562 -3642557733818475e
-20 1.665555363753345 364255773381849e-19 -.01729600392523765 -.0015932045140387
 .98876290953277 .0015932045140387 -.03603273515773585 -.00996511620287356 .4643
65332095748 .00996511620287357 14 327 250 330 ?311 201 294 5 177 -0 0 311 201 23
 50 328 98 0 129 169 177 0 +0 -.006 0 0 1 0 0 0 1 141 329 218 331 331 177 141 33
1 174 329 329 177 14 129 672 332 ?167 161 270 5 328 -0 0 167 161 23 50 169 3 0 3
15 163 328 0 +0 .006 0 0 1 0 0 0 1 14 315 236 333 ?122 334 335 5 169 +0 0 122 33
4 23 81 1 333 1381 257 315 336 0 332 337 338 14 122 851 337 ?107 315 119 5 142 -
107 161 107 315 23 14 334 419 339 ?315 340 341 5 163 +340 311 315 340 23 15 335
 1133 0 24 315 312 17 24 0 335 24 24 0 342 10 0 0 +17 342 0 261 342 342 0 24 10
 0 0 -15 261 1160 0 342 19 279 81 1 339 1383 257 334 343 0 337 344 345 14 340 42
3 344 ?334 346 347 5 163 +346 334 334 346 23 15 341 422 0 49 334 0 14 311 415 34
8 ?168 327 309 5 163 +334 168 168 327 23 81 1 348 1385 257 311 349 0 344 350 351
 14 168 411 350 ?352 311 301 5 163 +311 352 352 311 23 81 1 350 1386 257 168 353
 0 348 354 355 14 352 431 354 ?346 168 356 5 163 +168 346 346 168 23 81 1 354 13
87 257 352 357 0 350 358 359 14 346 427 358 ?340 352 360 5 163 +352 340 340 352
 23 15 356 434 0 58 352 0 17 58 0 356 305 317 56 361 217 0 296 +17 305 0 356 317
 58 39 296 322 0 306 +17 317 0 356 58 305 65 43 318 0 316 -17 361 0 362 363 297
 65 58 217 0 0 -16 217 345 0 ?58 216 322 209 216 216 1 17 296 0 294 293 306 56 3
05 322 0 297 -15 294 249 0 293 327 0 17 306 0 294 296 300 39 61 307 0 0 -16 322
 346 0 ?305 217 307 218 307 307 1 17 297 0 362 361 364 56 293 292 0 0 -15 362 26
0 0 291 201 0 17 364 0 362 297 365 86 93 183 0 293 +17 365 0 362 364 291 91 85 1
97 0 0 +17 93 0 366 367 88 91 364 183 0 368 -16 183 781 0 ?364 197 369 176 197 1
97 1 16 197 780 0 ?365 189 183 176 183 183 1 16 369 782 0 ?295 183 132 174 132 1
32 1 17 295 0 294 37 293 89 88 369 0 0 +16 132 771 0 ?37 369 109 174 369 369 1 1
7 37 0 294 300 295 27 30 132 0 298 +17 300 0 294 306 37 59 298 244 0 0 -17 30 0
 28 26 29 89 37 132 0 367 -15 28 850 0 30 161 0 17 367 0 366 88 93 89 370 275 0
 31 -15 366 870 0 367 166 0 17 88 0 366 93 367 86 295 369 0 364 -17 370 0 125 13
0 31 91 367 275 0 365 +16 275 666 0 ?370 32 371 128 371 32 1 17 31 0 125 370 120
 89 26 32 0 295 +16 371 662 0 ?130 275 126 128 126 275 1 17 130 0 125 110 370 94
 368 371 0 372 +16 126 658 0 ?110 371 121 128 121 371 1 17 368 0 373 85 96 91 13
0 371 0 370 -17 372 0 203 195 289 94 82 196 0 0 +15 203 271 0 289 198 0 17 195 0
 203 374 372 83 96 189 0 291 +17 289 0 203 372 375 80 376 287 0 0 +17 82 0 377 9
9 131 80 372 196 0 378 -16 196 778 0 ?372 147 189 148 189 189 1 16 147 777 0 ?37
8 112 196 140 112 112 1 17 378 0 379 376 111 80 99 147 0 289 +16 112 776 0 ?111
 105 147 140 147 147 1 17 111 0 379 378 116 97 79 112 0 0 +15 379 282 0 116 202
 0 17 116 0 379 111 380 77 114 285 0 0 +17 380 0 379 116 321 47 73 229 0 114 -17
 114 0 113 314 104 47 116 285 0 0 -17 314 0 113 136 114 34 49 230 0 0 -17 136 0
 113 134 314 44 310 236 0 137 -17 49 0 341 73 38 47 314 230 0 380 +17 73 0 341 3
8 49 71 380 229 0 381 +17 38 0 341 49 73 34 313 319 0 310 -16 229 340 0 ?73 230
 223 210 223 223 1 17 381 0 347 52 70 71 320 127 0 313 -15 347 426 0 52 340 0 17
 52 0 347 70 381 50 321 223 0 375 +17 70 0 347 381 52 68 375 215 0 382 +17 320 0
 312 316 313 68 381 127 0 383 +16 127 230 0 ?320 121 384 276 384 280 1 16 384 22
6 0 ?316 127 318 276 318 127 1 17 316 0 312 43 320 65 382 384 0 361 +16 318 222
 0 ?43 384 283 276 283 384 1 17 382 0 360 55 67 68 316 384 0 320 -15 360 430 0 5
5 346 0 17 55 0 360 67 382 53 383 208 0 363 +17 67 0 360 382 55 65 363 216 0 317
 +17 363 0 362 291 361 53 67 216 0 374 -16 216 344 0 ?67 208 217 209 217 217 1 1
7 291 0 362 365 363 83 374 290 0 0 +17 374 0 203 383 195 53 291 290 0 0 -17 383
 0 203 375 374 68 55 208 0 0 -17 375 0 203 289 383 50 70 215 0 376 -16 215 342 0
 ?70 223 208 206 208 208 1 17 376 0 379 321 378 50 289 287 0 0 -17 321 0 379 380
 376 71 52 223 0 0 -16 236 338 0 ?310 237 230 224 230 230 1 14 202 283 385 ?198
 135 379 5 149 -0 0 198 135 23 81 1 385 1389 257 202 386 0 358 387 388 14 135 29
4 387 ?202 16 113 5 141 -0 0 202 16 23 81 1 387 1390 257 135 389 0 385 390 391 8
0 255 1 257 392 393 9000 1 1 1 1 1 1 1 1 0 FFFFTFTFFFFFFF1 81 1 389 1303 394 135
 0 387 395 386 396 81 1 390 1391 257 107 397 0 387 398 399 82 255 1 391 49807371
4 14 107 855 390 ?400 122 102 5 142 -400 122 400 122 23 81 1 397 1316 394 107 0
 390 401 402 403 81 1 398 1392 257 400 402 0 390 404 405 82 1 399 801833074 14 4
00 859 398 ?406 107 377 5 142 -406 107 406 107 23 81 1 402 1317 394 400 0 398 39
7 407 408 81 1 404 1393 257 406 407 0 398 409 410 82 1 405 800981106 14 406 863
 404 ?166 400 373 5 142 -166 400 166 400 23 81 1 407 1318 394 406 0 404 402 411
 412 81 1 409 1394 257 166 411 0 404 413 414 82 1 410 800129138 14 166 867 409 ?
161 406 366 5 142 -161 406 161 406 23 81 1 411 1319 394 166 0 409 407 415 416 81
 1 413 1395 257 201 417 0 409 0 418 82 1 414 799277170 14 201 261 413 ?327 198 3
62 5 184 -0 0 327 198 23 81 1 417 1306 394 201 0 413 419 420 421 82 1 418 494731
378 80 1 394 0 422 8001 0 0 0 0 3 5 0 0 0 FFFFTFTFFFFFFF2 81 1 419 1305 394 198
 0 200 386 417 423 81 1 420 1307 394 327 0 330 417 349 424 83 255 3 421 1 .87058
8235294118 .529411764705882 81 1 330 1379 257 327 420 0 262 332 425 81 1 349 130
8 394 311 0 348 420 353 426 83 3 424 1 .870588235294118 .529411764705882 81 1 35
3 1309 394 168 0 350 349 357 427 83 3 426 1 .870588235294118 .529411764705882 81
 1 357 1310 394 352 0 354 353 428 429 83 3 427 1 .870588235294118 .5294117647058
82 81 1 428 1311 394 346 0 358 357 430 431 83 3 429 1 .870588235294118 .52941176
4705882 81 1 358 1388 257 346 428 0 354 385 432 81 1 430 1312 394 340 0 344 428
 343 433 83 3 431 1 .870588235294118 .529411764705882 81 1 344 1384 257 340 430
 0 339 348 434 81 1 343 1313 394 334 0 339 430 336 435 83 3 433 1 .8705882352941
18 .529411764705882 81 1 336 1314 394 315 0 333 343 401 436 83 3 435 1 .87058823
5294118 .529411764705882 81 1 401 1315 394 122 0 337 336 397 437 83 3 436 1 .870
588235294118 .529411764705882 81 1 337 1382 257 122 401 0 333 339 438 83 3 437 1
 .870588235294118 .529411764705882 82 1 438 802685042 82 1 434 485228656 82 1 43
2 484376688 81 1 262 1378 257 167 439 0 259 330 440 81 1 332 1380 257 129 441 0
 330 333 442 82 1 425 488898674 81 1 441 1321 394 129 0 332 415 439 443 82 1 442
 795672695 81 1 415 1320 394 161 0 165 411 441 444 81 1 439 1322 394 167 0 262 4
41 258 445 83 3 443 1 .870588235294118 .529411764705882 81 1 258 1323 394 250 0
 255 439 446 447 83 3 445 1 1 1 81 1 446 1324 394 19 0 259 258 0 448 83 3 447 1
 .870588235294118 .529411764705882 81 1 259 1377 257 19 446 0 255 262 449 83 3 4
48 1 .870588235294118 .529411764705882 82 1 449 -1757544329 81 1 165 1373 257 16
1 415 0 0 200 450 83 3 444 1 .870588235294118 .529411764705882 81 1 200 1374 257
 198 419 0 165 247 451 82 1 450 803143794 81 1 247 1375 257 16 395 0 200 255 452
 82 1 451 495845490 81 1 395 1302 394 16 0 247 0 389 453 82 1 452 498860146 83 3
 453 1 .870588235294118 .529411764705882 82 1 440 1938620535 81 1 386 1304 394 2
02 0 385 389 419 454 83 3 423 1 .870588235294118 .529411764705882 83 3 454 1 .87
0588235294118 .529411764705882 79 255 15 422 SDL/TYSA_COLOUR83 3 416 1 .87058823
5294118 .529411764705882 83 3 412 1 .870588235294118 .529411764705882 15 373 866
 0 368 406 0 83 3 408 1 .870588235294118 .529411764705882 15 377 862 0 131 400 0
 17 131 0 377 82 99 94 110 126 0 130 -17 99 0 377 131 82 97 378 147 0 103 -83 3
 403 1 .870588235294118 .529411764705882 83 3 396 1 .870588235294118 .5294117647
05882 79 14 393 SWEntUnchanged82 1 388 496959602 17 96 0 373 368 85 94 195 189 0
 131 -17 85 0 373 96 368 83 365 197 0 195 -82 1 359 483524720 82 1 355 487391344
 82 1 351 486932592 82 1 345 486080624 82 1 338 479920247 15 270 1115 0 268 129
 125 82 1 260 -1758920585 80 2 252 455 456 8044 0 0 0 0 3 5 0 0 0 FFFFTFFFTTFFFF
3 2 81 2 18 1167 252 6 0 0 249 0 457 458 84 255 6 253 BAAAAB83 3 254 -.001 0 .00
1 84 6 457 BAAAAB83 3 458 0 .001 .001 79 17 456 SDL/TYSA_BLEND_ID40 3 219 0 1 3
 .001448370893654324 .3047243637764985 ??200000000005214e-21 .00474950376794049
 -.01616592300736335 -.00749787104377496 .00599318805942851 -.01183690967183694
 -.0140002 .00474950376794049 -.00808278829860093 41 1 220 L?200000000005214e-21
 .00474950376794049 -.01616592300736335 41 1 221 L?-.0140002 .00474950376794049
 -.00808278829860093 204 12 222 4 230940107675922e-21 -.001250496232059514 3.141
605025292905 .001250496232059514 -.00865779573094516 -681194057149288e-20 2.5769
53224007945 681194057149287e-20 -.0161660384774172 -.001250496232059512 2.094382
730690085 .001250496232059512 141 205 210 459 459 149 141 459 140 205 205 149 14
1 204 209 460 460 184 141 460 176 204 204 184 40 3 185 0 1 3 .001448370893654324
 .3047243637764985 ??200000000005214e-21 -.00474950376794049 -.01616592300736335
 -.00749787104377496 -.00599318805942851 -.01183690967183694 -.0140002 -.0047495
0376794049 -.00808278829860093 41 1 186 L?200000000005214e-21 -.0047495037679404
9 -.01616592300736335 41 1 187 L?-.0140002 -.00474950376794049 -.008082788298600
93 204 12 188 4 230940107675922e-21 -.0107495037679405 3.14158028188668 .0012504
96232059514 -.00865779573094516 -.0119931880594285 3.706232083171645 68119405714
9287e-20 -.0161660384774172 -.0107495037679405 4.188802576489505 .00125049623205
9512 31 133 928 0 109 0 174 0 +0 -.006 0 0 1 0 0 0 1 .014 40 5 178 0 1 5 .002311
55849238429 .361900413070895 ??-.014 .003965116202873565 -.0279498313890811 -.01
4 -.00359126471938589 -.0115854853079373 -.014 -.00596357442266182 -.00133061154
590915 -.014 -.0044067954859613 .00921310015658287 -.014 .003965116202873565 .02
79498313890811 41 1 179 L?-.014 .003965116202873565 -.0279498313890811 41 1 180
 L?-.014 .003965116202873565 .0279498313890811 204 20 181 4 .0198669276204263 -.
002034883797126435 3.60595798568554 .00996511620287356 .003502581539282545 -.009
59126471938589 4.021082642974655 .00240873528061411 -.00675229222274562 -.011963
57442266182 4.61762994342624 364255773381849e-19 -.01729600392523765 -.010406795
4859613 5.29442239764682 .0015932045140387 -.03603273515773585 -.002034883797126
435 5.81881997508384 .00996511620287357 141 170 231 461 462 163 141 461 224 463
 170 163 141 462 218 170 464 163 141 464 209 462 465 163 141 465 206 464 463 163
 141 463 210 465 461 163 141 160 224 466 466 141 141 466 118 160 160 141 40 3 15
6 0 1 3 .001448370893654324 .3047243637764985 ??-.0140002 -.00474950376794049 .0
0808278829860092 -.00650212895622504 -.00599318805942851 .01241180163412734 1999
999999967225e-22 -.00474950376794049 .01616592300736335 41 1 157 L?-.0140002 -.0
0474950376794049 .00808278829860092 41 1 158 L?1999999999967225e-22 -.0047495037
6794049 .01616592300736335 204 12 159 4 230940107676387e-21 -.01074950376794048
 5.23597538427988 .001250496232059514 -.00865779573094516 -.0119931880594285 5.8
0062718556484 681194057149388e-20 -.0161660384774172 -.01074950376794048 1237170
311249292e-20 .001250496232059514 40 5 150 0 1 5 .002311558492384285 .3619004130
70895 ??.014 .00396511620287356 .02794983138908105 .014 -.00359126471938589 .011
5854853079373 .014 -.00596357442266182 .00133061154590913 .014 -.004406795485961
295 -.00921310015658289 .014 .00396511620287356 -.02794983138908105 41 1 151 L?.
014 .00396511620287356 .02794983138908105 41 1 152 L?.014 .00396511620287356 -.0
2794983138908105 204 20 153 4 .0198669276204263 -.00203488379712644 .46436533209
5748 .00996511620287356 .003502581539282535 -.00959126471938589 .879489989384862
 .00240873528061411 -.00675229222274563 -.01196357442266182 1.476037289836448 36
4255773381859e-19 -.01729600392523765 -.0104067954859613 2.152829744057025 .0015
93204514038705 -.03603273515773585 -.00203488379712644 2.677227321494045 .009965
11620287356 19 17 142 0 1 0 9 5 S0 74 4 CI16 index_map_offset0 0 1 dCCZ20 15 10
 0 0 467 468 413 18 469 470 471 13 446 2 0 0 0 0 0 0 0 0 0 0 81 2 467 174 472 1
 0 468 0 0 0 473 81 2 468 178 474 1 467 469 0 0 0 475 81 1 469 1177 476 1 468 47
0 0 0 477 81 2 470 1202 478 1 469 471 0 0 479 0 81 2 471 1296 480 1 470 13 0 0 0
 481 81 2 13 1299 482 1 471 2 0 0 0 0 80 2 482 483 484 9000 0 0 0 0 3 5 0 0 0 FF
TFFFFFFFFFFF9 1 79 16 484 BODY_RECIPE_200180 2 480 485 486 9000 0 0 0 0 3 5 0 0
 0 FFTFFFFFFFFFFF9 1 82 1 481 1 79 24 486 BODY_IN_LIGHTWEIGHT_PERM80 2 478 487 4
88 8004 0 0 0 0 3 5 0 0 0 FFTFFFFFFFFFFF2 3 83 1 479 1 79 16 488 SDL/TYSA_DENSIT
Y80 1 476 489 490 9000 1 1 1 1 1 1 1 1 0 FFTFFFFFFFFFFF1 82 1 477 364095 79 10 4
90 BODY_MATCH80 2 474 491 492 9000 0 0 0 0 3 5 0 0 0 FFTFFFFFFFFFFF9 1 82 1 475
 61 79 30 492 LAST_BODY_MODIFYING_FEATURE_ID80 2 472 493 494 9000 0 0 0 0 3 5 0
 0 0 FFTFFFFFFFFFFF9 1 82 1 473 117 79 19 494 ENT_TIME_STAMP_200180 2 12 495 496
 9000 0 0 0 0 3 5 0 0 0 FFTFFFFFFFFFFF9 1 82 1 14 104 79 12 496 ATOM_ID_20011 0
 
